<?xml version="1.0" standalone="no"?>
<!DOCTYPE svg PUBLIC "-//W3C//DTD SVG 1.1//EN" "http://www.w3.org/Graphics/SVG/1.1/DTD/svg11.dtd" >
<svg xmlns="http://www.w3.org/2000/svg" xmlns:xlink="http://www.w3.org/1999/xlink" version="1.1">
<metadata>
Created by FontForge 20170924 at Tue Jun  5 14:56:22 2018
 By www-data
Noel Leu
</metadata>
<defs>
<font id="GTSuperDisplay-Light" horiz-adv-x="580" >
  <font-face 
    font-family="GT Super Display Light"
    font-weight="300"
    font-stretch="normal"
    units-per-em="1000"
    panose-1="0 0 4 0 0 0 0 0 0 0"
    ascent="763"
    descent="-237"
    x-height="490"
    cap-height="700"
    bbox="-364 -248 1089 870"
    underline-thickness="50"
    underline-position="-100"
    unicode-range="U+000D-FB02"
  />
<missing-glyph horiz-adv-x="662" 
d="M598 370q44 -63 44 -147q0 -87 -42.5 -155t-118.5 -106t-173 -38q-84 0 -149.5 26.5t-102 73.5t-36.5 108q0 70 46 111t126 41q59 0 108.5 -23t78.5 -62t29 -85q0 -45 -27.5 -72.5t-72.5 -27.5q-43 0 -70.5 27.5t-27.5 69.5q0 38 28 64.5t68 26.5q22 0 40 -6
q-18 24 -48.5 38t-65.5 14q-51 0 -81 -31.5t-30 -86.5q0 -51 26.5 -91.5t73 -63t105.5 -22.5q82 0 132.5 41t50.5 106q0 46 -30 84t-99 72l-152 74q-75 37 -114 90.5t-39 120.5q0 65 34.5 116t96 79t141.5 28q68 0 142.5 -17.5t121.5 -44.5l-72 -194h-5q-14 61 -51.5 111
t-89 79t-106.5 29q-43 0 -67 -18t-24 -49q0 -28 23.5 -52t77.5 -50l163 -79q94 -46 138 -109z" />
    <glyph glyph-name="fi" unicode="fi" horiz-adv-x="531" 
d="M25 8q33 2 49 6t23 13t7 29v424h-73v10h73v36q0 107 47.5 150.5t122.5 43.5q33 0 73 -11t67.5 -31.5t27.5 -45.5q0 -20 -10.5 -29t-26.5 -9q-31 0 -57 50q-33 55 -100 55q-45 0 -79.5 -32.5t-34.5 -91.5q0 -46 30 -85h79v-10h-79v-424q0 -20 7 -29t23 -13t49 -6v-8h-218
v8zM293 8q33 2 49 6t23 13t7 29v339q0 36 -8 48.5t-31 12.5q-19 0 -40 -4v8l139 35v-439q0 -20 7 -29t23 -13t49 -6v-8h-218v8z" />
    <glyph glyph-name="fl" unicode="fl" horiz-adv-x="525" 
d="M25 8q33 2 49 6t23 13t7 29v424h-73v10h73v26q0 110 46.5 157t130.5 47q37 0 75.5 -9t70.5 -24v-645q4 -19 20 -25.5t58 -8.5v-8h-217v8q33 2 49 6t23 13t7 29v592q-16 23 -45.5 36.5t-64.5 13.5q-52 0 -85 -31t-33 -85q0 -28 5.5 -47t19.5 -45h103v-10h-103v-424
q0 -20 7 -29t23 -13t49 -6v-8h-218v8z" />
    <glyph glyph-name="f_f" unicode="ff" horiz-adv-x="577" 
d="M566.5 716q23.5 -4 40.5 -12v-110h-7q-4 42 -30 72.5t-72 30.5t-68.5 -31.5t-22.5 -71.5q0 -33 7 -55t23 -49h113v-10h-113v-424q0 -19 6.5 -28t26.5 -13.5t66 -6.5v-8h-238v8q33 2 49 6t23 13t7 29v424h-73v10h73v63q0 45 9 76q-17 30 -47 49t-71 19q-68 0 -98.5 -36
t-30.5 -81q0 -26 5.5 -46t19.5 -44h83v-10h-83v-424q0 -20 7 -29t23 -13t49 -6v-8h-218v8q33 2 49 6t23 13t7 29v424h-73v10h73v47q0 93 51 138t129 45q35 0 69.5 -9.5t59.5 -31.5q36 41 112 41q18 0 41.5 -4z" />
    <glyph glyph-name="f_f_i" unicode="ffi" horiz-adv-x="804" 
d="M441.5 666.5q-34.5 -32.5 -34.5 -91.5q0 -46 30 -85h79v-10h-79v-424q0 -20 7 -29t23 -13t49 -6v-8h-218v8q33 2 49 6t23 13t7 29v424h-73v10h73v36q0 55 14 94q-16 33 -47.5 55t-75.5 22q-68 0 -98.5 -36t-30.5 -81q0 -26 5.5 -46t19.5 -44h83v-10h-83v-424q0 -20 7 -29
t23 -13t49 -6v-8h-218v8q33 2 49 6t23 13t7 29v424h-73v10h73v47q0 93 51 138t129 45q38 0 74.5 -11t62.5 -37q43 48 126 48q33 0 73 -11t67.5 -31.5t27.5 -45.5q0 -20 -10.5 -29t-26.5 -9q-31 0 -57 50q-33 55 -100 55q-45 0 -79.5 -32.5zM712 27q7 -9 23 -13t49 -6v-8
h-218v8q33 2 49 6t23 13t7 29v339q0 36 -8 48.5t-31 12.5q-19 0 -40 -4v8l139 35v-439q0 -20 7 -29z" />
    <glyph glyph-name="f_f_l" unicode="ffl" horiz-adv-x="797" 
d="M719 16.5q16 -6.5 58 -8.5v-8h-217v8q33 2 49 6t23 13t7 29v592q-16 23 -45.5 36.5t-64.5 13.5q-52 0 -85 -31t-33 -85q0 -28 5.5 -47t19.5 -45h103v-10h-103v-424q0 -20 7 -29t23 -13t49 -6v-8h-218v8q33 2 49 6t23 13t7 29v424h-73v10h73v26q0 62 15 104q-16 33 -47 55
t-76 22q-68 0 -98.5 -36t-30.5 -81q0 -26 5.5 -46t19.5 -44h83v-10h-83v-424q0 -20 7 -29t23 -13t49 -6v-8h-218v8q33 2 49 6t23 13t7 29v424h-73v10h73v47q0 93 51 138t129 45q38 0 75 -11.5t62 -37.5q45 49 132 49q37 0 75.5 -9t70.5 -24v-645q4 -19 20 -25.5z" />
    <glyph glyph-name="f_b.liga" unicode="fb" horiz-adv-x="815" 
d="M444.5 -3q-44.5 12 -77.5 33v617q-16 23 -45.5 37t-64.5 14q-52 0 -85 -31t-33 -85q0 -28 5.5 -47t19.5 -45h103v-10h-103v-424q0 -19 6.5 -28t26.5 -13.5t66 -6.5v-8h-238v8q33 2 49 6t23 13t7 29v424h-73v10h73v26q0 110 46.5 157t130.5 47q37 0 75.5 -9t70.5 -24v-288
q15 43 63 74.5t102 31.5q56 0 98.5 -28.5t66 -82.5t23.5 -128q0 -82 -31 -146t-87.5 -99.5t-129.5 -35.5q-43 0 -87.5 12zM669 64q46 65 46 183q0 107 -39 165.5t-118 58.5q-39 0 -77 -23t-54 -67v-320q11 -21 41.5 -41.5t77.5 -20.5q77 0 123 65z" />
    <glyph glyph-name="f_f_b.liga" unicode="ffb" horiz-adv-x="1088" 
d="M963.5 476.5q42.5 -28.5 66 -82.5t23.5 -128q0 -82 -31 -146t-87.5 -99.5t-129.5 -35.5q-43 0 -87.5 12t-77.5 33v617q-16 23 -45.5 37t-64.5 14q-52 0 -85 -31t-33 -85q0 -28 5.5 -47t19.5 -45h103v-10h-103v-424q0 -19 6.5 -28t26.5 -13.5t66 -6.5v-8h-238v8q33 2 49 6
t23 13t7 29v424h-73v10h73v26q0 62 15 102q-16 34 -47.5 56.5t-76.5 22.5q-68 0 -98.5 -36t-30.5 -81q0 -26 5.5 -46t19.5 -44h83v-10h-83v-424q0 -20 7 -29t23 -13t49 -6v-8h-218v8q33 2 49 6t23 13t7 29v424h-73v10h73v47q0 93 51 138t129 45q39 0 75.5 -11.5t62.5 -37.5
q43 49 132 49q37 0 75.5 -9t70.5 -24v-288q15 43 63 74.5t102 31.5q56 0 98.5 -28.5zM942 64q46 65 46 183q0 107 -39 165.5t-118 58.5q-39 0 -77 -23t-54 -67v-320q11 -21 41.5 -41.5t77.5 -20.5q77 0 123 65z" />
    <glyph glyph-name="f_f_h.liga" unicode="ffh" horiz-adv-x="1109" 
d="M1017 27q7 -9 23 -13t49 -6v-8h-218v8q33 2 49 6t23 13t7 29v267q0 76 -30.5 115t-91.5 39q-51 0 -82.5 -28.5t-45.5 -71.5v-321q0 -20 7 -29t23 -13t49 -6v-8h-218v8q33 2 49 6t23 13t7 29v591q-16 23 -45.5 37t-64.5 14q-52 0 -85 -31t-33 -85q0 -28 5.5 -47t19.5 -45
h103v-10h-103v-424q0 -20 7 -29t23 -13t49 -6v-8h-218v8q33 2 49 6t23 13t7 29v424h-73v10h73v26q0 62 15 102q-16 34 -47.5 56.5t-76.5 22.5q-68 0 -98.5 -36t-30.5 -81q0 -26 5.5 -46t19.5 -44h83v-10h-83v-424q0 -20 7 -29t23 -13t49 -6v-8h-218v8q33 2 49 6t23 13t7 29
v424h-73v10h73v47q0 93 51 138t129 45q39 0 75.5 -11.5t62.5 -37.5q43 49 132 49q37 0 75.5 -9t70.5 -24v-298q11 48 55.5 82t106.5 34q77 0 112.5 -44t35.5 -120v-285q0 -20 7 -29z" />
    <glyph glyph-name="f_f_j.liga" unicode="ffj" horiz-adv-x="788" 
d="M347 14q16 4 23 13t7 29v424h-73v10h73v36q0 55 14 94q-16 33 -47.5 55t-75.5 22q-68 0 -98.5 -36t-30.5 -81q0 -26 5.5 -46t19.5 -44h83v-10h-83v-424q0 -20 7 -29t23 -13t49 -6v-8h-218v8q33 2 49 6t23 13t7 29v424h-73v10h73v47q0 93 51 138t129 45q38 0 74.5 -11
t62.5 -37q43 48 126 48q33 0 73 -11.5t67.5 -31.5t27.5 -46q0 -20 -10.5 -29t-26.5 -9q-31 0 -57 50q-31 60 -98 60q-47 0 -81.5 -33t-34.5 -95q0 -46 30 -85h79v-10h-79v-424q0 -19 6.5 -28t26.5 -13.5t66 -6.5v-8h-238v8q33 2 49 6zM566 460l139 35v-564q0 -146 -126 -146
q-31 0 -59 11.5t-47 27.5l6 6q45 -33 89 -33q36 0 56.5 23.5t20.5 66.5v508q0 36 -8 48.5t-31 12.5q-19 0 -40 -4v8z" />
    <glyph glyph-name="f_f_k.liga" unicode="ffk" horiz-adv-x="1068" 
d="M707 27q7 -9 23 -13t49 -6v-8h-218v8q33 2 49 6t23 13t7 29v591q-16 23 -45.5 37t-64.5 14q-52 0 -85 -31t-33 -85q0 -28 5.5 -47t19.5 -45h103v-10h-103v-424q0 -20 7 -29t23 -13t49 -6v-8h-218v8q33 2 49 6t23 13t7 29v424h-73v10h73v26q0 62 15 102q-16 34 -47.5 56.5
t-76.5 22.5q-68 0 -98.5 -36t-30.5 -81q0 -26 5.5 -46t19.5 -44h83v-10h-83v-424q0 -20 7 -29t23 -13t49 -6v-8h-218v8q33 2 49 6t23 13t7 29v424h-73v10h73v47q0 93 51 138t129 45q39 0 75.5 -11.5t62.5 -37.5q43 49 132 49q37 0 75.5 -9t70.5 -24v-631q0 -20 7 -29z
M1016 25.5q23 -16.5 47 -18.5v-7h-114l-244 263l165 135q28 23 37.5 35.5t9.5 22.5q0 11 -12.5 18.5t-38.5 8.5v7h165v-7q-53 -9 -114 -60l-157 -132l195 -208q38 -41 61 -57.5z" />
    <glyph glyph-name="f_h.liga" unicode="fh" horiz-adv-x="836" 
d="M25 8q33 2 49 6t23 13t7 29v424h-73v10h73v26q0 110 46.5 157t130.5 47q37 0 75.5 -9t70.5 -24v-298q11 48 55.5 82t106.5 34q77 0 112.5 -44t35.5 -120v-285q0 -20 7 -29t23 -13t49 -6v-8h-218v8q33 2 49 6t23 13t7 29v267q0 76 -30.5 115t-91.5 39q-51 0 -82.5 -28.5
t-45.5 -71.5v-321q0 -20 7 -29t23 -13t49 -6v-8h-218v8q33 2 49 6t23 13t7 29v591q-16 23 -45.5 37t-64.5 14q-52 0 -85 -31t-33 -85q0 -28 5.5 -47t19.5 -45h103v-10h-103v-424q0 -20 7 -29t23 -13t49 -6v-8h-218v8z" />
    <glyph glyph-name="f_j.liga" unicode="fj" horiz-adv-x="515" 
d="M25 8q33 2 49 6t23 13t7 29v424h-73v10h73v36q0 107 47.5 150.5t122.5 43.5q33 0 73 -11.5t67.5 -31.5t27.5 -46q0 -20 -10.5 -29t-26.5 -9q-31 0 -57 50q-31 60 -98 60q-47 0 -81.5 -33t-34.5 -95q0 -46 30 -85h79v-10h-79v-424q0 -19 6.5 -28t26.5 -13.5t66 -6.5v-8
h-238v8zM247 -203.5q-28 11.5 -47 27.5l6 6q45 -33 89 -33q36 0 56.5 23.5t20.5 66.5v508q0 36 -8 48.5t-31 12.5q-19 0 -40 -4v8l139 35v-564q0 -146 -126 -146q-31 0 -59 11.5z" />
    <glyph glyph-name="f_k.liga" unicode="fk" horiz-adv-x="795" 
d="M25 8q33 2 49 6t23 13t7 29v424h-73v10h73v26q0 110 46.5 157t130.5 47q37 0 75.5 -9t70.5 -24v-631q0 -20 7 -29t23 -13t49 -6v-8h-218v8q33 2 49 6t23 13t7 29v591q-16 23 -45.5 37t-64.5 14q-52 0 -85 -31t-33 -85q0 -28 5.5 -47t19.5 -45h103v-10h-103v-424
q0 -20 7 -29t23 -13t49 -6v-8h-218v8zM432 263l165 135q28 23 37.5 35.5t9.5 22.5q0 11 -12.5 18.5t-38.5 8.5v7h165v-7q-53 -9 -114 -60l-157 -132l195 -208q38 -41 61 -57.5t47 -18.5v-7h-114z" />
    <glyph glyph-name=".notdef" horiz-adv-x="662" 
d="M598 370q44 -63 44 -147q0 -87 -42.5 -155t-118.5 -106t-173 -38q-84 0 -149.5 26.5t-102 73.5t-36.5 108q0 70 46 111t126 41q59 0 108.5 -23t78.5 -62t29 -85q0 -45 -27.5 -72.5t-72.5 -27.5q-43 0 -70.5 27.5t-27.5 69.5q0 38 28 64.5t68 26.5q22 0 40 -6
q-18 24 -48.5 38t-65.5 14q-51 0 -81 -31.5t-30 -86.5q0 -51 26.5 -91.5t73 -63t105.5 -22.5q82 0 132.5 41t50.5 106q0 46 -30 84t-99 72l-152 74q-75 37 -114 90.5t-39 120.5q0 65 34.5 116t96 79t141.5 28q68 0 142.5 -17.5t121.5 -44.5l-72 -194h-5q-14 61 -51.5 111
t-89 79t-106.5 29q-43 0 -67 -18t-24 -49q0 -28 23.5 -52t77.5 -50l163 -79q94 -46 138 -109z" />
    <glyph glyph-name=".null" horiz-adv-x="600" 
 />
    <glyph glyph-name="nonmarkingreturn" unicode="&#xd;" horiz-adv-x="600" 
 />
    <glyph glyph-name="space" unicode=" " horiz-adv-x="230" 
 />
    <glyph glyph-name="A" unicode="A" horiz-adv-x="710" 
d="M635 41q11 -18 25 -24.5t40 -8.5v-8h-222v8q37 2 52.5 10t15.5 29q0 16 -13 55l-55 157h-277l-51 -144q-12 -34 -12 -55q0 -28 20 -39t62 -13v-8h-210v8q46 5 69 26t43 77l212 589h59l217 -603q14 -38 25 -56zM471 279l-131 376l-132 -376h263z" />
    <glyph glyph-name="B" unicode="B" horiz-adv-x="591" 
d="M493 311q63 -46 63 -131q0 -84 -65.5 -132t-182.5 -48h-278v8q34 2 50.5 9t22.5 25t6 55v516q0 43 -15.5 60t-63.5 19v8h260q114 0 174 -42t60 -126q0 -72 -56.5 -119t-145.5 -53v-2q108 -1 171 -47zM177 686v-322h84q99 0 145 39t46 127q0 78 -48 117t-139 39h-88z
M435 56q49 42 49 123q0 84 -50.5 126.5t-142.5 42.5h-114v-334h118q91 0 140 42z" />
    <glyph glyph-name="C" unicode="C" horiz-adv-x="647" 
d="M188 24q-71 44 -109.5 125t-38.5 189q0 115 40.5 201.5t115.5 133.5t175 47q109 0 211 -36v-241h-10q-4 127 -60 188t-167 61q-75 0 -131.5 -36t-87.5 -102.5t-31 -154.5q0 -103 37.5 -184.5t104.5 -127t151 -45.5q173 0 205 170l9 -2q-18 -113 -81 -171.5t-168 -58.5
q-94 0 -165 44z" />
    <glyph glyph-name="D" unicode="D" horiz-adv-x="689" 
d="M546 608.5q98 -91.5 98 -258.5t-98 -258.5t-277 -91.5h-239v8q34 2 50.5 9t22.5 25t6 55v516q0 43 -15.5 60t-63.5 19v8h239q179 0 277 -91.5zM487.5 94q76.5 80 76.5 256t-76.5 256t-236.5 80h-74v-672h74q160 0 236.5 80z" />
    <glyph glyph-name="E" unicode="E" horiz-adv-x="592" 
d="M542 253l-25 -253h-487v8q34 2 50.5 9t22.5 25t6 55v516q0 43 -15.5 60t-63.5 19v8h472l22 -214h-8q-19 82 -39.5 123t-56 59t-102.5 18h-141v-320h100q42 0 67 12.5t39 42.5t22 84h8v-293h-8q-8 54 -22 84t-39 43t-67 13h-100v-338h138q79 0 121 21t62.5 70.5
t35.5 147.5h8z" />
    <glyph glyph-name="F" unicode="F" horiz-adv-x="544" 
d="M524 486h-8q-19 80 -45.5 122.5t-70 60t-117.5 17.5h-106v-330h100q64 0 92 31t36 108h8v-293h-8q-8 77 -36 108.5t-92 31.5h-100v-240q0 -39 9 -58t32.5 -26.5t72.5 -9.5v-8h-261v8q34 2 50.5 9t22.5 24.5t6 54.5v517q0 43 -15.5 60t-63.5 19v8h472z" />
    <glyph glyph-name="G" unicode="G" horiz-adv-x="730" 
d="M705 326q-34 -2 -50.5 -8.5t-22.5 -22t-6 -48.5v-197q-101 -70 -225 -70q-106 0 -188 46.5t-127.5 131t-45.5 194.5q0 113 45 196t128.5 127.5t196.5 44.5q103 0 207 -31v-223h-10q-4 112 -60.5 173.5t-156.5 61.5q-83 0 -144.5 -42t-94.5 -119.5t-33 -182.5t35.5 -186.5
t99 -126.5t146.5 -45q52 0 97 17.5t64 44.5v161q0 40 -11 59.5t-41 29t-97 15.5v8h294v-8z" />
    <glyph glyph-name="H" unicode="H" horiz-adv-x="726" 
d="M645.5 683q-16.5 -7 -22.5 -24t-6 -51v-516q0 -34 6 -51t22.5 -24t50.5 -9v-8h-226v8q34 2 50.5 9t22.5 24t6 51v249h-372v-249q0 -34 6 -51t22.5 -24t50.5 -9v-8h-226v8q34 2 50.5 9t22.5 24t6 51v516q0 34 -6 51t-22.5 24t-50.5 9v8h226v-8q-34 -2 -50.5 -9t-22.5 -24
t-6 -51v-246h372v246q0 34 -6 51t-22.5 24t-50.5 9v8h226v-8q-34 -2 -50.5 -9z" />
    <glyph glyph-name="I" unicode="I" horiz-adv-x="286" 
d="M205.5 683.5q-16.5 -6.5 -22.5 -22t-6 -48.5v-516q0 -37 6 -55t22.5 -25t50.5 -9v-8h-226v8q34 2 50.5 9t22.5 25t6 55v516q0 43 -15.5 60t-63.5 19v8h226v-8q-34 -2 -50.5 -8.5z" />
    <glyph glyph-name="J" unicode="J" horiz-adv-x="276" 
d="M-11 -69v3q13 -3 37 -3q93 0 93 127v555q0 43 -15.5 60t-63.5 19v8h226v-8q-34 -2 -50.5 -8.5t-22.5 -22t-6 -48.5v-529q0 -79 -34 -121t-99 -42q-42 0 -65 10z" />
    <glyph glyph-name="K" unicode="K" horiz-adv-x="655" 
d="M205.5 683.5q-16.5 -6.5 -22.5 -22t-6 -48.5v-516q0 -37 6 -55t22.5 -25t50.5 -9v-8h-226v8q34 2 50.5 9t22.5 25t6 55v516q0 43 -15.5 60t-63.5 19v8h226v-8q-34 -2 -50.5 -8.5zM583 23.5q22 -13.5 62 -15.5v-8h-153l-315 364l238 228q33 31 44 45.5t11 25.5
q0 16 -13.5 22t-51.5 7v8h202v-8q-45 -5 -77.5 -23t-86.5 -71l-206 -200l287 -324q37 -37 59 -50.5z" />
    <glyph glyph-name="L" unicode="L" horiz-adv-x="544" 
d="M514 253l-25 -253h-459v8q34 2 50.5 9t22.5 25t6 55v516q0 43 -15.5 60t-63.5 19v8h226v-8q-34 -2 -50.5 -8.5t-22.5 -22t-6 -48.5v-599h84q93 0 139 22t66.5 69.5t39.5 147.5h8z" />
    <glyph glyph-name="M" unicode="M" horiz-adv-x="884" 
d="M155 640l-27 -518q-3 -48 6.5 -71.5t33 -32t72.5 -10.5v-8h-215v8q29 1 46 10.5t26 33t11 69.5l25 464q1 11 1 29q0 35 -7 50.5t-22 20.5t-48 7v8h146l240 -595l239 595h146v-8q-33 -2 -48 -7t-22 -20t-7 -49q0 -18 1 -29l25 -480q2 -40 9.5 -60t24 -28.5t48.5 -10.5v-8
h-229v8q33 2 50 10.5t23 28.5t4 60l-23 539l-263 -656h-2z" />
    <glyph glyph-name="N" unicode="N" horiz-adv-x="728" 
d="M713 700v-8q-54 -2 -76 -27t-22 -84v-591h-3l-464 620v-480q0 -47 10.5 -72.5t33.5 -36.5t64 -13v-8h-226v8q54 2 76 28.5t22 93.5v507q-21 27 -42.5 40.5t-55.5 14.5v8h141l424 -563v444q0 61 -24 85t-84 26v8h226z" />
    <glyph glyph-name="O" unicode="O" horiz-adv-x="752" 
d="M203.5 28q-76.5 48 -120 132.5t-43.5 189.5t43.5 189.5t120 132.5t172.5 48t172.5 -48t120 -132.5t43.5 -189.5t-43.5 -189.5t-120 -132.5t-172.5 -48t-172.5 48zM567.5 89.5q66.5 90.5 66.5 260.5q0 174 -65 262.5t-193 88.5t-193 -88.5t-65 -262.5q0 -170 66.5 -260.5
t191.5 -90.5t191.5 90.5z" />
    <glyph glyph-name="P" unicode="P" horiz-adv-x="544" 
d="M177 314v-212q0 -39 9 -58t32.5 -26.5t72.5 -9.5v-8h-261v8q34 2 50.5 9t22.5 25t6 55v516q0 43 -15.5 60t-63.5 19v8h237q112 0 182 -47t70 -146t-70 -146t-182 -47h-90zM177 686v-358h71q96 0 146 43t50 136t-50 136t-146 43h-71z" />
    <glyph glyph-name="Q" unicode="Q" horiz-adv-x="752" 
d="M431.5 -120.5q-127.5 53.5 -248.5 159.5q-68 59 -105.5 138t-37.5 173q0 105 43.5 189.5t120 132.5t172.5 48t172.5 -48t120 -132.5t43.5 -189.5q0 -107 -42.5 -191t-121 -132t-184.5 -49q175 -123 394 -123q63 0 110 9t95 38l5 -8q-51 -35 -115 -51.5t-150 -16.5
q-144 0 -271.5 53.5zM567.5 89.5q66.5 90.5 66.5 260.5q0 174 -65 262.5t-193 88.5t-193 -88.5t-65 -262.5q0 -170 66.5 -260.5t191.5 -90.5t191.5 90.5z" />
    <glyph glyph-name="R" unicode="R" horiz-adv-x="650" 
d="M30 8q34 2 50.5 9t22.5 25t6 55v516q0 43 -15.5 60t-63.5 19v8h241q131 0 188.5 -41.5t57.5 -126.5q0 -83 -64 -127t-159 -44v-4q61 0 108 -28t73 -86l58 -129q23 -52 49 -77t63 -29v-8h-128q-18 30 -56 113l-56 122q-23 50 -42 73.5t-45 33t-72 9.5h-69v-254
q0 -37 6 -55t22.5 -25t50.5 -9v-8h-226v8zM239 365q109 0 156 40t47 126q0 50 -14 83.5t-53.5 52.5t-112.5 19h-85v-321h62z" />
    <glyph glyph-name="S" unicode="S" horiz-adv-x="525" 
d="M142.5 -7q-52.5 13 -97.5 37v209h8q8 -112 62 -176t155 -64q76 0 119 39.5t43 111.5q0 55 -31 88.5t-101 63.5l-95 42q-81 35 -119 78.5t-38 114.5q0 85 62 134t165 49q99 0 184 -43v-207h-7q-8 117 -56.5 174t-145.5 57q-73 0 -116.5 -35t-43.5 -99q0 -37 13.5 -61
t43 -43.5t84.5 -43.5l109 -49q74 -32 109.5 -76.5t35.5 -111.5q0 -95 -63.5 -148.5t-174.5 -53.5q-52 0 -104.5 13z" />
    <glyph glyph-name="T" unicode="T" horiz-adv-x="590" 
d="M570 719v-246h-8q-9 96 -28.5 140.5t-52.5 57.5t-97 13h-55v-582q0 -39 9 -58t32.5 -26.5t72.5 -9.5v-8h-296v8q49 2 72.5 9.5t32.5 26.5t9 58v582h-55q-64 0 -97 -13t-52.5 -57.5t-28.5 -140.5h-8v246h5q10 -10 27 -14.5t46 -4.5h394q29 0 46 4.5t27 14.5h5z" />
    <glyph glyph-name="U" unicode="U" horiz-adv-x="677" 
d="M667 692q-48 -2 -68.5 -27t-20.5 -82v-317q0 -143 -57.5 -214.5t-178.5 -71.5q-120 0 -186.5 71.5t-66.5 209.5v352q0 43 -15.5 60t-63.5 19v8h230v-8q-34 -2 -50.5 -8.5t-22.5 -22t-6 -48.5v-337q0 -128 50 -193.5t149 -65.5q100 0 149 65.5t49 198.5v302q0 57 -27.5 82
t-89.5 27v8h226v-8z" />
    <glyph glyph-name="V" unicode="V" horiz-adv-x="685" 
d="M108 594q-22 57 -42.5 77t-60.5 21v8h243v-8q-44 -2 -63 -13t-19 -35q0 -18 11 -48l189 -502l176 478q15 39 15 64q0 28 -20 41t-62 15v8h205v-8q-43 -2 -67.5 -27t-49.5 -91l-217 -584h-5z" />
    <glyph glyph-name="W" unicode="W" horiz-adv-x="941" 
d="M936 700v-8q-37 -1 -58.5 -25.5t-40.5 -84.5l-193 -592h-4l-172 490l-160 -490h-4l-209 598q-15 42 -26.5 63.5t-26 30.5t-37.5 10v8h231v-8q-40 -2 -58 -14t-18 -39q0 -24 12 -60l156 -461l129 392l-31 89q-13 38 -24.5 56.5t-27.5 27t-44 9.5v8h229v-8q-36 -1 -53 -13
t-17 -36q0 -17 7 -37l168 -485l151 458q12 36 12 59q0 28 -18.5 40.5t-60.5 13.5v8h188z" />
    <glyph glyph-name="X" unicode="X" horiz-adv-x="706" 
d="M625.5 33.5q30.5 -23.5 70.5 -25.5v-8h-248v8q33 1 48 10t15 26q0 14 -10 34.5t-38 61.5l-127 187l-140 -189q-46 -61 -46 -85q0 -42 81 -45v-8h-221v8q39 2 70.5 26t78.5 87l165 223l-173 254q-27 39 -45.5 58t-37.5 26.5t-48 9.5v8h247v-8q-35 -2 -52 -9.5t-17 -23.5
q0 -11 10 -28.5t41 -63.5l119 -175l134 172q27 35 37 53.5t10 31.5q0 40 -84 43v8h220v-8q-27 -2 -48 -12t-44 -33t-58 -69l-156 -203l173 -254q43 -64 73.5 -87.5z" />
    <glyph glyph-name="Y" unicode="Y" horiz-adv-x="627" 
d="M617 700v-8q-39 -2 -63.5 -20.5t-49.5 -64.5l-159 -292v-239q3 -27 13.5 -41t33 -19.5t66.5 -7.5v-8h-295v8q49 2 72.5 9.5t32.5 26.5t9 58v209l-159 289q-21 37 -36 56t-31 26.5t-41 9.5v8h227v-8q-70 -3 -70 -40q0 -8 3.5 -18t13.5 -29l148 -277l142 260q22 40 22 61
q0 40 -67 43v8h188z" />
    <glyph glyph-name="Z" unicode="Z" horiz-adv-x="576" 
d="M30 5l430 680h-158q-86 0 -130 -20.5t-65 -65.5t-39 -136h-8l27 237h455v-5l-429 -680h181q89 0 135 20.5t68.5 65.5t40.5 136h8l-27 -237h-489v5z" />
    <glyph glyph-name="Agrave" unicode="&#xc0;" horiz-adv-x="710" 
d="M362 740l-154 115v5h82l76 -120h-4zM635 41q11 -18 25 -24.5t40 -8.5v-8h-222v8q37 2 52.5 10t15.5 29q0 16 -13 55l-55 157h-277l-51 -144q-12 -34 -12 -55q0 -28 20 -39t62 -13v-8h-210v8q46 5 69 26t43 77l212 589h59l217 -603q14 -38 25 -56zM471 279l-131 376
l-132 -376h263z" />
    <glyph glyph-name="Aacute" unicode="&#xc1;" horiz-adv-x="710" 
d="M366 740h-4l76 120h82v-5zM635 41q11 -18 25 -24.5t40 -8.5v-8h-222v8q37 2 52.5 10t15.5 29q0 16 -13 55l-55 157h-277l-51 -144q-12 -34 -12 -55q0 -28 20 -39t62 -13v-8h-210v8q46 5 69 26t43 77l212 589h59l217 -603q14 -38 25 -56zM471 279l-131 376l-132 -376h263z
" />
    <glyph glyph-name="Acircumflex" unicode="&#xc2;" horiz-adv-x="710" 
d="M243 730h-3l121 130h6l121 -130h-3l-121 80zM635 41q11 -18 25 -24.5t40 -8.5v-8h-222v8q37 2 52.5 10t15.5 29q0 16 -13 55l-55 157h-277l-51 -144q-12 -34 -12 -55q0 -28 20 -39t62 -13v-8h-210v8q46 5 69 26t43 77l212 589h59l217 -603q14 -38 25 -56zM471 279
l-131 376l-132 -376h263z" />
    <glyph glyph-name="Atilde" unicode="&#xc3;" horiz-adv-x="710" 
d="M264.5 797q-18.5 -12 -23.5 -40h-4q3 47 26 70.5t56 23.5q18 0 31 -5.5t34 -17.5q18 -10 29 -15t26 -5q23 0 41.5 12t23.5 40h4q-3 -47 -26 -70.5t-56 -23.5q-18 0 -31 5.5t-34 17.5q-18 10 -29 15t-26 5q-23 0 -41.5 -12zM635 41q11 -18 25 -24.5t40 -8.5v-8h-222v8
q37 2 52.5 10t15.5 29q0 16 -13 55l-55 157h-277l-51 -144q-12 -34 -12 -55q0 -28 20 -39t62 -13v-8h-210v8q46 5 69 26t43 77l212 589h59l217 -603q14 -38 25 -56zM471 279l-131 376l-132 -376h263z" />
    <glyph glyph-name="Adieresis" unicode="&#xc4;" horiz-adv-x="710" 
d="M218 774.5q-14 14.5 -14 35.5t14 35.5t36 14.5t36 -14.5t14 -35.5t-14 -35.5t-36 -14.5t-36 14.5zM438 774.5q-14 14.5 -14 35.5t14 35.5t36 14.5t36 -14.5t14 -35.5t-14 -35.5t-36 -14.5t-36 14.5zM635 41q11 -18 25 -24.5t40 -8.5v-8h-222v8q37 2 52.5 10t15.5 29
q0 16 -13 55l-55 157h-277l-51 -144q-12 -34 -12 -55q0 -28 20 -39t62 -13v-8h-210v8q46 5 69 26t43 77l212 589h59l217 -603q14 -38 25 -56zM471 279l-131 376l-132 -376h263z" />
    <glyph glyph-name="Amacron" unicode="&#x100;" horiz-adv-x="710" 
d="M635 41q11 -18 25 -24.5t40 -8.5v-8h-222v8q37 2 52.5 10t15.5 29q0 16 -13 55l-55 157h-277l-51 -144q-12 -34 -12 -55q0 -28 20 -39t62 -13v-8h-210v8q46 5 69 26t43 77l212 589h59l217 -603q14 -38 25 -56zM471 279l-131 376l-132 -376h263zM230 815h268v-25h-268v25z
" />
    <glyph glyph-name="Abreve" unicode="&#x102;" horiz-adv-x="710" 
d="M271 774q-37 32 -37 86h10q3 -34 36 -50.5t84 -16.5t83.5 16.5t36.5 50.5h10q0 -54 -37 -86t-93 -32t-93 32zM635 41q11 -18 25 -24.5t40 -8.5v-8h-222v8q37 2 52.5 10t15.5 29q0 16 -13 55l-55 157h-277l-51 -144q-12 -34 -12 -55q0 -28 20 -39t62 -13v-8h-210v8
q46 5 69 26t43 77l212 589h59l217 -603q14 -38 25 -56zM471 279l-131 376l-132 -376h263z" />
    <glyph glyph-name="Aring" unicode="&#xc5;" horiz-adv-x="710" 
d="M312.5 750.5q-19.5 19.5 -19.5 50.5q0 30 19.5 49.5t51.5 19.5t51.5 -19.5t19.5 -49.5q0 -31 -19.5 -50.5t-51.5 -19.5t-51.5 19.5zM322 842.5q-16 -15.5 -16 -41.5t16 -42t42 -16t42 16t16 42t-16 41.5t-42 15.5t-42 -15.5zM635 41q11 -18 25 -24.5t40 -8.5v-8h-222v8
q37 2 52.5 10t15.5 29q0 16 -13 55l-55 157h-277l-51 -144q-12 -34 -12 -55q0 -28 20 -39t62 -13v-8h-210v8q46 5 69 26t43 77l212 589h59l217 -603q14 -38 25 -56zM471 279l-131 376l-132 -376h263z" />
    <glyph glyph-name="Aogonek" unicode="&#x104;" horiz-adv-x="710" 
d="M410.5 -42q-24.5 -29 -24.5 -66q0 -28 15.5 -42.5t43.5 -14.5q22 0 40 10.5t27 28.5l4 -2q-30 -82 -101 -82q-36 0 -56.5 20t-20.5 54q0 51 40.5 90t99.5 52v2q37 2 52.5 10t15.5 29q0 16 -13 55l-55 157h-277l-51 -144q-12 -34 -12 -55q0 -28 20 -39t62 -13v-8h-210v8
q46 5 69 26t43 77l212 589h59l217 -603q14 -38 25 -56t25 -24.5t40 -8.5v-8h-222q-43 -13 -67.5 -42zM471 279l-131 376l-132 -376h263z" />
    <glyph glyph-name="AE" unicode="&#xc6;" horiz-adv-x="894" 
d="M5 8q38 1 61 22.5t51 73.5l327 596h360l22 -214h-9q-24 101 -47.5 140.5t-74.5 51.5t-176 12v-335h80q50 0 79 10.5t44 35.5t20 71h10v-248h-10q-5 46 -20 71t-44 35.5t-79 10.5h-80v-331q138 0 195 16t80 62.5t41 164.5h9l-25 -253h-447v8q34 2 50.5 9t22.5 25t6 55v162
h-225l-99 -183q-16 -30 -16 -45q0 -13 12.5 -17t50.5 -6v-8h-169v8zM451 278v399l-215 -399h215z" />
    <glyph glyph-name="AEacute" unicode="&#x1fc;" horiz-adv-x="894" 
d="M613 730l76 120h82v-5l-154 -115h-4zM5 8q38 1 61 22.5t51 73.5l327 596h360l22 -214h-9q-24 101 -47.5 140.5t-74.5 51.5t-176 12v-335h80q50 0 79 10.5t44 35.5t20 71h10v-248h-10q-5 46 -20 71t-44 35.5t-79 10.5h-80v-331q138 0 195 16t80 62.5t41 164.5h9l-25 -253
h-447v8q34 2 50.5 9t22.5 25t6 55v162h-225l-99 -183q-16 -30 -16 -45q0 -13 12.5 -17t50.5 -6v-8h-169v8zM451 278v399l-215 -399h215z" />
    <glyph glyph-name="Cacute" unicode="&#x106;" horiz-adv-x="647" 
d="M365 740l76 120h82v-5l-154 -115h-4zM188 24q-71 44 -109.5 125t-38.5 189q0 115 40.5 201.5t115.5 133.5t175 47q109 0 211 -36v-241h-10q-4 127 -60 188t-167 61q-75 0 -131.5 -36t-87.5 -102.5t-31 -154.5q0 -103 37.5 -184.5t104.5 -127t151 -45.5q173 0 205 170
l9 -2q-18 -113 -81 -171.5t-168 -58.5q-94 0 -165 44z" />
    <glyph glyph-name="Ccircumflex" unicode="&#x108;" horiz-adv-x="647" 
d="M243 730l121 130h6l121 -130h-3l-121 80l-121 -80h-3zM188 24q-71 44 -109.5 125t-38.5 189q0 115 40.5 201.5t115.5 133.5t175 47q109 0 211 -36v-241h-10q-4 127 -60 188t-167 61q-75 0 -131.5 -36t-87.5 -102.5t-31 -154.5q0 -103 37.5 -184.5t104.5 -127t151 -45.5
q173 0 205 170l9 -2q-18 -113 -81 -171.5t-168 -58.5q-94 0 -165 44z" />
    <glyph glyph-name="Ccaron" unicode="&#x10c;" horiz-adv-x="647" 
d="M367 800l121 60h3l-121 -110h-6l-121 110h3zM188 24q-71 44 -109.5 125t-38.5 189q0 115 40.5 201.5t115.5 133.5t175 47q109 0 211 -36v-241h-10q-4 127 -60 188t-167 61q-75 0 -131.5 -36t-87.5 -102.5t-31 -154.5q0 -103 37.5 -184.5t104.5 -127t151 -45.5
q173 0 205 170l9 -2q-18 -113 -81 -171.5t-168 -58.5q-94 0 -165 44z" />
    <glyph glyph-name="Cdotaccent" unicode="&#x10a;" horiz-adv-x="647" 
d="M329.5 769.5q-15.5 15.5 -15.5 37.5q0 23 15.5 38t37.5 15q23 0 38 -15t15 -38q0 -22 -15 -37.5t-38 -15.5q-22 0 -37.5 15.5zM188 24q-71 44 -109.5 125t-38.5 189q0 115 40.5 201.5t115.5 133.5t175 47q109 0 211 -36v-241h-10q-4 127 -60 188t-167 61
q-75 0 -131.5 -36t-87.5 -102.5t-31 -154.5q0 -103 37.5 -184.5t104.5 -127t151 -45.5q173 0 205 170l9 -2q-18 -113 -81 -171.5t-168 -58.5q-94 0 -165 44z" />
    <glyph glyph-name="Ccedilla" unicode="&#xc7;" horiz-adv-x="647" 
d="M523 40.5q-61 -58.5 -162 -60.5l-31 -49q11 9 32 9q29 0 50 -20t21 -55t-22.5 -57.5t-55.5 -22.5q-28 0 -48 16t-26 43l6 3q7 -17 21 -26.5t31 -9.5q23 0 38 15t15 40q0 23 -13.5 36.5t-33.5 13.5q-12 0 -19.5 -2.5t-15.5 -10.5l-6 4l44 73q-93 1 -162.5 45.5t-107.5 125
t-38 187.5q0 115 40.5 201.5t115.5 133.5t175 47q109 0 211 -36v-241h-10q-4 127 -60 188t-167 61q-75 0 -131.5 -36t-87.5 -102.5t-31 -154.5q0 -103 37.5 -184.5t104.5 -127t151 -45.5q173 0 205 170l9 -2q-18 -111 -79 -169.5z" />
    <glyph glyph-name="Dcaron" unicode="&#x10e;" horiz-adv-x="689" 
d="M336 800l121 60h3l-121 -110h-6l-121 110h3zM546 608.5q98 -91.5 98 -258.5t-98 -258.5t-277 -91.5h-239v8q34 2 50.5 9t22.5 25t6 55v516q0 43 -15.5 60t-63.5 19v8h239q179 0 277 -91.5zM487.5 94q76.5 80 76.5 256t-76.5 256t-236.5 80h-74v-672h74q160 0 236.5 80z
" />
    <glyph glyph-name="Dcroat" unicode="&#x110;" horiz-adv-x="689" 
d="M546 608.5q98 -91.5 98 -258.5t-98 -258.5t-277 -91.5h-239v8q34 2 50.5 9t22.5 25t6 55v260h-79v10h79v246q0 43 -15.5 60t-63.5 19v8h239q179 0 277 -91.5zM487.5 94q76.5 80 76.5 256t-76.5 256t-236.5 80h-74v-319h162v-10h-162v-343h74q160 0 236.5 80z" />
    <glyph glyph-name="Egrave" unicode="&#xc8;" horiz-adv-x="592" 
d="M147 855v5h82l76 -120h-4zM542 253l-25 -253h-487v8q34 2 50.5 9t22.5 25t6 55v516q0 43 -15.5 60t-63.5 19v8h472l22 -214h-8q-19 82 -39.5 123t-56 59t-102.5 18h-141v-320h100q42 0 67 12.5t39 42.5t22 84h8v-293h-8q-8 54 -22 84t-39 43t-67 13h-100v-338h138
q79 0 121 21t62.5 70.5t35.5 147.5h8z" />
    <glyph glyph-name="Eacute" unicode="&#xc9;" horiz-adv-x="592" 
d="M301 740l76 120h82v-5l-154 -115h-4zM542 253l-25 -253h-487v8q34 2 50.5 9t22.5 25t6 55v516q0 43 -15.5 60t-63.5 19v8h472l22 -214h-8q-19 82 -39.5 123t-56 59t-102.5 18h-141v-320h100q42 0 67 12.5t39 42.5t22 84h8v-293h-8q-8 54 -22 84t-39 43t-67 13h-100v-338
h138q79 0 121 21t62.5 70.5t35.5 147.5h8z" />
    <glyph glyph-name="Ecircumflex" unicode="&#xca;" horiz-adv-x="592" 
d="M179 730l121 130h6l121 -130h-3l-121 80l-121 -80h-3zM542 253l-25 -253h-487v8q34 2 50.5 9t22.5 25t6 55v516q0 43 -15.5 60t-63.5 19v8h472l22 -214h-8q-19 82 -39.5 123t-56 59t-102.5 18h-141v-320h100q42 0 67 12.5t39 42.5t22 84h8v-293h-8q-8 54 -22 84t-39 43
t-67 13h-100v-338h138q79 0 121 21t62.5 70.5t35.5 147.5h8z" />
    <glyph glyph-name="Ecaron" unicode="&#x11a;" horiz-adv-x="592" 
d="M303 800l121 60h3l-121 -110h-6l-121 110h3zM542 253l-25 -253h-487v8q34 2 50.5 9t22.5 25t6 55v516q0 43 -15.5 60t-63.5 19v8h472l22 -214h-8q-19 82 -39.5 123t-56 59t-102.5 18h-141v-320h100q42 0 67 12.5t39 42.5t22 84h8v-293h-8q-8 54 -22 84t-39 43t-67 13
h-100v-338h138q79 0 121 21t62.5 70.5t35.5 147.5h8z" />
    <glyph glyph-name="Edieresis" unicode="&#xcb;" horiz-adv-x="592" 
d="M157 774.5q-14 14.5 -14 35.5t14 35.5t36 14.5t36 -14.5t14 -35.5t-14 -35.5t-36 -14.5t-36 14.5zM377 774.5q-14 14.5 -14 35.5t14 35.5t36 14.5t36 -14.5t14 -35.5t-14 -35.5t-36 -14.5t-36 14.5zM542 253l-25 -253h-487v8q34 2 50.5 9t22.5 25t6 55v516q0 43 -15.5 60
t-63.5 19v8h472l22 -214h-8q-19 82 -39.5 123t-56 59t-102.5 18h-141v-320h100q42 0 67 12.5t39 42.5t22 84h8v-293h-8q-8 54 -22 84t-39 43t-67 13h-100v-338h138q79 0 121 21t62.5 70.5t35.5 147.5h8z" />
    <glyph glyph-name="Emacron" unicode="&#x112;" horiz-adv-x="592" 
d="M542 253l-25 -253h-487v8q34 2 50.5 9t22.5 25t6 55v516q0 43 -15.5 60t-63.5 19v8h472l22 -214h-8q-19 82 -39.5 123t-56 59t-102.5 18h-141v-320h100q42 0 67 12.5t39 42.5t22 84h8v-293h-8q-8 54 -22 84t-39 43t-67 13h-100v-338h138q79 0 121 21t62.5 70.5
t35.5 147.5h8zM169 815h268v-25h-268v25z" />
    <glyph glyph-name="Ebreve" unicode="&#x114;" horiz-adv-x="592" 
d="M210 774q-37 32 -37 86h10q3 -34 36 -50.5t84 -16.5t83.5 16.5t36.5 50.5h10q0 -54 -37 -86t-93 -32t-93 32zM542 253l-25 -253h-487v8q34 2 50.5 9t22.5 25t6 55v516q0 43 -15.5 60t-63.5 19v8h472l22 -214h-8q-19 82 -39.5 123t-56 59t-102.5 18h-141v-320h100
q42 0 67 12.5t39 42.5t22 84h8v-293h-8q-8 54 -22 84t-39 43t-67 13h-100v-338h138q79 0 121 21t62.5 70.5t35.5 147.5h8z" />
    <glyph glyph-name="Edotaccent" unicode="&#x116;" horiz-adv-x="592" 
d="M265.5 769.5q-15.5 15.5 -15.5 37.5q0 23 15.5 38t37.5 15q23 0 38 -15t15 -38q0 -22 -15 -37.5t-38 -15.5q-22 0 -37.5 15.5zM542 253l-25 -253h-487v8q34 2 50.5 9t22.5 25t6 55v516q0 43 -15.5 60t-63.5 19v8h472l22 -214h-8q-19 82 -39.5 123t-56 59t-102.5 18h-141
v-320h100q42 0 67 12.5t39 42.5t22 84h8v-293h-8q-8 54 -22 84t-39 43t-67 13h-100v-338h138q79 0 121 21t62.5 70.5t35.5 147.5h8z" />
    <glyph glyph-name="Eogonek" unicode="&#x118;" horiz-adv-x="592" 
d="M339.5 -42q-24.5 -29 -24.5 -66q0 -28 15.5 -42.5t43.5 -14.5q22 0 40 10.5t27 28.5l4 -2q-30 -82 -101 -82q-36 0 -56.5 20t-20.5 54q0 46 33 82.5t85 53.5h-355v8q34 2 50.5 9t22.5 25t6 55v516q0 43 -15.5 60t-63.5 19v8h472l22 -214h-8q-19 82 -39.5 123t-56 59
t-102.5 18h-141v-320h100q42 0 67 12.5t39 42.5t22 84h8v-293h-8q-8 54 -22 84t-39 43t-67 13h-100v-338h138q79 0 121 21t62.5 70.5t35.5 147.5h8l-25 -253h-110q-43 -13 -67.5 -42z" />
    <glyph glyph-name="Gcircumflex" unicode="&#x11c;" horiz-adv-x="730" 
d="M278 730l121 130h6l121 -130h-3l-121 80l-121 -80h-3zM705 326q-34 -2 -50.5 -8.5t-22.5 -22t-6 -48.5v-197q-101 -70 -225 -70q-106 0 -188 46.5t-127.5 131t-45.5 194.5q0 113 45 196t128.5 127.5t196.5 44.5q103 0 207 -31v-223h-10q-4 112 -60.5 173.5t-156.5 61.5
q-83 0 -144.5 -42t-94.5 -119.5t-33 -182.5t35.5 -186.5t99 -126.5t146.5 -45q52 0 97 17.5t64 44.5v161q0 40 -11 59.5t-41 29t-97 15.5v8h294v-8z" />
    <glyph glyph-name="Gbreve" unicode="&#x11e;" horiz-adv-x="730" 
d="M309 774q-37 32 -37 86h10q3 -34 36 -50.5t84 -16.5t83.5 16.5t36.5 50.5h10q0 -54 -37 -86t-93 -32t-93 32zM705 326q-34 -2 -50.5 -8.5t-22.5 -22t-6 -48.5v-197q-101 -70 -225 -70q-106 0 -188 46.5t-127.5 131t-45.5 194.5q0 113 45 196t128.5 127.5t196.5 44.5
q103 0 207 -31v-223h-10q-4 112 -60.5 173.5t-156.5 61.5q-83 0 -144.5 -42t-94.5 -119.5t-33 -182.5t35.5 -186.5t99 -126.5t146.5 -45q52 0 97 17.5t64 44.5v161q0 40 -11 59.5t-41 29t-97 15.5v8h294v-8z" />
    <glyph glyph-name="Gdotaccent" unicode="&#x120;" horiz-adv-x="730" 
d="M364.5 769.5q-15.5 15.5 -15.5 37.5q0 23 15.5 38t37.5 15q23 0 38 -15t15 -38q0 -22 -15 -37.5t-38 -15.5q-22 0 -37.5 15.5zM705 326q-34 -2 -50.5 -8.5t-22.5 -22t-6 -48.5v-197q-101 -70 -225 -70q-106 0 -188 46.5t-127.5 131t-45.5 194.5q0 113 45 196t128.5 127.5
t196.5 44.5q103 0 207 -31v-223h-10q-4 112 -60.5 173.5t-156.5 61.5q-83 0 -144.5 -42t-94.5 -119.5t-33 -182.5t35.5 -186.5t99 -126.5t146.5 -45q52 0 97 17.5t64 44.5v161q0 40 -11 59.5t-41 29t-97 15.5v8h294v-8z" />
    <glyph glyph-name="uni0122" unicode="&#x122;" horiz-adv-x="730" 
d="M705 326q-34 -2 -50.5 -8.5t-22.5 -22t-6 -48.5v-197q-101 -70 -225 -70q-106 0 -188 46.5t-127.5 131t-45.5 194.5q0 113 45 196t128.5 127.5t196.5 44.5q103 0 207 -31v-223h-10q-4 112 -60.5 173.5t-156.5 61.5q-83 0 -144.5 -42t-94.5 -119.5t-33 -182.5t35.5 -186.5
t99 -126.5t146.5 -45q52 0 97 17.5t64 44.5v161q0 40 -11 59.5t-41 29t-97 15.5v8h294v-8zM385 -199q56 20 56 49q0 27 -40 33q-17 2 -27 13t-10 28q0 20 12.5 31.5t33.5 11.5q23 0 41 -23.5t18 -53.5q0 -75 -82 -99z" />
    <glyph glyph-name="Hcircumflex" unicode="&#x124;" horiz-adv-x="726" 
d="M239 730l121 130h6l121 -130h-3l-121 80l-121 -80h-3zM645.5 683q-16.5 -7 -22.5 -24t-6 -51v-516q0 -34 6 -51t22.5 -24t50.5 -9v-8h-226v8q34 2 50.5 9t22.5 24t6 51v249h-372v-249q0 -34 6 -51t22.5 -24t50.5 -9v-8h-226v8q34 2 50.5 9t22.5 24t6 51v516q0 34 -6 51
t-22.5 24t-50.5 9v8h226v-8q-34 -2 -50.5 -9t-22.5 -24t-6 -51v-246h372v246q0 34 -6 51t-22.5 24t-50.5 9v8h226v-8q-34 -2 -50.5 -9z" />
    <glyph glyph-name="Hbar" unicode="&#x126;" horiz-adv-x="726" 
d="M645.5 683q-16.5 -7 -22.5 -24t-6 -51v-71h71v-10h-71v-435q0 -34 6 -51t22.5 -24t50.5 -9v-8h-226v8q34 2 50.5 9t22.5 24t6 51v249h-372v-249q0 -34 6 -51t22.5 -24t50.5 -9v-8h-226v8q34 2 50.5 9t22.5 24t6 51v435h-57v10h57v71q0 34 -6 51t-22.5 24t-50.5 9v8h226
v-8q-34 -2 -50.5 -9t-22.5 -24t-6 -51v-71h372v71q0 34 -6 51t-22.5 24t-50.5 9v8h226v-8q-34 -2 -50.5 -9zM549 527h-372v-165h372v165z" />
    <glyph glyph-name="Igrave" unicode="&#xcc;" horiz-adv-x="286" 
d="M-13 855v5h82l76 -120h-4zM205.5 683.5q-16.5 -6.5 -22.5 -22t-6 -48.5v-516q0 -37 6 -55t22.5 -25t50.5 -9v-8h-226v8q34 2 50.5 9t22.5 25t6 55v516q0 43 -15.5 60t-63.5 19v8h226v-8q-34 -2 -50.5 -8.5z" />
    <glyph glyph-name="Iacute" unicode="&#xcd;" horiz-adv-x="286" 
d="M141 740l76 120h82v-5l-154 -115h-4zM205.5 683.5q-16.5 -6.5 -22.5 -22t-6 -48.5v-516q0 -37 6 -55t22.5 -25t50.5 -9v-8h-226v8q34 2 50.5 9t22.5 25t6 55v516q0 43 -15.5 60t-63.5 19v8h226v-8q-34 -2 -50.5 -8.5z" />
    <glyph glyph-name="Icircumflex" unicode="&#xce;" horiz-adv-x="286" 
d="M19 730l121 130h6l121 -130h-3l-121 80l-121 -80h-3zM205.5 683.5q-16.5 -6.5 -22.5 -22t-6 -48.5v-516q0 -37 6 -55t22.5 -25t50.5 -9v-8h-226v8q34 2 50.5 9t22.5 25t6 55v516q0 43 -15.5 60t-63.5 19v8h226v-8q-34 -2 -50.5 -8.5z" />
    <glyph glyph-name="Itilde" unicode="&#x128;" horiz-adv-x="286" 
d="M174 771.5q-13 5.5 -34 17.5q-18 10 -29 15t-26 5q-23 0 -41.5 -12t-23.5 -40h-4q3 47 26 70.5t56 23.5q18 0 31 -5.5t34 -17.5q18 -10 29 -15t26 -5q23 0 41.5 12t23.5 40h4q-3 -47 -26 -70.5t-56 -23.5q-18 0 -31 5.5zM205.5 683.5q-16.5 -6.5 -22.5 -22t-6 -48.5v-516
q0 -37 6 -55t22.5 -25t50.5 -9v-8h-226v8q34 2 50.5 9t22.5 25t6 55v516q0 43 -15.5 60t-63.5 19v8h226v-8q-34 -2 -50.5 -8.5z" />
    <glyph glyph-name="Idieresis" unicode="&#xcf;" horiz-adv-x="286" 
d="M-3 774.5q-14 14.5 -14 35.5t14 35.5t36 14.5t36 -14.5t14 -35.5t-14 -35.5t-36 -14.5t-36 14.5zM217 774.5q-14 14.5 -14 35.5t14 35.5t36 14.5t36 -14.5t14 -35.5t-14 -35.5t-36 -14.5t-36 14.5zM205.5 683.5q-16.5 -6.5 -22.5 -22t-6 -48.5v-516q0 -37 6 -55t22.5 -25
t50.5 -9v-8h-226v8q34 2 50.5 9t22.5 25t6 55v516q0 43 -15.5 60t-63.5 19v8h226v-8q-34 -2 -50.5 -8.5z" />
    <glyph glyph-name="Imacron" unicode="&#x12a;" horiz-adv-x="286" 
d="M205.5 683.5q-16.5 -6.5 -22.5 -22t-6 -48.5v-516q0 -37 6 -55t22.5 -25t50.5 -9v-8h-226v8q34 2 50.5 9t22.5 25t6 55v516q0 43 -15.5 60t-63.5 19v8h226v-8q-34 -2 -50.5 -8.5zM9 815h268v-25h-268v25z" />
    <glyph glyph-name="Ibreve" unicode="&#x12c;" horiz-adv-x="286" 
d="M50 774q-37 32 -37 86h10q3 -34 36 -50.5t84 -16.5t83.5 16.5t36.5 50.5h10q0 -54 -37 -86t-93 -32t-93 32zM205.5 683.5q-16.5 -6.5 -22.5 -22t-6 -48.5v-516q0 -37 6 -55t22.5 -25t50.5 -9v-8h-226v8q34 2 50.5 9t22.5 25t6 55v516q0 43 -15.5 60t-63.5 19v8h226v-8
q-34 -2 -50.5 -8.5z" />
    <glyph glyph-name="Idotaccent" unicode="&#x130;" horiz-adv-x="286" 
d="M105.5 769.5q-15.5 15.5 -15.5 37.5q0 23 15.5 38t37.5 15q23 0 38 -15t15 -38q0 -22 -15 -37.5t-38 -15.5q-22 0 -37.5 15.5zM205.5 683.5q-16.5 -6.5 -22.5 -22t-6 -48.5v-516q0 -37 6 -55t22.5 -25t50.5 -9v-8h-226v8q34 2 50.5 9t22.5 25t6 55v516q0 43 -15.5 60
t-63.5 19v8h226v-8q-34 -2 -50.5 -8.5z" />
    <glyph glyph-name="Iogonek" unicode="&#x12e;" horiz-adv-x="286" 
d="M205.5 683.5q-16.5 -6.5 -22.5 -22t-6 -48.5v-516q0 -37 6 -55t22.5 -25t50.5 -9v-8h-78q-43 -13 -67.5 -42t-24.5 -66q0 -28 15.5 -42.5t43.5 -14.5q22 0 40 10.5t27 28.5l4 -2q-30 -82 -101 -82q-36 0 -56.5 20t-20.5 54q0 46 33 82.5t85 53.5h-126v8q34 2 50.5 9
t22.5 25t6 55v516q0 43 -15.5 60t-63.5 19v8h226v-8q-34 -2 -50.5 -8.5z" />
    <glyph glyph-name="IJ" unicode="&#x132;" horiz-adv-x="562" 
d="M205.5 683.5q-16.5 -6.5 -22.5 -22t-6 -48.5v-516q0 -37 6 -55t22.5 -25t50.5 -9v-8h-226v8q34 2 50.5 9t22.5 25t6 55v516q0 43 -15.5 60t-63.5 19v8h226v-8q-34 -2 -50.5 -8.5zM275 -69v3q13 -3 37 -3q93 0 93 127v555q0 43 -15.5 60t-63.5 19v8h226v-8
q-34 -2 -50.5 -8.5t-22.5 -22t-6 -48.5v-529q0 -79 -34 -121t-99 -42q-42 0 -65 10z" />
    <glyph glyph-name="Jcircumflex" unicode="&#x134;" horiz-adv-x="276" 
d="M29 730l121 130h6l121 -130h-3l-121 80l-121 -80h-3zM-11 -69v3q13 -3 37 -3q93 0 93 127v555q0 43 -15.5 60t-63.5 19v8h226v-8q-34 -2 -50.5 -8.5t-22.5 -22t-6 -48.5v-529q0 -79 -34 -121t-99 -42q-42 0 -65 10z" />
    <glyph glyph-name="uni0136" unicode="&#x136;" horiz-adv-x="655" 
d="M205.5 683.5q-16.5 -6.5 -22.5 -22t-6 -48.5v-516q0 -37 6 -55t22.5 -25t50.5 -9v-8h-226v8q34 2 50.5 9t22.5 25t6 55v516q0 43 -15.5 60t-63.5 19v8h226v-8q-34 -2 -50.5 -8.5zM583 23.5q22 -13.5 62 -15.5v-8h-153l-315 364l238 228q33 31 44 45.5t11 25.5
q0 16 -13.5 22t-51.5 7v8h202v-8q-45 -5 -77.5 -23t-86.5 -71l-206 -200l287 -324q37 -37 59 -50.5zM325 -199q56 20 56 49q0 27 -40 33q-17 2 -27 13t-10 28q0 20 12.5 31.5t33.5 11.5q23 0 41 -23.5t18 -53.5q0 -75 -82 -99z" />
    <glyph glyph-name="Lacute" unicode="&#x139;" horiz-adv-x="544" 
d="M141 740l76 120h82v-5l-154 -115h-4zM514 253l-25 -253h-459v8q34 2 50.5 9t22.5 25t6 55v516q0 43 -15.5 60t-63.5 19v8h226v-8q-34 -2 -50.5 -8.5t-22.5 -22t-6 -48.5v-599h84q93 0 139 22t66.5 69.5t39.5 147.5h8z" />
    <glyph glyph-name="Lcaron" unicode="&#x13d;" horiz-adv-x="544" 
d="M295 538q63 26 63 67q0 20 -8.5 27.5t-22.5 8.5q-17 1 -29 11.5t-12 28.5q0 16 12 27.5t29 11.5q24 0 41 -19t17 -55q0 -39 -19.5 -67.5t-68.5 -45.5zM514 253l-25 -253h-459v8q34 2 50.5 9t22.5 25t6 55v516q0 43 -15.5 60t-63.5 19v8h226v-8q-34 -2 -50.5 -8.5
t-22.5 -22t-6 -48.5v-599h84q93 0 139 22t66.5 69.5t39.5 147.5h8z" />
    <glyph glyph-name="uni013B" unicode="&#x13b;" horiz-adv-x="544" 
d="M514 253l-25 -253h-459v8q34 2 50.5 9t22.5 25t6 55v516q0 43 -15.5 60t-63.5 19v8h226v-8q-34 -2 -50.5 -8.5t-22.5 -22t-6 -48.5v-599h84q93 0 139 22t66.5 69.5t39.5 147.5h8zM282 -199q56 20 56 49q0 27 -40 33q-17 2 -27 13t-10 28q0 20 12.5 31.5t33.5 11.5
q23 0 41 -23.5t18 -53.5q0 -75 -82 -99z" />
    <glyph glyph-name="Lslash" unicode="&#x141;" horiz-adv-x="544" 
d="M514 253l-25 -253h-459v8q34 2 50.5 9t22.5 25t6 55v207l-75 -39v15l75 39v294q0 43 -15.5 60t-63.5 19v8h226v-8q-34 -2 -50.5 -8.5t-22.5 -22t-6 -48.5v-258l262 136v-15l-262 -136v-326h84q93 0 139 22t66.5 69.5t39.5 147.5h8z" />
    <glyph glyph-name="Ldot" unicode="&#x13f;" horiz-adv-x="544" 
d="M514 253l-25 -253h-459v8q34 2 50.5 9t22.5 25t6 55v516q0 43 -15.5 60t-63.5 19v8h226v-8q-34 -2 -50.5 -8.5t-22.5 -22t-6 -48.5v-599h84q93 0 139 22t66.5 69.5t39.5 147.5h8zM298 362.5q-14 14.5 -14 35.5t14 35.5t36 14.5t36 -14.5t14 -35.5t-14 -35.5t-36 -14.5
t-36 14.5z" />
    <glyph glyph-name="Nacute" unicode="&#x143;" horiz-adv-x="728" 
d="M380 740h-4l76 120h82v-5zM713 700v-8q-54 -2 -76 -27t-22 -84v-591h-3l-464 620v-480q0 -47 10.5 -72.5t33.5 -36.5t64 -13v-8h-226v8q54 2 76 28.5t22 93.5v507q-21 27 -42.5 40.5t-55.5 14.5v8h141l424 -563v444q0 61 -24 85t-84 26v8h226z" />
    <glyph glyph-name="Ncaron" unicode="&#x147;" horiz-adv-x="728" 
d="M375 750l-121 110h3l121 -60l121 60h3l-121 -110h-6zM713 700v-8q-54 -2 -76 -27t-22 -84v-591h-3l-464 620v-480q0 -47 10.5 -72.5t33.5 -36.5t64 -13v-8h-226v8q54 2 76 28.5t22 93.5v507q-21 27 -42.5 40.5t-55.5 14.5v8h141l424 -563v444q0 61 -24 85t-84 26v8h226z
" />
    <glyph glyph-name="Ntilde" unicode="&#xd1;" horiz-adv-x="728" 
d="M278.5 797q-18.5 -12 -23.5 -40h-4q3 47 26 70.5t56 23.5q18 0 31 -5.5t34 -17.5q18 -10 29 -15t26 -5q23 0 41.5 12t23.5 40h4q-3 -47 -26 -70.5t-56 -23.5q-18 0 -31 5.5t-34 17.5q-18 10 -29 15t-26 5q-23 0 -41.5 -12zM713 700v-8q-54 -2 -76 -27t-22 -84v-591h-3
l-464 620v-480q0 -47 10.5 -72.5t33.5 -36.5t64 -13v-8h-226v8q54 2 76 28.5t22 93.5v507q-21 27 -42.5 40.5t-55.5 14.5v8h141l424 -563v444q0 61 -24 85t-84 26v8h226z" />
    <glyph glyph-name="uni0145" unicode="&#x145;" horiz-adv-x="728" 
d="M713 700v-8q-54 -2 -76 -27t-22 -84v-591h-3l-464 620v-480q0 -47 10.5 -72.5t33.5 -36.5t64 -13v-8h-226v8q54 2 76 28.5t22 93.5v507q-21 27 -42.5 40.5t-55.5 14.5v8h141l424 -563v444q0 61 -24 85t-84 26v8h226zM373 -199q56 20 56 49q0 27 -40 33q-17 2 -27 13
t-10 28q0 20 12.5 31.5t33.5 11.5q23 0 41 -23.5t18 -53.5q0 -75 -82 -99z" />
    <glyph glyph-name="Ograve" unicode="&#xd2;" horiz-adv-x="752" 
d="M220 855v5h82l76 -120h-4zM203.5 28q-76.5 48 -120 132.5t-43.5 189.5t43.5 189.5t120 132.5t172.5 48t172.5 -48t120 -132.5t43.5 -189.5t-43.5 -189.5t-120 -132.5t-172.5 -48t-172.5 48zM567.5 89.5q66.5 90.5 66.5 260.5q0 174 -65 262.5t-193 88.5t-193 -88.5
t-65 -262.5q0 -170 66.5 -260.5t191.5 -90.5t191.5 90.5z" />
    <glyph glyph-name="Oacute" unicode="&#xd3;" horiz-adv-x="752" 
d="M374 740l76 120h82v-5l-154 -115h-4zM203.5 28q-76.5 48 -120 132.5t-43.5 189.5t43.5 189.5t120 132.5t172.5 48t172.5 -48t120 -132.5t43.5 -189.5t-43.5 -189.5t-120 -132.5t-172.5 -48t-172.5 48zM567.5 89.5q66.5 90.5 66.5 260.5q0 174 -65 262.5t-193 88.5
t-193 -88.5t-65 -262.5q0 -170 66.5 -260.5t191.5 -90.5t191.5 90.5z" />
    <glyph glyph-name="Ocircumflex" unicode="&#xd4;" horiz-adv-x="752" 
d="M252 730l121 130h6l121 -130h-3l-121 80l-121 -80h-3zM203.5 28q-76.5 48 -120 132.5t-43.5 189.5t43.5 189.5t120 132.5t172.5 48t172.5 -48t120 -132.5t43.5 -189.5t-43.5 -189.5t-120 -132.5t-172.5 -48t-172.5 48zM567.5 89.5q66.5 90.5 66.5 260.5q0 174 -65 262.5
t-193 88.5t-193 -88.5t-65 -262.5q0 -170 66.5 -260.5t191.5 -90.5t191.5 90.5z" />
    <glyph glyph-name="Otilde" unicode="&#xd5;" horiz-adv-x="752" 
d="M407 771.5q-13 5.5 -34 17.5q-18 10 -29 15t-26 5q-23 0 -41.5 -12t-23.5 -40h-4q3 47 26 70.5t56 23.5q18 0 31 -5.5t34 -17.5q18 -10 29 -15t26 -5q23 0 41.5 12t23.5 40h4q-3 -47 -26 -70.5t-56 -23.5q-18 0 -31 5.5zM203.5 28q-76.5 48 -120 132.5t-43.5 189.5
t43.5 189.5t120 132.5t172.5 48t172.5 -48t120 -132.5t43.5 -189.5t-43.5 -189.5t-120 -132.5t-172.5 -48t-172.5 48zM567.5 89.5q66.5 90.5 66.5 260.5q0 174 -65 262.5t-193 88.5t-193 -88.5t-65 -262.5q0 -170 66.5 -260.5t191.5 -90.5t191.5 90.5z" />
    <glyph glyph-name="Odieresis" unicode="&#xd6;" horiz-adv-x="752" 
d="M230 774.5q-14 14.5 -14 35.5t14 35.5t36 14.5t36 -14.5t14 -35.5t-14 -35.5t-36 -14.5t-36 14.5zM450 774.5q-14 14.5 -14 35.5t14 35.5t36 14.5t36 -14.5t14 -35.5t-14 -35.5t-36 -14.5t-36 14.5zM203.5 28q-76.5 48 -120 132.5t-43.5 189.5t43.5 189.5t120 132.5
t172.5 48t172.5 -48t120 -132.5t43.5 -189.5t-43.5 -189.5t-120 -132.5t-172.5 -48t-172.5 48zM567.5 89.5q66.5 90.5 66.5 260.5q0 174 -65 262.5t-193 88.5t-193 -88.5t-65 -262.5q0 -170 66.5 -260.5t191.5 -90.5t191.5 90.5z" />
    <glyph glyph-name="Omacron" unicode="&#x14c;" horiz-adv-x="752" 
d="M203.5 28q-76.5 48 -120 132.5t-43.5 189.5t43.5 189.5t120 132.5t172.5 48t172.5 -48t120 -132.5t43.5 -189.5t-43.5 -189.5t-120 -132.5t-172.5 -48t-172.5 48zM567.5 89.5q66.5 90.5 66.5 260.5q0 174 -65 262.5t-193 88.5t-193 -88.5t-65 -262.5q0 -170 66.5 -260.5
t191.5 -90.5t191.5 90.5zM242 815h268v-25h-268v25z" />
    <glyph glyph-name="Obreve" unicode="&#x14e;" horiz-adv-x="752" 
d="M283 774q-37 32 -37 86h10q3 -34 36 -50.5t84 -16.5t83.5 16.5t36.5 50.5h10q0 -54 -37 -86t-93 -32t-93 32zM203.5 28q-76.5 48 -120 132.5t-43.5 189.5t43.5 189.5t120 132.5t172.5 48t172.5 -48t120 -132.5t43.5 -189.5t-43.5 -189.5t-120 -132.5t-172.5 -48
t-172.5 48zM567.5 89.5q66.5 90.5 66.5 260.5q0 174 -65 262.5t-193 88.5t-193 -88.5t-65 -262.5q0 -170 66.5 -260.5t191.5 -90.5t191.5 90.5z" />
    <glyph glyph-name="Ohungarumlaut" unicode="&#x150;" horiz-adv-x="752" 
d="M317 740l66 120h62v-5l-124 -115h-4zM431 740l66 120h62v-5l-124 -115h-4zM203.5 28q-76.5 48 -120 132.5t-43.5 189.5t43.5 189.5t120 132.5t172.5 48t172.5 -48t120 -132.5t43.5 -189.5t-43.5 -189.5t-120 -132.5t-172.5 -48t-172.5 48zM567.5 89.5
q66.5 90.5 66.5 260.5q0 174 -65 262.5t-193 88.5t-193 -88.5t-65 -262.5q0 -170 66.5 -260.5t191.5 -90.5t191.5 90.5z" />
    <glyph glyph-name="Oslash" unicode="&#xd8;" horiz-adv-x="752" 
d="M685 502.5q27 -70.5 27 -152.5q0 -105 -43.5 -189.5t-120 -132.5t-172.5 -48q-61 0 -116 20.5t-98 58.5l-63 -79h-24l73 92q-51 50 -79.5 122t-28.5 156q0 105 43.5 189.5t120 132.5t172.5 48q63 0 119 -21.5t100 -61.5l74 93h24l-84 -107q49 -50 76 -120.5zM174 105
l398 503q-65 93 -196 93q-128 0 -193 -88.5t-65 -262.5q0 -156 56 -245zM567.5 89.5q66.5 90.5 66.5 260.5q0 154 -51 241l-398 -502q67 -90 191 -90q125 0 191.5 90.5z" />
    <glyph glyph-name="Oslashacute" unicode="&#x1fe;" horiz-adv-x="752" 
d="M345 740h-4l76 120h82v-5zM685 502.5q27 -70.5 27 -152.5q0 -105 -43.5 -189.5t-120 -132.5t-172.5 -48q-61 0 -116 20.5t-98 58.5l-63 -79h-24l73 92q-51 50 -79.5 122t-28.5 156q0 105 43.5 189.5t120 132.5t172.5 48q63 0 119 -21.5t100 -61.5l74 93h24l-84 -107
q49 -50 76 -120.5zM174 105l398 503q-65 93 -196 93q-128 0 -193 -88.5t-65 -262.5q0 -156 56 -245zM567.5 89.5q66.5 90.5 66.5 260.5q0 154 -51 241l-398 -502q67 -90 191 -90q125 0 191.5 90.5z" />
    <glyph glyph-name="OE" unicode="&#x152;" horiz-adv-x="889" 
d="M839 253l-25 -253h-431q-100 0 -178 44t-121.5 123.5t-43.5 182.5t43.5 182.5t121.5 123.5t178 44h416l22 -214h-2q-29 122 -90 169q-22 17 -47.5 24t-63 9t-119.5 2v-337h73q51 0 81 13t47 42.5t25 83.5h2v-288h-2q-8 54 -25 83.5t-47 42.5t-81 13h-73v-333
q89 0 135 3.5t76.5 15t53.5 35.5q52 55 73 189h2zM431 690h-48q-82 0 -142 -40.5t-91.5 -117t-31.5 -182.5t31.5 -182.5t91.5 -117t142 -40.5h48v680z" />
    <glyph glyph-name="Racute" unicode="&#x154;" horiz-adv-x="650" 
d="M269 740l76 120h82v-5l-154 -115h-4zM30 8q34 2 50.5 9t22.5 25t6 55v516q0 43 -15.5 60t-63.5 19v8h241q131 0 188.5 -41.5t57.5 -126.5q0 -83 -64 -127t-159 -44v-4q61 0 108 -28t73 -86l58 -129q23 -52 49 -77t63 -29v-8h-128q-18 30 -56 113l-56 122q-23 50 -42 73.5
t-45 33t-72 9.5h-69v-254q0 -37 6 -55t22.5 -25t50.5 -9v-8h-226v8zM239 365q109 0 156 40t47 126q0 50 -14 83.5t-53.5 52.5t-112.5 19h-85v-321h62z" />
    <glyph glyph-name="Rcaron" unicode="&#x158;" horiz-adv-x="650" 
d="M271 800l121 60h3l-121 -110h-6l-121 110h3zM30 8q34 2 50.5 9t22.5 25t6 55v516q0 43 -15.5 60t-63.5 19v8h241q131 0 188.5 -41.5t57.5 -126.5q0 -83 -64 -127t-159 -44v-4q61 0 108 -28t73 -86l58 -129q23 -52 49 -77t63 -29v-8h-128q-18 30 -56 113l-56 122
q-23 50 -42 73.5t-45 33t-72 9.5h-69v-254q0 -37 6 -55t22.5 -25t50.5 -9v-8h-226v8zM239 365q109 0 156 40t47 126q0 50 -14 83.5t-53.5 52.5t-112.5 19h-85v-321h62z" />
    <glyph glyph-name="uni0156" unicode="&#x156;" horiz-adv-x="650" 
d="M30 8q34 2 50.5 9t22.5 25t6 55v516q0 43 -15.5 60t-63.5 19v8h241q131 0 188.5 -41.5t57.5 -126.5q0 -83 -64 -127t-159 -44v-4q61 0 108 -28t73 -86l58 -129q23 -52 49 -77t63 -29v-8h-128q-18 30 -56 113l-56 122q-23 50 -42 73.5t-45 33t-72 9.5h-69v-254
q0 -37 6 -55t22.5 -25t50.5 -9v-8h-226v8zM239 365q109 0 156 40t47 126q0 50 -14 83.5t-53.5 52.5t-112.5 19h-85v-321h62zM286 -199q56 20 56 49q0 27 -40 33q-17 2 -27 13t-10 28q0 20 12.5 31.5t33.5 11.5q23 0 41 -23.5t18 -53.5q0 -75 -82 -99z" />
    <glyph glyph-name="Sacute" unicode="&#x15a;" horiz-adv-x="525" 
d="M270 740l76 120h82v-5l-154 -115h-4zM142.5 -7q-52.5 13 -97.5 37v209h8q8 -112 62 -176t155 -64q76 0 119 39.5t43 111.5q0 55 -31 88.5t-101 63.5l-95 42q-81 35 -119 78.5t-38 114.5q0 85 62 134t165 49q99 0 184 -43v-207h-7q-8 117 -56.5 174t-145.5 57
q-73 0 -116.5 -35t-43.5 -99q0 -37 13.5 -61t43 -43.5t84.5 -43.5l109 -49q74 -32 109.5 -76.5t35.5 -111.5q0 -95 -63.5 -148.5t-174.5 -53.5q-52 0 -104.5 13z" />
    <glyph glyph-name="Scircumflex" unicode="&#x15c;" horiz-adv-x="525" 
d="M148 730l121 130h6l121 -130h-3l-121 80l-121 -80h-3zM142.5 -7q-52.5 13 -97.5 37v209h8q8 -112 62 -176t155 -64q76 0 119 39.5t43 111.5q0 55 -31 88.5t-101 63.5l-95 42q-81 35 -119 78.5t-38 114.5q0 85 62 134t165 49q99 0 184 -43v-207h-7q-8 117 -56.5 174
t-145.5 57q-73 0 -116.5 -35t-43.5 -99q0 -37 13.5 -61t43 -43.5t84.5 -43.5l109 -49q74 -32 109.5 -76.5t35.5 -111.5q0 -95 -63.5 -148.5t-174.5 -53.5q-52 0 -104.5 13z" />
    <glyph glyph-name="Scaron" unicode="&#x160;" horiz-adv-x="525" 
d="M272 800l121 60h3l-121 -110h-6l-121 110h3zM142.5 -7q-52.5 13 -97.5 37v209h8q8 -112 62 -176t155 -64q76 0 119 39.5t43 111.5q0 55 -31 88.5t-101 63.5l-95 42q-81 35 -119 78.5t-38 114.5q0 85 62 134t165 49q99 0 184 -43v-207h-7q-8 117 -56.5 174t-145.5 57
q-73 0 -116.5 -35t-43.5 -99q0 -37 13.5 -61t43 -43.5t84.5 -43.5l109 -49q74 -32 109.5 -76.5t35.5 -111.5q0 -95 -63.5 -148.5t-174.5 -53.5q-52 0 -104.5 13z" />
    <glyph glyph-name="Scedilla" unicode="&#x15e;" horiz-adv-x="525" 
d="M433 44q-52 -52 -145 -62l-33 -51q11 9 32 9q29 0 50 -20t21 -55t-22.5 -57.5t-55.5 -22.5q-28 0 -48 16t-26 43l6 3q7 -17 21 -26.5t31 -9.5q23 0 38 15t15 40q0 23 -13.5 36.5t-33.5 13.5q-12 0 -19.5 -2.5t-15.5 -10.5l-6 4l44 74q-8 -1 -26 -1q-52 0 -104.5 13
t-97.5 37v209h8q8 -112 62 -176t155 -64h15v1h8q65 6 102 45t37 105q0 55 -31 88.5t-101 63.5l-95 42q-81 35 -119 78.5t-38 114.5q0 85 62 134t165 49q99 0 184 -43v-207h-7q-8 117 -56.5 174t-145.5 57q-73 0 -116.5 -35t-43.5 -99q0 -37 13.5 -61t43 -43.5t84.5 -43.5
l109 -49q74 -32 109.5 -76.5t35.5 -111.5q0 -86 -52 -138z" />
    <glyph glyph-name="uni0218" unicode="&#x218;" horiz-adv-x="525" 
d="M142.5 -7q-52.5 13 -97.5 37v209h8q8 -112 62 -176t155 -64q76 0 119 39.5t43 111.5q0 55 -31 88.5t-101 63.5l-95 42q-81 35 -119 78.5t-38 114.5q0 85 62 134t165 49q99 0 184 -43v-207h-7q-8 117 -56.5 174t-145.5 57q-73 0 -116.5 -35t-43.5 -99q0 -37 13.5 -61
t43 -43.5t84.5 -43.5l109 -49q74 -32 109.5 -76.5t35.5 -111.5q0 -95 -63.5 -148.5t-174.5 -53.5q-52 0 -104.5 13zM267 -199q56 20 56 49q0 27 -40 33q-17 2 -27 13t-10 28q0 20 12.5 31.5t33.5 11.5q23 0 41 -23.5t18 -53.5q0 -75 -82 -99z" />
    <glyph glyph-name="Tcaron" unicode="&#x164;" horiz-adv-x="590" 
d="M294 800l121 60h3l-121 -110h-6l-121 110h3zM570 719v-246h-8q-9 96 -28.5 140.5t-52.5 57.5t-97 13h-55v-582q0 -39 9 -58t32.5 -26.5t72.5 -9.5v-8h-296v8q49 2 72.5 9.5t32.5 26.5t9 58v582h-55q-64 0 -97 -13t-52.5 -57.5t-28.5 -140.5h-8v246h5q10 -10 27 -14.5
t46 -4.5h394q29 0 46 4.5t27 14.5h5z" />
    <glyph glyph-name="uni021A" unicode="&#x21a;" horiz-adv-x="590" 
d="M570 719v-246h-8q-9 96 -28.5 140.5t-52.5 57.5t-97 13h-55v-582q0 -39 9 -58t32.5 -26.5t72.5 -9.5v-8h-296v8q49 2 72.5 9.5t32.5 26.5t9 58v582h-55q-64 0 -97 -13t-52.5 -57.5t-28.5 -140.5h-8v246h5q10 -10 27 -14.5t46 -4.5h394q29 0 46 4.5t27 14.5h5zM269 -199
q56 20 56 49q0 27 -40 33q-17 2 -27 13t-10 28q0 20 12.5 31.5t33.5 11.5q23 0 41 -23.5t18 -53.5q0 -75 -82 -99z" />
    <glyph glyph-name="Tbar" unicode="&#x166;" horiz-adv-x="590" 
d="M570 719v-246h-8q-9 96 -28.5 140.5t-52.5 57.5t-97 13h-55v-299h141v-10h-141v-273q0 -39 9 -58t32.5 -26.5t72.5 -9.5v-8h-296v8q49 2 72.5 9.5t32.5 26.5t9 58v273h-141v10h141v299h-55q-64 0 -97 -13t-52.5 -57.5t-28.5 -140.5h-8v246h5q10 -10 27 -14.5t46 -4.5h394
q29 0 46 4.5t27 14.5h5z" />
    <glyph glyph-name="uni0162" unicode="&#x162;" horiz-adv-x="590" 
d="M570 719v-246h-8q-9 96 -28.5 140.5t-52.5 57.5t-97 13h-55v-582q0 -39 9 -58t32.5 -26.5t72.5 -9.5v-8h-296v8q49 2 72.5 9.5t32.5 26.5t9 58v582h-55q-64 0 -97 -13t-52.5 -57.5t-28.5 -140.5h-8v246h5q10 -10 27 -14.5t46 -4.5h394q29 0 46 4.5t27 14.5h5z
M337.5 -192.5q-22.5 -22.5 -55.5 -22.5q-28 0 -48 16t-26 43l6 3q7 -17 21 -26.5t31 -9.5q23 0 38 15t15 40q0 23 -13.5 36.5t-33.5 13.5q-12 0 -19.5 -2.5t-15.5 -10.5l-6 4l56 93h14l-44 -69q10 9 32 9q29 0 50 -20t21 -55t-22.5 -57.5z" />
    <glyph glyph-name="Ugrave" unicode="&#xd9;" horiz-adv-x="677" 
d="M185 855v5h82l76 -120h-4zM667 692q-48 -2 -68.5 -27t-20.5 -82v-317q0 -143 -57.5 -214.5t-178.5 -71.5q-120 0 -186.5 71.5t-66.5 209.5v352q0 43 -15.5 60t-63.5 19v8h230v-8q-34 -2 -50.5 -8.5t-22.5 -22t-6 -48.5v-337q0 -128 50 -193.5t149 -65.5q100 0 149 65.5
t49 198.5v302q0 57 -27.5 82t-89.5 27v8h226v-8z" />
    <glyph glyph-name="Uacute" unicode="&#xda;" horiz-adv-x="677" 
d="M339 740l76 120h82v-5l-154 -115h-4zM667 692q-48 -2 -68.5 -27t-20.5 -82v-317q0 -143 -57.5 -214.5t-178.5 -71.5q-120 0 -186.5 71.5t-66.5 209.5v352q0 43 -15.5 60t-63.5 19v8h230v-8q-34 -2 -50.5 -8.5t-22.5 -22t-6 -48.5v-337q0 -128 50 -193.5t149 -65.5
q100 0 149 65.5t49 198.5v302q0 57 -27.5 82t-89.5 27v8h226v-8z" />
    <glyph glyph-name="Ucircumflex" unicode="&#xdb;" horiz-adv-x="677" 
d="M217 730l121 130h6l121 -130h-3l-121 80l-121 -80h-3zM667 692q-48 -2 -68.5 -27t-20.5 -82v-317q0 -143 -57.5 -214.5t-178.5 -71.5q-120 0 -186.5 71.5t-66.5 209.5v352q0 43 -15.5 60t-63.5 19v8h230v-8q-34 -2 -50.5 -8.5t-22.5 -22t-6 -48.5v-337q0 -128 50 -193.5
t149 -65.5q100 0 149 65.5t49 198.5v302q0 57 -27.5 82t-89.5 27v8h226v-8z" />
    <glyph glyph-name="Utilde" unicode="&#x168;" horiz-adv-x="677" 
d="M372 771.5q-13 5.5 -34 17.5q-18 10 -29 15t-26 5q-23 0 -41.5 -12t-23.5 -40h-4q3 47 26 70.5t56 23.5q18 0 31 -5.5t34 -17.5q18 -10 29 -15t26 -5q23 0 41.5 12t23.5 40h4q-3 -47 -26 -70.5t-56 -23.5q-18 0 -31 5.5zM667 692q-48 -2 -68.5 -27t-20.5 -82v-317
q0 -143 -57.5 -214.5t-178.5 -71.5q-120 0 -186.5 71.5t-66.5 209.5v352q0 43 -15.5 60t-63.5 19v8h230v-8q-34 -2 -50.5 -8.5t-22.5 -22t-6 -48.5v-337q0 -128 50 -193.5t149 -65.5q100 0 149 65.5t49 198.5v302q0 57 -27.5 82t-89.5 27v8h226v-8z" />
    <glyph glyph-name="Udieresis" unicode="&#xdc;" horiz-adv-x="677" 
d="M195 774.5q-14 14.5 -14 35.5t14 35.5t36 14.5t36 -14.5t14 -35.5t-14 -35.5t-36 -14.5t-36 14.5zM415 774.5q-14 14.5 -14 35.5t14 35.5t36 14.5t36 -14.5t14 -35.5t-14 -35.5t-36 -14.5t-36 14.5zM667 692q-48 -2 -68.5 -27t-20.5 -82v-317q0 -143 -57.5 -214.5
t-178.5 -71.5q-120 0 -186.5 71.5t-66.5 209.5v352q0 43 -15.5 60t-63.5 19v8h230v-8q-34 -2 -50.5 -8.5t-22.5 -22t-6 -48.5v-337q0 -128 50 -193.5t149 -65.5q100 0 149 65.5t49 198.5v302q0 57 -27.5 82t-89.5 27v8h226v-8z" />
    <glyph glyph-name="Umacron" unicode="&#x16a;" horiz-adv-x="677" 
d="M667 692q-48 -2 -68.5 -27t-20.5 -82v-317q0 -143 -57.5 -214.5t-178.5 -71.5q-120 0 -186.5 71.5t-66.5 209.5v352q0 43 -15.5 60t-63.5 19v8h230v-8q-34 -2 -50.5 -8.5t-22.5 -22t-6 -48.5v-337q0 -128 50 -193.5t149 -65.5q100 0 149 65.5t49 198.5v302q0 57 -27.5 82
t-89.5 27v8h226v-8zM207 815h268v-25h-268v25z" />
    <glyph glyph-name="Ubreve" unicode="&#x16c;" horiz-adv-x="677" 
d="M248 774q-37 32 -37 86h10q3 -34 36 -50.5t84 -16.5t83.5 16.5t36.5 50.5h10q0 -54 -37 -86t-93 -32t-93 32zM667 692q-48 -2 -68.5 -27t-20.5 -82v-317q0 -143 -57.5 -214.5t-178.5 -71.5q-120 0 -186.5 71.5t-66.5 209.5v352q0 43 -15.5 60t-63.5 19v8h230v-8
q-34 -2 -50.5 -8.5t-22.5 -22t-6 -48.5v-337q0 -128 50 -193.5t149 -65.5q100 0 149 65.5t49 198.5v302q0 57 -27.5 82t-89.5 27v8h226v-8z" />
    <glyph glyph-name="Uring" unicode="&#x16e;" horiz-adv-x="677" 
d="M289.5 750.5q-19.5 19.5 -19.5 50.5q0 30 19.5 49.5t51.5 19.5t51.5 -19.5t19.5 -49.5q0 -31 -19.5 -50.5t-51.5 -19.5t-51.5 19.5zM383 759q16 16 16 42t-16 41.5t-42 15.5t-42 -15.5t-16 -41.5t16 -42t42 -16t42 16zM667 692q-48 -2 -68.5 -27t-20.5 -82v-317
q0 -143 -57.5 -214.5t-178.5 -71.5q-120 0 -186.5 71.5t-66.5 209.5v352q0 43 -15.5 60t-63.5 19v8h230v-8q-34 -2 -50.5 -8.5t-22.5 -22t-6 -48.5v-337q0 -128 50 -193.5t149 -65.5q100 0 149 65.5t49 198.5v302q0 57 -27.5 82t-89.5 27v8h226v-8z" />
    <glyph glyph-name="Uhungarumlaut" unicode="&#x170;" horiz-adv-x="677" 
d="M282 740l66 120h62v-5l-124 -115h-4zM396 740l66 120h62v-5l-124 -115h-4zM667 692q-48 -2 -68.5 -27t-20.5 -82v-317q0 -143 -57.5 -214.5t-178.5 -71.5q-120 0 -186.5 71.5t-66.5 209.5v352q0 43 -15.5 60t-63.5 19v8h230v-8q-34 -2 -50.5 -8.5t-22.5 -22t-6 -48.5
v-337q0 -128 50 -193.5t149 -65.5q100 0 149 65.5t49 198.5v302q0 57 -27.5 82t-89.5 27v8h226v-8z" />
    <glyph glyph-name="Uogonek" unicode="&#x172;" horiz-adv-x="677" 
d="M667 700v-8q-48 -2 -68.5 -27t-20.5 -82v-317q0 -230 -149 -274q-33 -16 -51.5 -42.5t-18.5 -57.5q0 -28 15.5 -42.5t43.5 -14.5q22 0 40 10.5t27 28.5l4 -2q-30 -82 -101 -82q-36 0 -56.5 20t-20.5 54q0 36 22 67.5t58 51.5q-23 -3 -49 -3q-120 0 -186.5 71.5
t-66.5 209.5v352q0 43 -15.5 60t-63.5 19v8h230v-8q-34 -2 -50.5 -8.5t-22.5 -22t-6 -48.5v-337q0 -128 50 -193.5t149 -65.5q100 0 149 65.5t49 198.5v302q0 57 -27.5 82t-89.5 27v8h226z" />
    <glyph glyph-name="Wgrave" unicode="&#x1e80;" horiz-adv-x="941" 
d="M446 740l-154 115v5h82l76 -120h-4zM936 700v-8q-37 -1 -58.5 -25.5t-40.5 -84.5l-193 -592h-4l-172 490l-160 -490h-4l-209 598q-15 42 -26.5 63.5t-26 30.5t-37.5 10v8h231v-8q-40 -2 -58 -14t-18 -39q0 -24 12 -60l156 -461l129 392l-31 89q-13 38 -24.5 56.5
t-27.5 27t-44 9.5v8h229v-8q-36 -1 -53 -13t-17 -36q0 -17 7 -37l168 -485l151 458q12 36 12 59q0 28 -18.5 40.5t-60.5 13.5v8h188z" />
    <glyph glyph-name="Wacute" unicode="&#x1e82;" horiz-adv-x="941" 
d="M450 740h-4l76 120h82v-5zM936 700v-8q-37 -1 -58.5 -25.5t-40.5 -84.5l-193 -592h-4l-172 490l-160 -490h-4l-209 598q-15 42 -26.5 63.5t-26 30.5t-37.5 10v8h231v-8q-40 -2 -58 -14t-18 -39q0 -24 12 -60l156 -461l129 392l-31 89q-13 38 -24.5 56.5t-27.5 27t-44 9.5
v8h229v-8q-36 -1 -53 -13t-17 -36q0 -17 7 -37l168 -485l151 458q12 36 12 59q0 28 -18.5 40.5t-60.5 13.5v8h188z" />
    <glyph glyph-name="Wcircumflex" unicode="&#x174;" horiz-adv-x="941" 
d="M327 730h-3l121 130h6l121 -130h-3l-121 80zM936 700v-8q-37 -1 -58.5 -25.5t-40.5 -84.5l-193 -592h-4l-172 490l-160 -490h-4l-209 598q-15 42 -26.5 63.5t-26 30.5t-37.5 10v8h231v-8q-40 -2 -58 -14t-18 -39q0 -24 12 -60l156 -461l129 392l-31 89q-13 38 -24.5 56.5
t-27.5 27t-44 9.5v8h229v-8q-36 -1 -53 -13t-17 -36q0 -17 7 -37l168 -485l151 458q12 36 12 59q0 28 -18.5 40.5t-60.5 13.5v8h188z" />
    <glyph glyph-name="Wdieresis" unicode="&#x1e84;" horiz-adv-x="941" 
d="M302 774.5q-14 14.5 -14 35.5t14 35.5t36 14.5t36 -14.5t14 -35.5t-14 -35.5t-36 -14.5t-36 14.5zM522 774.5q-14 14.5 -14 35.5t14 35.5t36 14.5t36 -14.5t14 -35.5t-14 -35.5t-36 -14.5t-36 14.5zM936 700v-8q-37 -1 -58.5 -25.5t-40.5 -84.5l-193 -592h-4l-172 490
l-160 -490h-4l-209 598q-15 42 -26.5 63.5t-26 30.5t-37.5 10v8h231v-8q-40 -2 -58 -14t-18 -39q0 -24 12 -60l156 -461l129 392l-31 89q-13 38 -24.5 56.5t-27.5 27t-44 9.5v8h229v-8q-36 -1 -53 -13t-17 -36q0 -17 7 -37l168 -485l151 458q12 36 12 59q0 28 -18.5 40.5
t-60.5 13.5v8h188z" />
    <glyph glyph-name="Ygrave" unicode="&#x1ef2;" horiz-adv-x="627" 
d="M176 855v5h82l76 -120h-4zM617 700v-8q-39 -2 -63.5 -20.5t-49.5 -64.5l-159 -292v-239q3 -27 13.5 -41t33 -19.5t66.5 -7.5v-8h-295v8q49 2 72.5 9.5t32.5 26.5t9 58v209l-159 289q-21 37 -36 56t-31 26.5t-41 9.5v8h227v-8q-70 -3 -70 -40q0 -8 3.5 -18t13.5 -29
l148 -277l142 260q22 40 22 61q0 40 -67 43v8h188z" />
    <glyph glyph-name="Yacute" unicode="&#xdd;" horiz-adv-x="627" 
d="M330 740l76 120h82v-5l-154 -115h-4zM617 700v-8q-39 -2 -63.5 -20.5t-49.5 -64.5l-159 -292v-239q3 -27 13.5 -41t33 -19.5t66.5 -7.5v-8h-295v8q49 2 72.5 9.5t32.5 26.5t9 58v209l-159 289q-21 37 -36 56t-31 26.5t-41 9.5v8h227v-8q-70 -3 -70 -40q0 -8 3.5 -18
t13.5 -29l148 -277l142 260q22 40 22 61q0 40 -67 43v8h188z" />
    <glyph glyph-name="Ycircumflex" unicode="&#x176;" horiz-adv-x="627" 
d="M208 730l121 130h6l121 -130h-3l-121 80l-121 -80h-3zM617 700v-8q-39 -2 -63.5 -20.5t-49.5 -64.5l-159 -292v-239q3 -27 13.5 -41t33 -19.5t66.5 -7.5v-8h-295v8q49 2 72.5 9.5t32.5 26.5t9 58v209l-159 289q-21 37 -36 56t-31 26.5t-41 9.5v8h227v-8q-70 -3 -70 -40
q0 -8 3.5 -18t13.5 -29l148 -277l142 260q22 40 22 61q0 40 -67 43v8h188z" />
    <glyph glyph-name="Ydieresis" unicode="&#x178;" horiz-adv-x="627" 
d="M186 774.5q-14 14.5 -14 35.5t14 35.5t36 14.5t36 -14.5t14 -35.5t-14 -35.5t-36 -14.5t-36 14.5zM406 774.5q-14 14.5 -14 35.5t14 35.5t36 14.5t36 -14.5t14 -35.5t-14 -35.5t-36 -14.5t-36 14.5zM617 700v-8q-39 -2 -63.5 -20.5t-49.5 -64.5l-159 -292v-239
q3 -27 13.5 -41t33 -19.5t66.5 -7.5v-8h-295v8q49 2 72.5 9.5t32.5 26.5t9 58v209l-159 289q-21 37 -36 56t-31 26.5t-41 9.5v8h227v-8q-70 -3 -70 -40q0 -8 3.5 -18t13.5 -29l148 -277l142 260q22 40 22 61q0 40 -67 43v8h188z" />
    <glyph glyph-name="Zacute" unicode="&#x179;" horiz-adv-x="576" 
d="M284 740l76 120h82v-5l-154 -115h-4zM30 5l430 680h-158q-86 0 -130 -20.5t-65 -65.5t-39 -136h-8l27 237h455v-5l-429 -680h181q89 0 135 20.5t68.5 65.5t40.5 136h8l-27 -237h-489v5z" />
    <glyph glyph-name="Zcaron" unicode="&#x17d;" horiz-adv-x="576" 
d="M286 800l121 60h3l-121 -110h-6l-121 110h3zM30 5l430 680h-158q-86 0 -130 -20.5t-65 -65.5t-39 -136h-8l27 237h455v-5l-429 -680h181q89 0 135 20.5t68.5 65.5t40.5 136h8l-27 -237h-489v5z" />
    <glyph glyph-name="Zdotaccent" unicode="&#x17b;" horiz-adv-x="576" 
d="M248.5 769.5q-15.5 15.5 -15.5 37.5q0 23 15.5 38t37.5 15q23 0 38 -15t15 -38q0 -22 -15 -37.5t-38 -15.5q-22 0 -37.5 15.5zM30 5l430 680h-158q-86 0 -130 -20.5t-65 -65.5t-39 -136h-8l27 237h455v-5l-429 -680h181q89 0 135 20.5t68.5 65.5t40.5 136h8l-27 -237
h-489v5z" />
    <glyph glyph-name="Eng" unicode="&#x14a;" horiz-adv-x="728" 
d="M450 -210q-24 5 -35 12l3 6q27 -14 64 -14q34 0 53.5 25t19.5 68v177l-407 546v-480q0 -47 10.5 -72.5t33.5 -36.5t64 -13v-8h-226v8q54 2 76 28.5t22 93.5v507q-21 27 -42.5 40.5t-55.5 14.5v8h141l424 -565v446q0 61 -24 85t-84 26v8h226v-8q-54 -2 -76 -27t-22 -84
v-642q0 -73 -30 -113.5t-89 -40.5q-22 0 -46 5z" />
    <glyph glyph-name="Eth" unicode="&#xd0;" horiz-adv-x="705" 
d="M562 608.5q98 -91.5 98 -258.5t-98 -258.5t-277 -91.5h-239v8q34 2 50.5 9t22.5 25t6 55v256h-95v10h95v250q0 43 -15.5 60t-63.5 19v8h239q179 0 277 -91.5zM503.5 94q76.5 80 76.5 256t-76.5 256t-236.5 80h-74v-323h140v-10h-140v-339h74q160 0 236.5 80z" />
    <glyph glyph-name="Thorn" unicode="&#xde;" horiz-adv-x="532" 
d="M177 172v-75q0 -37 6 -55t22.5 -25t50.5 -9v-8h-226v8q34 2 50.5 9t22.5 25t6 55v516q0 43 -15.5 60t-63.5 19v8h226v-8q-34 -2 -50.5 -8.5t-22.5 -22t-6 -48.5v-55h48q135 0 208.5 -48.5t73.5 -144.5t-73.5 -144.5t-208.5 -48.5h-48zM177 544v-358h27q115 0 171.5 42.5
t56.5 136.5t-56.5 136.5t-171.5 42.5h-27z" />
    <glyph glyph-name="a" unicode="a" horiz-adv-x="509" 
d="M499 75q-25 -90 -97 -90q-33 0 -51 23t-18 61v22q-5 -24 -25 -48.5t-52.5 -41t-72.5 -16.5q-66 0 -102 33t-36 84q0 122 169 155l119 24v29q0 80 -30.5 117.5t-95.5 37.5q-55 0 -93 -33.5t-48 -93.5l-8 1q9 77 56.5 121.5t120.5 44.5q77 0 117.5 -45.5t40.5 -132.5v-253
q0 -29 10 -45.5t30 -16.5q41 0 59 64zM284 32.5q31 22.5 49 70.5v166l-92 -19q-81 -16 -105.5 -51t-24.5 -78q0 -45 24 -78t73 -33q45 0 76 22.5z" />
    <glyph glyph-name="b" unicode="b" horiz-adv-x="532" 
d="M407.5 476.5q42.5 -28.5 66 -82.5t23.5 -128q0 -82 -31 -146t-87.5 -99.5t-129.5 -35.5q-43 0 -87.5 12t-77.5 33v600q0 36 -8 48.5t-31 12.5q-19 0 -40 -4v8l139 35v-331q15 43 63 74.5t102 31.5q56 0 98.5 -28.5zM386 64q46 65 46 183q0 107 -39 165.5t-118 58.5
q-39 0 -77 -23t-54 -67v-320q11 -21 41.5 -41.5t77.5 -20.5q77 0 123 65z" />
    <glyph glyph-name="c" unicode="c" horiz-adv-x="466" 
d="M136 15.5q-48 30.5 -74.5 87t-26.5 130.5q0 130 62 201t167 71q82 0 139 -26v-172h-8q-9 173 -149 173q-79 0 -123.5 -53.5t-44.5 -158.5q0 -62 24 -114t68 -82.5t100 -30.5t96.5 29t51.5 95l8 -2q-9 -84 -56.5 -131t-122.5 -47q-63 0 -111 30.5z" />
    <glyph glyph-name="d" unicode="d" horiz-adv-x="547" 
d="M465.5 25.5q17.5 -14.5 61.5 -16.5v-8h-139v81q-15 -38 -55.5 -67.5t-95.5 -29.5q-56 0 -102 29t-73 84t-27 130q0 87 33.5 150t88.5 95t121 32q57 0 110 -29v164q0 27 -9 38.5t-32 11.5q-14 0 -63 -9v8l164 41v-652q0 -38 17.5 -52.5zM343 40.5q30 19.5 45 57.5v299
q-10 39 -43 67t-82 28q-75 0 -119 -63t-44 -183q0 -68 22 -119t61 -78.5t88 -27.5q42 0 72 19.5z" />
    <glyph glyph-name="e" unicode="e" horiz-adv-x="466" 
d="M431 173q-16 -93 -63 -140.5t-123 -47.5q-61 0 -108.5 29t-74.5 86t-27 137q0 121 55.5 194.5t158.5 73.5q58 0 98 -28t58.5 -75t15.5 -104h-344v-11q0 -75 23.5 -130.5t66.5 -85.5t98 -30q56 0 96.5 27.5t62.5 105.5zM123.5 440.5q-40.5 -48.5 -45.5 -129.5h273
q4 86 -32 132t-93 46q-62 0 -102.5 -48.5z" />
    <glyph glyph-name="f" unicode="f" horiz-adv-x="304" 
d="M293.5 716q23.5 -4 40.5 -12v-110h-7q-4 42 -30 72.5t-72 30.5t-68.5 -31.5t-22.5 -71.5q0 -33 7 -55t23 -49h113v-10h-113v-424q0 -19 6.5 -28t26.5 -13.5t66 -6.5v-8h-238v8q33 2 49 6t23 13t7 29v424h-73v10h73v63q0 92 39 129.5t109 37.5q18 0 41.5 -4z" />
    <glyph glyph-name="g" unicode="g" horiz-adv-x="492" 
d="M431 49.5q36 -24.5 36 -78.5q0 -55 -29.5 -97t-84 -65.5t-127.5 -23.5q-59 0 -105 16.5t-71 45.5t-25 67q0 87 115 116q-35 6 -55.5 27t-20.5 54q0 31 21.5 54.5t65.5 33.5q-40 20 -62.5 58t-22.5 85q0 46 21.5 83t61.5 58.5t93 21.5q45 0 79 -15h137v-10h-117
q37 -22 57 -58t20 -80q0 -46 -21.5 -83.5t-61.5 -59t-93 -21.5q-44 0 -80 15q-32 -5 -49.5 -18.5t-17.5 -36.5q0 -24 20 -35.5t64 -14.5l152 -10q64 -4 100 -28.5zM158.5 455q-31.5 -40 -31.5 -113t32 -113.5t83 -40.5t83 40.5t32 113.5q0 74 -32.5 113.5t-84.5 39.5
q-50 0 -81.5 -40zM360.5 -169q43.5 18 65 46.5t21.5 59.5q0 45 -24.5 60.5t-78.5 18.5l-187 12h-3q-40 -17 -56 -39t-16 -58q0 -54 47 -86t124 -32q64 0 107.5 18z" />
    <glyph glyph-name="h" unicode="h" horiz-adv-x="568" 
d="M20 8q33 2 49 6t23 13t7 29v574q0 36 -8 48.5t-31 12.5q-19 0 -40 -4v8l139 35v-341q11 48 55.5 82t106.5 34q77 0 112.5 -44t35.5 -120v-285q0 -20 7 -29t23 -13t49 -6v-8h-218v8q33 2 49 6t23 13t7 29v267q0 76 -30.5 115t-91.5 39q-51 0 -82.5 -28.5t-45.5 -71.5v-321
q0 -20 7 -29t23 -13t49 -6v-8h-218v8z" />
    <glyph glyph-name="i" unicode="i" horiz-adv-x="263" 
d="M93.5 602q-13.5 14 -13.5 34q0 21 13.5 34.5t34.5 13.5t34.5 -14t13.5 -34t-13.5 -34t-34.5 -14t-34.5 14zM171 27q7 -9 23 -13t49 -6v-8h-218v8q33 2 49 6t23 13t7 29v339q0 36 -8 48.5t-31 12.5q-19 0 -40 -4v8l139 35v-439q0 -20 7 -29z" />
    <glyph glyph-name="j" unicode="j" horiz-adv-x="237" 
d="M81.5 602q-13.5 14 -13.5 34q0 21 13.5 34.5t34.5 13.5t34.5 -14t13.5 -34t-13.5 -34t-34.5 -14t-34.5 14zM-25 -206v3q12 -3 26 -3q48 0 69.5 31.5t21.5 100.5v469q0 36 -8 48.5t-31 12.5q-19 0 -40 -4v8l139 35v-563q0 -71 -29.5 -109t-87.5 -38q-37 0 -60 9z" />
    <glyph glyph-name="k" unicode="k" horiz-adv-x="527" 
d="M20 8q33 2 49 6t23 13t7 29v574q0 36 -8 48.5t-31 12.5q-19 0 -40 -4v8l139 35v-674q0 -20 7 -29t23 -13t49 -6v-8h-218v8zM164 263l165 135q28 23 37.5 35.5t9.5 22.5q0 11 -12.5 18.5t-38.5 8.5v7h165v-7q-53 -9 -114 -60l-157 -132l195 -208q38 -41 61 -57.5t47 -18.5
v-7h-114z" />
    <glyph glyph-name="l" unicode="l" horiz-adv-x="258" 
d="M166 27q7 -9 23 -13t49 -6v-8h-218v8q33 2 49 6t23 13t7 29v574q0 36 -8 48.5t-31 12.5q-19 0 -40 -4v8l139 35v-674q0 -20 7 -29z" />
    <glyph glyph-name="m" unicode="m" horiz-adv-x="833" 
d="M741 27q7 -9 23 -13t49 -6v-8h-218v8q33 2 49 6t23 13t7 29v269q0 77 -27 115t-84 38q-44 0 -73.5 -27.5t-43.5 -67.5q3 -19 3 -40v-287q0 -20 7 -29t23 -13t49 -6v-8h-218v8q33 2 49 6t23 13t7 29v269q0 77 -27 115t-84 38q-43 0 -72 -26t-42 -65v-331q0 -20 7 -29
t23 -13t49 -6v-8h-218v8q33 2 49 6t23 13t7 29v344q0 36 -8 48.5t-31 12.5q-19 0 -40 -4v8l139 35v-98q13 44 53 73.5t94 29.5q56 0 88.5 -28t43.5 -77q46 105 153 105q71 0 104.5 -44.5t33.5 -117.5v-287q0 -20 7 -29z" />
    <glyph glyph-name="n" unicode="n" horiz-adv-x="573" 
d="M481 27q7 -9 23 -13t49 -6v-8h-218v8q33 2 49 6t23 13t7 29v264q0 78 -29 117.5t-91 39.5q-50 0 -83.5 -29t-46.5 -71v-321q0 -20 7 -29t23 -13t49 -6v-8h-218v8q33 2 49 6t23 13t7 29v344q0 36 -8 48.5t-31 12.5q-19 0 -40 -4v8l139 35v-113q11 49 56 83.5t106 34.5
q76 0 112 -45t36 -122v-282q0 -20 7 -29z" />
    <glyph glyph-name="o" unicode="o" horiz-adv-x="528" 
d="M141 19q-52 34 -79 93t-27 133t27 133t79 93t123 34t123 -34t79 -93t27 -133t-27 -133t-79 -93t-123 -34t-123 34zM386.5 64.5q39.5 64.5 39.5 180.5t-39.5 180.5t-122.5 64.5t-122.5 -64.5t-39.5 -180.5t39.5 -180.5t122.5 -64.5t122.5 64.5z" />
    <glyph glyph-name="p" unicode="p" horiz-adv-x="542" 
d="M15 -192q33 2 49 6t23 13t7 29v544q0 36 -8 48.5t-31 12.5q-19 0 -40 -4v8l139 35v-95q20 44 60.5 72t98.5 28q53 0 97.5 -29t70.5 -83t26 -126q0 -81 -31.5 -145.5t-82.5 -100.5t-109 -36q-72 0 -130 47v-176q0 -19 6.5 -28t26.5 -13.5t66 -6.5v-8h-238v8zM363 26.5
q36 28.5 57.5 86t21.5 138.5q0 67 -20.5 116t-57 75.5t-82.5 26.5q-90 0 -128 -75v-323q13 -26 46 -49.5t83 -23.5q44 0 80 28.5z" />
    <glyph glyph-name="q" unicode="q" horiz-adv-x="542" 
d="M455 -173q7 -9 23 -13t49 -6v-8h-238v8q46 2 66 6.5t26.5 13.5t6.5 28v221q-17 -40 -58.5 -66t-97.5 -26q-53 0 -98.5 30t-72 85t-26.5 128q0 85 33 147.5t90 96t127 33.5q45 0 84 -11.5t79 -35.5v-602q0 -20 7 -29zM388 94v325q-20 37 -49 55t-73 18q-48 0 -86 -28.5
t-59 -82t-21 -124.5q0 -76 22 -129t60 -80t86 -27q89 0 120 73z" />
    <glyph glyph-name="r" unicode="r" horiz-adv-x="331" 
d="M316 505v-66h-5q-12 5 -37 5q-53 0 -81.5 -43t-28.5 -144v-201q0 -19 6.5 -28t26.5 -13.5t66 -6.5v-8h-238v8q33 2 49 6t23 13t7 29v344q0 36 -8 48.5t-31 12.5q-19 0 -40 -4v8l137 35v-177h2q8 89 45.5 135.5t103.5 46.5h3z" />
    <glyph glyph-name="s" unicode="s" horiz-adv-x="412" 
d="M117.5 -5.5q-42.5 9.5 -72.5 25.5v158h9q4 -81 49 -127t113 -46q53 0 84 27.5t31 72.5q0 38 -25 61.5t-78 43.5l-87 32q-93 34 -93 124q0 64 44.5 101.5t124.5 37.5q34 0 72 -6.5t60 -16.5v-145h-9q-4 76 -40.5 113t-99.5 37q-55 0 -83 -25t-28 -66q0 -32 20 -56t65 -41
l90 -33q54 -20 81 -49.5t27 -80.5q0 -70 -48.5 -110.5t-125.5 -40.5q-38 0 -80.5 9.5z" />
    <glyph glyph-name="t" unicode="t" horiz-adv-x="313" 
d="M303 86q-31 -101 -116 -101q-45 0 -69.5 27t-24.5 78v390h-78v7q60 3 91.5 38t38.5 107h8v-142h121v-10h-121v-377q0 -41 15.5 -65.5t45.5 -24.5q31 0 49.5 17.5t32.5 57.5z" />
    <glyph glyph-name="u" unicode="u" horiz-adv-x="553" 
d="M471.5 24.5q17.5 -14.5 61.5 -16.5v-8h-139v86q-18 -43 -59.5 -72t-92.5 -29q-73 0 -113 43t-40 124v257q0 36 -8 48.5t-31 12.5q-19 0 -40 -4v8l139 26v-330q0 -73 32 -113t89 -40q40 0 73.5 22.5t50.5 60.5v309q0 36 -8 48.5t-31 12.5q-19 0 -40 -4v8l139 26v-423
q0 -38 17.5 -52.5z" />
    <glyph glyph-name="v" unicode="v" horiz-adv-x="515" 
d="M90 383q-21 51 -39.5 73t-45.5 26v8h208v-8q-39 -1 -57 -12t-18 -35q0 -19 14 -52l127 -300l125 293q8 20 12 32t4 27q0 46 -75 47v8h165v-8q-31 -8 -46.5 -26.5t-37.5 -70.5l-166 -395h-6z" />
    <glyph glyph-name="w" unicode="w" horiz-adv-x="777" 
d="M772 490v-8q-30 -8 -45 -27t-35 -70l-156 -395h-6l-136 344l-135 -344h-6l-157 393q-20 51 -40.5 74t-50.5 25v8h204v-8q-34 -1 -49 -12.5t-15 -34.5q0 -17 13 -52l119 -301l108 276l-10 25q-21 52 -41 74.5t-50 24.5v8h209v-8q-37 -1 -53.5 -12.5t-16.5 -34.5
q0 -17 13 -52l117 -306l118 301q8 21 11 32.5t3 24.5q0 23 -17 34.5t-53 12.5v8h157z" />
    <glyph glyph-name="x" unicode="x" horiz-adv-x="515" 
d="M505 8v-8h-212v8q68 3 68 31q0 16 -11 32l-108 156l-98 -136q-24 -32 -24 -46q0 -16 18 -26t49 -11v-8h-177v8q29 2 52 17t48 49l123 167l-121 175q-41 60 -92 66v8h212v-8q-69 -3 -69 -31q0 -14 12 -32l95 -138l80 114q16 22 21.5 33t5.5 19q0 17 -16 25t-52 10v8h176
v-8q-29 -2 -53 -18t-47 -48l-106 -148l134 -194q41 -60 92 -66z" />
    <glyph glyph-name="y" unicode="y" horiz-adv-x="517" 
d="M41 -212q-14 3 -30 9v73h5q11 -9 31 -14.5t46 -5.5q50 0 85.5 22t60.5 79l10 23l-153 409q-18 50 -39 73.5t-52 25.5v8h214v-8q-40 -1 -56 -11.5t-16 -33.5q0 -17 13 -54l119 -329l132 324q11 27 11 48q0 51 -65 56v8h155v-8q-31 -8 -47 -27t-33 -70l-172 -426
q-35 -102 -82 -138t-103 -36q-20 0 -34 3z" />
    <glyph glyph-name="z" unicode="z" horiz-adv-x="443" 
d="M20 1l331 478h-115q-64 0 -100.5 -18.5t-55 -53t-33.5 -93.5h-5l27 176h354v-1l-331 -478h102q75 0 114.5 13.5t63 51.5t42.5 119h5l-28 -195h-371v1z" />
    <glyph glyph-name="agrave" unicode="&#xe0;" horiz-adv-x="509" 
d="M499 75q-25 -90 -97 -90q-33 0 -51 23t-18 61v22q-5 -24 -25 -48.5t-52.5 -41t-72.5 -16.5q-66 0 -102 33t-36 84q0 122 169 155l119 24v29q0 80 -30.5 117.5t-95.5 37.5q-55 0 -93 -33.5t-48 -93.5l-8 1q9 77 56.5 121.5t120.5 44.5q77 0 117.5 -45.5t40.5 -132.5v-253
q0 -29 10 -45.5t30 -16.5q41 0 59 64zM284 32.5q31 22.5 49 70.5v166l-92 -19q-81 -16 -105.5 -51t-24.5 -78q0 -45 24 -78t73 -33q45 0 76 22.5zM117 695v5h79l50 -150h-10z" />
    <glyph glyph-name="aacute" unicode="&#xe1;" horiz-adv-x="509" 
d="M499 75q-25 -90 -97 -90q-33 0 -51 23t-18 61v22q-5 -24 -25 -48.5t-52.5 -41t-72.5 -16.5q-66 0 -102 33t-36 84q0 122 169 155l119 24v29q0 80 -30.5 117.5t-95.5 37.5q-55 0 -93 -33.5t-48 -93.5l-8 1q9 77 56.5 121.5t120.5 44.5q77 0 117.5 -45.5t40.5 -132.5v-253
q0 -29 10 -45.5t30 -16.5q41 0 59 64zM284 32.5q31 22.5 49 70.5v166l-92 -19q-81 -16 -105.5 -51t-24.5 -78q0 -45 24 -78t73 -33q45 0 76 22.5zM236 550l50 150h79v-5l-119 -145h-10z" />
    <glyph glyph-name="acircumflex" unicode="&#xe2;" horiz-adv-x="509" 
d="M499 75q-25 -90 -97 -90q-33 0 -51 23t-18 61v22q-5 -24 -25 -48.5t-52.5 -41t-72.5 -16.5q-66 0 -102 33t-36 84q0 122 169 155l119 24v29q0 80 -30.5 117.5t-95.5 37.5q-55 0 -93 -33.5t-48 -93.5l-8 1q9 77 56.5 121.5t120.5 44.5q77 0 117.5 -45.5t40.5 -132.5v-253
q0 -29 10 -45.5t30 -16.5q41 0 59 64zM284 32.5q31 22.5 49 70.5v166l-92 -19q-81 -16 -105.5 -51t-24.5 -78q0 -45 24 -78t73 -33q45 0 76 22.5zM233 700h16l110 -164h-6l-112 104l-112 -104h-6z" />
    <glyph glyph-name="atilde" unicode="&#xe3;" horiz-adv-x="509" 
d="M499 75q-25 -90 -97 -90q-33 0 -51 23t-18 61v22q-5 -24 -25 -48.5t-52.5 -41t-72.5 -16.5q-66 0 -102 33t-36 84q0 122 169 155l119 24v29q0 80 -30.5 117.5t-95.5 37.5q-55 0 -93 -33.5t-48 -93.5l-8 1q9 77 56.5 121.5t120.5 44.5q77 0 117.5 -45.5t40.5 -132.5v-253
q0 -29 10 -45.5t30 -16.5q41 0 59 64zM284 32.5q31 22.5 49 70.5v166l-92 -19q-81 -16 -105.5 -51t-24.5 -78q0 -45 24 -78t73 -33q45 0 76 22.5zM264 587.5q-13 5.5 -34 17.5q-18 10 -29 15t-26 5q-23 0 -41.5 -12t-23.5 -40h-4q3 47 26 70.5t56 23.5q18 0 31 -5.5
t34 -17.5q18 -10 29 -15t26 -5q23 0 41.5 12t23.5 40h4q-3 -47 -26 -70.5t-56 -23.5q-18 0 -31 5.5z" />
    <glyph glyph-name="adieresis" unicode="&#xe4;" horiz-adv-x="509" 
d="M499 75q-25 -90 -97 -90q-33 0 -51 23t-18 61v22q-5 -24 -25 -48.5t-52.5 -41t-72.5 -16.5q-66 0 -102 33t-36 84q0 122 169 155l119 24v29q0 80 -30.5 117.5t-95.5 37.5q-55 0 -93 -33.5t-48 -93.5l-8 1q9 77 56.5 121.5t120.5 44.5q77 0 117.5 -45.5t40.5 -132.5v-253
q0 -29 10 -45.5t30 -16.5q41 0 59 64zM284 32.5q31 22.5 49 70.5v166l-92 -19q-81 -16 -105.5 -51t-24.5 -78q0 -45 24 -78t73 -33q45 0 76 22.5zM122.5 601q-13.5 13 -13.5 35t13.5 35t34.5 13t34.5 -13t13.5 -35t-13.5 -35t-34.5 -13t-34.5 13zM289.5 601
q-13.5 13 -13.5 35t13.5 35t34.5 13t34.5 -13t13.5 -35t-13.5 -35t-34.5 -13t-34.5 13z" />
    <glyph glyph-name="amacron" unicode="&#x101;" horiz-adv-x="509" 
d="M499 75q-25 -90 -97 -90q-33 0 -51 23t-18 61v22q-5 -24 -25 -48.5t-52.5 -41t-72.5 -16.5q-66 0 -102 33t-36 84q0 122 169 155l119 24v29q0 80 -30.5 117.5t-95.5 37.5q-55 0 -93 -33.5t-48 -93.5l-8 1q9 77 56.5 121.5t120.5 44.5q77 0 117.5 -45.5t40.5 -132.5v-253
q0 -29 10 -45.5t30 -16.5q41 0 59 64zM284 32.5q31 22.5 49 70.5v166l-92 -19q-81 -16 -105.5 -51t-24.5 -78q0 -45 24 -78t73 -33q45 0 76 22.5zM107 633h268v-25h-268v25z" />
    <glyph glyph-name="abreve" unicode="&#x103;" horiz-adv-x="509" 
d="M499 75q-25 -90 -97 -90q-33 0 -51 23t-18 61v22q-5 -24 -25 -48.5t-52.5 -41t-72.5 -16.5q-66 0 -102 33t-36 84q0 122 169 155l119 24v29q0 80 -30.5 117.5t-95.5 37.5q-55 0 -93 -33.5t-48 -93.5l-8 1q9 77 56.5 121.5t120.5 44.5q77 0 117.5 -45.5t40.5 -132.5v-253
q0 -29 10 -45.5t30 -16.5q41 0 59 64zM284 32.5q31 22.5 49 70.5v166l-92 -19q-81 -16 -105.5 -51t-24.5 -78q0 -45 24 -78t73 -33q45 0 76 22.5zM161.5 585q-30.5 38 -30.5 115h10q2 -51 30 -76.5t70 -25.5t70 25.5t30 76.5h10q0 -77 -30.5 -115t-79.5 -38t-79.5 38z" />
    <glyph glyph-name="aring" unicode="&#xe5;" horiz-adv-x="509" 
d="M499 75q-25 -90 -97 -90q-33 0 -51 23t-18 61v22q-5 -24 -25 -48.5t-52.5 -41t-72.5 -16.5q-66 0 -102 33t-36 84q0 122 169 155l119 24v29q0 80 -30.5 117.5t-95.5 37.5q-55 0 -93 -33.5t-48 -93.5l-8 1q9 77 56.5 121.5t120.5 44.5q77 0 117.5 -45.5t40.5 -132.5v-253
q0 -29 10 -45.5t30 -16.5q41 0 59 64zM284 32.5q31 22.5 49 70.5v166l-92 -19q-81 -16 -105.5 -51t-24.5 -78q0 -45 24 -78t73 -33q45 0 76 22.5zM173 570.5q-27 26.5 -27 66.5t27 66.5t68 26.5t68 -26.5t27 -66.5t-27 -66.5t-68 -26.5t-68 26.5zM293.5 583q20.5 20 20.5 54
t-20.5 54t-52.5 20t-52.5 -20t-20.5 -54t20.5 -54t52.5 -20t52.5 20z" />
    <glyph glyph-name="aogonek" unicode="&#x105;" horiz-adv-x="509" 
d="M454 -154.5q18 10.5 27 28.5l4 -2q-30 -82 -101 -82q-36 0 -56.5 20t-20.5 54q0 38 23 70t61 52q-28 4 -43 26t-15 57v22q-5 -24 -25 -48.5t-52.5 -41t-72.5 -16.5q-66 0 -102 33t-36 84q0 122 169 155l119 24v29q0 80 -30.5 117.5t-95.5 37.5q-55 0 -93 -33.5t-48 -93.5
l-8 1q9 77 56.5 121.5t120.5 44.5q77 0 117.5 -45.5t40.5 -132.5v-253q0 -29 10 -45.5t30 -16.5q41 0 59 64l7 -1q-24 -84 -86 -89q-28 -17 -43 -41.5t-15 -52.5t15.5 -42.5t43.5 -14.5q22 0 40 10.5zM284 32.5q31 22.5 49 70.5v166l-92 -19q-81 -16 -105.5 -51t-24.5 -78
q0 -45 24 -78t73 -33q45 0 76 22.5z" />
    <glyph glyph-name="ae" unicode="&#xe6;" horiz-adv-x="750" 
d="M715 141q-23 -82 -65 -117.5t-105 -35.5q-72 0 -117.5 41t-62.5 114q-17 -77 -62 -118t-115 -41q-67 0 -105 36t-38 95q0 73 62 121.5t195 48.5h43l-3 26q-10 79 -45.5 116.5t-95.5 37.5q-114 0 -135 -125l-5 1q9 77 57.5 120.5t117.5 43.5q63 0 105 -36.5t49 -103.5
q18 77 56.5 108.5t92.5 31.5q80 0 125.5 -58.5t49.5 -168.5h-316q0 -115 44 -180.5t127 -65.5q52 0 88 27.5t55 81.5h3zM435.5 441.5q-36.5 -53.5 -37.5 -156.5h243q0 110 -25.5 160t-82.5 50q-61 0 -97.5 -53.5zM310.5 50.5q37.5 40.5 50.5 114.5l-2 14l-13 99h-12
q-137 0 -180.5 -41.5t-43.5 -99.5q0 -62 29 -94.5t78 -32.5q56 0 93.5 40.5z" />
    <glyph glyph-name="aeacute" unicode="&#x1fd;" horiz-adv-x="750" 
d="M715 141q-23 -82 -65 -117.5t-105 -35.5q-72 0 -117.5 41t-62.5 114q-17 -77 -62 -118t-115 -41q-67 0 -105 36t-38 95q0 73 62 121.5t195 48.5h43l-3 26q-10 79 -45.5 116.5t-95.5 37.5q-114 0 -135 -125l-5 1q9 77 57.5 120.5t117.5 43.5q63 0 105 -36.5t49 -103.5
q18 77 56.5 108.5t92.5 31.5q80 0 125.5 -58.5t49.5 -168.5h-316q0 -115 44 -180.5t127 -65.5q52 0 88 27.5t55 81.5h3zM435.5 441.5q-36.5 -53.5 -37.5 -156.5h243q0 110 -25.5 160t-82.5 50q-61 0 -97.5 -53.5zM310.5 50.5q37.5 40.5 50.5 114.5l-2 14l-13 99h-12
q-137 0 -180.5 -41.5t-43.5 -99.5q0 -62 29 -94.5t78 -32.5q56 0 93.5 40.5zM370 550l50 150h79v-5l-119 -145h-10z" />
    <glyph glyph-name="cacute" unicode="&#x107;" horiz-adv-x="466" 
d="M136 15.5q-48 30.5 -74.5 87t-26.5 130.5q0 130 62 201t167 71q82 0 139 -26v-172h-8q-9 173 -149 173q-79 0 -123.5 -53.5t-44.5 -158.5q0 -62 24 -114t68 -82.5t100 -30.5t96.5 29t51.5 95l8 -2q-9 -84 -56.5 -131t-122.5 -47q-63 0 -111 30.5zM245 550l50 150h79v-5
l-119 -145h-10z" />
    <glyph glyph-name="ccircumflex" unicode="&#x109;" horiz-adv-x="466" 
d="M136 15.5q-48 30.5 -74.5 87t-26.5 130.5q0 130 62 201t167 71q82 0 139 -26v-172h-8q-9 173 -149 173q-79 0 -123.5 -53.5t-44.5 -158.5q0 -62 24 -114t68 -82.5t100 -30.5t96.5 29t51.5 95l8 -2q-9 -84 -56.5 -131t-122.5 -47q-63 0 -111 30.5zM242 700h16l110 -164h-6
l-112 104l-112 -104h-6z" />
    <glyph glyph-name="ccaron" unicode="&#x10d;" horiz-adv-x="466" 
d="M136 15.5q-48 30.5 -74.5 87t-26.5 130.5q0 130 62 201t167 71q82 0 139 -26v-172h-8q-9 173 -149 173q-79 0 -123.5 -53.5t-44.5 -158.5q0 -62 24 -114t68 -82.5t100 -30.5t96.5 29t51.5 95l8 -2q-9 -84 -56.5 -131t-122.5 -47q-63 0 -111 30.5zM132 700h6l112 -94
l112 94h6l-110 -154h-16z" />
    <glyph glyph-name="cdotaccent" unicode="&#x10b;" horiz-adv-x="466" 
d="M136 15.5q-48 30.5 -74.5 87t-26.5 130.5q0 130 62 201t167 71q82 0 139 -26v-172h-8q-9 173 -149 173q-79 0 -123.5 -53.5t-44.5 -158.5q0 -62 24 -114t68 -82.5t100 -30.5t96.5 29t51.5 95l8 -2q-9 -84 -56.5 -131t-122.5 -47q-63 0 -111 30.5zM215.5 602
q-13.5 14 -13.5 34t13.5 34t34.5 14t34.5 -14t13.5 -34t-13.5 -34t-34.5 -14t-34.5 14z" />
    <glyph glyph-name="ccedilla" unicode="&#xe7;" horiz-adv-x="466" 
d="M374.5 37.5q-43.5 -46.5 -112.5 -51.5l-35 -55q11 9 32 9q29 0 50 -20t21 -55t-22.5 -57.5t-55.5 -22.5q-28 0 -48 16t-26 43l6 3q7 -17 21 -26.5t31 -9.5q23 0 38 15t15 40q0 23 -13.5 36.5t-33.5 13.5q-12 0 -19.5 -2.5t-15.5 -10.5l-6 4l47 78h-1q-63 0 -111 30.5
t-74.5 87t-26.5 130.5q0 130 62 201t167 71q82 0 139 -26v-172h-8q-9 173 -149 173q-79 0 -123.5 -53.5t-44.5 -158.5q0 -62 24 -114t68 -82.5t100 -30.5t96.5 29t51.5 95l8 -2q-8 -79 -51.5 -125.5z" />
    <glyph glyph-name="dcaron" unicode="&#x10f;" horiz-adv-x="627" 
d="M465.5 25.5q17.5 -14.5 61.5 -16.5v-8h-139v81q-15 -38 -55.5 -67.5t-95.5 -29.5q-56 0 -102 29t-73 84t-27 130q0 87 33.5 150t88.5 95t121 32q57 0 110 -29v164q0 27 -9 38.5t-32 11.5q-14 0 -63 -9v8l164 41v-652q0 -38 17.5 -52.5zM486 538q63 26 63 67
q0 20 -8.5 27.5t-22.5 8.5q-17 1 -29 11.5t-12 28.5q0 16 12 27.5t29 11.5q24 0 41 -19t17 -55q0 -39 -19.5 -67.5t-68.5 -45.5zM343 40.5q30 19.5 45 57.5v299q-10 39 -43 67t-82 28q-75 0 -119 -63t-44 -183q0 -68 22 -119t61 -78.5t88 -27.5q42 0 72 19.5z" />
    <glyph glyph-name="dcroat" unicode="&#x111;" horiz-adv-x="547" 
d="M448 592v-514q0 -38 17.5 -52.5t61.5 -16.5v-8h-139v81q-15 -38 -55.5 -67.5t-95.5 -29.5q-56 0 -102 29t-73 84t-27 130q0 87 33.5 150t88.5 95t121 32q57 0 110 -29v116h-182v10h182v38q0 27 -9 38.5t-32 11.5q-14 0 -63 -9v8l164 41v-128h82v-10h-82zM388 397
q-10 39 -43 67t-82 28q-75 0 -119 -63t-44 -183q0 -68 22 -119t61 -78.5t88 -27.5q42 0 72 19.5t45 57.5v299z" />
    <glyph glyph-name="egrave" unicode="&#xe8;" horiz-adv-x="466" 
d="M431 173q-16 -93 -63 -140.5t-123 -47.5q-61 0 -108.5 29t-74.5 86t-27 137q0 121 55.5 194.5t158.5 73.5q58 0 98 -28t58.5 -75t15.5 -104h-344v-11q0 -75 23.5 -130.5t66.5 -85.5t98 -30q56 0 96.5 27.5t62.5 105.5zM123.5 440.5q-40.5 -48.5 -45.5 -129.5h273
q4 86 -32 132t-93 46q-62 0 -102.5 -48.5zM105 695v5h79l50 -150h-10z" />
    <glyph glyph-name="eacute" unicode="&#xe9;" horiz-adv-x="466" 
d="M431 173q-16 -93 -63 -140.5t-123 -47.5q-61 0 -108.5 29t-74.5 86t-27 137q0 121 55.5 194.5t158.5 73.5q58 0 98 -28t58.5 -75t15.5 -104h-344v-11q0 -75 23.5 -130.5t66.5 -85.5t98 -30q56 0 96.5 27.5t62.5 105.5zM123.5 440.5q-40.5 -48.5 -45.5 -129.5h273
q4 86 -32 132t-93 46q-62 0 -102.5 -48.5zM224 550l50 150h79v-5l-119 -145h-10z" />
    <glyph glyph-name="ecircumflex" unicode="&#xea;" horiz-adv-x="466" 
d="M431 173q-16 -93 -63 -140.5t-123 -47.5q-61 0 -108.5 29t-74.5 86t-27 137q0 121 55.5 194.5t158.5 73.5q58 0 98 -28t58.5 -75t15.5 -104h-344v-11q0 -75 23.5 -130.5t66.5 -85.5t98 -30q56 0 96.5 27.5t62.5 105.5zM123.5 440.5q-40.5 -48.5 -45.5 -129.5h273
q4 86 -32 132t-93 46q-62 0 -102.5 -48.5zM221 700h16l110 -164h-6l-112 104l-112 -104h-6z" />
    <glyph glyph-name="ecaron" unicode="&#x11b;" horiz-adv-x="466" 
d="M431 173q-16 -93 -63 -140.5t-123 -47.5q-61 0 -108.5 29t-74.5 86t-27 137q0 121 55.5 194.5t158.5 73.5q58 0 98 -28t58.5 -75t15.5 -104h-344v-11q0 -75 23.5 -130.5t66.5 -85.5t98 -30q56 0 96.5 27.5t62.5 105.5zM123.5 440.5q-40.5 -48.5 -45.5 -129.5h273
q4 86 -32 132t-93 46q-62 0 -102.5 -48.5zM111 700h6l112 -94l112 94h6l-110 -154h-16z" />
    <glyph glyph-name="edieresis" unicode="&#xeb;" horiz-adv-x="466" 
d="M431 173q-16 -93 -63 -140.5t-123 -47.5q-61 0 -108.5 29t-74.5 86t-27 137q0 121 55.5 194.5t158.5 73.5q58 0 98 -28t58.5 -75t15.5 -104h-344v-11q0 -75 23.5 -130.5t66.5 -85.5t98 -30q56 0 96.5 27.5t62.5 105.5zM123.5 440.5q-40.5 -48.5 -45.5 -129.5h273
q4 86 -32 132t-93 46q-62 0 -102.5 -48.5zM110.5 601q-13.5 13 -13.5 35t13.5 35t34.5 13t34.5 -13t13.5 -35t-13.5 -35t-34.5 -13t-34.5 13zM277.5 601q-13.5 13 -13.5 35t13.5 35t34.5 13t34.5 -13t13.5 -35t-13.5 -35t-34.5 -13t-34.5 13z" />
    <glyph glyph-name="emacron" unicode="&#x113;" horiz-adv-x="466" 
d="M431 173q-16 -93 -63 -140.5t-123 -47.5q-61 0 -108.5 29t-74.5 86t-27 137q0 121 55.5 194.5t158.5 73.5q58 0 98 -28t58.5 -75t15.5 -104h-344v-11q0 -75 23.5 -130.5t66.5 -85.5t98 -30q56 0 96.5 27.5t62.5 105.5zM123.5 440.5q-40.5 -48.5 -45.5 -129.5h273
q4 86 -32 132t-93 46q-62 0 -102.5 -48.5zM95 633h268v-25h-268v25z" />
    <glyph glyph-name="ebreve" unicode="&#x115;" horiz-adv-x="466" 
d="M431 173q-16 -93 -63 -140.5t-123 -47.5q-61 0 -108.5 29t-74.5 86t-27 137q0 121 55.5 194.5t158.5 73.5q58 0 98 -28t58.5 -75t15.5 -104h-344v-11q0 -75 23.5 -130.5t66.5 -85.5t98 -30q56 0 96.5 27.5t62.5 105.5zM123.5 440.5q-40.5 -48.5 -45.5 -129.5h273
q4 86 -32 132t-93 46q-62 0 -102.5 -48.5zM149.5 585q-30.5 38 -30.5 115h10q2 -51 30 -76.5t70 -25.5t70 25.5t30 76.5h10q0 -77 -30.5 -115t-79.5 -38t-79.5 38z" />
    <glyph glyph-name="edotaccent" unicode="&#x117;" horiz-adv-x="466" 
d="M431 173q-16 -93 -63 -140.5t-123 -47.5q-61 0 -108.5 29t-74.5 86t-27 137q0 121 55.5 194.5t158.5 73.5q58 0 98 -28t58.5 -75t15.5 -104h-344v-11q0 -75 23.5 -130.5t66.5 -85.5t98 -30q56 0 96.5 27.5t62.5 105.5zM123.5 440.5q-40.5 -48.5 -45.5 -129.5h273
q4 86 -32 132t-93 46q-62 0 -102.5 -48.5zM194.5 602q-13.5 14 -13.5 34t13.5 34t34.5 14t34.5 -14t13.5 -34t-13.5 -34t-34.5 -14t-34.5 14z" />
    <glyph glyph-name="eogonek" unicode="&#x119;" horiz-adv-x="466" 
d="M258.5 -42q-24.5 -29 -24.5 -66q0 -28 15.5 -42.5t43.5 -14.5q22 0 40 10.5t27 28.5l4 -2q-30 -82 -101 -82q-36 0 -56.5 20t-20.5 54q0 38 23.5 70.5t62.5 52.5q-16 -2 -27 -2q-61 0 -108.5 29t-74.5 86t-27 137q0 121 55.5 194.5t158.5 73.5q58 0 98 -28t58.5 -75
t15.5 -104h-344v-11q0 -75 23.5 -130.5t66.5 -85.5t98 -30q56 0 96.5 27.5t62.5 105.5l7 -1q-22 -131 -105 -171v-2q-43 -13 -67.5 -42zM123.5 440.5q-40.5 -48.5 -45.5 -129.5h273q4 86 -32 132t-93 46q-62 0 -102.5 -48.5z" />
    <glyph glyph-name="gcircumflex" unicode="&#x11d;" horiz-adv-x="492" 
d="M431 49.5q36 -24.5 36 -78.5q0 -55 -29.5 -97t-84 -65.5t-127.5 -23.5q-59 0 -105 16.5t-71 45.5t-25 67q0 87 115 116q-35 6 -55.5 27t-20.5 54q0 31 21.5 54.5t65.5 33.5q-40 20 -62.5 58t-22.5 85q0 46 21.5 83t61.5 58.5t93 21.5q45 0 79 -15h137v-10h-117
q37 -22 57 -58t20 -80q0 -46 -21.5 -83.5t-61.5 -59t-93 -21.5q-44 0 -80 15q-32 -5 -49.5 -18.5t-17.5 -36.5q0 -24 20 -35.5t64 -14.5l152 -10q64 -4 100 -28.5zM158.5 455q-31.5 -40 -31.5 -113t32 -113.5t83 -40.5t83 40.5t32 113.5q0 74 -32.5 113.5t-84.5 39.5
q-50 0 -81.5 -40zM360.5 -169q43.5 18 65 46.5t21.5 59.5q0 45 -24.5 60.5t-78.5 18.5l-187 12h-3q-40 -17 -56 -39t-16 -58q0 -54 47 -86t124 -32q64 0 107.5 18zM238 700h16l110 -164h-6l-112 104l-112 -104h-6z" />
    <glyph glyph-name="gbreve" unicode="&#x11f;" horiz-adv-x="492" 
d="M431 49.5q36 -24.5 36 -78.5q0 -55 -29.5 -97t-84 -65.5t-127.5 -23.5q-59 0 -105 16.5t-71 45.5t-25 67q0 87 115 116q-35 6 -55.5 27t-20.5 54q0 31 21.5 54.5t65.5 33.5q-40 20 -62.5 58t-22.5 85q0 46 21.5 83t61.5 58.5t93 21.5q45 0 79 -15h137v-10h-117
q37 -22 57 -58t20 -80q0 -46 -21.5 -83.5t-61.5 -59t-93 -21.5q-44 0 -80 15q-32 -5 -49.5 -18.5t-17.5 -36.5q0 -24 20 -35.5t64 -14.5l152 -10q64 -4 100 -28.5zM158.5 455q-31.5 -40 -31.5 -113t32 -113.5t83 -40.5t83 40.5t32 113.5q0 74 -32.5 113.5t-84.5 39.5
q-50 0 -81.5 -40zM360.5 -169q43.5 18 65 46.5t21.5 59.5q0 45 -24.5 60.5t-78.5 18.5l-187 12h-3q-40 -17 -56 -39t-16 -58q0 -54 47 -86t124 -32q64 0 107.5 18zM166.5 585q-30.5 38 -30.5 115h10q2 -51 30 -76.5t70 -25.5t70 25.5t30 76.5h10q0 -77 -30.5 -115t-79.5 -38
t-79.5 38z" />
    <glyph glyph-name="gdotaccent" unicode="&#x121;" horiz-adv-x="492" 
d="M431 49.5q36 -24.5 36 -78.5q0 -55 -29.5 -97t-84 -65.5t-127.5 -23.5q-59 0 -105 16.5t-71 45.5t-25 67q0 87 115 116q-35 6 -55.5 27t-20.5 54q0 31 21.5 54.5t65.5 33.5q-40 20 -62.5 58t-22.5 85q0 46 21.5 83t61.5 58.5t93 21.5q45 0 79 -15h137v-10h-117
q37 -22 57 -58t20 -80q0 -46 -21.5 -83.5t-61.5 -59t-93 -21.5q-44 0 -80 15q-32 -5 -49.5 -18.5t-17.5 -36.5q0 -24 20 -35.5t64 -14.5l152 -10q64 -4 100 -28.5zM158.5 455q-31.5 -40 -31.5 -113t32 -113.5t83 -40.5t83 40.5t32 113.5q0 74 -32.5 113.5t-84.5 39.5
q-50 0 -81.5 -40zM360.5 -169q43.5 18 65 46.5t21.5 59.5q0 45 -24.5 60.5t-78.5 18.5l-187 12h-3q-40 -17 -56 -39t-16 -58q0 -54 47 -86t124 -32q64 0 107.5 18zM211.5 602q-13.5 14 -13.5 34t13.5 34t34.5 14t34.5 -14t13.5 -34t-13.5 -34t-34.5 -14t-34.5 14z" />
    <glyph glyph-name="uni0123" unicode="&#x123;" horiz-adv-x="492" 
d="M431 49.5q36 -24.5 36 -78.5q0 -55 -29.5 -97t-84 -65.5t-127.5 -23.5q-59 0 -105 16.5t-71 45.5t-25 67q0 87 115 116q-35 6 -55.5 27t-20.5 54q0 31 21.5 54.5t65.5 33.5q-40 20 -62.5 58t-22.5 85q0 46 21.5 83t61.5 58.5t93 21.5q45 0 79 -15h137v-10h-117
q37 -22 57 -58t20 -80q0 -46 -21.5 -83.5t-61.5 -59t-93 -21.5q-44 0 -80 15q-32 -5 -49.5 -18.5t-17.5 -36.5q0 -24 20 -35.5t64 -14.5l152 -10q64 -4 100 -28.5zM158.5 455q-31.5 -40 -31.5 -113t32 -113.5t83 -40.5t83 40.5t32 113.5q0 74 -32.5 113.5t-84.5 39.5
q-50 0 -81.5 -40zM360.5 -169q43.5 18 65 46.5t21.5 59.5q0 45 -24.5 60.5t-78.5 18.5l-187 12h-3q-40 -17 -56 -39t-16 -58q0 -54 47 -86t124 -32q64 0 107.5 18zM271 694q-47 -16 -47 -44q0 -17 27 -23q19 -4 27.5 -13.5t8.5 -25.5q0 -17 -11 -27.5t-28 -10.5
q-22 0 -35.5 19.5t-13.5 49.5q0 33 16.5 54t52.5 33z" />
    <glyph glyph-name="hcircumflex" unicode="&#x125;" horiz-adv-x="568" 
d="M5 730l121 130h6l121 -130h-3l-121 80l-121 -80h-3zM20 8q33 2 49 6t23 13t7 29v574q0 36 -8 48.5t-31 12.5q-19 0 -40 -4v8l139 35v-341q11 48 55.5 82t106.5 34q77 0 112.5 -44t35.5 -120v-285q0 -20 7 -29t23 -13t49 -6v-8h-218v8q33 2 49 6t23 13t7 29v267
q0 76 -30.5 115t-91.5 39q-51 0 -82.5 -28.5t-45.5 -71.5v-321q0 -20 7 -29t23 -13t49 -6v-8h-218v8z" />
    <glyph glyph-name="hbar" unicode="&#x127;" horiz-adv-x="568" 
d="M476 27q7 -9 23 -13t49 -6v-8h-218v8q33 2 49 6t23 13t7 29v267q0 76 -30.5 115t-91.5 39q-51 0 -82.5 -28.5t-45.5 -71.5v-321q0 -20 7 -29t23 -13t49 -6v-8h-218v8q33 2 49 6t23 13t7 29v537h-78v10h78v27q0 36 -8 48.5t-31 12.5q-19 0 -40 -4v8l139 35v-127h186v-10
h-186v-204q11 48 55.5 82t106.5 34q77 0 112.5 -44t35.5 -120v-285q0 -20 7 -29z" />
    <glyph glyph-name="igrave" unicode="&#xec;" horiz-adv-x="263" 
d="M171 27q7 -9 23 -13t49 -6v-8h-218v8q33 2 49 6t23 13t7 29v339q0 36 -8 48.5t-31 12.5q-19 0 -40 -4v8l139 35v-439q0 -20 7 -29zM4 695v5h79l50 -150h-10z" />
    <glyph glyph-name="iacute" unicode="&#xed;" horiz-adv-x="263" 
d="M171 27q7 -9 23 -13t49 -6v-8h-218v8q33 2 49 6t23 13t7 29v339q0 36 -8 48.5t-31 12.5q-19 0 -40 -4v8l139 35v-439q0 -20 7 -29zM123 550l50 150h79v-5l-119 -145h-10z" />
    <glyph glyph-name="icircumflex" unicode="&#xee;" horiz-adv-x="263" 
d="M171 27q7 -9 23 -13t49 -6v-8h-218v8q33 2 49 6t23 13t7 29v339q0 36 -8 48.5t-31 12.5q-19 0 -40 -4v8l139 35v-439q0 -20 7 -29zM120 700h16l110 -164h-6l-112 104l-112 -104h-6z" />
    <glyph glyph-name="itilde" unicode="&#x129;" horiz-adv-x="263" 
d="M171 27q7 -9 23 -13t49 -6v-8h-218v8q33 2 49 6t23 13t7 29v339q0 36 -8 48.5t-31 12.5q-19 0 -40 -4v8l139 35v-439q0 -20 7 -29zM151 587.5q-13 5.5 -34 17.5q-18 10 -29 15t-26 5q-23 0 -41.5 -12t-23.5 -40h-4q3 47 26 70.5t56 23.5q18 0 31 -5.5t34 -17.5
q18 -10 29 -15t26 -5q23 0 41.5 12t23.5 40h4q-3 -47 -26 -70.5t-56 -23.5q-18 0 -31 5.5z" />
    <glyph glyph-name="idieresis" unicode="&#xef;" horiz-adv-x="263" 
d="M171 27q7 -9 23 -13t49 -6v-8h-218v8q33 2 49 6t23 13t7 29v339q0 36 -8 48.5t-31 12.5q-19 0 -40 -4v8l139 35v-439q0 -20 7 -29zM9.5 601q-13.5 13 -13.5 35t13.5 35t34.5 13t34.5 -13t13.5 -35t-13.5 -35t-34.5 -13t-34.5 13zM176.5 601q-13.5 13 -13.5 35t13.5 35
t34.5 13t34.5 -13t13.5 -35t-13.5 -35t-34.5 -13t-34.5 13z" />
    <glyph glyph-name="imacron" unicode="&#x12b;" horiz-adv-x="263" 
d="M171 27q7 -9 23 -13t49 -6v-8h-218v8q33 2 49 6t23 13t7 29v339q0 36 -8 48.5t-31 12.5q-19 0 -40 -4v8l139 35v-439q0 -20 7 -29zM-6 633h268v-25h-268v25z" />
    <glyph glyph-name="ibreve" unicode="&#x12d;" horiz-adv-x="263" 
d="M171 27q7 -9 23 -13t49 -6v-8h-218v8q33 2 49 6t23 13t7 29v339q0 36 -8 48.5t-31 12.5q-19 0 -40 -4v8l139 35v-439q0 -20 7 -29zM48.5 585q-30.5 38 -30.5 115h10q2 -51 30 -76.5t70 -25.5t70 25.5t30 76.5h10q0 -77 -30.5 -115t-79.5 -38t-79.5 38z" />
    <glyph glyph-name="iogonek" unicode="&#x12f;" horiz-adv-x="263" 
d="M93.5 602q-13.5 14 -13.5 34t13.5 34t34.5 14t34.5 -14t13.5 -34t-13.5 -34t-34.5 -14t-34.5 14zM105.5 -42q-24.5 -29 -24.5 -66q0 -28 15.5 -42.5t43.5 -14.5q22 0 40 10.5t27 28.5l4 -2q-30 -82 -101 -82q-36 0 -56.5 20t-20.5 54q0 46 33 82.5t85 53.5h-126v8
q33 2 49 6t23 13t7 29v339q0 36 -8 48.5t-31 12.5q-19 0 -40 -4v8l139 35v-439q0 -20 7 -29t23 -13t49 -6v-8h-70q-43 -13 -67.5 -42z" />
    <glyph glyph-name="dotlessi" unicode="&#x131;" horiz-adv-x="263" 
d="M171 27q7 -9 23 -13t49 -6v-8h-218v8q33 2 49 6t23 13t7 29v339q0 36 -8 48.5t-31 12.5q-19 0 -40 -4v8l139 35v-439q0 -20 7 -29z" />
    <glyph glyph-name="ij" unicode="&#x133;" horiz-adv-x="500" 
d="M93.5 602q-13.5 14 -13.5 34q0 21 13.5 34.5t34.5 13.5t34.5 -14t13.5 -34t-13.5 -34t-34.5 -14t-34.5 14zM171 27q7 -9 23 -13t49 -6v-8h-218v8q33 2 49 6t23 13t7 29v339q0 36 -8 48.5t-31 12.5q-19 0 -40 -4v8l139 35v-439q0 -20 7 -29zM344.5 602q-13.5 14 -13.5 34
q0 21 13.5 34.5t34.5 13.5t34.5 -14t13.5 -34t-13.5 -34t-34.5 -14t-34.5 14zM238 -206v3q12 -3 26 -3q48 0 69.5 31.5t21.5 100.5v469q0 36 -8 48.5t-31 12.5q-19 0 -40 -4v8l139 35v-563q0 -71 -29.5 -109t-87.5 -38q-37 0 -60 9z" />
    <glyph glyph-name="jcircumflex" unicode="&#x135;" horiz-adv-x="237" 
d="M-25 -206v3q12 -3 26 -3q48 0 69.5 31.5t21.5 100.5v469q0 36 -8 48.5t-31 12.5q-19 0 -40 -4v8l139 35v-563q0 -71 -29.5 -109t-87.5 -38q-37 0 -60 9zM108 700h16l110 -164h-6l-112 104l-112 -104h-6z" />
    <glyph glyph-name="uni0237" unicode="&#x237;" horiz-adv-x="237" 
d="M-25 -206v3q12 -3 26 -3q48 0 69.5 31.5t21.5 100.5v469q0 36 -8 48.5t-31 12.5q-19 0 -40 -4v8l139 35v-563q0 -71 -29.5 -109t-87.5 -38q-37 0 -60 9z" />
    <glyph glyph-name="uni0137" unicode="&#x137;" horiz-adv-x="527" 
d="M20 8q33 2 49 6t23 13t7 29v574q0 36 -8 48.5t-31 12.5q-19 0 -40 -4v8l139 35v-674q0 -20 7 -29t23 -13t49 -6v-8h-218v8zM164 263l165 135q28 23 37.5 35.5t9.5 22.5q0 11 -12.5 18.5t-38.5 8.5v7h165v-7q-53 -9 -114 -60l-157 -132l195 -208q38 -41 61 -57.5t47 -18.5
v-7h-114zM237 -199q56 20 56 49q0 27 -40 33q-17 2 -27 13t-10 28q0 20 12.5 31.5t33.5 11.5q23 0 41 -23.5t18 -53.5q0 -75 -82 -99z" />
    <glyph glyph-name="lacute" unicode="&#x13a;" horiz-adv-x="258" 
d="M123 740l76 120h82v-5l-154 -115h-4zM166 27q7 -9 23 -13t49 -6v-8h-218v8q33 2 49 6t23 13t7 29v574q0 36 -8 48.5t-31 12.5q-19 0 -40 -4v8l139 35v-674q0 -20 7 -29z" />
    <glyph glyph-name="lcaron" unicode="&#x13e;" horiz-adv-x="338" 
d="M166 27q7 -9 23 -13t49 -6v-8h-218v8q33 2 49 6t23 13t7 29v574q0 36 -8 48.5t-31 12.5q-19 0 -40 -4v8l139 35v-674q0 -20 7 -29zM199 528q63 26 63 67q0 20 -8.5 27.5t-22.5 8.5q-17 1 -29 11.5t-12 28.5q0 16 12 27.5t29 11.5q24 0 41 -19t17 -55q0 -39 -19.5 -67.5
t-68.5 -45.5z" />
    <glyph glyph-name="uni013C" unicode="&#x13c;" horiz-adv-x="258" 
d="M166 27q7 -9 23 -13t49 -6v-8h-218v8q33 2 49 6t23 13t7 29v574q0 36 -8 48.5t-31 12.5q-19 0 -40 -4v8l139 35v-674q0 -20 7 -29zM100 -199q56 20 56 49q0 27 -40 33q-17 2 -27 13t-10 28q0 20 12.5 31.5t33.5 11.5q23 0 41 -23.5t18 -53.5q0 -75 -82 -99z" />
    <glyph glyph-name="lslash" unicode="&#x142;" horiz-adv-x="258" 
d="M166 27q7 -9 23 -13t49 -6v-8h-218v8q33 2 49 6t23 13t7 29v300l-56 -52v13l56 52v261q0 36 -8 48.5t-31 12.5q-19 0 -40 -4v8l139 35v-305l67 62v-13l-67 -62v-356q0 -20 7 -29z" />
    <glyph glyph-name="ldot" unicode="&#x140;" horiz-adv-x="278" 
d="M166 27q7 -9 23 -13t49 -6v-8h-218v8q33 2 49 6t23 13t7 29v574q0 36 -8 48.5t-31 12.5q-19 0 -40 -4v8l139 35v-674q0 -20 7 -29zM234 362.5q-14 14.5 -14 35.5t14 35.5t36 14.5t36 -14.5t14 -35.5t-14 -35.5t-36 -14.5t-36 14.5z" />
    <glyph glyph-name="nacute" unicode="&#x144;" horiz-adv-x="573" 
d="M481 27q7 -9 23 -13t49 -6v-8h-218v8q33 2 49 6t23 13t7 29v264q0 78 -29 117.5t-91 39.5q-50 0 -83.5 -29t-46.5 -71v-321q0 -20 7 -29t23 -13t49 -6v-8h-218v8q33 2 49 6t23 13t7 29v344q0 36 -8 48.5t-31 12.5q-19 0 -40 -4v8l139 35v-113q11 49 56 83.5t106 34.5
q76 0 112 -45t36 -122v-282q0 -20 7 -29zM283 550l50 150h79v-5l-119 -145h-10z" />
    <glyph glyph-name="ncaron" unicode="&#x148;" horiz-adv-x="573" 
d="M481 27q7 -9 23 -13t49 -6v-8h-218v8q33 2 49 6t23 13t7 29v264q0 78 -29 117.5t-91 39.5q-50 0 -83.5 -29t-46.5 -71v-321q0 -20 7 -29t23 -13t49 -6v-8h-218v8q33 2 49 6t23 13t7 29v344q0 36 -8 48.5t-31 12.5q-19 0 -40 -4v8l139 35v-113q11 49 56 83.5t106 34.5
q76 0 112 -45t36 -122v-282q0 -20 7 -29zM170 700h6l112 -94l112 94h6l-110 -154h-16z" />
    <glyph glyph-name="ntilde" unicode="&#xf1;" horiz-adv-x="573" 
d="M481 27q7 -9 23 -13t49 -6v-8h-218v8q33 2 49 6t23 13t7 29v264q0 78 -29 117.5t-91 39.5q-50 0 -83.5 -29t-46.5 -71v-321q0 -20 7 -29t23 -13t49 -6v-8h-218v8q33 2 49 6t23 13t7 29v344q0 36 -8 48.5t-31 12.5q-19 0 -40 -4v8l139 35v-113q11 49 56 83.5t106 34.5
q76 0 112 -45t36 -122v-282q0 -20 7 -29zM311 587.5q-13 5.5 -34 17.5q-18 10 -29 15t-26 5q-23 0 -41.5 -12t-23.5 -40h-4q3 47 26 70.5t56 23.5q18 0 31 -5.5t34 -17.5q18 -10 29 -15t26 -5q23 0 41.5 12t23.5 40h4q-3 -47 -26 -70.5t-56 -23.5q-18 0 -31 5.5z" />
    <glyph glyph-name="uni0146" unicode="&#x146;" horiz-adv-x="573" 
d="M481 27q7 -9 23 -13t49 -6v-8h-218v8q33 2 49 6t23 13t7 29v264q0 78 -29 117.5t-91 39.5q-50 0 -83.5 -29t-46.5 -71v-321q0 -20 7 -29t23 -13t49 -6v-8h-218v8q33 2 49 6t23 13t7 29v344q0 36 -8 48.5t-31 12.5q-19 0 -40 -4v8l139 35v-113q11 49 56 83.5t106 34.5
q76 0 112 -45t36 -122v-282q0 -20 7 -29zM263 -199q56 20 56 49q0 27 -40 33q-17 2 -27 13t-10 28q0 20 12.5 31.5t33.5 11.5q23 0 41 -23.5t18 -53.5q0 -75 -82 -99z" />
    <glyph glyph-name="napostrophe" unicode="&#x149;" horiz-adv-x="573" 
d="M19 538q63 26 63 67q0 20 -8.5 27.5t-22.5 8.5q-17 1 -29 11.5t-12 28.5q0 16 12 27.5t29 11.5q24 0 41 -19t17 -55q0 -39 -19.5 -67.5t-68.5 -45.5zM481 27q7 -9 23 -13t49 -6v-8h-218v8q33 2 49 6t23 13t7 29v264q0 78 -29 117.5t-91 39.5q-50 0 -83.5 -29t-46.5 -71
v-321q0 -20 7 -29t23 -13t49 -6v-8h-218v8q33 2 49 6t23 13t7 29v344q0 36 -8 48.5t-31 12.5q-19 0 -40 -4v8l139 35v-113q11 49 56 83.5t106 34.5q76 0 112 -45t36 -122v-282q0 -20 7 -29z" />
    <glyph glyph-name="ograve" unicode="&#xf2;" horiz-adv-x="528" 
d="M141 19q-52 34 -79 93t-27 133t27 133t79 93t123 34t123 -34t79 -93t27 -133t-27 -133t-79 -93t-123 -34t-123 34zM386.5 64.5q39.5 64.5 39.5 180.5t-39.5 180.5t-122.5 64.5t-122.5 -64.5t-39.5 -180.5t39.5 -180.5t122.5 -64.5t122.5 64.5zM140 695v5h79l50 -150h-10z
" />
    <glyph glyph-name="oacute" unicode="&#xf3;" horiz-adv-x="528" 
d="M141 19q-52 34 -79 93t-27 133t27 133t79 93t123 34t123 -34t79 -93t27 -133t-27 -133t-79 -93t-123 -34t-123 34zM386.5 64.5q39.5 64.5 39.5 180.5t-39.5 180.5t-122.5 64.5t-122.5 -64.5t-39.5 -180.5t39.5 -180.5t122.5 -64.5t122.5 64.5zM259 550l50 150h79v-5
l-119 -145h-10z" />
    <glyph glyph-name="ocircumflex" unicode="&#xf4;" horiz-adv-x="528" 
d="M141 19q-52 34 -79 93t-27 133t27 133t79 93t123 34t123 -34t79 -93t27 -133t-27 -133t-79 -93t-123 -34t-123 34zM386.5 64.5q39.5 64.5 39.5 180.5t-39.5 180.5t-122.5 64.5t-122.5 -64.5t-39.5 -180.5t39.5 -180.5t122.5 -64.5t122.5 64.5zM256 700h16l110 -164h-6
l-112 104l-112 -104h-6z" />
    <glyph glyph-name="otilde" unicode="&#xf5;" horiz-adv-x="528" 
d="M141 19q-52 34 -79 93t-27 133t27 133t79 93t123 34t123 -34t79 -93t27 -133t-27 -133t-79 -93t-123 -34t-123 34zM386.5 64.5q39.5 64.5 39.5 180.5t-39.5 180.5t-122.5 64.5t-122.5 -64.5t-39.5 -180.5t39.5 -180.5t122.5 -64.5t122.5 64.5zM287 587.5
q-13 5.5 -34 17.5q-18 10 -29 15t-26 5q-23 0 -41.5 -12t-23.5 -40h-4q3 47 26 70.5t56 23.5q18 0 31 -5.5t34 -17.5q18 -10 29 -15t26 -5q23 0 41.5 12t23.5 40h4q-3 -47 -26 -70.5t-56 -23.5q-18 0 -31 5.5z" />
    <glyph glyph-name="odieresis" unicode="&#xf6;" horiz-adv-x="528" 
d="M141 19q-52 34 -79 93t-27 133t27 133t79 93t123 34t123 -34t79 -93t27 -133t-27 -133t-79 -93t-123 -34t-123 34zM386.5 64.5q39.5 64.5 39.5 180.5t-39.5 180.5t-122.5 64.5t-122.5 -64.5t-39.5 -180.5t39.5 -180.5t122.5 -64.5t122.5 64.5zM145.5 601
q-13.5 13 -13.5 35t13.5 35t34.5 13t34.5 -13t13.5 -35t-13.5 -35t-34.5 -13t-34.5 13zM312.5 601q-13.5 13 -13.5 35t13.5 35t34.5 13t34.5 -13t13.5 -35t-13.5 -35t-34.5 -13t-34.5 13z" />
    <glyph glyph-name="omacron" unicode="&#x14d;" horiz-adv-x="528" 
d="M141 19q-52 34 -79 93t-27 133t27 133t79 93t123 34t123 -34t79 -93t27 -133t-27 -133t-79 -93t-123 -34t-123 34zM386.5 64.5q39.5 64.5 39.5 180.5t-39.5 180.5t-122.5 64.5t-122.5 -64.5t-39.5 -180.5t39.5 -180.5t122.5 -64.5t122.5 64.5zM130 633h268v-25h-268v25z
" />
    <glyph glyph-name="obreve" unicode="&#x14f;" horiz-adv-x="528" 
d="M141 19q-52 34 -79 93t-27 133t27 133t79 93t123 34t123 -34t79 -93t27 -133t-27 -133t-79 -93t-123 -34t-123 34zM386.5 64.5q39.5 64.5 39.5 180.5t-39.5 180.5t-122.5 64.5t-122.5 -64.5t-39.5 -180.5t39.5 -180.5t122.5 -64.5t122.5 64.5zM184.5 585
q-30.5 38 -30.5 115h10q2 -51 30 -76.5t70 -25.5t70 25.5t30 76.5h10q0 -77 -30.5 -115t-79.5 -38t-79.5 38z" />
    <glyph glyph-name="ohungarumlaut" unicode="&#x151;" horiz-adv-x="528" 
d="M141 19q-52 34 -79 93t-27 133t27 133t79 93t123 34t123 -34t79 -93t27 -133t-27 -133t-79 -93t-123 -34t-123 34zM386.5 64.5q39.5 64.5 39.5 180.5t-39.5 180.5t-122.5 64.5t-122.5 -64.5t-39.5 -180.5t39.5 -180.5t122.5 -64.5t122.5 64.5zM308 700h62v-5l-156 -140
h-8zM443 700h67v-5l-168 -140h-8z" />
    <glyph glyph-name="oslash" unicode="&#xf8;" horiz-adv-x="528" 
d="M473 360.5q20 -52.5 20 -115.5q0 -74 -27 -133t-79 -93t-123 -34q-83 0 -140 46l-36 -51h-19l43 62q-37 35 -57 87.5t-20 115.5q0 74 27 133t79 93t123 34q83 0 140 -46l36 51h20l-44 -62q37 -35 57 -87.5zM135 75l249 355q-41 60 -120 60q-83 0 -122.5 -64.5
t-39.5 -180.5q0 -110 33 -170zM386.5 64.5q39.5 64.5 39.5 180.5q0 108 -33 170l-249 -355q41 -60 120 -60q83 0 122.5 64.5z" />
    <glyph glyph-name="oslashacute" unicode="&#x1ff;" horiz-adv-x="528" 
d="M473 360.5q20 -52.5 20 -115.5q0 -74 -27 -133t-79 -93t-123 -34q-83 0 -140 46l-36 -51h-19l43 62q-37 35 -57 87.5t-20 115.5q0 74 27 133t79 93t123 34q83 0 140 -46l36 51h20l-44 -62q37 -35 57 -87.5zM135 75l249 355q-41 60 -120 60q-83 0 -122.5 -64.5
t-39.5 -180.5q0 -110 33 -170zM386.5 64.5q39.5 64.5 39.5 180.5q0 108 -33 170l-249 -355q41 -60 120 -60q83 0 122.5 64.5zM230 550l50 150h79v-5l-119 -145h-10z" />
    <glyph glyph-name="oe" unicode="&#x153;" horiz-adv-x="861" 
d="M826 173q-16 -93 -63 -140.5t-123 -47.5q-64 0 -112.5 31.5t-74.5 90.5q-26 -57 -76 -89.5t-118 -32.5q-70 0 -120.5 34t-77 93t-26.5 133t26.5 133t77 93t120.5 34q69 0 119.5 -33.5t76.5 -92.5q25 60 73 93t116 33q58 0 98 -28t58.5 -75t15.5 -104h-344v-11
q0 -75 23.5 -130.5t66.5 -85.5t98 -30q56 0 96.5 27.5t62.5 105.5zM377.5 64.5q38.5 64.5 38.5 180.5t-38.5 180.5t-118.5 64.5t-118.5 -64.5t-38.5 -180.5t38.5 -180.5t118.5 -64.5t118.5 64.5zM518.5 440.5q-40.5 -48.5 -45.5 -129.5h273q4 86 -32 132t-93 46
q-62 0 -102.5 -48.5z" />
    <glyph glyph-name="racute" unicode="&#x155;" horiz-adv-x="331" 
d="M316 505v-66h-5q-12 5 -37 5q-53 0 -81.5 -43t-28.5 -144v-201q0 -19 6.5 -28t26.5 -13.5t66 -6.5v-8h-238v8q33 2 49 6t23 13t7 29v344q0 36 -8 48.5t-31 12.5q-19 0 -40 -4v8l137 35v-177h2q8 89 45.5 135.5t103.5 46.5h3zM209 550l50 150h79v-5l-119 -145h-10z" />
    <glyph glyph-name="rcaron" unicode="&#x159;" horiz-adv-x="331" 
d="M316 505v-66h-5q-12 5 -37 5q-53 0 -81.5 -43t-28.5 -144v-201q0 -19 6.5 -28t26.5 -13.5t66 -6.5v-8h-238v8q33 2 49 6t23 13t7 29v344q0 36 -8 48.5t-31 12.5q-19 0 -40 -4v8l137 35v-177h2q8 89 45.5 135.5t103.5 46.5h3zM96 700h6l112 -94l112 94h6l-110 -154h-16z
" />
    <glyph glyph-name="uni0157" unicode="&#x157;" horiz-adv-x="331" 
d="M316 505v-66h-5q-12 5 -37 5q-53 0 -81.5 -43t-28.5 -144v-201q0 -19 6.5 -28t26.5 -13.5t66 -6.5v-8h-238v8q33 2 49 6t23 13t7 29v344q0 36 -8 48.5t-31 12.5q-19 0 -40 -4v8l137 35v-177h2q8 89 45.5 135.5t103.5 46.5h3zM111 -199q56 20 56 49q0 27 -40 33
q-17 2 -27 13t-10 28q0 20 12.5 31.5t33.5 11.5q23 0 41 -23.5t18 -53.5q0 -75 -82 -99z" />
    <glyph glyph-name="sacute" unicode="&#x15b;" horiz-adv-x="412" 
d="M117.5 -5.5q-42.5 9.5 -72.5 25.5v158h9q4 -81 49 -127t113 -46q53 0 84 27.5t31 72.5q0 38 -25 61.5t-78 43.5l-87 32q-93 34 -93 124q0 64 44.5 101.5t124.5 37.5q34 0 72 -6.5t60 -16.5v-145h-9q-4 76 -40.5 113t-99.5 37q-55 0 -83 -25t-28 -66q0 -32 20 -56t65 -41
l90 -33q54 -20 81 -49.5t27 -80.5q0 -70 -48.5 -110.5t-125.5 -40.5q-38 0 -80.5 9.5zM214 550l50 150h79v-5l-119 -145h-10z" />
    <glyph glyph-name="scircumflex" unicode="&#x15d;" horiz-adv-x="412" 
d="M117.5 -5.5q-42.5 9.5 -72.5 25.5v158h9q4 -81 49 -127t113 -46q53 0 84 27.5t31 72.5q0 38 -25 61.5t-78 43.5l-87 32q-93 34 -93 124q0 64 44.5 101.5t124.5 37.5q34 0 72 -6.5t60 -16.5v-145h-9q-4 76 -40.5 113t-99.5 37q-55 0 -83 -25t-28 -66q0 -32 20 -56t65 -41
l90 -33q54 -20 81 -49.5t27 -80.5q0 -70 -48.5 -110.5t-125.5 -40.5q-38 0 -80.5 9.5zM211 700h16l110 -164h-6l-112 104l-112 -104h-6z" />
    <glyph glyph-name="scaron" unicode="&#x161;" horiz-adv-x="412" 
d="M117.5 -5.5q-42.5 9.5 -72.5 25.5v158h9q4 -81 49 -127t113 -46q53 0 84 27.5t31 72.5q0 38 -25 61.5t-78 43.5l-87 32q-93 34 -93 124q0 64 44.5 101.5t124.5 37.5q34 0 72 -6.5t60 -16.5v-145h-9q-4 76 -40.5 113t-99.5 37q-55 0 -83 -25t-28 -66q0 -32 20 -56t65 -41
l90 -33q54 -20 81 -49.5t27 -80.5q0 -70 -48.5 -110.5t-125.5 -40.5q-38 0 -80.5 9.5zM101 700h6l112 -94l112 94h6l-110 -154h-16z" />
    <glyph glyph-name="scedilla" unicode="&#x15f;" horiz-adv-x="412" 
d="M333 34q-39 -39 -104 -47l-36 -56q11 9 32 9q29 0 50 -20t21 -55t-22.5 -57.5t-55.5 -22.5q-28 0 -48 16t-26 43l6 3q7 -17 21 -26.5t31 -9.5q23 0 38 15t15 40q0 23 -13.5 36.5t-33.5 13.5q-12 0 -19.5 -2.5t-15.5 -10.5l-6 4l47 78h-16q-38 0 -80.5 9.5t-72.5 25.5v158
h9q4 -81 49 -127t113 -46q53 0 84 27.5t31 72.5q0 38 -25 61.5t-78 43.5l-87 32q-93 34 -93 124q0 64 44.5 101.5t124.5 37.5q34 0 72 -6.5t60 -16.5v-145h-9q-4 76 -40.5 113t-99.5 37q-55 0 -83 -25t-28 -66q0 -32 20 -56t65 -41l90 -33q54 -20 81 -49.5t27 -80.5
q0 -63 -39 -102z" />
    <glyph glyph-name="uni0219" unicode="&#x219;" horiz-adv-x="412" 
d="M117.5 -5.5q-42.5 9.5 -72.5 25.5v158h9q4 -81 49 -127t113 -46q53 0 84 27.5t31 72.5q0 38 -25 61.5t-78 43.5l-87 32q-93 34 -93 124q0 64 44.5 101.5t124.5 37.5q34 0 72 -6.5t60 -16.5v-145h-9q-4 76 -40.5 113t-99.5 37q-55 0 -83 -25t-28 -66q0 -32 20 -56t65 -41
l90 -33q54 -20 81 -49.5t27 -80.5q0 -70 -48.5 -110.5t-125.5 -40.5q-38 0 -80.5 9.5zM205 -199q56 20 56 49q0 27 -40 33q-17 2 -27 13t-10 28q0 20 12.5 31.5t33.5 11.5q23 0 41 -23.5t18 -53.5q0 -75 -82 -99z" />
    <glyph glyph-name="tcaron" unicode="&#x165;" horiz-adv-x="313" 
d="M203 652.5q-12 10.5 -12 28.5q0 16 12 27.5t29 11.5q24 0 41 -19t17 -55q0 -39 -19.5 -67.5t-68.5 -45.5l-2 5q63 26 63 67q0 20 -8.5 27.5t-22.5 8.5q-17 1 -29 11.5zM303 86q-31 -101 -116 -101q-45 0 -69.5 27t-24.5 78v390h-78v7q60 3 91.5 38t38.5 107h8v-142h121
v-10h-121v-377q0 -41 15.5 -65.5t45.5 -24.5q31 0 49.5 17.5t32.5 57.5z" />
    <glyph glyph-name="uni021B" unicode="&#x21b;" horiz-adv-x="313" 
d="M303 86q-31 -101 -116 -101q-45 0 -69.5 27t-24.5 78v390h-78v7q60 3 91.5 38t38.5 107h8v-142h121v-10h-121v-377q0 -41 15.5 -65.5t45.5 -24.5q31 0 49.5 17.5t32.5 57.5zM171 -199q56 20 56 49q0 27 -40 33q-17 2 -27 13t-10 28q0 20 12.5 31.5t33.5 11.5
q23 0 41 -23.5t18 -53.5q0 -75 -82 -99z" />
    <glyph glyph-name="tbar" unicode="&#x167;" horiz-adv-x="313" 
d="M303 86q-31 -101 -116 -101q-45 0 -69.5 27t-24.5 78v252h-78v8h78v130h-78v7q60 3 91.5 38t38.5 107h8v-142h121v-10h-121v-130h113v-8h-113v-239q0 -41 15.5 -65.5t45.5 -24.5q31 0 49.5 17.5t32.5 57.5z" />
    <glyph glyph-name="uni0163" unicode="&#x163;" horiz-adv-x="313" 
d="M194 -15l-35 -54q11 9 32 9q29 0 50 -20t21 -55t-22.5 -57.5t-55.5 -22.5q-28 0 -48 16t-26 43l6 3q7 -17 21 -26.5t31 -9.5q23 0 38 15t15 40q0 23 -13.5 36.5t-33.5 13.5q-12 0 -19.5 -2.5t-15.5 -10.5l-6 4l47 78q-42 2 -64.5 29t-22.5 76v390h-78v7q60 3 91.5 38
t38.5 107h8v-142h121v-10h-121v-377q0 -41 15.5 -65.5t45.5 -24.5q31 0 49.5 17.5t32.5 57.5l7 -2q-30 -98 -109 -101z" />
    <glyph glyph-name="ugrave" unicode="&#xf9;" horiz-adv-x="553" 
d="M471.5 24.5q17.5 -14.5 61.5 -16.5v-8h-139v86q-18 -43 -59.5 -72t-92.5 -29q-73 0 -113 43t-40 124v257q0 36 -8 48.5t-31 12.5q-19 0 -40 -4v8l139 26v-330q0 -73 32 -113t89 -40q40 0 73.5 22.5t50.5 60.5v309q0 36 -8 48.5t-31 12.5q-19 0 -40 -4v8l139 26v-423
q0 -38 17.5 -52.5zM143 695v5h79l50 -150h-10z" />
    <glyph glyph-name="uacute" unicode="&#xfa;" horiz-adv-x="553" 
d="M471.5 24.5q17.5 -14.5 61.5 -16.5v-8h-139v86q-18 -43 -59.5 -72t-92.5 -29q-73 0 -113 43t-40 124v257q0 36 -8 48.5t-31 12.5q-19 0 -40 -4v8l139 26v-330q0 -73 32 -113t89 -40q40 0 73.5 22.5t50.5 60.5v309q0 36 -8 48.5t-31 12.5q-19 0 -40 -4v8l139 26v-423
q0 -38 17.5 -52.5zM262 550l50 150h79v-5l-119 -145h-10z" />
    <glyph glyph-name="ucircumflex" unicode="&#xfb;" horiz-adv-x="553" 
d="M471.5 24.5q17.5 -14.5 61.5 -16.5v-8h-139v86q-18 -43 -59.5 -72t-92.5 -29q-73 0 -113 43t-40 124v257q0 36 -8 48.5t-31 12.5q-19 0 -40 -4v8l139 26v-330q0 -73 32 -113t89 -40q40 0 73.5 22.5t50.5 60.5v309q0 36 -8 48.5t-31 12.5q-19 0 -40 -4v8l139 26v-423
q0 -38 17.5 -52.5zM259 700h16l110 -164h-6l-112 104l-112 -104h-6z" />
    <glyph glyph-name="utilde" unicode="&#x169;" horiz-adv-x="553" 
d="M471.5 24.5q17.5 -14.5 61.5 -16.5v-8h-139v86q-18 -43 -59.5 -72t-92.5 -29q-73 0 -113 43t-40 124v257q0 36 -8 48.5t-31 12.5q-19 0 -40 -4v8l139 26v-330q0 -73 32 -113t89 -40q40 0 73.5 22.5t50.5 60.5v309q0 36 -8 48.5t-31 12.5q-19 0 -40 -4v8l139 26v-423
q0 -38 17.5 -52.5zM290 587.5q-13 5.5 -34 17.5q-18 10 -29 15t-26 5q-23 0 -41.5 -12t-23.5 -40h-4q3 47 26 70.5t56 23.5q18 0 31 -5.5t34 -17.5q18 -10 29 -15t26 -5q23 0 41.5 12t23.5 40h4q-3 -47 -26 -70.5t-56 -23.5q-18 0 -31 5.5z" />
    <glyph glyph-name="udieresis" unicode="&#xfc;" horiz-adv-x="553" 
d="M471.5 24.5q17.5 -14.5 61.5 -16.5v-8h-139v86q-18 -43 -59.5 -72t-92.5 -29q-73 0 -113 43t-40 124v257q0 36 -8 48.5t-31 12.5q-19 0 -40 -4v8l139 26v-330q0 -73 32 -113t89 -40q40 0 73.5 22.5t50.5 60.5v309q0 36 -8 48.5t-31 12.5q-19 0 -40 -4v8l139 26v-423
q0 -38 17.5 -52.5zM148.5 601q-13.5 13 -13.5 35t13.5 35t34.5 13t34.5 -13t13.5 -35t-13.5 -35t-34.5 -13t-34.5 13zM315.5 601q-13.5 13 -13.5 35t13.5 35t34.5 13t34.5 -13t13.5 -35t-13.5 -35t-34.5 -13t-34.5 13z" />
    <glyph glyph-name="umacron" unicode="&#x16b;" horiz-adv-x="553" 
d="M471.5 24.5q17.5 -14.5 61.5 -16.5v-8h-139v86q-18 -43 -59.5 -72t-92.5 -29q-73 0 -113 43t-40 124v257q0 36 -8 48.5t-31 12.5q-19 0 -40 -4v8l139 26v-330q0 -73 32 -113t89 -40q40 0 73.5 22.5t50.5 60.5v309q0 36 -8 48.5t-31 12.5q-19 0 -40 -4v8l139 26v-423
q0 -38 17.5 -52.5zM133 633h268v-25h-268v25z" />
    <glyph glyph-name="ubreve" unicode="&#x16d;" horiz-adv-x="553" 
d="M471.5 24.5q17.5 -14.5 61.5 -16.5v-8h-139v86q-18 -43 -59.5 -72t-92.5 -29q-73 0 -113 43t-40 124v257q0 36 -8 48.5t-31 12.5q-19 0 -40 -4v8l139 26v-330q0 -73 32 -113t89 -40q40 0 73.5 22.5t50.5 60.5v309q0 36 -8 48.5t-31 12.5q-19 0 -40 -4v8l139 26v-423
q0 -38 17.5 -52.5zM187.5 585q-30.5 38 -30.5 115h10q2 -51 30 -76.5t70 -25.5t70 25.5t30 76.5h10q0 -77 -30.5 -115t-79.5 -38t-79.5 38z" />
    <glyph glyph-name="uring" unicode="&#x16f;" horiz-adv-x="553" 
d="M471.5 24.5q17.5 -14.5 61.5 -16.5v-8h-139v86q-18 -43 -59.5 -72t-92.5 -29q-73 0 -113 43t-40 124v257q0 36 -8 48.5t-31 12.5q-19 0 -40 -4v8l139 26v-330q0 -73 32 -113t89 -40q40 0 73.5 22.5t50.5 60.5v309q0 36 -8 48.5t-31 12.5q-19 0 -40 -4v8l139 26v-423
q0 -38 17.5 -52.5zM199 570.5q-27 26.5 -27 66.5t27 66.5t68 26.5t68 -26.5t27 -66.5t-27 -66.5t-68 -26.5t-68 26.5zM319.5 583q20.5 20 20.5 54t-20.5 54t-52.5 20t-52.5 -20t-20.5 -54t20.5 -54t52.5 -20t52.5 20z" />
    <glyph glyph-name="uhungarumlaut" unicode="&#x171;" horiz-adv-x="553" 
d="M471.5 24.5q17.5 -14.5 61.5 -16.5v-8h-139v86q-18 -43 -59.5 -72t-92.5 -29q-73 0 -113 43t-40 124v257q0 36 -8 48.5t-31 12.5q-19 0 -40 -4v8l139 26v-330q0 -73 32 -113t89 -40q40 0 73.5 22.5t50.5 60.5v309q0 36 -8 48.5t-31 12.5q-19 0 -40 -4v8l139 26v-423
q0 -38 17.5 -52.5zM311 700h62v-5l-156 -140h-8zM446 700h67v-5l-168 -140h-8z" />
    <glyph glyph-name="uogonek" unicode="&#x173;" horiz-adv-x="553" 
d="M326.5 -42q-24.5 -29 -24.5 -66q0 -28 15.5 -42.5t43.5 -14.5q22 0 40 10.5t27 28.5l4 -2q-30 -82 -101 -82q-36 0 -56.5 20t-20.5 54q0 51 40.5 90t99.5 52v80q-18 -43 -59.5 -72t-92.5 -29q-73 0 -113 43t-40 124v257q0 36 -8 48.5t-31 12.5q-19 0 -40 -4v8l139 26
v-330q0 -73 32 -113t89 -40q40 0 73.5 22.5t50.5 60.5v309q0 36 -8 48.5t-31 12.5q-19 0 -40 -4v8l139 26v-423q0 -38 17.5 -52.5t61.5 -16.5v-8h-139q-43 -13 -67.5 -42z" />
    <glyph glyph-name="wgrave" unicode="&#x1e81;" horiz-adv-x="777" 
d="M772 490v-8q-30 -8 -45 -27t-35 -70l-156 -395h-6l-136 344l-135 -344h-6l-157 393q-20 51 -40.5 74t-50.5 25v8h204v-8q-34 -1 -49 -12.5t-15 -34.5q0 -17 13 -52l119 -301l108 276l-10 25q-21 52 -41 74.5t-50 24.5v8h209v-8q-37 -1 -53.5 -12.5t-16.5 -34.5
q0 -17 13 -52l117 -306l118 301q8 21 11 32.5t3 24.5q0 23 -17 34.5t-53 12.5v8h157zM266 695v5h79l50 -150h-10z" />
    <glyph glyph-name="wacute" unicode="&#x1e83;" horiz-adv-x="777" 
d="M772 490v-8q-30 -8 -45 -27t-35 -70l-156 -395h-6l-136 344l-135 -344h-6l-157 393q-20 51 -40.5 74t-50.5 25v8h204v-8q-34 -1 -49 -12.5t-15 -34.5q0 -17 13 -52l119 -301l108 276l-10 25q-21 52 -41 74.5t-50 24.5v8h209v-8q-37 -1 -53.5 -12.5t-16.5 -34.5
q0 -17 13 -52l117 -306l118 301q8 21 11 32.5t3 24.5q0 23 -17 34.5t-53 12.5v8h157zM385 550l50 150h79v-5l-119 -145h-10z" />
    <glyph glyph-name="wcircumflex" unicode="&#x175;" horiz-adv-x="777" 
d="M772 490v-8q-30 -8 -45 -27t-35 -70l-156 -395h-6l-136 344l-135 -344h-6l-157 393q-20 51 -40.5 74t-50.5 25v8h204v-8q-34 -1 -49 -12.5t-15 -34.5q0 -17 13 -52l119 -301l108 276l-10 25q-21 52 -41 74.5t-50 24.5v8h209v-8q-37 -1 -53.5 -12.5t-16.5 -34.5
q0 -17 13 -52l117 -306l118 301q8 21 11 32.5t3 24.5q0 23 -17 34.5t-53 12.5v8h157zM382 700h16l110 -164h-6l-112 104l-112 -104h-6z" />
    <glyph glyph-name="wdieresis" unicode="&#x1e85;" horiz-adv-x="777" 
d="M772 490v-8q-30 -8 -45 -27t-35 -70l-156 -395h-6l-136 344l-135 -344h-6l-157 393q-20 51 -40.5 74t-50.5 25v8h204v-8q-34 -1 -49 -12.5t-15 -34.5q0 -17 13 -52l119 -301l108 276l-10 25q-21 52 -41 74.5t-50 24.5v8h209v-8q-37 -1 -53.5 -12.5t-16.5 -34.5
q0 -17 13 -52l117 -306l118 301q8 21 11 32.5t3 24.5q0 23 -17 34.5t-53 12.5v8h157zM271.5 601q-13.5 13 -13.5 35t13.5 35t34.5 13t34.5 -13t13.5 -35t-13.5 -35t-34.5 -13t-34.5 13zM438.5 601q-13.5 13 -13.5 35t13.5 35t34.5 13t34.5 -13t13.5 -35t-13.5 -35t-34.5 -13
t-34.5 13z" />
    <glyph glyph-name="ygrave" unicode="&#x1ef3;" horiz-adv-x="517" 
d="M41 -212q-14 3 -30 9v73h5q11 -9 31 -14.5t46 -5.5q50 0 85.5 22t60.5 79l10 23l-153 409q-18 50 -39 73.5t-52 25.5v8h214v-8q-40 -1 -56 -11.5t-16 -33.5q0 -17 13 -54l119 -329l132 324q11 27 11 48q0 51 -65 56v8h155v-8q-31 -8 -47 -27t-33 -70l-172 -426
q-35 -102 -82 -138t-103 -36q-20 0 -34 3zM164 695v5h79l50 -150h-10z" />
    <glyph glyph-name="yacute" unicode="&#xfd;" horiz-adv-x="517" 
d="M41 -212q-14 3 -30 9v73h5q11 -9 31 -14.5t46 -5.5q50 0 85.5 22t60.5 79l10 23l-153 409q-18 50 -39 73.5t-52 25.5v8h214v-8q-40 -1 -56 -11.5t-16 -33.5q0 -17 13 -54l119 -329l132 324q11 27 11 48q0 51 -65 56v8h155v-8q-31 -8 -47 -27t-33 -70l-172 -426
q-35 -102 -82 -138t-103 -36q-20 0 -34 3zM283 550l50 150h79v-5l-119 -145h-10z" />
    <glyph glyph-name="ycircumflex" unicode="&#x177;" horiz-adv-x="517" 
d="M41 -212q-14 3 -30 9v73h5q11 -9 31 -14.5t46 -5.5q50 0 85.5 22t60.5 79l10 23l-153 409q-18 50 -39 73.5t-52 25.5v8h214v-8q-40 -1 -56 -11.5t-16 -33.5q0 -17 13 -54l119 -329l132 324q11 27 11 48q0 51 -65 56v8h155v-8q-31 -8 -47 -27t-33 -70l-172 -426
q-35 -102 -82 -138t-103 -36q-20 0 -34 3zM280 700h16l110 -164h-6l-112 104l-112 -104h-6z" />
    <glyph glyph-name="ydieresis" unicode="&#xff;" horiz-adv-x="517" 
d="M41 -212q-14 3 -30 9v73h5q11 -9 31 -14.5t46 -5.5q50 0 85.5 22t60.5 79l10 23l-153 409q-18 50 -39 73.5t-52 25.5v8h214v-8q-40 -1 -56 -11.5t-16 -33.5q0 -17 13 -54l119 -329l132 324q11 27 11 48q0 51 -65 56v8h155v-8q-31 -8 -47 -27t-33 -70l-172 -426
q-35 -102 -82 -138t-103 -36q-20 0 -34 3zM169.5 601q-13.5 13 -13.5 35t13.5 35t34.5 13t34.5 -13t13.5 -35t-13.5 -35t-34.5 -13t-34.5 13zM336.5 601q-13.5 13 -13.5 35t13.5 35t34.5 13t34.5 -13t13.5 -35t-13.5 -35t-34.5 -13t-34.5 13z" />
    <glyph glyph-name="zacute" unicode="&#x17a;" horiz-adv-x="443" 
d="M20 1l331 478h-115q-64 0 -100.5 -18.5t-55 -53t-33.5 -93.5h-5l27 176h354v-1l-331 -478h102q75 0 114.5 13.5t63 51.5t42.5 119h5l-28 -195h-371v1zM232 550l50 150h79v-5l-119 -145h-10z" />
    <glyph glyph-name="zcaron" unicode="&#x17e;" horiz-adv-x="443" 
d="M20 1l331 478h-115q-64 0 -100.5 -18.5t-55 -53t-33.5 -93.5h-5l27 176h354v-1l-331 -478h102q75 0 114.5 13.5t63 51.5t42.5 119h5l-28 -195h-371v1zM119 700h6l112 -94l112 94h6l-110 -154h-16z" />
    <glyph glyph-name="zdotaccent" unicode="&#x17c;" horiz-adv-x="443" 
d="M20 1l331 478h-115q-64 0 -100.5 -18.5t-55 -53t-33.5 -93.5h-5l27 176h354v-1l-331 -478h102q75 0 114.5 13.5t63 51.5t42.5 119h5l-28 -195h-371v1zM202.5 602q-13.5 14 -13.5 34t13.5 34t34.5 14t34.5 -14t13.5 -34t-13.5 -34t-34.5 -14t-34.5 14z" />
    <glyph glyph-name="eng" unicode="&#x14b;" horiz-adv-x="494" 
d="M438 460q36 -45 36 -122v-399q0 -73 -30 -113.5t-89 -40.5q-22 0 -46 5t-35 12l3 6q27 -14 64 -14q34 0 53.5 25t19.5 68v433q0 78 -29 117.5t-91 39.5q-50 0 -83.5 -29t-46.5 -71v-321q0 -20 7 -29t23 -13t49 -6v-8h-218v8q33 2 49 6t23 13t7 29v344q0 36 -8 48.5
t-31 12.5q-19 0 -40 -4v8l139 35v-113q11 49 56 83.5t106 34.5q76 0 112 -45z" />
    <glyph glyph-name="eth" unicode="&#xf0;" horiz-adv-x="528" 
d="M444.5 485.5q38.5 -91.5 38.5 -189.5q0 -152 -58 -231.5t-163 -79.5q-66 0 -117.5 30t-80.5 87t-29 136q0 81 32 142t85 93t115 32q40 0 76 -15t54 -40q-25 112 -87 176l-177 -95v16l166 89q-72 65 -200 79l1 5q128 -7 219 -74l101 54v-15l-89 -48q75 -60 113.5 -151.5z
M377 61q38 66 38 202q0 92 -14 167q-15 27 -50 44t-78 17q-75 0 -123 -62t-48 -182q0 -118 43.5 -185t116.5 -67q77 0 115 66z" />
    <glyph glyph-name="thorn" unicode="&#xfe;" horiz-adv-x="542" 
d="M20 -192q33 2 49 6t23 13t7 29v774q0 36 -8 48.5t-31 12.5q-19 0 -40 -4v8l139 35v-325q20 44 60.5 72t98.5 28q53 0 97.5 -29t70.5 -83t26 -126q0 -81 -31.5 -145.5t-82.5 -100.5t-109 -36q-72 0 -130 47v-176q0 -19 6.5 -28t26.5 -13.5t66 -6.5v-8h-238v8zM368 26.5
q36 28.5 57.5 86t21.5 138.5q0 67 -20.5 116t-57 75.5t-82.5 26.5q-90 0 -128 -75v-323q13 -26 46 -49.5t83 -23.5q44 0 80 28.5z" />
    <glyph glyph-name="kgreenlandic" unicode="&#x138;" horiz-adv-x="532" 
d="M171 27q7 -9 23 -13t49 -6v-8h-218v8q33 2 49 6t23 13t7 29v344q0 36 -8 48.5t-31 12.5q-19 0 -40 -4v8l139 35v-444q0 -20 7 -29zM480 25.5q23 -16.5 47 -18.5v-7h-114l-244 263l165 135q28 23 37.5 35.5t9.5 22.5q0 11 -12.5 18.5t-38.5 8.5v7h165v-7q-53 -9 -114 -60
l-157 -132l195 -208q38 -41 61 -57.5z" />
    <glyph glyph-name="germandbls" unicode="&#xdf;" horiz-adv-x="553" 
d="M264 -9q-21 6 -41 24l6 8q28 -26 77 -26q69 0 105.5 45t36.5 133q0 100 -45 148.5t-127 48.5h-35v14h35q83 0 114 46t31 111q0 81 -36.5 122.5t-97.5 41.5q-62 0 -95 -41.5t-33 -114.5v-551h-139v8q33 2 49 6t23 13t7 29v408q0 142 59.5 199t142.5 57q54 0 96 -21.5
t65.5 -58.5t23.5 -84q0 -43 -20.5 -83.5t-62 -66t-100.5 -25.5h-13v-3h13q71 0 118.5 -27t69.5 -70t22 -92q0 -51 -22.5 -98t-69 -76.5t-112.5 -29.5q-24 0 -45 6z" />
    <glyph glyph-name="ampersand" unicode="&#x26;" horiz-adv-x="719" 
d="M709 86q-7 -50 -35.5 -76.5t-68.5 -26.5q-29 0 -49.5 15.5t-52.5 52.5l-66 79q-25 -69 -80 -108t-128 -39q-54 0 -100 25.5t-72.5 69.5t-26.5 98q0 77 45 136t132 89l-10 12q-45 53 -67 91t-22 78q0 59 46.5 98.5t128.5 39.5q48 0 89 -10.5t69 -28.5v-178h-8
q-5 92 -42.5 147.5t-116.5 55.5q-57 0 -87.5 -28.5t-30.5 -66.5q0 -39 16.5 -68t62.5 -83l325 -384q23 -27 43 -39t42 -12q21 0 35.5 13.5t21.5 49.5zM361 43.5q42 29.5 66 97.5l-212 250q-123 -41 -123 -173q0 -57 21.5 -103t62.5 -73.5t99 -27.5q44 0 86 29.5z" />
    <glyph glyph-name="grave" unicode="`" horiz-adv-x="600" 
d="M80 695v5h79l50 -150h-10z" />
    <glyph glyph-name="acute" unicode="&#xb4;" horiz-adv-x="600" 
d="M50 550l50 150h79v-5l-119 -145h-10z" />
    <glyph glyph-name="circumflex" unicode="&#x2c6;" horiz-adv-x="600" 
d="M160 700h16l110 -164h-6l-112 104l-112 -104h-6z" />
    <glyph glyph-name="tilde" unicode="&#x2dc;" horiz-adv-x="600" 
d="M208 587.5q-13 5.5 -34 17.5q-18 10 -29 15t-26 5q-23 0 -41.5 -12t-23.5 -40h-4q3 47 26 70.5t56 23.5q18 0 31 -5.5t34 -17.5q18 -10 29 -15t26 -5q23 0 41.5 12t23.5 40h4q-3 -47 -26 -70.5t-56 -23.5q-18 0 -31 5.5z" />
    <glyph glyph-name="caron" unicode="&#x2c7;" horiz-adv-x="600" 
d="M50 700h6l112 -94l112 94h6l-110 -154h-16z" />
    <glyph glyph-name="dieresis" unicode="&#xa8;" horiz-adv-x="600" 
d="M63.5 601q-13.5 13 -13.5 35t13.5 35t34.5 13t34.5 -13t13.5 -35t-13.5 -35t-34.5 -13t-34.5 13zM230.5 601q-13.5 13 -13.5 35t13.5 35t34.5 13t34.5 -13t13.5 -35t-13.5 -35t-34.5 -13t-34.5 13z" />
    <glyph glyph-name="macron" unicode="&#xaf;" horiz-adv-x="600" 
d="M50 633h268v-25h-268v25z" />
    <glyph glyph-name="breve" unicode="&#x2d8;" horiz-adv-x="600" 
d="M80.5 585q-30.5 38 -30.5 115h10q2 -51 30 -76.5t70 -25.5t70 25.5t30 76.5h10q0 -77 -30.5 -115t-79.5 -38t-79.5 38z" />
    <glyph glyph-name="ring" unicode="&#x2da;" horiz-adv-x="600" 
d="M77 570.5q-27 26.5 -27 66.5t27 66.5t68 26.5t68 -26.5t27 -66.5t-27 -66.5t-68 -26.5t-68 26.5zM197.5 583q20.5 20 20.5 54t-20.5 54t-52.5 20t-52.5 -20t-20.5 -54t20.5 -54t52.5 -20t52.5 20z" />
    <glyph glyph-name="hungarumlaut" unicode="&#x2dd;" horiz-adv-x="600" 
d="M162 700h62v-5l-156 -140h-8zM297 700h67v-5l-168 -140h-8z" />
    <glyph glyph-name="dotaccent" unicode="&#x2d9;" horiz-adv-x="600" 
d="M63.5 602q-13.5 14 -13.5 34t13.5 34t34.5 14t34.5 -14t13.5 -34t-13.5 -34t-34.5 -14t-34.5 14z" />
    <glyph glyph-name="cedilla" unicode="&#xb8;" horiz-adv-x="600" 
d="M179.5 -192.5q-22.5 -22.5 -55.5 -22.5q-28 0 -48 16t-26 43l6 3q7 -17 21 -26.5t31 -9.5q23 0 38 15t15 40q0 23 -13.5 36.5t-33.5 13.5q-12 0 -19.5 -2.5t-15.5 -10.5l-6 4l56 93h14l-44 -69q10 9 32 9q29 0 50 -20t21 -55t-22.5 -57.5z" />
    <glyph glyph-name="ogonek" unicode="&#x2db;" horiz-adv-x="600" 
d="M70.5 -190q-20.5 20 -20.5 54q0 51 40.5 90t99.5 52v-6q-43 -13 -67.5 -42t-24.5 -66q0 -28 15.5 -42.5t43.5 -14.5q22 0 40 10.5t27 28.5l4 -2q-30 -82 -101 -82q-36 0 -56.5 20z" />
    <glyph glyph-name="comma" unicode="," horiz-adv-x="220" 
d="M59 -108q39 12 55.5 30t16.5 35q0 15 -11.5 23t-29.5 13q-40 13 -40 49q0 19 13 32.5t35 13.5q25 0 43.5 -22t18.5 -62q0 -41 -20.5 -71.5t-77.5 -49.5z" />
    <glyph glyph-name="semicolon" unicode=";" horiz-adv-x="220" 
d="M59 -108q39 12 55.5 30t16.5 35q0 15 -11.5 23t-29.5 13q-40 13 -40 49q0 19 13 32.5t35 13.5q25 0 43.5 -22t18.5 -62q0 -41 -20.5 -71.5t-77.5 -49.5zM64 417.5q-14 14.5 -14 35.5t14 35.5t36 14.5t36 -14.5t14 -35.5t-14 -35.5t-36 -14.5t-36 14.5z" />
    <glyph glyph-name="colon" unicode=":" horiz-adv-x="200" 
d="M64 417.5q-14 14.5 -14 35.5t14 35.5t36 14.5t36 -14.5t14 -35.5t-14 -35.5t-36 -14.5t-36 14.5zM64 2.5q-14 14.5 -14 35.5t14 35.5t36 14.5t36 -14.5t14 -35.5t-14 -35.5t-36 -14.5t-36 14.5z" />
    <glyph glyph-name="period" unicode="." horiz-adv-x="200" 
d="M64 2.5q-14 14.5 -14 35.5t14 35.5t36 14.5t36 -14.5t14 -35.5t-14 -35.5t-36 -14.5t-36 14.5z" />
    <glyph glyph-name="ellipsis" unicode="&#x2026;" horiz-adv-x="560" 
d="M424 2.5q-14 14.5 -14 35.5t14 35.5t36 14.5t36 -14.5t14 -35.5t-14 -35.5t-36 -14.5t-36 14.5zM244 2.5q-14 14.5 -14 35.5t14 35.5t36 14.5t36 -14.5t14 -35.5t-14 -35.5t-36 -14.5t-36 14.5zM64 2.5q-14 14.5 -14 35.5t14 35.5t36 14.5t36 -14.5t14 -35.5t-14 -35.5
t-36 -14.5t-36 14.5z" />
    <glyph glyph-name="hyphen" unicode="-" horiz-adv-x="377" 
d="M45 318h287v-25h-287v25z" />
    <glyph glyph-name="uni00AD" unicode="&#xad;" horiz-adv-x="377" 
d="M45 318h287v-25h-287v25z" />
    <glyph glyph-name="exclam" unicode="!" horiz-adv-x="250" 
d="M82 651l-1 18q0 51 44 51t44 -51l-1 -18l-40 -473h-6zM89 2.5q-14 14.5 -14 35.5t14 35.5t36 14.5t36 -14.5t14 -35.5t-14 -35.5t-36 -14.5t-36 14.5z" />
    <glyph glyph-name="exclamdown" unicode="&#xa1;" horiz-adv-x="250" 
d="M161 502.5q14 -14.5 14 -35.5t-14 -35.5t-36 -14.5t-36 14.5t-14 35.5t14 35.5t36 14.5t36 -14.5zM128 327l40 -473l1 -18q0 -51 -44 -51t-44 51l1 18l40 473h6z" />
    <glyph glyph-name="question" unicode="?" horiz-adv-x="431" 
d="M185 211q0 47 12.5 74.5t41.5 57.5q46 47 73 92.5t27 103.5q0 76 -37 116.5t-105 40.5q-74 0 -117 -43t-55 -110l-5 1q11 74 61 125t139 51q82 0 133 -47.5t51 -125.5q0 -101 -122 -192q-49 -38 -67 -72.5t-18 -89.5v-21h-12v39zM156 2.5q-14 14.5 -14 35.5t14 35.5
t36 14.5t36 -14.5t14 -35.5t-14 -35.5t-36 -14.5t-36 14.5z" />
    <glyph glyph-name="questiondown" unicode="&#xbf;" horiz-adv-x="396" 
d="M275 502.5q14 -14.5 14 -35.5t-14 -35.5t-36 -14.5t-36 14.5t-14 35.5t14 35.5t36 14.5t36 -14.5zM246 294q-1 -47 -13 -74t-37 -54q-50 -56 -76 -100t-26 -100q0 -76 36.5 -116.5t103.5 -40.5q70 0 110.5 34.5t51.5 88.5l5 -1q-10 -62 -57.5 -104t-132.5 -42
q-53 0 -94 21t-64 58t-23 84q0 60 30.5 108.5t88.5 93.5q49 38 67 72.5t18 89.5v21h13z" />
    <glyph glyph-name="quoteleft" unicode="&#x2018;" horiz-adv-x="230" 
d="M169 722q-76 -31 -76 -82q0 -41 38 -43q21 -1 35 -14t14 -35q0 -19 -14 -33t-36 -14q-29 0 -49.5 23.5t-20.5 66.5q0 46 24 81t83 56z" />
    <glyph glyph-name="quoteright" unicode="&#x2019;" horiz-adv-x="230" 
d="M61 485q76 31 76 82q0 41 -38 43q-21 1 -35 14t-14 35q0 19 14.5 33t35.5 14q29 0 49.5 -23.5t20.5 -66.5q0 -46 -24 -81t-83 -56z" />
    <glyph glyph-name="uni02BC" unicode="&#x2bc;" horiz-adv-x="230" 
d="M61 485q76 31 76 82q0 41 -38 43q-21 1 -35 14t-14 35q0 19 14.5 33t35.5 14q29 0 49.5 -23.5t20.5 -66.5q0 -46 -24 -81t-83 -56z" />
    <glyph glyph-name="quotedblleft" unicode="&#x201c;" horiz-adv-x="380" 
d="M169 722q-76 -31 -76 -82q0 -41 38 -43q21 -1 35 -14t14 -35q0 -19 -14 -33t-36 -14q-29 0 -49.5 23.5t-20.5 66.5q0 46 24 81t83 56zM319 722q-76 -31 -76 -82q0 -41 38 -43q21 -1 35 -14t14 -35q0 -19 -14 -33t-36 -14q-29 0 -49.5 23.5t-20.5 66.5q0 46 24 81t83 56z
" />
    <glyph glyph-name="quotedblright" unicode="&#x201d;" horiz-adv-x="369" 
d="M61 485q76 31 76 82q0 41 -38 43q-21 1 -35 14t-14 35q0 19 14.5 33t35.5 14q29 0 49.5 -23.5t20.5 -66.5q0 -46 -24 -81t-83 -56zM200 485q76 31 76 82q0 41 -38 43q-21 1 -35 14t-14 35q0 19 14.5 33t35.5 14q29 0 49.5 -23.5t20.5 -66.5q0 -46 -24 -81t-83 -56z" />
    <glyph glyph-name="quotesinglbase" unicode="&#x201a;" horiz-adv-x="230" 
d="M61 -168q76 31 76 82q0 41 -38 43q-21 1 -35 14t-14 35q0 19 14.5 33t35.5 14q29 0 49.5 -23.5t20.5 -66.5q0 -46 -24 -81t-83 -56z" />
    <glyph glyph-name="quotedblbase" unicode="&#x201e;" horiz-adv-x="369" 
d="M71 -157q76 31 76 82q0 41 -38 43q-21 1 -35 14t-14 35q0 19 14.5 33t35.5 14q29 0 49.5 -23.5t20.5 -66.5q0 -46 -24 -81t-83 -56zM210 -157q76 31 76 82q0 41 -38 43q-21 1 -35 14t-14 35q0 19 14.5 33t35.5 14q29 0 49.5 -23.5t20.5 -66.5q0 -46 -24 -81t-83 -56z" />
    <glyph glyph-name="guilsinglleft" unicode="&#x2039;" horiz-adv-x="320" 
d="M60 265v6l196 200l4 -3l-128 -200l128 -200l-4 -3z" />
    <glyph glyph-name="guilsinglright" unicode="&#x203a;" horiz-adv-x="320" 
d="M60 68l128 200l-128 200l4 3l196 -200v-6l-196 -200z" />
    <glyph glyph-name="guillemotleft" unicode="&#xab;" horiz-adv-x="495" 
d="M60 265v6l196 200l4 -3l-128 -200l128 -200l-4 -3zM235 265v6l196 200l4 -3l-128 -200l128 -200l-4 -3z" />
    <glyph glyph-name="guillemotright" unicode="&#xbb;" horiz-adv-x="495" 
d="M60 68l128 200l-128 200l4 3l196 -200v-6l-196 -200zM235 68l128 200l-128 200l4 3l196 -200v-6l-196 -200z" />
    <glyph glyph-name="slash" unicode="/" horiz-adv-x="332" 
d="M303 762h19l-293 -822h-19z" />
    <glyph glyph-name="bar" unicode="|" horiz-adv-x="180" 
d="M100 -124h-20v854h20v-854z" />
    <glyph glyph-name="endash" unicode="&#x2013;" horiz-adv-x="565" 
d="M45 313h475v-15h-475v15z" />
    <glyph glyph-name="emdash" unicode="&#x2014;" horiz-adv-x="830" 
d="M45 313h740v-15h-740v15z" />
    <glyph glyph-name="periodcentered" unicode="&#xb7;" horiz-adv-x="200" 
d="M64 312.5q-14 14.5 -14 35.5t14 35.5t36 14.5t36 -14.5t14 -35.5t-14 -35.5t-36 -14.5t-36 14.5z" />
    <glyph glyph-name="parenleft" unicode="(" horiz-adv-x="277" 
d="M160.5 -57.5q-51.5 61.5 -86 154.5t-34.5 206t34.5 206t86 154.5t102.5 89.5l4 -3q-89 -75 -132 -191t-43 -256t43 -256t132 -191l-4 -3q-51 28 -102.5 89.5z" />
    <glyph glyph-name="parenright" unicode=")" horiz-adv-x="277" 
d="M116.5 663.5q51.5 -61.5 86 -154.5t34.5 -206t-34.5 -206t-86 -154.5t-102.5 -89.5l-4 3q89 75 132 191t43 256t-43 256t-132 191l4 3q51 -28 102.5 -89.5z" />
    <glyph glyph-name="bracketleft" unicode="[" horiz-adv-x="229" 
d="M156 714q-16 -9 -16 -38v-746q0 -29 16 -38t63 -11v-5h-139v854h139v-5q-47 -2 -63 -11z" />
    <glyph glyph-name="bracketright" unicode="]" horiz-adv-x="229" 
d="M10 730h139v-854h-139v5q47 2 63 11t16 38v746q0 29 -16 38t-63 11v5z" />
    <glyph glyph-name="braceleft" unicode="{" horiz-adv-x="272" 
d="M141 -85.5q-42 48.5 -42 131.5v164q0 61 -59 96v6q59 35 59 108v140q0 83 42 131.5t116 51.5v-5q-52 -7 -75 -45t-23 -118v-133q0 -35 -13.5 -59.5t-47.5 -48.5q34 -24 47.5 -48.5t13.5 -59.5v-195q0 -78 23 -116.5t75 -46.5v-5q-74 3 -116 51.5z" />
    <glyph glyph-name="braceright" unicode="}" horiz-adv-x="272" 
d="M15 -132q56 8 77 48.5t21 114.5v169q0 44 15.5 66t29 31l16.5 11q-3 2 -20 13.5t-29 36t-12 58.5v159q0 74 -21 114.5t-77 48.5v5q77 -3 117.5 -52.5t40.5 -130.5v-128q0 -41 17 -61t42 -35v-6q-25 -15 -42 -37.5t-17 -70.5v-176q0 -81 -40.5 -130.5t-117.5 -52.5v5z" />
    <glyph glyph-name="asterisk" unicode="*" horiz-adv-x="353" 
d="M276 594q-9 -4 -36 -4l-53 3l44 -29q19 -13 28 -25q8 -9 8 -22q0 -17 -14 -27q-9 -6 -18 -6q-16 0 -29 16q-10 11 -16 34l-13 51l-14 -51q-7 -24 -15 -34q-14 -16 -30 -16q-9 0 -18 6q-14 11 -14 25q0 11 8 24q6 9 28 25l44 29l-53 -3q-26 0 -36 4q-27 10 -27 32
q0 16 9.5 24.5t24.5 8.5q3 0 13 -2q15 -4 31 -19l42 -33l-19 50q-8 18 -8 36q0 16 9 26t24 10t23.5 -10t9.5 -26q1 -13 -7 -36l-20 -51l43 34q16 15 31 19q10 2 13 2q15 0 24.5 -8.5t9.5 -24.5q0 -20 -27 -32z" />
    <glyph glyph-name="dagger" unicode="&#x2020;" horiz-adv-x="466" 
d="M224 84q-4 55 -17.5 97t-43.5 78v5q27 6 40.5 28.5t13.5 69.5v50q0 31 -6 46t-22 20t-49 5h-13q-46 0 -63 -17t-19 -64h-5v190h5q2 -47 19 -64t63 -17h13q34 0 49.5 4t21.5 17.5t6 44.5v24q0 47 -16.5 63.5t-62.5 18.5v5h190v-5q-46 -2 -62.5 -18.5t-16.5 -63.5v-24
q0 -31 6 -44.5t21.5 -17.5t49.5 -4h13q46 0 63 17t19 64h5v-190h-5q-2 47 -19 64t-63 17h-13q-33 0 -49 -5t-22 -20t-6 -46v-50q0 -48 13 -70t41 -28v-5q-30 -36 -43.5 -78t-17.5 -97t-6 -169h-6q-2 114 -6 169z" />
    <glyph glyph-name="daggerdbl" unicode="&#x2021;" horiz-adv-x="466" 
d="M138 -55q46 2 62.5 18.5t16.5 63.5v24q0 31 -6 44.5t-21.5 17.5t-49.5 4h-13q-46 0 -63 -17t-19 -64h-5v190h5q2 -47 19 -64t63 -17h13q33 0 49 5t22 20t6 46q0 41 -13 61.5t-37.5 27t-66.5 6.5v6q42 0 66.5 6.5t37.5 27t13 61.5q0 31 -6 46t-22 20t-49 5h-13
q-46 0 -63 -17t-19 -64h-5v190h5q2 -47 19 -64t63 -17h13q34 0 49.5 4t21.5 17.5t6 44.5v24q0 47 -16.5 63.5t-62.5 18.5v5h190v-5q-46 -2 -62.5 -18.5t-16.5 -63.5v-24q0 -31 6 -44.5t21.5 -17.5t49.5 -4h13q46 0 63 17t19 64h5v-190h-5q-2 47 -19 64t-63 17h-13
q-33 0 -49 -5t-22 -20t-6 -46q0 -41 13 -61.5t37.5 -27t66.5 -6.5v-6q-42 0 -66.5 -6.5t-37.5 -27t-13 -61.5q0 -31 6 -46t22 -20t49 -5h13q46 0 63 17t19 64h5v-190h-5q-2 47 -19 64t-63 17h-13q-34 0 -49.5 -4t-21.5 -17.5t-6 -44.5v-24q0 -47 16.5 -63.5t62.5 -18.5v-5
h-190v5z" />
    <glyph glyph-name="section" unicode="&#xa7;" horiz-adv-x="481" 
d="M414 40q18 -33 18 -78q0 -83 -56 -130t-153 -47q-46 0 -92.5 11.5t-85.5 32.5v184h7q7 -99 54.5 -155.5t136.5 -56.5q67 0 105 35t38 98q0 48 -27 77t-90 57l-83 37q-71 32 -104.5 70t-33.5 100q0 49 24.5 85t69.5 56q-43 26 -64 60t-21 83q0 74 54.5 117.5t145.5 43.5
q86 0 161 -38v-182h-6q-7 103 -50 153t-127 50q-65 0 -103 -31t-38 -87q0 -32 12 -53.5t38 -38t74 -38.5l96 -43q65 -29 96 -68t31 -98q0 -50 -21.5 -88t-60.5 -60q37 -25 55 -58zM305 128q14 -6 23 -11t15 -8q52 35 52 109q0 49 -27.5 78.5t-89.5 55.5l-83 37q-14 6 -38 18
q-35 -14 -53.5 -40.5t-18.5 -65.5q0 -32 12 -53.5t38 -38t74 -38.5z" />
    <glyph glyph-name="paragraph" unicode="&#xb6;" horiz-adv-x="518" 
d="M508 692q-34 -2 -50.5 -8.5t-22.5 -22t-6 -48.5v-743h-15v817h-140v-817h-15v470q-102 0 -168 47.5t-66 132.5t66 132.5t168 47.5h249v-8z" />
    <glyph glyph-name="asciicircum" unicode="^" horiz-adv-x="348" 
d="M167 705h14l137 -245h-19l-125 226l-125 -226h-19z" />
    <glyph glyph-name="asciitilde" unicode="~" horiz-adv-x="592" 
d="M336.5 298.5q-30.5 8.5 -71.5 24.5q-36 14 -60 21t-53 7q-72 0 -102 -55l-5 1q14 41 47 61.5t92 20.5q29 0 53 -7t60 -21q41 -16 71.5 -24.5t71.5 -8.5q72 0 102 55l5 -1q-14 -41 -47 -61.5t-92 -20.5q-41 0 -71.5 8.5z" />
    <glyph glyph-name="brokenbar" unicode="&#xa6;" horiz-adv-x="180" 
d="M100 368h-20v362h20v-362zM80 268h20v-392h-20v392z" />
    <glyph glyph-name="backslash" unicode="\" horiz-adv-x="332" 
d="M10 762h19l293 -822h-19z" />
    <glyph glyph-name="underscore" unicode="_" horiz-adv-x="516" 
d="M0 -17h516v-15h-516v15z" />
    <glyph glyph-name="quotesingle" unicode="'" horiz-adv-x="202" 
d="M56 637q-6 26 -6 40q1 24 15.5 38.5t35.5 14.5t35.5 -14.5t15.5 -38.5q0 -14 -6 -40l-41 -135h-8z" />
    <glyph glyph-name="quotedbl" unicode="&#x22;" horiz-adv-x="347" 
d="M201 637q-6 26 -6 40q1 24 15.5 38.5t35.5 14.5t35.5 -14.5t15.5 -38.5q0 -14 -6 -40l-41 -135h-8zM56 637q-6 26 -6 40q1 24 15.5 38.5t35.5 14.5t35.5 -14.5t15.5 -38.5q0 -14 -6 -40l-41 -135h-8z" />
    <glyph glyph-name="at" unicode="@" horiz-adv-x="801" 
d="M469 335v17q0 130 -97 130q-39 0 -66.5 -21t-39.5 -61h-5q11 55 47.5 85.5t89.5 30.5q61 0 93.5 -39t32.5 -112v-174q0 -85 66 -85q42 0 79 32.5t58.5 88.5t21.5 123q0 93 -42.5 166.5t-118.5 115t-173 41.5q-104 0 -186 -48t-128.5 -133.5t-46.5 -193.5
q0 -109 47 -193.5t131 -131.5t192 -47q87 0 153 30t106 87l4 -3q-41 -61 -109.5 -93.5t-156.5 -32.5q-111 0 -197.5 49t-135 136.5t-48.5 198.5q0 110 48 198.5t133.5 138.5t193.5 50q100 0 178.5 -43t123 -120.5t44.5 -175.5q0 -73 -24.5 -131t-68.5 -90.5t-99 -32.5
q-90 0 -100 91q-13 -43 -43.5 -65.5t-74.5 -22.5q-48 0 -77 26t-29 71q0 95 145 126zM443.5 148q25.5 36 25.5 97v82l-50 -11q-61 -13 -88.5 -43.5t-27.5 -77.5q0 -41 18.5 -62t52.5 -21q44 0 69.5 36z" />
    <glyph glyph-name="copyright" unicode="&#xa9;" horiz-adv-x="860" 
d="M227 9q-89 49 -138 137.5t-49 203.5t49 203.5t138 137.5t203 49t203 -49t138 -137.5t49 -203.5t-49 -203.5t-138 -137.5t-203 -49t-203 49zM625.5 19.5q85.5 47.5 133.5 133t48 197.5t-48 197.5t-133.5 133t-195.5 47.5t-195.5 -47.5t-133.5 -133t-48 -197.5t48 -197.5
t133.5 -133t195.5 -47.5t195.5 47.5zM308.5 205.5q-47.5 54.5 -47.5 145.5q0 62 23 110t65.5 74t97.5 26q61 0 118 -22v-132h-5q-10 67 -40 100.5t-87 33.5q-59 0 -94 -40.5t-35 -109.5q0 -55 20.5 -99t57 -69t81.5 -25q90 0 108 84l5 -1q-11 -64 -47 -97t-94 -33
q-79 0 -126.5 54.5z" />
    <glyph glyph-name="registered" unicode="&#xae;" horiz-adv-x="556" 
d="M398.5 636.5q51.5 -31.5 79.5 -84.5t28 -117t-28 -117t-79.5 -84.5t-120.5 -31.5t-120.5 31.5t-79.5 84.5t-28 117t28 117t79.5 84.5t120.5 31.5t120.5 -31.5zM389.5 245.5q47.5 29.5 73 79.5t25.5 110t-25.5 110t-73 79.5t-111.5 29.5t-111.5 -29.5t-73 -79.5
t-25.5 -110t25.5 -110t73 -79.5t111.5 -29.5t111.5 29.5zM403 308v-3h-40q-10 18 -21 44l-20 47q-12 27 -22.5 35.5t-35.5 8.5h-24v-98q0 -20 5 -26.5t23 -7.5v-3h-83v3q18 1 23.5 7.5t5.5 26.5v199q0 17 -6 23.5t-23 7.5v3h89q45 0 68 -15t23 -50q0 -32 -23.5 -49
t-58.5 -17v-1q22 0 39.5 -11t26.5 -33l21 -49q16 -38 33 -42zM318.5 462q18.5 14 18.5 48q0 30 -15 43.5t-52 13.5h-30v-119h22q38 0 56.5 14z" />
    <glyph glyph-name="trademark" unicode="&#x2122;" horiz-adv-x="780" 
d="M318 680v-125h-4q-5 48 -16.5 70.5t-28.5 29t-47 6.5h-27v-289q0 -19 3.5 -28.5t16 -14t38.5 -5.5v-4h-159v4q37 1 48 10.5t11 37.5v289h-27q-31 0 -48.5 -7.5t-28.5 -30.5t-15 -68h-4v125h3q10 -10 38 -10h205q14 0 23.5 2t15.5 8h3zM378 637l-14 -255q-1 -34 10 -45
t46 -13v-4h-110v4q22 2 31 13t11 45l13 231q2 32 -4.5 41.5t-33.5 11.5v4h82l121 -292l120 292h81v-4q-18 -2 -26 -5t-10.5 -13.5t-1.5 -34.5l13 -239q2 -28 10 -38.5t32 -11.5v-4h-126v4q25 1 33.5 12t6.5 40l-12 263l-135 -329h-1z" />
    <glyph glyph-name="currency" unicode="&#xa4;" horiz-adv-x="592" 
d="M85 150l64 64q-24 27 -37.5 62t-13.5 74t13.5 74t37.5 62l-64 64l11 11l63 -63q27 25 62 39t75 14t75 -14t62 -39l63 63l11 -11l-64 -64q24 -27 37.5 -62t13.5 -74t-13.5 -74t-37.5 -62l64 -64l-11 -11l-63 63q-27 -25 -62 -39t-75 -14t-75 14t-62 39l-63 -63zM389 189.5
q41 24.5 64 67t23 93.5t-23 93.5t-64 67t-93 24.5t-93 -24.5t-64 -67t-23 -93.5t23 -93.5t64 -67t93 -24.5t93 24.5z" />
    <glyph glyph-name="Euro" unicode="&#x20ac;" horiz-adv-x="574" 
d="M529 190q-30 -205 -203 -205q-116 0 -183 85t-71 236h-52v15h52v1q0 43 4 75h-56v15h58q19 127 88.5 200t174.5 73q91 0 171 -34v-190h-8q-4 102 -49.5 151.5t-135.5 49.5q-87 0 -141.5 -68t-60.5 -182h288v-15h-289v-14q0 -32 3 -62h286v-15h-284q17 -119 79.5 -190.5
t154.5 -71.5q71 0 112 36.5t54 111.5z" />
    <glyph glyph-name="dollar" unicode="$" horiz-adv-x="495" 
d="M404.5 43q-50.5 -49 -140.5 -57v-86h-20v85h-11q-47 0 -96 11.5t-92 32.5v198h8q7 -106 56 -163t135 -61v302l-50 22q-79 35 -112.5 77.5t-33.5 106.5q0 76 53 123t143 51v65h20v-65q90 -2 167 -41v-197h-7q-6 103 -45.5 157t-114.5 62v-288l56 -26q72 -33 103.5 -75
t31.5 -104q0 -81 -50.5 -130zM244 387v280h-8q-69 0 -109 -34.5t-40 -93.5q0 -33 11 -55t38.5 -41t81.5 -44zM368.5 42q37.5 37 37.5 101q0 50 -27 81.5t-96 62.5l-19 9v-293q67 2 104.5 39z" />
    <glyph glyph-name="cent" unicode="&#xa2;" horiz-adv-x="495" 
d="M397.5 35.5q-48.5 -48.5 -124.5 -51.5v-84h-20v84q-65 2 -114.5 36t-76.5 93.5t-27 137.5q0 133 57.5 210t160.5 83v86h20v-85q45 0 86 -7.5t72 -20.5v-176h-9q-9 168 -149 179v-476h14q67 0 107.5 32t51.5 92l9 -2q-9 -82 -57.5 -130.5zM102.5 179q21.5 -54 60.5 -88.5
t90 -43.5v474q-82 0 -127 -58t-45 -163q0 -67 21.5 -121z" />
    <glyph glyph-name="sterling" unicode="&#xa3;" horiz-adv-x="535" 
d="M490 176q0 -94 -34 -142.5t-100 -48.5q-20 0 -38.5 4t-48.5 12q-31 9 -54.5 13.5t-48.5 4.5q-38 0 -61 -7t-52 -27l-13 6q54 57 75 106.5t21 98.5q0 62 -18 114h-69v15h63l-10 24q-15 36 -22.5 63.5t-7.5 67.5q0 93 57 149t150 56q57 0 96.5 -9t77.5 -28v-179h-6
q-15 67 -34 110t-54 67.5t-91 24.5q-62 0 -98.5 -37.5t-36.5 -98.5q0 -42 8 -73.5t24 -75.5q16 -40 21 -61h215v-15h-212q5 -25 5 -49q0 -52 -20.5 -102t-66.5 -111l5 -4q21 18 40 25.5t48 7.5q20 0 38 -3.5t43 -11.5q32 -9 54.5 -14t50.5 -5q51 0 71.5 30t25.5 103h7z" />
    <glyph glyph-name="florin" unicode="&#x192;" horiz-adv-x="538" 
d="M516.5 712q14.5 -6 22.5 -17l-31 -55h-13q-13 21 -37 33.5t-52 12.5q-24 -13 -37 -40t-25 -79l-16 -74h105l-4 -15h-105l-96 -435q-16 -72 -53.5 -131t-82 -93t-80.5 -34q-18 0 -30 4t-25 19l21 60h13q21 -18 47 -24.5t58 -6.5q17 12 29 43.5t24 85.5l114 512h-84l4 15
h83l2 7q17 78 54 126.5t81 70t85 21.5q14 0 28.5 -6z" />
    <glyph glyph-name="yen" unicode="&#xa5;" horiz-adv-x="597" 
d="M148 8q49 2 72.5 9.5t32.5 26.5t9 58v94h-158v15h158v76h-158v15h152l-138 268q-28 54 -49.5 72t-58.5 20v8h227v-8q-70 -3 -70 -40q0 -8 4.5 -19.5t12.5 -27.5l133 -267l127 250q12 23 17 36.5t5 24.5q0 40 -67 43v8h188v-8q-40 -2 -64.5 -20t-48.5 -65l-140 -275h155
v-15h-159v-76h159v-15h-159v-94q0 -39 9 -58t32.5 -26.5t72.5 -9.5v-8h-296v8z" />
    <glyph glyph-name="ordfeminine" unicode="&#xaa;" horiz-adv-x="435" 
d="M394 386q-18 -68 -77 -68q-25 0 -39.5 16t-14.5 43v13q-6 -27 -35.5 -49.5t-72.5 -22.5q-48 0 -74 23.5t-26 58.5q0 87 125 111l83 16v19q0 54 -22 79.5t-68 25.5q-40 0 -67.5 -22.5t-34.5 -63.5l-6 1q7 55 42.5 86.5t90.5 31.5q59 0 89.5 -33t30.5 -95v-171
q0 -20 7.5 -31t21.5 -11q30 0 42 43h5zM263 400v117l-61 -12q-56 -11 -73 -34.5t-17 -53.5q0 -31 17 -53.5t51 -22.5q61 0 83 59z" />
    <glyph glyph-name="ordmasculine" unicode="&#xba;" horiz-adv-x="444" 
d="M97 369.5q-46 51.5 -46 131.5t46 131.5t125 51.5t125 -51.5t46 -131.5t-46 -131.5t-125 -51.5t-125 51.5zM333 501q0 171 -111 171t-111 -171t111 -171t111 171z" />
    <glyph glyph-name="numbersign" unicode="#" horiz-adv-x="625" 
d="M438 460l-46 -213h176v-19h-180l-52 -243h-20l52 243h-165l-52 -243h-20l52 243h-163v19h167l46 213h-176v19h180l47 221h20l-47 -221h165l47 221h20l-47 -221h163v-19h-167zM418 460h-165l-46 -213h165z" />
    <glyph glyph-name="fraction" unicode="&#x2044;" horiz-adv-x="60" 
d="M234 682h21l-427 -722h-23z" />
    <glyph glyph-name="onequarter" unicode="&#xbc;" horiz-adv-x="732" 
d="M54 301q45 2 60 9.5t15 27.5v305q0 14 -5 20.5t-18 6.5q-9 0 -21.5 -4t-27.5 -10l-2 4l118 49h4v-371q0 -20 15.5 -28t59.5 -9v-3h-198v3zM534 682h21l-427 -722h-23zM618 133v-73q0 -32 9 -43t37 -12v-5h-160v5q40 1 53 12.5t13 44.5v71h-174v8l200 261h21v-251h76v-18
h-75zM570 151v204l-156 -204h156z" />
    <glyph glyph-name="onehalf" unicode="&#xbd;" horiz-adv-x="720" 
d="M54 301q45 2 60 9.5t15 27.5v305q0 14 -5 20.5t-18 6.5q-9 0 -21.5 -4t-27.5 -10l-2 4l118 49h4v-371q0 -20 15.5 -28t59.5 -9v-3h-198v3zM534 682h21l-427 -722h-23zM408 5l63 58q57 52 86.5 89t40.5 68.5t11 70.5q0 43 -21.5 69.5t-61.5 26.5q-41 0 -67.5 -26.5
t-28.5 -74.5h-7q2 58 34.5 91.5t90.5 33.5q54 0 84 -29.5t30 -77.5q0 -41 -27.5 -85.5t-109.5 -117.5l-63 -56h134q32 0 49 11t27 36h3l-29 -92h-238v5z" />
    <glyph glyph-name="threequarters" unicode="&#xbe;" horiz-adv-x="776" 
d="M97.5 306q-32.5 17 -46.5 47l7 2q12 -23 34 -36.5t52 -13.5q42 0 67.5 25t25.5 67q0 106 -107 106h-12v6h12q47 0 75.5 28t28.5 74q0 37 -22.5 59t-60.5 22q-68 0 -88 -71l-6 2q7 41 38.5 63.5t78.5 22.5q52 0 82 -25t30 -65q0 -46 -33 -76.5t-86 -34.5v-2
q57 1 90.5 -28.5t33.5 -79.5q0 -48 -33 -78.5t-90 -30.5q-38 0 -70.5 17zM578 682h21l-427 -722h-23zM662 133v-73q0 -32 9 -43t37 -12v-5h-160v5q40 1 53 12.5t13 44.5v71h-174v8l200 261h21v-251h76v-18h-75zM614 151v204l-156 -204h156z" />
    <glyph glyph-name="percent" unicode="%" horiz-adv-x="727" 
d="M569 682h21l-427 -722h-23zM81 363.5q-41 47.5 -41 125.5t41 125.5t110 47.5t110 -47.5t41 -125.5t-41 -125.5t-110 -47.5t-110 47.5zM262 372.5q25 46.5 25 116.5t-25 116.5t-71 46.5t-71 -46.5t-25 -116.5t25 -116.5t71 -46.5t71 46.5zM426 27.5q-41 47.5 -41 125.5
t41 125.5t110 47.5t110 -47.5t41 -125.5t-41 -125.5t-110 -47.5t-110 47.5zM607 36.5q25 46.5 25 116.5t-25 116.5t-71 46.5t-71 -46.5t-25 -116.5t25 -116.5t71 -46.5t71 46.5z" />
    <glyph glyph-name="perthousand" unicode="&#x2030;" horiz-adv-x="1068" 
d="M569 682h21l-427 -722h-23zM81 363.5q-41 47.5 -41 125.5t41 125.5t110 47.5t110 -47.5t41 -125.5t-41 -125.5t-110 -47.5t-110 47.5zM262 372.5q25 46.5 25 116.5t-25 116.5t-71 46.5t-71 -46.5t-25 -116.5t25 -116.5t71 -46.5t71 46.5zM426 27.5q-41 47.5 -41 125.5
t41 125.5t110 47.5t110 -47.5t41 -125.5t-41 -125.5t-110 -47.5t-110 47.5zM767 27.5q-41 47.5 -41 125.5t41 125.5t110 47.5t110 -47.5t41 -125.5t-41 -125.5t-110 -47.5t-110 47.5zM607 36.5q25 46.5 25 116.5t-25 116.5t-71 46.5t-71 -46.5t-25 -116.5t25 -116.5
t71 -46.5t71 46.5zM948 36.5q25 46.5 25 116.5t-25 116.5t-71 46.5t-71 -46.5t-25 -116.5t25 -116.5t71 -46.5t71 46.5z" />
    <glyph glyph-name="plus" unicode="+" 
d="M490 301h-191v-191h-17v191h-192v15h192v191h17v-191h191v-15z" />
    <glyph glyph-name="minus" unicode="&#x2212;" 
d="M90 316h400v-15h-400v15z" />
    <glyph glyph-name="plusminus" unicode="&#xb1;" 
d="M490 301h-191v-191h-17v191h-192v15h192v191h17v-191h191v-15zM90 15h400v-15h-400v15z" />
    <glyph glyph-name="multiply" unicode="&#xd7;" 
d="M301 308l163 -163l-12 -12l-162 163l-163 -163l-12 12l163 163l-163 163l12 12l163 -163l162 163l12 -12z" />
    <glyph glyph-name="divide" unicode="&#xf7;" 
d="M256 416q-14 14 -14 34t14 34t34 14t34 -14t14 -34t-14 -34t-34 -14t-34 14zM91 316h398v-15h-398v15zM256 116q-14 14 -14 34t14 34t34 14t34 -14t14 -34t-14 -34t-34 -14t-34 14z" />
    <glyph glyph-name="equal" unicode="=" 
d="M91 395h399v-15h-399v15zM91 236h399v-15h-399v15z" />
    <glyph glyph-name="notequal" unicode="&#x2260;" 
d="M334 380l-71 -144h227v-15h-235l-76 -155h-17l76 155h-147v15h155l71 144h-226v15h233l78 158h17l-78 -158h149v-15h-156z" />
    <glyph glyph-name="approxequal" unicode="&#x2248;" 
d="M310.5 178.5q-30.5 8.5 -71.5 24.5q-36 14 -60 21t-53 7q-72 0 -102 -55l-5 1q14 41 47 61.5t92 20.5q29 0 53 -7t60 -21q41 -16 71.5 -24.5t71.5 -8.5q72 0 102 55l5 -1q-14 -41 -47 -61.5t-92 -20.5q-41 0 -71.5 8.5zM320.5 338.5q-30.5 8.5 -71.5 24.5q-36 14 -60 21
t-53 7q-72 0 -102 -55l-5 1q14 41 47 61.5t92 20.5q29 0 53 -7t60 -21q41 -16 71.5 -24.5t71.5 -8.5q72 0 102 55l5 -1q-14 -41 -47 -61.5t-92 -20.5q-41 0 -71.5 8.5z" />
    <glyph glyph-name="less" unicode="&#x3c;" 
d="M90 272v10l400 208v-18l-376 -195l376 -195v-18z" />
    <glyph glyph-name="greater" unicode="&#x3e;" 
d="M90 82l376 195l-376 195v18l400 -208v-10l-400 -208v18z" />
    <glyph glyph-name="lessequal" unicode="&#x2264;" 
d="M90 272v10l400 208v-18l-376 -195l376 -195v-18zM90 15h400v-15h-400v15z" />
    <glyph glyph-name="greaterequal" unicode="&#x2265;" 
d="M89 82l376 195l-376 195v18l400 -208v-10l-400 -208v18zM89 0v15h400v-15h-400z" />
    <glyph glyph-name="logicalnot" unicode="&#xac;" 
d="M489 173h-17v175h-381v15h398v-190z" />
    <glyph glyph-name="uni03BC" unicode="&#x3bc;" horiz-adv-x="553" 
d="M89 409q0 36 -8 48.5t-31 12.5q-19 0 -40 -4v8l139 26v-330q0 -73 32 -113t89 -40q40 0 73.5 22.5t50.5 60.5v309q0 36 -8 48.5t-31 12.5q-19 0 -40 -4v8l139 26v-423q0 -38 17.5 -52.5t61.5 -16.5v-8h-139v86q-18 -43 -59.5 -72t-92.5 -29q-56 0 -93 25t-51 74v-94
q0 -74 26.5 -104.5t94.5 -30.5v-5h-130v559z" />
    <glyph glyph-name="pi" unicode="&#x3c0;" horiz-adv-x="616" 
d="M437.5 5.5q-25.5 20.5 -25.5 67.5v402h-226v-475h-60v475h-47q-29 0 -38 -16t-11 -63h-5v94h549v-15h-102v-380q0 -70 52 -70q45 0 67 38l5 -2q-16 -36 -41.5 -56t-55.5 -20q-36 0 -61.5 20.5z" />
    <glyph glyph-name="partialdiff" unicode="&#x2202;" horiz-adv-x="474" 
d="M397 643.5q42 -71.5 42 -208.5q0 -132 -34.5 -234.5t-93.5 -159t-128 -56.5q-72 0 -110 45t-38 116q0 103 57 171t135.5 100t143.5 34q-8 122 -45.5 173t-97.5 51q-82 0 -149 -136l-4 2q36 89 85.5 131.5t115.5 42.5q79 0 121 -71.5zM300 66q37 64 55 155t18 170
q0 34 -1 50q-60 -2 -123 -35t-105.5 -95.5t-42.5 -149.5q0 -78 28 -118.5t80 -40.5q54 0 91 64z" />
    <glyph glyph-name="summation" unicode="&#x2211;" horiz-adv-x="655" 
d="M605 -14v-138h-572l-3 5l304 412l-285 431l2 4h526v-214h-5q-8 77 -25.5 119t-59 63.5t-121.5 21.5h-227l251 -379v-2l-298 -402h459q29 0 38 16t11 63h5z" />
    <glyph glyph-name="uni0394" unicode="&#x394;" horiz-adv-x="735" 
d="M10 3l342 702h5l368 -702l-2 -3h-711zM644 15l-316 605l-294 -605h610z" />
    <glyph glyph-name="uni03A9" unicode="&#x3a9;" horiz-adv-x="652" 
d="M567 75.5q9 15.5 11 62.5h5v-138h-225v150q58 16 99.5 58.5t63 100.5t21.5 121q0 73 -27.5 137.5t-76.5 103t-112 38.5t-112 -38.5t-76.5 -103t-27.5 -137.5q0 -63 21.5 -121t63 -100.5t99.5 -58.5v-150h-225v138h5q2 -47 11 -62.5t38 -15.5h154v85q-237 56 -237 285
q0 87 38.5 153t104 101.5t143.5 35.5t143.5 -35.5t104 -101.5t38.5 -153q0 -229 -237 -285v-85h154q29 0 38 15.5z" />
    <glyph glyph-name="degree" unicode="&#xb0;" horiz-adv-x="310" 
d="M81 544q-31 30 -31 75t31 75t74 30t74 -30t31 -75t-31 -75t-74 -30t-74 30zM216 554q25 24 25 65t-25 65t-61 24t-61 -24t-25 -65t25 -65t61 -24t61 24z" />
    <glyph glyph-name="infinity" unicode="&#x221e;" horiz-adv-x="630" 
d="M79 177.5q-34 34.5 -34 86.5t34 86.5t88 34.5q43 0 76.5 -28t71.5 -79q38 51 71.5 79t76.5 28q54 0 88 -34.5t34 -86.5t-34 -86.5t-88 -34.5q-43 0 -76.5 28t-71.5 79q-38 -51 -71.5 -79t-76.5 -28q-54 0 -88 34.5zM216 172q23 14 41.5 34t48.5 58q-30 38 -48.5 58
t-41.5 34t-50 14q-39 0 -71 -27.5t-32 -78.5t32 -78.5t71 -27.5q27 0 50 14zM535 185.5q32 27.5 32 78.5t-32 78.5t-71 27.5q-27 0 -50 -14t-41.5 -34t-48.5 -58q30 -38 48.5 -58t41.5 -34t50 -14q39 0 71 27.5z" />
    <glyph glyph-name="integral" unicode="&#x222b;" horiz-adv-x="500" 
d="M-3 -181l57 90l5 -1q0 -52 14.5 -80.5t42.5 -28.5q31 0 53 47t37 158l68 494q16 120 61.5 168.5t102.5 48.5q65 0 108 -32l-57 -90l-5 1q0 52 -14.5 80.5t-42.5 28.5q-31 0 -53 -47t-37 -158l-68 -494q-16 -120 -61.5 -168.5t-102.5 -48.5q-65 0 -108 32z" />
    <glyph glyph-name="radical" unicode="&#x221a;" horiz-adv-x="813" 
d="M112 455h-107v15h121l175 -449l306 745h201v-15h-189l-316 -766h-6z" />
    <glyph glyph-name="product" unicode="&#x220f;" horiz-adv-x="696" 
d="M615.5 683.5q-16.5 -6.5 -22.5 -22t-6 -48.5v-516q0 -37 6 -55t22.5 -25t50.5 -9v-8h-223v8q34 2 50.5 9t22.5 25t6 55v588h-348v-588q0 -37 6 -55t22.5 -25t50.5 -9v-8h-223v8q34 2 50.5 9t22.5 25t6 55v516q0 43 -15.5 60t-63.5 19v8h636v-8q-34 -2 -50.5 -8.5z" />
    <glyph glyph-name="lozenge" unicode="&#x25ca;" horiz-adv-x="534" 
d="M5 355v3l258 357h3l263 -371v-3l-258 -357h-3zM484 306l-246 347l-188 -260l246 -347z" />
    <glyph glyph-name="zero" unicode="0" horiz-adv-x="576" 
d="M164.5 18q-55.5 33 -87.5 96.5t-32 150.5t32 150.5t87.5 96.5t123.5 33t123.5 -33t87.5 -96.5t32 -150.5t-32 -150.5t-87.5 -96.5t-123.5 -33t-123.5 33zM419 71.5q42 70.5 42 193.5t-42 193.5t-131 70.5t-131 -70.5t-42 -193.5t42 -193.5t131 -70.5t131 70.5z" />
    <glyph glyph-name="one" unicode="1" horiz-adv-x="388" 
d="M40 10q56 3 82.5 9t36.5 20.5t10 44.5v336q0 31 -10 44t-34 13q-27 0 -79 -21l-2 8l180 81h5v-461q0 -29 10 -43.5t36.5 -21t82.5 -9.5v-10h-318v10z" />
    <glyph glyph-name="two" unicode="2" horiz-adv-x="451" 
d="M30 5l139 126q59 54 93 93t51.5 80.5t17.5 92.5q0 59 -31 92.5t-85 33.5q-59 0 -100.5 -39.5t-49.5 -104.5l-11 1q7 79 58 122t130 43q73 0 116 -36t43 -97q0 -43 -18 -79.5t-59.5 -80.5t-125.5 -118l-82 -73h310l-19 -61h-377v5z" />
    <glyph glyph-name="three" unicode="3" horiz-adv-x="470" 
d="M106.5 -127q-50.5 28 -71.5 76l11 4q25 -45 64 -68.5t88 -23.5q74 0 118 48t44 128q0 83 -49 126t-143 43h-19v10h19q82 0 129.5 44t47.5 119q0 67 -38.5 106t-103.5 39t-107.5 -36.5t-49.5 -97.5l-9 2q5 69 58.5 111t137.5 42q83 0 132.5 -42t49.5 -113
q0 -74 -54.5 -122.5t-144.5 -53.5v-3q98 2 156 -46t58 -130q0 -55 -26.5 -98.5t-73.5 -67.5t-107 -24q-66 0 -116.5 28z" />
    <glyph glyph-name="four" unicode="4" horiz-adv-x="509" 
d="M307 79h-297v8l331 443h28v-424h125v-27h-125v-219h-62v219zM307 106v357l-264 -357h264z" />
    <glyph glyph-name="five" unicode="5" horiz-adv-x="475" 
d="M20 -43l12 5q19 -48 60 -73t96 -25q75 0 121.5 53t46.5 140q0 56 -20.5 99t-57.5 66t-83 23q-70 0 -111 -37l-12 6l76 316h307l-19 -60h-281l-58 -235q21 14 50.5 22t61.5 8q108 0 162.5 -54.5t54.5 -148.5q0 -65 -30.5 -114.5t-83 -76t-116.5 -26.5q-129 0 -176 112z
" />
    <glyph glyph-name="six" unicode="6" horiz-adv-x="535" 
d="M442.5 354q57.5 -54 57.5 -148q0 -62 -28.5 -112.5t-79.5 -79.5t-114 -29q-68 0 -120 37.5t-80 105.5t-28 158q0 111 43 202t121 144t180 53q56 0 95 -14l-7 -16q-19 8 -38.5 11t-50.5 3q-121 0 -194 -89t-79 -277q24 50 69 77.5t103 27.5q93 0 150.5 -54zM390.5 50.5
q39.5 53.5 39.5 147.5q0 89 -42 141t-112 52q-51 0 -93.5 -30t-62.5 -80v-7q0 -137 39.5 -207t117.5 -70q74 0 113.5 53.5z" />
    <glyph glyph-name="seven" unicode="7" horiz-adv-x="432" 
d="M376 470h-351l19 60h380l3 -3l-338 -667h-56z" />
    <glyph glyph-name="eight" unicode="8" horiz-adv-x="537" 
d="M464.5 263q32.5 -40 32.5 -91q0 -53 -28.5 -95.5t-80.5 -67t-120 -24.5q-66 0 -117.5 21.5t-81 62t-29.5 94.5q0 64 42 107.5t133 72.5l-2 1q-153 69 -153 176q0 49 26 86.5t73.5 58t110.5 20.5q58 0 105 -19.5t73.5 -55.5t26.5 -83q0 -56 -38 -96t-122 -73l51 -24
q66 -31 98.5 -71zM153.5 461.5q26.5 -37.5 75.5 -61.5l77 -37q56 25 79 60t23 97q0 75 -36.5 114t-107.5 39q-65 0 -101 -32.5t-36 -92.5q0 -49 26.5 -86.5zM389 35.5q41 38.5 41 109.5q0 53 -27 89.5t-84 62.5l-93 41q-59 -19 -89 -64t-30 -111q0 -79 43.5 -122.5
t117.5 -43.5q80 0 121 38.5z" />
    <glyph glyph-name="nine" unicode="9" horiz-adv-x="535" 
d="M377 507.5q52 -37.5 80 -105.5t28 -158q0 -111 -43 -202t-121 -144t-180 -53q-56 0 -95 14l7 16q19 -8 38.5 -11t50.5 -3q121 0 194 89t79 277q-24 -50 -69 -77.5t-103 -27.5q-93 0 -150.5 54t-57.5 148q0 62 28.5 112.5t79.5 79.5t114 29q68 0 120 -37.5zM352.5 169
q42.5 30 62.5 80v7q0 143 -39 210t-118 67q-74 0 -113.5 -53.5t-39.5 -147.5q0 -89 42 -141t112 -52q51 0 93.5 30z" />
    <glyph glyph-name="arrowup" unicode="&#x2191;" horiz-adv-x="466" 
d="M406 491l-159 165v-696h-28v696l-159 -165h-10l183 259l183 -259h-10z" />
    <glyph glyph-name="arrowright" unicode="&#x2192;" horiz-adv-x="820" 
d="M501 133l165 159h-621v28h621l-165 159v10l259 -183l-259 -183v10z" />
    <glyph glyph-name="arrowdown" unicode="&#x2193;" horiz-adv-x="466" 
d="M416 219l-183 -259l-183 259h10l159 -165v696h28v-696l159 165h10z" />
    <glyph glyph-name="arrowleft" unicode="&#x2190;" horiz-adv-x="820" 
d="M775 292h-621l165 -159v-10l-259 183l259 183v-10l-165 -159h621v-28z" />
    <glyph glyph-name="uni2196" unicode="&#x2196;" horiz-adv-x="801" 
d="M731 0l-625 623l5 -228l-8 -7l-53 312l312 -53l-7 -8l-229 5l625 -624z" />
    <glyph glyph-name="uni2197" unicode="&#x2197;" horiz-adv-x="801" 
d="M751 700l-53 -312l-8 7l5 228l-625 -623l-20 20l625 624l-229 -5l-7 8z" />
    <glyph glyph-name="uni2199" unicode="&#x2199;" horiz-adv-x="801" 
d="M355 61l7 -8l-312 -53l53 312l8 -7l-5 -228l625 623l20 -20l-625 -624z" />
    <glyph glyph-name="uni2198" unicode="&#x2198;" horiz-adv-x="801" 
d="M446 61l229 -5l-625 624l20 20l625 -623l-5 228l8 7l53 -312l-312 53z" />
    <glyph glyph-name="estimated" unicode="&#x212e;" horiz-adv-x="695" 
d="M479 39q59 26 96 78l17 -13q-40 -60 -104.5 -88t-138.5 -28q-90 0 -159 42t-107 114.5t-38 162.5t38.5 164t108 116.5t157.5 42.5q91 0 159 -41t105 -115t37 -170h-532v-173q37 -56 95.5 -87t135.5 -31q71 0 130 26zM213.5 573.5q-58.5 -31.5 -95.5 -90.5v-156h452v174
q-37 50 -93 77t-128 27q-77 0 -135.5 -31.5z" />
    <glyph glyph-name="uniF8FF" unicode="&#xf8ff;" horiz-adv-x="662" 
d="M598 370q44 -63 44 -147q0 -87 -42.5 -155t-118.5 -106t-173 -38q-84 0 -149.5 26.5t-102 73.5t-36.5 108q0 70 46 111t126 41q59 0 108.5 -23t78.5 -62t29 -85q0 -45 -27.5 -72.5t-72.5 -27.5q-43 0 -70.5 27.5t-27.5 69.5q0 38 28 64.5t68 26.5q22 0 40 -6
q-18 24 -48.5 38t-65.5 14q-51 0 -81 -31.5t-30 -86.5q0 -51 26.5 -91.5t73 -63t105.5 -22.5q82 0 132.5 41t50.5 106q0 46 -30 84t-99 72l-152 74q-75 37 -114 90.5t-39 120.5q0 65 34.5 116t96 79t141.5 28q68 0 142.5 -17.5t121.5 -44.5l-72 -194h-5q-14 61 -51.5 111
t-89 79t-106.5 29q-43 0 -67 -18t-24 -49q0 -28 23.5 -52t77.5 -50l163 -79q94 -46 138 -109z" />
    <glyph glyph-name="bar.case" horiz-adv-x="180" 
d="M100 -94h-20v854h20v-854z" />
    <glyph glyph-name="brokenbar.case" horiz-adv-x="180" 
d="M100 398h-20v362h20v-362zM80 298h20v-392h-20v392z" />
    <glyph glyph-name="parenleft.case" horiz-adv-x="277" 
d="M160.5 -27.5q-51.5 61.5 -86 154.5t-34.5 206t34.5 206t86 154.5t102.5 89.5l4 -3q-89 -75 -132 -191t-43 -256t43 -256t132 -191l-4 -3q-51 28 -102.5 89.5z" />
    <glyph glyph-name="parenright.case" horiz-adv-x="277" 
d="M116.5 693.5q51.5 -61.5 86 -154.5t34.5 -206t-34.5 -206t-86 -154.5t-102.5 -89.5l-4 3q89 75 132 191t43 256t-43 256t-132 191l4 3q51 -28 102.5 -89.5z" />
    <glyph glyph-name="hyphen.case" horiz-adv-x="377" 
d="M45 368h287v-25h-287v25z" />
    <glyph glyph-name="bracketleft.case" horiz-adv-x="229" 
d="M156 744q-16 -9 -16 -38v-746q0 -29 16 -38t63 -11v-5h-139v854h139v-5q-47 -2 -63 -11z" />
    <glyph glyph-name="bracketright.case" horiz-adv-x="229" 
d="M10 760h139v-854h-139v5q47 2 63 11t16 38v746q0 29 -16 38t-63 11v5z" />
    <glyph glyph-name="braceleft.case" horiz-adv-x="272" 
d="M141 -55.5q-42 48.5 -42 131.5v164q0 61 -59 96v6q59 35 59 108v140q0 83 42 131.5t116 51.5v-5q-52 -7 -75 -45t-23 -118v-133q0 -35 -13.5 -59.5t-47.5 -48.5q34 -24 47.5 -48.5t13.5 -59.5v-195q0 -78 23 -116.5t75 -46.5v-5q-74 3 -116 51.5z" />
    <glyph glyph-name="braceright.case" horiz-adv-x="272" 
d="M15 -102q56 8 77 48.5t21 114.5v169q0 44 15.5 66t29 31l16.5 11q-3 2 -20 13.5t-29 36t-12 58.5v159q0 74 -21 114.5t-77 48.5v5q77 -3 117.5 -52.5t40.5 -130.5v-128q0 -41 17 -61t42 -35v-6q-25 -15 -42 -37.5t-17 -70.5v-176q0 -81 -40.5 -130.5t-117.5 -52.5v5z" />
    <glyph glyph-name="endash.case" horiz-adv-x="565" 
d="M45 363h475v-15h-475v15z" />
    <glyph glyph-name="emdash.case" horiz-adv-x="830" 
d="M45 363h740v-15h-740v15z" />
    <glyph glyph-name="guilsinglleft.case" horiz-adv-x="320" 
d="M60 295v6l196 200l4 -3l-128 -200l128 -200l-4 -3z" />
    <glyph glyph-name="guilsinglright.case" horiz-adv-x="320" 
d="M60 98l128 200l-128 200l4 3l196 -200v-6l-196 -200z" />
    <glyph glyph-name="exclamdown.case" horiz-adv-x="250" 
d="M161 697.5q14 -14.5 14 -35.5t-14 -35.5t-36 -14.5t-36 14.5t-14 35.5t14 35.5t36 14.5t36 -14.5zM128 522l40 -473l1 -18q0 -51 -44 -51t-44 51l1 18l40 473h6z" />
    <glyph glyph-name="questiondown.case" horiz-adv-x="406" 
d="M275 697.5q14 -14.5 14 -35.5t-14 -35.5t-36 -14.5t-36 14.5t-14 35.5t14 35.5t36 14.5t36 -14.5zM246 489q-1 -46 -13 -72.5t-37 -55.5q-50 -56 -76 -100t-26 -100q0 -76 36.5 -116.5t103.5 -40.5q70 0 110.5 34.5t51.5 88.5l5 -1q-10 -62 -57.5 -104t-132.5 -42
q-53 0 -94 21t-64 58t-23 84q0 60 30.5 108.5t88.5 93.5q49 38 67 72.5t18 89.5v21h13z" />
    <glyph glyph-name="a.sc" horiz-adv-x="592" 
d="M531.5 21.5q13.5 -12.5 42.5 -15.5v-6h-188v6q28 2 40 9.5t12 23.5q0 12 -10 42l-43 117h-215l-41 -110q-9 -24 -9 -41q0 -20 15 -29.5t48 -11.5v-6h-165v6q36 4 53.5 20.5t34.5 59.5l168 444h56l173 -455q15 -41 28.5 -53.5zM380 212l-102 277l-103 -277h205z" />
    <glyph glyph-name="b.sc" horiz-adv-x="502" 
d="M415 235.5q50 -35.5 50 -98.5q0 -65 -53.5 -101t-148.5 -36h-229v6q38 2 50 15.5t12 53.5v387q0 35 -12.5 47.5t-49.5 14.5v6h216q93 0 141 -32.5t48 -94.5q0 -54 -44.5 -89.5t-117.5 -40.5v-2q88 0 138 -35.5zM162 518v-243h62q75 0 110 30.5t35 95.5q0 57 -36 87
t-106 30h-65zM356.5 44q37.5 32 37.5 92q0 63 -37.5 95.5t-110.5 32.5h-84v-252h87q70 0 107.5 32z" />
    <glyph glyph-name="c.sc" horiz-adv-x="538" 
d="M154.5 17.5q-54.5 32.5 -84 91.5t-29.5 137q0 90 33 157.5t93.5 104.5t140.5 37q90 0 171 -29v-181h-8q-8 94 -53.5 140.5t-131.5 46.5q-88 0 -140 -60.5t-52 -162.5q0 -74 29 -132.5t79.5 -92t113.5 -33.5q72 0 114 30t56 91l7 -1q-16 -87 -69.5 -131.5t-142.5 -44.5
q-72 0 -126.5 32.5z" />
    <glyph glyph-name="d.sc" horiz-adv-x="575" 
d="M451 460.5q80 -69.5 80 -195.5t-80.5 -195.5t-224.5 -69.5h-192v6q38 2 50 15.5t12 53.5v387q0 33 -12.5 46.5t-49.5 15.5v6h192q145 0 225 -69.5zM391 68q64 56 64 196t-64.5 197t-188.5 57h-40v-506h40q125 0 189 56z" />
    <glyph glyph-name="e.sc" horiz-adv-x="496" 
d="M448 194l-20 -194h-394v6q38 2 50 15.5t12 53.5v387q0 35 -12.5 47.5t-49.5 14.5v6h382l17 -165h-6q-16 63 -35 95t-48 45t-79 13h-103v-240h73q49 0 72 23t33 80h6v-220h-6q-11 59 -33.5 82t-71.5 23h-73v-254h101q60 0 93.5 15t53 53.5t32.5 113.5h6z" />
    <glyph glyph-name="f.sc" horiz-adv-x="459" 
d="M433 365h-6q-17 64 -41.5 97t-58.5 44.5t-87 11.5h-78v-241h73q50 0 74 24t31 80h6v-220h-6q-7 58 -31.5 81t-73.5 23h-73v-187q0 -29 7 -43.5t26 -20.5t57 -8v-6h-218v5q38 2 50 15.5t12 53.5v388q0 33 -12.5 46.5t-49.5 15.5v6h381z" />
    <glyph glyph-name="g.sc" horiz-adv-x="604" 
d="M178.5 19.5q-65.5 34.5 -101.5 97.5t-36 146q0 85 36.5 149t104 98.5t158.5 34.5q84 0 168 -25l-6 -167h-8q-3 84 -47 130t-122 46q-64 0 -111 -32t-72.5 -90.5t-25.5 -136.5q0 -79 27.5 -140.5t76.5 -95.5t112 -34q37 0 70.5 12t47.5 31v124q0 30 -8.5 45t-32 22.5
t-73.5 12.5v6h239v-6q-37 -2 -49.5 -14t-12.5 -48v-146q-81 -54 -184 -54q-85 0 -150.5 34.5z" />
    <glyph glyph-name="h.sc" horiz-adv-x="607" 
d="M523 509q-12 -13 -12 -50v-388q0 -37 12 -50t50 -15v-6h-190v6q38 2 50 15.5t12 49.5v188h-283v-188q0 -36 12 -49.5t50 -15.5v-6h-190v6q38 2 50 15t12 50v388q0 37 -12 50t-50 15v6h190v-6q-38 -2 -50 -15.5t-12 -49.5v-186h283v186q0 36 -12 49.5t-50 15.5v6h190v-6
q-38 -2 -50 -15z" />
    <glyph glyph-name="i.sc" horiz-adv-x="258" 
d="M174 509q-12 -13 -12 -50v-388q0 -37 12 -50t50 -15v-6h-190v6q38 2 50 15t12 50v388q0 37 -12 50t-50 15v6h190v-6q-38 -2 -50 -15z" />
    <glyph glyph-name="j.sc" horiz-adv-x="251" 
d="M233 524q-38 -2 -50 -14.5t-12 -47.5v-383q0 -68 -25.5 -102.5t-81.5 -34.5q-38 0 -62 18l4 5q20 -12 43 -12q30 0 43 21.5t13 62.5v425q0 33 -13 46.5t-49 15.5v6h190v-6z" />
    <glyph glyph-name="k.sc" horiz-adv-x="558" 
d="M174 509q-12 -13 -12 -47v-387q0 -39 12 -53t50 -16v-6h-190v6q38 2 50 15.5t12 53.5v387q0 33 -12.5 46.5t-49.5 15.5v6h190v-6q-38 -2 -50 -15zM162 275l186 169q26 24 35 35t9 20q0 12 -11.5 18t-41.5 7v6h169v-6q-37 -4 -63.5 -18.5t-68.5 -53.5l-157 -144l226 -248
q28 -31 45.5 -41.5t49.5 -12.5v-6h-134z" />
    <glyph glyph-name="l.sc" horiz-adv-x="458" 
d="M425 196l-20 -196h-371v6q38 2 50 15.5t12 53.5v387q0 33 -12.5 46.5t-49.5 15.5v6h190v-6q-38 -2 -50 -15t-12 -47v-450h60q67 0 103 14.5t57 53t37 116.5h6z" />
    <glyph glyph-name="m.sc" horiz-adv-x="732" 
d="M133 479l-21 -385q-2 -36 4 -53.5t25 -25t58 -9.5v-6h-170v6q36 3 49.5 21t16.5 67l20 350q2 33 -2 49t-17 22.5t-41 8.5v6h127l185 -441l185 441h126v-6q-29 -2 -41.5 -8.5t-16.5 -22t-2 -49.5l20 -363q3 -42 16.5 -57.5t48.5 -17.5v-6h-193v6q38 3 50.5 19t10.5 59
l-18 399l-209 -498h-2z" />
    <glyph glyph-name="n.sc" horiz-adv-x="605" 
d="M583 530v-6q-43 -2 -60 -21t-17 -63v-450h-2l-375 467v-360q0 -50 18 -69t66 -22v-6h-179v6q45 2 61 23t16 68v381q-18 21 -35 32t-42 14v6h124l331 -410v320q0 42 -17 61.5t-67 22.5v6h178z" />
    <glyph glyph-name="o.sc" horiz-adv-x="626" 
d="M173 21q-62 36 -97 100t-35 144t35 144t97 100t140 36t140 -36t97 -100t35 -144t-35 -144t-97 -100t-140 -36t-140 36zM459 69q51 68 51 196q0 131 -50 197.5t-147 66.5t-147 -66.5t-50 -197.5q0 -128 51 -196t146 -68t146 68z" />
    <glyph glyph-name="p.sc" horiz-adv-x="466" 
d="M162 236v-158q0 -29 7 -43.5t26 -20.5t57 -8v-6h-218v6q38 2 50 15.5t12 53.5v387q0 35 -12.5 47.5t-49.5 14.5v6h198q97 0 151 -38.5t54 -108.5t-53.5 -108.5t-151.5 -38.5h-70zM162 518v-270h53q74 0 112 34t38 101t-38 101t-112 34h-53z" />
    <glyph glyph-name="q.sc" horiz-adv-x="626" 
d="M418 -125.5q-116 47.5 -259 154.5q-59 44 -88.5 104.5t-29.5 131.5q0 80 35 144t97 100t140 36t140 -36t97 -100t35 -144q0 -81 -33 -144.5t-95.5 -99.5t-149.5 -36q183 -131 414 -131q63 0 110 5.5t95 23.5l5 -8q-99 -48 -255 -48q-142 0 -258 47.5zM459 69
q51 68 51 196q0 131 -50 197.5t-147 66.5t-147 -66.5t-50 -197.5q0 -128 51 -196t146 -68t146 68z" />
    <glyph glyph-name="r.sc" horiz-adv-x="550" 
d="M485 29q19 -20 51 -23v-6h-114q-12 19 -43 84l-45 95q-17 35 -31 53t-34.5 25.5t-55.5 7.5h-51v-190q0 -39 12 -53t50 -16v-6h-190v6q38 2 50 15.5t12 53.5v387q0 33 -12.5 46.5t-49.5 15.5v6h200q101 0 151 -30t50 -98q0 -61 -52 -95t-127 -34v-3q48 0 87 -21t60 -67
l46 -98q17 -35 36 -55zM324 305q38 29 38 96q0 61 -31 89t-106 28h-63v-242h46q78 0 116 29z" />
    <glyph glyph-name="s.sc" horiz-adv-x="445" 
d="M125 -5q-44 10 -81 29l5 157h6q8 -86 53.5 -132.5t122.5 -46.5q58 0 91.5 29t33.5 79q0 38 -23 63.5t-78 47.5l-82 34q-67 29 -96 63t-29 85q0 64 50.5 103t134.5 39q82 0 153 -34l-6 -153h-5q-15 171 -163 171q-57 0 -90 -26t-33 -71q0 -36 22 -58t85 -49l92 -39
q61 -26 88.5 -60t27.5 -84q0 -73 -51.5 -115t-140.5 -42q-43 0 -87 10z" />
    <glyph glyph-name="t.sc" horiz-adv-x="493" 
d="M468 545v-189h-6q-7 69 -23.5 103t-43.5 45.5t-74 11.5h-41v-438q0 -29 7 -43.5t25.5 -20.5t56.5 -8v-6h-245v6q38 2 56.5 8t25.5 20.5t7 43.5v438h-41q-44 0 -69.5 -8t-44.5 -42.5t-27 -109.5h-6v189h4q9 -8 23 -11.5t37 -3.5h315q23 0 37 3.5t23 11.5h4z" />
    <glyph glyph-name="u.sc" horiz-adv-x="564" 
d="M546 524q-37 -2 -53 -21t-16 -61v-240q0 -108 -47.5 -162.5t-144.5 -54.5t-151 54.5t-54 158.5v264q0 33 -12.5 46.5t-49.5 15.5v6h195v-6q-39 -2 -51.5 -14.5t-12.5 -48.5v-253q0 -94 39 -142.5t116 -48.5q155 0 155 194v230q0 42 -21.5 61.5t-69.5 21.5v6h178v-6z" />
    <glyph glyph-name="v.sc" horiz-adv-x="572" 
d="M95 449q-17 42 -33 58t-48 17v6h206v-6q-34 -2 -49.5 -10.5t-15.5 -27.5q0 -15 9 -37l147 -362l136 346q12 30 12 48q0 21 -15.5 31t-47.5 12v6h162v-6q-35 -3 -54.5 -23.5t-37.5 -65.5l-177 -443h-4z" />
    <glyph glyph-name="w.sc" horiz-adv-x="781" 
d="M767 530v-6q-31 -1 -47.5 -21t-31.5 -63l-159 -448h-3l-138 364l-128 -364h-3l-171 453q-17 46 -31 62t-41 17v6h194v-6q-30 -1 -43.5 -10.5t-13.5 -29.5q0 -19 10 -46l121 -333l97 275l-27 73q-14 36 -27 52t-46 19v6h192v-6q-29 -2 -42 -11t-13 -28q0 -12 6 -29
l129 -349l118 331q9 26 9 44q0 21 -14.5 31t-46.5 11v6h150z" />
    <glyph glyph-name="x.sc" horiz-adv-x="593" 
d="M520.5 26q23.5 -18 54.5 -20v-6h-210v6q49 3 49 30q0 11 -8.5 27t-28.5 44l-98 136l-107 -136q-37 -47 -37 -65q0 -16 16 -25.5t46 -10.5v-6h-179v6q32 3 58 21.5t63 64.5l130 165l-140 194q-28 39 -48.5 54.5t-56.5 18.5v6h211v-6q-28 -2 -41 -8t-13 -19q0 -9 7.5 -22.5
t32.5 -47.5l91 -127l100 125q21 26 29 40.5t8 24.5q0 31 -64 34v6h176v-6q-32 -2 -56.5 -20t-63.5 -67l-119 -151l141 -196q34 -46 57.5 -64z" />
    <glyph glyph-name="y.sc" horiz-adv-x="528" 
d="M510 530v-6q-31 -2 -51 -18t-39 -49l-125 -217v-162q0 -29 8.5 -44t27 -20.5t53.5 -7.5v-6h-244v6q38 2 56.5 8t25.5 20.5t7 43.5v159l-125 217q-23 40 -40.5 54t-45.5 16v6h193v-6q-55 -3 -55 -33q0 -12 14 -37l114 -202l111 191q17 29 17 46q0 32 -53 35v6h151z" />
    <glyph glyph-name="z.sc" horiz-adv-x="487" 
d="M33 4l339 513h-117q-64 0 -99 -14t-56 -49.5t-37 -107.5h-6l21 184h372v-4l-337 -513h133q66 0 103.5 15t60 51t37.5 106h6l-22 -185h-398v4z" />
    <glyph glyph-name="aacute.sc" horiz-adv-x="592" 
d="M302 566h-12l71 134h76v-4zM531.5 21.5q13.5 -12.5 42.5 -15.5v-6h-188v6q28 2 40 9.5t12 23.5q0 12 -10 42l-43 117h-215l-41 -110q-9 -24 -9 -41q0 -20 15 -29.5t48 -11.5v-6h-165v6q36 4 53.5 20.5t34.5 59.5l168 444h56l173 -455q15 -41 28.5 -53.5zM380 212
l-102 277l-103 -277h205z" />
    <glyph glyph-name="abreve.sc" horiz-adv-x="592" 
d="M223 606.5q-28 31.5 -28 93.5h10q2 -41 27 -61.5t63 -20.5q39 0 64 20.5t27 61.5h10q0 -62 -28 -93.5t-73 -31.5q-44 0 -72 31.5zM531.5 21.5q13.5 -12.5 42.5 -15.5v-6h-188v6q28 2 40 9.5t12 23.5q0 12 -10 42l-43 117h-215l-41 -110q-9 -24 -9 -41q0 -20 15 -29.5
t48 -11.5v-6h-165v6q36 4 53.5 20.5t34.5 59.5l168 444h56l173 -455q15 -41 28.5 -53.5zM380 212l-102 277l-103 -277h205z" />
    <glyph glyph-name="acircumflex.sc" horiz-adv-x="592" 
d="M195 567h-9l101 133h17l101 -133h-10l-100 83zM531.5 21.5q13.5 -12.5 42.5 -15.5v-6h-188v6q28 2 40 9.5t12 23.5q0 12 -10 42l-43 117h-215l-41 -110q-9 -24 -9 -41q0 -20 15 -29.5t48 -11.5v-6h-165v6q36 4 53.5 20.5t34.5 59.5l168 444h56l173 -455
q15 -41 28.5 -53.5zM380 212l-102 277l-103 -277h205z" />
    <glyph glyph-name="adieresis.sc" horiz-adv-x="592" 
d="M179 601.5q-14 13.5 -14 34.5t14 34.5t34 13.5t34 -13.5t14 -34.5t-14 -34.5t-34 -13.5t-34 13.5zM346 601.5q-14 13.5 -14 34.5t14 34.5t34 13.5t34 -13.5t14 -34.5t-14 -34.5t-34 -13.5t-34 13.5zM531.5 21.5q13.5 -12.5 42.5 -15.5v-6h-188v6q28 2 40 9.5t12 23.5
q0 12 -10 42l-43 117h-215l-41 -110q-9 -24 -9 -41q0 -20 15 -29.5t48 -11.5v-6h-165v6q36 4 53.5 20.5t34.5 59.5l168 444h56l173 -455q15 -41 28.5 -53.5zM380 212l-102 277l-103 -277h205z" />
    <glyph glyph-name="agrave.sc" horiz-adv-x="592" 
d="M290 566l-135 130v4h77l70 -134h-12zM531.5 21.5q13.5 -12.5 42.5 -15.5v-6h-188v6q28 2 40 9.5t12 23.5q0 12 -10 42l-43 117h-215l-41 -110q-9 -24 -9 -41q0 -20 15 -29.5t48 -11.5v-6h-165v6q36 4 53.5 20.5t34.5 59.5l168 444h56l173 -455q15 -41 28.5 -53.5z
M380 212l-102 277l-103 -277h205z" />
    <glyph glyph-name="amacron.sc" horiz-adv-x="592" 
d="M418 624h-245v22h245v-22zM531.5 21.5q13.5 -12.5 42.5 -15.5v-6h-188v6q28 2 40 9.5t12 23.5q0 12 -10 42l-43 117h-215l-41 -110q-9 -24 -9 -41q0 -20 15 -29.5t48 -11.5v-6h-165v6q36 4 53.5 20.5t34.5 59.5l168 444h56l173 -455q15 -41 28.5 -53.5zM380 212l-102 277
l-103 -277h205z" />
    <glyph glyph-name="aogonek.sc" horiz-adv-x="592" 
d="M318.5 -42q-24.5 -29 -24.5 -66q0 -28 15.5 -42.5t43.5 -14.5q22 0 40 10.5t27 28.5l4 -2q-30 -82 -101 -82q-36 0 -56.5 20t-20.5 54q0 51 40.5 90t99.5 52q28 2 40 9.5t12 23.5q0 12 -10 42l-43 117h-215l-41 -110q-9 -24 -9 -41q0 -20 15 -29.5t48 -11.5v-6h-165v6
q36 4 53.5 20.5t34.5 59.5l168 444h56l173 -455q15 -41 28.5 -53.5t42.5 -15.5v-6h-188q-43 -13 -67.5 -42zM380 212l-102 277l-103 -277h205z" />
    <glyph glyph-name="aring.sc" horiz-adv-x="592" 
d="M234 575.5q-24 24.5 -24 62.5t24 62.5t62 24.5q37 0 61 -24.5t24 -62.5t-24 -62.5t-61 -24.5q-38 0 -62 24.5zM248.5 689q-18.5 -19 -18.5 -51t18.5 -51t47.5 -19q28 0 46.5 19t18.5 51t-18.5 51t-46.5 19q-29 0 -47.5 -19zM531.5 21.5q13.5 -12.5 42.5 -15.5v-6h-188v6
q28 2 40 9.5t12 23.5q0 12 -10 42l-43 117h-215l-41 -110q-9 -24 -9 -41q0 -20 15 -29.5t48 -11.5v-6h-165v6q36 4 53.5 20.5t34.5 59.5l168 444h56l173 -455q15 -41 28.5 -53.5zM380 212l-102 277l-103 -277h205z" />
    <glyph glyph-name="atilde.sc" horiz-adv-x="592" 
d="M198 628q-17 -10 -22 -33h-4q3 40 24 60.5t52 20.5q16 0 27.5 -4.5t30.5 -14.5q16 -9 27 -13t24 -4q20 0 37 10t22 33h3q-2 -40 -23 -60.5t-52 -20.5q-16 0 -28 4.5t-31 14.5q-14 8 -25 12.5t-25 4.5q-20 0 -37 -10zM531.5 21.5q13.5 -12.5 42.5 -15.5v-6h-188v6
q28 2 40 9.5t12 23.5q0 12 -10 42l-43 117h-215l-41 -110q-9 -24 -9 -41q0 -20 15 -29.5t48 -11.5v-6h-165v6q36 4 53.5 20.5t34.5 59.5l168 444h56l173 -455q15 -41 28.5 -53.5zM380 212l-102 277l-103 -277h205z" />
    <glyph glyph-name="ae.sc" horiz-adv-x="740" 
d="M692 194l-20 -194h-363v6q27 2 40 7.5t17.5 19.5t4.5 42v123h-178l-77 -136q-13 -23 -13 -35q0 -11 9.5 -15t39.5 -6v-6h-138v6q29 2 47.5 17.5t43.5 57.5l264 449h290l18 -165h-2q-23 89 -72 126q-39 30 -119 30h-49v-253h64q57 0 82 20t33 70h2v-190h-2q-7 50 -32.5 70
t-82.5 20h-64v-249h47q102 0 146 43q43 41 62 142h2zM371 211v299l-170 -299h170z" />
    <glyph glyph-name="aeacute.sc" horiz-adv-x="740" 
d="M487 566h-12l71 134h76v-4zM692 194l-20 -194h-363v6q27 2 40 7.5t17.5 19.5t4.5 42v123h-178l-77 -136q-13 -23 -13 -35q0 -11 9.5 -15t39.5 -6v-6h-138v6q29 2 47.5 17.5t43.5 57.5l264 449h290l18 -165h-2q-23 89 -72 126q-39 30 -119 30h-49v-253h64q57 0 82 20
t33 70h2v-190h-2q-7 50 -32.5 70t-82.5 20h-64v-249h47q102 0 146 43q43 41 62 142h2zM371 211v299l-170 -299h170z" />
    <glyph glyph-name="cacute.sc" horiz-adv-x="538" 
d="M297 566l71 134h76v-4l-135 -130h-12zM154.5 17.5q-54.5 32.5 -84 91.5t-29.5 137q0 90 33 157.5t93.5 104.5t140.5 37q90 0 171 -29v-181h-8q-8 94 -53.5 140.5t-131.5 46.5q-88 0 -140 -60.5t-52 -162.5q0 -74 29 -132.5t79.5 -92t113.5 -33.5q72 0 114 30t56 91l7 -1
q-16 -87 -69.5 -131.5t-142.5 -44.5q-72 0 -126.5 32.5z" />
    <glyph glyph-name="ccaron.sc" horiz-adv-x="538" 
d="M193 700h9l100 -83l100 83h10l-101 -133h-17zM154.5 17.5q-54.5 32.5 -84 91.5t-29.5 137q0 90 33 157.5t93.5 104.5t140.5 37q90 0 171 -29v-181h-8q-8 94 -53.5 140.5t-131.5 46.5q-88 0 -140 -60.5t-52 -162.5q0 -74 29 -132.5t79.5 -92t113.5 -33.5q72 0 114 30
t56 91l7 -1q-16 -87 -69.5 -131.5t-142.5 -44.5q-72 0 -126.5 32.5z" />
    <glyph glyph-name="ccedilla.sc" horiz-adv-x="538" 
d="M303 -14l-35 -55q10 9 32 9q29 0 50 -20t21 -55t-22.5 -57.5t-55.5 -22.5q-28 0 -48 16t-26 43l6 3q7 -17 21 -26.5t31 -9.5q23 0 38 15t15 40q0 23 -13.5 36.5t-33.5 13.5q-12 0 -19.5 -2.5t-15.5 -10.5l-6 4l47 78h-8q-72 0 -126.5 32.5t-84 91.5t-29.5 137
q0 90 33 157.5t93.5 104.5t140.5 37q90 0 171 -29v-181h-8q-8 94 -53.5 140.5t-131.5 46.5q-88 0 -140 -60.5t-52 -162.5q0 -74 29 -132.5t79.5 -92t113.5 -33.5q72 0 114 30t56 91l7 -1q-30 -164 -190 -175z" />
    <glyph glyph-name="ccircumflex.sc" horiz-adv-x="538" 
d="M294 700h17l101 -133h-10l-100 83l-100 -83h-9zM154.5 17.5q-54.5 32.5 -84 91.5t-29.5 137q0 90 33 157.5t93.5 104.5t140.5 37q90 0 171 -29v-181h-8q-8 94 -53.5 140.5t-131.5 46.5q-88 0 -140 -60.5t-52 -162.5q0 -74 29 -132.5t79.5 -92t113.5 -33.5q72 0 114 30
t56 91l7 -1q-16 -87 -69.5 -131.5t-142.5 -44.5q-72 0 -126.5 32.5z" />
    <glyph glyph-name="cdotaccent.sc" horiz-adv-x="538" 
d="M266.5 598q-14.5 15 -14.5 36t14.5 36t36.5 15t36.5 -15t14.5 -36t-14.5 -36t-36.5 -15t-36.5 15zM154.5 17.5q-54.5 32.5 -84 91.5t-29.5 137q0 90 33 157.5t93.5 104.5t140.5 37q90 0 171 -29v-181h-8q-8 94 -53.5 140.5t-131.5 46.5q-88 0 -140 -60.5t-52 -162.5
q0 -74 29 -132.5t79.5 -92t113.5 -33.5q72 0 114 30t56 91l7 -1q-16 -87 -69.5 -131.5t-142.5 -44.5q-72 0 -126.5 32.5z" />
    <glyph glyph-name="eth.sc" horiz-adv-x="575" 
d="M451 460.5q80 -69.5 80 -195.5t-80.5 -195.5t-224.5 -69.5h-192v6q38 2 50 15.5t12 53.5v175h-62v10h62v202q0 33 -12.5 46.5t-49.5 15.5v6h192q145 0 225 -69.5zM391 68q64 56 64 196t-64.5 197t-188.5 57h-40v-258h163v-10h-163v-238h40q125 0 189 56z" />
    <glyph glyph-name="dcaron.sc" horiz-adv-x="575" 
d="M165 700h9l100 -83l100 83h10l-101 -133h-17zM451 460.5q80 -69.5 80 -195.5t-80.5 -195.5t-224.5 -69.5h-192v6q38 2 50 15.5t12 53.5v387q0 33 -12.5 46.5t-49.5 15.5v6h192q145 0 225 -69.5zM391 68q64 56 64 196t-64.5 197t-188.5 57h-40v-506h40q125 0 189 56z" />
    <glyph glyph-name="dcroat.sc" horiz-adv-x="575" 
d="M451 460.5q80 -69.5 80 -195.5t-80.5 -195.5t-224.5 -69.5h-192v6q38 2 50 15.5t12 53.5v175h-62v10h62v202q0 33 -12.5 46.5t-49.5 15.5v6h192q145 0 225 -69.5zM391 68q64 56 64 196t-64.5 197t-188.5 57h-40v-258h163v-10h-163v-238h40q125 0 189 56z" />
    <glyph glyph-name="eacute.sc" horiz-adv-x="496" 
d="M254 566h-12l71 134h76v-4zM448 194l-20 -194h-394v6q38 2 50 15.5t12 53.5v387q0 35 -12.5 47.5t-49.5 14.5v6h382l17 -165h-6q-16 63 -35 95t-48 45t-79 13h-103v-240h73q49 0 72 23t33 80h6v-220h-6q-11 59 -33.5 82t-71.5 23h-73v-254h101q60 0 93.5 15t53 53.5
t32.5 113.5h6z" />
    <glyph glyph-name="ebreve.sc" horiz-adv-x="496" 
d="M175 606.5q-28 31.5 -28 93.5h10q2 -41 27 -61.5t63 -20.5q39 0 64 20.5t27 61.5h10q0 -62 -28 -93.5t-73 -31.5q-44 0 -72 31.5zM448 194l-20 -194h-394v6q38 2 50 15.5t12 53.5v387q0 35 -12.5 47.5t-49.5 14.5v6h382l17 -165h-6q-16 63 -35 95t-48 45t-79 13h-103
v-240h73q49 0 72 23t33 80h6v-220h-6q-11 59 -33.5 82t-71.5 23h-73v-254h101q60 0 93.5 15t53 53.5t32.5 113.5h6z" />
    <glyph glyph-name="ecaron.sc" horiz-adv-x="496" 
d="M239 567l-101 133h9l100 -83l100 83h10l-101 -133h-17zM448 194l-20 -194h-394v6q38 2 50 15.5t12 53.5v387q0 35 -12.5 47.5t-49.5 14.5v6h382l17 -165h-6q-16 63 -35 95t-48 45t-79 13h-103v-240h73q49 0 72 23t33 80h6v-220h-6q-11 59 -33.5 82t-71.5 23h-73v-254h101
q60 0 93.5 15t53 53.5t32.5 113.5h6z" />
    <glyph glyph-name="ecircumflex.sc" horiz-adv-x="496" 
d="M147 567h-9l101 133h17l101 -133h-10l-100 83zM448 194l-20 -194h-394v6q38 2 50 15.5t12 53.5v387q0 35 -12.5 47.5t-49.5 14.5v6h382l17 -165h-6q-16 63 -35 95t-48 45t-79 13h-103v-240h73q49 0 72 23t33 80h6v-220h-6q-11 59 -33.5 82t-71.5 23h-73v-254h101
q60 0 93.5 15t53 53.5t32.5 113.5h6z" />
    <glyph glyph-name="edieresis.sc" horiz-adv-x="496" 
d="M131 601.5q-14 13.5 -14 34.5t14 34.5t34 13.5t34 -13.5t14 -34.5t-14 -34.5t-34 -13.5t-34 13.5zM298 601.5q-14 13.5 -14 34.5t14 34.5t34 13.5t34 -13.5t14 -34.5t-14 -34.5t-34 -13.5t-34 13.5zM448 194l-20 -194h-394v6q38 2 50 15.5t12 53.5v387q0 35 -12.5 47.5
t-49.5 14.5v6h382l17 -165h-6q-16 63 -35 95t-48 45t-79 13h-103v-240h73q49 0 72 23t33 80h6v-220h-6q-11 59 -33.5 82t-71.5 23h-73v-254h101q60 0 93.5 15t53 53.5t32.5 113.5h6z" />
    <glyph glyph-name="edotaccent.sc" horiz-adv-x="496" 
d="M211.5 598q-14.5 15 -14.5 36t14.5 36t36.5 15t36.5 -15t14.5 -36t-14.5 -36t-36.5 -15t-36.5 15zM448 194l-20 -194h-394v6q38 2 50 15.5t12 53.5v387q0 35 -12.5 47.5t-49.5 14.5v6h382l17 -165h-6q-16 63 -35 95t-48 45t-79 13h-103v-240h73q49 0 72 23t33 80h6v-220
h-6q-11 59 -33.5 82t-71.5 23h-73v-254h101q60 0 93.5 15t53 53.5t32.5 113.5h6z" />
    <glyph glyph-name="egrave.sc" horiz-adv-x="496" 
d="M242 566l-135 130v4h77l70 -134h-12zM448 194l-20 -194h-394v6q38 2 50 15.5t12 53.5v387q0 35 -12.5 47.5t-49.5 14.5v6h382l17 -165h-6q-16 63 -35 95t-48 45t-79 13h-103v-240h73q49 0 72 23t33 80h6v-220h-6q-11 59 -33.5 82t-71.5 23h-73v-254h101q60 0 93.5 15
t53 53.5t32.5 113.5h6z" />
    <glyph glyph-name="emacron.sc" horiz-adv-x="496" 
d="M370 624h-245v22h245v-22zM448 194l-20 -194h-394v6q38 2 50 15.5t12 53.5v387q0 35 -12.5 47.5t-49.5 14.5v6h382l17 -165h-6q-16 63 -35 95t-48 45t-79 13h-103v-240h73q49 0 72 23t33 80h6v-220h-6q-11 59 -33.5 82t-71.5 23h-73v-254h101q60 0 93.5 15t53 53.5
t32.5 113.5h6z" />
    <glyph glyph-name="eogonek.sc" horiz-adv-x="496" 
d="M301.5 -42q-24.5 -29 -24.5 -66q0 -28 15.5 -42.5t43.5 -14.5q22 0 40 10.5t27 28.5l4 -2q-30 -82 -101 -82q-36 0 -56.5 20t-20.5 54q0 46 33 82.5t85 53.5h-313v6q38 2 50 15.5t12 53.5v387q0 35 -12.5 47.5t-49.5 14.5v6h382l17 -165h-6q-16 63 -35 95t-48 45t-79 13
h-103v-240h73q49 0 72 23t33 80h6v-220h-6q-11 59 -33.5 82t-71.5 23h-73v-254h101q60 0 93.5 15t53 53.5t32.5 113.5h6l-20 -194h-59q-43 -13 -67.5 -42z" />
    <glyph glyph-name="gbreve.sc" horiz-adv-x="604" 
d="M259 606.5q-28 31.5 -28 93.5h10q2 -41 27 -61.5t63 -20.5q39 0 64 20.5t27 61.5h10q0 -62 -28 -93.5t-73 -31.5q-44 0 -72 31.5zM178.5 19.5q-65.5 34.5 -101.5 97.5t-36 146q0 85 36.5 149t104 98.5t158.5 34.5q84 0 168 -25l-6 -167h-8q-3 84 -47 130t-122 46
q-64 0 -111 -32t-72.5 -90.5t-25.5 -136.5q0 -79 27.5 -140.5t76.5 -95.5t112 -34q37 0 70.5 12t47.5 31v124q0 30 -8.5 45t-32 22.5t-73.5 12.5v6h239v-6q-37 -2 -49.5 -14t-12.5 -48v-146q-81 -54 -184 -54q-85 0 -150.5 34.5z" />
    <glyph glyph-name="gcircumflex.sc" horiz-adv-x="604" 
d="M323 700h17l101 -133h-10l-100 83l-100 -83h-9zM178.5 19.5q-65.5 34.5 -101.5 97.5t-36 146q0 85 36.5 149t104 98.5t158.5 34.5q84 0 168 -25l-6 -167h-8q-3 84 -47 130t-122 46q-64 0 -111 -32t-72.5 -90.5t-25.5 -136.5q0 -79 27.5 -140.5t76.5 -95.5t112 -34
q37 0 70.5 12t47.5 31v124q0 30 -8.5 45t-32 22.5t-73.5 12.5v6h239v-6q-37 -2 -49.5 -14t-12.5 -48v-146q-81 -54 -184 -54q-85 0 -150.5 34.5z" />
    <glyph glyph-name="uni0123.sc" horiz-adv-x="604" 
d="M178.5 19.5q-65.5 34.5 -101.5 97.5t-36 146q0 85 36.5 149t104 98.5t158.5 34.5q84 0 168 -25l-6 -167h-8q-3 84 -47 130t-122 46q-64 0 -111 -32t-72.5 -90.5t-25.5 -136.5q0 -79 27.5 -140.5t76.5 -95.5t112 -34q37 0 70.5 12t47.5 31v124q0 30 -8.5 45t-32 22.5
t-73.5 12.5v6h239v-6q-37 -2 -49.5 -14t-12.5 -48v-146q-81 -54 -184 -54q-85 0 -150.5 34.5zM317 -199q56 20 56 49q0 27 -40 33q-17 2 -27 13t-10 28q0 20 12.5 31.5t33.5 11.5q23 0 41 -23.5t18 -53.5q0 -75 -82 -99z" />
    <glyph glyph-name="gdotaccent.sc" horiz-adv-x="604" 
d="M295.5 598q-14.5 15 -14.5 36t14.5 36t36.5 15t36.5 -15t14.5 -36t-14.5 -36t-36.5 -15t-36.5 15zM178.5 19.5q-65.5 34.5 -101.5 97.5t-36 146q0 85 36.5 149t104 98.5t158.5 34.5q84 0 168 -25l-6 -167h-8q-3 84 -47 130t-122 46q-64 0 -111 -32t-72.5 -90.5
t-25.5 -136.5q0 -79 27.5 -140.5t76.5 -95.5t112 -34q37 0 70.5 12t47.5 31v124q0 30 -8.5 45t-32 22.5t-73.5 12.5v6h239v-6q-37 -2 -49.5 -14t-12.5 -48v-146q-81 -54 -184 -54q-85 0 -150.5 34.5z" />
    <glyph glyph-name="hbar.sc" horiz-adv-x="607" 
d="M511 363v-292q0 -37 12 -50t50 -15v-6h-190v6q38 2 50 15.5t12 49.5v188h-283v-188q0 -36 12 -49.5t50 -15.5v-6h-190v6q38 2 50 15t12 50v292h-62v10h62v86q0 37 -12 50t-50 15v6h190v-6q-38 -2 -50 -15.5t-12 -49.5v-86h283v86q0 36 -12 49.5t-50 15.5v6h190v-6
q-38 -2 -50 -15t-12 -50v-86h64v-10h-64zM445 363h-283v-90h283v90z" />
    <glyph glyph-name="hcircumflex.sc" horiz-adv-x="607" 
d="M295 700h17l101 -133h-10l-100 83l-100 -83h-9zM523 509q-12 -13 -12 -50v-388q0 -37 12 -50t50 -15v-6h-190v6q38 2 50 15.5t12 49.5v188h-283v-188q0 -36 12 -49.5t50 -15.5v-6h-190v6q38 2 50 15t12 50v388q0 37 -12 50t-50 15v6h190v-6q-38 -2 -50 -15.5t-12 -49.5
v-186h283v186q0 36 -12 49.5t-50 15.5v6h190v-6q-38 -2 -50 -15z" />
    <glyph glyph-name="ij.sc" horiz-adv-x="509" 
d="M174 509q-12 -13 -12 -50v-388q0 -37 12 -50t50 -15v-6h-190v6q38 2 50 15t12 50v388q0 37 -12 50t-50 15v6h190v-6q-38 -2 -50 -15zM491 524q-38 -2 -50 -14.5t-12 -47.5v-383q0 -68 -25.5 -102.5t-81.5 -34.5q-38 0 -62 18l4 5q20 -12 43 -12q30 0 43 21.5t13 62.5v425
q0 33 -13 46.5t-49 15.5v6h190v-6z" />
    <glyph glyph-name="iacute.sc" horiz-adv-x="258" 
d="M123 566l71 134h76v-4l-135 -130h-12zM174 509q-12 -13 -12 -50v-388q0 -37 12 -50t50 -15v-6h-190v6q38 2 50 15t12 50v388q0 37 -12 50t-50 15v6h190v-6q-38 -2 -50 -15z" />
    <glyph glyph-name="ibreve.sc" horiz-adv-x="258" 
d="M56 606.5q-28 31.5 -28 93.5h10q2 -41 27 -61.5t63 -20.5q39 0 64 20.5t27 61.5h10q0 -62 -28 -93.5t-73 -31.5q-44 0 -72 31.5zM174 509q-12 -13 -12 -50v-388q0 -37 12 -50t50 -15v-6h-190v6q38 2 50 15t12 50v388q0 37 -12 50t-50 15v6h190v-6q-38 -2 -50 -15z" />
    <glyph glyph-name="icircumflex.sc" horiz-adv-x="258" 
d="M120 700h17l101 -133h-10l-100 83l-100 -83h-9zM174 509q-12 -13 -12 -50v-388q0 -37 12 -50t50 -15v-6h-190v6q38 2 50 15t12 50v388q0 37 -12 50t-50 15v6h190v-6q-38 -2 -50 -15z" />
    <glyph glyph-name="idieresis.sc" horiz-adv-x="258" 
d="M12 601.5q-14 13.5 -14 34.5t14 34.5t34 13.5t34 -13.5t14 -34.5t-14 -34.5t-34 -13.5t-34 13.5zM179 601.5q-14 13.5 -14 34.5t14 34.5t34 13.5t34 -13.5t14 -34.5t-14 -34.5t-34 -13.5t-34 13.5zM174 509q-12 -13 -12 -50v-388q0 -37 12 -50t50 -15v-6h-190v6
q38 2 50 15t12 50v388q0 37 -12 50t-50 15v6h190v-6q-38 -2 -50 -15z" />
    <glyph glyph-name="i.sc.loclTRK" horiz-adv-x="258" 
d="M92.5 598q-14.5 15 -14.5 36t14.5 36t36.5 15t36.5 -15t14.5 -36t-14.5 -36t-36.5 -15t-36.5 15zM174 509q-12 -13 -12 -50v-388q0 -37 12 -50t50 -15v-6h-190v6q38 2 50 15t12 50v388q0 37 -12 50t-50 15v6h190v-6q-38 -2 -50 -15z" />
    <glyph glyph-name="igrave.sc" horiz-adv-x="258" 
d="M-12 696v4h77l70 -134h-12zM174 509q-12 -13 -12 -50v-388q0 -37 12 -50t50 -15v-6h-190v6q38 2 50 15t12 50v388q0 37 -12 50t-50 15v6h190v-6q-38 -2 -50 -15z" />
    <glyph glyph-name="imacron.sc" horiz-adv-x="258" 
d="M6 646h245v-22h-245v22zM174 509q-12 -13 -12 -50v-388q0 -37 12 -50t50 -15v-6h-190v6q38 2 50 15t12 50v388q0 37 -12 50t-50 15v6h190v-6q-38 -2 -50 -15z" />
    <glyph glyph-name="iogonek.sc" horiz-adv-x="258" 
d="M174 509q-12 -13 -12 -50v-388q0 -37 12 -50t50 -15v-6h-60q-43 -13 -67.5 -42t-24.5 -66q0 -28 15.5 -42.5t43.5 -14.5q22 0 40 10.5t27 28.5l4 -2q-30 -82 -101 -82q-36 0 -56.5 20t-20.5 54q0 46 33 82.5t85 53.5h-108v6q38 2 50 15t12 50v388q0 37 -12 50t-50 15v6
h190v-6q-38 -2 -50 -15z" />
    <glyph glyph-name="itilde.sc" horiz-adv-x="258" 
d="M149 606.5q-12 4.5 -31 14.5q-14 8 -25 12.5t-25 4.5q-20 0 -37 -10t-22 -33h-4q3 40 24 60.5t52 20.5q16 0 27.5 -4.5t30.5 -14.5q16 -9 27 -13t24 -4q20 0 37 10t22 33h3q-2 -40 -23 -60.5t-52 -20.5q-16 0 -28 4.5zM174 509q-12 -13 -12 -50v-388q0 -37 12 -50t50 -15
v-6h-190v6q38 2 50 15t12 50v388q0 37 -12 50t-50 15v6h190v-6q-38 -2 -50 -15z" />
    <glyph glyph-name="jcircumflex.sc" horiz-adv-x="251" 
d="M129 700h17l101 -133h-10l-100 83l-100 -83h-9zM233 524q-38 -2 -50 -14.5t-12 -47.5v-383q0 -68 -25.5 -102.5t-81.5 -34.5q-38 0 -62 18l4 5q20 -12 43 -12q30 0 43 21.5t13 62.5v425q0 33 -13 46.5t-49 15.5v6h190v-6z" />
    <glyph glyph-name="uni0137.sc" horiz-adv-x="558" 
d="M174 509q-12 -13 -12 -47v-387q0 -39 12 -53t50 -16v-6h-190v6q38 2 50 15.5t12 53.5v387q0 33 -12.5 46.5t-49.5 15.5v6h190v-6q-38 -2 -50 -15zM162 275l186 169q26 24 35 35t9 20q0 12 -11.5 18t-41.5 7v6h169v-6q-37 -4 -63.5 -18.5t-68.5 -53.5l-157 -144l226 -248
q28 -31 45.5 -41.5t49.5 -12.5v-6h-134zM254 -199q56 20 56 49q0 27 -40 33q-17 2 -27 13t-10 28q0 20 12.5 31.5t33.5 11.5q23 0 41 -23.5t18 -53.5q0 -75 -82 -99z" />
    <glyph glyph-name="lacute.sc" horiz-adv-x="458" 
d="M123 566l71 134h76v-4l-135 -130h-12zM425 196l-20 -196h-371v6q38 2 50 15.5t12 53.5v387q0 33 -12.5 46.5t-49.5 15.5v6h190v-6q-38 -2 -50 -15t-12 -47v-450h60q67 0 103 14.5t57 53t37 116.5h6z" />
    <glyph glyph-name="lcaron.sc" horiz-adv-x="458" 
d="M19 700h9l100 -83l100 83h10l-101 -133h-17zM425 196l-20 -196h-371v6q38 2 50 15.5t12 53.5v387q0 33 -12.5 46.5t-49.5 15.5v6h190v-6q-38 -2 -50 -15t-12 -47v-450h60q67 0 103 14.5t57 53t37 116.5h6z" />
    <glyph glyph-name="uni013C.sc" horiz-adv-x="458" 
d="M425 196l-20 -196h-371v6q38 2 50 15.5t12 53.5v387q0 33 -12.5 46.5t-49.5 15.5v6h190v-6q-38 -2 -50 -15t-12 -47v-450h60q67 0 103 14.5t57 53t37 116.5h6zM204 -199q56 20 56 49q0 27 -40 33q-17 2 -27 13t-10 28q0 20 12.5 31.5t33.5 11.5q23 0 41 -23.5t18 -53.5
q0 -75 -82 -99z" />
    <glyph glyph-name="ldot.sc" horiz-adv-x="458" 
d="M425 196l-20 -196h-371v6q38 2 50 15.5t12 53.5v387q0 33 -12.5 46.5t-49.5 15.5v6h190v-6q-38 -2 -50 -15t-12 -47v-450h60q67 0 103 14.5t57 53t37 116.5h6zM270 268.5q-14 14.5 -14 35.5t14 35.5t36 14.5t36 -14.5t14 -35.5t-14 -35.5t-36 -14.5t-36 14.5z" />
    <glyph glyph-name="lslash.sc" horiz-adv-x="458" 
d="M425 196l-20 -196h-371v6q38 2 50 15.5t12 53.5v120l-56 -36v15l56 36v252q0 33 -12.5 46.5t-49.5 15.5v6h190v-6q-38 -2 -50 -15t-12 -47v-209l202 132v-15l-202 -132v-226h60q67 0 103 14.5t57 53t37 116.5h6z" />
    <glyph glyph-name="nacute.sc" horiz-adv-x="605" 
d="M319 566h-12l71 134h76v-4zM583 530v-6q-43 -2 -60 -21t-17 -63v-450h-2l-375 467v-360q0 -50 18 -69t66 -22v-6h-179v6q45 2 61 23t16 68v381q-18 21 -35 32t-42 14v6h124l331 -410v320q0 42 -17 61.5t-67 22.5v6h178z" />
    <glyph glyph-name="ncaron.sc" horiz-adv-x="605" 
d="M304 567l-101 133h9l100 -83l100 83h10l-101 -133h-17zM583 530v-6q-43 -2 -60 -21t-17 -63v-450h-2l-375 467v-360q0 -50 18 -69t66 -22v-6h-179v6q45 2 61 23t16 68v381q-18 21 -35 32t-42 14v6h124l331 -410v320q0 42 -17 61.5t-67 22.5v6h178z" />
    <glyph glyph-name="uni0146.sc" horiz-adv-x="605" 
d="M583 530v-6q-43 -2 -60 -21t-17 -63v-450h-2l-375 467v-360q0 -50 18 -69t66 -22v-6h-179v6q45 2 61 23t16 68v381q-18 21 -35 32t-42 14v6h124l331 -410v320q0 42 -17 61.5t-67 22.5v6h178zM278 -199q56 20 56 49q0 27 -40 33q-17 2 -27 13t-10 28q0 20 12.5 31.5
t33.5 11.5q23 0 41 -23.5t18 -53.5q0 -75 -82 -99z" />
    <glyph glyph-name="eng.sc" horiz-adv-x="605" 
d="M583 530v-6q-43 -2 -60 -21t-17 -63v-501q0 -73 -30 -113.5t-89 -40.5q-22 0 -46 5t-35 12l3 6q27 -14 64 -14q34 0 53.5 25t19.5 68v175l-317 395v-360q0 -50 18 -69t66 -22v-6h-179v6q45 2 61 23t16 68v381q-18 21 -35 32t-42 14v6h124l331 -410v320q0 42 -17 61.5
t-67 22.5v6h178z" />
    <glyph glyph-name="ntilde.sc" horiz-adv-x="605" 
d="M215 628q-17 -10 -22 -33h-4q3 40 24 60.5t52 20.5q16 0 27.5 -4.5t30.5 -14.5q16 -9 27 -13t24 -4q20 0 37 10t22 33h3q-2 -40 -23 -60.5t-52 -20.5q-16 0 -28 4.5t-31 14.5q-14 8 -25 12.5t-25 4.5q-20 0 -37 -10zM583 530v-6q-43 -2 -60 -21t-17 -63v-450h-2l-375 467
v-360q0 -50 18 -69t66 -22v-6h-179v6q45 2 61 23t16 68v381q-18 21 -35 32t-42 14v6h124l331 -410v320q0 42 -17 61.5t-67 22.5v6h178z" />
    <glyph glyph-name="oacute.sc" horiz-adv-x="626" 
d="M307 566l71 134h76v-4l-135 -130h-12zM173 21q-62 36 -97 100t-35 144t35 144t97 100t140 36t140 -36t97 -100t35 -144t-35 -144t-97 -100t-140 -36t-140 36zM459 69q51 68 51 196q0 131 -50 197.5t-147 66.5t-147 -66.5t-50 -197.5q0 -128 51 -196t146 -68t146 68z" />
    <glyph glyph-name="obreve.sc" horiz-adv-x="626" 
d="M240 606.5q-28 31.5 -28 93.5h10q2 -41 27 -61.5t63 -20.5q39 0 64 20.5t27 61.5h10q0 -62 -28 -93.5t-73 -31.5q-44 0 -72 31.5zM173 21q-62 36 -97 100t-35 144t35 144t97 100t140 36t140 -36t97 -100t35 -144t-35 -144t-97 -100t-140 -36t-140 36zM459 69
q51 68 51 196q0 131 -50 197.5t-147 66.5t-147 -66.5t-50 -197.5q0 -128 51 -196t146 -68t146 68z" />
    <glyph glyph-name="ocircumflex.sc" horiz-adv-x="626" 
d="M304 700h17l101 -133h-10l-100 83l-100 -83h-9zM173 21q-62 36 -97 100t-35 144t35 144t97 100t140 36t140 -36t97 -100t35 -144t-35 -144t-97 -100t-140 -36t-140 36zM459 69q51 68 51 196q0 131 -50 197.5t-147 66.5t-147 -66.5t-50 -197.5q0 -128 51 -196t146 -68
t146 68z" />
    <glyph glyph-name="odieresis.sc" horiz-adv-x="626" 
d="M196 601.5q-14 13.5 -14 34.5t14 34.5t34 13.5t34 -13.5t14 -34.5t-14 -34.5t-34 -13.5t-34 13.5zM363 601.5q-14 13.5 -14 34.5t14 34.5t34 13.5t34 -13.5t14 -34.5t-14 -34.5t-34 -13.5t-34 13.5zM173 21q-62 36 -97 100t-35 144t35 144t97 100t140 36t140 -36t97 -100
t35 -144t-35 -144t-97 -100t-140 -36t-140 36zM459 69q51 68 51 196q0 131 -50 197.5t-147 66.5t-147 -66.5t-50 -197.5q0 -128 51 -196t146 -68t146 68z" />
    <glyph glyph-name="ograve.sc" horiz-adv-x="626" 
d="M172 696v4h77l70 -134h-12zM173 21q-62 36 -97 100t-35 144t35 144t97 100t140 36t140 -36t97 -100t35 -144t-35 -144t-97 -100t-140 -36t-140 36zM459 69q51 68 51 196q0 131 -50 197.5t-147 66.5t-147 -66.5t-50 -197.5q0 -128 51 -196t146 -68t146 68z" />
    <glyph glyph-name="ohungarumlaut.sc" horiz-adv-x="626" 
d="M355 700h58v-4l-146 -110h-7zM477 700h63v-4l-157 -110h-7zM173 21q-62 36 -97 100t-35 144t35 144t97 100t140 36t140 -36t97 -100t35 -144t-35 -144t-97 -100t-140 -36t-140 36zM459 69q51 68 51 196q0 131 -50 197.5t-147 66.5t-147 -66.5t-50 -197.5q0 -128 51 -196
t146 -68t146 68z" />
    <glyph glyph-name="omacron.sc" horiz-adv-x="626" 
d="M190 646h245v-22h-245v22zM173 21q-62 36 -97 100t-35 144t35 144t97 100t140 36t140 -36t97 -100t35 -144t-35 -144t-97 -100t-140 -36t-140 36zM459 69q51 68 51 196q0 131 -50 197.5t-147 66.5t-147 -66.5t-50 -197.5q0 -128 51 -196t146 -68t146 68z" />
    <glyph glyph-name="oslash.sc" horiz-adv-x="626" 
d="M563 381.5q22 -53.5 22 -116.5q0 -80 -35 -144t-97 -100t-140 -36q-100 0 -172 58l-49 -58h-21l58 69q-42 38 -65 92.5t-23 118.5q0 80 35 144t97 100t140 36q101 0 176 -61l57 68h21l-66 -79q40 -38 62 -91.5zM156 86l309 369q-50 74 -152 74q-97 0 -147 -66.5
t-50 -197.5q0 -111 40 -179zM459 69q51 68 51 196q0 112 -36 176l-309 -369q50 -71 148 -71q95 0 146 68z" />
    <glyph glyph-name="oslashacute.sc" horiz-adv-x="626" 
d="M319 566h-12l71 134h76v-4zM563 381.5q22 -53.5 22 -116.5q0 -80 -35 -144t-97 -100t-140 -36q-100 0 -172 58l-49 -58h-21l58 69q-42 38 -65 92.5t-23 118.5q0 80 35 144t97 100t140 36q101 0 176 -61l57 68h21l-66 -79q40 -38 62 -91.5zM156 86l309 369q-50 74 -152 74
q-97 0 -147 -66.5t-50 -197.5q0 -111 40 -179zM459 69q51 68 51 196q0 112 -36 176l-309 -369q50 -71 148 -71q95 0 146 68z" />
    <glyph glyph-name="otilde.sc" horiz-adv-x="626" 
d="M333 606.5q-12 4.5 -31 14.5q-14 8 -25 12.5t-25 4.5q-20 0 -37 -10t-22 -33h-4q3 40 24 60.5t52 20.5q16 0 27.5 -4.5t30.5 -14.5q16 -9 27 -13t24 -4q20 0 37 10t22 33h3q-2 -40 -23 -60.5t-52 -20.5q-16 0 -28 4.5zM173 21q-62 36 -97 100t-35 144t35 144t97 100
t140 36t140 -36t97 -100t35 -144t-35 -144t-97 -100t-140 -36t-140 36zM459 69q51 68 51 196q0 131 -50 197.5t-147 66.5t-147 -66.5t-50 -197.5q0 -128 51 -196t146 -68t146 68z" />
    <glyph glyph-name="oe.sc" horiz-adv-x="738" 
d="M690 194l-20 -194h-352q-81 0 -144 33.5t-98 93.5t-35 138t35 138t98 93.5t144 33.5h339l18 -165h-2q-23 89 -72 126q-39 30 -119 30h-60v-252h53q59 0 86 23t37 80h2v-217h-2q-10 58 -37 81.5t-86 23.5h-53v-251h58q103 0 146 42q43 43 62 143h2zM358 521h-36
q-98 0 -152 -67.5t-54 -188.5t54 -188.5t152 -67.5h36v512z" />
    <glyph glyph-name="thorn.sc" horiz-adv-x="447" 
d="M162 129v-58q0 -37 12 -50t50 -15v-6h-190v6q38 2 50 15t12 50v388q0 37 -12 50t-50 15v6h190v-6q-38 -2 -50 -15t-12 -50v-36h29q109 0 168 -37t59 -110t-58.5 -110t-168.5 -37h-29zM162 411v-271h11q86 0 129.5 33t43.5 103q0 69 -43.5 102t-129.5 33h-11z" />
    <glyph glyph-name="racute.sc" horiz-adv-x="550" 
d="M281 566h-12l71 134h76v-4zM485 29q19 -20 51 -23v-6h-114q-12 19 -43 84l-45 95q-17 35 -31 53t-34.5 25.5t-55.5 7.5h-51v-190q0 -39 12 -53t50 -16v-6h-190v6q38 2 50 15.5t12 53.5v387q0 33 -12.5 46.5t-49.5 15.5v6h200q101 0 151 -30t50 -98q0 -61 -52 -95
t-127 -34v-3q48 0 87 -21t60 -67l46 -98q17 -35 36 -55zM324 305q38 29 38 96q0 61 -31 89t-106 28h-63v-242h46q78 0 116 29z" />
    <glyph glyph-name="rcaron.sc" horiz-adv-x="550" 
d="M266 567l-101 133h9l100 -83l100 83h10l-101 -133h-17zM485 29q19 -20 51 -23v-6h-114q-12 19 -43 84l-45 95q-17 35 -31 53t-34.5 25.5t-55.5 7.5h-51v-190q0 -39 12 -53t50 -16v-6h-190v6q38 2 50 15.5t12 53.5v387q0 33 -12.5 46.5t-49.5 15.5v6h200q101 0 151 -30
t50 -98q0 -61 -52 -95t-127 -34v-3q48 0 87 -21t60 -67l46 -98q17 -35 36 -55zM324 305q38 29 38 96q0 61 -31 89t-106 28h-63v-242h46q78 0 116 29z" />
    <glyph glyph-name="uni0157.sc" horiz-adv-x="550" 
d="M485 29q19 -20 51 -23v-6h-114q-12 19 -43 84l-45 95q-17 35 -31 53t-34.5 25.5t-55.5 7.5h-51v-190q0 -39 12 -53t50 -16v-6h-190v6q38 2 50 15.5t12 53.5v387q0 33 -12.5 46.5t-49.5 15.5v6h200q101 0 151 -30t50 -98q0 -61 -52 -95t-127 -34v-3q48 0 87 -21t60 -67
l46 -98q17 -35 36 -55zM324 305q38 29 38 96q0 61 -31 89t-106 28h-63v-242h46q78 0 116 29zM250 -199q56 20 56 49q0 27 -40 33q-17 2 -27 13t-10 28q0 20 12.5 31.5t33.5 11.5q23 0 41 -23.5t18 -53.5q0 -75 -82 -99z" />
    <glyph glyph-name="sacute.sc" horiz-adv-x="445" 
d="M227 566l71 134h76v-4l-135 -130h-12zM125 -5q-44 10 -81 29l5 157h6q8 -86 53.5 -132.5t122.5 -46.5q58 0 91.5 29t33.5 79q0 38 -23 63.5t-78 47.5l-82 34q-67 29 -96 63t-29 85q0 64 50.5 103t134.5 39q82 0 153 -34l-6 -153h-5q-15 171 -163 171q-57 0 -90 -26
t-33 -71q0 -36 22 -58t85 -49l92 -39q61 -26 88.5 -60t27.5 -84q0 -73 -51.5 -115t-140.5 -42q-43 0 -87 10z" />
    <glyph glyph-name="scaron.sc" horiz-adv-x="445" 
d="M123 700h9l100 -83l100 83h10l-101 -133h-17zM125 -5q-44 10 -81 29l5 157h6q8 -86 53.5 -132.5t122.5 -46.5q58 0 91.5 29t33.5 79q0 38 -23 63.5t-78 47.5l-82 34q-67 29 -96 63t-29 85q0 64 50.5 103t134.5 39q82 0 153 -34l-6 -153h-5q-15 171 -163 171
q-57 0 -90 -26t-33 -71q0 -36 22 -58t85 -49l92 -39q61 -26 88.5 -60t27.5 -84q0 -73 -51.5 -115t-140.5 -42q-43 0 -87 10z" />
    <glyph glyph-name="scedilla.sc" horiz-adv-x="445" 
d="M355 29q-49 -42 -134 -44l-35 -54q11 9 32 9q29 0 50 -20t21 -55t-22.5 -57.5t-55.5 -22.5q-28 0 -48 16t-26 43l6 3q7 -17 21 -26.5t31 -9.5q23 0 38 15t15 40q0 23 -13.5 36.5t-33.5 13.5q-12 0 -19.5 -2.5t-15.5 -10.5l-6 4l47 78q-87 2 -163 39l5 157h6
q8 -86 53.5 -132.5t122.5 -46.5q58 0 91.5 29t33.5 79q0 38 -23 63.5t-78 47.5l-82 34q-67 29 -96 63t-29 85q0 64 50.5 103t134.5 39q82 0 153 -34l-6 -153h-5q-15 171 -163 171q-57 0 -90 -26t-33 -71q0 -36 22 -58t85 -49l92 -39q61 -26 88.5 -60t27.5 -84
q0 -71 -49 -113z" />
    <glyph glyph-name="scircumflex.sc" horiz-adv-x="445" 
d="M224 700h17l101 -133h-10l-100 83l-100 -83h-9zM125 -5q-44 10 -81 29l5 157h6q8 -86 53.5 -132.5t122.5 -46.5q58 0 91.5 29t33.5 79q0 38 -23 63.5t-78 47.5l-82 34q-67 29 -96 63t-29 85q0 64 50.5 103t134.5 39q82 0 153 -34l-6 -153h-5q-15 171 -163 171
q-57 0 -90 -26t-33 -71q0 -36 22 -58t85 -49l92 -39q61 -26 88.5 -60t27.5 -84q0 -73 -51.5 -115t-140.5 -42q-43 0 -87 10z" />
    <glyph glyph-name="uni0219.sc" horiz-adv-x="445" 
d="M125 -5q-44 10 -81 29l5 157h6q8 -86 53.5 -132.5t122.5 -46.5q58 0 91.5 29t33.5 79q0 38 -23 63.5t-78 47.5l-82 34q-67 29 -96 63t-29 85q0 64 50.5 103t134.5 39q82 0 153 -34l-6 -153h-5q-15 171 -163 171q-57 0 -90 -26t-33 -71q0 -36 22 -58t85 -49l92 -39
q61 -26 88.5 -60t27.5 -84q0 -73 -51.5 -115t-140.5 -42q-43 0 -87 10zM198 -199q56 20 56 49q0 27 -40 33q-17 2 -27 13t-10 28q0 20 12.5 31.5t33.5 11.5q23 0 41 -23.5t18 -53.5q0 -75 -82 -99z" />
    <glyph glyph-name="tbar.sc" horiz-adv-x="493" 
d="M468 545v-189h-6q-7 69 -23.5 103t-43.5 45.5t-74 11.5h-41v-226h129v-10h-129v-202q0 -29 7 -43.5t25.5 -20.5t56.5 -8v-6h-245v6q38 2 56.5 8t25.5 20.5t7 43.5v202h-128v10h128v226h-41q-44 0 -69.5 -8t-44.5 -42.5t-27 -109.5h-6v189h4q9 -8 23 -11.5t37 -3.5h315
q23 0 37 3.5t23 11.5h4z" />
    <glyph glyph-name="tcaron.sc" horiz-adv-x="493" 
d="M137 700h9l100 -83l100 83h10l-101 -133h-17zM468 545v-189h-6q-7 69 -23.5 103t-43.5 45.5t-74 11.5h-41v-438q0 -29 7 -43.5t25.5 -20.5t56.5 -8v-6h-245v6q38 2 56.5 8t25.5 20.5t7 43.5v438h-41q-44 0 -69.5 -8t-44.5 -42.5t-27 -109.5h-6v189h4q9 -8 23 -11.5
t37 -3.5h315q23 0 37 3.5t23 11.5h4z" />
    <glyph glyph-name="uni0163.sc" horiz-adv-x="493" 
d="M468 545v-189h-6q-7 69 -23.5 103t-43.5 45.5t-74 11.5h-41v-438q0 -29 7 -43.5t25.5 -20.5t56.5 -8v-6h-245v6q38 2 56.5 8t25.5 20.5t7 43.5v438h-41q-44 0 -69.5 -8t-44.5 -42.5t-27 -109.5h-6v189h4q9 -8 23 -11.5t37 -3.5h315q23 0 37 3.5t23 11.5h4zM289.5 -192.5
q-22.5 -22.5 -55.5 -22.5q-28 0 -48 16t-26 43l6 3q7 -17 21 -26.5t31 -9.5q23 0 38 15t15 40q0 23 -13.5 36.5t-33.5 13.5q-12 0 -19.5 -2.5t-15.5 -10.5l-6 4l56 93h14l-44 -69q10 9 32 9q29 0 50 -20t21 -55t-22.5 -57.5z" />
    <glyph glyph-name="uni021B.sc" horiz-adv-x="493" 
d="M468 545v-189h-6q-7 69 -23.5 103t-43.5 45.5t-74 11.5h-41v-438q0 -29 7 -43.5t25.5 -20.5t56.5 -8v-6h-245v6q38 2 56.5 8t25.5 20.5t7 43.5v438h-41q-44 0 -69.5 -8t-44.5 -42.5t-27 -109.5h-6v189h4q9 -8 23 -11.5t37 -3.5h315q23 0 37 3.5t23 11.5h4zM221 -199
q56 20 56 49q0 27 -40 33q-17 2 -27 13t-10 28q0 20 12.5 31.5t33.5 11.5q23 0 41 -23.5t18 -53.5q0 -75 -82 -99z" />
    <glyph glyph-name="uacute.sc" horiz-adv-x="564" 
d="M285 566l71 134h76v-4l-135 -130h-12zM546 524q-37 -2 -53 -21t-16 -61v-240q0 -108 -47.5 -162.5t-144.5 -54.5t-151 54.5t-54 158.5v264q0 33 -12.5 46.5t-49.5 15.5v6h195v-6q-39 -2 -51.5 -14.5t-12.5 -48.5v-253q0 -94 39 -142.5t116 -48.5q155 0 155 194v230
q0 42 -21.5 61.5t-69.5 21.5v6h178v-6z" />
    <glyph glyph-name="ubreve.sc" horiz-adv-x="564" 
d="M218 606.5q-28 31.5 -28 93.5h10q2 -41 27 -61.5t63 -20.5q39 0 64 20.5t27 61.5h10q0 -62 -28 -93.5t-73 -31.5q-44 0 -72 31.5zM546 524q-37 -2 -53 -21t-16 -61v-240q0 -108 -47.5 -162.5t-144.5 -54.5t-151 54.5t-54 158.5v264q0 33 -12.5 46.5t-49.5 15.5v6h195v-6
q-39 -2 -51.5 -14.5t-12.5 -48.5v-253q0 -94 39 -142.5t116 -48.5q155 0 155 194v230q0 42 -21.5 61.5t-69.5 21.5v6h178v-6z" />
    <glyph glyph-name="ucircumflex.sc" horiz-adv-x="564" 
d="M282 700h17l101 -133h-10l-100 83l-100 -83h-9zM546 524q-37 -2 -53 -21t-16 -61v-240q0 -108 -47.5 -162.5t-144.5 -54.5t-151 54.5t-54 158.5v264q0 33 -12.5 46.5t-49.5 15.5v6h195v-6q-39 -2 -51.5 -14.5t-12.5 -48.5v-253q0 -94 39 -142.5t116 -48.5q155 0 155 194
v230q0 42 -21.5 61.5t-69.5 21.5v6h178v-6z" />
    <glyph glyph-name="udieresis.sc" horiz-adv-x="564" 
d="M174 601.5q-14 13.5 -14 34.5t14 34.5t34 13.5t34 -13.5t14 -34.5t-14 -34.5t-34 -13.5t-34 13.5zM341 601.5q-14 13.5 -14 34.5t14 34.5t34 13.5t34 -13.5t14 -34.5t-14 -34.5t-34 -13.5t-34 13.5zM546 524q-37 -2 -53 -21t-16 -61v-240q0 -108 -47.5 -162.5
t-144.5 -54.5t-151 54.5t-54 158.5v264q0 33 -12.5 46.5t-49.5 15.5v6h195v-6q-39 -2 -51.5 -14.5t-12.5 -48.5v-253q0 -94 39 -142.5t116 -48.5q155 0 155 194v230q0 42 -21.5 61.5t-69.5 21.5v6h178v-6z" />
    <glyph glyph-name="ugrave.sc" horiz-adv-x="564" 
d="M150 696v4h77l70 -134h-12zM546 524q-37 -2 -53 -21t-16 -61v-240q0 -108 -47.5 -162.5t-144.5 -54.5t-151 54.5t-54 158.5v264q0 33 -12.5 46.5t-49.5 15.5v6h195v-6q-39 -2 -51.5 -14.5t-12.5 -48.5v-253q0 -94 39 -142.5t116 -48.5q155 0 155 194v230q0 42 -21.5 61.5
t-69.5 21.5v6h178v-6z" />
    <glyph glyph-name="uhungarumlaut.sc" horiz-adv-x="564" 
d="M333 700h58v-4l-146 -110h-7zM455 700h63v-4l-157 -110h-7zM546 524q-37 -2 -53 -21t-16 -61v-240q0 -108 -47.5 -162.5t-144.5 -54.5t-151 54.5t-54 158.5v264q0 33 -12.5 46.5t-49.5 15.5v6h195v-6q-39 -2 -51.5 -14.5t-12.5 -48.5v-253q0 -94 39 -142.5t116 -48.5
q155 0 155 194v230q0 42 -21.5 61.5t-69.5 21.5v6h178v-6z" />
    <glyph glyph-name="umacron.sc" horiz-adv-x="564" 
d="M168 646h245v-22h-245v22zM546 524q-37 -2 -53 -21t-16 -61v-240q0 -108 -47.5 -162.5t-144.5 -54.5t-151 54.5t-54 158.5v264q0 33 -12.5 46.5t-49.5 15.5v6h195v-6q-39 -2 -51.5 -14.5t-12.5 -48.5v-253q0 -94 39 -142.5t116 -48.5q155 0 155 194v230q0 42 -21.5 61.5
t-69.5 21.5v6h178v-6z" />
    <glyph glyph-name="uogonek.sc" horiz-adv-x="564" 
d="M546 530v-6q-37 -2 -53 -21t-16 -61v-240q0 -174 -123 -209q-35 -14 -54.5 -41t-19.5 -60q0 -28 15.5 -42.5t43.5 -14.5q22 0 40 10.5t27 28.5l4 -2q-30 -82 -101 -82q-36 0 -56.5 20t-20.5 54q0 39 23.5 71t63.5 52q-22 -2 -34 -2q-97 0 -151 54.5t-54 158.5v264
q0 33 -12.5 46.5t-49.5 15.5v6h195v-6q-39 -2 -51.5 -14.5t-12.5 -48.5v-253q0 -94 39 -142.5t116 -48.5q155 0 155 194v230q0 42 -21.5 61.5t-69.5 21.5v6h178z" />
    <glyph glyph-name="uring.sc" horiz-adv-x="564" 
d="M229 575.5q-24 24.5 -24 62.5t24 62.5t62 24.5q37 0 61 -24.5t24 -62.5t-24 -62.5t-61 -24.5q-38 0 -62 24.5zM337.5 587q18.5 19 18.5 51t-18.5 51t-46.5 19q-29 0 -47.5 -19t-18.5 -51t18.5 -51t47.5 -19q28 0 46.5 19zM546 524q-37 -2 -53 -21t-16 -61v-240
q0 -108 -47.5 -162.5t-144.5 -54.5t-151 54.5t-54 158.5v264q0 33 -12.5 46.5t-49.5 15.5v6h195v-6q-39 -2 -51.5 -14.5t-12.5 -48.5v-253q0 -94 39 -142.5t116 -48.5q155 0 155 194v230q0 42 -21.5 61.5t-69.5 21.5v6h178v-6z" />
    <glyph glyph-name="utilde.sc" horiz-adv-x="564" 
d="M311 606.5q-12 4.5 -31 14.5q-14 8 -25 12.5t-25 4.5q-20 0 -37 -10t-22 -33h-4q3 40 24 60.5t52 20.5q16 0 27.5 -4.5t30.5 -14.5q16 -9 27 -13t24 -4q20 0 37 10t22 33h3q-2 -40 -23 -60.5t-52 -20.5q-16 0 -28 4.5zM546 524q-37 -2 -53 -21t-16 -61v-240
q0 -108 -47.5 -162.5t-144.5 -54.5t-151 54.5t-54 158.5v264q0 33 -12.5 46.5t-49.5 15.5v6h195v-6q-39 -2 -51.5 -14.5t-12.5 -48.5v-253q0 -94 39 -142.5t116 -48.5q155 0 155 194v230q0 42 -21.5 61.5t-69.5 21.5v6h178v-6z" />
    <glyph glyph-name="wacute.sc" horiz-adv-x="781" 
d="M375 566h-12l71 134h76v-4zM767 530v-6q-31 -1 -47.5 -21t-31.5 -63l-159 -448h-3l-138 364l-128 -364h-3l-171 453q-17 46 -31 62t-41 17v6h194v-6q-30 -1 -43.5 -10.5t-13.5 -29.5q0 -19 10 -46l121 -333l97 275l-27 73q-14 36 -27 52t-46 19v6h192v-6q-29 -2 -42 -11
t-13 -28q0 -12 6 -29l129 -349l118 331q9 26 9 44q0 21 -14.5 31t-46.5 11v6h150z" />
    <glyph glyph-name="wcircumflex.sc" horiz-adv-x="781" 
d="M268 567h-9l101 133h17l101 -133h-10l-100 83zM767 530v-6q-31 -1 -47.5 -21t-31.5 -63l-159 -448h-3l-138 364l-128 -364h-3l-171 453q-17 46 -31 62t-41 17v6h194v-6q-30 -1 -43.5 -10.5t-13.5 -29.5q0 -19 10 -46l121 -333l97 275l-27 73q-14 36 -27 52t-46 19v6h192
v-6q-29 -2 -42 -11t-13 -28q0 -12 6 -29l129 -349l118 331q9 26 9 44q0 21 -14.5 31t-46.5 11v6h150z" />
    <glyph glyph-name="wdieresis.sc" horiz-adv-x="781" 
d="M252 601.5q-14 13.5 -14 34.5t14 34.5t34 13.5t34 -13.5t14 -34.5t-14 -34.5t-34 -13.5t-34 13.5zM419 601.5q-14 13.5 -14 34.5t14 34.5t34 13.5t34 -13.5t14 -34.5t-14 -34.5t-34 -13.5t-34 13.5zM767 530v-6q-31 -1 -47.5 -21t-31.5 -63l-159 -448h-3l-138 364
l-128 -364h-3l-171 453q-17 46 -31 62t-41 17v6h194v-6q-30 -1 -43.5 -10.5t-13.5 -29.5q0 -19 10 -46l121 -333l97 275l-27 73q-14 36 -27 52t-46 19v6h192v-6q-29 -2 -42 -11t-13 -28q0 -12 6 -29l129 -349l118 331q9 26 9 44q0 21 -14.5 31t-46.5 11v6h150z" />
    <glyph glyph-name="wgrave.sc" horiz-adv-x="781" 
d="M363 566l-135 130v4h77l70 -134h-12zM767 530v-6q-31 -1 -47.5 -21t-31.5 -63l-159 -448h-3l-138 364l-128 -364h-3l-171 453q-17 46 -31 62t-41 17v6h194v-6q-30 -1 -43.5 -10.5t-13.5 -29.5q0 -19 10 -46l121 -333l97 275l-27 73q-14 36 -27 52t-46 19v6h192v-6
q-29 -2 -42 -11t-13 -28q0 -12 6 -29l129 -349l118 331q9 26 9 44q0 21 -14.5 31t-46.5 11v6h150z" />
    <glyph glyph-name="yacute.sc" horiz-adv-x="528" 
d="M258 566l71 134h76v-4l-135 -130h-12zM510 530v-6q-31 -2 -51 -18t-39 -49l-125 -217v-162q0 -29 8.5 -44t27 -20.5t53.5 -7.5v-6h-244v6q38 2 56.5 8t25.5 20.5t7 43.5v159l-125 217q-23 40 -40.5 54t-45.5 16v6h193v-6q-55 -3 -55 -33q0 -12 14 -37l114 -202l111 191
q17 29 17 46q0 32 -53 35v6h151z" />
    <glyph glyph-name="ycircumflex.sc" horiz-adv-x="528" 
d="M255 700h17l101 -133h-10l-100 83l-100 -83h-9zM510 530v-6q-31 -2 -51 -18t-39 -49l-125 -217v-162q0 -29 8.5 -44t27 -20.5t53.5 -7.5v-6h-244v6q38 2 56.5 8t25.5 20.5t7 43.5v159l-125 217q-23 40 -40.5 54t-45.5 16v6h193v-6q-55 -3 -55 -33q0 -12 14 -37l114 -202
l111 191q17 29 17 46q0 32 -53 35v6h151z" />
    <glyph glyph-name="ydieresis.sc" horiz-adv-x="528" 
d="M147 601.5q-14 13.5 -14 34.5t14 34.5t34 13.5t34 -13.5t14 -34.5t-14 -34.5t-34 -13.5t-34 13.5zM314 601.5q-14 13.5 -14 34.5t14 34.5t34 13.5t34 -13.5t14 -34.5t-14 -34.5t-34 -13.5t-34 13.5zM510 530v-6q-31 -2 -51 -18t-39 -49l-125 -217v-162q0 -29 8.5 -44
t27 -20.5t53.5 -7.5v-6h-244v6q38 2 56.5 8t25.5 20.5t7 43.5v159l-125 217q-23 40 -40.5 54t-45.5 16v6h193v-6q-55 -3 -55 -33q0 -12 14 -37l114 -202l111 191q17 29 17 46q0 32 -53 35v6h151z" />
    <glyph glyph-name="ygrave.sc" horiz-adv-x="528" 
d="M123 696v4h77l70 -134h-12zM510 530v-6q-31 -2 -51 -18t-39 -49l-125 -217v-162q0 -29 8.5 -44t27 -20.5t53.5 -7.5v-6h-244v6q38 2 56.5 8t25.5 20.5t7 43.5v159l-125 217q-23 40 -40.5 54t-45.5 16v6h193v-6q-55 -3 -55 -33q0 -12 14 -37l114 -202l111 191q17 29 17 46
q0 32 -53 35v6h151z" />
    <glyph glyph-name="zacute.sc" horiz-adv-x="487" 
d="M247 566l71 134h76v-4l-135 -130h-12zM33 4l339 513h-117q-64 0 -99 -14t-56 -49.5t-37 -107.5h-6l21 184h372v-4l-337 -513h133q66 0 103.5 15t60 51t37.5 106h6l-22 -185h-398v4z" />
    <glyph glyph-name="zcaron.sc" horiz-adv-x="487" 
d="M143 700h9l100 -83l100 83h10l-101 -133h-17zM33 4l339 513h-117q-64 0 -99 -14t-56 -49.5t-37 -107.5h-6l21 184h372v-4l-337 -513h133q66 0 103.5 15t60 51t37.5 106h6l-22 -185h-398v4z" />
    <glyph glyph-name="zdotaccent.sc" horiz-adv-x="487" 
d="M216.5 598q-14.5 15 -14.5 36t14.5 36t36.5 15t36.5 -15t14.5 -36t-14.5 -36t-36.5 -15t-36.5 15zM33 4l339 513h-117q-64 0 -99 -14t-56 -49.5t-37 -107.5h-6l21 184h372v-4l-337 -513h133q66 0 103.5 15t60 51t37.5 106h6l-22 -185h-398v4z" />
    <glyph glyph-name="germandbls.sc" horiz-adv-x="898" 
d="M125 -5q-44 10 -81 29l5 157h6q8 -86 53.5 -132.5t122.5 -46.5q58 0 91.5 29t33.5 79q0 38 -23 63.5t-78 47.5l-82 34q-67 29 -96 63t-29 85q0 64 50.5 103t134.5 39q82 0 153 -34l-6 -153h-5q-15 171 -163 171q-57 0 -90 -26t-33 -71q0 -36 22 -58t85 -49l92 -39
q61 -26 88.5 -60t27.5 -84q0 -73 -51.5 -115t-140.5 -42q-43 0 -87 10zM578 -5q-44 10 -81 29l5 157h6q8 -86 53.5 -132.5t122.5 -46.5q58 0 91.5 29t33.5 79q0 38 -23 63.5t-78 47.5l-82 34q-67 29 -96 63t-29 85q0 64 50.5 103t134.5 39q82 0 153 -34l-6 -153h-5
q-15 171 -163 171q-57 0 -90 -26t-33 -71q0 -36 22 -58t85 -49l92 -39q61 -26 88.5 -60t27.5 -84q0 -73 -51.5 -115t-140.5 -42q-43 0 -87 10z" />
    <glyph glyph-name="ampersand.sc" horiz-adv-x="601" 
d="M583 68q-7 -37 -31 -59t-59 -22q-23 0 -41 11t-48 44l-47 54q-21 -51 -64.5 -80t-100.5 -29q-69 0 -113.5 40t-44.5 112q0 119 141 162l-8 9q-38 44 -53.5 72.5t-15.5 55.5q0 48 39.5 77.5t102.5 29.5q39 0 72.5 -8t55.5 -23l-7 -130h-6q-4 73 -35.5 111.5t-86.5 38.5
q-40 0 -64.5 -19t-24.5 -49q0 -26 11.5 -47.5t49.5 -64.5l255 -287q20 -22 36.5 -31.5t35.5 -9.5q36 0 46 44zM302.5 40.5q29.5 22.5 46.5 63.5l-168 190q-90 -31 -90 -124q0 -68 39.5 -110t104.5 -42q38 0 67.5 22.5z" />
    <glyph glyph-name="uni00A40301" horiz-adv-x="276" 
d="M151 740l76 120h82v-5l-154 -115h-4zM-11 -69v3q13 -3 37 -3q93 0 93 127v555q0 43 -15.5 60t-63.5 19v8h226v-8q-34 -2 -50.5 -8.5t-22.5 -22t-6 -48.5v-529q0 -79 -34 -121t-99 -42q-42 0 -65 10z" />
    </font>
</defs>
</svg>
