<?xml version="1.0" standalone="no"?>
<!DOCTYPE svg PUBLIC "-//W3C//DTD SVG 1.1//EN" "http://www.w3.org/Graphics/SVG/1.1/DTD/svg11.dtd" >
<svg xmlns="http://www.w3.org/2000/svg" xmlns:xlink="http://www.w3.org/1999/xlink" version="1.1">
<metadata>
Created by FontForge 20170924 at Thu Nov  2 21:40:17 2017
 By www-data
Copyright (c) Datto, Inc. All rights reserved.
</metadata>
<defs>
<font id="D-DIN" horiz-adv-x="610" >
  <font-face 
    font-family="D-DIN"
    font-weight="400"
    font-stretch="normal"
    units-per-em="1000"
    panose-1="2 11 5 4 3 2 2 3 2 4"
    ascent="831"
    descent="-169"
    x-height="507"
    cap-height="690"
    bbox="-135 -168 1115 890.002"
    underline-thickness="50"
    underline-position="-100"
    unicode-range="U+000D-FB02"
  />
<missing-glyph horiz-adv-x="600" 
d="M101 690h397v-690h-397v690zM464 34v622h-329v-622h329z" />
    <glyph glyph-name="fi" unicode="fi" horiz-adv-x="561" 
d="M183 567v-60h106v-54h-106v-453h-69v453h-64v54h64v57c0 38.668 10.833 69.335 32.5 92c21.667 22.667 51.5 34 89.5 34h53v-54h-42c-42.667 0 -64 -23 -64 -69zM410 507h68v-507h-68v507zM408 680h72v-90h-72v90z" />
    <glyph glyph-name="fl" unicode="fl" horiz-adv-x="600" 
d="M183 567v-60h106v-54h-106v-453h-69v453h-64v54h64v57c0 38.668 10.833 69.335 32.5 92c21.667 22.667 51.5 34 89.5 34h53v-54h-42c-42.667 0 -64 -23 -64 -69zM434 34c-21.333 22.667 -32 55.667 -32 99v557h68v-553c0 -26 5 -45 15 -57s26.333 -18 49 -18h41v-62h-48
c-40.667 -0 -71.667 11.333 -93 34z" />
    <glyph glyph-name=".notdef" horiz-adv-x="600" 
d="M101 690h397v-690h-397v690zM464 34v622h-329v-622h329z" />
    <glyph glyph-name="nonmarkingreturn" unicode="&#xd;" horiz-adv-x="217" 
 />
    <glyph glyph-name="space" unicode=" " horiz-adv-x="217" 
 />
    <glyph glyph-name="exclam" unicode="!" horiz-adv-x="239" 
d="M78 690h84l-14 -494h-56zM75 93h89v-93h-89v93z" />
    <glyph glyph-name="quotedbl" unicode="&#x22;" horiz-adv-x="308" 
d="M53 690h66v-230h-66v230zM189 690h66v-230h-66v230z" />
    <glyph glyph-name="numbersign" unicode="#" horiz-adv-x="511" 
d="M392 430l-20 -153h90v-56h-97l-29 -221h-60l29 221h-138l-29 -221h-60l29 221h-82v56h90l20 153h-86v55h93l27 205h59l-27 -205h138l27 205h60l-27 -205h87v-55h-94zM332 430h-138l-20 -153h138z" />
    <glyph glyph-name="dollar" unicode="$" horiz-adv-x="457" 
d="M368.5 83c-28.333 -30.667 -67.499 -48.667 -117.499 -54v-88h-58v87c-48 5.33301 -85.667 23.333 -113 54s-43 73 -47 127h69c3.33301 -35.333 12.666 -62.5 27.999 -81.5s36.333 -30.833 63 -35.5v230l-7 1c-46.667 9.33301 -82 26.833 -106 52.5s-36 62.5 -36 110.5
c0 49.333 13.5 89.166 40.5 119.499s63.167 48.166 108.5 53.499v82h58v-81c43.334 -5.33594 78.167 -22.1689 104.5 -50.5c26.333 -28.334 41.833 -69.167 46.5 -122.499h-69c-4.66699 63.333 -32 100 -82 110v-219l17 -3c46.667 -8.66699 82.167 -26.667 106.5 -54
s36.5 -65.666 36.5 -114.999c0 -51.333 -14.167 -92.333 -42.5 -123zM133.501 424.5c13 -16.333 32.833 -27.833 59.5 -34.5v206c-26 -4.66699 -45.667 -16.167 -59 -34.5s-20 -41.833 -20 -70.5c0 -28 6.5 -50.167 19.5 -66.5zM318.501 125c15 18.667 22.499 44 22.499 76
s-7.16699 56.333 -21.5 73s-37.166 28.667 -68.499 36v-219c30 4 52.5 15.333 67.5 34zM123 688z" />
    <glyph glyph-name="percent" unicode="%" horiz-adv-x="830" 
d="M71 304c-19.333 24.667 -29 61.667 -29 111v139c0 47.333 10.167 83 30.5 107s50.5 36 90.5 36c42 0 72.833 -11.833 92.5 -35.5s29.5 -59.5 29.5 -107.5v-139c0 -49.333 -9.83301 -86.333 -29.5 -111s-50.5 -37 -92.5 -37s-72.667 12.333 -92 37zM570 690h63l-373 -690
h-63zM205 346.5c7.33301 14.334 11 38.166 11 71.499v130c0 32 -3.83301 55 -11.5 69s-21.5 21 -41.5 21s-33.833 -7 -41.5 -21s-11.5 -37 -11.5 -69v-130c0 -33.333 3.83301 -57.166 11.5 -71.499s21.5 -21.5 41.5 -21.5c20.667 0 34.667 7.16699 42 21.5zM574 30.999
c-19.333 24.667 -29 61.667 -29 111v139c0 47.333 10.167 83 30.5 107s50.5 36 90.5 36c42 0 72.833 -11.833 92.5 -35.5s29.5 -59.5 29.5 -107.5v-139c0 -49.333 -9.83301 -86.333 -29.5 -111s-50.5 -37 -92.5 -37s-72.667 12.333 -92 37zM708 73.499
c7.33301 14.333 11 38.166 11 71.499v130c0 32 -3.83301 55 -11.5 69s-21.5 21 -41.5 21s-33.833 -7 -41.5 -21s-11.5 -37 -11.5 -69v-130c0 -33.333 3.83301 -57.166 11.5 -71.499s21.5 -21.5 41.5 -21.5c20.667 0 34.667 7.16699 42 21.5z" />
    <glyph glyph-name="ampersand" unicode="&#x26;" horiz-adv-x="597" 
d="M538 65l-0.000976562 -65h-34c-18 0 -32.333 3.16699 -43 9.5s-22 18.166 -34 35.499l-29 41c-26.667 -33.333 -53.667 -57.666 -81 -72.999s-57.666 -23 -90.999 -23c-52.667 0 -93.667 15.833 -123 47.5s-44 73.5 -44 125.5c0 37.333 10.667 73 32 107
s54.666 71.333 99.999 112c-33.333 48.667 -55.666 84.167 -66.999 106.5s-17 44.833 -17 67.5c0 42 13.667 76.5 41 103.5s62 40.5 104 40.5s76.333 -13.5 103 -40.5s40 -60.833 40 -101.5c0 -31.334 -8.5 -60.334 -25.5 -87c-17 -26.667 -47.5 -59.334 -91.5 -98l124 -177
l72 96l47 -41l-81 -109l35 -50c12.667 -18 26 -27 40 -27h23zM196.499 617.5c-14.333 -15 -21.498 -34.833 -21.498 -59.5c0 -15.333 4.16699 -31.333 12.5 -48s26.166 -44.667 53.499 -84c35.333 31.333 58.666 56 69.999 74s17 37.667 17 59c0 24 -7 43.5 -21 58.5
s-32.333 22.5 -55 22.5s-41.167 -7.5 -55.5 -22.5zM294.001 72.5c19.333 13 41.334 35.501 66.001 67.501l-132 190c-35.333 -31.333 -61 -59.833 -77 -85.5s-24 -51.834 -24 -78.501c0 -34.667 9.16699 -62.167 27.5 -82.5s43.5 -30.5 75.5 -30.5
c23.333 0 44.666 6.5 63.999 19.5z" />
    <glyph glyph-name="quotesingle" unicode="'" horiz-adv-x="172" 
d="M53 690h66v-230h-66v230z" />
    <glyph glyph-name="parenleft" unicode="(" horiz-adv-x="288" 
d="M59 328c0 145.333 39.667 282.667 119 412h51c-33.333 -65.333 -58.5 -133 -75.5 -203s-25.5 -139.667 -25.5 -209c0 -70 8.5 -140.167 25.5 -210.5s42.167 -137.5 75.5 -201.5h-52c-78.667 130.667 -118 268 -118 412z" />
    <glyph glyph-name="parenright" unicode=")" horiz-adv-x="288" 
d="M135 118c17.333 70.667 26 140.667 26 210s-8.66699 139 -26 209s-42.666 137.667 -75.999 203h51c79.333 -128 119 -265.333 119 -412c0 -144 -39.333 -281.333 -118 -412h-52c33.333 64 58.666 131.333 75.999 202z" />
    <glyph glyph-name="asterisk" unicode="*" horiz-adv-x="377" 
d="M166 519l-86 -50l-21 36l88 51l-88 50l21 36l86 -50v98h45v-98l87 50l20 -36l-88 -50l88 -51l-20 -36l-87 50v-104h-45v104z" />
    <glyph glyph-name="plus" unicode="+" horiz-adv-x="512" 
d="M223 243h-166v66h166v166h66v-166h166v-66h-166v-166h-66v166z" />
    <glyph glyph-name="comma" unicode="," horiz-adv-x="172" 
d="M53 93h66v-168l-66 -62v230z" />
    <glyph glyph-name="hyphen" unicode="-" horiz-adv-x="393" 
d="M59 380h275v-66h-275v66z" />
    <glyph glyph-name="period" unicode="." horiz-adv-x="194" 
d="M53 92h88v-92h-88v92z" />
    <glyph glyph-name="slash" unicode="/" horiz-adv-x="392" 
d="M273 690h60l-214 -700h-60z" />
    <glyph glyph-name="zero" unicode="0" horiz-adv-x="493" 
d="M66 211v272c0 144.667 60 217 180 217c120.667 0 181 -72.333 181 -217v-272c0 -147.333 -60.333 -221 -181 -221c-120 0 -180 73.667 -180 221zM329 95c16.667 26 24.999 69.333 24.999 130v240c0 60.667 -8.33301 104 -25 130s-44.334 39 -83 39
c-38.667 0 -66.167 -13 -82.5 -39s-24.5 -69.333 -24.5 -130v-240c0 -60.667 8.16699 -104 24.5 -130s43.833 -39 82.5 -39s66.334 13 83.001 39z" />
    <glyph glyph-name="one" unicode="1" horiz-adv-x="329" 
d="M169 606l-119 -89v82l118 91h73v-690h-72v606z" />
    <glyph glyph-name="two" unicode="2" horiz-adv-x="468" 
d="M59 59l231.999 332c29.333 43.334 44 83.667 44 121v15c0 33.333 -9.33301 59.666 -28 78.999s-43.667 29 -75 29s-56 -9.5 -74 -28.5s-27 -46.833 -27 -83.5v-18h-72v22c0 52 15.833 93.833 47.5 125.5s74.167 47.5 127.5 47.5c34.667 0 65.334 -7.5 92.001 -22.5
s47.167 -35.5 61.5 -61.5s21.5 -55 21.5 -87v-17c0 -28 -5 -54.667 -15 -80s-25 -51.666 -45 -78.999l-200 -288h260v-65h-350v59z" />
    <glyph glyph-name="three" unicode="3" horiz-adv-x="495" 
d="M110 34.5c-32.667 29.667 -48.999 69.8301 -48.999 120.497v16h73v-13c0 -32 9.83301 -57.167 29.5 -75.5s46.167 -27.5 79.5 -27.5c35.333 0 63 10.833 83 32.5s30 50.834 30 87.501v26c0 38 -10.5 68.167 -31.5 90.5s-49.833 33.5 -86.5 33.5h-36v66h35
c33.334 0 59.667 10.5 79 31.5s29 48.5 29 82.5v20c0 33.333 -9.33301 60 -28 80s-44 30 -76 30s-57 -9.33301 -75 -28s-27 -43.667 -27 -75v-16h-70v18c0 50.667 15.5 91 46.5 121s73.5 45 127.5 45c53.333 0 95.666 -15.5 126.999 -46.5s47 -72.5 47 -124.5v-22
c0 -33.333 -8 -62.333 -24 -87s-37 -43 -63 -55c32 -12 56.5 -32.167 73.5 -60.5s25.5 -62.166 25.5 -101.499v-24c0 -57.333 -17.167 -103.166 -51.5 -137.499s-79.5 -51.5 -135.5 -51.5c-55.333 0 -99.333 14.833 -132 44.5z" />
    <glyph glyph-name="four" unicode="4" horiz-adv-x="499" 
d="M453 135h-75v-135h-73v135h-259v66l207 489h73l-207 -489h186v188h73v-188h75v-66z" />
    <glyph glyph-name="five" unicode="5" horiz-adv-x="484" 
d="M112.5 33c-31 28.667 -46.501 67.667 -46.501 117v13h70v-7c0 -32 9 -56.667 27 -74s43.667 -26 77 -26c70 0 105 43.333 105 130v65c0 44 -8.5 76.833 -25.5 98.5s-43.167 32.5 -78.5 32.5c-24.667 0 -45.667 -6.16699 -63 -18.5
c-17.334 -12.333 -29.667 -29.5 -37 -51.5h-64v378h330v-67h-263v-220c12 13.335 27.333 24.168 46 32.5c18.667 8.33301 39 12.5 61 12.5c55.333 0 97 -16.667 125 -50s42 -81 42 -143v-75c0 -60 -15.667 -106.667 -47 -140s-74.666 -50 -129.999 -50
c-54.667 0 -97.5 14.333 -128.5 43z" />
    <glyph glyph-name="six" unicode="6" horiz-adv-x="494" 
d="M110 42.5c-34 35 -51.001 82.167 -51.001 141.5v34c0 24.667 3.5 48.667 10.5 72s17.167 48.333 30.5 75l161 325h76l-149 -303c8 6 18.833 11 32.5 15s27.834 6 42.5 6c51.333 0 92.833 -17 124.5 -51s47.5 -79.667 47.5 -137v-34
c0 -40.667 -8.16699 -75.667 -24.5 -105s-38.666 -51.833 -66.999 -67.5s-60.5 -23.5 -96.5 -23.5c-57.333 0 -103 17.5 -137 52.5zM330.999 89.5c20.667 23 31.002 53.832 31.002 92.499v34c0 38.667 -10.333 69.334 -31 92.001s-48.667 34 -84 34
c-34.667 0 -62.334 -11.167 -83.001 -33.5s-31 -52.833 -31 -91.5v-34c0 -39.333 10.167 -70.5 30.5 -93.5s48.166 -34.5 83.499 -34.5s63.333 11.5 84 34.5z" />
    <glyph glyph-name="seven" unicode="7" horiz-adv-x="431" 
d="M391 690v-66l-225 -624h-73l228 624h-281v66h351z" />
    <glyph glyph-name="eight" unicode="8" horiz-adv-x="512" 
d="M157 13.5c-28.667 15.667 -51.002 37.834 -67.002 66.501s-24 61.667 -24 99v25c0 36 8.5 68.167 25.5 96.5s40.5 49.5 70.5 63.5c-25.333 12.667 -45.333 31.167 -60 55.5c-14.667 24.334 -22 53.167 -22 86.5v20c0 32.667 7.33301 62.167 22 88.5
s35.334 47.166 62.001 62.499s57.334 23 92.001 23c35.333 0 66.5 -7.66699 93.5 -23c27 -15.3359 47.667 -36.1689 62 -62.5c14.333 -26.333 21.5 -55.833 21.5 -88.5v-20c0 -33.333 -7.5 -62.166 -22.5 -86.499s-35.167 -42.833 -60.5 -55.5
c30.667 -14.667 54.334 -36.167 71.001 -64.5s25 -59.833 25 -94.5v-25c0 -38 -8.16699 -71.333 -24.5 -100s-38.833 -50.834 -67.5 -66.501s-61.667 -23.5 -99 -23.5c-36.667 0 -69.334 7.83301 -98.001 23.5zM331.498 426c19 20.667 28.5 47.333 28.5 80v21
c0 31.333 -9.66699 57.166 -29 77.499s-44.333 30.5 -75 30.5s-55.5 -10.167 -74.5 -30.5c-19 -20.334 -28.5 -46.167 -28.5 -77.499v-21c0 -32.667 9.33301 -59.334 28 -80c18.667 -20.667 43.667 -31 75 -31s56.5 10.333 75.5 31zM340.998 89.499
c21.333 23 32 53.167 32 90.5v25c0 37.333 -10.5 67.5 -31.5 90.5s-49.5 34.5 -85.5 34.5c-35.333 0 -63.666 -11.667 -84.999 -35s-32 -53.333 -32 -90v-25c0 -36.667 10.667 -66.667 32 -90s49.666 -35 84.999 -35c35.334 0 63.667 11.5 85 34.5z" />
    <glyph glyph-name="nine" unicode="9" horiz-adv-x="494" 
d="M306 303c-8 -6 -18.8311 -11 -32.498 -15s-27.834 -6 -42.501 -6c-51.333 0 -92.833 17.167 -124.5 51.5s-47.5 79.833 -47.5 136.5v34c0 40.667 8.16699 75.667 24.5 105s38.666 51.833 66.999 67.5s60.5 23.5 96.5 23.5c57.333 0 103 -17.5 137 -52.5
s51 -82.167 51 -141.5v-34c0 -24.667 -3.5 -48.334 -10.5 -71c-7 -22.667 -17.167 -48 -30.5 -76l-160 -325h-76zM330.502 381.5c20.333 22.333 30.499 52.833 30.499 91.5v34c0 39.333 -10.167 70.5 -30.5 93.5s-48.166 34.5 -83.499 34.5s-63.333 -11.5 -84 -34.5
s-31 -53.833 -31 -92.5v-34c0 -38.667 10.333 -69.334 31 -92c20.667 -22.667 48.667 -34 84 -34c35.334 0 63.167 11.167 83.5 33.5z" />
    <glyph glyph-name="colon" unicode=":" horiz-adv-x="194" 
d="M53 92h88v-92h-88v92zM53 430h88v-92h-88v92z" />
    <glyph glyph-name="semicolon" unicode=";" horiz-adv-x="194" 
d="M53 430h88v-92h-88v92zM75 93h66v-168l-66 -62v230z" />
    <glyph glyph-name="less" unicode="&#x3c;" horiz-adv-x="512" 
d="M57 247v59l398 162v-71l-305 -121l305 -121v-71z" />
    <glyph glyph-name="equal" unicode="=" horiz-adv-x="512" 
d="M57 405h398v-67h-398v67zM57 213h398v-66h-398v66z" />
    <glyph glyph-name="greater" unicode="&#x3e;" horiz-adv-x="512" 
d="M57 155l305 121l-305 121v71l398 -162v-59l-398 -163v71z" />
    <glyph glyph-name="question" unicode="?" horiz-adv-x="429" 
d="M172 237c0 24 2.33398 43.499 7.00098 58.499s14.667 32.833 30 53.5l54 73c18 24 30.167 43.833 36.5 59.5s9.5 32.834 9.5 51.501c0 32 -8.66699 56.833 -26 74.5s-42 26.5 -74 26.5c-64.667 0 -97.667 -36.333 -99 -109h-72c1.33301 56 16.666 99.167 45.999 129.5
s71.666 45.5 126.999 45.5c52.667 0 94.334 -15.333 125.001 -46s46 -71 46 -121c0 -24 -4 -46 -12 -66s-21 -42.667 -39 -68l-57 -80c-11.333 -16 -19 -29.667 -23 -41s-6 -25.333 -6 -42v-58h-73v59zM164.001 92.999h89v-93h-89v93z" />
    <glyph glyph-name="at" unicode="@" horiz-adv-x="872" 
d="M240 -80.5c-57.333 31.667 -101.833 76.0029 -133.5 133.003s-47.5 122.5 -47.5 196.5v68c0 73.334 16 138.167 48 194.5s76.5 100.166 133.5 131.499s122.167 47 195.5 47c72.667 0 137.667 -15.667 195 -47c57.333 -31.334 102 -75.167 134 -131.499
c32 -56.333 48 -120.5 48 -192.5v-67c0 -65.333 -14 -114.333 -42 -147s-64.333 -49 -109 -49c-27.333 0 -51 6.16699 -71 18.5s-35 29.833 -45 52.5c-10 -23.333 -25.833 -41 -47.5 -53s-48.5 -18 -80.5 -18c-51.333 0 -89 15.833 -113 47.5s-36 76.167 -36 133.5v80
c0 58 12 102.833 36 134.5s61 47.5 111 47.5c25.334 0 47.667 -4.83301 66.999 -14.5c19.335 -9.66699 34.335 -23.167 45 -40.5v45h65v-289c0 -28.667 6.5 -50.334 19.5 -65.001s29.833 -22 50.5 -22c26 0 45.667 10.667 59 32s20 56.666 20 105.999v67
c0 62 -12.333 116.167 -37 162.5s-60.167 82.166 -106.5 107.499s-100.5 38 -162.5 38s-116.167 -12.667 -162.5 -38c-46.333 -25.334 -81.833 -61.167 -106.5 -107.5s-37 -100.166 -37 -161.499v-71c0 -61.333 12.333 -115.5 37 -162.5s60 -83.5 106 -109.5
s100.333 -39 163 -39c44 0 82.667 4.16699 116 12.5s66.333 21.166 99 38.499l24 -57c-36 -20.667 -72.833 -35.667 -110.5 -45s-80.5 -14 -128.5 -14c-73.333 0 -138.666 15.833 -195.999 47.5zM525 237.003v82c0 81.333 -31 122 -93 122c-62.667 0 -94 -41.667 -94 -125
v-74c0 -41.333 7.33301 -73 22 -95s38.667 -33 72 -33c62 0 93 41 93 123z" />
    <glyph glyph-name="A" unicode="A" horiz-adv-x="577" 
d="M435 166h-293l-58 -166h-77l251 690h61l251 -690h-77zM414 228l-126 360l-125 -360h251z" />
    <glyph glyph-name="B" unicode="B" horiz-adv-x="614" 
d="M518.5 294c19.667 -28.667 29.498 -63.668 29.498 -105.001c0 -59.333 -18.667 -105.666 -56 -138.999s-88.333 -50 -153 -50h-259v690h253c64.667 0 114.834 -15.833 150.501 -47.5s53.5 -76.5 53.5 -134.5c0 -35.333 -9.33301 -67 -28 -95s-44.667 -47.333 -78 -58
c38.667 -12 67.834 -32.333 87.501 -61zM152.998 624.999v-240h172c43.333 0 77.333 9.83301 102 29.5s37 49.5 37 89.5s-12 70.167 -36 90.5s-58 30.5 -102 30.5h-173zM436.998 97.999c25.333 22 38 54.001 38 96.001c0 41.333 -12.5 72.666 -37.5 93.999
s-60.5 32 -106.5 32h-178v-255h177c46 0 81.667 11 107 33z" />
    <glyph glyph-name="C" unicode="C" 
d="M132 55.5c-44 42.333 -66.001 109.166 -66.001 200.499v179c0 91.333 22 158.166 66 200.499s103 63.5 177 63.5c46.667 0 87.834 -8.66699 123.501 -26s63.167 -42 82.5 -74s29 -69 29 -111v-3h-73v3c0 44.667 -14.5 80 -43.5 106s-68.5 39 -118.5 39
c-55.333 0 -97.5 -15.667 -126.5 -47s-43.5 -82.666 -43.5 -153.999v-180c0 -128.667 57 -193 171 -193c50 0 89.333 12.833 118 38.5s43 60.834 43 105.501v4h71v-4c0 -64.667 -21 -116 -63 -154s-98.667 -57 -170 -57c-74 0 -133 21.167 -177 63.5z" />
    <glyph glyph-name="D" unicode="D" horiz-adv-x="621" 
d="M80 690l236 -0.000976562c73.333 0 131.5 -21.167 174.5 -63.5c43 -42.334 64.5 -109.167 64.5 -200.5v-162c0 -91.333 -21.5 -158.166 -64.5 -200.499s-101.167 -63.5 -174.5 -63.5h-236v690zM317 65.999c109.333 0 164 64.667 164 194v163c0 70 -14.167 121 -42.5 153
s-68.833 48 -121.5 48h-163v-558h163z" />
    <glyph glyph-name="E" unicode="E" horiz-adv-x="547" 
d="M153 624v-240h296v-66h-296v-252h346v-66h-419v690h419v-66h-346z" />
    <glyph glyph-name="F" unicode="F" horiz-adv-x="539" 
d="M153 624v-242h296v-66h-296v-316h-73v690h419v-66h-346z" />
    <glyph glyph-name="G" unicode="G" 
d="M131.5 55.5c-43.667 42.333 -65.501 109.168 -65.501 200.501v179c0 91.333 21.833 158.166 65.5 200.499s102.167 63.5 175.5 63.5c47.334 0 88.667 -8.66699 124 -26c35.334 -17.333 62.667 -41.833 82 -73.5s29 -68.167 29 -109.5v-4h-73v4
c0 44 -14.5 78.833 -43.5 104.5s-68.167 38.5 -117.5 38.5c-55.333 0 -97.333 -15.833 -126 -47.5s-43 -82.834 -43 -153.501v-180c0 -128.667 56.667 -193 170 -193c52.667 0 92.834 14.333 120.501 43s41.5 74.334 41.5 137.001v53h-165v63h238v-103
c0 -90.667 -21.333 -156.667 -64 -198s-100.334 -62 -173 -62c-73.333 0 -131.833 21.167 -175.5 63.5z" />
    <glyph glyph-name="H" unicode="H" horiz-adv-x="629" 
d="M549 690v-690h-73v320h-323v-320h-73v690h73v-304h323v304h73z" />
    <glyph glyph-name="I" unicode="I" horiz-adv-x="249" 
d="M88 690h73v-690h-73v690z" />
    <glyph glyph-name="J" unicode="J" horiz-adv-x="313" 
d="M32 66h56.999c22.667 0 38.834 6 48.501 18s14.5 31.333 14.5 58v548h73v-557c0 -43.333 -10.667 -76.333 -32 -99s-52.333 -34 -93 -34h-68v66z" />
    <glyph glyph-name="K" unicode="K" horiz-adv-x="598" 
d="M294 364l-141 -174v-190h-73v690h73v-402l319 402h87l-218 -269l249 -421h-85z" />
    <glyph glyph-name="L" unicode="L" horiz-adv-x="529" 
d="M80 690h73v-624h344v-66h-417v690z" />
    <glyph glyph-name="M" unicode="M" horiz-adv-x="753" 
d="M673 690v-690h-73v540l-195 -402h-56l-196 402v-540h-73v690h73l224 -465l223 465h73z" />
    <glyph glyph-name="N" unicode="N" horiz-adv-x="663" 
d="M583 690v-690h-73l-357 556v-556h-73v690h73l357 -554v554h73z" />
    <glyph glyph-name="O" unicode="O" 
d="M130.5 55.5c-43 42.333 -64.499 109.167 -64.499 200.5v179c0 91.333 21.667 158.166 65 200.499s101.666 63.5 174.999 63.5c72.667 0 130.5 -21.167 173.5 -63.5c43 -42.334 64.5 -109.167 64.5 -200.5v-179c0 -91.333 -21.667 -158.166 -65 -200.499
s-101.333 -63.5 -174 -63.5c-73.333 0 -131.5 21.167 -174.5 63.5zM471.001 252.001v180.001c0 134 -55 201 -165 201c-55.333 0 -97 -15.833 -125 -47.5s-42 -82.834 -42 -153.501v-180c0 -67.333 14.167 -116.333 42.5 -147s69.833 -46 124.5 -46
c110 0 165 64.333 165 193z" />
    <glyph glyph-name="P" unicode="P" horiz-adv-x="577" 
d="M487 636.5c38.667 -35.667 58 -86.5 58 -152.5c0 -62 -19.5 -110.667 -58.5 -146s-91.833 -53 -158.5 -53h-175v-285h-73v690h248c67.333 0 120.333 -17.833 159 -53.5zM433 384c26 22 39 55.333 39 100c0 47.333 -13 82.5 -39 105.5s-63 34.5 -111 34.5h-169v-273h169
c48 0 85 11 111 33z" />
    <glyph glyph-name="Q" unicode="Q" 
d="M432 20l75.001 -138.998l-57 -32l-81 149c-20 -4 -41.333 -6 -64 -6c-73.333 0 -131.5 21.167 -174.5 63.5s-64.5 109.166 -64.5 200.499v179c0 91.333 21.667 158.166 65 200.499s101.666 63.5 174.999 63.5c72.667 0 130.5 -21.167 173.5 -63.5
c43 -42.334 64.5 -109.167 64.5 -200.5v-179c0 -118 -37.333 -196.667 -112 -236zM471.001 432.002c0 134 -55 201.001 -165 201.001c-55.333 0 -97 -15.833 -125 -47.5s-42 -82.834 -42 -153.501v-180c0 -67.333 14.167 -116.333 42.5 -147s69.833 -46 124.5 -46
c110 0 165 64.333 165 193v180z" />
    <glyph glyph-name="R" unicode="R" horiz-adv-x="599" 
d="M319 303h-166v-303h-73v690h256c64.667 0 115.5 -16.833 152.5 -50.5s55.5 -81.5 55.5 -143.5c0 -49.333 -13 -90 -39 -122s-62.333 -53.333 -109 -64l163 -310h-84zM153 366l176.998 -0.000976562c44.667 0 79.334 11.167 104.001 33.5c24.667 22.334 37 54.167 37 95.5
c0 42.668 -12.167 74.835 -36.5 96.501c-24.333 21.667 -59.166 32.5 -104.499 32.5h-177v-258z" />
    <glyph glyph-name="S" unicode="S" horiz-adv-x="546" 
d="M101 45c-39.333 34 -62.0029 84.002 -68.0029 150.002h72c9.33301 -91.333 64 -137 164 -137c52 0 91.5 11 118.5 33s40.5 54 40.5 96c0 38 -10.667 66.667 -32 86c-21.333 19.334 -53.666 32.667 -96.999 39.999l-78 13c-56 9.33301 -99 28.5 -129 57.5
s-45 69.833 -45 122.5c0 60.667 20.333 108 61 142s94.334 51 161.001 51c61.333 0 111.5 -15.833 150.5 -47.5s62.167 -79.834 69.5 -144.501h-72c-8 86 -57.667 129 -149 129c-47.333 0 -84.166 -11.167 -110.499 -33.5s-39.5 -52.833 -39.5 -91.5
c0 -34 10.167 -60.5 30.5 -79.5s51.166 -32.167 92.499 -39.5l80 -14c58 -10 102.333 -30 133 -60s46 -72.333 46 -127c0 -62.667 -21 -111.167 -63 -145.5s-99.667 -51.5 -173 -51.5c-69.333 0 -123.666 17 -162.999 51z" />
    <glyph glyph-name="T" unicode="T" horiz-adv-x="482" 
d="M474 624h-197v-624h-72v624h-197v66h466v-66z" />
    <glyph glyph-name="U" unicode="U" horiz-adv-x="635" 
d="M196 23c-36 19.333 -64.333 46.667 -85 82s-31 75.333 -31 120v465h74v-459c0 -52.667 14.833 -94.5 44.5 -125.5s69.5 -46.5 119.5 -46.5c49.333 0 89 15.5 119 46.5s45 72.833 45 125.5v459h73v-465c0 -45.333 -10.167 -85.5 -30.5 -120.5s-48.5 -62.167 -84.5 -81.5
s-76.667 -29 -122 -29s-86 9.66699 -122 29z" />
    <glyph glyph-name="V" unicode="V" horiz-adv-x="523" 
d="M7 690h76l179 -572l178 572h76l-225 -690h-60z" />
    <glyph glyph-name="W" unicode="W" horiz-adv-x="796" 
d="M789 690l-173 -690h-65l-153 599l-149 -599h-65l-177 690h71l140 -572l135 572h93l140 -572l135 572h68z" />
    <glyph glyph-name="X" unicode="X" horiz-adv-x="566" 
d="M239 359l-213 331h88l169 -271l169 271h85l-211 -328l233 -362h-88l-190 301l-189 -301h-85z" />
    <glyph glyph-name="Y" unicode="Y" horiz-adv-x="499" 
d="M286 289v-289h-73v290l-206 400h79l163 -331l164 331h79z" />
    <glyph glyph-name="Z" unicode="Z" horiz-adv-x="516" 
d="M480 66v-66h-440v66l354 558h-341v66h424v-66l-354 -558h357z" />
    <glyph glyph-name="bracketleft" unicode="[" horiz-adv-x="295" 
d="M80 740h156v-66h-86v-692h86v-66h-156v824z" />
    <glyph glyph-name="backslash" unicode="\" horiz-adv-x="392" 
d="M59 690h60l214 -700h-60z" />
    <glyph glyph-name="bracketright" unicode="]" horiz-adv-x="295" 
d="M59 -18h86v692h-86v66h156v-824h-156v66z" />
    <glyph glyph-name="asciicircum" unicode="^" horiz-adv-x="512" 
d="M227 690h59l173 -405h-60l-143 341l-142 -341h-60z" />
    <glyph glyph-name="underscore" unicode="_" horiz-adv-x="457" 
d="M0 -54h457v-50h-457v50z" />
    <glyph glyph-name="grave" unicode="`" horiz-adv-x="500" 
d="M148 697h84l99 -125h-63z" />
    <glyph glyph-name="a" unicode="a" horiz-adv-x="497" 
d="M374.5 471c31.667 -28.667 47.501 -70.667 47.501 -126v-345h-67v54c-15.333 -20.667 -34.333 -35.834 -57 -45.501s-50.334 -14.5 -83.001 -14.5c-53.333 0 -94.666 12.667 -123.999 38s-44 62.333 -44 111c0 45.333 14.833 80.833 44.5 106.5s71.5 38.5 125.5 38.5h137
v58c0 36.667 -10 64.334 -30 83.001s-48.333 28 -85 28c-34.667 0 -61.834 -7.83301 -81.501 -23.5s-29.5 -37.167 -29.5 -64.5v-3h-66v5c0 43.333 15.667 78 47 104s74.333 39 129 39c59.333 0 104.833 -14.333 136.5 -43zM323.501 79.5
c20.333 20.333 30.5 51.167 30.5 92.5v66h-127c-74.667 0 -112 -31.333 -112 -94c0 -63.333 37 -95 111 -95c44.667 0 77.167 10.167 97.5 30.5z" />
    <glyph glyph-name="b" unicode="b" horiz-adv-x="510" 
d="M143 67l0.000976562 -66.999h-68v690h68v-254c14 25.334 32.167 44.667 54.5 57.999c22.333 13.333 48.166 20 77.499 20c52 0 94.333 -16.833 127 -50.5s49 -86.167 49 -157.5v-104c0 -71.333 -16 -123.833 -48 -157.5s-73 -50.5 -123 -50.5
c-63.333 0 -109 24.333 -137 73zM383.001 206.001l0.000976562 95.999c0 100 -39 150 -117 150c-40.667 0 -71.334 -14.167 -92.001 -42.5s-31 -66.166 -31 -113.499v-89c0 -44.667 10.833 -81.167 32.5 -109.5s53.167 -42.5 94.5 -42.5c75.333 0 113 50.333 113 151z" />
    <glyph glyph-name="c" unicode="c" horiz-adv-x="503" 
d="M112.5 43.5c-35.667 33 -53.5 85.832 -53.5 158.499v104c0 72 17.833 124.667 53.5 158s83.5 50 143.5 50c58 0 103.833 -15.333 137.5 -46s50.5 -71.667 50.5 -123v-5h-66v5c0 34 -10.667 60.333 -32 79s-50.333 28 -87 28c-41.333 0 -73.666 -11.167 -96.999 -33.5
s-35 -61.166 -35 -116.499v-96c0 -56 11.5 -95.167 34.5 -117.5s55.167 -33.5 96.5 -33.5c37.334 0 66.667 9.33301 88 28s32 45 32 79v5h66v-4c0 -51.333 -17 -92.333 -51 -123s-79.333 -46 -136 -46c-60.667 0 -108.834 16.5 -144.501 49.5z" />
    <glyph glyph-name="d" unicode="d" horiz-adv-x="511" 
d="M107 44.5c-32 33.667 -47.999 86.167 -47.999 157.5v104c0 71.333 16 123.833 48 157.5s73.333 50.5 124 50.5c61.333 0 106.666 -26 135.999 -78v254h69v-690h-69v67c-13.333 -24 -31.5 -42.167 -54.5 -54.5s-50.5 -18.5 -82.5 -18.5c-50 0 -91 16.833 -123 50.5z
M335.001 97c21.333 28 32 64.667 32 110v89c0 47.334 -10.333 85.167 -31 113.5s-51.334 42.5 -92 42.5c-77.333 0 -116 -50 -116 -150v-96c0 -100.667 37.333 -151 112 -151c42 0 73.667 14 95 42z" />
    <glyph glyph-name="e" unicode="e" horiz-adv-x="503" 
d="M127 240v-30c0 -57.333 11.667 -97.5 35 -120.5s55.666 -34.5 96.999 -34.5c36 0 64.167 8.66699 84.5 26s30.5 41.333 30.5 72v3h66v-5c0 -47.333 -16.5 -85.333 -49.5 -114s-78.5 -43 -136.5 -43c-59.333 0 -106.666 17.667 -141.999 53s-53 90.333 -53 165v88
c0 72.667 17.667 126.5 53 161.5s82 52.5 140 52.5s104.5 -17.5 139.5 -52.5s52.5 -88.833 52.5 -161.5v-60h-317zM161 418.5c-22.667 -22.333 -34 -61.167 -34 -116.5v-11h249v18c0 52.667 -11 89.667 -33 111s-52.333 32 -91 32c-38 0 -68.333 -11.167 -91 -33.5z" />
    <glyph glyph-name="f" unicode="f" horiz-adv-x="327" 
d="M183 567v-60h106v-54h-106v-453h-69v453h-64v54h64v57c0 38.668 10.833 69.335 32.5 92c21.667 22.667 51.5 34 89.5 34h53v-54h-42c-42.667 0 -64 -23 -64 -69z" />
    <glyph glyph-name="g" unicode="g" horiz-adv-x="511" 
d="M120.5 -122c-31.667 24 -49.167 56.332 -52.5 96.999h68c3.33301 -22 14.833 -39.833 34.5 -53.5s45.5 -20.5 77.5 -20.5c79.333 0 119 44.333 119 133v71c-13.333 -24 -31.5 -42.333 -54.5 -55s-50.5 -19 -82.5 -19c-50 0 -91 16.833 -123 50.5s-48 86.5 -48 158.5v70
c0 71.334 16 123.667 48 157s73.333 50 124 50c62 0 107.333 -25.667 136 -77v71h69v-471c0 -61.333 -16.5 -109.666 -49.5 -144.999s-79.167 -53 -138.5 -53c-53.333 0 -95.833 12 -127.5 36zM335 134.999c21.333 28 32 64.667 32 110v55
c0 47.334 -10.333 85.167 -31 113.5s-51.334 42.5 -92 42.5c-77.333 0 -116 -50.333 -116 -151v-61c0 -100.667 37.333 -151 112 -151c42 0 73.667 14 95 42z" />
    <glyph glyph-name="h" unicode="h" horiz-adv-x="522" 
d="M75 690l67.999 -0.00195312v-245c30.667 45.333 76 68 136 68c52.667 0 93.834 -15.667 123.501 -47s44.5 -75.666 44.5 -132.999v-333h-68v323c0 42 -10.333 74 -31 96s-49.334 33 -86 33c-36 0 -64.833 -11.167 -86.5 -33.5s-32.5 -54.166 -32.5 -95.499v-323h-68v690z
" />
    <glyph glyph-name="i" unicode="i" horiz-adv-x="234" 
d="M83 507h68v-507h-68v507zM81 680h72v-90h-72v90z" />
    <glyph glyph-name="j" unicode="j" horiz-adv-x="226" 
d="M72 690h72v-90h-72v90zM-30 -90h41c22.667 0 39 6 49 18s15 31 15 57v522h68v-526c0 -43.333 -10.667 -76.333 -32 -99s-52.333 -34 -93 -34h-48v62z" />
    <glyph glyph-name="k" unicode="k" horiz-adv-x="494" 
d="M238 263l-95 -112v-151h-68v690h68v-453l221 270h82l-163 -192l192 -315h-83z" />
    <glyph glyph-name="l" unicode="l" horiz-adv-x="273" 
d="M107 34c-21.333 22.667 -32 55.667 -32 99v557h68v-553c0 -26 5 -45 15 -57s26.333 -18 49 -18h41v-62h-48c-40.667 -0 -71.667 11.333 -93 34z" />
    <glyph glyph-name="m" unicode="m" horiz-adv-x="825" 
d="M75 507l66.998 -0.00195312v-62c14.667 22 33.834 38.833 57.501 50.5s50.167 17.5 79.5 17.5c34.667 0 64.334 -7.33301 89.001 -22s43.667 -35.667 57 -63c33.334 56.667 84.667 85 154 85c54 0 96 -15.833 126 -47.5s45 -75.834 45 -132.5v-333h-68v323
c0 42 -10.167 74 -30.5 96s-48.833 33 -85.5 33c-37.333 0 -66.5 -11.167 -87.5 -33.5s-31.5 -53.166 -31.5 -92.499v-326h-69v323c0 42 -10.167 74 -30.5 96s-48.833 33 -85.5 33c-36 0 -64.833 -11.167 -86.5 -33.5s-32.5 -54.166 -32.5 -95.499v-323h-68v507z" />
    <glyph glyph-name="n" unicode="n" horiz-adv-x="522" 
d="M75 507l67 -0.000976562v-62c14.667 22.667 33.834 39.667 57.5 51c23.667 11.333 50.167 17 79.5 17c54 0 95.5 -15.833 124.5 -47.5s43.5 -75.834 43.5 -132.5v-333h-68v323c0 42 -10.333 74 -31 96s-49.334 33 -86 33c-36 0 -64.833 -11.167 -86.5 -33.5
s-32.5 -54.166 -32.5 -95.499v-323h-68v507z" />
    <glyph glyph-name="o" unicode="o" horiz-adv-x="505" 
d="M112 43.5c-35.333 33 -53 85.833 -53 158.5v104c0 72 17.667 124.667 53 158s82.666 50 141.999 50c58 0 104.5 -16.667 139.5 -50s52.5 -86 52.5 -158v-104c0 -72 -17.5 -124.667 -52.5 -158s-81.5 -50 -139.5 -50c-59.333 0 -106.666 16.5 -141.999 49.5zM344.5 88.5
c22.333 22.333 33.5 61.499 33.5 117.499v96c0 55.334 -11.167 94.167 -33.5 116.5s-52.5 33.5 -90.5 33.5c-39.333 0 -70.333 -11.167 -93 -33.5s-34 -61.166 -34 -116.499v-96c0 -56 11.333 -95.167 34 -117.5s53.667 -33.5 93 -33.5c38 0 68.167 11.167 90.5 33.5z" />
    <glyph glyph-name="p" unicode="p" horiz-adv-x="510" 
d="M75 507l68 -0.000976562v-71c13.333 25.333 31.333 44.5 54 57.5s48.667 19.5 78 19.5c52 0 94.333 -16.667 127 -50s49 -85.666 49 -156.999v-104c0 -72 -16 -124.667 -48 -158s-73 -50 -123 -50c-63.333 0 -109 24.333 -137 73v-219h-68v659zM383 205.999
l0.000976562 94.999c0 100.667 -39 151 -117 151c-40.667 0 -71.334 -14.167 -92.001 -42.5s-31 -66.166 -31 -113.499v-89c0 -44.667 10.833 -81.167 32.5 -109.5s53.167 -42.5 94.5 -42.5c75.333 0 113 50.333 113 151z" />
    <glyph glyph-name="q" unicode="q" horiz-adv-x="511" 
d="M367 67c-28 -48.667 -73.667 -73 -137 -73c-50 0 -91 16.667 -123 50s-48 86 -48 158v104c0 71.334 16.333 123.667 49 157s75 50 127 50c29.333 0 55.333 -6.5 78 -19.5s40.667 -32.167 54 -57.5v71h69v-659h-69v219zM335 97c21.333 28 32 64.667 32 110v89
c0 47.334 -10.333 85.167 -31 113.5s-51.334 42.5 -92 42.5c-77.333 0 -116 -50.333 -116 -151v-95c0 -100.667 37.333 -151 112 -151c42 0 73.667 14 95 42z" />
    <glyph glyph-name="r" unicode="r" horiz-adv-x="337" 
d="M75 507l67.001 0.000976562v-68c14 25.334 32.5 44.167 55.5 56.499c23 12.333 48.833 18.5 77.5 18.5c12.667 0 25 -1 37 -3v-68c-16 5.33301 -33.333 8 -52 8c-34.667 0 -62.834 -12 -84.501 -36s-32.5 -55.333 -32.5 -94v-321h-68v507z" />
    <glyph glyph-name="s" unicode="s" horiz-adv-x="462" 
d="M97 34c-33.333 26.667 -50.002 62.665 -50.002 107.998v4h66v-3c0 -28 10.833 -50.167 32.5 -66.5s50.834 -24.5 87.501 -24.5c38 0 67.833 7.66699 89.5 23s32.5 37.333 32.5 66c0 25.333 -7.5 44 -22.5 56s-39.167 21 -72.5 27l-63 11
c-49.333 8.66699 -85.333 23.334 -108 44.001s-34 50.667 -34 90c0 44 16.333 79.167 49 105.5s75 39.5 127 39.5c56 0 100.667 -12.833 134 -38.5s50 -59.167 50 -100.5v-6h-66v3c0 26.667 -10.333 47.667 -31 63s-49 23 -85 23c-35.333 0 -62.833 -7.66699 -82.5 -23
s-29.5 -36.333 -29.5 -63c0 -22 7 -39.167 21 -51.5s36.333 -21.166 67 -26.499l66 -12c50 -9.33301 86.833 -24.5 110.5 -45.5s35.5 -51.5 35.5 -91.5c0 -48 -17.333 -85.167 -52 -111.5s-81 -39.5 -139 -39.5c-55.333 0 -99.666 13.333 -132.999 40z" />
    <glyph glyph-name="t" unicode="t" horiz-adv-x="340" 
d="M182 453l0.000976562 -323.999c0 -46 21.667 -69 65 -69h40v-60h-51c-38.667 0 -68.834 11.167 -90.501 33.5s-32.5 53.166 -32.5 92.499v327h-79v54h79v116l69 32v-148h114v-54h-114z" />
    <glyph glyph-name="u" unicode="u" horiz-adv-x="522" 
d="M121.5 43.5c-31 33 -46.5 80.5 -46.5 142.5v321h68v-312c0 -46.667 9 -81.667 27 -105s48.333 -35 91 -35s73 11.333 91 34s27 58 27 106v312h68v-321c0 -62 -15.5 -109.5 -46.5 -142.5s-77.833 -49.5 -140.5 -49.5c-61.333 0 -107.5 16.5 -138.5 49.5z" />
    <glyph glyph-name="v" unicode="v" horiz-adv-x="439" 
d="M14 507h74l132 -407l132 407h73l-175 -507h-61z" />
    <glyph glyph-name="w" unicode="w" horiz-adv-x="714" 
d="M14 507h74l114 -406l126 406h57l126 -406l115 406h74l-154 -507h-62l-128 409l-127 -409h-61z" />
    <glyph glyph-name="x" unicode="x" horiz-adv-x="421" 
d="M334 0l-124 203l-123 -203h-73l160 261l-150 246h73l115 -188l112 188h73l-152 -242l162 -265h-73z" />
    <glyph glyph-name="y" unicode="y" horiz-adv-x="439" 
d="M425 507l-195 -562c-12 -34 -28.5 -58.667 -49.5 -74s-48.833 -23 -83.5 -23h-30v62h25c24.667 0 43.167 5 55.5 15s22.5 26.333 30.5 49l10 31l-174 502h74l133 -403l133 403h71z" />
    <glyph glyph-name="z" unicode="z" horiz-adv-x="456" 
d="M397 444l-262 -381h262v-63h-338v63l260 381h-260v63h338v-63z" />
    <glyph glyph-name="braceleft" unicode="{" horiz-adv-x="340" 
d="M154.5 -57c-17 18 -25.5 45.667 -25.5 83v191c0 28.667 -5.33301 49.167 -16 61.5s-28.667 18.833 -54 19.5v65c25.333 0.666992 43.333 7.16699 54 19.5s16 32.833 16 61.5v186c0 37.333 8.5 65 25.5 83s42.5 27 76.5 27h50v-61h-35c-16 0 -27.667 -4 -35 -12
s-11 -21 -11 -39v-179c0 -37.333 -4.5 -64.5 -13.5 -81.5s-24.5 -29.5 -46.5 -37.5c22.667 -8 38.334 -20.5 47 -37.5c8.66699 -17 13 -43.833 13 -80.5v-184c0 -18 3.66699 -31 11 -39s19 -12 35 -12h35v-61h-50c-34 0 -59.5 9 -76.5 27z" />
    <glyph glyph-name="bar" unicode="|" horiz-adv-x="303" 
d="M118 740h67v-823h-67v823z" />
    <glyph glyph-name="braceright" unicode="}" horiz-adv-x="340" 
d="M59 -23h35c16 0 27.667 4 35 12s11 21 11 39v184c0 36.667 4.33301 63.5 13 80.5s24.334 29.5 47 37.5c-22 8 -37.5 20.5 -46.5 37.5s-13.5 44.167 -13.5 81.5v179c0 18 -3.66699 31 -11 39s-19 12 -35 12h-35v61h50c34 0 59.5 -9 76.5 -27s25.5 -45.667 25.5 -83v-186
c0 -28.667 5.33301 -49.167 16 -61.5s28.667 -18.833 54 -19.5v-65c-25.333 -0.666992 -43.333 -7.16699 -54 -19.5s-16 -32.833 -16 -61.5v-191c0 -37.333 -8.5 -65 -25.5 -83s-42.5 -27 -76.5 -27h-50v61z" />
    <glyph glyph-name="asciitilde" unicode="~" horiz-adv-x="512" 
d="M290 221c-14 6 -29.668 14.667 -47.001 26c-15.333 10 -28 17.333 -38 22s-20.667 7 -32 7c-16 0 -29.5 -4.33301 -40.5 -13s-23.167 -24.334 -36.5 -47.001l-49 30c14 30.667 32 53.834 54 69.501s46.333 23.5 73 23.5c16.667 0 31.667 -3 45 -9s29.333 -14.667 48 -26
c16 -9.33301 28.833 -16.333 38.5 -21s20.167 -7 31.5 -7c16 0 29.833 4.5 41.5 13.5s23.834 24.5 36.501 46.5l49 -31c-14.667 -30 -33 -53 -55 -69s-46.333 -24 -73 -24c-16.667 0 -32 3 -46 9z" />
    <glyph glyph-name="uni00A0" unicode="&#xa0;" horiz-adv-x="217" 
 />
    <glyph glyph-name="exclamdown" unicode="&#xa1;" horiz-adv-x="239" 
d="M75 507h90v-94h-90v94zM92 311h56l14 -463h-84z" />
    <glyph glyph-name="cent" unicode="&#xa2;" horiz-adv-x="503" 
d="M378 340v5.00098c0 31.334 -9 56.167 -27 74.5s-43.333 28.833 -76 31.5v-395c32 2.66699 57.167 13.167 75.5 31.5s27.5 43.166 27.5 74.499v5h66v-4c0 -48.667 -15.167 -88.167 -45.5 -118.5s-71.5 -46.833 -123.5 -49.5v-95h-58v97
c-48.667 6.66699 -87.167 26.5 -115.5 59.5s-42.5 81.5 -42.5 145.5v104c0 64 14 112.667 42 146s66.667 53.333 116 60v95h58v-94c52 -2.66699 93.167 -19.167 123.5 -49.5s45.5 -69.833 45.5 -118.5v-5h-66zM150.5 102.501c15.667 -23 37.834 -37.499 66.501 -43.499v389
c-28.667 -6.66797 -50.834 -21.335 -66.501 -44.001c-15.667 -22.667 -23.5 -56.667 -23.5 -102v-96c0 -46 7.83301 -80.5 23.5 -103.5z" />
    <glyph glyph-name="sterling" unicode="&#xa3;" horiz-adv-x="436" 
d="M403 68v-67.999h-349v62c16 10 27.5 23 34.5 39s10.5 37.333 10.5 64v125h-66v66h66v172c0 54 13.5 96.167 40.5 126.5s64.167 45.5 111.5 45.5c44.667 0 80.5 -13.5 107.5 -40.5s40.5 -64.167 40.5 -111.5h-72c0 26 -6.83301 46.5 -20.5 61.5s-32.5 22.5 -56.5 22.5
c-24.667 0 -43.667 -7.83301 -57 -23.5s-20 -38.834 -20 -69.501v-183h139v-66h-139v-116c0 -24 -2.66699 -44.5 -8 -61.5c-5.33398 -17 -13.667 -31.833 -25 -44.5h263z" />
    <glyph glyph-name="currency" unicode="&#xa4;" horiz-adv-x="613" 
d="M420 166c-33.333 -24 -71.335 -36 -114.002 -36c-43.333 0 -81.666 12 -114.999 36l-70 -70l-46 48l69 69c-23.333 34 -35 72 -35 114c0 43.333 12 81.333 36 114l-70 71l46 47l71 -70c32.667 23.333 70.667 35 114 35c42.667 0 80.334 -11.667 113.001 -35l71 70l47 -47
l-70 -70c24 -34.667 36 -73 36 -115c0 -42.667 -12 -80.667 -36 -114l71 -70l-47 -48zM400.998 230c25.333 26 38 58.333 38 97s-12.667 71 -38 97s-57 39 -95 39s-69.667 -13 -95 -39s-38 -58.333 -38 -97s12.667 -71 38 -97s57 -39 95 -39s69.667 13 95 39z" />
    <glyph glyph-name="yen" unicode="&#xa5;" horiz-adv-x="454" 
d="M191 155h-142v56h142v67h-142v57h123l-162 355h82l136 -325l135 325h81l-161 -355h122v-57h-141v-67h141v-56h-141v-155h-73v155z" />
    <glyph glyph-name="brokenbar" unicode="&#xa6;" horiz-adv-x="303" 
d="M118 740h67v-352h-67v352zM118 271h67v-354h-67v354z" />
    <glyph glyph-name="section" unicode="&#xa7;" horiz-adv-x="511" 
d="M134 -126.5c-27.333 27.667 -41.0039 68.5 -41.0039 122.5h69c0 -34.667 7.66699 -60 23 -76s38 -24 68 -24c28.667 0 50.834 7.66699 66.501 23s23.5 37 23.5 65c0 30.667 -9.33301 54.334 -28 71.001s-51 30.334 -97 41.001c-47.333 10.667 -82.166 31 -104.499 61
s-33.5 69.333 -33.5 118c0 38.667 8.5 72.167 25.5 100.5c17 28.334 41.833 48.167 74.5 59.5c-28 14 -48 31.333 -60 52s-18 47 -18 79c0 43.333 14.333 78.833 43 106.5s66.334 41.5 113.001 41.5c52 0 90.833 -14 116.5 -42s38.5 -66.333 38.5 -115h-69
c0 62 -28.333 93 -85 93c-26.667 0 -47.5 -7.33301 -62.5 -22s-22.5 -35.334 -22.5 -62.001c0 -30 8.83301 -53.333 26.5 -70c17.667 -16.668 48.834 -30.335 93.501 -41.001c47.333 -10.667 82 -31 104 -61s33 -69.667 33 -119c0 -38 -8.5 -71.333 -25.5 -100
s-40.833 -48 -71.5 -58c28 -12.667 48.5 -29.834 61.5 -51.501s19.5 -49.5 19.5 -83.5c0 -45.333 -14.833 -81.666 -44.5 -108.999s-68.5 -41 -116.5 -41c-52.667 0 -92.667 13.833 -120 41.5zM331.496 189.5c18.333 20.333 27.5 48.832 27.5 85.499
c0 37.334 -9 66.167 -27 86.5s-43.333 30.5 -76 30.5s-58.167 -10.167 -76.5 -30.5s-27.5 -49.166 -27.5 -86.499c0 -36.667 9.33301 -65.167 28 -85.5s44 -30.5 76 -30.5s57.167 10.167 75.5 30.5zM236.996 706.999z" />
    <glyph glyph-name="dieresis" unicode="&#xa8;" horiz-adv-x="500" 
d="M126 664h76v-86h-76v86zM297 664h76v-86h-76v86z" />
    <glyph glyph-name="copyright" unicode="&#xa9;" horiz-adv-x="821" 
d="M231 34.5c-52 29.667 -92.5 70.999 -121.5 123.999s-43.5 113.5 -43.5 181.5s14.5 128.5 43.5 181.5s69.5 94.333 121.5 124s111.667 44.5 179 44.5s127.166 -14.833 179.499 -44.5s93 -71 122 -124s43.5 -113.5 43.5 -181.5s-14.5 -128.667 -43.5 -182
s-69.667 -94.666 -122 -123.999s-112.166 -44 -179.499 -44s-127 14.833 -179 44.5zM561.5 79.999c43.668 24.667 77.335 59.334 101 104.001c23.667 44.667 35.5 96.667 35.5 156s-11.833 111.333 -35.5 156c-23.667 44.668 -57.334 79.335 -101.001 104.001
c-43.667 24.667 -94.167 37 -151.5 37s-107.666 -12.333 -150.999 -37s-76.833 -59.334 -100.5 -104.001s-35.5 -96.667 -35.5 -156s11.833 -111.333 35.5 -156s57.167 -79.334 100.5 -104.001c43.334 -24.667 93.667 -37 151 -37c57.334 0 107.834 12.333 151.5 37z
M306 184.999c-26.667 24.667 -40.001 64.332 -40.001 118.999v77c0 54.667 13.333 94.334 40 119.001s62.667 37 108 37c43.333 0 77.5 -11.333 102.5 -34s37.5 -53.334 37.5 -92v-5h-52v3c0 25.333 -7.66699 44.833 -23 58.5s-36.333 20.5 -63 20.5
c-30.667 0 -54.334 -8.16699 -71 -24.5c-16.667 -16.333 -25 -44.833 -25 -85.5v-71c0 -41.333 8.33301 -70.166 25 -86.499s40.334 -24.5 71.001 -24.5c26.667 0 47.667 7 63 21s23 33.333 23 58v4h52v-5c0 -38.667 -12.667 -69.334 -38 -92.001s-59.333 -34 -102 -34
c-45.333 0 -81.333 12.333 -108 37z" />
    <glyph glyph-name="ordfeminine" unicode="&#xaa;" horiz-adv-x="330" 
d="M246 721c20.667 -18 31 -44.667 31 -80v-211h-62v31c-9.33398 -12 -20.167 -20.833 -32.5 -26.5s-27.5 -8.5 -45.5 -8.5c-32.667 0 -57.834 8.5 -75.501 25.5s-26.5 40.833 -26.5 71.5c0 28 9.5 50 28.5 66s44.833 24 77.5 24h72v31c0 18 -4.83301 31.667 -14.5 41
s-23.5 14 -41.5 14c-17.333 0 -30.666 -4 -39.999 -12s-14 -19 -14 -33v-2h-60v2c0 28.667 10.167 51.5 30.5 68.5s48.166 25.5 83.499 25.5c38.667 0 68.334 -9 89.001 -27zM198 494c10 10.002 15 25.335 15 46v28h-62c-36 0 -54 -14.667 -54 -44c0 -30 17.667 -45 53 -45
c22 0 38 5 48 15zM165 847z" />
    <glyph glyph-name="guillemotleft" unicode="&#xab;" horiz-adv-x="478" 
d="M25 264l195 198v-83l-113 -115l113 -115v-83zM208 264l195 198v-83l-113 -115l113 -115v-83z" />
    <glyph glyph-name="logicalnot" unicode="&#xac;" horiz-adv-x="512" 
d="M387 264h-331v62h400v-196h-69v134z" />
    <glyph glyph-name="uni00AD" unicode="&#xad;" horiz-adv-x="393" 
d="M59 380h275v-66h-275v66z" />
    <glyph glyph-name="registered" unicode="&#xae;" horiz-adv-x="537" 
d="M172 331c-28.667 16.667 -51.167 39.667 -67.5 69s-24.5 62 -24.5 98s8.16699 68.5 24.5 97.5s38.833 51.833 67.5 68.5s60.667 25 96 25c36 0 68.333 -8.33301 97 -25s51.167 -39.5 67.5 -68.5s24.5 -61.5 24.5 -97.5c0 -36.667 -8.16699 -69.5 -24.5 -98.5
s-38.833 -51.833 -67.5 -68.5s-61 -25 -97 -25c-35.333 0 -67.333 8.33301 -96 25zM380 382.5c29.333 30.333 44 68.833 44 115.5c0 30.667 -6.66699 58.167 -20 82.5s-32 43.333 -56 57s-50.667 20.5 -80 20.5c-44.667 0 -81.5 -15 -110.5 -45s-43.5 -68.333 -43.5 -115
c0 -47.333 14.5 -86 43.5 -116s65.833 -45 110.5 -45c45.334 0 82.667 15.167 112 45.5zM198 606h82c22 0 39.167 -5.5 51.5 -16.5s18.5 -26.5 18.5 -46.5c0 -14.667 -3.33301 -27 -10 -37s-16.334 -17.333 -29 -22l44 -92h-39l-42 88h-40v-88h-36v214zM279 512
c24 0 36 10.333 36 31s-12 31 -36 31h-45v-62h45z" />
    <glyph glyph-name="macron" unicode="&#xaf;" horiz-adv-x="500" 
d="M120 652h260v-62h-260v62z" />
    <glyph glyph-name="degree" unicode="&#xb0;" horiz-adv-x="411" 
d="M105.5 460c-26.333 26.667 -39.5 60 -39.5 100s13.167 73.333 39.5 100s59.833 40 100.5 40c39.333 0 72.333 -13.333 99 -40s40 -60 40 -100s-13.333 -73.333 -40 -100s-59.667 -40 -99 -40c-40.667 0 -74.167 13.333 -100.5 40zM269 495c16.667 17.333 25 39 25 65
c0 26.667 -8.33301 48.667 -25 66s-37.667 26 -63 26c-26 0 -47.333 -8.66699 -64 -26s-25 -39.333 -25 -66c0 -26 8.33301 -47.667 25 -65s38 -26 64 -26c25.333 0 46.333 8.66699 63 26z" />
    <glyph glyph-name="plusminus" unicode="&#xb1;" horiz-adv-x="512" 
d="M223 279h-166v66h166v166h66v-166h166v-66h-166v-166h-66v166zM57 62h398v-66h-398v66z" />
    <glyph glyph-name="uni00B2" unicode="&#xb2;" horiz-adv-x="321" 
d="M45 482l139 188c8.66699 12 15 23 19 33s6 20.667 6 32v8c0 17.333 -4.5 30.833 -13.5 40.5s-21.167 14.5 -36.5 14.5c-16 0 -28.5 -5 -37.5 -15s-13.5 -25 -13.5 -45v-11h-66v15c0 34 10.833 61.167 32.5 81.5s50.5 30.5 86.5 30.5c35.333 0 63.666 -10 84.999 -30
s32 -46 32 -78v-11c0 -18 -3.16699 -34.667 -9.5 -50c-6.33301 -15.3359 -16.166 -31.6689 -29.499 -49l-107 -147h147v-59h-234v52z" />
    <glyph glyph-name="uni00B3" unicode="&#xb3;" horiz-adv-x="319" 
d="M70 452.5c-20.667 19 -31 45.167 -31 78.5v11h60v-10c0 -16 5 -28.833 15 -38.5s23.667 -14.5 41 -14.5c18 0 32 5.5 42 16.5s15 26.167 15 45.5v13c0 19.333 -5.5 34.833 -16.5 46.5s-25.833 17.5 -44.5 17.5h-21v56h21c16.667 0 29.834 5.16699 39.5 15.5
c9.66699 10.333 14.5 24.166 14.5 41.499v10c0 18 -4.5 32 -13.5 42s-21.5 15 -37.5 15c-16.667 0 -29.5 -4.66699 -38.5 -14s-13.5 -22 -13.5 -38v-10h-61v11c0 32.667 10.333 58.667 31 78s48.667 29 84 29s63.333 -9.83301 84 -29.5s31 -45.5 31 -77.5v-10
c0 -20 -4.66699 -37.333 -14 -52s-21.666 -26 -36.999 -34c18 -7.33789 32 -19.6709 42 -36.999c10 -17.3359 15 -37.6689 15 -61v-12c0 -34.667 -11.167 -62.834 -33.5 -84.5c-22.333 -21.667 -51.5 -32.5 -87.5 -32.5c-36.667 0 -65.334 9.5 -86.001 28.5z" />
    <glyph glyph-name="acute" unicode="&#xb4;" horiz-adv-x="500" 
d="M268 697h84l-120 -125h-63z" />
    <glyph glyph-name="uni00B5" unicode="&#xb5;" horiz-adv-x="515" 
d="M75 507h68v-329c0 -40.667 10 -71.5 30 -92.5s47.333 -31.5 82 -31.5c33.333 0 61 10.833 83 32.5s33 52.167 33 91.5v329h69v-507h-68v60c-14 -22.667 -32 -39.667 -54 -51s-47 -17 -75 -17c-42.667 0 -76 13 -100 39v-183h-68v659z" />
    <glyph glyph-name="paragraph" unicode="&#xb6;" horiz-adv-x="613" 
d="M268 272c-56.667 4 -102.167 25.333 -136.5 64s-51.5 87 -51.5 145c0 39.333 8.5 74.833 25.5 106.5s41.833 56.667 74.5 75s71.667 27.5 117 27.5h196v-842h-67v777h-91v-777h-67v424z" />
    <glyph glyph-name="periodcentered" unicode="&#xb7;" horiz-adv-x="194" 
d="M53 315h88v-92h-88v92z" />
    <glyph glyph-name="cedilla" unicode="&#xb8;" horiz-adv-x="500" 
d="M251 12h61l-53 -162h-71z" />
    <glyph glyph-name="uni00B9" unicode="&#xb9;" horiz-adv-x="222" 
d="M99 774l-73 -55v74l73 54h69v-417h-69v344z" />
    <glyph glyph-name="ordmasculine" unicode="&#xba;" horiz-adv-x="330" 
d="M74 458c-22 21.334 -33 54.334 -33 99v60c0 44.667 11 77.667 33 99s52.333 32 91 32s69 -10.667 91 -32s33 -54.333 33 -99v-60c0 -44.667 -11 -77.667 -33 -99s-52.333 -32 -91 -32s-69 10.667 -91 32zM225 557v60c0 48.667 -20 73 -60 73s-60 -24.333 -60 -73v-60
c0 -48.667 20 -73 60 -73s60 24.333 60 73zM165 847z" />
    <glyph glyph-name="guillemotright" unicode="&#xbb;" horiz-adv-x="478" 
d="M75 149l113 115l-113 115v83l195 -198l-195 -198v83zM257 149l114 115l-114 115v83l196 -198l-196 -198v83z" />
    <glyph glyph-name="onequarter" unicode="&#xbc;" horiz-adv-x="730" 
d="M99 617l-73 -55v74l73 54h69v-417h-69v344zM699 75h-39v-75h-69v75h-157v59l117 283h68l-116 -283h88v98h69v-98h39v-59zM465 690h63l-373 -690h-63z" />
    <glyph glyph-name="onehalf" unicode="&#xbd;" horiz-adv-x="719" 
d="M99 617l-73 -55v74l73 54h69v-417h-69v344zM443 52l139.001 188c8.66699 12 15 23 19 33s6 20.667 6 32v8c0 17.333 -4.5 30.833 -13.5 40.5s-21.167 14.5 -36.5 14.5c-16 0 -28.5 -5 -37.5 -15s-13.5 -25 -13.5 -45v-11h-66v15c0 34 10.833 61.167 32.5 81.5
s50.5 30.5 86.5 30.5c35.333 0 63.666 -10 84.999 -30s32 -46 32 -78v-11c0 -18 -3.16699 -34.667 -9.5 -50c-6.33496 -15.334 -16.168 -31.667 -29.5 -49l-107 -147h147v-59h-234v52zM465.001 690h63l-373 -690h-63z" />
    <glyph glyph-name="threequarters" unicode="&#xbe;" horiz-adv-x="827" 
d="M70 295.5c-20.667 19 -31 45.166 -31 78.499v11h60v-10c0 -16 5 -28.833 15 -38.5s23.667 -14.5 41 -14.5c18 0 32 5.5 42 16.5s15 26.167 15 45.5v13c0 19.333 -5.5 34.833 -16.5 46.5s-25.833 17.5 -44.5 17.5h-21v56h21c16.667 0 29.834 5.16699 39.5 15.5
c9.66699 10.333 14.5 24.166 14.5 41.499v10c0 18 -4.5 32 -13.5 42s-21.5 15 -37.5 15c-16.667 0 -29.5 -4.66699 -38.5 -14s-13.5 -22 -13.5 -38v-10h-61v11c0 32.667 10.333 58.667 31 78s48.667 29 84 29s63.333 -9.83301 84 -29.5s31 -45.5 31 -77.5v-10
c0 -20 -4.66699 -37.333 -14 -52s-21.666 -26 -36.999 -34c18 -7.33301 32 -19.666 42 -36.999s15 -37.666 15 -60.999v-12c0 -34.667 -11.167 -62.834 -33.5 -84.5c-22.333 -21.667 -51.5 -32.5 -87.5 -32.5c-36.667 0 -65.334 9.5 -86.001 28.5zM796 74.999h-39v-75h-69
v75h-157v59l117 283h68l-116 -283h88v98h69v-98h39v-59zM562 689.999h63l-373 -690h-63z" />
    <glyph glyph-name="questiondown" unicode="&#xbf;" horiz-adv-x="429" 
d="M177 507h89v-93h-89v93zM93.5 -116c-31 30.667 -46.501 71.001 -46.501 121.001c0 24.667 4.16699 47.167 12.5 67.5s23.166 44.166 44.499 71.499l47 60c14 17.333 23 32 27 44s6 28.333 6 49v35h73v-36c0 -26 -2.83301 -47.167 -8.5 -63.5s-17.5 -35.833 -35.5 -58.5
l-47 -58c-18 -22 -30.167 -41 -36.5 -57s-9.5 -34 -9.5 -54c0 -31.333 8.83301 -56 26.5 -74s42.5 -27 74.5 -27c64 0 96.667 36.333 98 109h73c-1.33301 -56.667 -16.666 -100 -45.999 -130s-71.666 -45 -126.999 -45c-52.667 0 -94.5 15.333 -125.5 46z" />
    <glyph glyph-name="Agrave" unicode="&#xc0;" horiz-adv-x="577" 
d="M435 166h-293l-58 -166h-77l251 690h61l251 -690h-77zM414 228l-126 360l-125 -360h251zM163 880h84l99 -125h-63z" />
    <glyph glyph-name="Aacute" unicode="&#xc1;" horiz-adv-x="577" 
d="M435 166h-293l-58 -166h-77l251 690h61l251 -690h-77zM414 228l-126 360l-125 -360h251zM313 880h84l-120 -125h-63z" />
    <glyph glyph-name="Acircumflex" unicode="&#xc2;" horiz-adv-x="577" 
d="M435 166h-293l-58 -166h-77l251 690h61l251 -690h-77zM414 228l-126 360l-125 -360h251zM261 889h55l107 -144h-62l-72 95l-73 -95h-62z" />
    <glyph glyph-name="Atilde" unicode="&#xc3;" horiz-adv-x="577" 
d="M435 166h-293l-58 -166h-77l251 690h61l251 -690h-77zM414 228l-126 360l-125 -360h251zM165 813c11.333 13.333 22.334 23.0029 33.001 29.0029s22.667 9 36 9c10.667 0 20.334 -1.66699 29 -5c8.66699 -3.33301 19 -8.33301 31 -15c10 -6 18.833 -10.667 26.5 -14
s16.167 -5 25.5 -5c12 0 22.5 2.83301 31.5 8.5s20.5 15.834 34.5 30.5v-61c-21.333 -24.667 -44.333 -37 -69 -37c-11.333 0 -21.333 1.66699 -30 5c-8.66797 3.33301 -19.335 8.66602 -32.001 15.999c-2 1.33301 -6.33301 3.66602 -13 6.99902s-13 5.83301 -19 7.5
s-11.667 2.5 -17 2.5c-12.667 0 -23.667 -2.83301 -33 -8.5c-9.33398 -5.66699 -20.667 -15.834 -34 -30.501v61z" />
    <glyph glyph-name="Adieresis" unicode="&#xc4;" horiz-adv-x="577" 
d="M435 166h-293l-58 -166h-77l251 690h61l251 -690h-77zM414 228l-126 360l-125 -360h251zM165 847h76v-86h-76v86zM336 847h76v-86h-76v86z" />
    <glyph glyph-name="Aring" unicode="&#xc5;" horiz-adv-x="577" 
d="M435 166h-293l-58 -166h-77l251 689c-18 6 -32.5 16.833 -43.5 32.5s-16.5 33.5 -16.5 53.5c0 26.667 8.5 48.667 25.5 66s38.833 26 65.5 26c26 0 47.667 -8.66699 65 -26s26 -39.333 26 -66c0 -20 -5.66699 -37.833 -17 -53.5s-26 -26.5 -44 -32.5l251 -689h-77z
M252 737c10 -10 22.333 -14.999 37 -14.999s27 5 37 15s15 22.667 15 38s-5 28.166 -15 38.499s-22.333 15.5 -37 15.5s-27 -5.16699 -37 -15.5c-10 -10.3398 -15 -23.1729 -15 -38.5c0 -15.333 5 -28 15 -38zM414 228.001l-126 360l-125 -360h251zM295 690.001z" />
    <glyph glyph-name="AE" unicode="&#xc6;" horiz-adv-x="866" 
d="M498 624v-240h269v-66h-269v-252h320v-66h-393v171h-247l-92 -171h-79l375 690h436v-66h-320zM425 233v394l-213 -394h213z" />
    <glyph glyph-name="Ccedilla" unicode="&#xc7;" 
d="M471 485l-0.000976562 2.99902c0 44.667 -14.5 80 -43.5 106s-68.5 39 -118.5 39c-55.333 0 -97.5 -15.667 -126.5 -47s-43.5 -82.666 -43.5 -153.999v-180c0 -128.667 57 -193 171 -193c50 0 89.333 12.833 118 38.5s43 60.834 43 105.501v4h71v-4
c0 -56 -16 -102.167 -48 -138.5s-76 -59.166 -132 -68.499l-48 -146h-71l55 142c-70.667 2 -127 24.167 -169 66.5s-63 108.166 -63 197.499v179c0 91.333 22 158.166 66 200.499s103 63.5 177 63.5c46.667 0 87.834 -8.66699 123.501 -26s63.167 -42 82.5 -74
s29 -69 29 -111v-3h-73z" />
    <glyph glyph-name="Egrave" unicode="&#xc8;" horiz-adv-x="547" 
d="M153 624v-240h296v-66h-296v-252h346v-66h-419v690h419v-66h-346zM154 880h84l99 -125h-63z" />
    <glyph glyph-name="Eacute" unicode="&#xc9;" horiz-adv-x="547" 
d="M153 624v-240h296v-66h-296v-252h346v-66h-419v690h419v-66h-346zM304 880h84l-120 -125h-63z" />
    <glyph glyph-name="Ecircumflex" unicode="&#xca;" horiz-adv-x="547" 
d="M153 624v-240h296v-66h-296v-252h346v-66h-419v690h419v-66h-346zM252 889h55l107 -144h-62l-72 95l-73 -95h-62z" />
    <glyph glyph-name="Edieresis" unicode="&#xcb;" horiz-adv-x="547" 
d="M153 624v-240h296v-66h-296v-252h346v-66h-419v690h419v-66h-346zM156 847h76v-86h-76v86zM327 847h76v-86h-76v86z" />
    <glyph glyph-name="Igrave" unicode="&#xcc;" horiz-adv-x="249" 
d="M88 690h73v-690h-73v690zM-1 880h84l99 -125h-63z" />
    <glyph glyph-name="Iacute" unicode="&#xcd;" horiz-adv-x="249" 
d="M88 690h73v-690h-73v690zM149 880h84l-120 -125h-63z" />
    <glyph glyph-name="Icircumflex" unicode="&#xce;" horiz-adv-x="249" 
d="M88 690h73v-690h-73v690zM97 889h55l107 -144h-62l-72 95l-73 -95h-62z" />
    <glyph glyph-name="Idieresis" unicode="&#xcf;" horiz-adv-x="249" 
d="M88 690h73v-690h-73v690zM1 847h76v-86h-76v86zM172 847h76v-86h-76v86z" />
    <glyph glyph-name="Eth" unicode="&#xd0;" horiz-adv-x="669" 
d="M538.5 626.5c43 -42.334 64.5 -109.168 64.5 -200.501v-162c0 -91.333 -21.5 -158.166 -64.5 -200.499s-101.167 -63.5 -174.5 -63.5h-236v316h-90v66h90v308h236c73.333 0 131.5 -21.167 174.5 -63.5zM529 422.999c0 70 -14.167 121 -42.5 153s-68.833 48 -121.5 48
h-163v-242h140v-66h-140v-250h163c109.333 0 164 64.667 164 194v163z" />
    <glyph glyph-name="Ntilde" unicode="&#xd1;" horiz-adv-x="663" 
d="M583 690v-690h-73l-357 556v-556h-73v690h73l357 -554v554h73zM207 813c11.333 13.333 22.332 23.0029 32.999 29.0029s22.667 9 36 9c10.667 0 20.334 -1.66699 29.001 -5s19 -8.33301 31 -15c10 -6 18.833 -10.667 26.5 -14s16.167 -5 25.5 -5
c12 0 22.5 2.83301 31.5 8.5s20.5 15.834 34.5 30.5v-61c-21.333 -24.667 -44.333 -37 -69 -37c-11.333 0 -21.333 1.66699 -30 5c-8.66797 3.33301 -19.335 8.66602 -32 15.999c-2 1.33301 -6.33301 3.66602 -13 6.99902s-13 5.83301 -19 7.5s-11.667 2.5 -17 2.5
c-12.667 0 -23.667 -2.83301 -33 -8.5c-9.33398 -5.66699 -20.667 -15.834 -34 -30.501v61z" />
    <glyph glyph-name="Ograve" unicode="&#xd2;" 
d="M130.5 55.5c-43 42.333 -64.499 109.167 -64.499 200.5v179c0 91.333 21.667 158.166 65 200.499s101.666 63.5 174.999 63.5c72.667 0 130.5 -21.167 173.5 -63.5c43 -42.334 64.5 -109.167 64.5 -200.5v-179c0 -91.333 -21.667 -158.166 -65 -200.499
s-101.333 -63.5 -174 -63.5c-73.333 0 -131.5 21.167 -174.5 63.5zM471.001 252.001v180.001c0 134 -55 201 -165 201c-55.333 0 -97 -15.833 -125 -47.5s-42 -82.834 -42 -153.501v-180c0 -67.333 14.167 -116.333 42.5 -147s69.833 -46 124.5 -46
c110 0 165 64.333 165 193zM179.001 880.002h84l99 -125h-63z" />
    <glyph glyph-name="Oacute" unicode="&#xd3;" 
d="M130.5 55.5c-43 42.333 -64.499 109.167 -64.499 200.5v179c0 91.333 21.667 158.166 65 200.499s101.666 63.5 174.999 63.5c72.667 0 130.5 -21.167 173.5 -63.5c43 -42.334 64.5 -109.167 64.5 -200.5v-179c0 -91.333 -21.667 -158.166 -65 -200.499
s-101.333 -63.5 -174 -63.5c-73.333 0 -131.5 21.167 -174.5 63.5zM471.001 252.001v180.001c0 134 -55 201 -165 201c-55.333 0 -97 -15.833 -125 -47.5s-42 -82.834 -42 -153.501v-180c0 -67.333 14.167 -116.333 42.5 -147s69.833 -46 124.5 -46
c110 0 165 64.333 165 193zM329.001 880.002h84l-120 -125h-63z" />
    <glyph glyph-name="Ocircumflex" unicode="&#xd4;" 
d="M130.5 55.5c-43 42.333 -64.499 109.167 -64.499 200.5v179c0 91.333 21.667 158.166 65 200.499s101.666 63.5 174.999 63.5c72.667 0 130.5 -21.167 173.5 -63.5c43 -42.334 64.5 -109.167 64.5 -200.5v-179c0 -91.333 -21.667 -158.166 -65 -200.499
s-101.333 -63.5 -174 -63.5c-73.333 0 -131.5 21.167 -174.5 63.5zM471.001 252.001v180.001c0 134 -55 201 -165 201c-55.333 0 -97 -15.833 -125 -47.5s-42 -82.834 -42 -153.501v-180c0 -67.333 14.167 -116.333 42.5 -147s69.833 -46 124.5 -46
c110 0 165 64.333 165 193zM277.001 889.002h55l107 -144h-62l-72 95l-73 -95h-62z" />
    <glyph glyph-name="Otilde" unicode="&#xd5;" 
d="M130.5 55.5c-43 42.333 -64.499 109.167 -64.499 200.5v179c0 91.333 21.667 158.166 65 200.499s101.666 63.5 174.999 63.5c72.667 0 130.5 -21.167 173.5 -63.5c43 -42.334 64.5 -109.167 64.5 -200.5v-179c0 -91.333 -21.667 -158.166 -65 -200.499
s-101.333 -63.5 -174 -63.5c-73.333 0 -131.5 21.167 -174.5 63.5zM471.001 252.001v180.001c0 134 -55 201 -165 201c-55.333 0 -97 -15.833 -125 -47.5s-42 -82.834 -42 -153.501v-180c0 -67.333 14.167 -116.333 42.5 -147s69.833 -46 124.5 -46
c110 0 165 64.333 165 193zM181.001 813.002c11.333 13.333 22.332 23.0029 32.999 29.0029s22.667 9 36 9c10.667 0 20.334 -1.66699 29.001 -5s19 -8.33301 31 -15c10 -6 18.833 -10.667 26.5 -14s16.167 -5 25.5 -5c12 0 22.5 2.83301 31.5 8.5s20.5 15.834 34.5 30.5
v-61c-21.333 -24.667 -44.333 -37 -69 -37c-11.333 0 -21.333 1.66699 -30 5c-8.66797 3.33301 -19.335 8.66602 -32 15.999c-2 1.33301 -6.33301 3.66602 -13 6.99902s-13 5.83301 -19 7.5s-11.667 2.5 -17 2.5c-12.667 0 -23.667 -2.83301 -33 -8.5
c-9.33398 -5.66699 -20.667 -15.834 -34 -30.501v61z" />
    <glyph glyph-name="Odieresis" unicode="&#xd6;" 
d="M130.5 55.5c-43 42.333 -64.499 109.167 -64.499 200.5v179c0 91.333 21.667 158.166 65 200.499s101.666 63.5 174.999 63.5c72.667 0 130.5 -21.167 173.5 -63.5c43 -42.334 64.5 -109.167 64.5 -200.5v-179c0 -91.333 -21.667 -158.166 -65 -200.499
s-101.333 -63.5 -174 -63.5c-73.333 0 -131.5 21.167 -174.5 63.5zM471.001 252.001v180.001c0 134 -55 201 -165 201c-55.333 0 -97 -15.833 -125 -47.5s-42 -82.834 -42 -153.501v-180c0 -67.333 14.167 -116.333 42.5 -147s69.833 -46 124.5 -46
c110 0 165 64.333 165 193zM181.001 847.002h76v-86h-76v86zM352.001 847.002h76v-86h-76v86z" />
    <glyph glyph-name="multiply" unicode="&#xd7;" horiz-adv-x="512" 
d="M89 153l123 124l-123 123l44 44l123 -123l123 123l45 -44l-123 -123l123 -124l-45 -44l-123 123l-123 -123z" />
    <glyph glyph-name="Oslash" unicode="&#xd8;" 
d="M492 620c34.667 -44 52 -105.667 52 -185v-179c0 -91.333 -21.667 -158.166 -65 -200.499s-101.333 -63.5 -174 -63.5c-61.333 0 -111.333 14 -150 42l-31 -54h-58l52 90c-34.667 44 -52 106 -52 186v179c0 91.333 21.667 158.166 65 200.499s101.666 63.5 174.999 63.5
c60.667 0 110.334 -14 149.001 -42l31 53h58zM159 141l260 453.001c-26.667 26 -64.334 39 -113 39c-55.333 0 -97 -15.833 -125 -47.5s-42 -82.834 -42 -153.501v-180c0 -45.333 6.66699 -82.333 20 -111zM451 548.001l-260 -452c26.667 -24.667 65 -37 115 -37
c110 0 165 64.333 165 193v180c0 47.333 -6.66699 86 -20 116z" />
    <glyph glyph-name="Ugrave" unicode="&#xd9;" horiz-adv-x="635" 
d="M196 23c-36 19.333 -64.333 46.667 -85 82s-31 75.333 -31 120v465h74v-459c0 -52.667 14.833 -94.5 44.5 -125.5s69.5 -46.5 119.5 -46.5c49.333 0 89 15.5 119 46.5s45 72.833 45 125.5v459h73v-465c0 -45.333 -10.167 -85.5 -30.5 -120.5s-48.5 -62.167 -84.5 -81.5
s-76.667 -29 -122 -29s-86 9.66699 -122 29zM191 880.001h84l99 -125h-63z" />
    <glyph glyph-name="Uacute" unicode="&#xda;" horiz-adv-x="635" 
d="M196 23c-36 19.333 -64.333 46.667 -85 82s-31 75.333 -31 120v465h74v-459c0 -52.667 14.833 -94.5 44.5 -125.5s69.5 -46.5 119.5 -46.5c49.333 0 89 15.5 119 46.5s45 72.833 45 125.5v459h73v-465c0 -45.333 -10.167 -85.5 -30.5 -120.5s-48.5 -62.167 -84.5 -81.5
s-76.667 -29 -122 -29s-86 9.66699 -122 29zM341 880.001h84l-120 -125h-63z" />
    <glyph glyph-name="Ucircumflex" unicode="&#xdb;" horiz-adv-x="635" 
d="M196 23c-36 19.333 -64.333 46.667 -85 82s-31 75.333 -31 120v465h74v-459c0 -52.667 14.833 -94.5 44.5 -125.5s69.5 -46.5 119.5 -46.5c49.333 0 89 15.5 119 46.5s45 72.833 45 125.5v459h73v-465c0 -45.333 -10.167 -85.5 -30.5 -120.5s-48.5 -62.167 -84.5 -81.5
s-76.667 -29 -122 -29s-86 9.66699 -122 29zM289 889.001h55l107 -144h-62l-72 95l-73 -95h-62z" />
    <glyph glyph-name="Udieresis" unicode="&#xdc;" horiz-adv-x="635" 
d="M196 23c-36 19.333 -64.333 46.667 -85 82s-31 75.333 -31 120v465h74v-459c0 -52.667 14.833 -94.5 44.5 -125.5s69.5 -46.5 119.5 -46.5c49.333 0 89 15.5 119 46.5s45 72.833 45 125.5v459h73v-465c0 -45.333 -10.167 -85.5 -30.5 -120.5s-48.5 -62.167 -84.5 -81.5
s-76.667 -29 -122 -29s-86 9.66699 -122 29zM193 847.001h76v-86h-76v86zM364 847.001h76v-86h-76v86z" />
    <glyph glyph-name="Yacute" unicode="&#xdd;" horiz-adv-x="499" 
d="M286 289v-289h-73v290l-206 400h79l163 -331l164 331h79zM274 880h84l-120 -125h-63z" />
    <glyph glyph-name="Thorn" unicode="&#xde;" horiz-adv-x="577" 
d="M477 510.5c38.667 -35.667 58 -86.5 58 -152.5c0 -62 -19.5 -110.667 -58.5 -146s-91.833 -53 -158.5 -53h-165v-159h-73v690h73v-126h165c67.333 0 120.333 -17.833 159 -53.5zM423 258c26 22 39 55.333 39 100c0 47.334 -13 82.667 -39 106s-63 35 -111 35h-159v-274
h159c48 0 85 11 111 33z" />
    <glyph glyph-name="germandbls" unicode="&#xdf;" horiz-adv-x="505" 
d="M251 58l25.999 0.000976562c30.667 0 53 5.33301 67 16s23 27 27 49s6 56 6 102c0 44.667 -2 78.167 -6 100.5c-4 22.334 -13.5 39.167 -28.5 50.5s-38.833 17 -71.5 17h-21v62h27c32.667 0 56.167 7.16699 70.5 21.5s21.5 36.5 21.5 66.5
c0 31.333 -9.16699 54.5 -27.5 69.5s-45.833 22.5 -82.5 22.5c-40 0 -69.333 -9.5 -88 -28.5s-28 -49.5 -28 -91.5v-515h-68v506c0 62.667 14.333 110.167 43 142.5s75.334 48.5 140.001 48.5c58 0 102.5 -13.333 133.5 -40s46.5 -64.334 46.5 -113.001
c0 -29.334 -5.33301 -53.334 -16 -72c-10.667 -18.667 -27 -33.667 -49 -45c21.334 -10 37.167 -23 47.5 -39c10.3369 -16 17.1699 -36.167 20.5 -60.5c3.33301 -24.333 5 -58.5 5 -102.5c0 -58.667 -4 -104 -12 -136s-23.833 -55.5 -47.5 -70.5s-59.167 -22.5 -106.5 -22.5
h-29v62z" />
    <glyph glyph-name="agrave" unicode="&#xe0;" horiz-adv-x="497" 
d="M374.5 471c31.667 -28.667 47.501 -70.667 47.501 -126v-345h-67v54c-15.333 -20.667 -34.333 -35.834 -57 -45.501s-50.334 -14.5 -83.001 -14.5c-53.333 0 -94.666 12.667 -123.999 38s-44 62.333 -44 111c0 45.333 14.833 80.833 44.5 106.5s71.5 38.5 125.5 38.5h137
v58c0 36.667 -10 64.334 -30 83.001s-48.333 28 -85 28c-34.667 0 -61.834 -7.83301 -81.501 -23.5s-29.5 -37.167 -29.5 -64.5v-3h-66v5c0 43.333 15.667 78 47 104s74.333 39 129 39c59.333 0 104.833 -14.333 136.5 -43zM323.501 79.5
c20.333 20.333 30.5 51.167 30.5 92.5v66h-127c-74.667 0 -112 -31.333 -112 -94c0 -63.333 37 -95 111 -95c44.667 0 77.167 10.167 97.5 30.5zM120.001 697.001h84l99 -125h-63z" />
    <glyph glyph-name="aacute" unicode="&#xe1;" horiz-adv-x="497" 
d="M374.5 471c31.667 -28.667 47.501 -70.667 47.501 -126v-345h-67v54c-15.333 -20.667 -34.333 -35.834 -57 -45.501s-50.334 -14.5 -83.001 -14.5c-53.333 0 -94.666 12.667 -123.999 38s-44 62.333 -44 111c0 45.333 14.833 80.833 44.5 106.5s71.5 38.5 125.5 38.5h137
v58c0 36.667 -10 64.334 -30 83.001s-48.333 28 -85 28c-34.667 0 -61.834 -7.83301 -81.501 -23.5s-29.5 -37.167 -29.5 -64.5v-3h-66v5c0 43.333 15.667 78 47 104s74.333 39 129 39c59.333 0 104.833 -14.333 136.5 -43zM323.501 79.5
c20.333 20.333 30.5 51.167 30.5 92.5v66h-127c-74.667 0 -112 -31.333 -112 -94c0 -63.333 37 -95 111 -95c44.667 0 77.167 10.167 97.5 30.5zM270.001 697.001h84l-120 -125h-63z" />
    <glyph glyph-name="acircumflex" unicode="&#xe2;" horiz-adv-x="497" 
d="M374.5 471c31.667 -28.667 47.501 -70.667 47.501 -126v-345h-67v54c-15.333 -20.667 -34.333 -35.834 -57 -45.501s-50.334 -14.5 -83.001 -14.5c-53.333 0 -94.666 12.667 -123.999 38s-44 62.333 -44 111c0 45.333 14.833 80.833 44.5 106.5s71.5 38.5 125.5 38.5h137
v58c0 36.667 -10 64.334 -30 83.001s-48.333 28 -85 28c-34.667 0 -61.834 -7.83301 -81.501 -23.5s-29.5 -37.167 -29.5 -64.5v-3h-66v5c0 43.333 15.667 78 47 104s74.333 39 129 39c59.333 0 104.833 -14.333 136.5 -43zM323.501 79.5
c20.333 20.333 30.5 51.167 30.5 92.5v66h-127c-74.667 0 -112 -31.333 -112 -94c0 -63.333 37 -95 111 -95c44.667 0 77.167 10.167 97.5 30.5zM218.001 706.001h55l107 -144h-62l-72 95l-73 -95h-62z" />
    <glyph glyph-name="atilde" unicode="&#xe3;" horiz-adv-x="497" 
d="M374.5 471c31.667 -28.667 47.501 -70.667 47.501 -126v-345h-67v54c-15.333 -20.667 -34.333 -35.834 -57 -45.501s-50.334 -14.5 -83.001 -14.5c-53.333 0 -94.666 12.667 -123.999 38s-44 62.333 -44 111c0 45.333 14.833 80.833 44.5 106.5s71.5 38.5 125.5 38.5h137
v58c0 36.667 -10 64.334 -30 83.001s-48.333 28 -85 28c-34.667 0 -61.834 -7.83301 -81.501 -23.5s-29.5 -37.167 -29.5 -64.5v-3h-66v5c0 43.333 15.667 78 47 104s74.333 39 129 39c59.333 0 104.833 -14.333 136.5 -43zM323.501 79.5
c20.333 20.333 30.5 51.167 30.5 92.5v66h-127c-74.667 0 -112 -31.333 -112 -94c0 -63.333 37 -95 111 -95c44.667 0 77.167 10.167 97.5 30.5zM122.001 630.001c11.333 13.333 22.334 23.0029 33.001 29.0029s22.667 9 36 9c10.667 0 20.334 -1.66699 29 -5
c8.66699 -3.33301 19 -8.33301 31 -15c10 -6 18.833 -10.667 26.5 -14s16.167 -5 25.5 -5c12 0 22.5 2.83301 31.5 8.5c9 5.66895 20.5 15.8359 34.5 30.5v-61c-21.333 -24.667 -44.333 -37 -69 -37c-11.333 0 -21.333 1.66699 -30 5s-19.334 8.66602 -32.001 15.999
c-2 1.33301 -6.33301 3.66602 -13 6.99902s-13 5.83301 -19 7.5s-11.667 2.5 -17 2.5c-12.667 0 -23.667 -2.83301 -33 -8.5c-9.33398 -5.66699 -20.667 -15.834 -34 -30.501v61z" />
    <glyph glyph-name="adieresis" unicode="&#xe4;" horiz-adv-x="497" 
d="M374.5 471c31.667 -28.667 47.501 -70.667 47.501 -126v-345h-67v54c-15.333 -20.667 -34.333 -35.834 -57 -45.501s-50.334 -14.5 -83.001 -14.5c-53.333 0 -94.666 12.667 -123.999 38s-44 62.333 -44 111c0 45.333 14.833 80.833 44.5 106.5s71.5 38.5 125.5 38.5h137
v58c0 36.667 -10 64.334 -30 83.001s-48.333 28 -85 28c-34.667 0 -61.834 -7.83301 -81.501 -23.5s-29.5 -37.167 -29.5 -64.5v-3h-66v5c0 43.333 15.667 78 47 104s74.333 39 129 39c59.333 0 104.833 -14.333 136.5 -43zM323.501 79.5
c20.333 20.333 30.5 51.167 30.5 92.5v66h-127c-74.667 0 -112 -31.333 -112 -94c0 -63.333 37 -95 111 -95c44.667 0 77.167 10.167 97.5 30.5zM122.001 664.001h76v-86h-76v86zM293.001 664.001h76v-86h-76v86z" />
    <glyph glyph-name="aring" unicode="&#xe5;" horiz-adv-x="497" 
d="M374.5 471c31.667 -28.667 47.501 -70.667 47.501 -126v-345h-67v54c-15.333 -20.667 -34.333 -35.834 -57 -45.501s-50.334 -14.5 -83.001 -14.5c-53.333 0 -94.666 12.667 -123.999 38s-44 62.333 -44 111c0 45.333 14.833 80.833 44.5 106.5s71.5 38.5 125.5 38.5h137
v58c0 36.667 -10 64.334 -30 83.001s-48.333 28 -85 28c-34.667 0 -61.834 -7.83301 -81.501 -23.5s-29.5 -37.167 -29.5 -64.5v-3h-66v5c0 43.333 15.667 78 47 104s74.333 39 129 39c59.333 0 104.833 -14.333 136.5 -43zM323.501 79.5
c20.333 20.333 30.5 51.167 30.5 92.5v66h-127c-74.667 0 -112 -31.333 -112 -94c0 -63.333 37 -95 111 -95c44.667 0 77.167 10.167 97.5 30.5zM180.501 585.001c-17 17.333 -25.5 39 -25.5 65c0 26.667 8.5 48.667 25.5 66s38.833 26 65.5 26c26 0 47.667 -8.66699 65 -26
s26 -39.333 26 -66c0 -26 -8.66699 -47.667 -26 -65s-39 -26 -65 -26c-26.667 0 -48.5 8.66699 -65.5 26zM283.001 612.001c10 10 15 22.668 15 38.001s-5 28.166 -15 38.499s-22.333 15.5 -37 15.5s-27 -5.16699 -37 -15.5c-10 -10.334 -15 -23.167 -15 -38.5s5 -28 15 -38
s22.333 -15 37 -15s27 5 37 15z" />
    <glyph glyph-name="ae" unicode="&#xe6;" horiz-adv-x="798" 
d="M422 240l0.00195312 -30.001c0 -57.333 11.667 -97.5 35 -120.5s55.666 -34.5 96.999 -34.5c36 0 64.167 8.66699 84.5 26s30.5 41.333 30.5 72v3h66v-5c0 -46 -15.833 -83.667 -47.5 -113s-75.834 -44 -132.501 -44c-36 0 -68.167 6.5 -96.5 19.5
s-51.166 33.5 -68.499 61.5c-34.667 -54 -91 -81 -169 -81c-54 0 -96.5 12.833 -127.5 38.5s-46.5 62.5 -46.5 110.5c0 45.333 14.833 80.833 44.5 106.5s71.5 38.5 125.5 38.5h137v58c0 36.667 -10 64.334 -30 83.001s-48.333 28 -85 28
c-34.667 0 -61.834 -7.83301 -81.501 -23.5s-29.5 -37.167 -29.5 -64.5v-3h-66v5c0 43.333 15.667 78 47 104s74.333 39 129 39c74 0 126.333 -22.333 157 -67c33.333 44.667 84 67 152 67c58 0 104.5 -17.5 139.5 -52.5s52.5 -88.833 52.5 -161.5v-60h-317z
M456.002 418.499c-22.667 -22.333 -33.999 -61.167 -33.999 -116.5v-11h248v18c0 52.667 -10.833 89.667 -32.5 111s-51.834 32 -90.501 32c-38 0 -68.333 -11.167 -91 -33.5zM354.003 237.998h-127c-74.667 0 -112 -31.333 -112 -94c0 -63.333 37 -95 111 -95
c85.333 0 128 42.667 128 128v61z" />
    <glyph glyph-name="ccedilla" unicode="&#xe7;" horiz-adv-x="503" 
d="M378 340l-0.00195312 4.99902c0 34 -10.667 60.333 -32 79s-50.333 28 -87 28c-41.333 0 -73.666 -11.167 -96.999 -33.5s-35 -61.166 -35 -116.499v-96c0 -56 11.5 -95.167 34.5 -117.5s55.167 -33.5 96.5 -33.5c37.334 0 66.667 9.33301 88 28s32 45 32 79v5h66v-4
c0 -42.667 -12 -78.5 -36 -107.5s-57 -47.833 -99 -56.5l-49 -149h-71l56 144c-57.333 2 -102.666 19.667 -135.999 53s-50 85 -50 155v104c0 72 17.833 124.667 53.5 158s83.5 50 143.5 50c58 0 103.833 -15.333 137.5 -46s50.5 -71.667 50.5 -123v-5h-66z" />
    <glyph glyph-name="egrave" unicode="&#xe8;" horiz-adv-x="503" 
d="M127 240v-30c0 -57.333 11.667 -97.5 35 -120.5s55.666 -34.5 96.999 -34.5c36 0 64.167 8.66699 84.5 26s30.5 41.333 30.5 72v3h66v-5c0 -47.333 -16.5 -85.333 -49.5 -114s-78.5 -43 -136.5 -43c-59.333 0 -106.666 17.667 -141.999 53s-53 90.333 -53 165v88
c0 72.667 17.667 126.5 53 161.5s82 52.5 140 52.5s104.5 -17.5 139.5 -52.5s52.5 -88.833 52.5 -161.5v-60h-317zM161 418.5c-22.667 -22.333 -34 -61.167 -34 -116.5v-11h249v18c0 52.667 -11 89.667 -33 111s-52.333 32 -91 32c-38 0 -68.333 -11.167 -91 -33.5z
M126 696.999h84l99 -125h-63z" />
    <glyph glyph-name="eacute" unicode="&#xe9;" horiz-adv-x="503" 
d="M127 240v-30c0 -57.333 11.667 -97.5 35 -120.5s55.666 -34.5 96.999 -34.5c36 0 64.167 8.66699 84.5 26s30.5 41.333 30.5 72v3h66v-5c0 -47.333 -16.5 -85.333 -49.5 -114s-78.5 -43 -136.5 -43c-59.333 0 -106.666 17.667 -141.999 53s-53 90.333 -53 165v88
c0 72.667 17.667 126.5 53 161.5s82 52.5 140 52.5s104.5 -17.5 139.5 -52.5s52.5 -88.833 52.5 -161.5v-60h-317zM161 418.5c-22.667 -22.333 -34 -61.167 -34 -116.5v-11h249v18c0 52.667 -11 89.667 -33 111s-52.333 32 -91 32c-38 0 -68.333 -11.167 -91 -33.5z
M276 696.999h84l-120 -125h-63z" />
    <glyph glyph-name="ecircumflex" unicode="&#xea;" horiz-adv-x="503" 
d="M127 240v-30c0 -57.333 11.667 -97.5 35 -120.5s55.666 -34.5 96.999 -34.5c36 0 64.167 8.66699 84.5 26s30.5 41.333 30.5 72v3h66v-5c0 -47.333 -16.5 -85.333 -49.5 -114s-78.5 -43 -136.5 -43c-59.333 0 -106.666 17.667 -141.999 53s-53 90.333 -53 165v88
c0 72.667 17.667 126.5 53 161.5s82 52.5 140 52.5s104.5 -17.5 139.5 -52.5s52.5 -88.833 52.5 -161.5v-60h-317zM161 418.5c-22.667 -22.333 -34 -61.167 -34 -116.5v-11h249v18c0 52.667 -11 89.667 -33 111s-52.333 32 -91 32c-38 0 -68.333 -11.167 -91 -33.5z
M224 705.999h55l107 -144h-62l-72 95l-73 -95h-62z" />
    <glyph glyph-name="edieresis" unicode="&#xeb;" horiz-adv-x="503" 
d="M127 240v-30c0 -57.333 11.667 -97.5 35 -120.5s55.666 -34.5 96.999 -34.5c36 0 64.167 8.66699 84.5 26s30.5 41.333 30.5 72v3h66v-5c0 -47.333 -16.5 -85.333 -49.5 -114s-78.5 -43 -136.5 -43c-59.333 0 -106.666 17.667 -141.999 53s-53 90.333 -53 165v88
c0 72.667 17.667 126.5 53 161.5s82 52.5 140 52.5s104.5 -17.5 139.5 -52.5s52.5 -88.833 52.5 -161.5v-60h-317zM161 418.5c-22.667 -22.333 -34 -61.167 -34 -116.5v-11h249v18c0 52.667 -11 89.667 -33 111s-52.333 32 -91 32c-38 0 -68.333 -11.167 -91 -33.5z
M128 663.999h76v-86h-76v86zM299 663.999h76v-86h-76v86z" />
    <glyph glyph-name="igrave" unicode="&#xec;" horiz-adv-x="234" 
d="M83 507h68v-507h-68v507zM-39 697h84l99 -125h-63z" />
    <glyph glyph-name="iacute" unicode="&#xed;" horiz-adv-x="234" 
d="M83 507h68v-507h-68v507zM172 697h84l-120 -125h-63z" />
    <glyph glyph-name="icircumflex" unicode="&#xee;" horiz-adv-x="234" 
d="M83 507h68v-507h-68v507zM89 706h55l107 -144h-62l-72 95l-73 -95h-62z" />
    <glyph glyph-name="idieresis" unicode="&#xef;" horiz-adv-x="234" 
d="M83 507h68v-507h-68v507zM-7 664h76v-86h-76v86zM164 664h76v-86h-76v86z" />
    <glyph glyph-name="eth" unicode="&#xf0;" horiz-adv-x="496" 
d="M417.5 384.5c13 -37 19.5 -76.168 19.5 -117.501v-55c0 -73.333 -16.5 -128.5 -49.5 -165.5s-79.833 -55.5 -140.5 -55.5c-60 0 -106.333 18.333 -139 55s-49 90.334 -49 161.001v55c0 68 15.167 120.333 45.5 157s72.5 55 126.5 55c27.334 0 50.667 -4.66699 70 -14
l-68 93l-102 -31l-15 54l82 25l-64 89h82l50 -68l99 30l15 -54l-79 -24l56 -78c27.333 -37.333 47.5 -74.5 60.5 -111.5zM368 261.999c0 99.333 -39.667 149 -119 149c-81.333 0 -122 -49 -122 -147v-57c0 -100.667 40.667 -151 122 -151c79.333 0 119 50 119 150v56z" />
    <glyph glyph-name="ntilde" unicode="&#xf1;" horiz-adv-x="522" 
d="M75 507l67 -0.000976562v-62c14.667 22.667 33.834 39.667 57.5 51c23.667 11.333 50.167 17 79.5 17c54 0 95.5 -15.833 124.5 -47.5s43.5 -75.834 43.5 -132.5v-333h-68v323c0 42 -10.333 74 -31 96s-49.334 33 -86 33c-36 0 -64.833 -11.167 -86.5 -33.5
s-32.5 -54.166 -32.5 -95.499v-323h-68v507zM138 629.999c11.333 13.333 22.333 23.0029 33 29.0029s22.667 9 36 9c10.667 0 20.334 -1.66699 29 -5c8.66699 -3.33301 19 -8.33301 31 -15c10 -6 18.833 -10.667 26.5 -14s16.167 -5 25.5 -5c12 0 22.5 2.83301 31.5 8.5
c9 5.66895 20.5 15.8359 34.5 30.5v-61c-21.333 -24.667 -44.333 -37 -69 -37c-11.333 0 -21.333 1.66699 -30 5s-19.334 8.66602 -32 15.999c-2 1.33301 -6.33301 3.66602 -13 6.99902s-13 5.83301 -19 7.5s-11.667 2.5 -17 2.5c-12.667 0 -23.667 -2.83301 -33 -8.5
c-9.33398 -5.66699 -20.667 -15.834 -34 -30.501v61z" />
    <glyph glyph-name="ograve" unicode="&#xf2;" horiz-adv-x="505" 
d="M112 43.5c-35.333 33 -53 85.833 -53 158.5v104c0 72 17.667 124.667 53 158s82.666 50 141.999 50c58 0 104.5 -16.667 139.5 -50s52.5 -86 52.5 -158v-104c0 -72 -17.5 -124.667 -52.5 -158s-81.5 -50 -139.5 -50c-59.333 0 -106.666 16.5 -141.999 49.5zM344.5 88.5
c22.333 22.333 33.5 61.499 33.5 117.499v96c0 55.334 -11.167 94.167 -33.5 116.5s-52.5 33.5 -90.5 33.5c-39.333 0 -70.333 -11.167 -93 -33.5s-34 -61.166 -34 -116.499v-96c0 -56 11.333 -95.167 34 -117.5s53.667 -33.5 93 -33.5c38 0 68.167 11.167 90.5 33.5z
M126 696.999h84l99 -125h-63z" />
    <glyph glyph-name="oacute" unicode="&#xf3;" horiz-adv-x="505" 
d="M112 43.5c-35.333 33 -53 85.833 -53 158.5v104c0 72 17.667 124.667 53 158s82.666 50 141.999 50c58 0 104.5 -16.667 139.5 -50s52.5 -86 52.5 -158v-104c0 -72 -17.5 -124.667 -52.5 -158s-81.5 -50 -139.5 -50c-59.333 0 -106.666 16.5 -141.999 49.5zM344.5 88.5
c22.333 22.333 33.5 61.499 33.5 117.499v96c0 55.334 -11.167 94.167 -33.5 116.5s-52.5 33.5 -90.5 33.5c-39.333 0 -70.333 -11.167 -93 -33.5s-34 -61.166 -34 -116.499v-96c0 -56 11.333 -95.167 34 -117.5s53.667 -33.5 93 -33.5c38 0 68.167 11.167 90.5 33.5z
M276 696.999h84l-120 -125h-63z" />
    <glyph glyph-name="ocircumflex" unicode="&#xf4;" horiz-adv-x="505" 
d="M112 43.5c-35.333 33 -53 85.833 -53 158.5v104c0 72 17.667 124.667 53 158s82.666 50 141.999 50c58 0 104.5 -16.667 139.5 -50s52.5 -86 52.5 -158v-104c0 -72 -17.5 -124.667 -52.5 -158s-81.5 -50 -139.5 -50c-59.333 0 -106.666 16.5 -141.999 49.5zM344.5 88.5
c22.333 22.333 33.5 61.499 33.5 117.499v96c0 55.334 -11.167 94.167 -33.5 116.5s-52.5 33.5 -90.5 33.5c-39.333 0 -70.333 -11.167 -93 -33.5s-34 -61.166 -34 -116.499v-96c0 -56 11.333 -95.167 34 -117.5s53.667 -33.5 93 -33.5c38 0 68.167 11.167 90.5 33.5z
M224 705.999h55l107 -144h-62l-72 95l-73 -95h-62z" />
    <glyph glyph-name="otilde" unicode="&#xf5;" horiz-adv-x="505" 
d="M112 43.5c-35.333 33 -53 85.833 -53 158.5v104c0 72 17.667 124.667 53 158s82.666 50 141.999 50c58 0 104.5 -16.667 139.5 -50s52.5 -86 52.5 -158v-104c0 -72 -17.5 -124.667 -52.5 -158s-81.5 -50 -139.5 -50c-59.333 0 -106.666 16.5 -141.999 49.5zM344.5 88.5
c22.333 22.333 33.5 61.499 33.5 117.499v96c0 55.334 -11.167 94.167 -33.5 116.5s-52.5 33.5 -90.5 33.5c-39.333 0 -70.333 -11.167 -93 -33.5s-34 -61.166 -34 -116.499v-96c0 -56 11.333 -95.167 34 -117.5s53.667 -33.5 93 -33.5c38 0 68.167 11.167 90.5 33.5z
M128 629.999c11.333 13.333 22.334 23.0029 33.001 29.0029s22.667 9 36 9c10.667 0 20.334 -1.66699 29 -5c8.66699 -3.33301 19 -8.33301 31 -15c10 -6 18.833 -10.667 26.5 -14s16.167 -5 25.5 -5c12 0 22.5 2.83301 31.5 8.5c9 5.66895 20.5 15.8359 34.5 30.5v-61
c-21.333 -24.667 -44.333 -37 -69 -37c-11.333 0 -21.333 1.66699 -30 5c-8.66797 3.33301 -19.335 8.66602 -32.001 15.999c-2 1.33301 -6.33301 3.66602 -13 6.99902s-13 5.83301 -19 7.5s-11.667 2.5 -17 2.5c-12.667 0 -23.667 -2.83301 -33 -8.5
c-9.33398 -5.66699 -20.667 -15.834 -34 -30.501v61z" />
    <glyph glyph-name="odieresis" unicode="&#xf6;" horiz-adv-x="505" 
d="M112 43.5c-35.333 33 -53 85.833 -53 158.5v104c0 72 17.667 124.667 53 158s82.666 50 141.999 50c58 0 104.5 -16.667 139.5 -50s52.5 -86 52.5 -158v-104c0 -72 -17.5 -124.667 -52.5 -158s-81.5 -50 -139.5 -50c-59.333 0 -106.666 16.5 -141.999 49.5zM344.5 88.5
c22.333 22.333 33.5 61.499 33.5 117.499v96c0 55.334 -11.167 94.167 -33.5 116.5s-52.5 33.5 -90.5 33.5c-39.333 0 -70.333 -11.167 -93 -33.5s-34 -61.166 -34 -116.499v-96c0 -56 11.333 -95.167 34 -117.5s53.667 -33.5 93 -33.5c38 0 68.167 11.167 90.5 33.5z
M128 663.999h76v-86h-76v86zM299 663.999h76v-86h-76v86z" />
    <glyph glyph-name="divide" unicode="&#xf7;" horiz-adv-x="512" 
d="M222 384c-9.33301 9.33398 -13.999 20.665 -13.999 33.998c0 13.335 4.66699 24.668 14 34c9.33301 9.33301 20.666 14 33.999 14c13.334 0 24.667 -4.66699 33.999 -14c9.33301 -9.33301 14 -20.666 14 -33.999s-4.66699 -24.666 -14 -33.999s-20.666 -14 -33.999 -14
c-13.334 0 -24.667 4.66699 -34 14zM57.001 308.998h398v-66h-398v66zM222.001 101.998c-9.33301 9.33301 -13.999 20.667 -13.999 34s4.66699 24.666 14 33.999s20.666 14 33.999 14c13.334 0 24.667 -4.66699 33.999 -14c9.33301 -9.33398 14 -20.667 14 -34
s-4.66699 -24.666 -14 -33.999s-20.666 -14 -33.999 -14c-13.334 0 -24.667 4.66699 -34 14z" />
    <glyph glyph-name="oslash" unicode="&#xf8;" horiz-adv-x="505" 
d="M400 457c30.667 -34.667 46 -85 46 -151v-104c0 -72 -17.5 -124.667 -52.5 -158s-81.5 -50 -139.5 -50c-47.333 0 -86.666 10 -117.999 30l-33 -54h-44l48 79c-32 35.333 -48 86.333 -48 153v104c0 72 17.667 124.667 53 158s82.666 50 141.999 50
c46.667 0 85.667 -10.667 117 -32l31 51h44zM145 111l192 314.999c-20 17.333 -47.667 26 -83 26c-39.333 0 -70.333 -11.167 -93 -33.5s-34 -61.166 -34 -116.499v-96c0 -38 6 -69.667 18 -95zM361 393.999l-191 -314c19.333 -16.667 47.333 -25 84 -25
c38 0 68.167 11.167 90.5 33.5s33.5 61.5 33.5 117.5v96c0 37.333 -5.66699 68 -17 92z" />
    <glyph glyph-name="ugrave" unicode="&#xf9;" horiz-adv-x="522" 
d="M121.5 43.5c-31 33 -46.5 80.5 -46.5 142.5v321h68v-312c0 -46.667 9 -81.667 27 -105s48.333 -35 91 -35s73 11.333 91 34s27 58 27 106v312h68v-321c0 -62 -15.5 -109.5 -46.5 -142.5s-77.833 -49.5 -140.5 -49.5c-61.333 0 -107.5 16.5 -138.5 49.5zM135 697h84
l99 -125h-63z" />
    <glyph glyph-name="uacute" unicode="&#xfa;" horiz-adv-x="522" 
d="M121.5 43.5c-31 33 -46.5 80.5 -46.5 142.5v321h68v-312c0 -46.667 9 -81.667 27 -105s48.333 -35 91 -35s73 11.333 91 34s27 58 27 106v312h68v-321c0 -62 -15.5 -109.5 -46.5 -142.5s-77.833 -49.5 -140.5 -49.5c-61.333 0 -107.5 16.5 -138.5 49.5zM285 697h84
l-120 -125h-63z" />
    <glyph glyph-name="ucircumflex" unicode="&#xfb;" horiz-adv-x="522" 
d="M121.5 43.5c-31 33 -46.5 80.5 -46.5 142.5v321h68v-312c0 -46.667 9 -81.667 27 -105s48.333 -35 91 -35s73 11.333 91 34s27 58 27 106v312h68v-321c0 -62 -15.5 -109.5 -46.5 -142.5s-77.833 -49.5 -140.5 -49.5c-61.333 0 -107.5 16.5 -138.5 49.5zM233 706h55
l107 -144h-62l-72 95l-73 -95h-62z" />
    <glyph glyph-name="udieresis" unicode="&#xfc;" horiz-adv-x="522" 
d="M121.5 43.5c-31 33 -46.5 80.5 -46.5 142.5v321h68v-312c0 -46.667 9 -81.667 27 -105s48.333 -35 91 -35s73 11.333 91 34s27 58 27 106v312h68v-321c0 -62 -15.5 -109.5 -46.5 -142.5s-77.833 -49.5 -140.5 -49.5c-61.333 0 -107.5 16.5 -138.5 49.5zM137 664h76v-86
h-76v86zM308 664h76v-86h-76v86z" />
    <glyph glyph-name="yacute" unicode="&#xfd;" horiz-adv-x="439" 
d="M425 507l-195 -562c-12 -34 -28.5 -58.667 -49.5 -74s-48.833 -23 -83.5 -23h-30v62h25c24.667 0 43.167 5 55.5 15s22.5 26.333 30.5 49l10 31l-174 502h74l133 -403l133 403h71zM243 697h84l-120 -125h-63z" />
    <glyph glyph-name="thorn" unicode="&#xfe;" horiz-adv-x="510" 
d="M75 690l68.001 0.000976562v-254c14 25.334 32.167 44.667 54.5 57.999c22.333 13.333 48.166 20 77.499 20c52 0 94.333 -16.833 127 -50.5s49 -86.167 49 -157.5v-104c0 -71.333 -16 -123.833 -48 -157.5s-73 -50.5 -123 -50.5c-63.333 0 -109 24.333 -137 73v-219h-68
v842zM383.001 206.001l0.000976562 95.999c0 100 -39 150 -117 150c-40.667 0 -71.334 -14.167 -92.001 -42.5s-31 -66.166 -31 -113.499v-89c0 -44.667 10.833 -81.167 32.5 -109.5s53.167 -42.5 94.5 -42.5c75.333 0 113 50.333 113 151z" />
    <glyph glyph-name="ydieresis" unicode="&#xff;" horiz-adv-x="439" 
d="M425 507l-195 -562c-12 -34 -28.5 -58.667 -49.5 -74s-48.833 -23 -83.5 -23h-30v62h25c24.667 0 43.167 5 55.5 15s22.5 26.333 30.5 49l10 31l-174 502h74l133 -403l133 403h71zM95 664h76v-86h-76v86zM266 664h76v-86h-76v86z" />
    <glyph glyph-name="dotlessi" unicode="&#x131;" horiz-adv-x="234" 
d="M83 507h68v-507h-68v507z" />
    <glyph glyph-name="OE" unicode="&#x152;" horiz-adv-x="893" 
d="M543 624v-166c0.666992 -7.33301 1 -18.666 1 -33.999v-40h250v-66h-250v-51c0 -15.334 -0.333008 -26.667 -1 -34v-167h302v-66h-374v49c-40.667 -38 -96.334 -57 -167 -57c-73.333 0 -131.333 21 -174 63s-64 109 -64 201v179c0 91.333 21.5 158.166 64.5 200.499
s101.167 63.5 174.5 63.5c70.667 0 126 -19 166 -57v48h374v-66h-302zM471 252v180.001c0 134 -55 201 -165 201c-55.333 0 -97 -15.833 -125 -47.5s-42 -82.834 -42 -153.501v-180c0 -67.333 14.167 -116.333 42.5 -147s69.833 -46 124.5 -46c110 0 165 64.333 165 193z
" />
    <glyph glyph-name="oe" unicode="&#x153;" horiz-adv-x="822" 
d="M446 240v-29.999c0 -57.333 11.667 -97.5 35 -120.5s55.666 -34.5 96.999 -34.5c36 0 64.167 8.66699 84.5 26s30.5 41.333 30.5 72v3h66v-5c0 -47.333 -16.5 -85.333 -49.5 -114s-78.5 -43 -136.5 -43c-73.333 0 -126.666 25 -159.999 75
c-31.333 -50 -84.333 -75 -159 -75c-59.333 0 -106.666 16.5 -141.999 49.5s-53 85.833 -53 158.5v104c0 72 17.667 124.667 53 158s82.666 50 141.999 50c74 0 127 -25 159 -75c16.667 25.334 38.5 44.167 65.5 56.499c27 12.333 57.5 18.5 91.5 18.5
c58.667 0 105.5 -17.5 140.5 -52.5s52.5 -88.833 52.5 -161.5v-60h-317zM378 302.001c0 55.334 -11.167 94.166 -33.5 116.499s-52.5 33.5 -90.5 33.5c-39.333 0 -70.333 -11.167 -93 -33.5s-34 -61.166 -34 -116.499v-96c0 -56 11.333 -95.167 34 -117.5
s53.667 -33.5 93 -33.5c38 0 68.167 11.167 90.5 33.5s33.5 61.5 33.5 117.5v96zM479.5 418.5c-22.333 -22.333 -33.5 -61.167 -33.5 -116.5v-11h248v18c0 52 -11 88.833 -33 110.5s-52 32.5 -90 32.5c-38.667 0 -69.167 -11.167 -91.5 -33.5z" />
    <glyph glyph-name="Scaron" unicode="&#x160;" horiz-adv-x="546" 
d="M101 45c-39.333 34 -62.0029 84.002 -68.0029 150.002h72c9.33301 -91.333 64 -137 164 -137c52 0 91.5 11 118.5 33s40.5 54 40.5 96c0 38 -10.667 66.667 -32 86c-21.333 19.334 -53.666 32.667 -96.999 39.999l-78 13c-56 9.33301 -99 28.5 -129 57.5
s-45 69.833 -45 122.5c0 60.667 20.333 108 61 142s94.334 51 161.001 51c61.333 0 111.5 -15.833 150.5 -47.5s62.167 -79.834 69.5 -144.501h-72c-8 86 -57.667 129 -149 129c-47.333 0 -84.166 -11.167 -110.499 -33.5s-39.5 -52.833 -39.5 -91.5
c0 -34 10.167 -60.5 30.5 -79.5s51.166 -32.167 92.499 -39.5l80 -14c58 -10 102.333 -30 133 -60s46 -72.333 46 -127c0 -62.667 -21 -111.167 -63 -145.5s-99.667 -51.5 -173 -51.5c-69.333 0 -123.666 17 -162.999 51zM137.997 890.002h62l73 -95l72 95h62l-107 -144h-55
z" />
    <glyph glyph-name="scaron" unicode="&#x161;" horiz-adv-x="462" 
d="M97 34c-33.333 26.667 -50.002 62.665 -50.002 107.998v4h66v-3c0 -28 10.833 -50.167 32.5 -66.5s50.834 -24.5 87.501 -24.5c38 0 67.833 7.66699 89.5 23s32.5 37.333 32.5 66c0 25.333 -7.5 44 -22.5 56s-39.167 21 -72.5 27l-63 11
c-49.333 8.66699 -85.333 23.334 -108 44.001s-34 50.667 -34 90c0 44 16.333 79.167 49 105.5s75 39.5 127 39.5c56 0 100.667 -12.833 134 -38.5s50 -59.167 50 -100.5v-6h-66v3c0 26.667 -10.333 47.667 -31 63s-49 23 -85 23c-35.333 0 -62.833 -7.66699 -82.5 -23
s-29.5 -36.333 -29.5 -63c0 -22 7 -39.167 21 -51.5s36.333 -21.166 67 -26.499l66 -12c50 -9.33301 86.833 -24.5 110.5 -45.5s35.5 -51.5 35.5 -91.5c0 -48 -17.333 -85.167 -52 -111.5s-81 -39.5 -139 -39.5c-55.333 0 -99.666 13.333 -132.999 40zM95.998 706.998h62
l73 -95l72 95h62l-107 -144h-55z" />
    <glyph glyph-name="Ydieresis" unicode="&#x178;" horiz-adv-x="499" 
d="M286 289v-289h-73v290l-206 400h79l163 -331l164 331h79zM126 847h76v-86h-76v86zM297 847h76v-86h-76v86z" />
    <glyph glyph-name="Zcaron" unicode="&#x17d;" horiz-adv-x="516" 
d="M480 66v-66h-440v66l354 558h-341v66h424v-66l-354 -558h357zM123 890h62l73 -95l72 95h62l-107 -144h-55z" />
    <glyph glyph-name="zcaron" unicode="&#x17e;" horiz-adv-x="456" 
d="M397 444l-262 -381h262v-63h-338v63l260 381h-260v63h338v-63zM93 707h62l73 -95l72 95h62l-107 -144h-55z" />
    <glyph glyph-name="florin" unicode="&#x192;" horiz-adv-x="406" 
d="M13 -86l27.999 0.00195312c26.667 0 46.167 5.66699 58.5 17s20.833 33 25.5 65l52 351h-85v63h95l20 132c8 52.667 23.833 90.5 47.5 113.5s59.167 34.5 106.5 34.5h32v-66h-33c-25.333 0 -44.166 -5.83301 -56.499 -17.5s-20.833 -32.834 -25.5 -63.501l-21 -133h105
v-63h-115l-52 -349c-8 -54.667 -23.667 -93.334 -47 -116.001s-59 -34 -107 -34h-28v66z" />
    <glyph glyph-name="circumflex" unicode="&#x2c6;" horiz-adv-x="500" 
d="M222 706h55l107 -144h-62l-72 95l-73 -95h-62z" />
    <glyph glyph-name="caron" unicode="&#x2c7;" horiz-adv-x="500" 
d="M115 707h62l73 -95l72 95h62l-107 -144h-55z" />
    <glyph glyph-name="dotaccent" unicode="&#x2d9;" horiz-adv-x="500" 
d="M214 680h72v-90h-72v90z" />
    <glyph glyph-name="ring" unicode="&#x2da;" horiz-adv-x="500" 
d="M184.5 585c-17 17.333 -25.5 39 -25.5 65c0 26.667 8.5 48.667 25.5 66s38.833 26 65.5 26c26 0 47.667 -8.66699 65 -26s26 -39.333 26 -66c0 -26 -8.66699 -47.667 -26 -65s-39 -26 -65 -26c-26.667 0 -48.5 8.66699 -65.5 26zM287 612c10 10 15 22.668 15 38.001
s-5 28.166 -15 38.499s-22.333 15.5 -37 15.5s-27 -5.16699 -37 -15.5c-10 -10.334 -15 -23.167 -15 -38.5s5 -28 15 -38s22.333 -15 37 -15s27 5 37 15z" />
    <glyph glyph-name="tilde" unicode="&#x2dc;" horiz-adv-x="500" 
d="M126 630c11.333 13.333 22.333 23.0029 33 29.0029s22.667 9 36 9c10.667 0 20.334 -1.66699 29 -5c8.66699 -3.33301 19 -8.33301 31 -15c10 -6 18.833 -10.667 26.5 -14s16.167 -5 25.5 -5c12 0 22.5 2.83301 31.5 8.5c9 5.66895 20.5 15.8359 34.5 30.5v-61
c-21.333 -24.667 -44.333 -37 -69 -37c-11.333 0 -21.333 1.66699 -30 5s-19.334 8.66602 -32.001 15.999c-2 1.33301 -6.33301 3.66602 -13 6.99902s-13 5.83301 -19 7.5s-11.667 2.5 -17 2.5c-12.667 0 -23.667 -2.83301 -33 -8.5s-20.666 -15.834 -33.999 -30.501v61z
" />
    <glyph glyph-name="gravecomb" unicode="&#x300;" horiz-adv-x="0" 
d="M-126 697h84l99 -125h-63z" />
    <glyph glyph-name="acutecomb" unicode="&#x301;" horiz-adv-x="0" 
d="M24 697h84l-120 -125h-63z" />
    <glyph glyph-name="uni0302" unicode="&#x302;" horiz-adv-x="0" 
d="M-28 706h55l107 -144h-62l-72 95l-73 -95h-62z" />
    <glyph glyph-name="tildecomb" unicode="&#x303;" horiz-adv-x="0" 
d="M-124 630c11.333 13.333 22.332 23.0029 32.999 29.0029s22.667 9 36 9c10.667 0 20.334 -1.66699 29.001 -5s19 -8.33301 31 -15c10 -6 18.833 -10.667 26.5 -14s16.167 -5 25.5 -5c12 0 22.5 2.83301 31.5 8.5c9 5.66895 20.5 15.8359 34.5 30.5v-61
c-21.333 -24.667 -44.333 -37 -69 -37c-11.333 0 -21.333 1.66699 -30 5s-19.334 8.66602 -32.001 15.999c-2 1.33301 -6.33301 3.66602 -13 6.99902s-13 5.83301 -19 7.5s-11.667 2.5 -17 2.5c-12.667 0 -23.667 -2.83301 -33 -8.5s-20.666 -15.834 -33.999 -30.501v61z
" />
    <glyph glyph-name="uni0308" unicode="&#x308;" horiz-adv-x="0" 
d="M-124 664h76v-86h-76v86zM47 664h76v-86h-76v86z" />
    <glyph glyph-name="uni030A" unicode="&#x30a;" horiz-adv-x="0" 
d="M-65.5 585c-17 17.333 -25.5 39 -25.5 65c0 26.667 8.5 48.667 25.5 66s38.833 26 65.5 26c26 0 47.667 -8.66699 65 -26s26 -39.333 26 -66c0 -26 -8.66699 -47.667 -26 -65s-39 -26 -65 -26c-26.667 0 -48.5 8.66699 -65.5 26zM37 612c10 10 15 22.668 15 38.001
s-5 28.166 -15 38.499s-22.333 15.5 -37 15.5s-27 -5.16699 -37 -15.5c-10 -10.334 -15 -23.167 -15 -38.5s5 -28 15 -38s22.333 -15 37 -15s27 5 37 15z" />
    <glyph glyph-name="endash" unicode="&#x2013;" horiz-adv-x="417" 
d="M0 380h417v-66h-417v66z" />
    <glyph glyph-name="emdash" unicode="&#x2014;" horiz-adv-x="833" 
d="M0 380h833v-66h-833v66z" />
    <glyph glyph-name="quoteleft" unicode="&#x2018;" horiz-adv-x="172" 
d="M119 495h-66v168l66 62v-230zM67 690z" />
    <glyph glyph-name="quoteright" unicode="&#x2019;" horiz-adv-x="172" 
d="M53 690h66v-168l-66 -62v230z" />
    <glyph glyph-name="quotesinglbase" unicode="&#x201a;" horiz-adv-x="172" 
d="M53 93h66v-168l-66 -62v230z" />
    <glyph glyph-name="quotedblleft" unicode="&#x201c;" horiz-adv-x="308" 
d="M118 495h-66v168l66 62v-230zM255 495h-66v168l66 62v-230zM103 690z" />
    <glyph glyph-name="quotedblright" unicode="&#x201d;" horiz-adv-x="308" 
d="M53 691h66v-168l-66 -62v230zM190 691h66v-168l-66 -62v230z" />
    <glyph glyph-name="quotedblbase" unicode="&#x201e;" horiz-adv-x="308" 
d="M189 93h66v-168l-66 -62v230zM53 93h66v-168l-66 -62v230z" />
    <glyph glyph-name="dagger" unicode="&#x2020;" horiz-adv-x="527" 
d="M452 381h-152v-533h-73v533h-152v65h152v244h73v-244h152v-65z" />
    <glyph glyph-name="daggerdbl" unicode="&#x2021;" horiz-adv-x="527" 
d="M300 384v-227h152v-66h-152v-243h-73v243h-152v66h152v227h-152v66h152v240h73v-240h152v-66h-152z" />
    <glyph glyph-name="bullet" unicode="&#x2022;" horiz-adv-x="471" 
d="M147.5 220.5c-23 23 -34.501 52.167 -34.501 87.5s11.5 64.5 34.5 87.5s52.167 34.5 87.5 34.5c35.334 0 64.667 -11.5 88 -34.5s35 -52.167 35 -87.5s-11.667 -64.5 -35 -87.5s-52.666 -34.5 -87.999 -34.5s-64.5 11.5 -87.5 34.5z" />
    <glyph glyph-name="ellipsis" unicode="&#x2026;" horiz-adv-x="664" 
d="M53 92h88v-92h-88v92zM523 92h88v-92h-88v92zM288 92h88v-92h-88v92z" />
    <glyph glyph-name="perthousand" unicode="&#x2030;" horiz-adv-x="1157" 
d="M71 304c-19.333 24.667 -29 61.667 -29 111v139c0 47.333 10.167 83 30.5 107s50.5 36 90.5 36c42 0 72.833 -11.833 92.5 -35.5s29.5 -59.5 29.5 -107.5v-139c0 -49.333 -9.83301 -86.333 -29.5 -111s-50.5 -37 -92.5 -37s-72.667 12.333 -92 37zM570 690h63l-373 -690
h-63zM205 346.5c7.33301 14.334 11 38.166 11 71.499v130c0 32 -3.83301 55 -11.5 69s-21.5 21 -41.5 21s-33.833 -7 -41.5 -21s-11.5 -37 -11.5 -69v-130c0 -33.333 3.83301 -57.166 11.5 -71.499s21.5 -21.5 41.5 -21.5c20.667 0 34.667 7.16699 42 21.5zM574 30.999
c-19.333 24.667 -29 61.667 -29 111v139c0 47.333 10.167 83 30.5 107s50.5 36 90.5 36c42 0 72.833 -11.833 92.5 -35.5s29.5 -59.5 29.5 -107.5v-139c0 -49.333 -9.83301 -86.333 -29.5 -111s-50.5 -37 -92.5 -37s-72.667 12.333 -92 37zM901 30.999
c-19.333 24.667 -29 61.667 -29 111v139c0 47.333 10.167 83 30.5 107s50.5 36 90.5 36c42 0 72.833 -11.833 92.5 -35.5s29.5 -59.5 29.5 -107.5v-139c0 -49.333 -9.83301 -86.333 -29.5 -111s-50.5 -37 -92.5 -37s-72.667 12.333 -92 37zM708 73.499
c7.33301 14.333 11 38.166 11 71.499v130c0 32 -3.83301 55 -11.5 69s-21.5 21 -41.5 21s-33.833 -7 -41.5 -21s-11.5 -37 -11.5 -69v-130c0 -33.333 3.83301 -57.166 11.5 -71.499s21.5 -21.5 41.5 -21.5c20.667 0 34.667 7.16699 42 21.5zM1035 73.499
c7.33301 14.333 11 38.166 11 71.499v130c0 32 -3.83301 55 -11.5 69c-7.6748 14 -21.5078 21 -41.5 21c-20 0 -33.833 -7 -41.5 -21s-11.5 -37 -11.5 -69v-130c0 -33.333 3.83301 -57.166 11.5 -71.499s21.5 -21.5 41.5 -21.5c20.6748 0 34.6748 7.16699 42 21.5z" />
    <glyph glyph-name="guilsinglleft" unicode="&#x2039;" horiz-adv-x="295" 
d="M25 264l195 198v-83l-113 -115l113 -115v-83z" />
    <glyph glyph-name="guilsinglright" unicode="&#x203a;" horiz-adv-x="308" 
d="M75 149l113 115l-113 115v83l195 -198l-195 -198v83z" />
    <glyph glyph-name="Euro" unicode="&#x20ac;" horiz-adv-x="542" 
d="M145.5 49c-31.667 39.333 -47.5 91.668 -47.5 157.001v49h-60v57h60v72h-60v56h60v52c0 62 16.167 112.167 48.5 150.5s80.833 57.5 145.5 57.5c53.334 0 95.667 -14.167 127 -42.5c31.333 -28.334 49 -67.167 53 -116.5h-65c-6 30 -18.167 53 -36.5 69
s-44.833 24 -79.5 24c-43.334 0 -74.167 -13.333 -92.5 -40s-27.5 -60.334 -27.5 -101.001v-53h207l-11 -56h-196v-72h182l-10 -57h-172v-51c0 -44.667 9.5 -80.5 28.5 -107.5s50.167 -40.5 93.5 -40.5c64 0 102 31 114 93h69c-4.66699 -50 -23.5 -89 -56.5 -117
s-75.5 -42 -127.5 -42c-66 0 -114.833 19.667 -146.5 59z" />
    <glyph glyph-name="trademark" unicode="&#x2122;" horiz-adv-x="819" 
d="M155 637h-115v53h288v-53h-114v-341h-59v341zM397 690h54l117 -264h3l114 264h54v-394h-56v261h-2l-91 -203h-43l-92 203h-2v-261h-56v394z" />
    <glyph glyph-name=".null" horiz-adv-x="0" 
 />
    <glyph glyph-name="NULL" horiz-adv-x="600" 
 />
    <glyph glyph-name="t_t" horiz-adv-x="626" 
d="M467 453l0.000976562 -323.998c0 -46 22 -69 66 -69h40v-60h-51c-38.667 0 -68.834 11.167 -90.5 33.5c-21.667 22.333 -32.5 53.166 -32.5 92.499v327h-217v-324c0 -46 21.667 -69 65 -69h40v-60h-51c-38.667 0 -68.834 11.167 -90.501 33.5s-32.5 53.166 -32.5 92.499
v327h-79v54h79v116l69 32v-148h217v116l68 32v-148h115v-54h-115z" />
    <glyph glyph-name="zero.dnom" horiz-adv-x="327" 
d="M71 31c-19.333 24.667 -29 61.667 -29 111v139c0 47.333 10.167 83 30.5 107s50.5 36 90.5 36c42 0 72.833 -11.833 92.5 -35.5s29.5 -59.5 29.5 -107.5v-139c0 -49.333 -9.83301 -86.333 -29.5 -111s-50.5 -37 -92.5 -37s-72.667 12.333 -92 37zM205 73.5
c7.33301 14.333 11 38.166 11 71.499v130c0 32 -3.83301 55 -11.5 69s-21.5 21 -41.5 21s-33.833 -7 -41.5 -21s-11.5 -37 -11.5 -69v-130c0 -33.333 3.83301 -57.166 11.5 -71.499s21.5 -21.5 41.5 -21.5c20.667 0 34.667 7.16699 42 21.5z" />
    <glyph glyph-name="one.dnom" horiz-adv-x="222" 
d="M99 344l-73 -55v74l73 54h69v-417h-69v344z" />
    <glyph glyph-name="two.dnom" horiz-adv-x="321" 
d="M45 52l139 188c8.66699 12 15 23 19 33s6 20.667 6 32v8c0 17.333 -4.5 30.833 -13.5 40.5s-21.167 14.5 -36.5 14.5c-16 0 -28.5 -5 -37.5 -15s-13.5 -25 -13.5 -45v-11h-66v15c0 34 10.833 61.167 32.5 81.5s50.5 30.5 86.5 30.5c35.333 0 63.666 -10 84.999 -30
s32 -46 32 -78v-11c0 -18 -3.16699 -34.667 -9.5 -50c-6.33301 -15.334 -16.166 -31.667 -29.499 -49l-107 -147h147v-59h-234v52z" />
    <glyph glyph-name="three.dnom" horiz-adv-x="319" 
d="M70 22.5c-20.667 19 -31 45.167 -31 78.5v11h60v-10c0 -16 5 -28.833 15 -38.5s23.667 -14.5 41 -14.5c18 0 32 5.5 42 16.5s15 26.167 15 45.5v13c0 19.333 -5.5 34.833 -16.5 46.5s-25.833 17.5 -44.5 17.5h-21v56h21c16.667 0 29.834 5.16699 39.5 15.5
c9.66699 10.334 14.5 24.167 14.5 41.499v10c0 18 -4.5 32 -13.5 42s-21.5 15 -37.5 15c-16.667 0 -29.5 -4.66699 -38.5 -14s-13.5 -22 -13.5 -38v-10h-61v11c0 32.667 10.333 58.667 31 78s48.667 29 84 29s63.333 -9.83301 84 -29.5s31 -45.5 31 -77.5v-10
c0 -20 -4.66699 -37.333 -14 -52s-21.666 -26 -36.999 -34c18 -7.33301 32 -19.666 42 -36.999s15 -37.666 15 -60.999v-12c0 -34.667 -11.167 -62.834 -33.5 -84.501s-51.5 -32.5 -87.5 -32.5c-36.667 0 -65.334 9.5 -86.001 28.5z" />
    <glyph glyph-name="four.dnom" horiz-adv-x="332" 
d="M301 75h-39v-75h-69v75h-157v59l117 283h68l-116 -283h88v98h69v-98h39v-59z" />
    <glyph glyph-name="zero.numr" horiz-adv-x="327" 
d="M71 304c-19.333 24.667 -29 61.667 -29 111v139c0 47.333 10.167 83 30.5 107s50.5 36 90.5 36c42 0 72.833 -11.833 92.5 -35.5s29.5 -59.5 29.5 -107.5v-139c0 -49.333 -9.83301 -86.333 -29.5 -111s-50.5 -37 -92.5 -37s-72.667 12.333 -92 37zM205 346.5
c7.33301 14.334 11 38.166 11 71.499v130c0 32 -3.83301 55 -11.5 69s-21.5 21 -41.5 21s-33.833 -7 -41.5 -21s-11.5 -37 -11.5 -69v-130c0 -33.333 3.83301 -57.166 11.5 -71.499s21.5 -21.5 41.5 -21.5c20.667 0 34.667 7.16699 42 21.5z" />
    <glyph glyph-name="one.numr" horiz-adv-x="222" 
d="M99 617l-73 -55v74l73 54h69v-417h-69v344z" />
    <glyph glyph-name="two.numr" horiz-adv-x="321" 
d="M45 325l139 187.999c8.66699 12 15 23 19 33s6 20.667 6 32v8c0 17.333 -4.5 30.833 -13.5 40.5s-21.167 14.5 -36.5 14.5c-16 0 -28.5 -5 -37.5 -15s-13.5 -25 -13.5 -45v-11h-66v15c0 34 10.833 61.167 32.5 81.5s50.5 30.5 86.5 30.5c35.333 0 63.666 -10 84.999 -30
s32 -46 32 -78v-11c0 -18 -3.16699 -34.667 -9.5 -50s-16.166 -31.666 -29.499 -48.999l-107 -147h147v-59h-234v52z" />
    <glyph glyph-name="three.numr" horiz-adv-x="319" 
d="M70 295.5c-20.667 19 -31 45.166 -31 78.499v11h60v-10c0 -16 5 -28.833 15 -38.5s23.667 -14.5 41 -14.5c18 0 32 5.5 42 16.5s15 26.167 15 45.5v13c0 19.333 -5.5 34.833 -16.5 46.5s-25.833 17.5 -44.5 17.5h-21v56h21c16.667 0 29.834 5.16699 39.5 15.5
c9.66699 10.333 14.5 24.166 14.5 41.499v10c0 18 -4.5 32 -13.5 42s-21.5 15 -37.5 15c-16.667 0 -29.5 -4.66699 -38.5 -14s-13.5 -22 -13.5 -38v-10h-61v11c0 32.667 10.333 58.667 31 78s48.667 29 84 29s63.333 -9.83301 84 -29.5s31 -45.5 31 -77.5v-10
c0 -20 -4.66699 -37.333 -14 -52s-21.666 -26 -36.999 -34c18 -7.33301 32 -19.666 42 -36.999s15 -37.666 15 -60.999v-12c0 -34.667 -11.167 -62.834 -33.5 -84.5c-22.333 -21.667 -51.5 -32.5 -87.5 -32.5c-36.667 0 -65.334 9.5 -86.001 28.5z" />
    <glyph glyph-name="four.numr" horiz-adv-x="332" 
d="M301 348h-39v-75h-69v75h-157v59l117 283h68l-116 -283h88v98h69v-98h39v-59z" />
    <glyph glyph-name="zero.sups" horiz-adv-x="327" 
d="M71 461c-19.333 24.667 -29 61.667 -29 111v139c0 47.333 10.167 83 30.5 107s50.5 36 90.5 36c42 0 72.833 -11.833 92.5 -35.5s29.5 -59.5 29.5 -107.5v-139c0 -49.334 -9.83301 -86.334 -29.5 -111c-19.667 -24.667 -50.5 -37 -92.5 -37s-72.667 12.333 -92 37z
M205 503.5c7.33301 14.333 11 38.166 11 71.499v130c0 32 -3.83301 55 -11.5 69s-21.5 21 -41.5 21s-33.833 -7 -41.5 -21s-11.5 -37 -11.5 -69v-130c0 -33.334 3.83301 -57.167 11.5 -71.499c7.66699 -14.333 21.5 -21.5 41.5 -21.5c20.667 0 34.667 7.16699 42 21.5z" />
    <glyph glyph-name="one.sups" horiz-adv-x="222" 
d="M99 774l-73 -55v74l73 54h69v-417h-69v344z" />
    <glyph glyph-name="two.sups" horiz-adv-x="321" 
d="M45 482l139 188c8.66699 12 15 23 19 33s6 20.667 6 32v8c0 17.333 -4.5 30.833 -13.5 40.5s-21.167 14.5 -36.5 14.5c-16 0 -28.5 -5 -37.5 -15s-13.5 -25 -13.5 -45v-11h-66v15c0 34 10.833 61.167 32.5 81.5s50.5 30.5 86.5 30.5c35.333 0 63.666 -10 84.999 -30
s32 -46 32 -78v-11c0 -18 -3.16699 -34.667 -9.5 -50c-6.33301 -15.3359 -16.166 -31.6689 -29.499 -49l-107 -147h147v-59h-234v52z" />
    <glyph glyph-name="three.sups" horiz-adv-x="319" 
d="M70 452.5c-20.667 19 -31 45.167 -31 78.5v11h60v-10c0 -16 5 -28.833 15 -38.5s23.667 -14.5 41 -14.5c18 0 32 5.5 42 16.5s15 26.167 15 45.5v13c0 19.333 -5.5 34.833 -16.5 46.5s-25.833 17.5 -44.5 17.5h-21v56h21c16.667 0 29.834 5.16699 39.5 15.5
c9.66699 10.333 14.5 24.166 14.5 41.499v10c0 18 -4.5 32 -13.5 42s-21.5 15 -37.5 15c-16.667 0 -29.5 -4.66699 -38.5 -14s-13.5 -22 -13.5 -38v-10h-61v11c0 32.667 10.333 58.667 31 78s48.667 29 84 29s63.333 -9.83301 84 -29.5s31 -45.5 31 -77.5v-10
c0 -20 -4.66699 -37.333 -14 -52s-21.666 -26 -36.999 -34c18 -7.33789 32 -19.6709 42 -36.999c10 -17.3359 15 -37.6689 15 -61v-12c0 -34.667 -11.167 -62.834 -33.5 -84.5c-22.333 -21.667 -51.5 -32.5 -87.5 -32.5c-36.667 0 -65.334 9.5 -86.001 28.5z" />
    <glyph glyph-name="four.sups" horiz-adv-x="332" 
d="M301 505h-39v-75h-69v75h-157v59l117 283h68l-116 -283h88v98h69v-98h39v-59z" />
    <glyph glyph-name="glyph249" horiz-adv-x="176" 
d="M248 690h63l-373 -690h-63z" />
    </font>
</defs>
</svg>
