<?xml version="1.0" standalone="no"?>
<!DOCTYPE svg PUBLIC "-//W3C//DTD SVG 1.1//EN" "http://www.w3.org/Graphics/SVG/1.1/DTD/svg11.dtd" >
<svg xmlns="http://www.w3.org/2000/svg" xmlns:xlink="http://www.w3.org/1999/xlink" version="1.1">
<metadata>
Created by FontForge 20170924 at Thu Nov  2 21:40:55 2017
 By www-data
Copyright (c) Datto, Inc. All rights reserved.
</metadata>
<defs>
<font id="D-DIN-Bold" horiz-adv-x="600" >
  <font-face 
    font-family="D-DIN"
    font-weight="700"
    font-stretch="normal"
    units-per-em="1000"
    panose-1="2 11 8 4 3 2 2 3 2 4"
    ascent="831"
    descent="-169"
    x-height="520"
    cap-height="690"
    bbox="-161 -168 1213 898"
    underline-thickness="50"
    underline-position="-100"
    unicode-range="U+000D-FB02"
  />
<missing-glyph 
d="M101 690h397v-690h-397v690zM464 34v622h-329v-622h329z" />
    <glyph glyph-name="fi" unicode="fi" horiz-adv-x="575" 
d="M226.5 593.5c-8.33301 -8.33301 -12.5 -20.833 -12.5 -37.5v-36h93v-87h-93v-433h-123v433h-55v87h55v31c0 44 12.5 78.167 37.5 102.5s60.5 36.5 106.5 36.5h72v-84h-41c-18 0 -31.167 -4.16699 -39.5 -12.5zM393 520h123v-520h-123v520zM391 690h126v-99h-126v99z" />
    <glyph glyph-name="fl" unicode="fl" horiz-adv-x="621" 
d="M226.5 593.5c-8.33301 -8.33301 -12.5 -20.833 -12.5 -37.5v-36h93v-87h-93v-433h-123v433h-55v87h55v31c0 44 12.5 78.167 37.5 102.5s60.5 36.5 106.5 36.5h72v-84h-41c-18 0 -31.167 -4.16699 -39.5 -12.5zM429.5 41c-27.667 27.333 -41.5 66.333 -41.5 117v532h124
v-524c0 -21.333 3.83301 -36.5 11.5 -45.5s20.167 -13.5 37.5 -13.5h42v-107h-57c-50 0 -88.833 13.667 -116.5 41z" />
    <glyph glyph-name=".notdef" 
d="M101 690h397v-690h-397v690zM464 34v622h-329v-622h329z" />
    <glyph glyph-name="nonmarkingreturn" unicode="&#xd;" horiz-adv-x="229" 
 />
    <glyph glyph-name="space" unicode=" " horiz-adv-x="229" 
 />
    <glyph glyph-name="exclam" unicode="!" horiz-adv-x="249" 
d="M54 690h141l-24 -460h-93zM59 130h131v-130h-131v130z" />
    <glyph glyph-name="quotedbl" unicode="&#x22;" horiz-adv-x="381" 
d="M38 690h117v-298h-117v298zM227 690h116v-298h-116v298z" />
    <glyph glyph-name="numbersign" unicode="#" horiz-adv-x="539" 
d="M431 406l-14 -110h79v-92h-91l-27 -204h-104l27 204h-106l-27 -204h-103l27 204h-74v92h86l15 110h-76v92h88l25 192h103l-25 -192h106l25 192h103l-25 -192h78v-92h-90zM328 406h-106l-15 -110h106z" />
    <glyph glyph-name="dollar" unicode="$" horiz-adv-x="502" 
d="M411 96c-27.333 -32 -65.335 -52.666 -114.002 -61.999v-94h-103v92c-50 7.33301 -89.333 27.833 -118 61.5s-44.334 78.167 -47.001 133.5h115c4 -33.333 13.833 -56.833 29.5 -70.5s39.167 -20.5 70.5 -20.5c57.333 0 86 26 86 78c0 23.333 -5.66699 41.166 -17 53.499
s-29.666 20.833 -54.999 25.5l-49 9c-56 10 -97.5 29.167 -124.5 57.5s-40.5 67.5 -40.5 117.5c0 49.333 13.333 90 40 122s63.334 52.667 110.001 62v79h103v-80c43.334 -9.33301 77.667 -29.5 103 -60.5c25.334 -31 39.667 -71.167 43 -120.5h-118
c-2.66699 28.667 -10.667 49.5 -24 62.5s-33.333 19.5 -60 19.5c-24.667 0 -43.667 -6.5 -57 -19.5s-20 -31.5 -20 -55.5c0 -21.333 6.33301 -38 19 -50s33.334 -20.667 62.001 -26l57 -11c50 -9.33301 87.5 -28.333 112.5 -57s37.5 -68 37.5 -118
c0 -53.333 -13.667 -96 -41 -128zM131.998 690.001z" />
    <glyph glyph-name="percent" unicode="%" horiz-adv-x="904" 
d="M72.5 301.5c-21.667 25 -32.499 62.167 -32.499 111.5v142c0 46.668 11.5 81.835 34.5 105.5c23 23.667 56.5 35.5 100.5 35.5c46 0 79.833 -11.667 101.5 -35c21.667 -23.335 32.5 -58.668 32.5 -106v-142c0 -49.333 -10.833 -86.5 -32.5 -111.5
s-55.5 -37.5 -101.5 -37.5c-46.667 0 -80.834 12.5 -102.501 37.5zM595.001 695h99l-386 -695h-98zM201.001 366c3.33301 8.66699 5 26.001 5 52.001v124c0 25.333 -1.83301 42.666 -5.5 51.999s-12.167 14 -25.5 14s-22 -4.66699 -26 -14c-4 -9.33398 -6 -26.667 -6 -52
v-124c0 -24.667 1.83301 -41.667 5.5 -51s12.5 -14 26.5 -14s22.667 4.33301 26 13zM626.501 31.501c-21.667 25 -32.499 62.165 -32.499 111.498v142c0 46.667 11.5 81.834 34.5 105.501s56.5 35.5 100.5 35.5c46 0 79.833 -11.667 101.5 -35s32.5 -58.666 32.5 -105.999
v-142c0 -49.333 -10.833 -86.5 -32.5 -111.5s-55.5 -37.5 -101.5 -37.5c-46.667 0 -80.834 12.5 -102.501 37.5zM755.002 95.999c3.33301 8.66699 5 25.999 5 51.999v124c0 25.334 -1.83301 42.667 -5.5 52s-12.167 14 -25.5 14s-22 -4.66699 -26 -14s-6 -26.666 -6 -51.999
v-124c0 -24.667 1.83301 -41.667 5.5 -51s12.5 -14 26.5 -14s22.667 4.33301 26 13z" />
    <glyph glyph-name="ampersand" unicode="&#x26;" horiz-adv-x="598" 
d="M530 107l21.9971 -0.000976562v-107h-48c-23.333 0 -42 4.33301 -56 13s-30 25 -48 49l-4 5c-24.667 -28 -50.334 -48 -77 -60c-26.667 -12 -57 -18 -91 -18c-58 0 -103 16.667 -135 50s-48 77.333 -48 132c0 38 9.33301 73.333 28 106s50.334 67.334 95.001 104.001
c-27.333 38 -46.333 68.167 -57 90.5s-16 45.5 -16 69.5c0 30.667 7.33301 58.167 22 82.5s34.834 43.333 60.501 57s54.5 20.5 86.5 20.5c32.667 0 61.834 -7 87.501 -21s45.5 -33.167 59.5 -57.5c14 -24.3359 21 -51.1689 21 -80.5c0 -30.667 -8.33301 -59.334 -25 -86
c-16.667 -26.667 -46 -57.667 -88 -93l87 -117l69 86l78 -69l-83 -104l19 -26c13.333 -17.333 27 -26 41 -26zM225.997 588.999c-10 -10.667 -15 -25 -15 -43c0 -12.667 2.83301 -25.334 8.5 -38.001s17.834 -32 36.5 -58c24.667 20.667 41.167 37.834 49.5 51.501
s12.5 28.5 12.5 44.5c0 17.333 -5 31.5 -15 42.5s-22.667 16.5 -38 16.5c-16 0 -29 -5.33301 -39 -16zM283.997 108.499c14 8.33301 30.334 23.5 49.001 45.5l-101 138c-25.334 -22 -43.167 -41.667 -53.5 -59s-15.5 -35 -15.5 -53c0 -26 6.66699 -46.5 20 -61.5
s31.666 -22.5 54.999 -22.5c16.667 0 32 4.16699 46 12.5z" />
    <glyph glyph-name="quotesingle" unicode="'" horiz-adv-x="193" 
d="M38 690h117v-298h-117v298z" />
    <glyph glyph-name="parenleft" unicode="(" horiz-adv-x="310" 
d="M45 328c0 150 43.333 287.334 130 412.001h90c-32 -63.334 -56.167 -130.167 -72.5 -200.5s-24.5 -140.833 -24.5 -211.5c0 -70 8.33301 -140.333 25 -211s40.667 -137.667 72 -201h-91c-86 127.333 -129 264.666 -129 411.999z" />
    <glyph glyph-name="parenright" unicode=")" horiz-adv-x="310" 
d="M117 117c16.667 70.667 25 141 25 211c0 70.667 -8.16699 141.167 -24.5 211.5s-40.5 137.166 -72.5 200.499h90c86.667 -124.667 130 -262 130 -412c0 -147.333 -43 -284.666 -129 -411.999h-91c31.333 63.333 55.333 130.333 72 201z" />
    <glyph glyph-name="asterisk" unicode="*" horiz-adv-x="377" 
d="M154 486l-78 -45l-31 54l80 46l-80 46l31 54l78 -44v93h69v-94l78 45l30 -54l-80 -46l81 -46l-32 -54l-77 44v-96h-69v97z" />
    <glyph glyph-name="plus" unicode="+" horiz-adv-x="529" 
d="M208 219h-160v114h160v160h114v-160h159v-114h-159v-160h-114v160z" />
    <glyph glyph-name="comma" unicode="," horiz-adv-x="193" 
d="M38 137h117v-200l-117 -99v299z" />
    <glyph glyph-name="hyphen" unicode="-" horiz-adv-x="365" 
d="M45 403h275v-115h-275v115z" />
    <glyph glyph-name="period" unicode="." horiz-adv-x="215" 
d="M38 142h139v-142h-139v142z" />
    <glyph glyph-name="slash" unicode="/" horiz-adv-x="405" 
d="M256 695h104l-212 -705h-103z" />
    <glyph glyph-name="zero" unicode="0" horiz-adv-x="512" 
d="M100.5 48.5c-33.667 39.667 -50.5 99.167 -50.5 178.5v244c0 75.333 17.5 132.5 52.5 171.5s86.167 58.5 153.5 58.5c70 0 121.833 -19.333 155.5 -58s50.5 -96 50.5 -172v-244c0 -78.667 -16.833 -138 -50.5 -178s-85.5 -60 -155.5 -60s-121.833 19.833 -155.5 59.5z
M315.5 133.5c10.333 20.333 15.499 55.166 15.499 104.499v214c0 49.333 -5.16699 84 -15.5 104s-30.166 30 -59.499 30s-49 -10 -59 -30s-15 -54.667 -15 -104v-214c0 -49.333 5.16699 -84.166 15.5 -104.499s29.833 -30.5 58.5 -30.5c29.334 0 49.167 10.167 59.5 30.5z
" />
    <glyph glyph-name="one" unicode="1" horiz-adv-x="348" 
d="M152 545l-116 -84v142l116 87h131v-690h-131v545z" />
    <glyph glyph-name="two" unicode="2" horiz-adv-x="493" 
d="M48 104l229 297c25.333 34 38 66.333 38 97v14c0 24 -6.5 43 -19.5 57s-30.5 21 -52.5 21s-39.333 -7.33301 -52 -22s-19 -35 -19 -61v-16h-127v24c0 36 8.16699 68 24.5 96s39.833 50 70.5 66s66.667 24 108 24c40 0 75.167 -8.33301 105.5 -25
c30.334 -16.667 53.667 -39 70 -67s24.5 -59 24.5 -93v-17c0 -30 -5.33301 -57.667 -16 -83s-26.334 -51.333 -47 -78l-172 -223h235v-115h-400v104z" />
    <glyph glyph-name="three" unicode="3" horiz-adv-x="504" 
d="M98.5 35.5c-35.667 31 -53.5029 74.834 -53.5029 131.501v21h122v-15c0 -24 6.83301 -42.167 20.5 -54.5s33.5 -18.5 59.5 -18.5c24.667 0 44.167 8 58.5 24s21.5 37.667 21.5 65v18c0 30 -7.66699 53 -23 69s-37.666 24 -66.999 24h-35v111h34
c25.333 0 45 7.33301 59 22s21 35 21 61v15c0 25.333 -6.5 45.166 -19.5 59.499s-30.833 21.5 -53.5 21.5c-23.333 0 -41.333 -6.5 -54 -19.5s-19 -30.833 -19 -53.5v-17h-120v17c0 58 17.5 103.167 52.5 135.5s83.5 48.5 145.5 48.5c60.667 0 108.334 -16.5 143.001 -49.5
s52 -77.167 52 -132.5v-15c0 -30 -7 -56.833 -21 -80.5s-34 -42.5 -60 -56.5c30 -12.667 52.833 -32.667 68.5 -60s23.5 -60.333 23.5 -99v-19c0 -40.667 -8.66699 -76 -26 -106s-41.666 -53.167 -72.999 -69.5s-66.666 -24.5 -105.999 -24.5
c-64.667 0 -114.834 15.5 -150.501 46.5z" />
    <glyph glyph-name="four" unicode="4" horiz-adv-x="521" 
d="M486 110h-56v-110h-131v110h-264v115l197 465h131l-197 -465h133v162h131v-162h56v-115z" />
    <glyph glyph-name="five" unicode="5" horiz-adv-x="497" 
d="M102.5 34c-35 30 -52.5 71.666 -52.5 124.999v15h120v-6c0 -21.333 6.66699 -38 20 -50s31.666 -18 54.999 -18c25.334 0 44.167 8.16699 56.5 24.5s18.5 40.166 18.5 71.499v52c0 32.667 -6.16699 56.834 -18.5 72.501s-31.5 23.5 -57.5 23.5
c-33.333 0 -57 -15.667 -71 -47h-113v393h373v-112h-260v-156c26.667 21.333 59.334 32 98.001 32c58 0 101.833 -17.167 131.5 -51.5s44.5 -83.5 44.5 -147.5v-65c0 -63.333 -17.833 -112.666 -53.5 -147.999s-85.167 -53 -148.5 -53c-60 0 -107.5 15 -142.5 45z" />
    <glyph glyph-name="six" unicode="6" horiz-adv-x="516" 
d="M101.5 43c-37.667 36 -56.501 85.999 -56.501 149.999v31c0 27.333 3.83301 53.333 11.5 78s18.834 51.667 33.501 81l158 307h138l-143 -279c14.667 6.66699 31.334 10 50.001 10c54 0 97.167 -17.167 129.5 -51.5s48.5 -81.166 48.5 -140.499v-32
c0 -65.333 -19.5 -116.333 -58.5 -153s-90.5 -55 -154.5 -55c-66.667 0 -118.834 18 -156.501 54zM317.999 123.999c14.667 16 22 38.332 22 66.999v31c0 28.667 -7.33301 50.834 -22 66.501s-34.667 23.5 -60 23.5s-45.166 -7.83301 -59.499 -23.5s-21.5 -37.5 -21.5 -65.5
v-33c0 -28 7.16699 -50 21.5 -66s34.166 -24 59.499 -24s45.333 8 60 24z" />
    <glyph glyph-name="seven" unicode="7" horiz-adv-x="457" 
d="M427 690v-114l-210 -576h-132l214 576h-269v114h397z" />
    <glyph glyph-name="eight" unicode="8" horiz-adv-x="525" 
d="M153 13.5c-32 16.333 -57.1689 39.834 -75.502 70.501s-27.5 66 -27.5 106v23c0 31.333 7.33301 60.166 22 86.499c14.667 26.334 35.334 47.167 62.001 62.5c-21.333 12.667 -38.5 30.5 -51.5 53.5s-19.5 49.5 -19.5 79.5v18c0 34 8.16699 65.333 24.5 94
s39.5 51.5 69.5 68.5s65.333 25.5 106 25.5s76.167 -8.5 106.5 -25.5s53.5 -39.833 69.5 -68.5s24 -60 24 -94v-18c0 -29.333 -6.66699 -55.666 -20 -78.999s-30.333 -41.333 -51 -54c26.667 -16 47.167 -37.167 61.5 -63.5s21.5 -54.5 21.5 -84.5v-23
c0 -40.667 -9.16699 -76.334 -27.5 -107.001s-43.666 -54.167 -75.999 -70.5s-68.833 -24.5 -109.5 -24.5s-77 8.16699 -109 24.5zM316.998 436.501c13.333 15 20 34.167 20 57.5v19c0 22 -6.83301 40.333 -20.5 55s-31.5 22 -53.5 22s-39.833 -7.33301 -53.5 -22
s-20.5 -33 -20.5 -55v-19c0 -24 6.66699 -43.333 20 -58s31.333 -22 54 -22s40.667 7.5 54 22.5zM325.498 125.001c15.667 16.667 23.5 39 23.5 67v24c0 26.667 -7.83301 48.334 -23.5 65.001s-36.5 25 -62.5 25c-25.333 0 -46 -8.33301 -62 -25s-24 -38.334 -24 -65.001
v-24c0 -27.333 7.66699 -49.5 23 -66.5s36.333 -25.5 63 -25.5c26 0 46.833 8.33301 62.5 25z" />
    <glyph glyph-name="nine" unicode="9" horiz-adv-x="516" 
d="M273 279c-14.667 -6.66699 -31.334 -9.99902 -50.001 -9.99902c-54 0 -97.167 17.167 -129.5 51.5s-48.5 81.166 -48.5 140.499v32c0 65.333 19.5 116.333 58.5 153s90.5 55 154.5 55c66.667 0 118.834 -18 156.501 -54s56.5 -86 56.5 -150v-31
c0 -26.667 -3.83301 -52.5 -11.5 -77.5c-7.66797 -25 -18.835 -52.167 -33.5 -81.5l-158 -307h-138zM317.5 401.501c14.333 15.667 21.499 37.501 21.499 65.501v33c0 28 -7.16699 50 -21.5 66s-34.166 24 -59.499 24s-45.333 -8 -60 -24s-22 -38.333 -22 -67v-31
c0 -28.668 7.33301 -50.835 22 -66.501c14.667 -15.667 34.667 -23.5 60 -23.5c25.334 0 45.167 7.83301 59.5 23.5z" />
    <glyph glyph-name="colon" unicode=":" horiz-adv-x="215" 
d="M38 142h139v-142h-139v142zM38 480h139v-142h-139v142zM108 520z" />
    <glyph glyph-name="semicolon" unicode=";" horiz-adv-x="215" 
d="M38 480h139v-142h-139v142zM58 137h117v-200l-117 -99v299zM104 520z" />
    <glyph glyph-name="less" unicode="&#x3c;" horiz-adv-x="529" 
d="M48 223v103l432 169v-115l-278 -106l278 -105v-116z" />
    <glyph glyph-name="equal" unicode="=" horiz-adv-x="529" 
d="M48 437h432v-113h-432v113zM48 228h432v-113h-432v113z" />
    <glyph glyph-name="greater" unicode="&#x3e;" horiz-adv-x="529" 
d="M48 169l278 105l-278 106v115l432 -169v-103l-432 -170v116z" />
    <glyph glyph-name="question" unicode="?" horiz-adv-x="451" 
d="M157 244c0 26 2.50098 46.668 7.50098 62.001s16.167 34.333 33.5 57l55 71c13.334 17.334 22.667 32.167 27.999 44.499c5.33301 12.333 8 25.5 8 39.5c0 21.333 -5.83301 38.166 -17.5 50.499s-29.5 18.5 -53.5 18.5s-41.5 -6.5 -52.5 -19.5
s-16.833 -32.833 -17.5 -59.5h-121c1.33301 62.668 18.666 110.335 51.999 143c33.333 32.667 81 49 143 49c38.667 0 72.834 -7.66699 102.501 -23s52.5 -36.5 68.5 -63.5s24 -57.5 24 -91.5c0 -24 -4 -46.167 -12 -66.5s-21 -42.166 -39 -65.499l-58 -78
c-10.6689 -14 -17.8359 -26.167 -21.5 -36.5c-3.66699 -10.333 -5.5 -23.833 -5.5 -40.5v-42h-124v51zM153.001 126.001h131v-126h-131v126z" />
    <glyph glyph-name="at" unicode="@" horiz-adv-x="873" 
d="M233 -88c-59.333 32 -105.5 76.832 -138.5 134.499s-49.5 124.167 -49.5 199.5v70c0 75.333 16.5 141.833 49.5 199.5s79.167 102.5 138.5 134.5s127.333 48 204 48c75.333 0 142.666 -15.833 201.999 -47.5s105.666 -76.167 138.999 -133.5s50 -122.666 50 -195.999v-70
c0 -64 -16 -112.833 -48 -146.5s-72.333 -50.5 -121 -50.5c-30 0 -55.667 5.66699 -77 17c-21.335 11.333 -37.668 27.333 -48.999 48c-21.333 -43.333 -64 -65 -128 -65c-100.667 0 -151 60.333 -151 181v88c0 57.333 11.833 102 35.5 134s59.834 48 108.501 48
c24 0 45.167 -4.66699 63.5 -14s31.833 -21.666 40.5 -36.999v40h109v-285c0 -21.334 4.5 -37.167 13.5 -47.5s20.833 -15.5 35.5 -15.5c18.667 0 32.667 8.16699 42 24.5s14 42.833 14 79.5v70c0 56.667 -11.167 105.834 -33.5 147.501s-54.333 73.834 -96 96.501
s-91.5 34 -149.5 34c-87.333 0 -155.833 -25 -205.5 -75s-74.5 -118.333 -74.5 -205v-71c0 -56.667 11.167 -106.334 33.5 -149.001s54.5 -75.667 96.5 -99s92 -35 150 -35c40 0 76 4.16699 108 12.5s65 21.166 99 38.499l44 -85c-38.667 -22.667 -78 -39.334 -118 -50.001
s-84.333 -16 -133 -16c-76.667 0 -144.667 16 -204 48zM500 237.999v84c0 59.333 -22 89 -66 89c-23.333 0 -40.5 -7.83301 -51.5 -23.5s-16.5 -37.167 -16.5 -64.5v-82c0 -30 5.33301 -53 16 -69s28 -24 52 -24c44 0 66 30 66 90z" />
    <glyph glyph-name="A" unicode="A" horiz-adv-x="606" 
d="M421 134h-237l-42 -134h-138l245 690h107l246 -690h-139zM386 243l-84 265l-83 -265h167z" />
    <glyph glyph-name="B" unicode="B" horiz-adv-x="598" 
d="M523.5 294c16.333 -26.667 24.499 -58.666 24.499 -95.999c0 -62.667 -18.667 -111.334 -56 -146.001s-89.333 -52 -156 -52h-277v690h266c67.333 0 119.833 -16.667 157.5 -50c37.667 -33.334 56.5 -80.667 56.5 -142c0 -30.667 -7.66699 -58.834 -23 -84.5
c-15.333 -25.667 -36.666 -45.167 -63.999 -58.5c31.334 -14 55.167 -34.333 71.5 -61zM189.999 576.001v-168h125c30 0 52.833 7.16699 68.5 21.5s23.5 34.5 23.5 60.5c0 28 -7.83301 49.333 -23.5 64s-38.5 22 -68.5 22h-125zM393.499 138.501
c15.667 16.333 23.5 39.168 23.5 68.501c0 27.333 -7.83301 48.666 -23.5 63.999s-39.167 23 -70.5 23h-133v-180h133c31.333 0 54.833 8.16699 70.5 24.5z" />
    <glyph glyph-name="C" unicode="C" 
d="M50 267l-0.000976562 158c0 183.333 84.333 275 253 275c75.333 0 135.333 -20 180 -60s67 -96.333 67 -169v-7h-131v6c0 35.333 -10.167 63.333 -30.5 84s-49.166 31 -86.499 31c-42 0 -72.5 -13 -91.5 -39s-28.5 -68.667 -28.5 -128v-149
c0 -56 9.83301 -96.667 29.5 -122s50.5 -38 92.5 -38c37.333 0 65.833 10 85.5 30s29.5 47.333 29.5 82v8h129v-7c0 -74 -22 -130.833 -66 -170.5s-104.333 -59.5 -181 -59.5c-167.333 0 -251 91.667 -251 275z" />
    <glyph glyph-name="D" unicode="D" 
d="M59 690h242.999c76.667 0 137.167 -21.333 181.5 -64s66.5 -112.667 66.5 -210v-141c0 -97.333 -22.667 -167.5 -68 -210.5s-106.666 -64.5 -183.999 -64.5h-239v690zM300.999 114c39.333 0 68.833 13 88.5 39s29.5 67 29.5 123v133c0 58.667 -9.66699 101.167 -29 127.5
s-49 39.5 -89 39.5h-111v-462h111z" />
    <glyph glyph-name="E" unicode="E" horiz-adv-x="532" 
d="M190 576v-171h262v-114h-262v-177h307v-114h-438v690h438v-114h-307z" />
    <glyph glyph-name="F" unicode="F" horiz-adv-x="527" 
d="M190 576v-177h263v-114h-263v-285h-131v690h438v-114h-307z" />
    <glyph glyph-name="G" unicode="G" 
d="M50 267l-0.000976562 158c0 183.333 84.333 275 253 275c75.333 0 135.333 -19.833 180 -59.5s67 -94.5 67 -164.5v-7h-131v7c0 31.333 -10.167 57.333 -30.5 78s-49.166 31 -86.499 31c-42 0 -72.5 -13 -91.5 -39s-28.5 -68.667 -28.5 -128v-149
c0 -56.667 10.167 -97.5 30.5 -122.5s51.833 -37.5 94.5 -37.5c40 0 69.167 10.333 87.5 31s27.5 52 27.5 94v33h-122v108h250v-118c0 -176.667 -83 -265 -249 -265c-167.333 0 -251 91.667 -251 275z" />
    <glyph glyph-name="H" unicode="H" horiz-adv-x="609" 
d="M550 690v-690h-131v292h-229v-292h-131v690h131v-284h229v284h131z" />
    <glyph glyph-name="I" unicode="I" horiz-adv-x="261" 
d="M65 690h131v-690h-131v690z" />
    <glyph glyph-name="J" unicode="J" horiz-adv-x="331" 
d="M24 115h54c20.667 0 35.167 4.83301 43.5 14.5s12.5 26.5 12.5 50.5v510h132v-532c0 -50.667 -13.833 -89.667 -41.5 -117s-66.5 -41 -116.5 -41h-84v115z" />
    <glyph glyph-name="K" unicode="K" horiz-adv-x="610" 
d="M281 307l-91 -114v-193h-131v690h131v-322l239 322h157l-221 -277l239 -413h-152z" />
    <glyph glyph-name="L" unicode="L" horiz-adv-x="516" 
d="M59 690h131v-576h302v-114h-433v690z" />
    <glyph glyph-name="M" unicode="M" horiz-adv-x="732" 
d="M673 690v-690h-131v409l-131 -276h-88l-133 279v-412h-131v690h131l177 -381l175 381h131z" />
    <glyph glyph-name="N" unicode="N" horiz-adv-x="634" 
d="M575 690v-690h-131l-254 431v-431h-131v690h131l254 -432v432h131z" />
    <glyph glyph-name="O" unicode="O" 
d="M50 267l-0.000976562 158c0 183.333 83.667 275 251 275c76.667 0 137.334 -21.5 182.001 -64.5s67 -113.167 67 -210.5v-158c0 -97.333 -22.833 -167.5 -68.5 -210.5s-107.167 -64.5 -184.5 -64.5c-164.667 0 -247 91.667 -247 275zM389.999 147.5
c19.333 25.667 29 66.167 29 121.5v149c0 58.667 -9.66699 101.167 -29 127.5s-49 39.5 -89 39.5c-42 0 -72.333 -12.833 -91 -38.5s-28 -68.5 -28 -128.5v-149c0 -56.667 9.33301 -97.5 28 -122.5s49 -37.5 91 -37.5c40 0 69.667 12.833 89 38.5z" />
    <glyph glyph-name="P" unicode="P" horiz-adv-x="567" 
d="M482.5 632c40.333 -38.667 60.5 -91.667 60.5 -159c0 -64 -20.167 -115.167 -60.5 -153.5s-95.5 -57.5 -165.5 -57.5h-127v-262h-131v690h258c70 0 125.167 -19.333 165.5 -58zM385 402c18 16.667 27 40.333 27 71c0 33.333 -8.83301 58.833 -26.5 76.5
s-42.5 26.5 -74.5 26.5h-121v-199h121c31.333 0 56 8.33301 74 25z" />
    <glyph glyph-name="Q" unicode="Q" 
d="M456 35l72.999 -134l-100 -55l-81 149c-16 -2 -33 -3 -51 -3c-164.667 0 -247 91.667 -247 275v158c0 183.333 83.667 275 251 275c76.667 0 137.334 -21.5 182.001 -64.5s67 -113.167 67 -210.5v-158c0 -110.667 -31.333 -188 -94 -232zM209.999 146.5
c18.667 -25 49 -37.5 91 -37.5c40 0 69.667 12.833 89 38.5s29 66.167 29 121.5v149c0 58.667 -9.66699 101.167 -29 127.5s-49 39.5 -89 39.5c-42 0 -72.333 -12.833 -91 -38.5s-28 -68.5 -28 -128.5v-149c0 -56.667 9.33301 -97.5 28 -122.5z" />
    <glyph glyph-name="R" unicode="R" 
d="M288 280l-98 -0.000976562v-280h-131v690h262c67.333 0 121 -18.5 161 -55.5s60 -87.167 60 -150.5c0 -45.333 -10.5 -83.666 -31.5 -114.999s-51.167 -54.333 -90.5 -69l150 -300h-151zM190 388.999h124c30.667 0 54.5 8.16699 71.5 24.5s25.5 39.833 25.5 70.5
c0 28 -8.66699 50.333 -26 67s-41 25 -71 25h-124v-187z" />
    <glyph glyph-name="S" unicode="S" horiz-adv-x="548" 
d="M94 49.5c-41.333 37 -64.3369 90.5029 -69.0039 160.503h124c4.66699 -38 16.834 -64.833 36.501 -80.5s48.834 -23.5 87.501 -23.5c74 0 111 30.333 111 91c0 27.333 -7.33301 48.166 -22 62.499c-14.667 14.334 -38 24.167 -70 29.499l-65 11
c-124.667 20.667 -187 84.667 -187 192c0 64 21.167 114.667 63.5 152s98.5 56 168.5 56c68 0 121.833 -18 161.5 -54s62.167 -86.667 67.5 -152h-126c-2 33.333 -11.667 57.666 -29 72.999s-42.666 23 -75.999 23c-34 0 -59.667 -7.83301 -77 -23.5s-26 -37.167 -26 -64.5
c0 -24 7.66699 -43 23 -57s39.333 -24 72 -30l73 -13c118.667 -21.333 178 -86 178 -194c0 -69.333 -22.167 -122.333 -66.5 -159s-104.166 -55 -179.499 -55c-74 0 -131.667 18.5 -173 55.5z" />
    <glyph glyph-name="T" unicode="T" horiz-adv-x="496" 
d="M490 576h-176v-576h-132v576h-176v114h484v-114z" />
    <glyph glyph-name="U" unicode="U" horiz-adv-x="614" 
d="M179.5 23.5c-37.667 19.667 -67.166 47.334 -88.499 83.001s-32 76.167 -32 121.5v462h131v-458c0 -39.333 10.333 -69.833 31 -91.5s49 -32.5 85 -32.5s64.5 10.833 85.5 32.5s31.5 52.167 31.5 91.5v458h132v-462c0 -45.333 -10.833 -85.833 -32.5 -121.5
s-51.334 -63.334 -89 -83.001c-37.667 -19.667 -80.167 -29.5 -127.5 -29.5c-46.667 0 -88.834 9.83301 -126.501 29.5z" />
    <glyph glyph-name="V" unicode="V" horiz-adv-x="554" 
d="M4 690h137l136 -477l136 477h137l-221 -690h-105z" />
    <glyph glyph-name="W" unicode="W" horiz-adv-x="833" 
d="M829 690l-165 -690h-120l-126 511l-125 -511h-119l-170 690h131l104 -487l101 487h163l106 -487l98 487h122z" />
    <glyph glyph-name="X" unicode="X" horiz-adv-x="593" 
d="M219 359l-199 331h155l122 -224l120 224h149l-195 -326l218 -364h-156l-139 255l-141 -255h-149z" />
    <glyph glyph-name="Y" unicode="Y" horiz-adv-x="541" 
d="M336 284v-284h-131v283l-201 407h143l123 -280l123 280h144z" />
    <glyph glyph-name="Z" unicode="Z" horiz-adv-x="505" 
d="M478 115v-115h-448v115l297 461h-291v114h433v-114l-296 -461h305z" />
    <glyph glyph-name="bracketleft" unicode="[" horiz-adv-x="315" 
d="M59 741h211v-115h-87v-595h87v-115h-211v825z" />
    <glyph glyph-name="backslash" unicode="\" horiz-adv-x="405" 
d="M45 695h103l212 -705h-103z" />
    <glyph glyph-name="bracketright" unicode="]" horiz-adv-x="316" 
d="M45 31h88v592h-88v114h212v-821h-212v115z" />
    <glyph glyph-name="asciicircum" unicode="^" horiz-adv-x="529" 
d="M212 695h104l170 -424h-103l-119 304l-119 -304h-103z" />
    <glyph glyph-name="underscore" unicode="_" horiz-adv-x="500" 
d="M0 -40h500v-81h-500v81z" />
    <glyph glyph-name="grave" unicode="`" horiz-adv-x="500" 
d="M127 721h137l108 -133h-107z" />
    <glyph glyph-name="a" unicode="a" horiz-adv-x="501" 
d="M394 479.5c35.333 -31 52.9971 -76.834 52.9971 -137.501v-342h-120v45c-17.333 -18 -35.166 -31 -53.499 -39s-41.5 -12 -69.5 -12c-53.333 0 -94.666 14.333 -123.999 43s-44 68.334 -44 119.001c0 46.667 15.667 83.5 47 110.5s75 40.5 131 40.5h110v41
c0 55.333 -27.667 83 -83 83c-23.333 0 -41.833 -5.83301 -55.5 -17.5s-20.5 -27.167 -20.5 -46.5v-3h-115v4c0 48.667 17.333 87.167 52 115.5s81.334 42.5 140.001 42.5c66 0 116.667 -15.5 152 -46.5zM302.497 116.499c14.333 15 21.5 37.833 21.5 68.5v37h-90
c-52 0 -78 -21 -78 -63c0 -43.333 25.333 -65 76 -65c32.667 0 56.167 7.5 70.5 22.5z" />
    <glyph glyph-name="b" unicode="b" horiz-adv-x="515" 
d="M175 48l-0.000976562 -48h-121v690h124v-223c28.667 39.333 67.334 59 116.001 59c52 0 94.333 -17.667 127 -53s49 -89 49 -161v-103c0 -72 -16.333 -125.833 -49 -161.5s-73.667 -53.5 -123 -53.5c-52.667 0 -93.667 18 -123 54zM345.999 213v94
c0 38.667 -7.5 66.5 -22.5 83.5s-35.167 25.5 -60.5 25.5c-26.667 0 -47.667 -9.33301 -63 -28s-23 -45.667 -23 -81v-94c0 -35.333 7.83301 -62.333 23.5 -81s37.5 -28 65.5 -28c53.333 0 80 36.333 80 109z" />
    <glyph glyph-name="c" unicode="c" horiz-adv-x="505" 
d="M101.5 47c-37.667 35.333 -56.5 90.333 -56.5 165v97c0 74 18.833 128.667 56.5 164s89.167 53 154.5 53c64 0 114 -16.333 150 -49s54 -78 54 -136v-10h-118v6c0 24.667 -7.5 44 -22.5 58s-35.5 21 -61.5 21c-60 0 -90 -36.333 -90 -109v-94
c0 -39.333 7.83301 -67.333 23.5 -84s37.834 -25 66.5 -25c26 0 46.5 6.66699 61.5 20s22.5 32 22.5 56v6h118v-7c0 -57.333 -18 -102.5 -54 -135.5s-86 -49.5 -150 -49.5c-65.333 0 -116.833 17.667 -154.5 53z" />
    <glyph glyph-name="d" unicode="d" horiz-adv-x="514" 
d="M93.5 47.5c-32.333 35.667 -48.5 89.5 -48.5 161.5v103c0 72 15.833 125.667 47.5 161s72.834 53 123.501 53c52 0 92.333 -19.667 121 -59v223h123v-690h-121v48c-28.667 -36 -69.334 -54 -122.001 -54c-50 0 -91.167 17.833 -123.5 53.5zM314 132
c15.333 18.667 23 45.667 23 81v94c0 35.333 -7.5 62.333 -22.5 81s-35.833 28 -62.5 28c-55.333 0 -83 -36.333 -83 -109v-94c0 -72.667 26.667 -109 80 -109c28 0 49.667 9.33301 65 28z" />
    <glyph glyph-name="e" unicode="e" horiz-adv-x="517" 
d="M168 223v-14c0 -38.667 8.66699 -66.334 26 -83.001s42 -25 74 -25c24.667 0 44 5.16699 58 15.5s21.667 24.833 23 43.5l1 3h118v-5c0 -49.333 -18.333 -89 -55 -119s-86.667 -45 -150 -45c-66.667 0 -119.667 19.167 -159 57.5s-59 97.5 -59 177.5v63
c0 78 19 136.5 57 175.5s90.333 58.5 157 58.5c65.334 0 117.167 -19.667 155.5 -59s57.5 -97.666 57.5 -174.999v-69h-304zM191.5 395c-15.667 -16.667 -23.5 -44.667 -23.5 -84v-3h180v13c0 66 -29.667 99 -89 99c-29.333 0 -51.833 -8.33301 -67.5 -25z" />
    <glyph glyph-name="f" unicode="f" horiz-adv-x="334" 
d="M226.5 593.5c-8.33301 -8.33301 -12.5 -20.833 -12.5 -37.5v-36h93v-87h-93v-433h-123v433h-55v87h55v31c0 44 12.5 78.167 37.5 102.5s60.5 36.5 106.5 36.5h72v-84h-41c-18 0 -31.167 -4.16699 -39.5 -12.5z" />
    <glyph glyph-name="g" unicode="g" horiz-adv-x="514" 
d="M107.5 -124c-33.667 26.667 -52.1641 63.667 -55.4971 111h119c3.33301 -16 12.166 -28.833 26.499 -38.5s33.166 -14.5 56.499 -14.5c56.667 0 85 32 85 96v64c-28.667 -36 -69.334 -54 -122.001 -54c-50 0 -91.167 17.833 -123.5 53.5s-48.5 89.5 -48.5 161.5v57
c0 72 15.833 125.667 47.5 161s72.834 53 123.501 53c52 0 92.333 -19.667 121 -59v53h123v-482c0 -62 -18.667 -111.167 -56 -147.5s-89 -54.5 -155 -54.5c-60.667 0 -107.834 13.333 -141.501 40zM314.003 178c15.333 18.667 23 45.667 23 81v48
c0 35.333 -7.5 62.333 -22.5 81s-35.833 28 -62.5 28c-55.333 0 -83 -36.333 -83 -109v-48c0 -72.667 26.667 -109 80 -109c28 0 49.667 9.33301 65 28z" />
    <glyph glyph-name="h" unicode="h" horiz-adv-x="520" 
d="M54 690h124v-216c15.333 17.333 33.333 30.333 54 39s42.667 13 66 13c53.334 0 94.667 -16.5 124 -49.5s44 -78.833 44 -137.5v-339h-124v324c0 30 -7.33301 52.833 -22 68.5s-34.334 23.5 -59 23.5c-24 0 -43.833 -8 -59.5 -24s-23.5 -38.667 -23.5 -68v-324h-124v690z
" />
    <glyph glyph-name="i" unicode="i" horiz-adv-x="241" 
d="M59 520h123v-520h-123v520zM57 690h126v-99h-126v99z" />
    <glyph glyph-name="j" unicode="j" horiz-adv-x="241" 
d="M56 690h126v-99h-126v99zM-33 -49h42c17.333 0 30 4.66699 38 14s12 24.333 12 45v510h123v-518c0 -50.667 -13.667 -89.667 -41 -117s-66 -41 -116 -41h-58v107z" />
    <glyph glyph-name="k" unicode="k" horiz-adv-x="520" 
d="M233 218l-55 -64v-154h-124v690h124v-386l168 216h147l-178 -207l191 -313h-150z" />
    <glyph glyph-name="l" unicode="l" horiz-adv-x="287" 
d="M95.5 41c-27.667 27.333 -41.5 66.333 -41.5 117v532h124v-524c0 -21.333 3.83301 -36.5 11.5 -45.5s20.167 -13.5 37.5 -13.5h42v-107h-57c-50 0 -88.833 13.667 -116.5 41z" />
    <glyph glyph-name="m" unicode="m" horiz-adv-x="808" 
d="M54 520h121v-47c15.333 16.667 33.833 29.667 55.5 39s44.167 14 67.5 14c58 0 102.333 -21.667 133 -65c40 43.333 89 65 147 65c55.333 0 98.5 -16.667 129.5 -50s46.5 -79 46.5 -137v-339h-124v324c0 30 -7.5 52.833 -22.5 68.5s-34.5 23.5 -58.5 23.5
c-25.334 0 -45.501 -8.16699 -60.5 -24.5c-15 -16.333 -22.5 -37.833 -22.5 -64.5v-327h-124v324c0 30 -7.5 52.833 -22.5 68.5s-34.5 23.5 -58.5 23.5c-24.667 0 -44.667 -8 -60 -24s-23 -38.667 -23 -68v-324h-124v520z" />
    <glyph glyph-name="n" unicode="n" horiz-adv-x="520" 
d="M54 520h121v-47c15.333 17.333 33.833 30.5 55.5 39.5s44.167 13.5 67.5 13.5c53.334 0 94.667 -16.667 124 -50s44 -79 44 -137v-339h-124v324c0 29.333 -7.33301 52 -22 68s-34.334 24 -59 24c-24 0 -43.833 -8 -59.5 -24s-23.5 -38.667 -23.5 -68v-324h-124v520z" />
    <glyph glyph-name="o" unicode="o" horiz-adv-x="510" 
d="M101.5 47c-37.667 35.333 -56.5 90.333 -56.5 165v97c0 74 18.833 128.667 56.5 164s89.167 53 154.5 53c64.667 0 115.667 -17.667 153 -53s56 -90 56 -164v-97c0 -74.667 -18.667 -129.667 -56 -165s-88.333 -53 -153 -53c-65.333 0 -116.833 17.667 -154.5 53z
M342 213v94c0 72.667 -28.667 109 -86 109c-58.667 0 -88 -36.333 -88 -109v-94c0 -72.667 29.333 -109 88 -109c57.333 0 86 36.333 86 109z" />
    <glyph glyph-name="p" unicode="p" horiz-adv-x="515" 
d="M54 520h120.999v-53c30.667 39.333 70.334 59 119.001 59c52 0 94.333 -17.667 127 -53s49 -89 49 -161v-103c0 -72 -16.333 -125.833 -49 -161.5s-73.667 -53.5 -123 -53.5c-51.333 0 -91.333 17.667 -120 53v-203h-124v676zM345.999 213v94
c0 38.667 -7.5 66.5 -22.5 83.5s-35.167 25.5 -60.5 25.5c-26.667 0 -47.667 -9.33301 -63 -28s-23 -45.667 -23 -81v-94c0 -35.333 7.83301 -62.333 23.5 -81s37.5 -28 65.5 -28c53.333 0 80 36.333 80 109z" />
    <glyph glyph-name="q" unicode="q" horiz-adv-x="514" 
d="M337 47c-28.667 -35.333 -68.667 -53 -120 -53c-50 0 -91.167 17.833 -123.5 53.5s-48.5 89.5 -48.5 161.5v103c0 72 16.167 125.667 48.5 161s74.5 53 126.5 53c50 0 89.667 -19.667 119 -59v53h121v-676h-123v203zM314 132c15.333 18.667 23 45.667 23 81v94
c0 35.333 -7.5 62.333 -22.5 81s-35.833 28 -62.5 28c-55.333 0 -83 -36.333 -83 -109v-94c0 -72.667 26.667 -109 80 -109c28 0 49.667 9.33301 65 28z" />
    <glyph glyph-name="r" unicode="r" horiz-adv-x="358" 
d="M54 520h121v-54c12.667 22 29.667 38.333 51 49s45.333 16 72 16c15.333 0 29.333 -1.33301 42 -4v-116c-23.333 7.33301 -44 11 -62 11c-30 0 -54.167 -9.5 -72.5 -28.5s-27.5 -46.167 -27.5 -81.5v-312h-124v520z" />
    <glyph glyph-name="s" unicode="s" horiz-adv-x="474" 
d="M90 37.5c-36 29 -54.001 67.833 -54.001 116.5v4h116v-2c0 -19.333 7.83301 -34.5 23.5 -45.5s36.167 -16.5 61.5 -16.5c27.334 0 48.667 4.83301 64 14.5s23 24.167 23 43.5c0 16 -5.66699 28.333 -17 37s-30.333 15 -57 19l-55 9c-52 8.66699 -90.333 24.667 -115 48
c-24.667 23.334 -37 56.667 -37 100c0 49.333 18.167 88.5 54.5 117.5s82.833 43.5 139.5 43.5c38.667 0 72.834 -6.5 102.501 -19.5s52.667 -31 69 -54s24.5 -48.833 24.5 -77.5v-6h-115v3c0 18 -7.16699 32 -21.5 42s-34.166 15 -59.499 15c-25.334 0 -44.667 -5 -58 -15
s-20 -23.333 -20 -40c0 -15.333 5.16699 -27.333 15.5 -36s27.166 -14.667 50.499 -18l61 -9c52 -7.33301 91 -23.333 117 -48s39 -58.667 39 -102c0 -53.333 -19.333 -94.5 -58 -123.5s-89 -43.5 -151 -43.5c-59.333 0 -107 14.5 -143 43.5z" />
    <glyph glyph-name="t" unicode="t" horiz-adv-x="352" 
d="M220 433v-275c0 -35.333 17 -53 51 -53h39v-105h-59c-47.333 0 -84.833 13.5 -112.5 40.5s-41.5 63.5 -41.5 109.5v283h-72v87h72v102l123 43v-145h100v-87h-100z" />
    <glyph glyph-name="u" unicode="u" horiz-adv-x="520" 
d="M54 210v310h124v-304c0 -36.667 5.5 -64.5 16.5 -83.5s32.833 -28.5 65.5 -28.5s54.5 9 65.5 27s16.5 46.333 16.5 85v304h124v-310c0 -72 -17 -126 -51 -162s-85.667 -54 -155 -54c-137.333 0 -206 72 -206 216z" />
    <glyph glyph-name="v" unicode="v" horiz-adv-x="481" 
d="M9 520h131l101 -330l100 330h131l-181 -520h-102z" />
    <glyph glyph-name="w" unicode="w" horiz-adv-x="736" 
d="M9 520h131l81 -330l100 330h93l100 -330l81 330h132l-153 -520h-105l-102 337l-101 -337h-105z" />
    <glyph glyph-name="x" unicode="x" horiz-adv-x="459" 
d="M321 0l-96 164l-86 -164h-130l156 268l-147 252h130l86 -148l77 148h130l-149 -248l158 -272h-129z" />
    <glyph glyph-name="y" unicode="y" horiz-adv-x="482" 
d="M473 520l-197 -565c-13.333 -38 -32.5 -65.667 -57.5 -83s-58.167 -26 -99.5 -26h-43v111h39c20 0 34.833 3.5 44.5 10.5s17.5 20.167 23.5 39.5l2 7l-176 506h131l102 -327l104 327h127z" />
    <glyph glyph-name="z" unicode="z" horiz-adv-x="455" 
d="M410 416l-230 -312h230v-104h-365v104l230 312h-230v104h365v-104z" />
    <glyph glyph-name="braceleft" unicode="{" horiz-adv-x="360" 
d="M153 -52.5c-21.333 21 -32 51.5 -32 91.5v158c0 28 -5.66699 48.333 -17 61s-31 19 -59 19v106c28 0 47.667 6.33301 59 19s17 33 17 61v155c0 39.333 10.667 69.5 32 90.5s52 31.5 92 31.5h70v-100h-35c-28 0 -42 -14.667 -42 -44v-139
c0 -38 -5.16699 -66.5 -15.5 -85.5s-28.833 -32.833 -55.5 -41.5c26.667 -9.33301 45.167 -23.333 55.5 -42s15.5 -47 15.5 -85v-143c0 -29.333 14 -44 42 -44h35v-100h-70c-40 0 -70.667 10.5 -92 31.5z" />
    <glyph glyph-name="bar" unicode="|" horiz-adv-x="295" 
d="M90 740h115v-824h-115v824z" />
    <glyph glyph-name="braceright" unicode="}" horiz-adv-x="360" 
d="M45 16h35.001c28.667 0 43 14.667 43 44v143c0 38 5.16699 66.333 15.5 85s28.833 32.667 55.5 42c-26.667 8.66699 -45.167 22.5 -55.5 41.5c-10.334 19 -15.501 47.5 -15.501 85.5v139c0 29.333 -14.333 44 -43 44h-35v100h71c40 0 70.5 -10.5 91.5 -31.5
s31.5 -51.167 31.5 -90.5v-155c0 -28 5.83301 -48.333 17.5 -61s31.167 -19 58.5 -19v-106c-27.333 0 -46.833 -6.33301 -58.5 -19s-17.5 -33 -17.5 -61v-158c0 -40 -10.5 -70.5 -31.5 -91.5s-51.5 -31.5 -91.5 -31.5h-71v100z" />
    <glyph glyph-name="asciitilde" unicode="~" horiz-adv-x="529" 
d="M299.5 203.5c-14.333 5.66699 -30.501 13.833 -48.501 24.499c-16 8.66699 -28.333 14.834 -37 18.501s-17.667 5.5 -27 5.5c-14 0 -26.167 -4.33301 -36.5 -13s-20.833 -23 -31.5 -43l-80 49c16 35.333 36.333 62.333 61 81s52 28 82 28c17.333 0 33 -2.66699 47 -8
s30.333 -13.333 49 -24c14.667 -8 26.667 -14 36 -18s19 -6 29 -6c14.667 0 27.167 4.33301 37.5 13s20.5 23 30.5 43l80 -49c-15.333 -35.333 -35.5 -62.5 -60.5 -81.5s-52.833 -28.5 -83.5 -28.5c-17.333 0 -33.166 2.83301 -47.499 8.5z" />
    <glyph glyph-name="uni00A0" unicode="&#xa0;" horiz-adv-x="229" 
 />
    <glyph glyph-name="exclamdown" unicode="&#xa1;" horiz-adv-x="249" 
d="M58 520h133v-131h-133v131zM78 290h93l24 -446h-141z" />
    <glyph glyph-name="cent" unicode="&#xa2;" horiz-adv-x="547" 
d="M342 331v6.00391c0 24.667 -7.5 44 -22.5 58s-35.5 21 -61.5 21c-60 0 -90 -36.333 -90 -109v-94c0 -39.333 7.83301 -67.333 23.5 -84s37.834 -25 66.5 -25c26 0 46.5 6.66699 61.5 20s22.5 32 22.5 56v6h118v-7c0 -48.667 -13.333 -88.834 -40 -120.501
s-64 -51.834 -112 -60.501v-98h-59v94c-63.333 1.33301 -113.166 19.666 -149.499 54.999s-54.5 89.666 -54.5 162.999v97c0 72.667 18.167 126.667 54.5 162s86.166 53.666 149.499 54.999v109h59v-113c48.667 -8.66699 86.167 -28.667 112.5 -60
s39.5 -71.666 39.5 -120.999v-10h-118z" />
    <glyph glyph-name="sterling" unicode="&#xa3;" horiz-adv-x="466" 
d="M187 113l254 0.000976562v-113h-398v108c16 7.33301 27.333 18 34 32s10 34.333 10 61v75h-62v114h62v122c0 60 15.667 106.333 47 139s76 49 134 49c53.333 0 95.5 -14.333 126.5 -43s46.5 -69.667 46.5 -123h-122c0 17.333 -4.33301 30.833 -13 40.5
s-20.667 14.5 -36 14.5c-16.667 0 -29.5 -5.5 -38.5 -16.5s-13.5 -26.167 -13.5 -45.5v-137h130v-114h-130v-62c0 -44.667 -10.333 -78.334 -31 -101.001z" />
    <glyph glyph-name="currency" unicode="&#xa4;" horiz-adv-x="595" 
d="M402 140c-31.333 -18.667 -66.333 -28 -105 -28s-73.667 9.33301 -105 28l-65 -65l-73 73l66 66c-17.333 29.333 -26 63.333 -26 102c0 36 9 70 27 102l-67 67l73 73l66 -66c32 18 66.667 27 104 27s72 -9 104 -27l67 66l72 -73l-66 -67c18 -32 27 -66 27 -102
c0 -38 -8.66699 -72.333 -26 -103l66 -66l-73 -73zM371 240.5c19.333 20.333 29 45.5 29 75.5s-9.66699 55 -29 75s-44 30 -74 30c-29.333 0 -53.666 -10 -72.999 -30s-29 -45 -29 -75s9.66699 -55.167 29 -75.5s43.666 -30.5 72.999 -30.5c30 0 54.667 10.167 74 30.5z" />
    <glyph glyph-name="yen" unicode="&#xa5;" horiz-adv-x="497" 
d="M183 117h-129v88h129v55h-129v88h108l-155 342h135l109 -277l105 277h134l-155 -342h108v-88h-129v-55h129v-88h-129v-117h-131v117z" />
    <glyph glyph-name="brokenbar" unicode="&#xa6;" horiz-adv-x="295" 
d="M90 740h115v-352h-115v352zM90 270h115v-354h-115v354z" />
    <glyph glyph-name="section" unicode="&#xa7;" horiz-adv-x="511" 
d="M119 -123c-30.667 30 -46 72.332 -46 126.999h113c0 -46.667 21.333 -70 64 -70c20.667 0 36.334 5.33301 47.001 16s16 25 16 43c0 24 -7.5 42.667 -22.5 56s-43.167 25.666 -84.5 36.999c-50 14 -87 36.5 -111 67.5s-36 71.5 -36 121.5
c0 34.667 7.66699 65.334 23 92.001s36.666 47.334 63.999 62.001c-23.333 13.334 -40 30.667 -50 51.999c-10 21.334 -15 46.334 -15 75c0 30 7.33301 57.167 22 81.5s35.334 43.5 62.001 57.5s57.667 21 93 21c58 0 101.833 -15.333 131.5 -46s44.5 -72.334 44.5 -125.001
h-112c0 46 -20.667 69 -62 69c-18.667 0 -33.334 -5.33301 -44.001 -16s-16 -25 -16 -43c0 -23.335 7.5 -41.168 22.5 -53.499c15 -12.333 42.5 -24.166 82.5 -35.499c50 -14 87 -36.5 111 -67.5s36 -71.5 36 -121.5c0 -34.667 -8 -65.667 -24 -93s-37.333 -47.333 -64 -60
c25.333 -14.667 43 -32.5 53 -53.5s15 -47.833 15 -80.5c0 -46 -16.333 -83.833 -49 -113.5s-76.334 -44.5 -131 -44.5c-58 0 -102.333 15 -133 45zM312 211.499c13.333 15.667 20.001 37.167 20.001 64.5s-6.66699 48.833 -20 64.5s-32 23.5 -56 23.5
c-24.667 0 -43.834 -7.66699 -57.501 -23s-20.5 -37 -20.5 -65s6.83301 -49.667 20.5 -65s32.834 -23 57.5 -23c24 0 42.667 7.83301 56 23.5zM158.001 706.999z" />
    <glyph glyph-name="dieresis" unicode="&#xa8;" horiz-adv-x="500" 
d="M100 703h107v-116h-107v116zM292 703h107v-116h-107v116z" />
    <glyph glyph-name="copyright" unicode="&#xa9;" horiz-adv-x="784" 
d="M211.5 35c-51.667 29.333 -91.5 70.5 -119.5 123.5s-42 114.167 -42 183.5c0 70 14 131.5 42 184.5s67.833 94 119.5 123s111.834 43.5 180.501 43.5s128.834 -14.667 180.501 -44s91.5 -70.5 119.5 -123.5s42 -114.167 42 -183.5s-14 -130.5 -42 -183.5
s-67.833 -94.167 -119.5 -123.5s-111.834 -44 -180.501 -44s-128.834 14.667 -180.501 44zM583.5 141.5c46.333 49 69.5 115.833 69.5 200.5s-23.167 151.667 -69.5 201s-110.166 74 -191.499 74s-145.166 -24.667 -191.499 -74s-69.5 -116.333 -69.5 -201
s23.167 -151.5 69.5 -200.5s110.166 -73.5 191.499 -73.5s145.166 24.5 191.499 73.5zM282 186.5c-27.333 25.667 -41.001 65.832 -41.001 120.499v70c0 54 13.667 94 41 120c27.334 26 64.667 39 112 39c46.667 0 83.167 -12 109.5 -36s39.5 -57 39.5 -99v-7h-86v4
c0 18 -5.5 32.167 -16.5 42.5s-25.833 15.5 -44.5 15.5c-44 0 -66 -26.667 -66 -80v-68c0 -29.333 5.66699 -50 17 -62c11.334 -12 27.667 -18 49 -18c19.333 0 34.333 4.83301 45 14.5s16 23.5 16 41.5v4h86v-5c0 -41.333 -13.333 -74.166 -40 -98.499
s-63 -36.5 -109 -36.5c-47.333 0 -84.666 12.833 -111.999 38.5z" />
    <glyph glyph-name="ordfeminine" unicode="&#xaa;" horiz-adv-x="353" 
d="M266 719.5c22.667 -19 34 -47.499 34 -85.499v-204h-86v25c-11.333 -10.667 -22.333 -18.167 -33 -22.5s-24 -6.5 -40 -6.5c-32.667 0 -58.334 9.16699 -77.001 27.5s-28 42.833 -28 73.5c0 28 10 50.333 30 67s47.667 25 83 25h62v20c0 27.333 -14.667 41 -44 41
c-12 0 -21.5 -2.83301 -28.5 -8.5s-10.5 -13.167 -10.5 -22.5v-2h-83v2c0 31.333 11 55.666 33 72.999s52 26 90 26c42.667 0 75.334 -9.5 98.001 -28.5zM199.5 510.001c7.66699 7.33301 11.5 18.667 11.5 34v15h-48c-27.333 0 -41 -9.66699 -41 -29
c0 -9.33301 3.33301 -16.833 10 -22.5s16.667 -8.5 30 -8.5c17.333 0 29.833 3.66699 37.5 11zM166 847.002z" />
    <glyph glyph-name="guillemotleft" unicode="&#xab;" horiz-adv-x="525" 
d="M18 264l226 227v-131l-95 -96l95 -96v-131zM244 264l227 227v-131l-96 -96l96 -96v-131z" />
    <glyph glyph-name="logicalnot" unicode="&#xac;" horiz-adv-x="529" 
d="M355 254h-305v111h428v-245h-123v134z" />
    <glyph glyph-name="uni00AD" unicode="&#xad;" horiz-adv-x="365" 
d="M45 403h275v-115h-275v115z" />
    <glyph glyph-name="registered" unicode="&#xae;" horiz-adv-x="495" 
d="M150.5 333c-28.333 16.667 -50.667 39.666 -67 68.999s-24.5 62 -24.5 98s8.16699 68.5 24.5 97.5s38.833 51.833 67.5 68.5s60.667 25 96 25c36 0 68.333 -8.33301 97 -25s51.167 -39.667 67.5 -69c16.333 -29.334 24.5 -61.667 24.5 -96.999
c0 -36 -8.16699 -68.667 -24.5 -98s-38.833 -52.333 -67.5 -69s-61 -25 -97 -25s-68.167 8.33301 -96.5 25zM352.499 390.499c27 28.333 40.5 64.833 40.5 109.5s-13.667 81 -41 109s-62.333 42 -105 42s-77.667 -14 -105 -42s-41 -64.333 -41 -109
s13.667 -81.167 41 -109.5s62.333 -42.5 105 -42.5c43.333 0 78.5 14.167 105.5 42.5zM169.999 606.999h88c24.667 0 43.667 -5.66699 57 -17c13.333 -11.3359 20 -27.6689 20 -49c0 -28 -12.333 -48 -37 -60l42 -86h-56l-37 78h-25v-78h-52v212zM254.999 516.999
c18.667 0 28 7.66699 28 23s-9.33301 23 -28 23h-33v-46h33z" />
    <glyph glyph-name="macron" unicode="&#xaf;" horiz-adv-x="500" 
d="M109 700h282v-110h-282v110z" />
    <glyph glyph-name="degree" unicode="&#xb0;" horiz-adv-x="394" 
d="M92 449c-28 28 -42.001 63.001 -42.001 105.001c0 27.333 6.33301 52.166 19 74.499s30.334 40 53.001 53s47.667 19.5 75 19.5s52.166 -6.5 74.499 -19.5s40 -30.667 53 -53c13 -22.334 19.5 -47.167 19.5 -74.499c0 -27.334 -6.5 -52.334 -19.5 -75
c-13 -22.667 -30.667 -40.334 -53 -53.001s-47.166 -19 -74.499 -19c-42 0 -77 14 -105 42zM246.499 502.501c13 13.6689 19.5 30.834 19.5 51.499c0 20.6689 -6.5 37.8359 -19.5 51.5c-13 13.667 -29.5 20.5 -49.5 20.5c-20.667 0 -37.334 -6.66699 -50.001 -20
c-12.667 -13.3359 -19 -30.6689 -19 -52c0 -21.335 6.33301 -38.668 19 -51.999c12.667 -13.333 29.334 -20 50.001 -20c20 0 36.5 6.83301 49.5 20.5z" />
    <glyph glyph-name="plusminus" unicode="&#xb1;" horiz-adv-x="529" 
d="M208 281h-160v114h160v160h114v-160h159v-114h-159v-160h-114v160zM48 78h433v-114h-433v114z" />
    <glyph glyph-name="uni00B2" unicode="&#xb2;" horiz-adv-x="346" 
d="M44 510l137 171c13.333 16.6689 20 32.3359 20 47v7c0 10.667 -2.66699 19.167 -8 25.5s-13 9.5 -23 9.5c-9.33398 0 -16.667 -3.33301 -22 -10s-8 -15.667 -8 -27v-9h-99v15c0 34.668 12 62.835 36 84.5c24 21.667 56.667 32.5 98 32.5c39.333 0 71 -11.333 95 -34
s36 -50 36 -82v-11c0 -18.667 -3.33301 -35.5 -10 -50.5s-16.667 -30.5 -30 -46.5l-92 -113h132v-89h-262v80z" />
    <glyph glyph-name="uni00B3" unicode="&#xb3;" horiz-adv-x="341" 
d="M71.5 452c-23 19.333 -34.5 47.3359 -34.5 84.0029v15h93v-10c0 -22 12.333 -33 37 -33c10.667 0 19.167 3.5 25.5 10.5s9.5 16.833 9.5 29.5v9c0 30 -14.333 45 -43 45h-21v85h20c12 0 21.167 3.33301 27.5 10s9.5 16 9.5 28v8c0 24.667 -10.333 37 -31 37
c-22 0 -33 -10.333 -33 -31v-11h-92v10c0 37.333 11.333 66.333 34 87s54.334 31 95.001 31c39.333 0 70.166 -10.333 92.499 -31s33.5 -48.334 33.5 -83.001v-9c0 -36 -15.333 -62.667 -46 -80c17.333 -6.66699 30.5 -18.334 39.5 -35.001s13.5 -36.334 13.5 -59.001v-11
c0 -38 -12.333 -68.333 -37 -91s-56 -34 -94 -34c-42.667 0 -75.5 9.66699 -98.5 29z" />
    <glyph glyph-name="acute" unicode="&#xb4;" horiz-adv-x="500" 
d="M235 721h137l-138 -133h-107z" />
    <glyph glyph-name="uni00B5" unicode="&#xb5;" horiz-adv-x="520" 
d="M54 520h123.998v-324c0 -29.333 7.33301 -52 22 -68s34.334 -24 59.001 -24c24 0 43.833 8 59.5 24s23.5 38.667 23.5 68v324h124v-520h-121v47c-26 -35.333 -60.667 -53 -104 -53c-23.333 0 -44.666 5.33301 -63.999 16v-166h-123v676z" />
    <glyph glyph-name="paragraph" unicode="&#xb6;" horiz-adv-x="644" 
d="M256 253c-38.667 2.66699 -72.832 13.668 -102.499 33.001s-52.834 45.166 -69.501 77.499s-25 68.5 -25 108.5c0 40.667 9.16699 77.667 27.5 111s44.5 59.5 78.5 78.5s74.333 28.5 121 28.5h269v-846h-107v746h-82v-746h-110v409z" />
    <glyph glyph-name="periodcentered" unicode="&#xb7;" horiz-adv-x="215" 
d="M38 350h139v-142h-139v142z" />
    <glyph glyph-name="cedilla" unicode="&#xb8;" horiz-adv-x="500" 
d="M225 13h98l-53 -169h-114z" />
    <glyph glyph-name="uni00B9" unicode="&#xb9;" horiz-adv-x="253" 
d="M97 737l-68 -48v110l69 50h102v-419h-103v307z" />
    <glyph glyph-name="ordmasculine" unicode="&#xba;" horiz-adv-x="355" 
d="M79 459c-24 22 -36 55.335 -36 100.001v57c0 44.668 12 77.835 36 99.5c24 21.667 57 32.5 99 32.5s74.833 -10.833 98.5 -32.5s35.5 -54.834 35.5 -99.501v-57c0 -44.667 -11.833 -78 -35.5 -100s-56.5 -33 -98.5 -33s-75 11 -99 33zM222 559.002v56
c0 35.333 -15 53 -45 53s-45 -17.667 -45 -53v-56c0 -35.333 15 -53 45 -53s45 17.667 45 53zM166 847.002z" />
    <glyph glyph-name="guillemotright" unicode="&#xbb;" horiz-adv-x="525" 
d="M54 168l96 96l-96 96v131l227 -227l-227 -227v131zM281 168l95 96l-95 96v131l226 -227l-226 -227v131z" />
    <glyph glyph-name="onequarter" unicode="&#xbc;" horiz-adv-x="804" 
d="M97 578l-68 -48v110l69 50h102v-419h-103v307zM779 57h-27v-57h-103v57h-162v89l115 273h103l-115 -273h59v88h103v-88h27v-89zM498 695h99l-386 -695h-98z" />
    <glyph glyph-name="onehalf" unicode="&#xbd;" horiz-adv-x="803" 
d="M97 578l-68 -48v110l69 50h102v-419h-103v307zM501 80l137 170.998c13.333 16.667 20 32.334 20 47.001v7c0 10.667 -2.66699 19.167 -8 25.5s-13 9.5 -23 9.5c-9.34277 0 -16.6758 -3.33301 -22 -10c-5.33301 -6.66699 -8 -15.667 -8 -27v-9h-99v15
c0 34.667 12 62.834 36 84.501s56.667 32.5 98 32.5c39.333 0 71 -11.333 95 -34s36 -50 36 -82v-11c0 -18.667 -3.33301 -35.5 -10 -50.5s-16.667 -30.5 -30 -46.5l-92 -113h132v-89h-262v80zM498 694.998h99l-386 -695h-98z" />
    <glyph glyph-name="threequarters" unicode="&#xbe;" horiz-adv-x="892" 
d="M71.5 293c-23 19.333 -34.5 47.334 -34.5 84.001v15h93v-10c0 -22 12.333 -33 37 -33c10.667 0 19.167 3.5 25.5 10.5s9.5 16.833 9.5 29.5v9c0 30 -14.333 45 -43 45h-21v85h20c12 0 21.167 3.33301 27.5 10s9.5 16 9.5 28v8c0 24.667 -10.333 37 -31 37
c-22 0 -33 -10.333 -33 -31v-11h-92v10c0 37.333 11.333 66.333 34 87s54.334 31 95.001 31c39.333 0 70.166 -10.333 92.499 -31s33.5 -48.334 33.5 -83.001v-9c0 -36 -15.333 -62.667 -46 -80c17.333 -6.66699 30.5 -18.334 39.5 -35c9 -16.667 13.5 -36.334 13.5 -59v-11
c0 -38 -12.333 -68.333 -37 -91s-56 -34 -94 -34c-42.667 0 -75.5 9.66699 -98.5 29zM867 57.001h-27v-57h-103v57h-162v89l115 273h103l-115 -273h59v88h103v-88h27v-89zM586 695.001h99l-386 -695h-98z" />
    <glyph glyph-name="questiondown" unicode="&#xbf;" horiz-adv-x="451" 
d="M167 520h130v-130h-130v130zM126.5 -143.5c-29.667 15 -52.499 35.8379 -68.499 62.5049s-24 56.667 -24 90c0 27.333 4.16699 51.666 12.5 72.999s22.833 44 43.5 68l44 51c15.333 18 25.166 33 29.499 45s6.5 28 6.5 48v29h124v-38
c0 -28.667 -2.83301 -51.334 -8.5 -68.001s-19.167 -37.334 -40.5 -62.001l-47 -55c-13.334 -16 -22.667 -30.333 -28 -43s-8 -26.334 -8 -41.001c0 -21.333 6 -38.333 18 -51s29.667 -19 53 -19c24 0 41.5 6.66699 52.5 20s16.833 33.333 17.5 60h121
c-1.33301 -62.667 -18.666 -110.334 -51.999 -143.001s-81 -49 -143 -49c-38.667 0 -72.834 7.5 -102.501 22.5z" />
    <glyph glyph-name="Agrave" unicode="&#xc0;" horiz-adv-x="606" 
d="M421 134h-237l-42 -134h-138l245 690h107l246 -690h-139zM386 243l-84 265l-83 -265h167zM144 891h137l108 -133h-107z" />
    <glyph glyph-name="Aacute" unicode="&#xc1;" horiz-adv-x="606" 
d="M421 134h-237l-42 -134h-138l245 690h107l246 -690h-139zM386 243l-84 265l-83 -265h167zM318 891h137l-138 -133h-107z" />
    <glyph glyph-name="Acircumflex" unicode="&#xc2;" horiz-adv-x="606" 
d="M421 134h-237l-42 -134h-138l245 690h107l246 -690h-139zM386 243l-84 265l-83 -265h167zM257 898h91l115 -151h-97l-63 78l-63 -78h-98z" />
    <glyph glyph-name="Atilde" unicode="&#xc3;" horiz-adv-x="606" 
d="M421 134h-237l-42 -134h-138l245 690h107l246 -690h-139zM386 243l-84 265l-83 -265h167zM161 842c15.333 15.333 28.832 26.333 40.499 33s25.167 10 40.5 10c13.333 0 25 -1.66699 35 -5c10 -3.34668 22 -8.67969 36 -16c21.334 -11.333 39.667 -17 55 -17
c13.333 0 25 2.66699 35 8s23.667 16 41 32v-91c-15.333 -15.333 -28.833 -26.333 -40.5 -33s-25.167 -10 -40.5 -10c-12.667 0 -24 1.66699 -34 5s-22 8.66602 -36 15.999c-21.333 11.333 -39.666 17 -54.999 17c-13.333 0 -25 -2.66699 -35 -8
c-10 -5.33887 -24 -15.6719 -42 -30.999v90z" />
    <glyph glyph-name="Adieresis" unicode="&#xc4;" horiz-adv-x="606" 
d="M421 134h-237l-42 -134h-138l245 690h107l246 -690h-139zM386 243l-84 265l-83 -265h167zM153 873h107v-116h-107v116zM345 873h107v-116h-107v116z" />
    <glyph glyph-name="Aring" unicode="&#xc5;" horiz-adv-x="606" 
d="M421 134l-236.999 0.000976562l-42 -134h-138l245 690c-14.667 9.33301 -26.334 21.666 -35.001 36.999s-13 32.333 -13 51c0 30 9.83301 54.833 29.5 74.5s44.167 29.5 73.5 29.5s53.833 -9.83301 73.5 -29.5s29.5 -44.5 29.5 -74.5c0 -19.333 -4.5 -36.833 -13.5 -52.5
s-21.167 -28.167 -36.5 -37.5l245 -688h-139zM271.001 813.001c-8.66699 -9.33301 -13 -21 -13 -35c0 -13.3359 4.5 -24.6689 13.5 -33.999c9 -9.33301 19.833 -14 32.5 -14c13.333 0 24.5 4.66699 33.5 14s13.5 20.666 13.5 33.999c0 14 -4.5 25.667 -13.5 35
s-20.167 14 -33.5 14s-24.333 -4.66699 -33 -14zM386.001 243.001l-84 265l-83 -265h167zM303.001 675.001z" />
    <glyph glyph-name="AE" unicode="&#xc6;" horiz-adv-x="883" 
d="M551 576v-171h252v-114h-252v-177h297v-114h-429v141h-210l-67 -141h-138l340 690h504v-114h-297zM419 250v329l-157 -329h157z" />
    <glyph glyph-name="Ccedilla" unicode="&#xc7;" 
d="M419 464l-0.000976562 6c0 35.333 -10.167 63.333 -30.5 84s-49.166 31 -86.499 31c-42 0 -72.5 -13 -91.5 -39s-28.5 -68.667 -28.5 -128v-149c0 -56 9.83301 -96.667 29.5 -122s50.5 -38 92.5 -38c37.333 0 65.833 10 85.5 30s29.5 47.333 29.5 82v8h129v-7
c0 -62.667 -15.667 -113 -47 -151s-75.333 -62.333 -132 -73l-48 -154h-114l61 149c-145.333 12.667 -218 104 -218 274v158c0 183.333 84.333 275 253 275c75.333 0 135.333 -20 180 -60s67 -96.333 67 -169v-7h-131z" />
    <glyph glyph-name="Egrave" unicode="&#xc8;" horiz-adv-x="532" 
d="M190 576v-171h262v-114h-262v-177h307v-114h-438v690h438v-114h-307zM109 891h137l108 -133h-107z" />
    <glyph glyph-name="Eacute" unicode="&#xc9;" horiz-adv-x="532" 
d="M190 576v-171h262v-114h-262v-177h307v-114h-438v690h438v-114h-307zM283 891h137l-138 -133h-107z" />
    <glyph glyph-name="Ecircumflex" unicode="&#xca;" horiz-adv-x="532" 
d="M190 576v-171h262v-114h-262v-177h307v-114h-438v690h438v-114h-307zM222 898h91l115 -151h-97l-63 78l-63 -78h-98z" />
    <glyph glyph-name="Edieresis" unicode="&#xcb;" horiz-adv-x="532" 
d="M190 576v-171h262v-114h-262v-177h307v-114h-438v690h438v-114h-307zM118 873h107v-116h-107v116zM310 873h107v-116h-107v116z" />
    <glyph glyph-name="Igrave" unicode="&#xcc;" horiz-adv-x="261" 
d="M65 690h131v-690h-131v690zM-29 891h137l108 -133h-107z" />
    <glyph glyph-name="Iacute" unicode="&#xcd;" horiz-adv-x="261" 
d="M65 690h131v-690h-131v690zM145 891h137l-138 -133h-107z" />
    <glyph glyph-name="Icircumflex" unicode="&#xce;" horiz-adv-x="261" 
d="M65 690h131v-690h-131v690zM84 898h91l115 -151h-97l-63 78l-63 -78h-98z" />
    <glyph glyph-name="Idieresis" unicode="&#xcf;" horiz-adv-x="261" 
d="M65 690h131v-690h-131v690zM-20 873h107v-116h-107v116zM172 873h107v-116h-107v116z" />
    <glyph glyph-name="Eth" unicode="&#xd0;" horiz-adv-x="632" 
d="M515.5 626c44.333 -42.667 66.499 -112.667 66.499 -210v-141c0 -97.333 -22.667 -167.5 -68 -210.5s-106.666 -64.5 -183.999 -64.5h-239v294h-64v115h64v281h243c76.667 0 137.167 -21.333 181.5 -64zM450.999 409c0 58.667 -9.66699 101.167 -29 127.5
s-49 39.5 -89 39.5h-111v-167h118v-115h-118v-180h111c39.333 0 68.833 13 88.5 39s29.5 67 29.5 123v133z" />
    <glyph glyph-name="Ntilde" unicode="&#xd1;" horiz-adv-x="634" 
d="M575 690v-690h-131l-254 431v-431h-131v690h131l254 -432v432h131zM175 842c15.333 15.333 28.832 26.333 40.499 33s25.167 10 40.5 10c13.333 0 25 -1.66699 35 -5c10 -3.34668 22 -8.67969 36 -16c21.334 -11.333 39.667 -17 55 -17c13.333 0 25 2.66699 35 8
s23.667 16 41 32v-91c-15.333 -15.333 -28.833 -26.333 -40.5 -33s-25.167 -10 -40.5 -10c-12.667 0 -24 1.66699 -34 5s-22 8.66602 -36 15.999c-21.333 11.333 -39.666 17 -54.999 17c-13.333 0 -25 -2.66699 -35 -8c-10 -5.33887 -24 -15.6719 -42 -30.999v90z" />
    <glyph glyph-name="Ograve" unicode="&#xd2;" 
d="M50 267l-0.000976562 158c0 183.333 83.667 275 251 275c76.667 0 137.334 -21.5 182.001 -64.5s67 -113.167 67 -210.5v-158c0 -97.333 -22.833 -167.5 -68.5 -210.5s-107.167 -64.5 -184.5 -64.5c-164.667 0 -247 91.667 -247 275zM389.999 147.5
c19.333 25.667 29 66.167 29 121.5v149c0 58.667 -9.66699 101.167 -29 127.5s-49 39.5 -89 39.5c-42 0 -72.333 -12.833 -91 -38.5s-28 -68.5 -28 -128.5v-149c0 -56.667 9.33301 -97.5 28 -122.5s49 -37.5 91 -37.5c40 0 69.667 12.833 89 38.5zM140.999 891h137l108 -133
h-107z" />
    <glyph glyph-name="Oacute" unicode="&#xd3;" 
d="M50 267l-0.000976562 158c0 183.333 83.667 275 251 275c76.667 0 137.334 -21.5 182.001 -64.5s67 -113.167 67 -210.5v-158c0 -97.333 -22.833 -167.5 -68.5 -210.5s-107.167 -64.5 -184.5 -64.5c-164.667 0 -247 91.667 -247 275zM389.999 147.5
c19.333 25.667 29 66.167 29 121.5v149c0 58.667 -9.66699 101.167 -29 127.5s-49 39.5 -89 39.5c-42 0 -72.333 -12.833 -91 -38.5s-28 -68.5 -28 -128.5v-149c0 -56.667 9.33301 -97.5 28 -122.5s49 -37.5 91 -37.5c40 0 69.667 12.833 89 38.5zM314.999 891h137
l-138 -133h-107z" />
    <glyph glyph-name="Ocircumflex" unicode="&#xd4;" 
d="M50 267l-0.000976562 158c0 183.333 83.667 275 251 275c76.667 0 137.334 -21.5 182.001 -64.5s67 -113.167 67 -210.5v-158c0 -97.333 -22.833 -167.5 -68.5 -210.5s-107.167 -64.5 -184.5 -64.5c-164.667 0 -247 91.667 -247 275zM389.999 147.5
c19.333 25.667 29 66.167 29 121.5v149c0 58.667 -9.66699 101.167 -29 127.5s-49 39.5 -89 39.5c-42 0 -72.333 -12.833 -91 -38.5s-28 -68.5 -28 -128.5v-149c0 -56.667 9.33301 -97.5 28 -122.5s49 -37.5 91 -37.5c40 0 69.667 12.833 89 38.5zM253.999 898h91l115 -151
h-97l-63 78l-63 -78h-98z" />
    <glyph glyph-name="Otilde" unicode="&#xd5;" 
d="M50 267l-0.000976562 158c0 183.333 83.667 275 251 275c76.667 0 137.334 -21.5 182.001 -64.5s67 -113.167 67 -210.5v-158c0 -97.333 -22.833 -167.5 -68.5 -210.5s-107.167 -64.5 -184.5 -64.5c-164.667 0 -247 91.667 -247 275zM389.999 147.5
c19.333 25.667 29 66.167 29 121.5v149c0 58.667 -9.66699 101.167 -29 127.5s-49 39.5 -89 39.5c-42 0 -72.333 -12.833 -91 -38.5s-28 -68.5 -28 -128.5v-149c0 -56.667 9.33301 -97.5 28 -122.5s49 -37.5 91 -37.5c40 0 69.667 12.833 89 38.5zM157.999 842
c15.333 15.333 28.832 26.333 40.499 33s25.167 10 40.5 10c13.333 0 25 -1.66699 35 -5c10 -3.34668 22 -8.67969 36 -16c21.334 -11.333 39.667 -17 55 -17c13.333 0 25 2.66699 35 8s23.667 16 41 32v-91c-15.333 -15.333 -28.833 -26.333 -40.5 -33
s-25.167 -10 -40.5 -10c-12.667 0 -24 1.66699 -34 5s-22 8.66602 -36 15.999c-21.333 11.333 -39.666 17 -54.999 17c-13.333 0 -25 -2.66699 -35 -8c-10 -5.33887 -24 -15.6719 -42 -30.999v90z" />
    <glyph glyph-name="Odieresis" unicode="&#xd6;" 
d="M50 267l-0.000976562 158c0 183.333 83.667 275 251 275c76.667 0 137.334 -21.5 182.001 -64.5s67 -113.167 67 -210.5v-158c0 -97.333 -22.833 -167.5 -68.5 -210.5s-107.167 -64.5 -184.5 -64.5c-164.667 0 -247 91.667 -247 275zM389.999 147.5
c19.333 25.667 29 66.167 29 121.5v149c0 58.667 -9.66699 101.167 -29 127.5s-49 39.5 -89 39.5c-42 0 -72.333 -12.833 -91 -38.5s-28 -68.5 -28 -128.5v-149c0 -56.667 9.33301 -97.5 28 -122.5s49 -37.5 91 -37.5c40 0 69.667 12.833 89 38.5zM149.999 873h107v-116
h-107v116zM341.999 873h107v-116h-107v116z" />
    <glyph glyph-name="multiply" unicode="&#xd7;" horiz-adv-x="529" 
d="M69 157l119 119l-119 120l76 76l120 -119l119 119l76 -77l-119 -119l119 -119l-76 -77l-119 120l-120 -120z" />
    <glyph glyph-name="Oslash" unicode="&#xd8;" 
d="M495 621c36.667 -45.333 55 -110.667 55 -196v-158c0 -97.333 -22.833 -167.5 -68.5 -210.5s-107.167 -64.5 -184.5 -64.5c-59.333 0 -108.333 12 -147 36l-28 -48h-72l53 91c-35.333 44.667 -53 110 -53 196v158c0 183.333 83.667 275 251 275
c60 0 109.333 -12.333 148 -37l30 52h71zM186 212.999l198 340c-18.667 21.333 -46.334 32 -83 32c-42 0 -72.333 -12.833 -91 -38.5s-28 -68.5 -28 -128.5v-149c0 -23.333 1.33301 -42 4 -56zM414 481.999l-199 -341.999c20 -20.667 48.667 -31 86 -31
c40 0 69.667 12.833 89 38.5s29 66.167 29 121.5v149c0 21.333 -1.66699 42.666 -5 63.999z" />
    <glyph glyph-name="Ugrave" unicode="&#xd9;" horiz-adv-x="614" 
d="M179.5 23.5c-37.667 19.667 -67.166 47.334 -88.499 83.001s-32 76.167 -32 121.5v462h131v-458c0 -39.333 10.333 -69.833 31 -91.5s49 -32.5 85 -32.5s64.5 10.833 85.5 32.5s31.5 52.167 31.5 91.5v458h132v-462c0 -45.333 -10.833 -85.833 -32.5 -121.5
s-51.334 -63.334 -89 -83.001c-37.667 -19.667 -80.167 -29.5 -127.5 -29.5c-46.667 0 -88.834 9.83301 -126.501 29.5zM148.001 891h137l108 -133h-107z" />
    <glyph glyph-name="Uacute" unicode="&#xda;" horiz-adv-x="614" 
d="M179.5 23.5c-37.667 19.667 -67.166 47.334 -88.499 83.001s-32 76.167 -32 121.5v462h131v-458c0 -39.333 10.333 -69.833 31 -91.5s49 -32.5 85 -32.5s64.5 10.833 85.5 32.5s31.5 52.167 31.5 91.5v458h132v-462c0 -45.333 -10.833 -85.833 -32.5 -121.5
s-51.334 -63.334 -89 -83.001c-37.667 -19.667 -80.167 -29.5 -127.5 -29.5c-46.667 0 -88.834 9.83301 -126.501 29.5zM322.001 891h137l-138 -133h-107z" />
    <glyph glyph-name="Ucircumflex" unicode="&#xdb;" horiz-adv-x="614" 
d="M179.5 23.5c-37.667 19.667 -67.166 47.334 -88.499 83.001s-32 76.167 -32 121.5v462h131v-458c0 -39.333 10.333 -69.833 31 -91.5s49 -32.5 85 -32.5s64.5 10.833 85.5 32.5s31.5 52.167 31.5 91.5v458h132v-462c0 -45.333 -10.833 -85.833 -32.5 -121.5
s-51.334 -63.334 -89 -83.001c-37.667 -19.667 -80.167 -29.5 -127.5 -29.5c-46.667 0 -88.834 9.83301 -126.501 29.5zM261.001 898h91l115 -151h-97l-63 78l-63 -78h-98z" />
    <glyph glyph-name="Udieresis" unicode="&#xdc;" horiz-adv-x="614" 
d="M179.5 23.5c-37.667 19.667 -67.166 47.334 -88.499 83.001s-32 76.167 -32 121.5v462h131v-458c0 -39.333 10.333 -69.833 31 -91.5s49 -32.5 85 -32.5s64.5 10.833 85.5 32.5s31.5 52.167 31.5 91.5v458h132v-462c0 -45.333 -10.833 -85.833 -32.5 -121.5
s-51.334 -63.334 -89 -83.001c-37.667 -19.667 -80.167 -29.5 -127.5 -29.5c-46.667 0 -88.834 9.83301 -126.501 29.5zM157.001 873h107v-116h-107v116zM349.001 873h107v-116h-107v116z" />
    <glyph glyph-name="Yacute" unicode="&#xdd;" horiz-adv-x="541" 
d="M336 284v-284h-131v283l-201 407h143l123 -280l123 280h144zM285 891h137l-138 -133h-107z" />
    <glyph glyph-name="Thorn" unicode="&#xde;" horiz-adv-x="567" 
d="M482.5 518c40.333 -38.667 60.5 -91.667 60.5 -159c0 -64 -20.167 -115 -60.5 -153s-95.5 -57 -165.5 -57h-127v-149h-131v690h131v-114h127c70 0 125.167 -19.333 165.5 -58zM385 288c18 16.667 27 40.333 27 71c0 33.333 -8.83301 58.833 -26.5 76.5
s-42.5 26.5 -74.5 26.5h-121v-199h121c31.333 0 56 8.33301 74 25z" />
    <glyph glyph-name="germandbls" unicode="&#xdf;" horiz-adv-x="524" 
d="M254 100l32.002 0.000976562c22 0 38 4.16699 48 12.5s16.167 21 18.5 38s3.5 43.5 3.5 79.5c0 35.334 -1.5 61.667 -4.5 79s-10.167 30.5 -21.5 39.5s-29 13.5 -53 13.5h-23v103h31c22 0 37.833 5.33301 47.5 16s14.5 26.667 14.5 48c0 22.667 -6.66699 39.167 -20 49.5
s-34 15.5 -62 15.5c-30 0 -52 -6.83301 -66 -20.5s-21 -35.167 -21 -64.5v-509h-124v498c0 66 16.667 116.167 50 150.5s86.666 51.5 159.999 51.5c65.333 0 116 -14.333 152 -43s54 -69.334 54 -122.001c0 -26.667 -4.5 -49.5 -13.5 -68.5s-23.5 -35.167 -43.5 -48.5
c19.334 -10.667 33.667 -23.5 42.999 -38.5c9.33301 -15 15.5 -34 18.5 -57s4.5 -54.5 4.5 -94.5c0 -60 -4.83301 -106.167 -14.5 -138.5s-27.5 -56 -53.5 -71s-64.667 -22.5 -116 -22.5h-41v104z" />
    <glyph glyph-name="agrave" unicode="&#xe0;" horiz-adv-x="501" 
d="M394 479.5c35.333 -31 52.9971 -76.834 52.9971 -137.501v-342h-120v45c-17.333 -18 -35.166 -31 -53.499 -39s-41.5 -12 -69.5 -12c-53.333 0 -94.666 14.333 -123.999 43s-44 68.334 -44 119.001c0 46.667 15.667 83.5 47 110.5s75 40.5 131 40.5h110v41
c0 55.333 -27.667 83 -83 83c-23.333 0 -41.833 -5.83301 -55.5 -17.5s-20.5 -27.167 -20.5 -46.5v-3h-115v4c0 48.667 17.333 87.167 52 115.5s81.334 42.5 140.001 42.5c66 0 116.667 -15.5 152 -46.5zM302.497 116.499c14.333 15 21.5 37.833 21.5 68.5v37h-90
c-52 0 -78 -21 -78 -63c0 -43.333 25.333 -65 76 -65c32.667 0 56.167 7.5 70.5 22.5zM82.9971 720.999h137l108 -133h-107z" />
    <glyph glyph-name="aacute" unicode="&#xe1;" horiz-adv-x="501" 
d="M394 479.5c35.333 -31 52.9971 -76.834 52.9971 -137.501v-342h-120v45c-17.333 -18 -35.166 -31 -53.499 -39s-41.5 -12 -69.5 -12c-53.333 0 -94.666 14.333 -123.999 43s-44 68.334 -44 119.001c0 46.667 15.667 83.5 47 110.5s75 40.5 131 40.5h110v41
c0 55.333 -27.667 83 -83 83c-23.333 0 -41.833 -5.83301 -55.5 -17.5s-20.5 -27.167 -20.5 -46.5v-3h-115v4c0 48.667 17.333 87.167 52 115.5s81.334 42.5 140.001 42.5c66 0 116.667 -15.5 152 -46.5zM302.497 116.499c14.333 15 21.5 37.833 21.5 68.5v37h-90
c-52 0 -78 -21 -78 -63c0 -43.333 25.333 -65 76 -65c32.667 0 56.167 7.5 70.5 22.5zM256.997 720.999h137l-138 -133h-107z" />
    <glyph glyph-name="acircumflex" unicode="&#xe2;" horiz-adv-x="501" 
d="M394 479.5c35.333 -31 52.9971 -76.834 52.9971 -137.501v-342h-120v45c-17.333 -18 -35.166 -31 -53.499 -39s-41.5 -12 -69.5 -12c-53.333 0 -94.666 14.333 -123.999 43s-44 68.334 -44 119.001c0 46.667 15.667 83.5 47 110.5s75 40.5 131 40.5h110v41
c0 55.333 -27.667 83 -83 83c-23.333 0 -41.833 -5.83301 -55.5 -17.5s-20.5 -27.167 -20.5 -46.5v-3h-115v4c0 48.667 17.333 87.167 52 115.5s81.334 42.5 140.001 42.5c66 0 116.667 -15.5 152 -46.5zM302.497 116.499c14.333 15 21.5 37.833 21.5 68.5v37h-90
c-52 0 -78 -21 -78 -63c0 -43.333 25.333 -65 76 -65c32.667 0 56.167 7.5 70.5 22.5zM195.997 727.999h91l115 -151h-97l-63 78l-63 -78h-98z" />
    <glyph glyph-name="atilde" unicode="&#xe3;" horiz-adv-x="501" 
d="M394 479.5c35.333 -31 52.9971 -76.834 52.9971 -137.501v-342h-120v45c-17.333 -18 -35.166 -31 -53.499 -39s-41.5 -12 -69.5 -12c-53.333 0 -94.666 14.333 -123.999 43s-44 68.334 -44 119.001c0 46.667 15.667 83.5 47 110.5s75 40.5 131 40.5h110v41
c0 55.333 -27.667 83 -83 83c-23.333 0 -41.833 -5.83301 -55.5 -17.5s-20.5 -27.167 -20.5 -46.5v-3h-115v4c0 48.667 17.333 87.167 52 115.5s81.334 42.5 140.001 42.5c66 0 116.667 -15.5 152 -46.5zM302.497 116.499c14.333 15 21.5 37.833 21.5 68.5v37h-90
c-52 0 -78 -21 -78 -63c0 -43.333 25.333 -65 76 -65c32.667 0 56.167 7.5 70.5 22.5zM99.9971 671.999c15.333 15.333 28.833 26.334 40.5 33.001s25.167 10 40.5 10c13.333 0 25 -1.66699 35 -5c10 -3.33398 22 -8.66699 36 -16c21.334 -11.333 39.667 -17 55 -17
c13.333 0 25 2.66699 35 8s23.667 16 41 32v-91c-15.333 -15.333 -28.833 -26.333 -40.5 -33s-25.167 -10 -40.5 -10c-12.667 0 -24 1.66699 -34 5s-22 8.66602 -36 15.999c-21.334 11.333 -39.667 17 -55 17c-13.333 0 -25 -2.66699 -35 -8
c-10 -5.33789 -24 -15.6709 -42 -31v90z" />
    <glyph glyph-name="adieresis" unicode="&#xe4;" horiz-adv-x="501" 
d="M394 479.5c35.333 -31 52.9971 -76.834 52.9971 -137.501v-342h-120v45c-17.333 -18 -35.166 -31 -53.499 -39s-41.5 -12 -69.5 -12c-53.333 0 -94.666 14.333 -123.999 43s-44 68.334 -44 119.001c0 46.667 15.667 83.5 47 110.5s75 40.5 131 40.5h110v41
c0 55.333 -27.667 83 -83 83c-23.333 0 -41.833 -5.83301 -55.5 -17.5s-20.5 -27.167 -20.5 -46.5v-3h-115v4c0 48.667 17.333 87.167 52 115.5s81.334 42.5 140.001 42.5c66 0 116.667 -15.5 152 -46.5zM302.497 116.499c14.333 15 21.5 37.833 21.5 68.5v37h-90
c-52 0 -78 -21 -78 -63c0 -43.333 25.333 -65 76 -65c32.667 0 56.167 7.5 70.5 22.5zM91.9971 702.999h107v-116h-107v116zM283.997 702.999h107v-116h-107v116z" />
    <glyph glyph-name="aring" unicode="&#xe5;" horiz-adv-x="501" 
d="M394 479.5c35.333 -31 52.9971 -76.834 52.9971 -137.501v-342h-120v45c-17.333 -18 -35.166 -31 -53.499 -39s-41.5 -12 -69.5 -12c-53.333 0 -94.666 14.333 -123.999 43s-44 68.334 -44 119.001c0 46.667 15.667 83.5 47 110.5s75 40.5 131 40.5h110v41
c0 55.333 -27.667 83 -83 83c-23.333 0 -41.833 -5.83301 -55.5 -17.5s-20.5 -27.167 -20.5 -46.5v-3h-115v4c0 48.667 17.333 87.167 52 115.5s81.334 42.5 140.001 42.5c66 0 116.667 -15.5 152 -46.5zM302.497 116.499c14.333 15 21.5 37.833 21.5 68.5v37h-90
c-52 0 -78 -21 -78 -63c0 -43.333 25.333 -65 76 -65c32.667 0 56.167 7.5 70.5 22.5zM168.497 576.499c-19.667 19.667 -29.5 44.167 -29.5 73.5c0 30 9.83301 54.833 29.5 74.5s44.167 29.5 73.5 29.5s53.833 -9.83301 73.5 -29.5s29.5 -44.5 29.5 -74.5
c0 -29.333 -9.83301 -53.833 -29.5 -73.5s-44.167 -29.5 -73.5 -29.5s-53.833 9.83301 -73.5 29.5zM275.497 615.999c9 9.33301 13.5 20.667 13.5 34c0 14 -4.5 25.667 -13.5 35s-20.167 14 -33.5 14s-24.333 -4.66699 -33 -14s-13 -21 -13 -35
c0 -13.3359 4.5 -24.6689 13.5 -34c9 -9.33301 19.833 -14 32.5 -14c13.333 0 24.5 4.66699 33.5 14z" />
    <glyph glyph-name="ae" unicode="&#xe6;" horiz-adv-x="795" 
d="M447 209c0 -38.667 8.49902 -66.334 25.499 -83.001s41.5 -25 73.5 -25c24 0 43.167 5.16699 57.5 15.5s22.5 24.833 24.5 43.5v3h118v-5c0 -30 -7.5 -57.5 -22.5 -82.5s-37.167 -44.833 -66.5 -59.5s-65 -22 -107 -22c-69.333 0 -124 21 -164 63
c-19.333 -20 -42.833 -35.5 -70.5 -46.5s-58.834 -16.5 -93.5 -16.5c-56.667 0 -101.834 14.5 -135.501 43.5s-50.5 68.5 -50.5 118.5c0 46.667 15.667 83.5 47 110.5s75 40.5 131 40.5h110v41c0 55.333 -27.667 83 -83 83c-23.333 0 -41.833 -5.83301 -55.5 -17.5
s-20.5 -27.167 -20.5 -46.5v-3h-115v4c0 48.667 17.333 87.167 52 115.5s81.334 42.5 140.001 42.5c64.667 0 115.334 -16.667 152.001 -50c37.333 33.333 85.333 50 144 50c64.667 0 116.167 -19.667 154.5 -59s57.5 -97.666 57.5 -174.999v-69h-303v-14zM470.499 395
c-15.667 -16.667 -23.5 -44.667 -23.5 -84v-3h180v13c0 66 -29.667 99 -89 99c-29.333 0 -51.833 -8.33301 -67.5 -25zM323.999 190v32h-90c-52 0 -78 -21 -78 -63c0 -43.333 25.333 -65 76 -65c61.333 0 92 32 92 96z" />
    <glyph glyph-name="ccedilla" unicode="&#xe7;" horiz-adv-x="505" 
d="M342 331v6.00293c0 24.667 -7.5 44 -22.5 58s-35.5 21 -61.5 21c-60 0 -90 -36.333 -90 -109v-94c0 -39.333 7.83301 -67.333 23.5 -84s37.834 -25 66.5 -25c26 0 46.5 6.66699 61.5 20s22.5 32 22.5 56v6h118v-7c0 -46.667 -12.167 -85.334 -36.5 -116.001
s-58.5 -51.334 -102.5 -62.001l-49 -157h-114l62 152c-54.667 6 -97.5 26.667 -128.5 62s-46.5 86.666 -46.5 153.999v97c0 74 18.833 128.667 56.5 164s89.167 53 154.5 53c64 0 114 -16.333 150 -49s54 -78 54 -136v-10h-118z" />
    <glyph glyph-name="egrave" unicode="&#xe8;" horiz-adv-x="517" 
d="M168 223v-14c0 -38.667 8.66699 -66.334 26 -83.001s42 -25 74 -25c24.667 0 44 5.16699 58 15.5s21.667 24.833 23 43.5l1 3h118v-5c0 -49.333 -18.333 -89 -55 -119s-86.667 -45 -150 -45c-66.667 0 -119.667 19.167 -159 57.5s-59 97.5 -59 177.5v63
c0 78 19 136.5 57 175.5s90.333 58.5 157 58.5c65.334 0 117.167 -19.667 155.5 -59s57.5 -97.666 57.5 -174.999v-69h-304zM191.5 395c-15.667 -16.667 -23.5 -44.667 -23.5 -84v-3h180v13c0 66 -29.667 99 -89 99c-29.333 0 -51.833 -8.33301 -67.5 -25zM99 721h137
l108 -133h-107z" />
    <glyph glyph-name="eacute" unicode="&#xe9;" horiz-adv-x="517" 
d="M168 223v-14c0 -38.667 8.66699 -66.334 26 -83.001s42 -25 74 -25c24.667 0 44 5.16699 58 15.5s21.667 24.833 23 43.5l1 3h118v-5c0 -49.333 -18.333 -89 -55 -119s-86.667 -45 -150 -45c-66.667 0 -119.667 19.167 -159 57.5s-59 97.5 -59 177.5v63
c0 78 19 136.5 57 175.5s90.333 58.5 157 58.5c65.334 0 117.167 -19.667 155.5 -59s57.5 -97.666 57.5 -174.999v-69h-304zM191.5 395c-15.667 -16.667 -23.5 -44.667 -23.5 -84v-3h180v13c0 66 -29.667 99 -89 99c-29.333 0 -51.833 -8.33301 -67.5 -25zM273 721h137
l-138 -133h-107z" />
    <glyph glyph-name="ecircumflex" unicode="&#xea;" horiz-adv-x="517" 
d="M168 223v-14c0 -38.667 8.66699 -66.334 26 -83.001s42 -25 74 -25c24.667 0 44 5.16699 58 15.5s21.667 24.833 23 43.5l1 3h118v-5c0 -49.333 -18.333 -89 -55 -119s-86.667 -45 -150 -45c-66.667 0 -119.667 19.167 -159 57.5s-59 97.5 -59 177.5v63
c0 78 19 136.5 57 175.5s90.333 58.5 157 58.5c65.334 0 117.167 -19.667 155.5 -59s57.5 -97.666 57.5 -174.999v-69h-304zM191.5 395c-15.667 -16.667 -23.5 -44.667 -23.5 -84v-3h180v13c0 66 -29.667 99 -89 99c-29.333 0 -51.833 -8.33301 -67.5 -25zM212 728h91
l115 -151h-97l-63 78l-63 -78h-98z" />
    <glyph glyph-name="edieresis" unicode="&#xeb;" horiz-adv-x="517" 
d="M168 223v-14c0 -38.667 8.66699 -66.334 26 -83.001s42 -25 74 -25c24.667 0 44 5.16699 58 15.5s21.667 24.833 23 43.5l1 3h118v-5c0 -49.333 -18.333 -89 -55 -119s-86.667 -45 -150 -45c-66.667 0 -119.667 19.167 -159 57.5s-59 97.5 -59 177.5v63
c0 78 19 136.5 57 175.5s90.333 58.5 157 58.5c65.334 0 117.167 -19.667 155.5 -59s57.5 -97.666 57.5 -174.999v-69h-304zM191.5 395c-15.667 -16.667 -23.5 -44.667 -23.5 -84v-3h180v13c0 66 -29.667 99 -89 99c-29.333 0 -51.833 -8.33301 -67.5 -25zM108 703h107v-116
h-107v116zM300 703h107v-116h-107v116z" />
    <glyph glyph-name="igrave" unicode="&#xec;" horiz-adv-x="241" 
d="M59 520h123v-520h-123v520zM-39 721h137l108 -133h-107z" />
    <glyph glyph-name="iacute" unicode="&#xed;" horiz-adv-x="241" 
d="M59 520h123v-520h-123v520zM135 721h137l-138 -133h-107z" />
    <glyph glyph-name="icircumflex" unicode="&#xee;" horiz-adv-x="241" 
d="M59 520h123v-520h-123v520zM74 728h91l115 -151h-97l-63 78l-63 -78h-98z" />
    <glyph glyph-name="idieresis" unicode="&#xef;" horiz-adv-x="241" 
d="M59 520h123v-520h-123v520zM-30 703h107v-116h-107v116zM162 703h107v-116h-107v116z" />
    <glyph glyph-name="eth" unicode="&#xf0;" horiz-adv-x="509" 
d="M438.5 394c17 -42.667 25.499 -87.667 25.499 -135v-41c0 -73.333 -18.333 -129.833 -55 -169.5s-88.667 -59.5 -156 -59.5c-66.667 0 -118 19.5 -154 58.5s-54 92.833 -54 161.5v44c0 64.667 15.333 116.167 46 154.5s73.334 57.5 128.001 57.5
c26.667 0 49.667 -4.66699 69 -14l-60 86l-103 -32l-25 79l79 24l-61 87h128l39 -55l96 30l25 -79l-71 -22l24 -34c36 -51.333 62.5 -98.333 79.5 -141zM347.999 255c0 73.333 -31 110 -93 110c-63.333 0 -95 -36 -95 -108v-46c0 -76 31.667 -114 95 -114
c62 0 93 38.333 93 115v43z" />
    <glyph glyph-name="ntilde" unicode="&#xf1;" horiz-adv-x="520" 
d="M54 520h121v-47c15.333 17.333 33.833 30.5 55.5 39.5s44.167 13.5 67.5 13.5c53.334 0 94.667 -16.667 124 -50s44 -79 44 -137v-339h-124v324c0 29.333 -7.33301 52 -22 68s-34.334 24 -59 24c-24 0 -43.833 -8 -59.5 -24s-23.5 -38.667 -23.5 -68v-324h-124v520z
M118 672c15.333 15.333 28.833 26.334 40.5 33.001s25.167 10 40.5 10c13.333 0 25 -1.66699 35 -5c10 -3.33398 22 -8.66699 36 -16c21.334 -11.333 39.667 -17 55 -17c13.333 0 25 2.66699 35 8s23.667 16 41 32v-91c-15.333 -15.333 -28.833 -26.333 -40.5 -33
s-25.167 -10 -40.5 -10c-12.667 0 -24 1.66699 -34 5s-22 8.66602 -36 15.999c-21.334 11.333 -39.667 17 -55 17c-13.333 0 -25 -2.66699 -35 -8c-10 -5.33789 -24 -15.6709 -42 -31v90z" />
    <glyph glyph-name="ograve" unicode="&#xf2;" horiz-adv-x="510" 
d="M101.5 47c-37.667 35.333 -56.5 90.333 -56.5 165v97c0 74 18.833 128.667 56.5 164s89.167 53 154.5 53c64.667 0 115.667 -17.667 153 -53s56 -90 56 -164v-97c0 -74.667 -18.667 -129.667 -56 -165s-88.333 -53 -153 -53c-65.333 0 -116.833 17.667 -154.5 53z
M342 213v94c0 72.667 -28.667 109 -86 109c-58.667 0 -88 -36.333 -88 -109v-94c0 -72.667 29.333 -109 88 -109c57.333 0 86 36.333 86 109zM97 721h137l108 -133h-107z" />
    <glyph glyph-name="oacute" unicode="&#xf3;" horiz-adv-x="510" 
d="M101.5 47c-37.667 35.333 -56.5 90.333 -56.5 165v97c0 74 18.833 128.667 56.5 164s89.167 53 154.5 53c64.667 0 115.667 -17.667 153 -53s56 -90 56 -164v-97c0 -74.667 -18.667 -129.667 -56 -165s-88.333 -53 -153 -53c-65.333 0 -116.833 17.667 -154.5 53z
M342 213v94c0 72.667 -28.667 109 -86 109c-58.667 0 -88 -36.333 -88 -109v-94c0 -72.667 29.333 -109 88 -109c57.333 0 86 36.333 86 109zM271 721h137l-138 -133h-107z" />
    <glyph glyph-name="ocircumflex" unicode="&#xf4;" horiz-adv-x="510" 
d="M101.5 47c-37.667 35.333 -56.5 90.333 -56.5 165v97c0 74 18.833 128.667 56.5 164s89.167 53 154.5 53c64.667 0 115.667 -17.667 153 -53s56 -90 56 -164v-97c0 -74.667 -18.667 -129.667 -56 -165s-88.333 -53 -153 -53c-65.333 0 -116.833 17.667 -154.5 53z
M342 213v94c0 72.667 -28.667 109 -86 109c-58.667 0 -88 -36.333 -88 -109v-94c0 -72.667 29.333 -109 88 -109c57.333 0 86 36.333 86 109zM210 728h91l115 -151h-97l-63 78l-63 -78h-98z" />
    <glyph glyph-name="otilde" unicode="&#xf5;" horiz-adv-x="510" 
d="M101.5 47c-37.667 35.333 -56.5 90.333 -56.5 165v97c0 74 18.833 128.667 56.5 164s89.167 53 154.5 53c64.667 0 115.667 -17.667 153 -53s56 -90 56 -164v-97c0 -74.667 -18.667 -129.667 -56 -165s-88.333 -53 -153 -53c-65.333 0 -116.833 17.667 -154.5 53z
M342 213v94c0 72.667 -28.667 109 -86 109c-58.667 0 -88 -36.333 -88 -109v-94c0 -72.667 29.333 -109 88 -109c57.333 0 86 36.333 86 109zM114 672c15.333 15.333 28.833 26.334 40.5 33.001s25.167 10 40.5 10c13.333 0 25 -1.66699 35 -5
c10 -3.33398 22 -8.66699 36 -16c21.334 -11.333 39.667 -17 55 -17c13.333 0 25 2.66699 35 8s23.667 16 41 32v-91c-15.333 -15.333 -28.833 -26.333 -40.5 -33s-25.167 -10 -40.5 -10c-12.667 0 -24 1.66699 -34 5s-22 8.66602 -36 15.999
c-21.334 11.333 -39.667 17 -55 17c-13.333 0 -25 -2.66699 -35 -8c-10 -5.33789 -24 -15.6709 -42 -31v90z" />
    <glyph glyph-name="odieresis" unicode="&#xf6;" horiz-adv-x="510" 
d="M101.5 47c-37.667 35.333 -56.5 90.333 -56.5 165v97c0 74 18.833 128.667 56.5 164s89.167 53 154.5 53c64.667 0 115.667 -17.667 153 -53s56 -90 56 -164v-97c0 -74.667 -18.667 -129.667 -56 -165s-88.333 -53 -153 -53c-65.333 0 -116.833 17.667 -154.5 53z
M342 213v94c0 72.667 -28.667 109 -86 109c-58.667 0 -88 -36.333 -88 -109v-94c0 -72.667 29.333 -109 88 -109c57.333 0 86 36.333 86 109zM106 703h107v-116h-107v116zM298 703h107v-116h-107v116z" />
    <glyph glyph-name="divide" unicode="&#xf7;" horiz-adv-x="529" 
d="M217 395.5c-12.667 13 -18.999 28.833 -18.999 47.5s6.33301 34.5 19 47.5s28.334 19.5 47 19.5c18.667 0 34.5 -6.5 47.5 -19.5s19.5 -28.833 19.5 -47.5s-6.5 -34.5 -19.5 -47.5s-28.833 -19.5 -47.5 -19.5s-34.334 6.5 -47.001 19.5zM48.001 333h433v-114h-433v114z
M217.001 62.5c-12.667 13 -18.999 28.833 -18.999 47.5s6.33301 34.5 19 47.5s28.334 19.5 47 19.5c18.667 0 34.5 -6.5 47.5 -19.5s19.5 -28.833 19.5 -47.5s-6.33301 -34.5 -19 -47.5s-28.667 -19.5 -48 -19.5c-18.667 0 -34.334 6.5 -47.001 19.5z" />
    <glyph glyph-name="oslash" unicode="&#xf8;" horiz-adv-x="510" 
d="M415 466c33.333 -36.667 50 -89 50 -157v-97c0 -74.667 -18.667 -129.667 -56 -165s-88.333 -53 -153 -53c-46.667 0 -86 8.66699 -118 26l-31 -49h-62l51 82c-34 37.333 -51 90.333 -51 159v97c0 74 18.833 128.667 56.5 164s89.167 53 154.5 53c46 0 85.333 -9 118 -27
l29 47h62zM171 174l140 224c-14 12 -32.333 18 -55 18c-58.667 0 -88 -36.333 -88 -109v-94c0 -14.667 1 -27.667 3 -39zM339 344l-139 -223c14 -11.333 32.667 -17 56 -17c57.333 0 86 36.333 86 109v94c0 14 -1 26.333 -3 37z" />
    <glyph glyph-name="ugrave" unicode="&#xf9;" horiz-adv-x="520" 
d="M54 210v310h124v-304c0 -36.667 5.5 -64.5 16.5 -83.5s32.833 -28.5 65.5 -28.5s54.5 9 65.5 27s16.5 46.333 16.5 85v304h124v-310c0 -72 -17 -126 -51 -162s-85.667 -54 -155 -54c-137.333 0 -206 72 -206 216zM101 721h137l108 -133h-107z" />
    <glyph glyph-name="uacute" unicode="&#xfa;" horiz-adv-x="520" 
d="M54 210v310h124v-304c0 -36.667 5.5 -64.5 16.5 -83.5s32.833 -28.5 65.5 -28.5s54.5 9 65.5 27s16.5 46.333 16.5 85v304h124v-310c0 -72 -17 -126 -51 -162s-85.667 -54 -155 -54c-137.333 0 -206 72 -206 216zM275 721h137l-138 -133h-107z" />
    <glyph glyph-name="ucircumflex" unicode="&#xfb;" horiz-adv-x="520" 
d="M54 210v310h124v-304c0 -36.667 5.5 -64.5 16.5 -83.5s32.833 -28.5 65.5 -28.5s54.5 9 65.5 27s16.5 46.333 16.5 85v304h124v-310c0 -72 -17 -126 -51 -162s-85.667 -54 -155 -54c-137.333 0 -206 72 -206 216zM214 728h91l115 -151h-97l-63 78l-63 -78h-98z" />
    <glyph glyph-name="udieresis" unicode="&#xfc;" horiz-adv-x="520" 
d="M54 210v310h124v-304c0 -36.667 5.5 -64.5 16.5 -83.5s32.833 -28.5 65.5 -28.5s54.5 9 65.5 27s16.5 46.333 16.5 85v304h124v-310c0 -72 -17 -126 -51 -162s-85.667 -54 -155 -54c-137.333 0 -206 72 -206 216zM110 703h107v-116h-107v116zM302 703h107v-116h-107v116z
" />
    <glyph glyph-name="yacute" unicode="&#xfd;" horiz-adv-x="482" 
d="M473 520l-197 -565c-13.333 -38 -32.5 -65.667 -57.5 -83s-58.167 -26 -99.5 -26h-43v111h39c20 0 34.833 3.5 44.5 10.5s17.5 20.167 23.5 39.5l2 7l-176 506h131l102 -327l104 327h127zM256 721h137l-138 -133h-107z" />
    <glyph glyph-name="thorn" unicode="&#xfe;" horiz-adv-x="515" 
d="M54 690h123.999v-223c28.667 39.333 67.334 59 116.001 59c52 0 94.333 -17.667 127 -53s49 -89 49 -161v-103c0 -72 -16.333 -125.833 -49 -161.5s-73.667 -53.5 -123 -53.5c-52.667 0 -93.667 18 -123 54v-204h-121v846zM345.999 213v94c0 38.667 -7.5 66.5 -22.5 83.5
s-35.167 25.5 -60.5 25.5c-26.667 0 -47.667 -9.33301 -63 -28s-23 -45.667 -23 -81v-94c0 -35.333 7.83301 -62.333 23.5 -81s37.5 -28 65.5 -28c53.333 0 80 36.333 80 109z" />
    <glyph glyph-name="ydieresis" unicode="&#xff;" horiz-adv-x="482" 
d="M473 520l-197 -565c-13.333 -38 -32.5 -65.667 -57.5 -83s-58.167 -26 -99.5 -26h-43v111h39c20 0 34.833 3.5 44.5 10.5s17.5 20.167 23.5 39.5l2 7l-176 506h131l102 -327l104 327h127zM91 703h107v-116h-107v116zM283 703h107v-116h-107v116z" />
    <glyph glyph-name="dotlessi" unicode="&#x131;" horiz-adv-x="241" 
d="M59 520h123v-520h-123v520z" />
    <glyph glyph-name="OE" unicode="&#x152;" horiz-adv-x="871" 
d="M550 576v-171h241v-114h-241v-177h286v-114h-407v31c-40 -26 -87 -39 -141 -39c-72 0 -129.667 21.667 -173 65s-65 113.333 -65 210v158c0 96 22.167 165.833 66.5 209.5s101.833 65.5 172.5 65.5c53.333 0 100 -13.333 140 -40v30h407v-114h-286zM419 418
c0 58.667 -9.66699 101.167 -29 127.5s-49 39.5 -89 39.5c-42 0 -72.333 -12.833 -91 -38.5s-28 -68.5 -28 -128.5v-149c0 -56.667 9.33301 -97.5 28 -122.5s49 -37.5 91 -37.5c40 0 69.667 12.833 89 38.5s29 66.167 29 121.5v149z" />
    <glyph glyph-name="oe" unicode="&#x153;" horiz-adv-x="813" 
d="M465 209c0 -38.667 8.5 -66.334 25.5 -83.001s41.5 -25 73.5 -25c24 0 43.167 5.16699 57.5 15.5s22.5 24.833 24.5 43.5v3h118v-5c0 -49.333 -18.167 -89 -54.5 -119s-86.5 -45 -150.5 -45c-64.667 0 -115.334 17 -152 51c-36 -34 -86.333 -51 -151 -51
c-65.333 0 -116.833 17.667 -154.5 53s-56.5 90.333 -56.5 165v97c0 74 18.833 128.667 56.5 164s89.167 53 154.5 53c64.667 0 115 -17 151 -51c37.333 34 87 51 149 51c64.667 0 116.167 -19.667 154.5 -59s57.5 -97.666 57.5 -174.999v-69h-303v-14zM465 308h180v13
c0 66 -29.667 99 -89 99c-29.333 0 -51.833 -8.33301 -67.5 -25s-23.5 -44.667 -23.5 -84v-3zM342 307c0 72.667 -28.667 109 -86 109c-58.667 0 -88 -36.333 -88 -109v-94c0 -72.667 29.333 -109 88 -109c57.333 0 86 36.333 86 109v94z" />
    <glyph glyph-name="Scaron" unicode="&#x160;" horiz-adv-x="548" 
d="M94 49.5c-41.333 37 -64.3369 90.5029 -69.0039 160.503h124c4.66699 -38 16.834 -64.833 36.501 -80.5s48.834 -23.5 87.501 -23.5c74 0 111 30.333 111 91c0 27.333 -7.33301 48.166 -22 62.499c-14.667 14.334 -38 24.167 -70 29.499l-65 11
c-124.667 20.667 -187 84.667 -187 192c0 64 21.167 114.667 63.5 152s98.5 56 168.5 56c68 0 121.833 -18 161.5 -54s62.167 -86.667 67.5 -152h-126c-2 33.333 -11.667 57.666 -29 72.999s-42.666 23 -75.999 23c-34 0 -59.667 -7.83301 -77 -23.5s-26 -37.167 -26 -64.5
c0 -24 7.66699 -43 23 -57s39.333 -24 72 -30l73 -13c118.667 -21.333 178 -86 178 -194c0 -69.333 -22.167 -122.333 -66.5 -159s-104.166 -55 -179.499 -55c-74 0 -131.667 18.5 -173 55.5zM110.996 891.003h98l63 -78l63 78h97l-115 -151h-91z" />
    <glyph glyph-name="scaron" unicode="&#x161;" horiz-adv-x="474" 
d="M90 37.5c-36 29 -54.001 67.833 -54.001 116.5v4h116v-2c0 -19.333 7.83301 -34.5 23.5 -45.5s36.167 -16.5 61.5 -16.5c27.334 0 48.667 4.83301 64 14.5s23 24.167 23 43.5c0 16 -5.66699 28.333 -17 37s-30.333 15 -57 19l-55 9c-52 8.66699 -90.333 24.667 -115 48
c-24.667 23.334 -37 56.667 -37 100c0 49.333 18.167 88.5 54.5 117.5s82.833 43.5 139.5 43.5c38.667 0 72.834 -6.5 102.501 -19.5s52.667 -31 69 -54s24.5 -48.833 24.5 -77.5v-6h-115v3c0 18 -7.16699 32 -21.5 42s-34.166 15 -59.499 15c-25.334 0 -44.667 -5 -58 -15
s-20 -23.333 -20 -40c0 -15.333 5.16699 -27.333 15.5 -36s27.166 -14.667 50.499 -18l61 -9c52 -7.33301 91 -23.333 117 -48s39 -58.667 39 -102c0 -53.333 -19.333 -94.5 -58 -123.5s-89 -43.5 -151 -43.5c-59.333 0 -107 14.5 -143 43.5zM75.999 721h98l63 -78l63 78h97
l-115 -151h-91z" />
    <glyph glyph-name="Ydieresis" unicode="&#x178;" horiz-adv-x="541" 
d="M336 284v-284h-131v283l-201 407h143l123 -280l123 280h144zM120 873h107v-116h-107v116zM312 873h107v-116h-107v116z" />
    <glyph glyph-name="Zcaron" unicode="&#x17d;" horiz-adv-x="505" 
d="M478 115v-115h-448v115l297 461h-291v114h433v-114l-296 -461h305zM91 891h98l63 -78l63 78h97l-115 -151h-91z" />
    <glyph glyph-name="zcaron" unicode="&#x17e;" horiz-adv-x="455" 
d="M410 416l-230 -312h230v-104h-365v104l230 312h-230v104h365v-104zM66 721h98l63 -78l63 78h97l-115 -151h-91z" />
    <glyph glyph-name="florin" unicode="&#x192;" horiz-adv-x="419" 
d="M9 -39l29.001 -0.00195312c22.667 0 39.167 4.33301 49.5 13s17.5 25.334 21.5 50.001l43 289h-78v110h94l16 105c8.66699 56.667 26.667 97.834 54 123.5c27.333 25.667 67.666 38.5 120.999 38.5h51v-114h-34c-20.667 0 -36.5 -4.66699 -47.5 -14
s-18.167 -25 -21.5 -47l-14 -92h100v-110h-116l-46 -304c-9.33301 -59.333 -27.5 -101.666 -54.5 -126.999s-67.833 -38 -122.5 -38h-45v117z" />
    <glyph glyph-name="circumflex" unicode="&#x2c6;" horiz-adv-x="500" 
d="M204 728h91l115 -151h-97l-63 78l-63 -78h-98z" />
    <glyph glyph-name="caron" unicode="&#x2c7;" horiz-adv-x="500" 
d="M89 721h98l63 -78l63 78h97l-115 -151h-91z" />
    <glyph glyph-name="dotaccent" unicode="&#x2d9;" horiz-adv-x="500" 
d="M187 695h126v-99h-126v99z" />
    <glyph glyph-name="ring" unicode="&#x2da;" horiz-adv-x="500" 
d="M174.5 606.5c-19.667 19.667 -29.5 44.167 -29.5 73.5c0 30 9.83301 54.833 29.5 74.5s44.167 29.5 73.5 29.5s53.833 -9.83301 73.5 -29.5s29.5 -44.5 29.5 -74.5c0 -29.333 -9.83301 -53.833 -29.5 -73.5s-44.167 -29.5 -73.5 -29.5s-53.833 9.83301 -73.5 29.5z
M281.5 646c9 9.33301 13.5 20.667 13.5 34c0 14 -4.5 25.667 -13.5 35s-20.167 14 -33.5 14s-24.333 -4.66699 -33 -14s-13 -21 -13 -35c0 -13.3389 4.5 -24.6719 13.5 -34c9 -9.33301 19.833 -14 32.5 -14c13.333 0 24.5 4.66699 33.5 14z" />
    <glyph glyph-name="tilde" unicode="&#x2dc;" horiz-adv-x="500" 
d="M108 672c15.333 15.333 28.833 26.334 40.5 33.001s25.167 10 40.5 10c13.333 0 25 -1.66699 35 -5c10 -3.33398 22 -8.66699 36 -16c21.334 -11.333 39.667 -17 55 -17c13.333 0 25 2.66699 35 8s23.667 16 41 32v-91c-15.333 -15.333 -28.833 -26.333 -40.5 -33
s-25.167 -10 -40.5 -10c-12.667 0 -24 1.66699 -34 5s-22 8.66602 -36 15.999c-21.334 11.333 -39.667 17 -55 17c-13.333 0 -25 -2.66699 -35 -8c-10 -5.33789 -24 -15.6709 -42 -31v90z" />
    <glyph glyph-name="gravecomb" unicode="&#x300;" horiz-adv-x="0" 
d="M-159 721h137l108 -133h-107z" />
    <glyph glyph-name="acutecomb" unicode="&#x301;" horiz-adv-x="0" 
d="M15 721h137l-138 -133h-107z" />
    <glyph glyph-name="uni0302" unicode="&#x302;" horiz-adv-x="0" 
d="M-46 728h91l115 -151h-97l-63 78l-63 -78h-98z" />
    <glyph glyph-name="tildecomb" unicode="&#x303;" horiz-adv-x="0" 
d="M-142 672c15.333 15.333 28.833 26.334 40.5 33.001s25.167 10 40.5 10c13.333 0 25 -1.66699 35 -5c10 -3.33398 22 -8.66699 36 -16c21.333 -11.333 39.666 -17 54.999 -17c13.333 0 25 2.66699 35 8s23.667 16 41 32v-91c-15.333 -15.333 -28.833 -26.333 -40.5 -33
s-25.167 -10 -40.5 -10c-12.667 0 -24 1.66699 -34 5s-22 8.66602 -36 15.999c-21.333 11.333 -39.666 17 -54.999 17c-13.333 0 -25 -2.66699 -35 -8c-10 -5.33789 -24 -15.6709 -42 -31v90z" />
    <glyph glyph-name="uni0308" unicode="&#x308;" horiz-adv-x="0" 
d="M-150 703h107v-116h-107v116zM42 703h107v-116h-107v116z" />
    <glyph glyph-name="uni030A" unicode="&#x30a;" horiz-adv-x="0" 
d="M-73.5 606.5c-19.667 19.667 -29.5 44.167 -29.5 73.5c0 30 9.83301 54.833 29.5 74.5s44.167 29.5 73.5 29.5s53.833 -9.83301 73.5 -29.5s29.5 -44.5 29.5 -74.5c0 -29.333 -9.83301 -53.833 -29.5 -73.5s-44.167 -29.5 -73.5 -29.5s-53.833 9.83301 -73.5 29.5z
M33.5 646c9 9.33301 13.5 20.667 13.5 34c0 14 -4.5 25.667 -13.5 35s-20.167 14 -33.5 14s-24.333 -4.66699 -33 -14s-13 -21 -13 -35c0 -13.3389 4.5 -24.6719 13.5 -34c9 -9.33301 19.833 -14 32.5 -14c13.333 0 24.5 4.66699 33.5 14z" />
    <glyph glyph-name="endash" unicode="&#x2013;" horiz-adv-x="417" 
d="M0 403h417v-115h-417v115z" />
    <glyph glyph-name="emdash" unicode="&#x2014;" horiz-adv-x="833" 
d="M0 403h833v-115h-833v115z" />
    <glyph glyph-name="quoteleft" unicode="&#x2018;" horiz-adv-x="193" 
d="M155 433h-117v200l117 99v-299zM84 690z" />
    <glyph glyph-name="quoteright" unicode="&#x2019;" horiz-adv-x="193" 
d="M38 690h117v-200l-117 -99v299z" />
    <glyph glyph-name="quotesinglbase" unicode="&#x201a;" horiz-adv-x="193" 
d="M38 137h117v-200l-117 -99v299z" />
    <glyph glyph-name="quotedblleft" unicode="&#x201c;" horiz-adv-x="383" 
d="M155 433h-117v200l117 99v-299zM345 433h-117v200l117 99v-299zM201 690z" />
    <glyph glyph-name="quotedblright" unicode="&#x201d;" horiz-adv-x="383" 
d="M38 690h117v-200l-117 -99v299zM228 690h117v-200l-117 -99v299z" />
    <glyph glyph-name="quotedblbase" unicode="&#x201e;" horiz-adv-x="382" 
d="M227 137h117v-200l-117 -99v299zM38 137h117v-200l-117 -99v299z" />
    <glyph glyph-name="dagger" unicode="&#x2020;" horiz-adv-x="545" 
d="M491 360h-152v-516h-131v516h-154v114h154v216h131v-216h152v-114z" />
    <glyph glyph-name="daggerdbl" unicode="&#x2021;" horiz-adv-x="545" 
d="M339 367v-195h152v-115h-152v-213h-131v213h-154v115h154v195h-154v115h154v208h131v-208h152v-115h-152z" />
    <glyph glyph-name="bullet" unicode="&#x2022;" horiz-adv-x="453" 
d="M122 203c-27.333 27.333 -41 62.333 -41 105s13.667 77.667 41 105s62.333 41 105 41c42 0 76.667 -13.667 104 -41s41 -62.333 41 -105s-13.667 -77.667 -41 -105s-62 -41 -104 -41c-42.667 0 -77.667 13.667 -105 41z" />
    <glyph glyph-name="ellipsis" unicode="&#x2026;" horiz-adv-x="773" 
d="M38 142h139v-142h-139v142zM596 142h139v-142h-139v142zM317 142h139v-142h-139v142z" />
    <glyph glyph-name="perthousand" unicode="&#x2030;" horiz-adv-x="1254" 
d="M72.5 301.5c-21.667 25 -32.499 62.167 -32.499 111.5v142c0 46.668 11.5 81.835 34.5 105.5c23 23.667 56.5 35.5 100.5 35.5c46 0 79.833 -11.667 101.5 -35c21.667 -23.335 32.5 -58.668 32.5 -106v-142c0 -49.333 -10.833 -86.5 -32.5 -111.5
s-55.5 -37.5 -101.5 -37.5c-46.667 0 -80.834 12.5 -102.501 37.5zM595.001 695h99l-386 -695h-98zM201.001 366c3.33301 8.66699 5 26.001 5 52.001v124c0 25.333 -1.83301 42.666 -5.5 51.999s-12.167 14 -25.5 14s-22 -4.66699 -26 -14c-4 -9.33398 -6 -26.667 -6 -52
v-124c0 -24.667 1.83301 -41.667 5.5 -51s12.5 -14 26.5 -14s22.667 4.33301 26 13zM626.501 31.501c-21.667 25 -32.499 62.165 -32.499 111.498v142c0 46.667 11.5 81.834 34.5 105.501s56.5 35.5 100.5 35.5c46 0 79.833 -11.667 101.5 -35s32.5 -58.666 32.5 -105.999
v-142c0 -49.333 -10.833 -86.5 -32.5 -111.5s-55.5 -37.5 -101.5 -37.5c-46.667 0 -80.834 12.5 -102.501 37.5zM976.502 31.499c-21.667 25 -32.499 62.165 -32.499 111.498v142c0 46.667 11.5 81.834 34.5 105.501s56.5 35.5 100.5 35.5c46 0 79.833 -11.667 101.5 -35
s32.5 -58.666 32.5 -105.999v-142c0 -49.333 -10.833 -86.5 -32.5 -111.5s-55.5 -37.5 -101.5 -37.5c-46.667 0 -80.834 12.5 -102.501 37.5zM755.003 95.9971c3.33301 8.66699 5 25.999 5 51.999v124c0 25.334 -1.83301 42.667 -5.5 52s-12.167 14 -25.5 14
s-22 -4.66699 -26 -14s-6 -26.666 -6 -51.999v-124c0 -24.667 1.83301 -41.667 5.5 -51s12.5 -14 26.5 -14s22.667 4.33301 26 13zM1105 95.9961c3.33301 8.66699 5 25.999 5 51.999v124c0 25.334 -1.83301 42.667 -5.5 52s-12.167 14 -25.5 14s-22 -4.66699 -26 -14
s-6 -26.666 -6 -51.999v-124c0 -24.667 1.83301 -41.667 5.5 -51s12.5 -14 26.5 -14s22.667 4.33301 26 13z" />
    <glyph glyph-name="guilsinglleft" unicode="&#x2039;" horiz-adv-x="298" 
d="M18 264l226 227v-131l-95 -96l95 -96v-131z" />
    <glyph glyph-name="guilsinglright" unicode="&#x203a;" horiz-adv-x="308" 
d="M54 168l96 96l-96 96v131l227 -227l-227 -227v131z" />
    <glyph glyph-name="Euro" unicode="&#x20ac;" horiz-adv-x="549" 
d="M136 50.5c-36.667 41 -54.999 97.167 -54.999 168.5v22h-54v81h54v50h-54v81h54v24c0 68.667 18.5 123 55.5 163s89.833 60 158.5 60c59.333 0 107 -15.833 143 -47.5s56 -75.5 60 -131.5h-112c-9.33301 48.667 -39 73 -89 73c-62.667 0 -94 -39.333 -94 -118v-23h193
l-14 -81h-179v-50h172l-14 -81h-158v-23c0 -38.667 7.66699 -68.834 23 -90.501s39.333 -32.5 72 -32.5c26 0 46.5 6.16699 61.5 18.5s25.167 30.833 30.5 55.5h109c-5.33301 -59.333 -26.5 -104.166 -63.5 -134.499s-84.167 -45.5 -141.5 -45.5
c-68.667 0 -121.334 20.5 -158.001 61.5z" />
    <glyph glyph-name="trademark" unicode="&#x2122;" horiz-adv-x="810" 
d="M136 609h-106v81h303v-81h-106v-313h-91v313zM389 690h84l97 -227h3l95 227h83v-394h-84v206h-3l-63 -149h-61l-64 149h-2v-206h-85v394z" />
    <glyph glyph-name=".null" horiz-adv-x="0" 
 />
    <glyph glyph-name="NULL" 
 />
    <glyph glyph-name="t_t" horiz-adv-x="673" 
d="M541 433v-275c0 -35.333 17 -53 51 -53h39v-105h-59c-47.334 0 -84.834 13.5 -112.5 40.5c-27.667 27 -41.5 63.5 -41.5 109.5v283h-198v-275c0 -35.333 17 -53 51 -53h39v-105h-59c-47.333 0 -84.833 13.5 -112.5 40.5s-41.5 63.5 -41.5 109.5v283h-72v87h72v102l123 43
v-145h198v102l123 43v-145h100v-87h-100z" />
    <glyph glyph-name="zero.dnom" horiz-adv-x="350" 
d="M72.5 30.5c-21.667 25 -32.499 62.165 -32.499 111.498v142c0 46.667 11.5 81.834 34.5 105.501s56.5 35.5 100.5 35.5c46 0 79.833 -11.667 101.5 -35s32.5 -58.666 32.5 -105.999v-142c0 -49.333 -10.833 -86.5 -32.5 -111.5s-55.5 -37.5 -101.5 -37.5
c-46.667 0 -80.834 12.5 -102.501 37.5zM201.001 94.998c3.33301 8.66699 5 25.999 5 51.999v124c0 25.334 -1.83301 42.667 -5.5 52s-12.167 14 -25.5 14s-22 -4.66699 -26 -14s-6 -26.666 -6 -51.999v-124c0 -24.667 1.83301 -41.667 5.5 -51s12.5 -14 26.5 -14
s22.667 4.33301 26 13z" />
    <glyph glyph-name="one.dnom" horiz-adv-x="253" 
d="M97 307l-68 -48v110l69 50h102v-419h-103v307z" />
    <glyph glyph-name="two.dnom" horiz-adv-x="346" 
d="M44 80l137 170.998c13.333 16.667 20 32.334 20 47.001v7c0 10.667 -2.66699 19.167 -8 25.5s-13 9.5 -23 9.5c-9.33398 0 -16.667 -3.33301 -22 -10s-8 -15.667 -8 -27v-9h-99v15c0 34.667 12 62.834 36 84.501s56.667 32.5 98 32.5c39.333 0 71 -11.333 95 -34
s36 -50 36 -82v-11c0 -18.667 -3.33301 -35.5 -10 -50.5s-16.667 -30.5 -30 -46.5l-92 -113h132v-89h-262v80z" />
    <glyph glyph-name="three.dnom" horiz-adv-x="341" 
d="M71.5 22c-23 19.333 -34.5 47.335 -34.5 84.002v15h93v-10c0 -22 12.333 -33 37 -33c10.667 0 19.167 3.5 25.5 10.5s9.5 16.833 9.5 29.5v9c0 30 -14.333 45 -43 45h-21v85h20c12 0 21.167 3.33301 27.5 10s9.5 16 9.5 28v8c0 24.667 -10.333 37 -31 37
c-22 0 -33 -10.333 -33 -31v-11h-92v10c0 37.333 11.333 66.333 34 87s54.334 31 95.001 31c39.333 0 70.166 -10.333 92.499 -31s33.5 -48.334 33.5 -83v-9c0 -36 -15.333 -62.667 -46 -80c17.333 -6.66699 30.5 -18.334 39.5 -35.001s13.5 -36.334 13.5 -59.001v-11
c0 -38 -12.333 -68.333 -37 -91s-56 -34 -94 -34c-42.667 0 -75.5 9.66699 -98.5 29z" />
    <glyph glyph-name="four.dnom" horiz-adv-x="347" 
d="M322 57h-27v-57h-103v57h-162v89l115 273h103l-115 -273h59v88h103v-88h27v-89z" />
    <glyph glyph-name="zero.numr" horiz-adv-x="350" 
d="M72.5 301.5c-21.667 25 -32.499 62.167 -32.499 111.5v142c0 46.668 11.5 81.835 34.5 105.5c23 23.667 56.5 35.5 100.5 35.5c46 0 79.833 -11.667 101.5 -35c21.667 -23.335 32.5 -58.668 32.5 -106v-142c0 -49.333 -10.833 -86.5 -32.5 -111.5
s-55.5 -37.5 -101.5 -37.5c-46.667 0 -80.834 12.5 -102.501 37.5zM201.001 366c3.33301 8.66699 5 26.001 5 52.001v124c0 25.333 -1.83301 42.666 -5.5 51.999s-12.167 14 -25.5 14s-22 -4.66699 -26 -14c-4 -9.33398 -6 -26.667 -6 -52v-124
c0 -24.667 1.83301 -41.667 5.5 -51s12.5 -14 26.5 -14s22.667 4.33301 26 13z" />
    <glyph glyph-name="one.numr" horiz-adv-x="253" 
d="M97 578l-68 -48v110l69 50h102v-419h-103v307z" />
    <glyph glyph-name="two.numr" horiz-adv-x="346" 
d="M44 351l137 171c13.333 16.6689 20 32.3359 20 47v7c0 10.667 -2.66699 19.167 -8 25.5s-13 9.5 -23 9.5c-9.33398 0 -16.667 -3.33301 -22 -10s-8 -15.667 -8 -27v-9h-99v15c0 34.668 12 62.835 36 84.5c24 21.667 56.667 32.5 98 32.5c39.333 0 71 -11.333 95 -34
s36 -50 36 -82v-11c0 -18.667 -3.33301 -35.5 -10 -50.5s-16.667 -30.5 -30 -46.5l-92 -113h132v-89h-262v80z" />
    <glyph glyph-name="three.numr" horiz-adv-x="341" 
d="M71.5 293c-23 19.333 -34.5 47.334 -34.5 84.001v15h93v-10c0 -22 12.333 -33 37 -33c10.667 0 19.167 3.5 25.5 10.5s9.5 16.833 9.5 29.5v9c0 30 -14.333 45 -43 45h-21v85h20c12 0 21.167 3.33301 27.5 10s9.5 16 9.5 28v8c0 24.667 -10.333 37 -31 37
c-22 0 -33 -10.333 -33 -31v-11h-92v10c0 37.333 11.333 66.333 34 87s54.334 31 95.001 31c39.333 0 70.166 -10.333 92.499 -31s33.5 -48.334 33.5 -83.001v-9c0 -36 -15.333 -62.667 -46 -80c17.333 -6.66699 30.5 -18.334 39.5 -35c9 -16.667 13.5 -36.334 13.5 -59v-11
c0 -38 -12.333 -68.333 -37 -91s-56 -34 -94 -34c-42.667 0 -75.5 9.66699 -98.5 29z" />
    <glyph glyph-name="four.numr" horiz-adv-x="347" 
d="M322 328h-27v-57h-103v57h-162v89l115 273h103l-115 -273h59v88h103v-88h27v-89z" />
    <glyph glyph-name="zero.sups" horiz-adv-x="350" 
d="M72.5 460.5c-21.667 25 -32.499 62.168 -32.499 111.501v142c0 46.668 11.5 81.835 34.5 105.5c23 23.667 56.5 35.5 100.5 35.5c46 0 79.833 -11.667 101.5 -35c21.667 -23.335 32.5 -58.668 32.5 -106v-142c0 -49.334 -10.833 -86.501 -32.5 -111.501
s-55.5 -37.5 -101.5 -37.5c-46.667 0 -80.834 12.5 -102.501 37.5zM201.001 525.001c3.33301 8.66699 5 26.001 5 52.001v124c0 25.333 -1.83301 42.666 -5.5 51.999s-12.167 14 -25.5 14s-22 -4.66699 -26 -14c-4 -9.33594 -6 -26.6689 -6 -52v-124
c0 -24.667 1.83301 -41.667 5.5 -51s12.5 -14 26.5 -14s22.667 4.33301 26 13z" />
    <glyph glyph-name="one.sups" horiz-adv-x="253" 
d="M97 737l-68 -48v110l69 50h102v-419h-103v307z" />
    <glyph glyph-name="two.sups" horiz-adv-x="346" 
d="M44 510l137 171c13.333 16.6689 20 32.3359 20 47v7c0 10.667 -2.66699 19.167 -8 25.5s-13 9.5 -23 9.5c-9.33398 0 -16.667 -3.33301 -22 -10s-8 -15.667 -8 -27v-9h-99v15c0 34.668 12 62.835 36 84.5c24 21.667 56.667 32.5 98 32.5c39.333 0 71 -11.333 95 -34
s36 -50 36 -82v-11c0 -18.667 -3.33301 -35.5 -10 -50.5s-16.667 -30.5 -30 -46.5l-92 -113h132v-89h-262v80z" />
    <glyph glyph-name="three.sups" horiz-adv-x="341" 
d="M71.5 452c-23 19.333 -34.5 47.3359 -34.5 84.0029v15h93v-10c0 -22 12.333 -33 37 -33c10.667 0 19.167 3.5 25.5 10.5s9.5 16.833 9.5 29.5v9c0 30 -14.333 45 -43 45h-21v85h20c12 0 21.167 3.33301 27.5 10s9.5 16 9.5 28v8c0 24.667 -10.333 37 -31 37
c-22 0 -33 -10.333 -33 -31v-11h-92v10c0 37.333 11.333 66.333 34 87s54.334 31 95.001 31c39.333 0 70.166 -10.333 92.499 -31s33.5 -48.334 33.5 -83.001v-9c0 -36 -15.333 -62.667 -46 -80c17.333 -6.66699 30.5 -18.334 39.5 -35.001s13.5 -36.334 13.5 -59.001v-11
c0 -38 -12.333 -68.333 -37 -91s-56 -34 -94 -34c-42.667 0 -75.5 9.66699 -98.5 29z" />
    <glyph glyph-name="four.sups" horiz-adv-x="347" 
d="M322 487h-27v-57h-103v57h-162v89l115 273h103l-115 -273h59v88h103v-88h27v-89z" />
    <glyph glyph-name="glyph249" horiz-adv-x="204" 
d="M250 695h99l-386 -695h-98z" />
    </font>
</defs>
</svg>
