<?xml version="1.0" standalone="no"?>
<!DOCTYPE svg PUBLIC "-//W3C//DTD SVG 1.1//EN" "http://www.w3.org/Graphics/SVG/1.1/DTD/svg11.dtd" >
<svg xmlns="http://www.w3.org/2000/svg" xmlns:xlink="http://www.w3.org/1999/xlink" version="1.1">
<metadata>
Created by FontForge 20170924 at Fri May 17 01:04:53 2019
 By www-data
Daniel Brokstad \(c\) 2019
</metadata>
<defs>
<font id="LuciferSans-WideRegular" horiz-adv-x="880" >
  <font-face 
    font-family="Lucifer Sans Wide"
    font-weight="400"
    font-stretch="ultra-expanded"
    units-per-em="1000"
    panose-1="0 0 5 7 0 0 0 0 0 0"
    ascent="800"
    descent="-200"
    x-height="500"
    cap-height="750"
    bbox="-749 -311 1508 1194.94"
    underline-thickness="50"
    underline-position="-100"
    stemh="100"
    stemv="100"
    unicode-range="U+0020-1F636"
  />
<missing-glyph horiz-adv-x="475" 
d="M390 750v-950h-302v950h302zM316 686h-156v-31h61v-35h-62v-31h157v31h-62v35h62v31zM254 564h-95v-99h157v32h-62v67zM221 532v-35h-31v35h31zM316 439h-157v-31h62v-35h-62v-31h95v66h62v31zM316 382h-31v-62h-126v-33h157v95zM316 266h-95v-53h33v22h31v-45h-95v76
h-31v-107h157v107zM316 102h-157v-107h157v107zM285 71v-45h-95v45h95zM316 -27h-157v-31h66l-66 -45v-31h157v31h-97l67 45h30v31z" />
    <glyph glyph-name="fi" unicode="fi" horiz-adv-x="633" 
d="M563 500v-500h-100v400h-192v-400h-100v400h-145v100h145v250h245v-100h-145v-150h292zM586 642l-73 -73l-74 73l74 73z" />
    <glyph glyph-name="fl" unicode="fl" horiz-adv-x="663" 
d="M593 750v-750h-100v650h-222v-150h145v-100h-145v-400h-100v400h-145v100h145v250h422z" />
    <glyph glyph-name=".notdef" horiz-adv-x="475" 
d="M390 750v-950h-302v950h302zM316 686h-156v-31h61v-35h-62v-31h157v31h-62v35h62v31zM254 564h-95v-99h157v32h-62v67zM221 532v-35h-31v35h31zM316 439h-157v-31h62v-35h-62v-31h95v66h62v31zM316 382h-31v-62h-126v-33h157v95zM316 266h-95v-53h33v22h31v-45h-95v76
h-31v-107h157v107zM316 102h-157v-107h157v107zM285 71v-45h-95v45h95zM316 -27h-157v-31h66l-66 -45v-31h157v31h-97l67 45h30v31z" />
    <glyph glyph-name="space" unicode=" " horiz-adv-x="340" 
 />
    <glyph glyph-name="A" unicode="A" horiz-adv-x="953" 
d="M813 0l-128 247h-418l-128 -247h-113l390 750h120l390 -750h-113zM319 347h314l-157 303z" />
    <glyph glyph-name="A.ss01" horiz-adv-x="947" 
d="M911 6v-1l-100 -11c-31 223 -209 330 -429 327c-71 -145 -170 -259 -289 -339l-59 80c89 59 166 143 227 246c-51 -10 -102 -24 -154 -44l-27 96c79 29 158 47 235 53c41 96 70 203 83 319l103 32c163 -86 358 -311 409 -753c1 -2 1 -3 1 -5zM424 416
c120 -6 230 -41 315 -105c-67 179 -164 287 -251 346c-15 -87 -36 -167 -64 -241z" />
    <glyph glyph-name="A.ss02" 
d="M70 750h740v-750h-100v247h-540v-247h-100v750zM170 347h540v303h-540v-303z" />
    <glyph glyph-name="Aacute" unicode="&#xc1;" horiz-adv-x="953" 
d="M665 950l-137 -130h-92l103 130h126zM813 0l-128 247h-418l-128 -247h-113l390 750h120l390 -750h-113zM319 347h314l-157 303z" />
    <glyph glyph-name="Aacute.ss01" horiz-adv-x="947" 
d="M657 950l-137 -130h-92l103 130h126zM911 6v-1l-100 -11c-31 223 -209 330 -429 327c-71 -145 -170 -259 -289 -339l-59 80c89 59 166 143 227 246c-51 -10 -102 -24 -154 -44l-27 96c79 29 158 47 235 53c41 96 70 203 83 319l103 32c163 -86 358 -311 409 -753
c1 -2 1 -3 1 -5zM424 416c120 -6 230 -41 315 -105c-67 179 -164 287 -251 346c-15 -87 -36 -167 -64 -241z" />
    <glyph glyph-name="Aacute.ss02" 
d="M629 950l-137 -130h-92l103 130h126zM70 750h740v-750h-100v247h-540v-247h-100v750zM170 347h540v303h-540v-303z" />
    <glyph glyph-name="Abreve" unicode="&#x102;" horiz-adv-x="953" 
d="M477 808c-84 0 -154 63 -153 142h83c0 -34 31 -63 70 -63c38 0 70 28 70 63h83c0 -79 -69 -142 -153 -142zM813 0l-128 247h-418l-128 -247h-113l390 750h120l390 -750h-113zM319 347h314l-157 303z" />
    <glyph glyph-name="Abreve.ss01" horiz-adv-x="947" 
d="M469 808c-84 0 -154 63 -153 142h83c0 -34 31 -63 70 -63c38 0 70 28 70 63h83c0 -79 -69 -142 -153 -142zM911 6v-1l-100 -11c-31 223 -209 330 -429 327c-71 -145 -170 -259 -289 -339l-59 80c89 59 166 143 227 246c-51 -10 -102 -24 -154 -44l-27 96
c79 29 158 47 235 53c41 96 70 203 83 319l103 32c163 -86 358 -311 409 -753c1 -2 1 -3 1 -5zM424 416c120 -6 230 -41 315 -105c-67 179 -164 287 -251 346c-15 -87 -36 -167 -64 -241z" />
    <glyph glyph-name="Abreve.ss02" 
d="M440 808c-84 0 -154 63 -153 142h83c0 -34 31 -63 70 -63c38 0 70 28 70 63h83c0 -79 -69 -142 -153 -142zM70 750h740v-750h-100v247h-540v-247h-100v750zM170 347h540v303h-540v-303z" />
    <glyph glyph-name="uni1EAE" unicode="&#x1eae;" horiz-adv-x="953" 
d="M665 1126l-137 -130h-92l102 130h127zM476 808c-84 0 -154 63 -153 142h83c0 -34 31 -63 70 -63c38 0 70 28 70 63h83c0 -79 -69 -142 -153 -142zM813 0l-128 247h-418l-128 -247h-113l390 750h120l390 -750h-113zM319 347h314l-157 303z" />
    <glyph glyph-name="uni1EAE.ss01" horiz-adv-x="947" 
d="M658 1126l-137 -130h-92l102 130h127zM469 808c-84 0 -154 63 -153 142h83c0 -34 31 -63 70 -63c38 0 70 28 70 63h83c0 -79 -69 -142 -153 -142zM911 6v-1l-100 -11c-31 223 -209 330 -429 327c-71 -145 -170 -259 -289 -339l-59 80c89 59 166 143 227 246
c-51 -10 -102 -24 -154 -44l-27 96c79 29 158 47 235 53c41 96 70 203 83 319l103 32c163 -86 358 -311 409 -753c1 -2 1 -3 1 -5zM424 416c120 -6 230 -41 315 -105c-67 179 -164 287 -251 346c-15 -87 -36 -167 -64 -241z" />
    <glyph glyph-name="uni1EAE.ss02" 
d="M629 1126l-137 -130h-92l102 130h127zM440 808c-84 0 -154 63 -153 142h83c0 -34 31 -63 70 -63c38 0 70 28 70 63h83c0 -79 -69 -142 -153 -142zM70 750h740v-750h-100v247h-540v-247h-100v750zM170 347h540v303h-540v-303z" />
    <glyph glyph-name="uni1EB6" unicode="&#x1eb6;" horiz-adv-x="953" 
d="M476 808c-84 0 -154 63 -153 142h83c0 -34 31 -63 70 -63c38 0 70 28 70 63h83c0 -79 -69 -142 -153 -142zM926 0h-113l-128 247h-418l-128 -247h-113l390 750h120zM319 347h314l-157 303zM403 -116l73 73l73 -73l-73 -73z" />
    <glyph glyph-name="uni1EB6.ss01" horiz-adv-x="947" 
d="M469 808c-84 0 -154 63 -153 142h83c0 -34 31 -63 70 -63c38 0 70 28 70 63h83c0 -79 -69 -142 -153 -142zM911 6v-1l-100 -11c-31 223 -209 330 -429 327c-71 -145 -170 -259 -289 -339l-59 80c89 59 166 143 227 246c-51 -10 -102 -24 -154 -44l-27 96
c79 29 158 47 235 53c41 96 70 203 83 319l103 32c163 -86 358 -311 409 -753c1 -2 1 -3 1 -5zM424 416c120 -6 230 -41 315 -105c-67 179 -164 287 -251 346c-15 -87 -36 -167 -64 -241zM395 -116l73 73l73 -73l-73 -73z" />
    <glyph glyph-name="uni1EB6.ss02" 
d="M440 808c-84 0 -154 63 -153 142h83c0 -34 31 -63 70 -63c38 0 70 28 70 63h83c0 -79 -69 -142 -153 -142zM70 750h740v-750h-100v247h-540v-247h-100v750zM170 347h540v303h-540v-303zM367 -116l73 73l73 -73l-73 -73z" />
    <glyph glyph-name="uni1EB0" unicode="&#x1eb0;" horiz-adv-x="953" 
d="M508 996h-91l-138 130h127zM406 950c0 -34 31 -63 70 -63c38 0 70 28 70 63h83c0 -79 -69 -142 -153 -142s-154 63 -153 142h83zM813 0l-128 247h-418l-128 -247h-113l390 750h120l390 -750h-113zM319 347h314l-157 303z" />
    <glyph glyph-name="uni1EB0.ss01" horiz-adv-x="947" 
d="M501 996h-91l-138 130h127zM399 950c0 -34 31 -63 70 -63c38 0 70 28 70 63h83c0 -79 -69 -142 -153 -142s-154 63 -153 142h83zM911 6v-1l-100 -11c-31 223 -209 330 -429 327c-71 -145 -170 -259 -289 -339l-59 80c89 59 166 143 227 246c-51 -10 -102 -24 -154 -44
l-27 96c79 29 158 47 235 53c41 96 70 203 83 319l103 32c163 -86 358 -311 409 -753c1 -2 1 -3 1 -5zM424 416c120 -6 230 -41 315 -105c-67 179 -164 287 -251 346c-15 -87 -36 -167 -64 -241z" />
    <glyph glyph-name="uni1EB0.ss02" 
d="M472 996h-91l-138 130h127zM370 950c0 -34 31 -63 70 -63c38 0 70 28 70 63h83c0 -79 -69 -142 -153 -142s-154 63 -153 142h83zM70 750h740v-750h-100v247h-540v-247h-100v750zM170 347h540v303h-540v-303z" />
    <glyph glyph-name="uni1EB2" unicode="&#x1eb2;" horiz-adv-x="953" 
d="M481 1099c-28 29 -71 11 -83 -31l-52 51c37 88 136 97 194 40c59 -60 47 -161 -39 -196l-51 53c44 12 60 55 31 83zM476 808c-84 0 -154 63 -153 142h83c0 -34 31 -63 70 -63c38 0 70 28 70 63h83c0 -79 -69 -142 -153 -142zM813 0l-128 247h-418l-128 -247h-113l390 750
h120l390 -750h-113zM319 347h314l-157 303z" />
    <glyph glyph-name="uni1EB2.ss01" horiz-adv-x="947" 
d="M474 1099c-28 29 -71 11 -83 -31l-52 51c37 88 136 97 194 40c59 -60 47 -161 -39 -196l-51 53c44 12 60 55 31 83zM469 808c-84 0 -154 63 -153 142h83c0 -34 31 -63 70 -63c38 0 70 28 70 63h83c0 -79 -69 -142 -153 -142zM911 6v-1l-100 -11
c-31 223 -209 330 -429 327c-71 -145 -170 -259 -289 -339l-59 80c89 59 166 143 227 246c-51 -10 -102 -24 -154 -44l-27 96c79 29 158 47 235 53c41 96 70 203 83 319l103 32c163 -86 358 -311 409 -753c1 -2 1 -3 1 -5zM424 416c120 -6 230 -41 315 -105
c-67 179 -164 287 -251 346c-15 -87 -36 -167 -64 -241z" />
    <glyph glyph-name="uni1EB2.ss02" 
d="M445 1099c-28 29 -71 11 -83 -31l-52 51c37 88 136 97 194 40c59 -60 47 -161 -39 -196l-51 53c44 12 60 55 31 83zM440 808c-84 0 -154 63 -153 142h83c0 -34 31 -63 70 -63c38 0 70 28 70 63h83c0 -79 -69 -142 -153 -142zM70 750h740v-750h-100v247h-540v-247h-100
v750zM170 347h540v303h-540v-303z" />
    <glyph glyph-name="uni1EB4" unicode="&#x1eb4;" horiz-adv-x="953" 
d="M323 984c-57 51 -30 160 75 160c103 0 91 -102 145 -102c47 0 51 63 -8 92h94c56 -49 32 -160 -76 -160c-101 0 -88 101 -143 101c-48 0 -51 -58 8 -91h-95zM476 887c38 0 70 28 70 63h83c0 -79 -69 -142 -153 -142s-154 63 -153 142h83c0 -34 31 -63 70 -63zM813 0
l-128 247h-418l-128 -247h-113l390 750h120l390 -750h-113zM319 347h314l-157 303z" />
    <glyph glyph-name="uni1EB4.ss01" horiz-adv-x="947" 
d="M315 984c-57 51 -30 160 75 160c103 0 91 -102 145 -102c47 0 51 63 -8 92h94c56 -49 32 -160 -76 -160c-101 0 -88 101 -143 101c-48 0 -51 -58 8 -91h-95zM468 887c38 0 70 28 70 63h83c0 -79 -69 -142 -153 -142s-154 63 -153 142h83c0 -34 31 -63 70 -63zM911 6v-1
l-100 -11c-31 223 -209 330 -429 327c-71 -145 -170 -259 -289 -339l-59 80c89 59 166 143 227 246c-51 -10 -102 -24 -154 -44l-27 96c79 29 158 47 235 53c41 96 70 203 83 319l103 32c163 -86 358 -311 409 -753c1 -2 1 -3 1 -5zM424 416c120 -6 230 -41 315 -105
c-67 179 -164 287 -251 346c-15 -87 -36 -167 -64 -241z" />
    <glyph glyph-name="uni1EB4.ss02" 
d="M287 984c-57 51 -30 160 75 160c103 0 91 -102 145 -102c47 0 51 63 -8 92h94c56 -49 32 -160 -76 -160c-101 0 -88 101 -143 101c-48 0 -51 -58 8 -91h-95zM440 887c38 0 70 28 70 63h83c0 -79 -69 -142 -153 -142s-154 63 -153 142h83c0 -34 31 -63 70 -63zM70 750h740
v-750h-100v247h-540v-247h-100v750zM170 347h540v303h-540v-303z" />
    <glyph glyph-name="uni01CD" unicode="&#x1cd;" horiz-adv-x="953" 
d="M417 820l-129 130h103l85 -91l85 91h103l-129 -130h-118zM813 0l-128 247h-418l-128 -247h-113l390 750h120l390 -750h-113zM319 347h314l-157 303z" />
    <glyph glyph-name="uni01CD.ss01" horiz-adv-x="947" 
d="M409 820l-129 130h103l85 -91l85 91h103l-129 -130h-118zM911 6v-1l-100 -11c-31 223 -209 330 -429 327c-71 -145 -170 -259 -289 -339l-59 80c89 59 166 143 227 246c-51 -10 -102 -24 -154 -44l-27 96c79 29 158 47 235 53c41 96 70 203 83 319l103 32
c163 -86 358 -311 409 -753c1 -2 1 -3 1 -5zM424 416c120 -6 230 -41 315 -105c-67 179 -164 287 -251 346c-15 -87 -36 -167 -64 -241z" />
    <glyph glyph-name="uni01CD.ss02" 
d="M381 820l-129 130h103l85 -91l85 91h103l-129 -130h-118zM70 750h740v-750h-100v247h-540v-247h-100v750zM170 347h540v303h-540v-303z" />
    <glyph glyph-name="Acircumflex" unicode="&#xc2;" horiz-adv-x="953" 
d="M480 911l-85 -91h-103l129 130h118l129 -130h-103zM813 0l-128 247h-418l-128 -247h-113l390 750h120l390 -750h-113zM319 347h314l-157 303z" />
    <glyph glyph-name="Acircumflex.ss01" horiz-adv-x="947" 
d="M468 911l-85 -91h-103l129 130h118l129 -130h-103zM911 6v-1l-100 -11c-31 223 -209 330 -429 327c-71 -145 -170 -259 -289 -339l-59 80c89 59 166 143 227 246c-51 -10 -102 -24 -154 -44l-27 96c79 29 158 47 235 53c41 96 70 203 83 319l103 32
c163 -86 358 -311 409 -753c1 -2 1 -3 1 -5zM424 416c120 -6 230 -41 315 -105c-67 179 -164 287 -251 346c-15 -87 -36 -167 -64 -241z" />
    <glyph glyph-name="Acircumflex.ss02" 
d="M440 911l-85 -91h-103l129 130h118l129 -130h-103zM70 750h740v-750h-100v247h-540v-247h-100v750zM170 347h540v303h-540v-303z" />
    <glyph glyph-name="uni1EA4" unicode="&#x1ea4;" horiz-adv-x="953" 
d="M666 1124l-138 -130h-92l103 130h127zM476 911l-85 -91h-103l129 130h118l129 -130h-103zM813 0l-128 247h-418l-128 -247h-113l390 750h120l390 -750h-113zM319 347h314l-157 303z" />
    <glyph glyph-name="uni1EA4.ss01" horiz-adv-x="947" 
d="M658 1124l-138 -130h-92l103 130h127zM468 911l-85 -91h-103l129 130h118l129 -130h-103zM911 6v-1l-100 -11c-31 223 -209 330 -429 327c-71 -145 -170 -259 -289 -339l-59 80c89 59 166 143 227 246c-51 -10 -102 -24 -154 -44l-27 96c79 29 158 47 235 53
c41 96 70 203 83 319l103 32c163 -86 358 -311 409 -753c1 -2 1 -3 1 -5zM424 416c120 -6 230 -41 315 -105c-67 179 -164 287 -251 346c-15 -87 -36 -167 -64 -241z" />
    <glyph glyph-name="uni1EA4.ss02" 
d="M630 1124l-138 -130h-92l103 130h127zM440 911l-85 -91h-103l129 130h118l129 -130h-103zM70 750h740v-750h-100v247h-540v-247h-100v750zM170 347h540v303h-540v-303z" />
    <glyph glyph-name="uni1EAC" unicode="&#x1eac;" horiz-adv-x="953" 
d="M476 911l-85 -91h-103l129 130h118l129 -130h-103zM926 0h-113l-128 247h-418l-128 -247h-113l390 750h120zM319 347h314l-157 303zM403 -116l73 73l73 -73l-73 -73z" />
    <glyph glyph-name="uni1EAC.ss01" horiz-adv-x="947" 
d="M468 911l-85 -91h-103l129 130h118l129 -130h-103zM911 6v-1l-100 -11c-31 223 -209 330 -429 327c-71 -145 -170 -259 -289 -339l-59 80c89 59 166 143 227 246c-51 -10 -102 -24 -154 -44l-27 96c79 29 158 47 235 53c41 96 70 203 83 319l103 32
c163 -86 358 -311 409 -753c1 -2 1 -3 1 -5zM424 416c120 -6 230 -41 315 -105c-67 179 -164 287 -251 346c-15 -87 -36 -167 -64 -241zM395 -116l73 73l73 -73l-73 -73z" />
    <glyph glyph-name="uni1EAC.ss02" 
d="M440 911l-85 -91h-103l129 130h118l129 -130h-103zM70 750h740v-750h-100v247h-540v-247h-100v750zM170 347h540v303h-540v-303zM367 -116l73 73l73 -73l-73 -73z" />
    <glyph glyph-name="uni1EA6" unicode="&#x1ea6;" horiz-adv-x="953" 
d="M508 994h-91l-138 130h127zM417 950h118l129 -130h-103l-85 91l-85 -91h-103zM813 0l-128 247h-418l-128 -247h-113l390 750h120l390 -750h-113zM319 347h314l-157 303z" />
    <glyph glyph-name="uni1EA6.ss01" horiz-adv-x="947" 
d="M501 994h-91l-138 130h127zM410 950h118l129 -130h-103l-85 91l-85 -91h-103zM911 6v-1l-100 -11c-31 223 -209 330 -429 327c-71 -145 -170 -259 -289 -339l-59 80c89 59 166 143 227 246c-51 -10 -102 -24 -154 -44l-27 96c79 29 158 47 235 53c41 96 70 203 83 319
l103 32c163 -86 358 -311 409 -753c1 -2 1 -3 1 -5zM424 416c120 -6 230 -41 315 -105c-67 179 -164 287 -251 346c-15 -87 -36 -167 -64 -241z" />
    <glyph glyph-name="uni1EA6.ss02" 
d="M472 994h-91l-138 130h127zM381 950h118l129 -130h-103l-85 91l-85 -91h-103zM70 750h740v-750h-100v247h-540v-247h-100v750zM170 347h540v303h-540v-303z" />
    <glyph glyph-name="uni1EA8" unicode="&#x1ea8;" horiz-adv-x="953" 
d="M605 1045c-29 28 -72 10 -84 -31l-52 51c37 88 137 97 194 39c59 -59 47 -160 -39 -195l-51 53c44 12 60 55 32 83zM480 911l-85 -91h-103l129 130h118l129 -130h-103zM813 0l-128 247h-418l-128 -247h-113l390 750h120l390 -750h-113zM319 347h314l-157 303z" />
    <glyph glyph-name="uni1EA8.ss01" horiz-adv-x="947" 
d="M597 1045c-29 28 -72 10 -84 -31l-52 51c37 88 137 97 194 39c59 -59 47 -160 -39 -195l-51 53c44 12 60 55 32 83zM472 911l-85 -91h-103l129 130h118l129 -130h-103zM911 6v-1l-100 -11c-31 223 -209 330 -429 327c-71 -145 -170 -259 -289 -339l-59 80
c89 59 166 143 227 246c-51 -10 -102 -24 -154 -44l-27 96c79 29 158 47 235 53c41 96 70 203 83 319l103 32c163 -86 358 -311 409 -753c1 -2 1 -3 1 -5zM424 416c120 -6 230 -41 315 -105c-67 179 -164 287 -251 346c-15 -87 -36 -167 -64 -241z" />
    <glyph glyph-name="uni1EA8.ss02" 
d="M569 1045c-29 28 -72 10 -84 -31l-52 51c37 88 137 97 194 39c59 -59 47 -160 -39 -195l-51 53c44 12 60 55 32 83zM444 911l-85 -91h-103l129 130h118l129 -130h-103zM70 750h740v-750h-100v247h-540v-247h-100v750zM170 347h540v303h-540v-303z" />
    <glyph glyph-name="uni1EAA" unicode="&#x1eaa;" horiz-adv-x="953" 
d="M323 981c-57 52 -30 160 75 160c103 0 91 -102 145 -102c47 0 51 64 -8 92h94c56 -49 32 -160 -76 -160c-101 0 -88 102 -143 102c-48 0 -51 -58 8 -92h-95zM476 911l-85 -91h-103l129 130h118l129 -130h-103zM813 0l-128 247h-418l-128 -247h-113l390 750h120l390 -750
h-113zM319 347h314l-157 303z" />
    <glyph glyph-name="uni1EAA.ss01" horiz-adv-x="947" 
d="M315 981c-57 52 -30 160 75 160c103 0 91 -102 145 -102c47 0 51 64 -8 92h94c56 -49 32 -160 -76 -160c-101 0 -88 102 -143 102c-48 0 -51 -58 8 -92h-95zM468 911l-85 -91h-103l129 130h118l129 -130h-103zM911 6v-1l-100 -11c-31 223 -209 330 -429 327
c-71 -145 -170 -259 -289 -339l-59 80c89 59 166 143 227 246c-51 -10 -102 -24 -154 -44l-27 96c79 29 158 47 235 53c41 96 70 203 83 319l103 32c163 -86 358 -311 409 -753c1 -2 1 -3 1 -5zM424 416c120 -6 230 -41 315 -105c-67 179 -164 287 -251 346
c-15 -87 -36 -167 -64 -241z" />
    <glyph glyph-name="uni1EAA.ss02" 
d="M287 981c-57 52 -30 160 75 160c103 0 91 -102 145 -102c47 0 51 64 -8 92h94c56 -49 32 -160 -76 -160c-101 0 -88 102 -143 102c-48 0 -51 -58 8 -92h-95zM440 911l-85 -91h-103l129 130h118l129 -130h-103zM70 750h740v-750h-100v247h-540v-247h-100v750zM170 347h540
v303h-540v-303z" />
    <glyph glyph-name="Adieresis" unicode="&#xc4;" horiz-adv-x="953" 
d="M446 874l-64 -64l-64 64l64 64zM631 874l-64 -64l-64 64l64 64zM813 0l-128 247h-418l-128 -247h-113l390 750h120l390 -750h-113zM319 347h314l-157 303z" />
    <glyph glyph-name="Adieresis.ss01" horiz-adv-x="947" 
d="M439 874l-64 -64l-64 64l64 64zM624 874l-64 -64l-64 64l64 64zM911 6v-1l-100 -11c-31 223 -209 330 -429 327c-71 -145 -170 -259 -289 -339l-59 80c89 59 166 143 227 246c-51 -10 -102 -24 -154 -44l-27 96c79 29 158 47 235 53c41 96 70 203 83 319l103 32
c163 -86 358 -311 409 -753c1 -2 1 -3 1 -5zM424 416c120 -6 230 -41 315 -105c-67 179 -164 287 -251 346c-15 -87 -36 -167 -64 -241z" />
    <glyph glyph-name="Adieresis.ss02" 
d="M410 874l-64 -64l-64 64l64 64zM595 874l-64 -64l-64 64l64 64zM70 750h740v-750h-100v247h-540v-247h-100v750zM170 347h540v303h-540v-303z" />
    <glyph glyph-name="uni1EA0" unicode="&#x1ea0;" horiz-adv-x="953" 
d="M926 0h-113l-128 247h-418l-128 -247h-113l390 750h120zM319 347h314l-157 303zM403 -116l73 73l73 -73l-73 -73z" />
    <glyph glyph-name="uni1EA0.ss01" horiz-adv-x="947" 
d="M911 6v-1l-100 -11c-31 223 -209 330 -429 327c-71 -145 -170 -259 -289 -339l-59 80c89 59 166 143 227 246c-51 -10 -102 -24 -154 -44l-27 96c79 29 158 47 235 53c41 96 70 203 83 319l103 32c163 -86 358 -311 409 -753c1 -2 1 -3 1 -5zM424 416
c120 -6 230 -41 315 -105c-67 179 -164 287 -251 346c-15 -87 -36 -167 -64 -241zM395 -116l73 73l73 -73l-73 -73z" />
    <glyph glyph-name="uni1EA0.ss02" 
d="M70 750h740v-750h-100v247h-540v-247h-100v750zM170 347h540v303h-540v-303zM367 -116l73 73l73 -73l-73 -73z" />
    <glyph glyph-name="Agrave" unicode="&#xc0;" horiz-adv-x="953" 
d="M508 820h-91l-138 130h127zM813 0l-128 247h-418l-128 -247h-113l390 750h120l390 -750h-113zM319 347h314l-157 303z" />
    <glyph glyph-name="Agrave.ss01" horiz-adv-x="947" 
d="M501 820h-91l-138 130h127zM911 6v-1l-100 -11c-31 223 -209 330 -429 327c-71 -145 -170 -259 -289 -339l-59 80c89 59 166 143 227 246c-51 -10 -102 -24 -154 -44l-27 96c79 29 158 47 235 53c41 96 70 203 83 319l103 32c163 -86 358 -311 409 -753c1 -2 1 -3 1 -5z
M424 416c120 -6 230 -41 315 -105c-67 179 -164 287 -251 346c-15 -87 -36 -167 -64 -241z" />
    <glyph glyph-name="Agrave.ss02" 
d="M472 820h-91l-138 130h127zM70 750h740v-750h-100v247h-540v-247h-100v750zM170 347h540v303h-540v-303z" />
    <glyph glyph-name="uni1EA2" unicode="&#x1ea2;" horiz-adv-x="953" 
d="M481 923c-28 29 -71 11 -83 -31l-52 51c37 88 136 97 194 40c59 -60 47 -161 -39 -196l-51 53c44 12 60 55 31 83zM813 0l-128 247h-418l-128 -247h-113l390 750h120l390 -750h-113zM319 347h314l-157 303z" />
    <glyph glyph-name="uni1EA2.ss01" horiz-adv-x="947" 
d="M474 923c-28 29 -71 11 -83 -31l-52 51c37 88 136 97 194 40c59 -60 47 -161 -39 -196l-51 53c44 12 60 55 31 83zM911 6v-1l-100 -11c-31 223 -209 330 -429 327c-71 -145 -170 -259 -289 -339l-59 80c89 59 166 143 227 246c-51 -10 -102 -24 -154 -44l-27 96
c79 29 158 47 235 53c41 96 70 203 83 319l103 32c163 -86 358 -311 409 -753c1 -2 1 -3 1 -5zM424 416c120 -6 230 -41 315 -105c-67 179 -164 287 -251 346c-15 -87 -36 -167 -64 -241z" />
    <glyph glyph-name="uni1EA2.ss02" 
d="M445 923c-28 29 -71 11 -83 -31l-52 51c37 88 136 97 194 40c59 -60 47 -161 -39 -196l-51 53c44 12 60 55 31 83zM70 750h740v-750h-100v247h-540v-247h-100v750zM170 347h540v303h-540v-303z" />
    <glyph glyph-name="Amacron" unicode="&#x100;" horiz-adv-x="953" 
d="M650 924v-85h-348v85h348zM813 0l-128 247h-418l-128 -247h-113l390 750h120l390 -750h-113zM319 347h314l-157 303z" />
    <glyph glyph-name="Amacron.ss01" horiz-adv-x="947" 
d="M643 924v-85h-348v85h348zM911 6v-1l-100 -11c-31 223 -209 330 -429 327c-71 -145 -170 -259 -289 -339l-59 80c89 59 166 143 227 246c-51 -10 -102 -24 -154 -44l-27 96c79 29 158 47 235 53c41 96 70 203 83 319l103 32c163 -86 358 -311 409 -753c1 -2 1 -3 1 -5z
M424 416c120 -6 230 -41 315 -105c-67 179 -164 287 -251 346c-15 -87 -36 -167 -64 -241z" />
    <glyph glyph-name="Amacron.ss02" 
d="M614 924v-85h-348v85h348zM70 750h740v-750h-100v247h-540v-247h-100v750zM170 347h540v303h-540v-303z" />
    <glyph glyph-name="Aogonek" unicode="&#x104;" horiz-adv-x="953" 
d="M919 -121l10 -76c-17 -7 -39 -13 -69 -13c-65 0 -100 39 -100 89c0 43 23 83 77 121h-24l-128 247h-418l-128 -247h-113l390 750h120l390 -750c-59 -36 -84 -62 -84 -95c0 -20 16 -36 38 -36c16 0 28 3 39 10zM319 347h314l-157 303z" />
    <glyph glyph-name="Aogonek.ss01" horiz-adv-x="947" 
d="M904 -116l10 -76c-17 -7 -39 -13 -69 -13c-65 0 -100 39 -100 89c0 40 20 77 66 113c-32 221 -210 327 -429 324c-71 -145 -170 -259 -289 -339l-59 80c89 59 166 143 227 246c-51 -10 -102 -24 -154 -44l-27 96c79 29 158 47 235 53c41 96 70 203 83 319l103 32
c163 -86 358 -311 409 -753c1 -2 1 -3 1 -5v-1c-59 -36 -84 -62 -84 -95c0 -20 16 -36 38 -36c16 0 28 3 39 10zM424 416c120 -6 230 -41 315 -105c-67 179 -164 287 -251 346c-15 -87 -36 -167 -64 -241z" />
    <glyph glyph-name="Aogonek.ss02" 
d="M803 -121l10 -76c-17 -7 -39 -13 -69 -13c-65 0 -100 39 -100 89c0 43 23 83 77 121h-11v247h-540v-247h-100v750h740v-750c-59 -36 -84 -62 -84 -95c0 -20 16 -36 38 -36c16 0 28 3 39 10zM170 347h540v303h-540v-303z" />
    <glyph glyph-name="Aring" unicode="&#xc5;" horiz-adv-x="953" 
d="M477 803c-66 0 -119 53 -119 120c0 64 53 117 119 117c65 0 119 -53 119 -117c0 -67 -54 -120 -119 -120zM477 970c-28 0 -48 -23 -48 -49s20 -48 48 -48s48 22 48 48s-20 49 -48 49zM813 0l-128 247h-418l-128 -247h-113l390 750h120l390 -750h-113zM319 347h314
l-157 303z" />
    <glyph glyph-name="Aring.ss01" horiz-adv-x="947" 
d="M469 803c-66 0 -119 53 -119 120c0 64 53 117 119 117c65 0 119 -53 119 -117c0 -67 -54 -120 -119 -120zM469 970c-28 0 -48 -23 -48 -49s20 -48 48 -48s48 22 48 48s-20 49 -48 49zM911 6v-1l-100 -11c-31 223 -209 330 -429 327c-71 -145 -170 -259 -289 -339l-59 80
c89 59 166 143 227 246c-51 -10 -102 -24 -154 -44l-27 96c79 29 158 47 235 53c41 96 70 203 83 319l103 32c163 -86 358 -311 409 -753c1 -2 1 -3 1 -5zM424 416c120 -6 230 -41 315 -105c-67 179 -164 287 -251 346c-15 -87 -36 -167 -64 -241z" />
    <glyph glyph-name="Aring.ss02" 
d="M441 803c-66 0 -119 53 -119 120c0 64 53 117 119 117c65 0 119 -53 119 -117c0 -67 -54 -120 -119 -120zM441 970c-28 0 -48 -23 -48 -49s20 -48 48 -48s48 22 48 48s-20 49 -48 49zM70 750h740v-750h-100v247h-540v-247h-100v750zM170 347h540v303h-540v-303z" />
    <glyph glyph-name="Atilde" unicode="&#xc3;" horiz-adv-x="953" 
d="M323 808c-57 51 -30 160 75 160c103 0 91 -102 145 -102c47 0 51 63 -8 92h94c56 -49 32 -160 -76 -160c-101 0 -88 101 -143 101c-48 0 -51 -58 8 -91h-95zM813 0l-128 247h-418l-128 -247h-113l390 750h120l390 -750h-113zM319 347h314l-157 303z" />
    <glyph glyph-name="Atilde.ss01" horiz-adv-x="947" 
d="M315 808c-57 51 -30 160 75 160c103 0 91 -102 145 -102c47 0 51 63 -8 92h94c56 -49 32 -160 -76 -160c-101 0 -88 101 -143 101c-48 0 -51 -58 8 -91h-95zM911 6v-1l-100 -11c-31 223 -209 330 -429 327c-71 -145 -170 -259 -289 -339l-59 80c89 59 166 143 227 246
c-51 -10 -102 -24 -154 -44l-27 96c79 29 158 47 235 53c41 96 70 203 83 319l103 32c163 -86 358 -311 409 -753c1 -2 1 -3 1 -5zM424 416c120 -6 230 -41 315 -105c-67 179 -164 287 -251 346c-15 -87 -36 -167 -64 -241z" />
    <glyph glyph-name="Atilde.ss02" 
d="M287 808c-57 51 -30 160 75 160c103 0 91 -102 145 -102c47 0 51 63 -8 92h94c56 -49 32 -160 -76 -160c-101 0 -88 101 -143 101c-48 0 -51 -58 8 -91h-95zM70 750h740v-750h-100v247h-540v-247h-100v750zM170 347h540v303h-540v-303z" />
    <glyph glyph-name="AE" unicode="&#xc6;" horiz-adv-x="1348" 
d="M1298 650h-559v-184h458v-100h-458v-266h558v-100h-658v247h-310l-183 -247h-120l558 750h714v-100zM639 664l-235 -317h235v317z" />
    <glyph glyph-name="B" unicode="B" horiz-adv-x="818" 
d="M654 433c68 -41 114 -115 114 -200c0 -128 -105 -232 -233 -233h-465v750h442c106 0 192 -86 192 -192c0 -49 -19 -93 -50 -125zM170 650v-184h342c52 0 92 40 92 92c0 51 -40 92 -92 92h-342zM535 100c74 0 133 60 133 133s-60 133 -133 133h-365v-266h365z" />
    <glyph glyph-name="C" unicode="C" horiz-adv-x="840" 
d="M497 -10c-227 0 -447 168 -447 385s220 385 447 385c100 0 223 -34 293 -91v-119c-68 60 -168 110 -290 110c-179 0 -350 -127 -350 -285s171 -285 350 -285c122 0 222 46 290 110v-119c-70 -57 -193 -91 -293 -91z" />
    <glyph glyph-name="Cacute" unicode="&#x106;" horiz-adv-x="840" 
d="M560 950h126l-137 -130h-92zM497 -10c-227 0 -447 168 -447 385s220 385 447 385c100 0 223 -34 293 -91v-119c-68 60 -168 110 -290 110c-179 0 -350 -127 -350 -285s171 -285 350 -285c122 0 222 46 290 110v-119c-70 -57 -193 -91 -293 -91z" />
    <glyph glyph-name="Ccaron" unicode="&#x10c;" horiz-adv-x="840" 
d="M438 820l-129 130h103l85 -91l85 91h103l-129 -130h-118zM500 660c-179 0 -350 -127 -350 -285s171 -285 350 -285c122 0 222 46 290 110v-119c-70 -57 -193 -91 -293 -91c-227 0 -447 168 -447 385s220 385 447 385c100 0 223 -34 293 -91v-119
c-68 60 -168 110 -290 110z" />
    <glyph glyph-name="Ccedilla" unicode="&#xc7;" horiz-adv-x="840" 
d="M500 660c-179 0 -350 -127 -350 -285s171 -285 350 -285c122 0 222 46 290 110v-119c-61 -50 -163 -82 -254 -89l-6 -43c43 -8 71 -41 71 -79c0 -46 -35 -83 -95 -83c-18 0 -36 5 -51 13v52c6 -8 18 -14 31 -14c20 0 35 13 35 30s-15 30 -35 30c-13 0 -25 -6 -31 -14v108
c-211 19 -405 179 -405 383c0 217 220 385 447 385c100 0 223 -34 293 -91v-119c-68 60 -168 110 -290 110z" />
    <glyph glyph-name="Cdotaccent" unicode="&#x10a;" horiz-adv-x="840" 
d="M497 965l73 -73l-73 -73l-73 73zM497 -10c-227 0 -447 168 -447 385s220 385 447 385c100 0 223 -34 293 -91v-119c-68 60 -168 110 -290 110c-179 0 -350 -127 -350 -285s171 -285 350 -285c122 0 222 46 290 110v-119c-70 -57 -193 -91 -293 -91z" />
    <glyph glyph-name="D" unicode="D" horiz-adv-x="889" 
d="M464 750c207 0 375 -168 375 -375s-168 -375 -375 -375h-394v750h394zM464 100c152 0 275 123 275 275s-123 275 -275 275h-294v-550h294z" />
    <glyph glyph-name="Eth" unicode="&#xd0;" horiz-adv-x="896" 
d="M471 750c207 0 375 -168 375 -375s-168 -375 -375 -375h-393v325h-52v100h52v325h393zM471 100c152 0 275 123 275 275s-123 275 -275 275h-293v-225h167v-100h-167v-225h293z" />
    <glyph glyph-name="Dcaron" unicode="&#x10e;" horiz-adv-x="889" 
d="M322 820l-129 130h103l85 -91l85 91h103l-129 -130h-118zM464 750c207 0 375 -168 375 -375s-168 -375 -375 -375h-394v750h394zM464 100c152 0 275 123 275 275s-123 275 -275 275h-294v-550h294z" />
    <glyph glyph-name="Dcroat" unicode="&#x110;" horiz-adv-x="896" 
d="M471 750c207 0 375 -168 375 -375s-168 -375 -375 -375h-393v325h-52v100h52v325h393zM471 100c152 0 275 123 275 275s-123 275 -275 275h-293v-225h167v-100h-167v-225h293z" />
    <glyph glyph-name="E" unicode="E" horiz-adv-x="778" 
d="M728 650h-558v-184h458v-100h-458v-266h558v-100h-658v750h658v-100z" />
    <glyph glyph-name="E.ss01" horiz-adv-x="778" 
d="M728 540c-174 172 -558 157 -558 -44c0 -15 2 -28 6 -41c158 123 441 95 441 -82s-282 -205 -441 -82c-4 -14 -6 -28 -6 -43c0 -195 366 -212 558 -45v-120c-79 -57 -192 -93 -314 -93c-176 0 -344 74 -344 250c0 51 12 95 34 133c-22 37 -34 81 -34 132
c0 174 167 254 347 254c114 1 232 -33 311 -95v-124zM517 373c0 81 -185 81 -285 -1c100 -81 285 -79 285 1z" />
    <glyph glyph-name="Eacute" unicode="&#xc9;" horiz-adv-x="778" 
d="M588 950l-137 -130h-92l103 130h126zM728 650h-558v-184h458v-100h-458v-266h558v-100h-658v750h658v-100z" />
    <glyph glyph-name="Eacute.ss01" horiz-adv-x="778" 
d="M602 950l-137 -130h-92l103 130h126zM728 540c-174 172 -558 157 -558 -44c0 -15 2 -28 6 -41c158 123 441 95 441 -82s-282 -205 -441 -82c-4 -14 -6 -28 -6 -43c0 -195 366 -212 558 -45v-120c-79 -57 -192 -93 -314 -93c-176 0 -344 74 -344 250c0 51 12 95 34 133
c-22 37 -34 81 -34 132c0 174 167 254 347 254c114 1 232 -33 311 -95v-124zM517 373c0 81 -185 81 -285 -1c100 -81 285 -79 285 1z" />
    <glyph glyph-name="Ecaron" unicode="&#x11a;" horiz-adv-x="778" 
d="M340 820l-129 130h103l85 -91l85 91h103l-129 -130h-118zM728 650h-558v-184h458v-100h-458v-266h558v-100h-658v750h658v-100z" />
    <glyph glyph-name="Ecaron.ss01" horiz-adv-x="778" 
d="M354 820l-129 130h103l85 -91l85 91h103l-129 -130h-118zM728 540c-174 172 -558 157 -558 -44c0 -15 2 -28 6 -41c158 123 441 95 441 -82s-282 -205 -441 -82c-4 -14 -6 -28 -6 -43c0 -195 366 -212 558 -45v-120c-79 -57 -192 -93 -314 -93c-176 0 -344 74 -344 250
c0 51 12 95 34 133c-22 37 -34 81 -34 132c0 174 167 254 347 254c114 1 232 -33 311 -95v-124zM517 373c0 81 -185 81 -285 -1c100 -81 285 -79 285 1z" />
    <glyph glyph-name="Ecircumflex" unicode="&#xca;" horiz-adv-x="778" 
d="M399 911l-85 -91h-103l129 130h118l129 -130h-103zM728 650h-558v-184h458v-100h-458v-266h558v-100h-658v750h658v-100z" />
    <glyph glyph-name="Ecircumflex.ss01" horiz-adv-x="778" 
d="M413 911l-85 -91h-103l129 130h118l129 -130h-103zM728 540c-174 172 -558 157 -558 -44c0 -15 2 -28 6 -41c158 123 441 95 441 -82s-282 -205 -441 -82c-4 -14 -6 -28 -6 -43c0 -195 366 -212 558 -45v-120c-79 -57 -192 -93 -314 -93c-176 0 -344 74 -344 250
c0 51 12 95 34 133c-22 37 -34 81 -34 132c0 174 167 254 347 254c114 1 232 -33 311 -95v-124zM517 373c0 81 -185 81 -285 -1c100 -81 285 -79 285 1z" />
    <glyph glyph-name="uni1EBE" unicode="&#x1ebe;" horiz-adv-x="778" 
d="M589 1124l-138 -130h-92l103 130h127zM399 911l-85 -91h-103l129 130h118l129 -130h-103zM728 650h-558v-184h458v-100h-458v-266h558v-100h-658v750h658v-100z" />
    <glyph glyph-name="uni1EBE.ss01" horiz-adv-x="778" 
d="M603 1124l-138 -130h-92l103 130h127zM413 911l-85 -91h-103l129 130h118l129 -130h-103zM728 540c-174 172 -558 157 -558 -44c0 -15 2 -28 6 -41c158 123 441 95 441 -82s-282 -205 -441 -82c-4 -14 -6 -28 -6 -43c0 -195 366 -212 558 -45v-120
c-79 -57 -192 -93 -314 -93c-176 0 -344 74 -344 250c0 51 12 95 34 133c-22 37 -34 81 -34 132c0 174 167 254 347 254c114 1 232 -33 311 -95v-124zM517 373c0 81 -185 81 -285 -1c100 -81 285 -79 285 1z" />
    <glyph glyph-name="uni1EC6" unicode="&#x1ec6;" horiz-adv-x="778" 
d="M399 911l-85 -91h-103l129 130h118l129 -130h-103zM728 650h-558v-184h458v-100h-458v-266h558v-100h-658v750h658v-100zM326 -116l73 73l73 -73l-73 -73z" />
    <glyph glyph-name="uni1EC6.ss01" horiz-adv-x="778" 
d="M413 911l-85 -91h-103l129 130h118l129 -130h-103zM728 540c-174 172 -558 157 -558 -44c0 -15 2 -28 6 -41c158 123 441 95 441 -82s-282 -205 -441 -82c-4 -14 -6 -28 -6 -43c0 -195 366 -212 558 -45v-120c-79 -57 -192 -93 -314 -93c-176 0 -344 74 -344 250
c0 51 12 95 34 133c-22 37 -34 81 -34 132c0 174 167 254 347 254c114 1 232 -33 311 -95v-124zM517 373c0 81 -185 81 -285 -1c100 -81 285 -79 285 1zM340 -116l73 73l73 -73l-73 -73z" />
    <glyph glyph-name="uni1EC0" unicode="&#x1ec0;" horiz-adv-x="778" 
d="M431 994h-91l-138 130h127zM340 950h118l129 -130h-103l-85 91l-85 -91h-103zM728 650h-558v-184h458v-100h-458v-266h558v-100h-658v750h658v-100z" />
    <glyph glyph-name="uni1EC0.ss01" horiz-adv-x="778" 
d="M445 994h-91l-138 130h127zM354 950h118l129 -130h-103l-85 91l-85 -91h-103zM728 540c-174 172 -558 157 -558 -44c0 -15 2 -28 6 -41c158 123 441 95 441 -82s-282 -205 -441 -82c-4 -14 -6 -28 -6 -43c0 -195 366 -212 558 -45v-120c-79 -57 -192 -93 -314 -93
c-176 0 -344 74 -344 250c0 51 12 95 34 133c-22 37 -34 81 -34 132c0 174 167 254 347 254c114 1 232 -33 311 -95v-124zM517 373c0 81 -185 81 -285 -1c100 -81 285 -79 285 1z" />
    <glyph glyph-name="uni1EC2" unicode="&#x1ec2;" horiz-adv-x="778" 
d="M527 1045c-29 28 -72 10 -84 -31l-52 51c37 88 137 97 194 39c59 -59 47 -160 -39 -195l-51 53c44 12 60 55 32 83zM402 911l-85 -91h-103l129 130h118l129 -130h-103zM728 650h-558v-184h458v-100h-458v-266h558v-100h-658v750h658v-100z" />
    <glyph glyph-name="uni1EC2.ss01" horiz-adv-x="778" 
d="M542 1045c-29 28 -72 10 -84 -31l-52 51c37 88 137 97 194 39c59 -59 47 -160 -39 -195l-51 53c44 12 60 55 32 83zM417 911l-85 -91h-103l129 130h118l129 -130h-103zM728 540c-174 172 -558 157 -558 -44c0 -15 2 -28 6 -41c158 123 441 95 441 -82s-282 -205 -441 -82
c-4 -14 -6 -28 -6 -43c0 -195 366 -212 558 -45v-120c-79 -57 -192 -93 -314 -93c-176 0 -344 74 -344 250c0 51 12 95 34 133c-22 37 -34 81 -34 132c0 174 167 254 347 254c114 1 232 -33 311 -95v-124zM517 373c0 81 -185 81 -285 -1c100 -81 285 -79 285 1z" />
    <glyph glyph-name="uni1EC4" unicode="&#x1ec4;" horiz-adv-x="778" 
d="M246 981c-57 52 -30 160 75 160c103 0 91 -102 145 -102c47 0 51 64 -8 92h94c56 -49 32 -160 -76 -160c-101 0 -88 102 -143 102c-48 0 -51 -58 8 -92h-95zM399 911l-85 -91h-103l129 130h118l129 -130h-103zM728 650h-558v-184h458v-100h-458v-266h558v-100h-658v750
h658v-100z" />
    <glyph glyph-name="uni1EC4.ss01" horiz-adv-x="778" 
d="M260 981c-57 52 -30 160 75 160c103 0 91 -102 145 -102c47 0 51 64 -8 92h94c56 -49 32 -160 -76 -160c-101 0 -88 102 -143 102c-48 0 -51 -58 8 -92h-95zM413 911l-85 -91h-103l129 130h118l129 -130h-103zM728 540c-174 172 -558 157 -558 -44c0 -15 2 -28 6 -41
c158 123 441 95 441 -82s-282 -205 -441 -82c-4 -14 -6 -28 -6 -43c0 -195 366 -212 558 -45v-120c-79 -57 -192 -93 -314 -93c-176 0 -344 74 -344 250c0 51 12 95 34 133c-22 37 -34 81 -34 132c0 174 167 254 347 254c114 1 232 -33 311 -95v-124zM517 373
c0 81 -185 81 -285 -1c100 -81 285 -79 285 1z" />
    <glyph glyph-name="Edieresis" unicode="&#xcb;" horiz-adv-x="778" 
d="M369 874l-64 -64l-64 64l64 64zM554 874l-64 -64l-64 64l64 64zM728 650h-558v-184h458v-100h-458v-266h558v-100h-658v750h658v-100z" />
    <glyph glyph-name="Edieresis.ss01" horiz-adv-x="778" 
d="M383 874l-64 -64l-64 64l64 64zM568 874l-64 -64l-64 64l64 64zM728 540c-174 172 -558 157 -558 -44c0 -15 2 -28 6 -41c158 123 441 95 441 -82s-282 -205 -441 -82c-4 -14 -6 -28 -6 -43c0 -195 366 -212 558 -45v-120c-79 -57 -192 -93 -314 -93
c-176 0 -344 74 -344 250c0 51 12 95 34 133c-22 37 -34 81 -34 132c0 174 167 254 347 254c114 1 232 -33 311 -95v-124zM517 373c0 81 -185 81 -285 -1c100 -81 285 -79 285 1z" />
    <glyph glyph-name="Edotaccent" unicode="&#x116;" horiz-adv-x="778" 
d="M472 892l-73 -73l-73 73l73 73zM728 650h-558v-184h458v-100h-458v-266h558v-100h-658v750h658v-100z" />
    <glyph glyph-name="Edotaccent.ss01" horiz-adv-x="778" 
d="M486 892l-73 -73l-73 73l73 73zM728 540c-174 172 -558 157 -558 -44c0 -15 2 -28 6 -41c158 123 441 95 441 -82s-282 -205 -441 -82c-4 -14 -6 -28 -6 -43c0 -195 366 -212 558 -45v-120c-79 -57 -192 -93 -314 -93c-176 0 -344 74 -344 250c0 51 12 95 34 133
c-22 37 -34 81 -34 132c0 174 167 254 347 254c114 1 232 -33 311 -95v-124zM517 373c0 81 -185 81 -285 -1c100 -81 285 -79 285 1z" />
    <glyph glyph-name="uni1EB8" unicode="&#x1eb8;" horiz-adv-x="778" 
d="M728 650h-558v-184h458v-100h-458v-266h558v-100h-658v750h658v-100zM326 -116l73 73l73 -73l-73 -73z" />
    <glyph glyph-name="uni1EB8.ss01" horiz-adv-x="778" 
d="M728 540c-174 172 -558 157 -558 -44c0 -15 2 -28 6 -41c158 123 441 95 441 -82s-282 -205 -441 -82c-4 -14 -6 -28 -6 -43c0 -195 366 -212 558 -45v-120c-79 -57 -192 -93 -314 -93c-176 0 -344 74 -344 250c0 51 12 95 34 133c-22 37 -34 81 -34 132
c0 174 167 254 347 254c114 1 232 -33 311 -95v-124zM517 373c0 81 -185 81 -285 -1c100 -81 285 -79 285 1zM340 -116l73 73l73 -73l-73 -73z" />
    <glyph glyph-name="Egrave" unicode="&#xc8;" horiz-adv-x="778" 
d="M431 820h-91l-138 130h127zM728 650h-558v-184h458v-100h-458v-266h558v-100h-658v750h658v-100z" />
    <glyph glyph-name="Egrave.ss01" horiz-adv-x="778" 
d="M445 820h-91l-138 130h127zM728 540c-174 172 -558 157 -558 -44c0 -15 2 -28 6 -41c158 123 441 95 441 -82s-282 -205 -441 -82c-4 -14 -6 -28 -6 -43c0 -195 366 -212 558 -45v-120c-79 -57 -192 -93 -314 -93c-176 0 -344 74 -344 250c0 51 12 95 34 133
c-22 37 -34 81 -34 132c0 174 167 254 347 254c114 1 232 -33 311 -95v-124zM517 373c0 81 -185 81 -285 -1c100 -81 285 -79 285 1z" />
    <glyph glyph-name="uni1EBA" unicode="&#x1eba;" horiz-adv-x="778" 
d="M404 923c-28 29 -71 11 -83 -31l-52 51c37 88 136 97 194 40c59 -60 47 -161 -39 -196l-51 53c44 12 60 55 31 83zM728 650h-558v-184h458v-100h-458v-266h558v-100h-658v750h658v-100z" />
    <glyph glyph-name="uni1EBA.ss01" horiz-adv-x="778" 
d="M418 923c-28 29 -71 11 -83 -31l-52 51c37 88 136 97 194 40c59 -60 47 -161 -39 -196l-51 53c44 12 60 55 31 83zM728 540c-174 172 -558 157 -558 -44c0 -15 2 -28 6 -41c158 123 441 95 441 -82s-282 -205 -441 -82c-4 -14 -6 -28 -6 -43c0 -195 366 -212 558 -45
v-120c-79 -57 -192 -93 -314 -93c-176 0 -344 74 -344 250c0 51 12 95 34 133c-22 37 -34 81 -34 132c0 174 167 254 347 254c114 1 232 -33 311 -95v-124zM517 373c0 81 -185 81 -285 -1c100 -81 285 -79 285 1z" />
    <glyph glyph-name="Emacron" unicode="&#x112;" horiz-adv-x="778" 
d="M573 924v-85h-348v85h348zM728 650h-558v-184h458v-100h-458v-266h558v-100h-658v750h658v-100z" />
    <glyph glyph-name="Emacron.ss01" horiz-adv-x="778" 
d="M587 924v-85h-348v85h348zM728 540c-174 172 -558 157 -558 -44c0 -15 2 -28 6 -41c158 123 441 95 441 -82s-282 -205 -441 -82c-4 -14 -6 -28 -6 -43c0 -195 366 -212 558 -45v-120c-79 -57 -192 -93 -314 -93c-176 0 -344 74 -344 250c0 51 12 95 34 133
c-22 37 -34 81 -34 132c0 174 167 254 347 254c114 1 232 -33 311 -95v-124zM517 373c0 81 -185 81 -285 -1c100 -81 285 -79 285 1z" />
    <glyph glyph-name="Eogonek" unicode="&#x118;" horiz-adv-x="778" 
d="M721 -121l10 -76c-17 -7 -39 -13 -69 -13c-65 0 -100 39 -100 89c0 43 23 83 77 121h-569v750h658v-100h-558v-184h458v-100h-458v-266h558v-100c-59 -36 -84 -62 -84 -95c0 -20 16 -36 38 -36c16 0 28 3 39 10z" />
    <glyph glyph-name="Eogonek.ss01" horiz-adv-x="778" 
d="M728 540c-174 172 -558 157 -558 -44c0 -15 2 -28 6 -41c158 123 441 95 441 -82s-282 -205 -441 -82c-4 -14 -6 -28 -6 -43c0 -195 366 -212 558 -45v-120c-72 -52 -173 -87 -284 -92c-48 -32 -69 -56 -69 -86c0 -20 16 -36 38 -36c16 0 28 3 39 10l10 -76
c-17 -7 -39 -13 -69 -13c-65 0 -100 39 -100 89c0 40 20 78 67 113c-155 14 -290 90 -290 248c0 51 12 95 34 133c-22 37 -34 81 -34 132c0 174 167 254 347 254c114 1 232 -33 311 -95v-124zM517 373c0 81 -185 81 -285 -1c100 -81 285 -79 285 1z" />
    <glyph glyph-name="uni1EBC" unicode="&#x1ebc;" horiz-adv-x="778" 
d="M246 808c-57 51 -30 160 75 160c103 0 91 -102 145 -102c47 0 51 63 -8 92h94c56 -49 32 -160 -76 -160c-101 0 -88 101 -143 101c-48 0 -51 -58 8 -91h-95zM728 650h-558v-184h458v-100h-458v-266h558v-100h-658v750h658v-100z" />
    <glyph glyph-name="uni1EBC.ss01" horiz-adv-x="778" 
d="M260 808c-57 51 -30 160 75 160c103 0 91 -102 145 -102c47 0 51 63 -8 92h94c56 -49 32 -160 -76 -160c-101 0 -88 101 -143 101c-48 0 -51 -58 8 -91h-95zM728 540c-174 172 -558 157 -558 -44c0 -15 2 -28 6 -41c158 123 441 95 441 -82s-282 -205 -441 -82
c-4 -14 -6 -28 -6 -43c0 -195 366 -212 558 -45v-120c-79 -57 -192 -93 -314 -93c-176 0 -344 74 -344 250c0 51 12 95 34 133c-22 37 -34 81 -34 132c0 174 167 254 347 254c114 1 232 -33 311 -95v-124zM517 373c0 81 -185 81 -285 -1c100 -81 285 -79 285 1z" />
    <glyph glyph-name="F" unicode="F" horiz-adv-x="768" 
d="M728 650h-558v-184h458v-100h-458v-366h-100v750h658v-100z" />
    <glyph glyph-name="G" unicode="G" horiz-adv-x="850" 
d="M500 660c-179 0 -350 -127 -350 -285s171 -285 350 -285c72 0 136 16 190 42v174h-225v100h325v-325c-70 -57 -193 -91 -293 -91c-227 0 -447 168 -447 385s220 385 447 385c100 0 223 -34 293 -91v-119c-68 60 -168 110 -290 110z" />
    <glyph glyph-name="Gbreve" unicode="&#x11e;" horiz-adv-x="850" 
d="M496 808c-84 0 -154 63 -153 142h83c0 -34 31 -63 70 -63c38 0 70 28 70 63h83c0 -79 -69 -142 -153 -142zM500 660c-179 0 -350 -127 -350 -285s171 -285 350 -285c72 0 136 16 190 42v174h-225v100h325v-325c-70 -57 -193 -91 -293 -91c-227 0 -447 168 -447 385
s220 385 447 385c100 0 223 -34 293 -91v-119c-68 60 -168 110 -290 110z" />
    <glyph glyph-name="uni0122" unicode="&#x122;" horiz-adv-x="850" 
d="M500 660c-179 0 -350 -127 -350 -285s171 -285 350 -285c72 0 136 16 190 42v174h-225v100h325v-325c-70 -57 -193 -91 -293 -91c-227 0 -447 168 -447 385s220 385 447 385c100 0 223 -34 293 -91v-119c-68 60 -168 110 -290 110zM357 -278l89 224l96 -45l-114 -212z
" />
    <glyph glyph-name="Gdotaccent" unicode="&#x120;" horiz-adv-x="850" 
d="M568 892l-73 -73l-73 73l73 73zM500 660c-179 0 -350 -127 -350 -285s171 -285 350 -285c72 0 136 16 190 42v174h-225v100h325v-325c-70 -57 -193 -91 -293 -91c-227 0 -447 168 -447 385s220 385 447 385c100 0 223 -34 293 -91v-119c-68 60 -168 110 -290 110z" />
    <glyph glyph-name="H" unicode="H" horiz-adv-x="850" 
d="M680 750h100v-750h-100v325h-510v-325h-100v750h100v-325h510v325z" />
    <glyph glyph-name="Hbar" unicode="&#x126;" horiz-adv-x="901" 
d="M851 700v-92h-45v-608h-100v325h-510v-325h-100v608h-46v92h46v50h100v-50h510v50h100v-50h45zM706 425v183h-510v-183h510z" />
    <glyph glyph-name="I" unicode="I" horiz-adv-x="240" 
d="M70 750h100v-750h-100v750z" />
    <glyph glyph-name="Iacute" unicode="&#xcd;" horiz-adv-x="240" 
d="M183 950h126l-137 -130h-92zM70 750h100v-750h-100v750z" />
    <glyph glyph-name="uni01CF" unicode="&#x1cf;" horiz-adv-x="240" 
d="M205 950h103l-129 -130h-118l-129 130h103l85 -91zM70 0v750h100v-750h-100z" />
    <glyph glyph-name="Icircumflex" unicode="&#xce;" horiz-adv-x="240" 
d="M183 950l129 -130h-103l-85 91l-85 -91h-103l129 130h118zM70 0v750h100v-750h-100z" />
    <glyph glyph-name="Idieresis" unicode="&#xcf;" horiz-adv-x="240" 
d="M26 938l64 -64l-64 -64l-64 64zM211 938l64 -64l-64 -64l-64 64zM70 750h100v-750h-100v750z" />
    <glyph glyph-name="Idotaccent" unicode="&#x130;" horiz-adv-x="240" 
d="M120 965l73 -73l-73 -73l-73 73zM70 750h100v-750h-100v750z" />
    <glyph glyph-name="uni1ECA" unicode="&#x1eca;" horiz-adv-x="240" 
d="M70 750h100v-750h-100v750zM120 -43l73 -73l-73 -73l-73 73z" />
    <glyph glyph-name="Igrave" unicode="&#xcc;" horiz-adv-x="240" 
d="M50 950l102 -130h-91l-138 130h127zM70 750h100v-750h-100v750z" />
    <glyph glyph-name="uni1EC8" unicode="&#x1ec8;" horiz-adv-x="240" 
d="M145 787l-51 53c44 12 60 55 31 83c-28 29 -71 11 -83 -31l-52 51c37 88 136 97 194 40c59 -60 47 -161 -39 -196zM70 750h100v-750h-100v750z" />
    <glyph glyph-name="Imacron" unicode="&#x12a;" horiz-adv-x="240" 
d="M-54 839v85h348v-85h-348zM70 750h100v-750h-100v750z" />
    <glyph glyph-name="Iogonek" unicode="&#x12e;" horiz-adv-x="240" 
d="M163 -121l10 -76c-17 -7 -39 -13 -69 -13c-65 0 -100 39 -100 89c0 43 23 83 77 121h-11v750h100v-750c-59 -36 -84 -62 -84 -95c0 -20 16 -36 38 -36c16 0 28 3 39 10z" />
    <glyph glyph-name="Itilde" unicode="&#x128;" horiz-adv-x="240" 
d="M42 968c103 0 91 -102 145 -102c47 0 51 63 -8 92h94c56 -49 32 -160 -76 -160c-101 0 -88 101 -143 101c-48 0 -51 -58 8 -91h-95c-57 51 -30 160 75 160zM70 750h100v-750h-100v750z" />
    <glyph glyph-name="J" unicode="J" horiz-adv-x="464" 
d="M163 86c80 0 131 36 131 119v545h100v-549c0 -126 -86 -211 -227 -211c-61 0 -104 15 -141 41v110c19 -20 62 -55 137 -55z" />
    <glyph glyph-name="J.ss02" horiz-adv-x="493" 
d="M323 750h100v-750h-397v100h297v650z" />
    <glyph glyph-name="K" unicode="K" horiz-adv-x="834" 
d="M794 750c-114 -51 -275 -170 -406 -318l406 -432h-133l-338 351c-83 -110 -143 -231 -153 -351h-100v750h100v-455c116 211 320 391 441 455h183z" />
    <glyph glyph-name="K.ss01" horiz-adv-x="700" 
d="M354 427c151 -66 256 -207 319 -407l-95 -30c-73 231 -202 367 -408 378v-368h-100v750h100v-279c188 28 312 148 347 289l96 -24c-32 -130 -125 -243 -259 -309z" />
    <glyph glyph-name="K.ss02" horiz-adv-x="781" 
d="M531 443h180v-443h-100v343h-441v-343h-100v750h100v-307h261v307h100v-307z" />
    <glyph glyph-name="uni0136" unicode="&#x136;" horiz-adv-x="834" 
d="M794 750c-114 -51 -275 -170 -406 -318l406 -432h-133l-338 351c-83 -110 -143 -231 -153 -351h-100v750h100v-455c116 211 320 391 441 455h183zM246 -278l89 224l96 -45l-114 -212z" />
    <glyph glyph-name="uni0136.ss01" horiz-adv-x="700" 
d="M354 427c151 -66 256 -207 319 -407l-95 -30c-73 231 -202 367 -408 378v-368h-100v750h100v-279c188 28 312 148 347 289l96 -24c-32 -130 -125 -243 -259 -309zM194 -278l89 224l96 -45l-114 -212z" />
    <glyph glyph-name="uni0136.ss02" horiz-adv-x="781" 
d="M531 443h180v-443h-100v343h-441v-343h-100v750h100v-307h261v307h100v-307zM236 -278l89 224l96 -45l-114 -212z" />
    <glyph glyph-name="L" unicode="L" horiz-adv-x="768" 
d="M170 100h558v-100h-658v750h100v-650z" />
    <glyph glyph-name="L.ss01" horiz-adv-x="782" 
d="M667 159l85 -47c-39 -82 -94 -126 -174 -126c-72 0 -112 31 -155 66c-39 31 -66 49 -113 49c-73 0 -120 -37 -142 -114l-98 23c53 290 82 481 79 740h100c2 -208 -16 -377 -49 -581c33 21 71 32 113 32c77 0 117 -30 157 -60c32 -26 61 -55 108 -55c44 0 66 24 89 73z
" />
    <glyph glyph-name="Lacute" unicode="&#x139;" horiz-adv-x="768" 
d="M308 950l-137 -130h-92l103 130h126zM170 100h558v-100h-658v750h100v-650z" />
    <glyph glyph-name="Lacute.ss01" horiz-adv-x="782" 
d="M387 950l-137 -130h-92l103 130h126zM667 159l85 -47c-39 -82 -94 -126 -174 -126c-72 0 -112 31 -155 66c-39 31 -66 49 -113 49c-73 0 -120 -37 -142 -114l-98 23c53 290 82 481 79 740h100c2 -208 -16 -377 -49 -581c33 21 71 32 113 32c77 0 117 -30 157 -60
c32 -26 61 -55 108 -55c44 0 66 24 89 73z" />
    <glyph glyph-name="Lcaron" unicode="&#x13d;" horiz-adv-x="768" 
d="M170 100h558v-100h-658v750h100v-650zM319 510h-79l-14 240h107z" />
    <glyph glyph-name="Lcaron.ss01" horiz-adv-x="792" 
d="M667 159l85 -47c-39 -82 -94 -126 -174 -126c-72 0 -112 31 -155 66c-39 31 -66 49 -113 49c-73 0 -120 -37 -142 -114l-98 23c53 290 82 481 79 740h100c2 -209 -16 -377 -49 -581c33 21 71 32 113 32c77 0 117 -30 157 -60c32 -26 61 -55 108 -55c44 0 66 24 89 73z
M389 510h-79l-14 240h107z" />
    <glyph glyph-name="uni013B" unicode="&#x13b;" horiz-adv-x="768" 
d="M170 100h558v-100h-658v750h100v-650zM260 -278l89 224l96 -45l-114 -212z" />
    <glyph glyph-name="uni013B.ss01" horiz-adv-x="782" 
d="M667 159l85 -47c-39 -82 -94 -126 -174 -126c-72 0 -112 31 -155 66c-39 31 -66 49 -113 49c-73 0 -120 -37 -142 -114l-98 23c53 290 82 481 79 740h100c2 -208 -16 -377 -49 -581c33 21 71 32 113 32c77 0 117 -30 157 -60c32 -26 61 -55 108 -55c44 0 66 24 89 73z
M243 -278l89 224l96 -45l-114 -212z" />
    <glyph glyph-name="Lslash" unicode="&#x141;" horiz-adv-x="818" 
d="M221 100h557v-100h-657v280l-81 -65v115l81 65v355h100v-274l80 65v-115l-80 -65v-261z" />
    <glyph glyph-name="Lslash.ss01" horiz-adv-x="784" 
d="M659 159l85 -47c-39 -82 -94 -126 -174 -126c-72 0 -112 31 -156 66c-38 31 -65 49 -112 49c-73 0 -120 -37 -143 -114l-97 23c17 95 32 179 44 258l-66 -53v115l83 67c13 115 19 226 18 353h100c1 -94 -2 -180 -9 -265l69 56v-115l-82 -66c-7 -62 -17 -125 -28 -191
c34 21 72 32 114 32c77 0 117 -30 157 -60c32 -26 61 -55 108 -55c44 0 66 24 89 73z" />
    <glyph glyph-name="M" unicode="M" horiz-adv-x="968" 
d="M898 750v-750h-100v543l-263 -543h-102l-263 543v-543h-100v750h103l311 -644l311 644h103z" />
    <glyph glyph-name="M.ss01" horiz-adv-x="1059" 
d="M710 760c328 0 377 -539 190 -760h-111c207 282 117 660 -86 660c-40 0 -76 -12 -107 -32c169 -220 159 -638 -67 -638s-236 418 -67 638c-31 20 -66 32 -106 32c-203 0 -293 -378 -86 -660h-111c-187 221 -139 760 189 760c70 0 131 -24 181 -63c50 39 111 63 181 63z
M529 90c116 0 119 310 0 473c-118 -163 -116 -473 0 -473z" />
    <glyph glyph-name="M.ss02" horiz-adv-x="960" 
d="M70 750h820v-750h-100v650h-260v-650h-100v650h-260v-650h-100v750z" />
    <glyph glyph-name="N" unicode="N" horiz-adv-x="889" 
d="M719 750h100v-750h-100l-549 607v-607h-100v750h100l549 -607v607z" />
    <glyph glyph-name="N.ss01" horiz-adv-x="1079" 
d="M703 717l77 57c175 -122 264 -324 216 -524c-38 -159 -152 -260 -301 -260s-255 87 -255 230c0 120 94 198 94 297c0 88 -63 143 -153 143c-85 0 -149 -46 -185 -129c-71 -167 17 -380 175 -502l-82 -54c-178 129 -276 385 -184 597c51 119 152 188 276 188
c151 0 253 -95 253 -239c0 -116 -90 -201 -90 -296c0 -84 67 -135 150 -135c104 0 179 70 205 185c37 160 -38 322 -196 442z" />
    <glyph glyph-name="N.ss02" horiz-adv-x="899" 
d="M729 750h100v-750h-427v650h-232v-650h-100v750h432v-650h227v650z" />
    <glyph glyph-name="Nacute" unicode="&#x143;" horiz-adv-x="889" 
d="M638 950l-137 -130h-92l103 130h126zM719 750h100v-750h-100l-549 607v-607h-100v750h100l549 -607v607z" />
    <glyph glyph-name="Nacute.ss01" horiz-adv-x="1079" 
d="M606 950h126l-137 -130h-92zM703 717l77 57c175 -122 264 -324 216 -524c-38 -159 -152 -260 -301 -260s-255 87 -255 230c0 120 94 198 94 297c0 88 -63 143 -153 143c-85 0 -149 -46 -185 -129c-71 -167 17 -380 175 -502l-82 -54c-178 129 -276 385 -184 597
c51 119 152 188 276 188c151 0 253 -95 253 -239c0 -116 -90 -201 -90 -296c0 -84 67 -135 150 -135c104 0 179 70 205 185c37 160 -38 322 -196 442z" />
    <glyph glyph-name="Nacute.ss02" horiz-adv-x="899" 
d="M641 950l-137 -130h-92l103 130h126zM729 750h100v-750h-427v650h-232v-650h-100v750h432v-650h227v650z" />
    <glyph glyph-name="Ncaron" unicode="&#x147;" horiz-adv-x="889" 
d="M390 820l-129 130h103l85 -91l85 91h103l-129 -130h-118zM719 750h100v-750h-100l-549 607v-607h-100v750h100l549 -607v607z" />
    <glyph glyph-name="Ncaron.ss01" horiz-adv-x="1079" 
d="M484 820l-129 130h103l85 -91l85 91h103l-129 -130h-118zM780 774c175 -122 264 -324 216 -524c-38 -159 -152 -260 -301 -260s-255 87 -255 230c0 120 94 198 94 297c0 88 -63 143 -153 143c-85 0 -149 -46 -185 -129c-71 -167 17 -380 175 -502l-82 -54
c-178 129 -276 385 -184 597c51 119 152 188 276 188c151 0 253 -95 253 -239c0 -116 -90 -201 -90 -296c0 -84 67 -135 150 -135c104 0 179 70 205 185c37 160 -38 322 -196 442z" />
    <glyph glyph-name="Ncaron.ss02" horiz-adv-x="899" 
d="M393 820l-129 130h103l85 -91l85 91h103l-129 -130h-118zM729 750h100v-750h-427v650h-232v-650h-100v750h432v-650h227v650z" />
    <glyph glyph-name="uni0145" unicode="&#x145;" horiz-adv-x="889" 
d="M719 750h100v-750h-100l-549 607v-607h-100v750h100l549 -607v607zM310 -278l89 224l96 -45l-114 -212z" />
    <glyph glyph-name="uni0145.ss01" horiz-adv-x="1079" 
d="M703 717l77 57c175 -122 264 -324 216 -524c-38 -159 -152 -260 -301 -260s-255 87 -255 230c0 120 94 198 94 297c0 88 -63 143 -153 143c-85 0 -149 -46 -185 -129c-71 -167 17 -380 175 -502l-82 -54c-178 129 -276 385 -184 597c51 119 152 188 276 188
c151 0 253 -95 253 -239c0 -116 -90 -201 -90 -296c0 -84 67 -135 150 -135c104 0 179 70 205 185c37 160 -38 322 -196 442zM405 -278l89 224l96 -45l-114 -212z" />
    <glyph glyph-name="uni0145.ss02" horiz-adv-x="899" 
d="M729 750h100v-750h-427v650h-232v-650h-100v750h432v-650h227v650zM313 -278l89 224l96 -45l-114 -212z" />
    <glyph glyph-name="Eng" unicode="&#x14a;" horiz-adv-x="889" 
d="M719 750h100v-766c0 -118 -74 -194 -207 -194c-57 0 -96 15 -130 41v98c13 -19 54 -52 119 -52c76 0 118 39 118 109v14l-549 607v-607h-100v750h100l549 -607v607z" />
    <glyph glyph-name="Eng.ss01" horiz-adv-x="1079" 
d="M780 774c175 -122 264 -324 216 -524c-30 -126 -108 -216 -214 -248v-18c0 -118 -75 -194 -208 -194c-56 0 -96 15 -130 41v98c14 -19 55 -52 120 -52c76 0 118 39 118 109v4c-142 5 -242 91 -242 230c0 120 94 198 94 297c0 88 -63 143 -153 143
c-85 0 -149 -46 -185 -129c-71 -167 17 -380 175 -502l-82 -54c-178 129 -276 385 -184 597c51 119 152 188 276 188c151 0 253 -95 253 -239c0 -116 -90 -201 -90 -296c0 -84 67 -135 150 -135c104 0 179 70 205 185c37 160 -38 322 -196 442z" />
    <glyph glyph-name="Eng.ss02" horiz-adv-x="899" 
d="M729 750h100v-769c0 -119 -75 -195 -208 -195c-56 0 -96 15 -130 41v99c14 -20 54 -53 119 -53c77 0 119 39 119 109v18h-327v650h-232v-650h-100v750h432v-650h227v650z" />
    <glyph glyph-name="Ntilde" unicode="&#xd1;" horiz-adv-x="889" 
d="M296 808c-57 51 -30 160 75 160c103 0 91 -102 145 -102c47 0 51 63 -8 92h94c56 -49 32 -160 -76 -160c-101 0 -88 101 -143 101c-48 0 -51 -58 8 -91h-95zM719 750h100v-750h-100l-549 607v-607h-100v750h100l549 -607v607z" />
    <glyph glyph-name="Ntilde.ss01" horiz-adv-x="1079" 
d="M465 968c103 0 91 -102 145 -102c47 0 51 63 -8 92h94c56 -49 32 -160 -76 -160c-101 0 -88 101 -143 101c-48 0 -51 -58 8 -91h-95c-57 51 -30 160 75 160zM703 717l77 57c175 -122 264 -324 216 -524c-38 -159 -152 -260 -301 -260s-255 87 -255 230
c0 120 94 198 94 297c0 88 -63 143 -153 143c-85 0 -149 -46 -185 -129c-71 -167 17 -380 175 -502l-82 -54c-178 129 -276 385 -184 597c51 119 152 188 276 188c151 0 253 -95 253 -239c0 -116 -90 -201 -90 -296c0 -84 67 -135 150 -135c104 0 179 70 205 185
c37 160 -38 322 -196 442z" />
    <glyph glyph-name="Ntilde.ss02" horiz-adv-x="899" 
d="M299 808c-57 51 -30 160 75 160c103 0 91 -102 145 -102c47 0 51 63 -8 92h94c56 -49 32 -160 -76 -160c-101 0 -88 101 -143 101c-48 0 -51 -58 8 -91h-95zM729 750h100v-750h-427v650h-232v-650h-100v750h432v-650h227v650z" />
    <glyph glyph-name="O" unicode="O" horiz-adv-x="1000" 
d="M500 -10c-249 0 -450 172 -450 385s201 385 450 385s450 -172 450 -385s-201 -385 -450 -385zM500 90c194 0 350 127 350 285s-156 285 -350 285s-350 -127 -350 -285s156 -285 350 -285z" />
    <glyph glyph-name="O.ss02" horiz-adv-x="950" 
d="M880 750v-750h-810v750h810zM780 650h-610v-550h610v550z" />
    <glyph glyph-name="Oacute" unicode="&#xd3;" horiz-adv-x="1000" 
d="M563 950h126l-137 -130h-92zM500 -10c-249 0 -450 172 -450 385s201 385 450 385s450 -172 450 -385s-201 -385 -450 -385zM500 90c194 0 350 127 350 285s-156 285 -350 285s-350 -127 -350 -285s156 -285 350 -285z" />
    <glyph glyph-name="Oacute.ss02" horiz-adv-x="950" 
d="M664 950l-137 -130h-92l103 130h126zM880 750v-750h-810v750h810zM780 650h-610v-550h610v550z" />
    <glyph glyph-name="uni01D1" unicode="&#x1d1;" horiz-adv-x="1000" 
d="M441 820l-129 130h103l85 -91l85 91h103l-129 -130h-118zM500 760c249 0 450 -172 450 -385s-201 -385 -450 -385s-450 172 -450 385s201 385 450 385zM500 90c194 0 350 127 350 285s-156 285 -350 285s-350 -127 -350 -285s156 -285 350 -285z" />
    <glyph glyph-name="uni01D1.ss02" horiz-adv-x="950" 
d="M416 820l-129 130h103l85 -91l85 91h103l-129 -130h-118zM880 750v-750h-810v750h810zM780 650h-610v-550h610v550z" />
    <glyph glyph-name="Ocircumflex" unicode="&#xd4;" horiz-adv-x="1000" 
d="M500 911l-85 -91h-103l129 130h118l129 -130h-103zM500 760c249 0 450 -172 450 -385s-201 -385 -450 -385s-450 172 -450 385s201 385 450 385zM500 90c194 0 350 127 350 285s-156 285 -350 285s-350 -127 -350 -285s156 -285 350 -285z" />
    <glyph glyph-name="Ocircumflex.ss02" horiz-adv-x="950" 
d="M475 911l-85 -91h-103l129 130h118l129 -130h-103zM880 750v-750h-810v750h810zM780 650h-610v-550h610v550z" />
    <glyph glyph-name="uni1ED0" unicode="&#x1ed0;" horiz-adv-x="1000" 
d="M690 1124l-138 -130h-92l103 130h127zM500 911l-85 -91h-103l129 130h118l129 -130h-103zM500 760c249 0 450 -172 450 -385s-201 -385 -450 -385s-450 172 -450 385s201 385 450 385zM500 90c194 0 350 127 350 285s-156 285 -350 285s-350 -127 -350 -285
s156 -285 350 -285z" />
    <glyph glyph-name="uni1ED0.ss02" horiz-adv-x="950" 
d="M665 1124l-138 -130h-92l103 130h127zM475 911l-85 -91h-103l129 130h118l129 -130h-103zM880 750v-750h-810v750h810zM780 650h-610v-550h610v550z" />
    <glyph glyph-name="uni1ED8" unicode="&#x1ed8;" horiz-adv-x="1000" 
d="M500 911l-85 -91h-103l129 130h118l129 -130h-103zM500 760c249 0 450 -172 450 -385s-201 -385 -450 -385s-450 172 -450 385s201 385 450 385zM500 90c194 0 350 127 350 285s-156 285 -350 285s-350 -127 -350 -285s156 -285 350 -285zM427 -116l73 73l73 -73l-73 -73
z" />
    <glyph glyph-name="uni1ED8.ss02" horiz-adv-x="950" 
d="M475 911l-85 -91h-103l129 130h118l129 -130h-103zM880 750v-750h-810v750h810zM780 650h-610v-550h610v550zM402 -116l73 73l73 -73l-73 -73z" />
    <glyph glyph-name="uni1ED2" unicode="&#x1ed2;" horiz-adv-x="1000" 
d="M532 994h-91l-138 130h127zM441 950h118l129 -130h-103l-85 91l-85 -91h-103zM500 760c249 0 450 -172 450 -385s-201 -385 -450 -385s-450 172 -450 385s201 385 450 385zM500 90c194 0 350 127 350 285s-156 285 -350 285s-350 -127 -350 -285s156 -285 350 -285z" />
    <glyph glyph-name="uni1ED2.ss02" horiz-adv-x="950" 
d="M507 994h-91l-138 130h127zM416 950h118l129 -130h-103l-85 91l-85 -91h-103zM880 750v-750h-810v750h810zM780 650h-610v-550h610v550z" />
    <glyph glyph-name="uni1ED4" unicode="&#x1ed4;" horiz-adv-x="1000" 
d="M629 1045c-29 28 -72 10 -84 -31l-52 51c37 88 137 97 194 39c59 -59 47 -160 -39 -195l-51 53c44 12 60 55 32 83zM504 911l-85 -91h-103l129 130h118l129 -130h-103zM500 760c249 0 450 -172 450 -385s-201 -385 -450 -385s-450 172 -450 385s201 385 450 385zM500 90
c194 0 350 127 350 285s-156 285 -350 285s-350 -127 -350 -285s156 -285 350 -285z" />
    <glyph glyph-name="uni1ED4.ss02" horiz-adv-x="950" 
d="M604 1045c-29 28 -72 10 -84 -31l-52 51c37 88 137 97 194 39c59 -59 47 -160 -39 -195l-51 53c44 12 60 55 32 83zM479 911l-85 -91h-103l129 130h118l129 -130h-103zM880 750v-750h-810v750h810zM780 650h-610v-550h610v550z" />
    <glyph glyph-name="uni1ED6" unicode="&#x1ed6;" horiz-adv-x="1000" 
d="M347 981c-57 52 -30 160 75 160c103 0 91 -102 145 -102c47 0 51 64 -8 92h94c56 -49 32 -160 -76 -160c-101 0 -88 102 -143 102c-48 0 -51 -58 8 -92h-95zM500 911l-85 -91h-103l129 130h118l129 -130h-103zM500 760c249 0 450 -172 450 -385s-201 -385 -450 -385
s-450 172 -450 385s201 385 450 385zM500 90c194 0 350 127 350 285s-156 285 -350 285s-350 -127 -350 -285s156 -285 350 -285z" />
    <glyph glyph-name="uni1ED6.ss02" horiz-adv-x="950" 
d="M322 981c-57 52 -30 160 75 160c103 0 91 -102 145 -102c47 0 51 64 -8 92h94c56 -49 32 -160 -76 -160c-101 0 -88 102 -143 102c-48 0 -51 -58 8 -92h-95zM475 911l-85 -91h-103l129 130h118l129 -130h-103zM880 750v-750h-810v750h810zM780 650h-610v-550h610v550z
" />
    <glyph glyph-name="Odieresis" unicode="&#xd6;" horiz-adv-x="1000" 
d="M406 938l64 -64l-64 -64l-64 64zM591 938l64 -64l-64 -64l-64 64zM500 -10c-249 0 -450 172 -450 385s201 385 450 385s450 -172 450 -385s-201 -385 -450 -385zM500 90c194 0 350 127 350 285s-156 285 -350 285s-350 -127 -350 -285s156 -285 350 -285z" />
    <glyph glyph-name="Odieresis.ss02" horiz-adv-x="950" 
d="M445 874l-64 -64l-64 64l64 64zM630 874l-64 -64l-64 64l64 64zM880 750v-750h-810v750h810zM780 650h-610v-550h610v550z" />
    <glyph glyph-name="uni1ECC" unicode="&#x1ecc;" horiz-adv-x="1000" 
d="M500 -10c-249 0 -450 172 -450 385s201 385 450 385s450 -172 450 -385s-201 -385 -450 -385zM500 90c194 0 350 127 350 285s-156 285 -350 285s-350 -127 -350 -285s156 -285 350 -285zM500 -43l73 -73l-73 -73l-73 73z" />
    <glyph glyph-name="uni1ECC.ss02" horiz-adv-x="950" 
d="M880 750v-750h-810v750h810zM780 650h-610v-550h610v550zM402 -116l73 73l73 -73l-73 -73z" />
    <glyph glyph-name="Ograve" unicode="&#xd2;" horiz-adv-x="1000" 
d="M430 950l102 -130h-91l-138 130h127zM500 -10c-249 0 -450 172 -450 385s201 385 450 385s450 -172 450 -385s-201 -385 -450 -385zM500 90c194 0 350 127 350 285s-156 285 -350 285s-350 -127 -350 -285s156 -285 350 -285z" />
    <glyph glyph-name="Ograve.ss02" horiz-adv-x="950" 
d="M507 820h-91l-138 130h127zM880 750v-750h-810v750h810zM780 650h-610v-550h610v550z" />
    <glyph glyph-name="uni1ECE" unicode="&#x1ece;" horiz-adv-x="1000" 
d="M525 787l-51 53c44 12 60 55 31 83c-28 29 -71 11 -83 -31l-52 51c37 88 136 97 194 40c59 -60 47 -161 -39 -196zM500 -10c-249 0 -450 172 -450 385s201 385 450 385s450 -172 450 -385s-201 -385 -450 -385zM500 90c194 0 350 127 350 285s-156 285 -350 285
s-350 -127 -350 -285s156 -285 350 -285z" />
    <glyph glyph-name="uni1ECE.ss02" horiz-adv-x="950" 
d="M480 923c-28 29 -71 11 -83 -31l-52 51c37 88 136 97 194 40c59 -60 47 -161 -39 -196l-51 53c44 12 60 55 31 83zM880 750v-750h-810v750h810zM780 650h-610v-550h610v550z" />
    <glyph glyph-name="Ohorn" unicode="&#x1a0;" horiz-adv-x="1000" 
d="M776 679c106 -70 174 -180 174 -304c0 -213 -201 -385 -450 -385s-450 172 -450 385s201 385 450 385h176c31 0 47 22 47 46c0 30 -17 47 -27 54h102c16 -18 28 -42 28 -76c0 -47 -18 -84 -50 -105zM500 90c194 0 350 127 350 285s-156 285 -350 285s-350 -127 -350 -285
s156 -285 350 -285z" />
    <glyph glyph-name="Ohorn.ss02" horiz-adv-x="950" 
d="M997 774c0 -74 -45 -121 -117 -124v-650h-810v750h777c31 0 47 22 47 46c0 30 -17 47 -27 54h102c16 -18 28 -42 28 -76zM780 650h-610v-550h610v550z" />
    <glyph glyph-name="uni1EDA" unicode="&#x1eda;" horiz-adv-x="1000" 
d="M689 950l-137 -130h-92l103 130h126zM776 679c106 -70 174 -180 174 -304c0 -213 -201 -385 -450 -385s-450 172 -450 385s201 385 450 385h176c31 0 47 22 47 46c0 30 -17 47 -27 54h102c16 -18 28 -42 28 -76c0 -47 -18 -84 -50 -105zM500 90c194 0 350 127 350 285
s-156 285 -350 285s-350 -127 -350 -285s156 -285 350 -285z" />
    <glyph glyph-name="uni1EDA.ss02" horiz-adv-x="950" 
d="M664 950l-137 -130h-92l103 130h126zM997 774c0 -74 -45 -121 -117 -124v-650h-810v750h777c31 0 47 22 47 46c0 30 -17 47 -27 54h102c16 -18 28 -42 28 -76zM780 650h-610v-550h610v550z" />
    <glyph glyph-name="uni1EE2" unicode="&#x1ee2;" horiz-adv-x="1000" 
d="M776 679c106 -70 174 -180 174 -304c0 -213 -201 -385 -450 -385s-450 172 -450 385s201 385 450 385h176c31 0 47 22 47 46c0 30 -17 47 -27 54h102c16 -18 28 -42 28 -76c0 -47 -18 -84 -50 -105zM500 90c194 0 350 127 350 285s-156 285 -350 285s-350 -127 -350 -285
s156 -285 350 -285zM427 -116l73 73l73 -73l-73 -73z" />
    <glyph glyph-name="uni1EE2.ss02" horiz-adv-x="950" 
d="M997 774c0 -74 -45 -121 -117 -124v-650h-810v750h777c31 0 47 22 47 46c0 30 -17 47 -27 54h102c16 -18 28 -42 28 -76zM780 650h-610v-550h610v550zM402 -116l73 73l73 -73l-73 -73z" />
    <glyph glyph-name="uni1EDC" unicode="&#x1edc;" horiz-adv-x="1000" 
d="M532 820h-91l-138 130h127zM776 679c106 -70 174 -180 174 -304c0 -213 -201 -385 -450 -385s-450 172 -450 385s201 385 450 385h176c31 0 47 22 47 46c0 30 -17 47 -27 54h102c16 -18 28 -42 28 -76c0 -47 -18 -84 -50 -105zM500 90c194 0 350 127 350 285
s-156 285 -350 285s-350 -127 -350 -285s156 -285 350 -285z" />
    <glyph glyph-name="uni1EDC.ss02" horiz-adv-x="950" 
d="M507 820h-91l-138 130h127zM997 774c0 -74 -45 -121 -117 -124v-650h-810v750h777c31 0 47 22 47 46c0 30 -17 47 -27 54h102c16 -18 28 -42 28 -76zM780 650h-610v-550h610v550z" />
    <glyph glyph-name="uni1EDE" unicode="&#x1ede;" horiz-adv-x="1000" 
d="M505 923c-28 29 -71 11 -83 -31l-52 51c37 88 136 97 194 40c59 -60 47 -161 -39 -196l-51 53c44 12 60 55 31 83zM776 679c106 -70 174 -180 174 -304c0 -213 -201 -385 -450 -385s-450 172 -450 385s201 385 450 385h176c31 0 47 22 47 46c0 30 -17 47 -27 54h102
c16 -18 28 -42 28 -76c0 -47 -18 -84 -50 -105zM500 90c194 0 350 127 350 285s-156 285 -350 285s-350 -127 -350 -285s156 -285 350 -285z" />
    <glyph glyph-name="uni1EDE.ss02" horiz-adv-x="950" 
d="M480 923c-28 29 -71 11 -83 -31l-52 51c37 88 136 97 194 40c59 -60 47 -161 -39 -196l-51 53c44 12 60 55 31 83zM997 774c0 -74 -45 -121 -117 -124v-650h-810v750h777c31 0 47 22 47 46c0 30 -17 47 -27 54h102c16 -18 28 -42 28 -76zM780 650h-610v-550h610v550z" />
    <glyph glyph-name="uni1EE0" unicode="&#x1ee0;" horiz-adv-x="1000" 
d="M347 808c-57 51 -30 160 75 160c103 0 91 -102 145 -102c47 0 51 63 -8 92h94c56 -49 32 -160 -76 -160c-101 0 -88 101 -143 101c-48 0 -51 -58 8 -91h-95zM776 679c106 -70 174 -180 174 -304c0 -213 -201 -385 -450 -385s-450 172 -450 385s201 385 450 385h176
c31 0 47 22 47 46c0 30 -17 47 -27 54h102c16 -18 28 -42 28 -76c0 -47 -18 -84 -50 -105zM500 90c194 0 350 127 350 285s-156 285 -350 285s-350 -127 -350 -285s156 -285 350 -285z" />
    <glyph glyph-name="uni1EE0.ss02" horiz-adv-x="950" 
d="M322 808c-57 51 -30 160 75 160c103 0 91 -102 145 -102c47 0 51 63 -8 92h94c56 -49 32 -160 -76 -160c-101 0 -88 101 -143 101c-48 0 -51 -58 8 -91h-95zM997 774c0 -74 -45 -121 -117 -124v-650h-810v750h777c31 0 47 22 47 46c0 30 -17 47 -27 54h102
c16 -18 28 -42 28 -76zM780 650h-610v-550h610v550z" />
    <glyph glyph-name="Ohungarumlaut" unicode="&#x150;" horiz-adv-x="1000" 
d="M482 950h126l-137 -130h-92zM654 950h127l-138 -130h-91zM500 -10c-249 0 -450 172 -450 385s201 385 450 385s450 -172 450 -385s-201 -385 -450 -385zM500 90c194 0 350 127 350 285s-156 285 -350 285s-350 -127 -350 -285s156 -285 350 -285z" />
    <glyph glyph-name="Ohungarumlaut.ss02" horiz-adv-x="950" 
d="M583 950l-137 -130h-92l103 130h126zM618 820h-91l102 130h127zM880 750v-750h-810v750h810zM780 650h-610v-550h610v550z" />
    <glyph glyph-name="Omacron" unicode="&#x14c;" horiz-adv-x="1000" 
d="M326 839v85h348v-85h-348zM500 -10c-249 0 -450 172 -450 385s201 385 450 385s450 -172 450 -385s-201 -385 -450 -385zM500 90c194 0 350 127 350 285s-156 285 -350 285s-350 -127 -350 -285s156 -285 350 -285z" />
    <glyph glyph-name="Omacron.ss02" horiz-adv-x="950" 
d="M649 924v-85h-348v85h348zM880 750v-750h-810v750h810zM780 650h-610v-550h610v550z" />
    <glyph glyph-name="Oslash" unicode="&#xd8;" horiz-adv-x="1000" 
d="M807 657c88 -70 143 -170 143 -282c0 -213 -201 -385 -450 -385c-80 0 -156 18 -221 49l-34 -39h-131l79 93c-88 70 -143 170 -143 282c0 213 201 385 450 385c81 0 156 -18 222 -50l34 40h130zM150 375c0 -81 41 -155 108 -207l396 463c-46 19 -99 29 -154 29
c-194 0 -350 -127 -350 -285zM500 90c194 0 350 127 350 285c0 81 -41 155 -108 206l-396 -462c47 -19 99 -29 154 -29z" />
    <glyph glyph-name="Oslash.ss02" horiz-adv-x="950" 
d="M880 750v-750h-810v750h810zM660 650h-490v-540zM780 640l-490 -540h490v540z" />
    <glyph glyph-name="Otilde" unicode="&#xd5;" horiz-adv-x="1000" 
d="M422 968c103 0 91 -102 145 -102c47 0 51 63 -8 92h94c56 -49 32 -160 -76 -160c-101 0 -88 101 -143 101c-48 0 -51 -58 8 -91h-95c-57 51 -30 160 75 160zM500 -10c-249 0 -450 172 -450 385s201 385 450 385s450 -172 450 -385s-201 -385 -450 -385zM500 90
c194 0 350 127 350 285s-156 285 -350 285s-350 -127 -350 -285s156 -285 350 -285z" />
    <glyph glyph-name="Otilde.ss02" horiz-adv-x="950" 
d="M322 808c-57 51 -30 160 75 160c103 0 91 -102 145 -102c47 0 51 63 -8 92h94c56 -49 32 -160 -76 -160c-101 0 -88 101 -143 101c-48 0 -51 -58 8 -91h-95zM880 750v-750h-810v750h810zM780 650h-610v-550h610v550z" />
    <glyph glyph-name="OE" unicode="&#x152;" horiz-adv-x="1558" 
d="M1508 650h-558v-184h458v-100h-458v-266h558v-100h-658v133c-82 -87 -208 -143 -350 -143c-249 0 -450 172 -450 385s201 385 450 385c142 0 268 -56 350 -143v133h658v-100zM500 90c194 0 350 127 350 285s-156 285 -350 285s-350 -127 -350 -285s156 -285 350 -285z
" />
    <glyph glyph-name="P" unicode="P" horiz-adv-x="801" 
d="M509 750c139 0 252 -112 252 -251c0 -140 -114 -252 -252 -252h-339v-247h-100v750h439zM509 347c85 0 152 68 152 152c0 83 -68 151 -152 151h-339v-303h339z" />
    <glyph glyph-name="Thorn" unicode="&#xde;" horiz-adv-x="781" 
d="M489 650c139 0 252 -112 252 -251c0 -140 -114 -252 -252 -252h-319v-147h-100v750h100v-100h319zM489 247c85 0 152 68 152 152c0 83 -69 151 -152 151h-319v-303h319z" />
    <glyph glyph-name="Q" unicode="Q" horiz-adv-x="1000" 
d="M950 375c0 -90 -36 -173 -96 -239l75 -75l-71 -71l-81 81c-76 -51 -172 -81 -277 -81c-249 0 -450 172 -450 385s201 385 450 385s450 -172 450 -385zM500 90c77 0 147 20 205 54l-129 129l70 71l137 -137c42 47 67 105 67 168c0 158 -156 285 -350 285
s-350 -127 -350 -285s156 -285 350 -285z" />
    <glyph glyph-name="R" unicode="R" horiz-adv-x="801" 
d="M761 499c0 -108 -68 -200 -164 -236l128 -263h-106l-120 247h-329v-247h-100v750h439c139 0 252 -112 252 -251zM170 650v-303h339c85 0 152 68 152 152c0 83 -68 151 -152 151h-339z" />
    <glyph glyph-name="Racute" unicode="&#x154;" horiz-adv-x="801" 
d="M561 950l-137 -130h-92l103 130h126zM761 499c0 -108 -68 -200 -164 -236l128 -263h-106l-120 247h-329v-247h-100v750h439c139 0 252 -112 252 -251zM170 650v-303h339c85 0 152 68 152 152c0 83 -68 151 -152 151h-339z" />
    <glyph glyph-name="Rcaron" unicode="&#x158;" horiz-adv-x="801" 
d="M313 820l-129 130h103l85 -91l85 91h103l-129 -130h-118zM761 499c0 -108 -68 -200 -164 -236l128 -263h-106l-120 247h-329v-247h-100v750h439c139 0 252 -112 252 -251zM170 650v-303h339c85 0 152 68 152 152c0 83 -68 151 -152 151h-339z" />
    <glyph glyph-name="uni0156" unicode="&#x156;" horiz-adv-x="801" 
d="M761 499c0 -108 -68 -200 -164 -236l128 -263h-106l-120 247h-329v-247h-100v750h439c139 0 252 -112 252 -251zM170 650v-303h339c85 0 152 68 152 152c0 83 -68 151 -152 151h-339zM234 -278l89 224l96 -45l-114 -212z" />
    <glyph glyph-name="S" unicode="S" horiz-adv-x="769" 
d="M373 -10c-207 0 -302 95 -315 105v117c46 -43 141 -122 315 -122c124 0 236 46 236 132c0 68 -80 94 -263 133c-172 39 -296 74 -296 198c0 129 137 207 329 207c154 0 254 -52 303 -93v-115c-58 49 -161 108 -310 108c-122 0 -216 -45 -216 -107c0 -59 100 -80 211 -105
c221 -51 352 -90 352 -225c0 -143 -144 -233 -346 -233z" />
    <glyph glyph-name="S.ss02" horiz-adv-x="860" 
d="M790 650h-620v-225h620v-425h-720v100h620v225h-620v425h720v-100z" />
    <glyph glyph-name="Sacute" unicode="&#x15a;" horiz-adv-x="769" 
d="M444 950h126l-137 -130h-92zM373 -10c-207 0 -302 95 -315 105v117c46 -43 141 -122 315 -122c124 0 236 46 236 132c0 68 -80 94 -263 133c-172 39 -296 74 -296 198c0 129 137 207 329 207c154 0 254 -52 303 -93v-115c-58 49 -161 108 -310 108
c-122 0 -216 -45 -216 -107c0 -59 100 -80 211 -105c221 -51 352 -90 352 -225c0 -143 -144 -233 -346 -233z" />
    <glyph glyph-name="Sacute.ss02" horiz-adv-x="860" 
d="M622 950l-137 -130h-92l103 130h126zM790 650h-620v-225h620v-425h-720v100h620v225h-620v425h720v-100z" />
    <glyph glyph-name="Scaron" unicode="&#x160;" horiz-adv-x="769" 
d="M322 820l-129 130h103l85 -91l85 91h103l-129 -130h-118zM367 448c221 -51 352 -90 352 -225c0 -143 -144 -233 -346 -233c-207 0 -302 95 -315 105v117c46 -43 141 -122 315 -122c124 0 236 46 236 132c0 68 -80 94 -263 133c-172 39 -296 74 -296 198
c0 129 137 207 329 207c154 0 254 -52 303 -93v-115c-58 49 -161 108 -310 108c-122 0 -216 -45 -216 -107c0 -59 100 -80 211 -105z" />
    <glyph glyph-name="Scaron.ss02" horiz-adv-x="860" 
d="M374 820l-129 130h103l85 -91l85 91h103l-129 -130h-118zM790 650h-620v-225h620v-425h-720v100h620v225h-620v425h720v-100z" />
    <glyph glyph-name="Scedilla" unicode="&#x15e;" horiz-adv-x="769" 
d="M719 223c0 -131 -122 -218 -298 -231l-6 -43c43 -8 71 -41 71 -79c0 -46 -35 -83 -95 -83c-18 0 -36 5 -51 13v52c6 -8 18 -14 31 -14c20 0 35 13 35 30s-15 30 -35 30c-13 0 -25 -6 -31 -14v107c-184 9 -270 95 -282 104v117c46 -43 141 -122 315 -122
c124 0 236 46 236 132c0 68 -80 94 -263 133c-172 39 -296 74 -296 198c0 129 137 207 329 207c154 0 254 -52 303 -93v-115c-58 49 -161 108 -310 108c-122 0 -216 -45 -216 -107c0 -59 100 -80 211 -105c221 -51 352 -90 352 -225z" />
    <glyph glyph-name="Scedilla.ss02" horiz-adv-x="860" 
d="M790 650h-620v-225h620v-425h-307l-10 -54c39 -11 64 -41 64 -76c0 -46 -37 -83 -100 -83c-19 0 -39 5 -54 13v55c8 -9 21 -15 37 -15c23 0 42 14 42 32c0 19 -19 33 -42 33c-16 0 -29 -6 -37 -15v110h-313v100h620v225h-620v425h720v-100z" />
    <glyph glyph-name="uni0218" unicode="&#x218;" horiz-adv-x="769" 
d="M373 -10c-207 0 -302 95 -315 105v117c46 -43 141 -122 315 -122c124 0 236 46 236 132c0 68 -80 94 -263 133c-172 39 -296 74 -296 198c0 129 137 207 329 207c154 0 254 -52 303 -93v-115c-58 49 -161 108 -310 108c-122 0 -216 -45 -216 -107c0 -59 100 -80 211 -105
c221 -51 352 -90 352 -225c0 -143 -144 -233 -346 -233zM243 -278l89 224l96 -45l-114 -212z" />
    <glyph glyph-name="uni0218.ss02" horiz-adv-x="860" 
d="M790 650h-620v-225h620v-425h-720v100h620v225h-620v425h720v-100zM295 -278l89 224l96 -45l-114 -212z" />
    <glyph glyph-name="uni1E9E" unicode="&#x1e9e;" horiz-adv-x="800" 
d="M514 500c129 -4 236 -114 236 -250c0 -139 -110 -250 -243 -250h-172v100h167c82 0 148 67 148 150s-67 150 -148 150h-162l155 246l-226 1c-55 0 -99 -44 -99 -98v-549h-100v548c0 112 88 202 202 202h398z" />
    <glyph glyph-name="T" unicode="T" horiz-adv-x="858" 
d="M808 750v-100h-329v-650h-100v650h-329v100h758z" />
    <glyph glyph-name="T.ss05" horiz-adv-x="858" 
d="M808 320v-100h-329v-220h-100v220h-329v100h329v430h100v-430h329z" />
    <glyph glyph-name="Tbar" unicode="&#x166;" horiz-adv-x="858" 
d="M808 650h-329v-150h124v-100h-124v-400h-100v400h-125v100h125v150h-329v100h758v-100z" />
    <glyph glyph-name="Tbar.ss05" horiz-adv-x="858" 
d="M808 320v-100h-329v-220h-100v220h-329v100h329v118h-125v62h125v250h100v-250h124v-62h-124v-118h329z" />
    <glyph glyph-name="Tcaron" unicode="&#x164;" horiz-adv-x="858" 
d="M370 820l-129 130h103l85 -91l85 91h103l-129 -130h-118zM808 750v-100h-329v-650h-100v650h-329v100h758z" />
    <glyph glyph-name="Tcaron.ss05" horiz-adv-x="858" 
d="M370 820l-129 130h103l85 -91l85 91h103l-129 -130h-118zM808 320v-100h-329v-220h-100v220h-329v100h329v430h100v-430h329z" />
    <glyph glyph-name="uni0162" unicode="&#x162;" horiz-adv-x="858" 
d="M479 0l-10 -54c39 -11 64 -41 64 -76c0 -46 -37 -83 -100 -83c-19 0 -39 5 -54 13v55c8 -9 21 -15 37 -15c23 0 42 14 42 32c0 19 -19 33 -42 33c-16 0 -29 -6 -37 -15v760h-329v100h758v-100h-329v-650z" />
    <glyph glyph-name="uni0162.ss05" horiz-adv-x="858" 
d="M479 0l-10 -54c39 -11 64 -41 64 -76c0 -46 -37 -83 -100 -83c-19 0 -39 5 -54 13v55c8 -9 21 -15 37 -15c23 0 42 14 42 32c0 19 -19 33 -42 33c-16 0 -29 -6 -37 -15v330h-329v100h329v430h100v-430h329v-100h-329v-220z" />
    <glyph glyph-name="uni021A" unicode="&#x21a;" horiz-adv-x="858" 
d="M808 750v-100h-329v-650h-100v650h-329v100h758zM290 -278l89 224l96 -45l-114 -212z" />
    <glyph glyph-name="uni021A.ss05" horiz-adv-x="858" 
d="M808 320v-100h-329v-220h-100v220h-329v100h329v430h100v-430h329zM290 -278l89 224l96 -45l-114 -212z" />
    <glyph glyph-name="U" unicode="U" 
d="M440 -10c-205 0 -370 165 -370 370v390h100v-390c0 -150 120 -270 270 -270s270 122 270 270v390h100v-390c0 -205 -165 -370 -370 -370z" />
    <glyph glyph-name="U.ss02" 
d="M710 750h100v-750h-740v750h100v-650h540v650z" />
    <glyph glyph-name="Uacute" unicode="&#xda;" 
d="M503 950h126l-137 -130h-92zM440 -10c-205 0 -370 165 -370 370v390h100v-390c0 -150 120 -270 270 -270s270 122 270 270v390h100v-390c0 -205 -165 -370 -370 -370z" />
    <glyph glyph-name="Uacute.ss02" 
d="M629 950l-137 -130h-92l103 130h126zM710 750h100v-750h-740v750h100v-650h540v650z" />
    <glyph glyph-name="uni01D3" unicode="&#x1d3;" 
d="M381 820l-129 130h103l85 -91l85 91h103l-129 -130h-118zM710 750h100v-390c0 -205 -165 -370 -370 -370s-370 165 -370 370v390h100v-390c0 -150 120 -270 270 -270s270 122 270 270v390z" />
    <glyph glyph-name="uni01D3.ss02" 
d="M381 820l-129 130h103l85 -91l85 91h103l-129 -130h-118zM710 750h100v-750h-740v750h100v-650h540v650z" />
    <glyph glyph-name="Ucircumflex" unicode="&#xdb;" 
d="M444 911l-85 -91h-103l129 130h118l129 -130h-103zM710 750h100v-390c0 -205 -165 -370 -370 -370s-370 165 -370 370v390h100v-390c0 -150 120 -270 270 -270s270 122 270 270v390z" />
    <glyph glyph-name="Ucircumflex.ss02" 
d="M440 911l-85 -91h-103l129 130h118l129 -130h-103zM710 750h100v-750h-740v750h100v-650h540v650z" />
    <glyph glyph-name="Udieresis" unicode="&#xdc;" 
d="M346 938l64 -64l-64 -64l-64 64zM531 938l64 -64l-64 -64l-64 64zM440 -10c-205 0 -370 165 -370 370v390h100v-390c0 -150 120 -270 270 -270s270 122 270 270v390h100v-390c0 -205 -165 -370 -370 -370z" />
    <glyph glyph-name="Udieresis.ss02" 
d="M410 874l-64 -64l-64 64l64 64zM595 874l-64 -64l-64 64l64 64zM710 750h100v-750h-740v750h100v-650h540v650z" />
    <glyph glyph-name="uni01D7" unicode="&#x1d7;" 
d="M503 1114h126l-137 -130h-92zM346 938l64 -64l-64 -64l-64 64zM531 938l64 -64l-64 -64l-64 64zM440 -10c-205 0 -370 165 -370 370v390h100v-390c0 -150 120 -270 270 -270s270 122 270 270v390h100v-390c0 -205 -165 -370 -370 -370z" />
    <glyph glyph-name="uni01D7.ss02" 
d="M629 1114l-137 -130h-92l103 130h126zM410 874l-64 -64l-64 64l64 64zM531 810l-64 64l64 64l64 -64zM710 750h100v-750h-740v750h100v-650h540v650z" />
    <glyph glyph-name="uni01D9" unicode="&#x1d9;" 
d="M381 984l-129 130h103l85 -91l85 91h103l-129 -130h-118zM282 874l64 64l64 -64l-64 -64zM531 810l-64 64l64 64l64 -64zM710 750h100v-390c0 -205 -165 -370 -370 -370s-370 165 -370 370v390h100v-390c0 -150 120 -270 270 -270s270 122 270 270v390z" />
    <glyph glyph-name="uni01D9.ss02" 
d="M381 984l-129 130h103l85 -91l85 91h103l-129 -130h-118zM282 874l64 64l64 -64l-64 -64zM531 810l-64 64l64 64l64 -64zM710 750h100v-750h-740v750h100v-650h540v650z" />
    <glyph glyph-name="uni01DB" unicode="&#x1db;" 
d="M370 1114l102 -130h-91l-138 130h127zM346 938l64 -64l-64 -64l-64 64zM531 938l64 -64l-64 -64l-64 64zM440 -10c-205 0 -370 165 -370 370v390h100v-390c0 -150 120 -270 270 -270s270 122 270 270v390h100v-390c0 -205 -165 -370 -370 -370z" />
    <glyph glyph-name="uni01DB.ss02" 
d="M472 984h-91l-138 130h127zM282 874l64 64l64 -64l-64 -64zM531 810l-64 64l64 64l64 -64zM710 750h100v-750h-740v750h100v-650h540v650z" />
    <glyph glyph-name="uni01D5" unicode="&#x1d5;" 
d="M266 1003v85h348v-85h-348zM346 938l64 -64l-64 -64l-64 64zM531 938l64 -64l-64 -64l-64 64zM440 -10c-205 0 -370 165 -370 370v390h100v-390c0 -150 120 -270 270 -270s270 122 270 270v390h100v-390c0 -205 -165 -370 -370 -370z" />
    <glyph glyph-name="uni01D5.ss02" 
d="M614 1088v-85h-348v85h348zM346 810l-64 64l64 64l64 -64zM531 810l-64 64l64 64l64 -64zM710 750h100v-750h-740v750h100v-650h540v650z" />
    <glyph glyph-name="uni1EE4" unicode="&#x1ee4;" 
d="M440 -10c-205 0 -370 165 -370 370v390h100v-390c0 -150 120 -270 270 -270s270 122 270 270v390h100v-390c0 -205 -165 -370 -370 -370zM440 -43l73 -73l-73 -73l-73 73z" />
    <glyph glyph-name="uni1EE4.ss02" 
d="M710 750h100v-750h-740v750h100v-650h540v650zM367 -116l73 73l73 -73l-73 -73z" />
    <glyph glyph-name="Ugrave" unicode="&#xd9;" 
d="M370 950l102 -130h-91l-138 130h127zM440 -10c-205 0 -370 165 -370 370v390h100v-390c0 -150 120 -270 270 -270s270 122 270 270v390h100v-390c0 -205 -165 -370 -370 -370z" />
    <glyph glyph-name="Ugrave.ss02" 
d="M472 820h-91l-138 130h127zM710 750h100v-750h-740v750h100v-650h540v650z" />
    <glyph glyph-name="uni1EE6" unicode="&#x1ee6;" 
d="M465 787l-51 53c44 12 60 55 31 83c-28 29 -71 11 -83 -31l-52 51c37 88 136 97 194 40c59 -60 47 -161 -39 -196zM440 -10c-205 0 -370 165 -370 370v390h100v-390c0 -150 120 -270 270 -270s270 122 270 270v390h100v-390c0 -205 -165 -370 -370 -370z" />
    <glyph glyph-name="uni1EE6.ss02" 
d="M445 923c-28 29 -71 11 -83 -31l-52 51c37 88 136 97 194 40c59 -60 47 -161 -39 -196l-51 53c44 12 60 55 31 83zM710 750h100v-750h-740v750h100v-650h540v650z" />
    <glyph glyph-name="Uhorn" unicode="&#x1af;" 
d="M924 774c0 -73 -43 -120 -114 -124v-290c0 -205 -165 -370 -370 -370s-370 165 -370 370v390h100v-390c0 -150 120 -270 270 -270s270 122 270 270v390h64c31 0 47 22 47 46c0 30 -17 47 -27 54h102c16 -18 28 -42 28 -76z" />
    <glyph glyph-name="Uhorn.ss02" 
d="M924 774c0 -73 -43 -120 -114 -124v-650h-740v750h100v-650h540v650h64c31 0 47 22 47 46c0 30 -17 47 -27 54h102c16 -18 28 -42 28 -76z" />
    <glyph glyph-name="uni1EE8" unicode="&#x1ee8;" 
d="M629 950l-137 -130h-92l103 130h126zM924 774c0 -73 -43 -120 -114 -124v-290c0 -205 -165 -370 -370 -370s-370 165 -370 370v390h100v-390c0 -150 120 -270 270 -270s270 122 270 270v390h64c31 0 47 22 47 46c0 30 -17 47 -27 54h102c16 -18 28 -42 28 -76z" />
    <glyph glyph-name="uni1EE8.ss02" 
d="M629 950l-137 -130h-92l103 130h126zM924 774c0 -73 -43 -120 -114 -124v-650h-740v750h100v-650h540v650h64c31 0 47 22 47 46c0 30 -17 47 -27 54h102c16 -18 28 -42 28 -76z" />
    <glyph glyph-name="uni1EF0" unicode="&#x1ef0;" 
d="M924 774c0 -73 -43 -120 -114 -124v-290c0 -205 -165 -370 -370 -370s-370 165 -370 370v390h100v-390c0 -150 120 -270 270 -270s270 122 270 270v390h64c31 0 47 22 47 46c0 30 -17 47 -27 54h102c16 -18 28 -42 28 -76zM367 -116l73 73l73 -73l-73 -73z" />
    <glyph glyph-name="uni1EF0.ss02" 
d="M924 774c0 -73 -43 -120 -114 -124v-650h-740v750h100v-650h540v650h64c31 0 47 22 47 46c0 30 -17 47 -27 54h102c16 -18 28 -42 28 -76zM367 -116l73 73l73 -73l-73 -73z" />
    <glyph glyph-name="uni1EEA" unicode="&#x1eea;" 
d="M472 820h-91l-138 130h127zM924 774c0 -73 -43 -120 -114 -124v-290c0 -205 -165 -370 -370 -370s-370 165 -370 370v390h100v-390c0 -150 120 -270 270 -270s270 122 270 270v390h64c31 0 47 22 47 46c0 30 -17 47 -27 54h102c16 -18 28 -42 28 -76z" />
    <glyph glyph-name="uni1EEA.ss02" 
d="M472 820h-91l-138 130h127zM924 774c0 -73 -43 -120 -114 -124v-650h-740v750h100v-650h540v650h64c31 0 47 22 47 46c0 30 -17 47 -27 54h102c16 -18 28 -42 28 -76z" />
    <glyph glyph-name="uni1EEC" unicode="&#x1eec;" 
d="M445 923c-28 29 -71 11 -83 -31l-52 51c37 88 136 97 194 40c59 -60 47 -161 -39 -196l-51 53c44 12 60 55 31 83zM924 774c0 -73 -43 -120 -114 -124v-290c0 -205 -165 -370 -370 -370s-370 165 -370 370v390h100v-390c0 -150 120 -270 270 -270s270 122 270 270v390h64
c31 0 47 22 47 46c0 30 -17 47 -27 54h102c16 -18 28 -42 28 -76z" />
    <glyph glyph-name="uni1EEC.ss02" 
d="M445 923c-28 29 -71 11 -83 -31l-52 51c37 88 136 97 194 40c59 -60 47 -161 -39 -196l-51 53c44 12 60 55 31 83zM924 774c0 -73 -43 -120 -114 -124v-650h-740v750h100v-650h540v650h64c31 0 47 22 47 46c0 30 -17 47 -27 54h102c16 -18 28 -42 28 -76z" />
    <glyph glyph-name="uni1EEE" unicode="&#x1eee;" 
d="M287 808c-57 51 -30 160 75 160c103 0 91 -102 145 -102c47 0 51 63 -8 92h94c56 -49 32 -160 -76 -160c-101 0 -88 101 -143 101c-48 0 -51 -58 8 -91h-95zM924 774c0 -73 -43 -120 -114 -124v-290c0 -205 -165 -370 -370 -370s-370 165 -370 370v390h100v-390
c0 -150 120 -270 270 -270s270 122 270 270v390h64c31 0 47 22 47 46c0 30 -17 47 -27 54h102c16 -18 28 -42 28 -76z" />
    <glyph glyph-name="uni1EEE.ss02" 
d="M287 808c-57 51 -30 160 75 160c103 0 91 -102 145 -102c47 0 51 63 -8 92h94c56 -49 32 -160 -76 -160c-101 0 -88 101 -143 101c-48 0 -51 -58 8 -91h-95zM924 774c0 -73 -43 -120 -114 -124v-650h-740v750h100v-650h540v650h64c31 0 47 22 47 46c0 30 -17 47 -27 54
h102c16 -18 28 -42 28 -76z" />
    <glyph glyph-name="Uhungarumlaut" unicode="&#x170;" 
d="M422 950h126l-137 -130h-92zM594 950h127l-138 -130h-91zM440 -10c-205 0 -370 165 -370 370v390h100v-390c0 -150 120 -270 270 -270s270 122 270 270v390h100v-390c0 -205 -165 -370 -370 -370z" />
    <glyph glyph-name="Uhungarumlaut.ss02" 
d="M548 950l-137 -130h-92l103 130h126zM583 820h-91l102 130h127zM710 750h100v-750h-740v750h100v-650h540v650z" />
    <glyph glyph-name="Umacron" unicode="&#x16a;" 
d="M266 839v85h348v-85h-348zM440 -10c-205 0 -370 165 -370 370v390h100v-390c0 -150 120 -270 270 -270s270 122 270 270v390h100v-390c0 -205 -165 -370 -370 -370z" />
    <glyph glyph-name="Umacron.ss02" 
d="M614 924v-85h-348v85h348zM710 750h100v-750h-740v750h100v-650h540v650z" />
    <glyph glyph-name="Uogonek" unicode="&#x172;" 
d="M710 750h100v-390c0 -185 -135 -338 -312 -365c-47 -31 -67 -55 -67 -85c0 -20 16 -36 38 -36c16 0 28 3 39 10l10 -76c-17 -7 -39 -13 -69 -13c-65 0 -100 39 -100 89c0 38 18 73 59 107c-190 16 -338 175 -338 369v390h100v-390c0 -150 120 -270 270 -270
s270 122 270 270v390z" />
    <glyph glyph-name="Uogonek.ss02" 
d="M481 0c-33 -25 -48 -46 -48 -71c0 -20 16 -36 38 -36c16 0 28 3 39 10l10 -76c-17 -7 -39 -13 -69 -13c-65 0 -100 39 -100 89c0 34 15 66 47 97h-328v750h100v-650h540v650h100v-750h-329z" />
    <glyph glyph-name="Uring" unicode="&#x16e;" 
d="M441 803c-66 0 -119 53 -119 120c0 64 53 117 119 117c65 0 119 -53 119 -117c0 -67 -54 -120 -119 -120zM441 873c28 0 48 22 48 48s-20 49 -48 49s-48 -23 -48 -49s20 -48 48 -48zM440 -10c-205 0 -370 165 -370 370v390h100v-390c0 -150 120 -270 270 -270
s270 122 270 270v390h100v-390c0 -205 -165 -370 -370 -370z" />
    <glyph glyph-name="Uring.ss02" 
d="M441 803c-66 0 -119 53 -119 120c0 64 53 117 119 117c65 0 119 -53 119 -117c0 -67 -54 -120 -119 -120zM441 970c-28 0 -48 -23 -48 -49s20 -48 48 -48s48 22 48 48s-20 49 -48 49zM710 750h100v-750h-740v750h100v-650h540v650z" />
    <glyph glyph-name="Utilde" unicode="&#x168;" 
d="M362 968c103 0 91 -102 145 -102c47 0 51 63 -8 92h94c56 -49 32 -160 -76 -160c-101 0 -88 101 -143 101c-48 0 -51 -58 8 -91h-95c-57 51 -30 160 75 160zM440 -10c-205 0 -370 165 -370 370v390h100v-390c0 -150 120 -270 270 -270s270 122 270 270v390h100v-390
c0 -205 -165 -370 -370 -370z" />
    <glyph glyph-name="Utilde.ss02" 
d="M287 808c-57 51 -30 160 75 160c103 0 91 -102 145 -102c47 0 51 63 -8 92h94c56 -49 32 -160 -76 -160c-101 0 -88 101 -143 101c-48 0 -51 -58 8 -91h-95zM710 750h100v-750h-740v750h100v-650h540v650z" />
    <glyph glyph-name="V" unicode="V" horiz-adv-x="953" 
d="M813 750h113l-390 -750h-120l-390 750h113l337 -650z" />
    <glyph glyph-name="W" unicode="W" horiz-adv-x="1118" 
d="M988 750h104l-226 -750h-142l-165 616l-165 -616h-142l-226 750h104l193 -656l169 656h134l170 -654z" />
    <glyph glyph-name="W.ss01" horiz-adv-x="1059" 
d="M900 750c187 -221 138 -760 -190 -760c-70 0 -131 24 -181 63c-50 -39 -111 -63 -181 -63c-328 0 -376 539 -189 760h111c-207 -282 -117 -660 86 -660c40 0 75 12 106 32c-169 220 -159 638 67 638s236 -418 67 -638c31 -20 67 -32 107 -32c203 0 293 378 86 660h111z
M529 660c-116 0 -118 -310 0 -473c119 163 116 473 0 473z" />
    <glyph glyph-name="W.ss02" horiz-adv-x="960" 
d="M790 750h100v-750h-820v750h100v-650h260v650h100v-650h260v650z" />
    <glyph glyph-name="Wacute" unicode="&#x1e82;" horiz-adv-x="1118" 
d="M748 950l-137 -130h-92l103 130h126zM988 750h104l-226 -750h-142l-165 616l-165 -616h-142l-226 750h104l193 -656l169 656h134l170 -654z" />
    <glyph glyph-name="Wacute.ss01" horiz-adv-x="1059" 
d="M718 950l-137 -130h-92l103 130h126zM900 750c187 -221 138 -760 -190 -760c-70 0 -131 24 -181 63c-50 -39 -111 -63 -181 -63c-328 0 -376 539 -189 760h111c-207 -282 -117 -660 86 -660c40 0 75 12 106 32c-169 220 -159 638 67 638s236 -418 67 -638
c31 -20 67 -32 107 -32c203 0 293 378 86 660h111zM529 660c-116 0 -118 -310 0 -473c119 163 116 473 0 473z" />
    <glyph glyph-name="Wacute.ss02" horiz-adv-x="960" 
d="M670 950l-137 -130h-92l103 130h126zM790 750h100v-750h-820v750h100v-650h260v650h100v-650h260v650z" />
    <glyph glyph-name="Wcircumflex" unicode="&#x174;" horiz-adv-x="1118" 
d="M559 911l-85 -91h-103l129 130h118l129 -130h-103zM988 750h104l-226 -750h-142l-165 616l-165 -616h-142l-226 750h104l193 -656l169 656h134l170 -654z" />
    <glyph glyph-name="Wcircumflex.ss01" horiz-adv-x="1059" 
d="M529 911l-85 -91h-103l129 130h118l129 -130h-103zM900 750c187 -221 138 -760 -190 -760c-70 0 -131 24 -181 63c-50 -39 -111 -63 -181 -63c-328 0 -376 539 -189 760h111c-207 -282 -117 -660 86 -660c40 0 75 12 106 32c-169 220 -159 638 67 638s236 -418 67 -638
c31 -20 67 -32 107 -32c203 0 293 378 86 660h111zM529 660c-116 0 -118 -310 0 -473c119 163 116 473 0 473z" />
    <glyph glyph-name="Wcircumflex.ss02" horiz-adv-x="960" 
d="M481 911l-85 -91h-103l129 130h118l129 -130h-103zM790 750h100v-750h-820v750h100v-650h260v650h100v-650h260v650z" />
    <glyph glyph-name="Wdieresis" unicode="&#x1e84;" horiz-adv-x="1118" 
d="M530 874l-64 -64l-64 64l64 64zM715 874l-64 -64l-64 64l64 64zM988 750h104l-226 -750h-142l-165 616l-165 -616h-142l-226 750h104l193 -656l169 656h134l170 -654z" />
    <glyph glyph-name="Wdieresis.ss01" horiz-adv-x="1059" 
d="M500 874l-64 -64l-64 64l64 64zM685 874l-64 -64l-64 64l64 64zM900 750c187 -221 138 -760 -190 -760c-70 0 -131 24 -181 63c-50 -39 -111 -63 -181 -63c-328 0 -376 539 -189 760h111c-207 -282 -117 -660 86 -660c40 0 75 12 106 32c-169 220 -159 638 67 638
s236 -418 67 -638c31 -20 67 -32 107 -32c203 0 293 378 86 660h111zM529 660c-116 0 -118 -310 0 -473c119 163 116 473 0 473z" />
    <glyph glyph-name="Wdieresis.ss02" horiz-adv-x="960" 
d="M451 874l-64 -64l-64 64l64 64zM636 874l-64 -64l-64 64l64 64zM790 750h100v-750h-820v750h100v-650h260v650h100v-650h260v650z" />
    <glyph glyph-name="Wgrave" unicode="&#x1e80;" horiz-adv-x="1118" 
d="M591 820h-91l-138 130h127zM988 750h104l-226 -750h-142l-165 616l-165 -616h-142l-226 750h104l193 -656l169 656h134l170 -654z" />
    <glyph glyph-name="Wgrave.ss01" horiz-adv-x="1059" 
d="M561 820h-91l-138 130h127zM900 750c187 -221 138 -760 -190 -760c-70 0 -131 24 -181 63c-50 -39 -111 -63 -181 -63c-328 0 -376 539 -189 760h111c-207 -282 -117 -660 86 -660c40 0 75 12 106 32c-169 220 -159 638 67 638s236 -418 67 -638c31 -20 67 -32 107 -32
c203 0 293 378 86 660h111zM529 660c-116 0 -118 -310 0 -473c119 163 116 473 0 473z" />
    <glyph glyph-name="Wgrave.ss02" horiz-adv-x="960" 
d="M513 820h-91l-138 130h127zM790 750h100v-750h-820v750h100v-650h260v650h100v-650h260v650z" />
    <glyph glyph-name="X" unicode="X" horiz-adv-x="917" 
d="M890 750l-363 -375l363 -375h-139l-293 303l-293 -303h-139l363 375l-363 375h139l293 -303l293 303h139z" />
    <glyph glyph-name="Y" unicode="Y" horiz-adv-x="864" 
d="M837 750l-355 -463v-287h-100v287l-356 463h126l280 -363l279 363h126z" />
    <glyph glyph-name="Y.ss01" horiz-adv-x="866" 
d="M675 760c253 0 77 -462 -223 -533c-10 -70 -16 -146 -16 -227h-100c0 76 5 149 14 219c-277 17 -362 323 -195 549l91 -39c-131 -187 -88 -406 120 -411c52 260 168 442 309 442zM472 339c173 75 287 321 195 321c-71 0 -150 -124 -195 -321z" />
    <glyph glyph-name="Y.ss02" horiz-adv-x="889" 
d="M819 750v-501h-325v-249h-100v249h-324v501h100v-405h549v405h100z" />
    <glyph glyph-name="Yacute" unicode="&#xdd;" horiz-adv-x="864" 
d="M621 950l-137 -130h-92l103 130h126zM837 750l-355 -463v-287h-100v287l-356 463h126l280 -363l279 363h126z" />
    <glyph glyph-name="Yacute.ss01" horiz-adv-x="866" 
d="M577 950l-137 -130h-92l103 130h126zM675 760c253 0 77 -462 -223 -533c-10 -70 -16 -146 -16 -227h-100c0 76 5 149 14 219c-277 17 -362 323 -195 549l91 -39c-131 -187 -88 -406 120 -411c52 260 168 442 309 442zM472 339c173 75 287 321 195 321
c-71 0 -150 -124 -195 -321z" />
    <glyph glyph-name="Yacute.ss02" horiz-adv-x="889" 
d="M634 950l-137 -130h-92l103 130h126zM819 750v-501h-325v-249h-100v249h-324v501h100v-405h549v405h100z" />
    <glyph glyph-name="Ycircumflex" unicode="&#x176;" horiz-adv-x="864" 
d="M432 911l-85 -91h-103l129 130h118l129 -130h-103zM837 750l-355 -463v-287h-100v287l-356 463h126l280 -363l279 363h126z" />
    <glyph glyph-name="Ycircumflex.ss01" horiz-adv-x="866" 
d="M388 911l-85 -91h-103l129 130h118l129 -130h-103zM675 760c253 0 77 -462 -223 -533c-10 -70 -16 -146 -16 -227h-100c0 76 5 149 14 219c-277 17 -362 323 -195 549l91 -39c-131 -187 -88 -406 120 -411c52 260 168 442 309 442zM472 339c173 75 287 321 195 321
c-71 0 -150 -124 -195 -321z" />
    <glyph glyph-name="Ycircumflex.ss02" horiz-adv-x="889" 
d="M445 911l-85 -91h-103l129 130h118l129 -130h-103zM819 750v-501h-325v-249h-100v249h-324v501h100v-405h549v405h100z" />
    <glyph glyph-name="Ydieresis" unicode="&#x178;" horiz-adv-x="864" 
d="M402 874l-64 -64l-64 64l64 64zM587 874l-64 -64l-64 64l64 64zM837 750l-355 -463v-287h-100v287l-356 463h126l280 -363l279 363h126z" />
    <glyph glyph-name="Ydieresis.ss01" horiz-adv-x="866" 
d="M358 874l-64 -64l-64 64l64 64zM543 874l-64 -64l-64 64l64 64zM675 760c253 0 77 -462 -223 -533c-10 -70 -16 -146 -16 -227h-100c0 76 5 149 14 219c-277 17 -362 323 -195 549l91 -39c-131 -187 -88 -406 120 -411c52 260 168 442 309 442zM472 339
c173 75 287 321 195 321c-71 0 -150 -124 -195 -321z" />
    <glyph glyph-name="Ydieresis.ss02" horiz-adv-x="889" 
d="M415 874l-64 -64l-64 64l64 64zM600 874l-64 -64l-64 64l64 64zM819 750v-501h-325v-249h-100v249h-324v501h100v-405h549v405h100z" />
    <glyph glyph-name="uni1EF4" unicode="&#x1ef4;" horiz-adv-x="864" 
d="M382 0v287l-356 463h126l280 -363l279 363h126l-355 -463v-287h-100zM359 -116l73 73l73 -73l-73 -73z" />
    <glyph glyph-name="uni1EF4.ss01" horiz-adv-x="866" 
d="M675 760c253 0 77 -462 -223 -533c-10 -70 -16 -146 -16 -227h-100c0 76 5 149 14 219c-277 17 -362 323 -195 549l91 -39c-131 -187 -88 -406 120 -411c52 260 168 442 309 442zM472 339c173 75 287 321 195 321c-71 0 -150 -124 -195 -321zM315 -116l73 73l73 -73
l-73 -73z" />
    <glyph glyph-name="uni1EF4.ss02" horiz-adv-x="889" 
d="M719 750h100v-501h-325v-249h-100v249h-324v501h100v-405h549v405zM372 -116l73 73l73 -73l-73 -73z" />
    <glyph glyph-name="Ygrave" unicode="&#x1ef2;" horiz-adv-x="864" 
d="M464 820h-91l-138 130h127zM837 750l-355 -463v-287h-100v287l-356 463h126l280 -363l279 363h126z" />
    <glyph glyph-name="Ygrave.ss01" horiz-adv-x="866" 
d="M420 820h-91l-138 130h127zM675 760c253 0 77 -462 -223 -533c-10 -70 -16 -146 -16 -227h-100c0 76 5 149 14 219c-277 17 -362 323 -195 549l91 -39c-131 -187 -88 -406 120 -411c52 260 168 442 309 442zM472 339c173 75 287 321 195 321c-71 0 -150 -124 -195 -321z
" />
    <glyph glyph-name="Ygrave.ss02" horiz-adv-x="889" 
d="M477 820h-91l-138 130h127zM819 750v-501h-325v-249h-100v249h-324v501h100v-405h549v405h100z" />
    <glyph glyph-name="uni1EF6" unicode="&#x1ef6;" horiz-adv-x="864" 
d="M437 923c-28 29 -71 11 -83 -31l-52 51c37 88 136 97 194 40c59 -60 47 -161 -39 -196l-51 53c44 12 60 55 31 83zM837 750l-355 -463v-287h-100v287l-356 463h126l280 -363l279 363h126z" />
    <glyph glyph-name="uni1EF6.ss01" horiz-adv-x="866" 
d="M393 923c-28 29 -71 11 -83 -31l-52 51c37 88 136 97 194 40c59 -60 47 -161 -39 -196l-51 53c44 12 60 55 31 83zM675 760c253 0 77 -462 -223 -533c-10 -70 -16 -146 -16 -227h-100c0 76 5 149 14 219c-277 17 -362 323 -195 549l91 -39c-131 -187 -88 -406 120 -411
c52 260 168 442 309 442zM472 339c173 75 287 321 195 321c-71 0 -150 -124 -195 -321z" />
    <glyph glyph-name="uni1EF6.ss02" horiz-adv-x="889" 
d="M450 923c-28 29 -71 11 -83 -31l-52 51c37 88 136 97 194 40c59 -60 47 -161 -39 -196l-51 53c44 12 60 55 31 83zM819 750v-501h-325v-249h-100v249h-324v501h100v-405h549v405h100z" />
    <glyph glyph-name="uni1EF8" unicode="&#x1ef8;" horiz-adv-x="864" 
d="M279 808c-57 51 -30 160 75 160c103 0 91 -102 145 -102c47 0 51 63 -8 92h94c56 -49 32 -160 -76 -160c-101 0 -88 101 -143 101c-48 0 -51 -58 8 -91h-95zM837 750l-355 -463v-287h-100v287l-356 463h126l280 -363l279 363h126z" />
    <glyph glyph-name="uni1EF8.ss01" horiz-adv-x="866" 
d="M235 808c-57 51 -30 160 75 160c103 0 91 -102 145 -102c47 0 51 63 -8 92h94c56 -49 32 -160 -76 -160c-101 0 -88 101 -143 101c-48 0 -51 -58 8 -91h-95zM675 760c253 0 77 -462 -223 -533c-10 -70 -16 -146 -16 -227h-100c0 76 5 149 14 219
c-277 17 -362 323 -195 549l91 -39c-131 -187 -88 -406 120 -411c52 260 168 442 309 442zM472 339c173 75 287 321 195 321c-71 0 -150 -124 -195 -321z" />
    <glyph glyph-name="uni1EF8.ss02" horiz-adv-x="889" 
d="M292 808c-57 51 -30 160 75 160c103 0 91 -102 145 -102c47 0 51 63 -8 92h94c56 -49 32 -160 -76 -160c-101 0 -88 101 -143 101c-48 0 -51 -58 8 -91h-95zM819 750v-501h-325v-249h-100v249h-324v501h100v-405h549v405h100z" />
    <glyph glyph-name="Z" unicode="Z" horiz-adv-x="917" 
d="M890 750l-628 -650h559v-100h-795l628 650h-572v100h808z" />
    <glyph glyph-name="Z.ss01" horiz-adv-x="878" 
d="M804 131l48 -88c-133 -76 -305 -70 -433 17c-88 64 -233 65 -300 -66v0c-1 -1 -1 -3 -2 -4l-91 45c81 221 252 414 489 571c-71 3 -138 14 -203 24c-81 12 -163 22 -237 19l-3 100c85 3 178 -9 252 -20c155 -22 292 -50 467 31l40 -91c-265 -123 -474 -285 -605 -473
c86 18 179 -3 249 -53c97 -66 228 -71 329 -12z" />
    <glyph glyph-name="Zacute" unicode="&#x179;" horiz-adv-x="917" 
d="M647 950l-137 -130h-92l103 130h126zM890 750l-628 -650h559v-100h-795l628 650h-572v100h808z" />
    <glyph glyph-name="Zacute.ss01" horiz-adv-x="878" 
d="M628 950l-137 -130h-92l103 130h126zM804 131l48 -88c-133 -76 -305 -70 -433 17c-88 64 -233 65 -300 -66v0c-1 -1 -1 -3 -2 -4l-91 45c81 221 252 414 489 571c-71 3 -138 14 -203 24c-81 12 -163 22 -237 19l-3 100c85 3 178 -9 252 -20c155 -22 292 -50 467 31
l40 -91c-265 -123 -474 -285 -605 -473c86 18 179 -3 249 -53c97 -66 228 -71 329 -12z" />
    <glyph glyph-name="Zcaron" unicode="&#x17d;" horiz-adv-x="917" 
d="M399 820l-129 130h103l85 -91l85 91h103l-129 -130h-118zM890 750l-628 -650h559v-100h-795l628 650h-572v100h808z" />
    <glyph glyph-name="Zcaron.ss01" horiz-adv-x="878" 
d="M380 820l-129 130h103l85 -91l85 91h103l-129 -130h-118zM804 131l48 -88c-133 -76 -305 -70 -433 17c-88 64 -233 65 -300 -66v0c-1 -1 -1 -3 -2 -4l-91 45c81 221 252 414 489 571c-71 3 -138 14 -203 24c-81 12 -163 22 -237 19l-3 100c85 3 178 -9 252 -20
c155 -22 292 -50 467 31l40 -91c-265 -123 -474 -285 -605 -473c86 18 179 -3 249 -53c97 -66 228 -71 329 -12z" />
    <glyph glyph-name="Zdotaccent" unicode="&#x17b;" horiz-adv-x="917" 
d="M531 892l-73 -73l-73 73l73 73zM890 750l-628 -650h559v-100h-795l628 650h-572v100h808z" />
    <glyph glyph-name="Zdotaccent.ss01" horiz-adv-x="878" 
d="M512 892l-73 -73l-73 73l73 73zM804 131l48 -88c-133 -76 -305 -70 -433 17c-88 64 -233 65 -300 -66v0c-1 -1 -1 -3 -2 -4l-91 45c81 221 252 414 489 571c-71 3 -138 14 -203 24c-81 12 -163 22 -237 19l-3 100c85 3 178 -9 252 -20c155 -22 292 -50 467 31l40 -91
c-265 -123 -474 -285 -605 -473c86 18 179 -3 249 -53c97 -66 228 -71 329 -12z" />
    <glyph glyph-name="a" unicode="a" horiz-adv-x="668" 
d="M319 510c164 0 300 -86 299 -207v-303h-100v47c-43 -35 -107 -57 -188 -57c-154 0 -279 80 -280 180c1 100 126 173 280 173c81 0 145 -22 188 -56v16c1 60 -94 107 -206 107c-77 0 -133 -15 -177 -39v98c48 26 103 41 184 41zM348 84c98 0 170 39 170 90
c0 50 -71 90 -170 90c-100 0 -188 -40 -188 -90c0 -51 88 -90 188 -90z" />
    <glyph glyph-name="a.ss01" horiz-adv-x="653" 
d="M613 13l-95 -27c-11 41 -27 76 -44 106c-57 -61 -140 -103 -223 -103c-236 0 -296 271 -65 329c83 21 175 4 252 -46c-3 32 -21 64 -57 92c-73 57 -193 57 -271 23l-33 97c124 42 258 39 369 -43c102 -76 119 -172 87 -256c37 -47 65 -105 80 -172zM257 89
c55 0 115 34 150 82c-54 45 -119 62 -181 54c-131 -16 -102 -136 31 -136z" />
    <glyph glyph-name="a.ss02" horiz-adv-x="688" 
d="M618 500v-500h-100v47c-43 -35 -107 -57 -188 -57c-154 0 -279 80 -280 180c1 100 126 173 280 173c81 0 145 -22 188 -56v113h-337v100h437zM348 71c98 0 170 45 170 103c0 57 -71 102 -170 102s-187 -45 -187 -102c0 -58 88 -103 187 -103z" />
    <glyph glyph-name="a.ss03" horiz-adv-x="750" 
d="M580 500h100v-500h-100v81c-52 -56 -131 -91 -223 -91c-169 0 -307 117 -307 260s138 260 307 260c92 0 171 -35 223 -91v81zM374 90c113 0 206 72 206 160c0 89 -92 160 -206 160c-113 0 -206 -72 -206 -160c1 -88 93 -160 206 -160z" />
    <glyph glyph-name="aacute" unicode="&#xe1;" horiz-adv-x="668" 
d="M546 700l-137 -130h-92l103 130h126zM319 510c164 0 300 -86 299 -207v-303h-100v47c-43 -35 -107 -57 -188 -57c-154 0 -279 80 -280 180c1 100 126 173 280 173c81 0 145 -22 188 -56v16c1 60 -94 107 -206 107c-77 0 -133 -15 -177 -39v98c48 26 103 41 184 41z
M348 84c98 0 170 39 170 90c0 50 -71 90 -170 90c-100 0 -188 -40 -188 -90c0 -51 88 -90 188 -90z" />
    <glyph glyph-name="aacute.ss01" horiz-adv-x="653" 
d="M477 700l-137 -130h-92l103 130h126zM613 13l-95 -27c-11 41 -27 76 -44 106c-57 -61 -140 -103 -223 -103c-236 0 -296 271 -65 329c83 21 175 4 252 -46c-3 32 -21 64 -57 92c-73 57 -193 57 -271 23l-33 97c124 42 258 39 369 -43c102 -76 119 -172 87 -256
c37 -47 65 -105 80 -172zM257 89c55 0 115 34 150 82c-54 45 -119 62 -181 54c-131 -16 -102 -136 31 -136z" />
    <glyph glyph-name="aacute.ss02" horiz-adv-x="688" 
d="M561 700l-137 -130h-92l103 130h126zM618 500v-500h-100v47c-43 -35 -107 -57 -188 -57c-154 0 -279 80 -280 180c1 100 126 173 280 173c81 0 145 -22 188 -56v113h-337v100h437zM348 71c98 0 170 45 170 103c0 57 -71 102 -170 102s-187 -45 -187 -102
c0 -58 88 -103 187 -103z" />
    <glyph glyph-name="aacute.ss03" horiz-adv-x="750" 
d="M563 700l-137 -130h-92l103 130h126zM580 500h100v-500h-100v81c-52 -56 -131 -91 -223 -91c-169 0 -307 117 -307 260s138 260 307 260c92 0 171 -35 223 -91v81zM374 90c113 0 206 72 206 160c0 89 -92 160 -206 160c-113 0 -206 -72 -206 -160c1 -88 93 -160 206 -160
z" />
    <glyph glyph-name="abreve" unicode="&#x103;" horiz-adv-x="668" 
d="M358 558c-84 0 -154 63 -153 142h83c0 -34 31 -63 70 -63c38 0 70 28 70 63h83c0 -79 -69 -142 -153 -142zM319 510c164 0 300 -86 299 -207v-303h-100v47c-43 -35 -107 -57 -188 -57c-154 0 -279 80 -280 180c1 100 126 173 280 173c81 0 145 -22 188 -56v16
c1 60 -94 107 -206 107c-77 0 -133 -15 -177 -39v98c48 26 103 41 184 41zM348 84c98 0 170 39 170 90c0 50 -71 90 -170 90c-100 0 -188 -40 -188 -90c0 -51 88 -90 188 -90z" />
    <glyph glyph-name="abreve.ss01" horiz-adv-x="653" 
d="M288 558c-84 0 -154 63 -153 142h83c0 -34 31 -63 70 -63c38 0 70 28 70 63h83c0 -79 -69 -142 -153 -142zM613 13l-95 -27c-11 41 -27 76 -44 106c-57 -61 -140 -103 -223 -103c-236 0 -296 271 -65 329c83 21 175 4 252 -46c-3 32 -21 64 -57 92
c-73 57 -193 57 -271 23l-33 97c124 42 258 39 369 -43c102 -76 119 -172 87 -256c37 -47 65 -105 80 -172zM257 89c55 0 115 34 150 82c-54 45 -119 62 -181 54c-131 -16 -102 -136 31 -136z" />
    <glyph glyph-name="abreve.ss02" horiz-adv-x="688" 
d="M372 558c-84 0 -154 63 -153 142h83c0 -34 31 -63 70 -63c38 0 70 28 70 63h83c0 -79 -69 -142 -153 -142zM618 500v-500h-100v47c-43 -35 -107 -57 -188 -57c-154 0 -279 80 -280 180c1 100 126 173 280 173c81 0 145 -22 188 -56v113h-337v100h437zM348 71
c98 0 170 45 170 103c0 57 -71 102 -170 102s-187 -45 -187 -102c0 -58 88 -103 187 -103z" />
    <glyph glyph-name="abreve.ss03" horiz-adv-x="750" 
d="M374 558c-84 0 -154 63 -153 142h83c0 -34 31 -63 70 -63c38 0 70 28 70 63h83c0 -79 -69 -142 -153 -142zM580 500h100v-500h-100v81c-52 -56 -131 -91 -223 -91c-169 0 -307 117 -307 260s138 260 307 260c92 0 171 -35 223 -91v81zM374 90c113 0 206 72 206 160
c0 89 -92 160 -206 160c-113 0 -206 -72 -206 -160c1 -88 93 -160 206 -160z" />
    <glyph glyph-name="uni1EAF" unicode="&#x1eaf;" horiz-adv-x="668" 
d="M546 876l-137 -130h-92l102 130h127zM357 558c-84 0 -154 63 -153 142h83c0 -34 31 -63 70 -63c38 0 70 28 70 63h83c0 -79 -69 -142 -153 -142zM319 510c164 0 300 -86 299 -207v-303h-100v47c-43 -35 -107 -57 -188 -57c-154 0 -279 80 -280 180c1 100 126 173 280 173
c81 0 145 -22 188 -56v16c1 60 -94 107 -206 107c-77 0 -133 -15 -177 -39v98c48 26 103 41 184 41zM348 84c98 0 170 39 170 90c0 50 -71 90 -170 90c-100 0 -188 -40 -188 -90c0 -51 88 -90 188 -90z" />
    <glyph glyph-name="uni1EAF.ss01" horiz-adv-x="653" 
d="M477 876l-137 -130h-92l102 130h127zM288 558c-84 0 -154 63 -153 142h83c0 -34 31 -63 70 -63c38 0 70 28 70 63h83c0 -79 -69 -142 -153 -142zM613 13l-95 -27c-11 41 -27 76 -44 106c-57 -61 -140 -103 -223 -103c-236 0 -296 271 -65 329c83 21 175 4 252 -46
c-3 32 -21 64 -57 92c-73 57 -193 57 -271 23l-33 97c124 42 258 39 369 -43c102 -76 119 -172 87 -256c37 -47 65 -105 80 -172zM257 89c55 0 115 34 150 82c-54 45 -119 62 -181 54c-131 -16 -102 -136 31 -136z" />
    <glyph glyph-name="uni1EAF.ss02" horiz-adv-x="688" 
d="M561 876l-137 -130h-92l102 130h127zM372 558c-84 0 -154 63 -153 142h83c0 -34 31 -63 70 -63c38 0 70 28 70 63h83c0 -79 -69 -142 -153 -142zM618 500v-500h-100v47c-43 -35 -107 -57 -188 -57c-154 0 -279 80 -280 180c1 100 126 173 280 173c81 0 145 -22 188 -56
v113h-337v100h437zM348 71c98 0 170 45 170 103c0 57 -71 102 -170 102s-187 -45 -187 -102c0 -58 88 -103 187 -103z" />
    <glyph glyph-name="uni1EAF.ss03" horiz-adv-x="750" 
d="M563 876l-137 -130h-92l102 130h127zM374 558c-84 0 -154 63 -153 142h83c0 -34 31 -63 70 -63c38 0 70 28 70 63h83c0 -79 -69 -142 -153 -142zM580 500h100v-500h-100v81c-52 -56 -131 -91 -223 -91c-169 0 -307 117 -307 260s138 260 307 260c92 0 171 -35 223 -91v81
zM374 90c113 0 206 72 206 160c0 89 -92 160 -206 160c-113 0 -206 -72 -206 -160c1 -88 93 -160 206 -160z" />
    <glyph glyph-name="uni1EB7" unicode="&#x1eb7;" horiz-adv-x="668" 
d="M357 558c-84 0 -154 63 -153 142h83c0 -34 31 -63 70 -63c38 0 70 28 70 63h83c0 -79 -69 -142 -153 -142zM319 510c164 0 300 -86 299 -207v-303h-100v47c-43 -35 -107 -57 -188 -57c-154 0 -279 80 -280 180c1 100 126 173 280 173c81 0 145 -22 188 -56v16
c1 60 -94 107 -206 107c-77 0 -133 -15 -177 -39v98c48 26 103 41 184 41zM348 84c98 0 170 39 170 90c0 50 -71 90 -170 90c-100 0 -188 -40 -188 -90c0 -51 88 -90 188 -90zM261 -116l73 73l73 -73l-73 -73z" />
    <glyph glyph-name="uni1EB7.ss01" horiz-adv-x="653" 
d="M288 558c-84 0 -154 63 -153 142h83c0 -34 31 -63 70 -63c38 0 70 28 70 63h83c0 -79 -69 -142 -153 -142zM613 13l-95 -27c-11 41 -27 76 -44 106c-57 -61 -140 -103 -223 -103c-236 0 -296 271 -65 329c83 21 175 4 252 -46c-3 32 -21 64 -57 92
c-73 57 -193 57 -271 23l-33 97c124 42 258 39 369 -43c102 -76 119 -172 87 -256c37 -47 65 -105 80 -172zM257 89c55 0 115 34 150 82c-54 45 -119 62 -181 54c-131 -16 -102 -136 31 -136zM215 -116l73 73l73 -73l-73 -73z" />
    <glyph glyph-name="uni1EB7.ss02" horiz-adv-x="688" 
d="M372 558c-84 0 -154 63 -153 142h83c0 -34 31 -63 70 -63c38 0 70 28 70 63h83c0 -79 -69 -142 -153 -142zM618 500v-500h-100v47c-43 -35 -107 -57 -188 -57c-154 0 -279 80 -280 180c1 100 126 173 280 173c81 0 145 -22 188 -56v113h-337v100h437zM348 71
c98 0 170 45 170 103c0 57 -71 102 -170 102s-187 -45 -187 -102c0 -58 88 -103 187 -103zM280 -116l73 73l73 -73l-73 -73z" />
    <glyph glyph-name="uni1EB7.ss03" horiz-adv-x="750" 
d="M374 558c-84 0 -154 63 -153 142h83c0 -34 31 -63 70 -63c38 0 70 28 70 63h83c0 -79 -69 -142 -153 -142zM580 500h100v-500h-100v81c-52 -56 -131 -91 -223 -91c-169 0 -307 117 -307 260s138 260 307 260c92 0 171 -35 223 -91v81zM374 90c113 0 206 72 206 160
c0 89 -92 160 -206 160c-113 0 -206 -72 -206 -160c1 -88 93 -160 206 -160zM301 -116l73 73l73 -73l-73 -73z" />
    <glyph glyph-name="uni1EB1" unicode="&#x1eb1;" horiz-adv-x="668" 
d="M389 746h-91l-138 130h127zM287 700c0 -34 31 -63 70 -63c38 0 70 28 70 63h83c0 -79 -69 -142 -153 -142s-154 63 -153 142h83zM319 510c164 0 300 -86 299 -207v-303h-100v47c-43 -35 -107 -57 -188 -57c-154 0 -279 80 -280 180c1 100 126 173 280 173
c81 0 145 -22 188 -56v16c1 60 -94 107 -206 107c-77 0 -133 -15 -177 -39v98c48 26 103 41 184 41zM348 84c98 0 170 39 170 90c0 50 -71 90 -170 90c-100 0 -188 -40 -188 -90c0 -51 88 -90 188 -90z" />
    <glyph glyph-name="uni1EB1.ss01" horiz-adv-x="653" 
d="M320 746h-91l-138 130h127zM218 700c0 -34 31 -63 70 -63c38 0 70 28 70 63h83c0 -79 -69 -142 -153 -142s-154 63 -153 142h83zM613 13l-95 -27c-11 41 -27 76 -44 106c-57 -61 -140 -103 -223 -103c-236 0 -296 271 -65 329c83 21 175 4 252 -46c-3 32 -21 64 -57 92
c-73 57 -193 57 -271 23l-33 97c124 42 258 39 369 -43c102 -76 119 -172 87 -256c37 -47 65 -105 80 -172zM257 89c55 0 115 34 150 82c-54 45 -119 62 -181 54c-131 -16 -102 -136 31 -136z" />
    <glyph glyph-name="uni1EB1.ss02" horiz-adv-x="688" 
d="M404 746h-91l-138 130h127zM302 700c0 -34 31 -63 70 -63c38 0 70 28 70 63h83c0 -79 -69 -142 -153 -142s-154 63 -153 142h83zM618 500v-500h-100v47c-43 -35 -107 -57 -188 -57c-154 0 -279 80 -280 180c1 100 126 173 280 173c81 0 145 -22 188 -56v113h-337v100h437
zM348 71c98 0 170 45 170 103c0 57 -71 102 -170 102s-187 -45 -187 -102c0 -58 88 -103 187 -103z" />
    <glyph glyph-name="uni1EB1.ss03" horiz-adv-x="750" 
d="M406 746h-91l-138 130h127zM304 700c0 -34 31 -63 70 -63c38 0 70 28 70 63h83c0 -79 -69 -142 -153 -142s-154 63 -153 142h83zM580 500h100v-500h-100v81c-52 -56 -131 -91 -223 -91c-169 0 -307 117 -307 260s138 260 307 260c92 0 171 -35 223 -91v81zM374 90
c113 0 206 72 206 160c0 89 -92 160 -206 160c-113 0 -206 -72 -206 -160c1 -88 93 -160 206 -160z" />
    <glyph glyph-name="uni1EB3" unicode="&#x1eb3;" horiz-adv-x="668" 
d="M362 849c-28 29 -71 11 -83 -31l-52 51c37 88 136 97 194 40c59 -60 47 -161 -39 -196l-51 53c44 12 60 55 31 83zM357 558c-84 0 -154 63 -153 142h83c0 -34 31 -63 70 -63c38 0 70 28 70 63h83c0 -79 -69 -142 -153 -142zM319 510c164 0 300 -86 299 -207v-303h-100v47
c-43 -35 -107 -57 -188 -57c-154 0 -279 80 -280 180c1 100 126 173 280 173c81 0 145 -22 188 -56v16c1 60 -94 107 -206 107c-77 0 -133 -15 -177 -39v98c48 26 103 41 184 41zM348 84c98 0 170 39 170 90c0 50 -71 90 -170 90c-100 0 -188 -40 -188 -90
c0 -51 88 -90 188 -90z" />
    <glyph glyph-name="uni1EB3.ss01" horiz-adv-x="653" 
d="M293 849c-28 29 -71 11 -83 -31l-52 51c37 88 136 97 194 40c59 -60 47 -161 -39 -196l-51 53c44 12 60 55 31 83zM288 558c-84 0 -154 63 -153 142h83c0 -34 31 -63 70 -63c38 0 70 28 70 63h83c0 -79 -69 -142 -153 -142zM613 13l-95 -27c-11 41 -27 76 -44 106
c-57 -61 -140 -103 -223 -103c-236 0 -296 271 -65 329c83 21 175 4 252 -46c-3 32 -21 64 -57 92c-73 57 -193 57 -271 23l-33 97c124 42 258 39 369 -43c102 -76 119 -172 87 -256c37 -47 65 -105 80 -172zM257 89c55 0 115 34 150 82c-54 45 -119 62 -181 54
c-131 -16 -102 -136 31 -136z" />
    <glyph glyph-name="uni1EB3.ss02" horiz-adv-x="688" 
d="M377 849c-28 29 -71 11 -83 -31l-52 51c37 88 136 97 194 40c59 -60 47 -161 -39 -196l-51 53c44 12 60 55 31 83zM372 558c-84 0 -154 63 -153 142h83c0 -34 31 -63 70 -63c38 0 70 28 70 63h83c0 -79 -69 -142 -153 -142zM618 500v-500h-100v47
c-43 -35 -107 -57 -188 -57c-154 0 -279 80 -280 180c1 100 126 173 280 173c81 0 145 -22 188 -56v113h-337v100h437zM348 71c98 0 170 45 170 103c0 57 -71 102 -170 102s-187 -45 -187 -102c0 -58 88 -103 187 -103z" />
    <glyph glyph-name="uni1EB3.ss03" horiz-adv-x="750" 
d="M379 849c-28 29 -71 11 -83 -31l-52 51c37 88 136 97 194 40c59 -60 47 -161 -39 -196l-51 53c44 12 60 55 31 83zM374 558c-84 0 -154 63 -153 142h83c0 -34 31 -63 70 -63c38 0 70 28 70 63h83c0 -79 -69 -142 -153 -142zM580 500h100v-500h-100v81
c-52 -56 -131 -91 -223 -91c-169 0 -307 117 -307 260s138 260 307 260c92 0 171 -35 223 -91v81zM374 90c113 0 206 72 206 160c0 89 -92 160 -206 160c-113 0 -206 -72 -206 -160c1 -88 93 -160 206 -160z" />
    <glyph glyph-name="uni1EB5" unicode="&#x1eb5;" horiz-adv-x="668" 
d="M204 734c-57 51 -30 160 75 160c103 0 91 -102 145 -102c47 0 51 63 -8 92h94c56 -49 32 -160 -76 -160c-101 0 -88 101 -143 101c-48 0 -51 -58 8 -91h-95zM357 637c38 0 70 28 70 63h83c0 -79 -69 -142 -153 -142s-154 63 -153 142h83c0 -34 31 -63 70 -63zM319 510
c164 0 300 -86 299 -207v-303h-100v47c-43 -35 -107 -57 -188 -57c-154 0 -279 80 -280 180c1 100 126 173 280 173c81 0 145 -22 188 -56v16c1 60 -94 107 -206 107c-77 0 -133 -15 -177 -39v98c48 26 103 41 184 41zM348 84c98 0 170 39 170 90c0 50 -71 90 -170 90
c-100 0 -188 -40 -188 -90c0 -51 88 -90 188 -90z" />
    <glyph glyph-name="uni1EB5.ss01" horiz-adv-x="653" 
d="M135 734c-57 51 -30 160 75 160c103 0 91 -102 145 -102c47 0 51 63 -8 92h94c56 -49 32 -160 -76 -160c-101 0 -88 101 -143 101c-48 0 -51 -58 8 -91h-95zM288 637c38 0 70 28 70 63h83c0 -79 -69 -142 -153 -142s-154 63 -153 142h83c0 -34 31 -63 70 -63zM613 13
l-95 -27c-11 41 -27 76 -44 106c-57 -61 -140 -103 -223 -103c-236 0 -296 271 -65 329c83 21 175 4 252 -46c-3 32 -21 64 -57 92c-73 57 -193 57 -271 23l-33 97c124 42 258 39 369 -43c102 -76 119 -172 87 -256c37 -47 65 -105 80 -172zM257 89c55 0 115 34 150 82
c-54 45 -119 62 -181 54c-131 -16 -102 -136 31 -136z" />
    <glyph glyph-name="uni1EB5.ss02" horiz-adv-x="688" 
d="M219 734c-57 51 -30 160 75 160c103 0 91 -102 145 -102c47 0 51 63 -8 92h94c56 -49 32 -160 -76 -160c-101 0 -88 101 -143 101c-48 0 -51 -58 8 -91h-95zM372 637c38 0 70 28 70 63h83c0 -79 -69 -142 -153 -142s-154 63 -153 142h83c0 -34 31 -63 70 -63zM618 500
v-500h-100v47c-43 -35 -107 -57 -188 -57c-154 0 -279 80 -280 180c1 100 126 173 280 173c81 0 145 -22 188 -56v113h-337v100h437zM348 71c98 0 170 45 170 103c0 57 -71 102 -170 102s-187 -45 -187 -102c0 -58 88 -103 187 -103z" />
    <glyph glyph-name="uni1EB5.ss03" horiz-adv-x="750" 
d="M221 734c-57 51 -30 160 75 160c103 0 91 -102 145 -102c47 0 51 63 -8 92h94c56 -49 32 -160 -76 -160c-101 0 -88 101 -143 101c-48 0 -51 -58 8 -91h-95zM374 637c38 0 70 28 70 63h83c0 -79 -69 -142 -153 -142s-154 63 -153 142h83c0 -34 31 -63 70 -63zM580 500
h100v-500h-100v81c-52 -56 -131 -91 -223 -91c-169 0 -307 117 -307 260s138 260 307 260c92 0 171 -35 223 -91v81zM374 90c113 0 206 72 206 160c0 89 -92 160 -206 160c-113 0 -206 -72 -206 -160c1 -88 93 -160 206 -160z" />
    <glyph glyph-name="uni01CE" unicode="&#x1ce;" horiz-adv-x="668" 
d="M298 570l-129 130h103l85 -91l85 91h103l-129 -130h-118zM319 510c164 0 300 -86 299 -207v-303h-100v47c-43 -35 -107 -57 -188 -57c-154 0 -279 80 -280 180c1 100 126 173 280 173c81 0 145 -22 188 -56v16c1 60 -94 107 -206 107c-77 0 -133 -15 -177 -39v98
c48 26 103 41 184 41zM348 84c98 0 170 39 170 90c0 50 -71 90 -170 90c-100 0 -188 -40 -188 -90c0 -51 88 -90 188 -90z" />
    <glyph glyph-name="uni01CE.ss01" horiz-adv-x="653" 
d="M229 570l-129 130h103l85 -91l85 91h103l-129 -130h-118zM613 13l-95 -27c-11 41 -27 76 -44 106c-57 -61 -140 -103 -223 -103c-236 0 -296 271 -65 329c83 21 175 4 252 -46c-3 32 -21 64 -57 92c-73 57 -193 57 -271 23l-33 97c124 42 258 39 369 -43
c102 -76 119 -172 87 -256c37 -47 65 -105 80 -172zM257 89c55 0 115 34 150 82c-54 45 -119 62 -181 54c-131 -16 -102 -136 31 -136z" />
    <glyph glyph-name="uni01CE.ss02" horiz-adv-x="688" 
d="M313 570l-129 130h103l85 -91l85 91h103l-129 -130h-118zM618 500v-500h-100v47c-43 -35 -107 -57 -188 -57c-154 0 -279 80 -280 180c1 100 126 173 280 173c81 0 145 -22 188 -56v113h-337v100h437zM348 71c98 0 170 45 170 103c0 57 -71 102 -170 102
s-187 -45 -187 -102c0 -58 88 -103 187 -103z" />
    <glyph glyph-name="uni01CE.ss03" horiz-adv-x="750" 
d="M315 570l-129 130h103l85 -91l85 91h103l-129 -130h-118zM580 500h100v-500h-100v81c-52 -56 -131 -91 -223 -91c-169 0 -307 117 -307 260s138 260 307 260c92 0 171 -35 223 -91v81zM374 90c113 0 206 72 206 160c0 89 -92 160 -206 160c-113 0 -206 -72 -206 -160
c1 -88 93 -160 206 -160z" />
    <glyph glyph-name="acircumflex" unicode="&#xe2;" horiz-adv-x="668" 
d="M361 661l-85 -91h-103l129 130h118l129 -130h-103zM319 510c164 0 300 -86 299 -207v-303h-100v47c-43 -35 -107 -57 -188 -57c-154 0 -279 80 -280 180c1 100 126 173 280 173c81 0 145 -22 188 -56v16c1 60 -94 107 -206 107c-77 0 -133 -15 -177 -39v98
c48 26 103 41 184 41zM348 84c98 0 170 39 170 90c0 50 -71 90 -170 90c-100 0 -188 -40 -188 -90c0 -51 88 -90 188 -90z" />
    <glyph glyph-name="acircumflex.ss01" horiz-adv-x="653" 
d="M288 661l-85 -91h-103l129 130h118l129 -130h-103zM613 13l-95 -27c-11 41 -27 76 -44 106c-57 -61 -140 -103 -223 -103c-236 0 -296 271 -65 329c83 21 175 4 252 -46c-3 32 -21 64 -57 92c-73 57 -193 57 -271 23l-33 97c124 42 258 39 369 -43
c102 -76 119 -172 87 -256c37 -47 65 -105 80 -172zM257 89c55 0 115 34 150 82c-54 45 -119 62 -181 54c-131 -16 -102 -136 31 -136z" />
    <glyph glyph-name="acircumflex.ss02" horiz-adv-x="688" 
d="M372 661l-85 -91h-103l129 130h118l129 -130h-103zM618 500v-500h-100v47c-43 -35 -107 -57 -188 -57c-154 0 -279 80 -280 180c1 100 126 173 280 173c81 0 145 -22 188 -56v113h-337v100h437zM348 71c98 0 170 45 170 103c0 57 -71 102 -170 102s-187 -45 -187 -102
c0 -58 88 -103 187 -103z" />
    <glyph glyph-name="acircumflex.ss03" horiz-adv-x="750" 
d="M374 661l-85 -91h-103l129 130h118l129 -130h-103zM580 500h100v-500h-100v81c-52 -56 -131 -91 -223 -91c-169 0 -307 117 -307 260s138 260 307 260c92 0 171 -35 223 -91v81zM374 90c113 0 206 72 206 160c0 89 -92 160 -206 160c-113 0 -206 -72 -206 -160
c1 -88 93 -160 206 -160z" />
    <glyph glyph-name="uni1EA5" unicode="&#x1ea5;" horiz-adv-x="668" 
d="M547 874l-138 -130h-92l103 130h127zM357 661l-85 -91h-103l129 130h118l129 -130h-103zM319 510c164 0 300 -86 299 -207v-303h-100v47c-43 -35 -107 -57 -188 -57c-154 0 -279 80 -280 180c1 100 126 173 280 173c81 0 145 -22 188 -56v16c1 60 -94 107 -206 107
c-77 0 -133 -15 -177 -39v98c48 26 103 41 184 41zM348 84c98 0 170 39 170 90c0 50 -71 90 -170 90c-100 0 -188 -40 -188 -90c0 -51 88 -90 188 -90z" />
    <glyph glyph-name="uni1EA5.ss01" horiz-adv-x="653" 
d="M478 874l-138 -130h-92l103 130h127zM288 661l-85 -91h-103l129 130h118l129 -130h-103zM613 13l-95 -27c-11 41 -27 76 -44 106c-57 -61 -140 -103 -223 -103c-236 0 -296 271 -65 329c83 21 175 4 252 -46c-3 32 -21 64 -57 92c-73 57 -193 57 -271 23l-33 97
c124 42 258 39 369 -43c102 -76 119 -172 87 -256c37 -47 65 -105 80 -172zM257 89c55 0 115 34 150 82c-54 45 -119 62 -181 54c-131 -16 -102 -136 31 -136z" />
    <glyph glyph-name="uni1EA5.ss02" horiz-adv-x="688" 
d="M562 874l-138 -130h-92l103 130h127zM372 661l-85 -91h-103l129 130h118l129 -130h-103zM618 500v-500h-100v47c-43 -35 -107 -57 -188 -57c-154 0 -279 80 -280 180c1 100 126 173 280 173c81 0 145 -22 188 -56v113h-337v100h437zM348 71c98 0 170 45 170 103
c0 57 -71 102 -170 102s-187 -45 -187 -102c0 -58 88 -103 187 -103z" />
    <glyph glyph-name="uni1EA5.ss03" horiz-adv-x="750" 
d="M564 874l-138 -130h-92l103 130h127zM374 661l-85 -91h-103l129 130h118l129 -130h-103zM580 500h100v-500h-100v81c-52 -56 -131 -91 -223 -91c-169 0 -307 117 -307 260s138 260 307 260c92 0 171 -35 223 -91v81zM374 90c113 0 206 72 206 160c0 89 -92 160 -206 160
c-113 0 -206 -72 -206 -160c1 -88 93 -160 206 -160z" />
    <glyph glyph-name="uni1EAD" unicode="&#x1ead;" horiz-adv-x="668" 
d="M357 661l-85 -91h-103l129 130h118l129 -130h-103zM319 510c164 0 300 -86 299 -207v-303h-100v47c-43 -35 -107 -57 -188 -57c-154 0 -279 80 -280 180c1 100 126 173 280 173c81 0 145 -22 188 -56v16c1 60 -94 107 -206 107c-77 0 -133 -15 -177 -39v98
c48 26 103 41 184 41zM348 84c98 0 170 39 170 90c0 50 -71 90 -170 90c-100 0 -188 -40 -188 -90c0 -51 88 -90 188 -90zM261 -116l73 73l73 -73l-73 -73z" />
    <glyph glyph-name="uni1EAD.ss01" horiz-adv-x="653" 
d="M288 661l-85 -91h-103l129 130h118l129 -130h-103zM613 13l-95 -27c-11 41 -27 76 -44 106c-57 -61 -140 -103 -223 -103c-236 0 -296 271 -65 329c83 21 175 4 252 -46c-3 32 -21 64 -57 92c-73 57 -193 57 -271 23l-33 97c124 42 258 39 369 -43
c102 -76 119 -172 87 -256c37 -47 65 -105 80 -172zM257 89c55 0 115 34 150 82c-54 45 -119 62 -181 54c-131 -16 -102 -136 31 -136zM215 -116l73 73l73 -73l-73 -73z" />
    <glyph glyph-name="uni1EAD.ss02" horiz-adv-x="688" 
d="M372 661l-85 -91h-103l129 130h118l129 -130h-103zM618 500v-500h-100v47c-43 -35 -107 -57 -188 -57c-154 0 -279 80 -280 180c1 100 126 173 280 173c81 0 145 -22 188 -56v113h-337v100h437zM348 71c98 0 170 45 170 103c0 57 -71 102 -170 102s-187 -45 -187 -102
c0 -58 88 -103 187 -103zM280 -116l73 73l73 -73l-73 -73z" />
    <glyph glyph-name="uni1EAD.ss03" horiz-adv-x="750" 
d="M374 661l-85 -91h-103l129 130h118l129 -130h-103zM580 500h100v-500h-100v81c-52 -56 -131 -91 -223 -91c-169 0 -307 117 -307 260s138 260 307 260c92 0 171 -35 223 -91v81zM374 90c113 0 206 72 206 160c0 89 -92 160 -206 160c-113 0 -206 -72 -206 -160
c1 -88 93 -160 206 -160zM301 -116l73 73l73 -73l-73 -73z" />
    <glyph glyph-name="uni1EA7" unicode="&#x1ea7;" horiz-adv-x="668" 
d="M389 744h-91l-138 130h127zM298 700h118l129 -130h-103l-85 91l-85 -91h-103zM319 510c164 0 300 -86 299 -207v-303h-100v47c-43 -35 -107 -57 -188 -57c-154 0 -279 80 -280 180c1 100 126 173 280 173c81 0 145 -22 188 -56v16c1 60 -94 107 -206 107
c-77 0 -133 -15 -177 -39v98c48 26 103 41 184 41zM348 84c98 0 170 39 170 90c0 50 -71 90 -170 90c-100 0 -188 -40 -188 -90c0 -51 88 -90 188 -90z" />
    <glyph glyph-name="uni1EA7.ss01" horiz-adv-x="653" 
d="M320 744h-91l-138 130h127zM229 700h118l129 -130h-103l-85 91l-85 -91h-103zM613 13l-95 -27c-11 41 -27 76 -44 106c-57 -61 -140 -103 -223 -103c-236 0 -296 271 -65 329c83 21 175 4 252 -46c-3 32 -21 64 -57 92c-73 57 -193 57 -271 23l-33 97
c124 42 258 39 369 -43c102 -76 119 -172 87 -256c37 -47 65 -105 80 -172zM257 89c55 0 115 34 150 82c-54 45 -119 62 -181 54c-131 -16 -102 -136 31 -136z" />
    <glyph glyph-name="uni1EA7.ss02" horiz-adv-x="688" 
d="M404 744h-91l-138 130h127zM313 700h118l129 -130h-103l-85 91l-85 -91h-103zM618 500v-500h-100v47c-43 -35 -107 -57 -188 -57c-154 0 -279 80 -280 180c1 100 126 173 280 173c81 0 145 -22 188 -56v113h-337v100h437zM348 71c98 0 170 45 170 103
c0 57 -71 102 -170 102s-187 -45 -187 -102c0 -58 88 -103 187 -103z" />
    <glyph glyph-name="uni1EA7.ss03" horiz-adv-x="750" 
d="M406 744h-91l-138 130h127zM315 700h118l129 -130h-103l-85 91l-85 -91h-103zM580 500h100v-500h-100v81c-52 -56 -131 -91 -223 -91c-169 0 -307 117 -307 260s138 260 307 260c92 0 171 -35 223 -91v81zM374 90c113 0 206 72 206 160c0 89 -92 160 -206 160
c-113 0 -206 -72 -206 -160c1 -88 93 -160 206 -160z" />
    <glyph glyph-name="uni1EA9" unicode="&#x1ea9;" horiz-adv-x="668" 
d="M486 795c-29 28 -72 10 -84 -31l-52 51c37 88 137 97 194 39c59 -59 47 -160 -39 -195l-51 53c44 12 60 55 32 83zM361 661l-85 -91h-103l129 130h118l129 -130h-103zM319 510c164 0 300 -86 299 -207v-303h-100v47c-43 -35 -107 -57 -188 -57c-154 0 -279 80 -280 180
c1 100 126 173 280 173c81 0 145 -22 188 -56v16c1 60 -94 107 -206 107c-77 0 -133 -15 -177 -39v98c48 26 103 41 184 41zM348 84c98 0 170 39 170 90c0 50 -71 90 -170 90c-100 0 -188 -40 -188 -90c0 -51 88 -90 188 -90z" />
    <glyph glyph-name="uni1EA9.ss01" horiz-adv-x="653" 
d="M417 795c-29 28 -72 10 -84 -31l-52 51c37 88 137 97 194 39c59 -59 47 -160 -39 -195l-51 53c44 12 60 55 32 83zM292 661l-85 -91h-103l129 130h118l129 -130h-103zM613 13l-95 -27c-11 41 -27 76 -44 106c-57 -61 -140 -103 -223 -103c-236 0 -296 271 -65 329
c83 21 175 4 252 -46c-3 32 -21 64 -57 92c-73 57 -193 57 -271 23l-33 97c124 42 258 39 369 -43c102 -76 119 -172 87 -256c37 -47 65 -105 80 -172zM257 89c55 0 115 34 150 82c-54 45 -119 62 -181 54c-131 -16 -102 -136 31 -136z" />
    <glyph glyph-name="uni1EA9.ss02" horiz-adv-x="688" 
d="M501 795c-29 28 -72 10 -84 -31l-52 51c37 88 137 97 194 39c59 -59 47 -160 -39 -195l-51 53c44 12 60 55 32 83zM376 661l-85 -91h-103l129 130h118l129 -130h-103zM618 500v-500h-100v47c-43 -35 -107 -57 -188 -57c-154 0 -279 80 -280 180c1 100 126 173 280 173
c81 0 145 -22 188 -56v113h-337v100h437zM348 71c98 0 170 45 170 103c0 57 -71 102 -170 102s-187 -45 -187 -102c0 -58 88 -103 187 -103z" />
    <glyph glyph-name="uni1EA9.ss03" horiz-adv-x="750" 
d="M503 795c-29 28 -72 10 -84 -31l-52 51c37 88 137 97 194 39c59 -59 47 -160 -39 -195l-51 53c44 12 60 55 32 83zM378 661l-85 -91h-103l129 130h118l129 -130h-103zM580 500h100v-500h-100v81c-52 -56 -131 -91 -223 -91c-169 0 -307 117 -307 260s138 260 307 260
c92 0 171 -35 223 -91v81zM374 90c113 0 206 72 206 160c0 89 -92 160 -206 160c-113 0 -206 -72 -206 -160c1 -88 93 -160 206 -160z" />
    <glyph glyph-name="uni1EAB" unicode="&#x1eab;" horiz-adv-x="668" 
d="M204 731c-57 52 -30 160 75 160c103 0 91 -102 145 -102c47 0 51 64 -8 92h94c56 -49 32 -160 -76 -160c-101 0 -88 102 -143 102c-48 0 -51 -58 8 -92h-95zM357 661l-85 -91h-103l129 130h118l129 -130h-103zM319 510c164 0 300 -86 299 -207v-303h-100v47
c-43 -35 -107 -57 -188 -57c-154 0 -279 80 -280 180c1 100 126 173 280 173c81 0 145 -22 188 -56v16c1 60 -94 107 -206 107c-77 0 -133 -15 -177 -39v98c48 26 103 41 184 41zM348 84c98 0 170 39 170 90c0 50 -71 90 -170 90c-100 0 -188 -40 -188 -90
c0 -51 88 -90 188 -90z" />
    <glyph glyph-name="uni1EAB.ss01" horiz-adv-x="653" 
d="M135 731c-57 52 -30 160 75 160c103 0 91 -102 145 -102c47 0 51 64 -8 92h94c56 -49 32 -160 -76 -160c-101 0 -88 102 -143 102c-48 0 -51 -58 8 -92h-95zM288 661l-85 -91h-103l129 130h118l129 -130h-103zM613 13l-95 -27c-11 41 -27 76 -44 106
c-57 -61 -140 -103 -223 -103c-236 0 -296 271 -65 329c83 21 175 4 252 -46c-3 32 -21 64 -57 92c-73 57 -193 57 -271 23l-33 97c124 42 258 39 369 -43c102 -76 119 -172 87 -256c37 -47 65 -105 80 -172zM257 89c55 0 115 34 150 82c-54 45 -119 62 -181 54
c-131 -16 -102 -136 31 -136z" />
    <glyph glyph-name="uni1EAB.ss02" horiz-adv-x="688" 
d="M219 731c-57 52 -30 160 75 160c103 0 91 -102 145 -102c47 0 51 64 -8 92h94c56 -49 32 -160 -76 -160c-101 0 -88 102 -143 102c-48 0 -51 -58 8 -92h-95zM372 661l-85 -91h-103l129 130h118l129 -130h-103zM618 500v-500h-100v47c-43 -35 -107 -57 -188 -57
c-154 0 -279 80 -280 180c1 100 126 173 280 173c81 0 145 -22 188 -56v113h-337v100h437zM348 71c98 0 170 45 170 103c0 57 -71 102 -170 102s-187 -45 -187 -102c0 -58 88 -103 187 -103z" />
    <glyph glyph-name="uni1EAB.ss03" horiz-adv-x="750" 
d="M221 731c-57 52 -30 160 75 160c103 0 91 -102 145 -102c47 0 51 64 -8 92h94c56 -49 32 -160 -76 -160c-101 0 -88 102 -143 102c-48 0 -51 -58 8 -92h-95zM374 661l-85 -91h-103l129 130h118l129 -130h-103zM580 500h100v-500h-100v81c-52 -56 -131 -91 -223 -91
c-169 0 -307 117 -307 260s138 260 307 260c92 0 171 -35 223 -91v81zM374 90c113 0 206 72 206 160c0 89 -92 160 -206 160c-113 0 -206 -72 -206 -160c1 -88 93 -160 206 -160z" />
    <glyph glyph-name="adieresis" unicode="&#xe4;" horiz-adv-x="668" 
d="M327 624l-64 -64l-64 64l64 64zM512 624l-64 -64l-64 64l64 64zM319 510c164 0 300 -86 299 -207v-303h-100v47c-43 -35 -107 -57 -188 -57c-154 0 -279 80 -280 180c1 100 126 173 280 173c81 0 145 -22 188 -56v16c1 60 -94 107 -206 107c-77 0 -133 -15 -177 -39v98
c48 26 103 41 184 41zM348 84c98 0 170 39 170 90c0 50 -71 90 -170 90c-100 0 -188 -40 -188 -90c0 -51 88 -90 188 -90z" />
    <glyph glyph-name="adieresis.ss01" horiz-adv-x="653" 
d="M258 624l-64 -64l-64 64l64 64zM443 624l-64 -64l-64 64l64 64zM613 13l-95 -27c-11 41 -27 76 -44 106c-57 -61 -140 -103 -223 -103c-236 0 -296 271 -65 329c83 21 175 4 252 -46c-3 32 -21 64 -57 92c-73 57 -193 57 -271 23l-33 97c124 42 258 39 369 -43
c102 -76 119 -172 87 -256c37 -47 65 -105 80 -172zM257 89c55 0 115 34 150 82c-54 45 -119 62 -181 54c-131 -16 -102 -136 31 -136z" />
    <glyph glyph-name="adieresis.ss02" horiz-adv-x="688" 
d="M342 624l-64 -64l-64 64l64 64zM527 624l-64 -64l-64 64l64 64zM618 500v-500h-100v47c-43 -35 -107 -57 -188 -57c-154 0 -279 80 -280 180c1 100 126 173 280 173c81 0 145 -22 188 -56v113h-337v100h437zM348 71c98 0 170 45 170 103c0 57 -71 102 -170 102
s-187 -45 -187 -102c0 -58 88 -103 187 -103z" />
    <glyph glyph-name="adieresis.ss03" horiz-adv-x="750" 
d="M344 624l-64 -64l-64 64l64 64zM529 624l-64 -64l-64 64l64 64zM580 500h100v-500h-100v81c-52 -56 -131 -91 -223 -91c-169 0 -307 117 -307 260s138 260 307 260c92 0 171 -35 223 -91v81zM374 90c113 0 206 72 206 160c0 89 -92 160 -206 160
c-113 0 -206 -72 -206 -160c1 -88 93 -160 206 -160z" />
    <glyph glyph-name="uni1EA1" unicode="&#x1ea1;" horiz-adv-x="668" 
d="M319 510c164 0 300 -86 299 -207v-303h-100v47c-43 -35 -107 -57 -188 -57c-154 0 -279 80 -280 180c1 100 126 173 280 173c81 0 145 -22 188 -56v16c1 60 -94 107 -206 107c-77 0 -133 -15 -177 -39v98c48 26 103 41 184 41zM348 84c98 0 170 39 170 90
c0 50 -71 90 -170 90c-100 0 -188 -40 -188 -90c0 -51 88 -90 188 -90zM261 -116l73 73l73 -73l-73 -73z" />
    <glyph glyph-name="uni1EA1.ss01" horiz-adv-x="653" 
d="M613 13l-95 -27c-11 41 -27 76 -44 106c-57 -61 -140 -103 -223 -103c-236 0 -296 271 -65 329c83 21 175 4 252 -46c-3 32 -21 64 -57 92c-73 57 -193 57 -271 23l-33 97c124 42 258 39 369 -43c102 -76 119 -172 87 -256c37 -47 65 -105 80 -172zM257 89
c55 0 115 34 150 82c-54 45 -119 62 -181 54c-131 -16 -102 -136 31 -136zM215 -116l73 73l73 -73l-73 -73z" />
    <glyph glyph-name="uni1EA1.ss02" horiz-adv-x="688" 
d="M618 500v-500h-100v47c-43 -35 -107 -57 -188 -57c-154 0 -279 80 -280 180c1 100 126 173 280 173c81 0 145 -22 188 -56v113h-337v100h437zM348 71c98 0 170 45 170 103c0 57 -71 102 -170 102s-187 -45 -187 -102c0 -58 88 -103 187 -103zM280 -116l73 73l73 -73
l-73 -73z" />
    <glyph glyph-name="uni1EA1.ss03" horiz-adv-x="750" 
d="M580 500h100v-500h-100v81c-52 -56 -131 -91 -223 -91c-169 0 -307 117 -307 260s138 260 307 260c92 0 171 -35 223 -91v81zM374 90c113 0 206 72 206 160c0 89 -92 160 -206 160c-113 0 -206 -72 -206 -160c1 -88 93 -160 206 -160zM301 -116l73 73l73 -73l-73 -73z
" />
    <glyph glyph-name="agrave" unicode="&#xe0;" horiz-adv-x="668" 
d="M389 570h-91l-138 130h127zM319 510c164 0 300 -86 299 -207v-303h-100v47c-43 -35 -107 -57 -188 -57c-154 0 -279 80 -280 180c1 100 126 173 280 173c81 0 145 -22 188 -56v16c1 60 -94 107 -206 107c-77 0 -133 -15 -177 -39v98c48 26 103 41 184 41zM348 84
c98 0 170 39 170 90c0 50 -71 90 -170 90c-100 0 -188 -40 -188 -90c0 -51 88 -90 188 -90z" />
    <glyph glyph-name="agrave.ss01" horiz-adv-x="653" 
d="M320 570h-91l-138 130h127zM613 13l-95 -27c-11 41 -27 76 -44 106c-57 -61 -140 -103 -223 -103c-236 0 -296 271 -65 329c83 21 175 4 252 -46c-3 32 -21 64 -57 92c-73 57 -193 57 -271 23l-33 97c124 42 258 39 369 -43c102 -76 119 -172 87 -256
c37 -47 65 -105 80 -172zM257 89c55 0 115 34 150 82c-54 45 -119 62 -181 54c-131 -16 -102 -136 31 -136z" />
    <glyph glyph-name="agrave.ss02" horiz-adv-x="688" 
d="M404 570h-91l-138 130h127zM618 500v-500h-100v47c-43 -35 -107 -57 -188 -57c-154 0 -279 80 -280 180c1 100 126 173 280 173c81 0 145 -22 188 -56v113h-337v100h437zM348 71c98 0 170 45 170 103c0 57 -71 102 -170 102s-187 -45 -187 -102c0 -58 88 -103 187 -103z
" />
    <glyph glyph-name="agrave.ss03" horiz-adv-x="750" 
d="M406 570h-91l-138 130h127zM580 500h100v-500h-100v81c-52 -56 -131 -91 -223 -91c-169 0 -307 117 -307 260s138 260 307 260c92 0 171 -35 223 -91v81zM374 90c113 0 206 72 206 160c0 89 -92 160 -206 160c-113 0 -206 -72 -206 -160c1 -88 93 -160 206 -160z" />
    <glyph glyph-name="uni1EA3" unicode="&#x1ea3;" horiz-adv-x="668" 
d="M362 673c-28 29 -71 11 -83 -31l-52 51c37 88 136 97 194 40c59 -60 47 -161 -39 -196l-51 53c44 12 60 55 31 83zM319 510c164 0 300 -86 299 -207v-303h-100v47c-43 -35 -107 -57 -188 -57c-154 0 -279 80 -280 180c1 100 126 173 280 173c81 0 145 -22 188 -56v16
c1 60 -94 107 -206 107c-77 0 -133 -15 -177 -39v98c48 26 103 41 184 41zM348 84c98 0 170 39 170 90c0 50 -71 90 -170 90c-100 0 -188 -40 -188 -90c0 -51 88 -90 188 -90z" />
    <glyph glyph-name="uni1EA3.ss01" horiz-adv-x="653" 
d="M293 673c-28 29 -71 11 -83 -31l-52 51c37 88 136 97 194 40c59 -60 47 -161 -39 -196l-51 53c44 12 60 55 31 83zM613 13l-95 -27c-11 41 -27 76 -44 106c-57 -61 -140 -103 -223 -103c-236 0 -296 271 -65 329c83 21 175 4 252 -46c-3 32 -21 64 -57 92
c-73 57 -193 57 -271 23l-33 97c124 42 258 39 369 -43c102 -76 119 -172 87 -256c37 -47 65 -105 80 -172zM257 89c55 0 115 34 150 82c-54 45 -119 62 -181 54c-131 -16 -102 -136 31 -136z" />
    <glyph glyph-name="uni1EA3.ss02" horiz-adv-x="688" 
d="M377 673c-28 29 -71 11 -83 -31l-52 51c37 88 136 97 194 40c59 -60 47 -161 -39 -196l-51 53c44 12 60 55 31 83zM618 500v-500h-100v47c-43 -35 -107 -57 -188 -57c-154 0 -279 80 -280 180c1 100 126 173 280 173c81 0 145 -22 188 -56v113h-337v100h437zM348 71
c98 0 170 45 170 103c0 57 -71 102 -170 102s-187 -45 -187 -102c0 -58 88 -103 187 -103z" />
    <glyph glyph-name="uni1EA3.ss03" horiz-adv-x="750" 
d="M379 673c-28 29 -71 11 -83 -31l-52 51c37 88 136 97 194 40c59 -60 47 -161 -39 -196l-51 53c44 12 60 55 31 83zM580 500h100v-500h-100v81c-52 -56 -131 -91 -223 -91c-169 0 -307 117 -307 260s138 260 307 260c92 0 171 -35 223 -91v81zM374 90
c113 0 206 72 206 160c0 89 -92 160 -206 160c-113 0 -206 -72 -206 -160c1 -88 93 -160 206 -160z" />
    <glyph glyph-name="amacron" unicode="&#x101;" horiz-adv-x="668" 
d="M531 674v-85h-348v85h348zM319 510c164 0 300 -86 299 -207v-303h-100v47c-43 -35 -107 -57 -188 -57c-154 0 -279 80 -280 180c1 100 126 173 280 173c81 0 145 -22 188 -56v16c1 60 -94 107 -206 107c-77 0 -133 -15 -177 -39v98c48 26 103 41 184 41zM348 84
c98 0 170 39 170 90c0 50 -71 90 -170 90c-100 0 -188 -40 -188 -90c0 -51 88 -90 188 -90z" />
    <glyph glyph-name="amacron.ss01" horiz-adv-x="653" 
d="M462 674v-85h-348v85h348zM613 13l-95 -27c-11 41 -27 76 -44 106c-57 -61 -140 -103 -223 -103c-236 0 -296 271 -65 329c83 21 175 4 252 -46c-3 32 -21 64 -57 92c-73 57 -193 57 -271 23l-33 97c124 42 258 39 369 -43c102 -76 119 -172 87 -256
c37 -47 65 -105 80 -172zM257 89c55 0 115 34 150 82c-54 45 -119 62 -181 54c-131 -16 -102 -136 31 -136z" />
    <glyph glyph-name="amacron.ss02" horiz-adv-x="688" 
d="M546 674v-85h-348v85h348zM618 500v-500h-100v47c-43 -35 -107 -57 -188 -57c-154 0 -279 80 -280 180c1 100 126 173 280 173c81 0 145 -22 188 -56v113h-337v100h437zM348 71c98 0 170 45 170 103c0 57 -71 102 -170 102s-187 -45 -187 -102c0 -58 88 -103 187 -103z
" />
    <glyph glyph-name="amacron.ss03" horiz-adv-x="750" 
d="M548 674v-85h-348v85h348zM580 500h100v-500h-100v81c-52 -56 -131 -91 -223 -91c-169 0 -307 117 -307 260s138 260 307 260c92 0 171 -35 223 -91v81zM374 90c113 0 206 72 206 160c0 89 -92 160 -206 160c-113 0 -206 -72 -206 -160c1 -88 93 -160 206 -160z" />
    <glyph glyph-name="aogonek" unicode="&#x105;" horiz-adv-x="668" 
d="M611 -121l10 -76c-17 -7 -39 -13 -69 -13c-65 0 -100 39 -100 89c0 43 23 83 77 121h-11v47c-43 -35 -107 -57 -188 -57c-154 0 -279 80 -280 180c1 100 126 173 280 173c81 0 145 -22 188 -56v16c1 60 -94 107 -206 107c-77 0 -133 -15 -177 -39v98c48 26 103 41 184 41
c164 0 300 -86 299 -207v-303c-59 -36 -84 -62 -84 -95c0 -20 16 -36 38 -36c16 0 28 3 39 10zM348 84c98 0 170 39 170 90c0 50 -71 90 -170 90c-100 0 -188 -40 -188 -90c0 -51 88 -90 188 -90z" />
    <glyph glyph-name="aogonek.ss01" horiz-adv-x="653" 
d="M606 -108l10 -76c-17 -7 -39 -13 -69 -13c-65 0 -100 39 -100 88c0 41 20 78 66 113c-11 33 -24 62 -39 88c-57 -61 -140 -103 -223 -103c-236 0 -296 271 -65 329c83 21 175 4 252 -46c-3 32 -21 64 -57 92c-73 57 -193 57 -271 23l-33 97c124 42 258 39 369 -43
c102 -76 119 -172 87 -256c37 -47 65 -105 80 -172c-59 -37 -84 -62 -84 -95c0 -21 16 -36 38 -36c16 0 28 3 39 10zM257 89c55 0 115 34 150 82c-54 45 -119 62 -181 54c-131 -16 -102 -136 31 -136z" />
    <glyph glyph-name="aogonek.ss02" horiz-adv-x="688" 
d="M611 -121l10 -76c-17 -7 -39 -13 -69 -13c-65 0 -100 39 -100 89c0 43 23 83 77 121h-11v47c-43 -35 -107 -57 -188 -57c-154 0 -279 80 -280 180c1 100 126 173 280 173c81 0 145 -22 188 -56v113h-337v100h437v-500c-59 -36 -84 -62 -84 -95c0 -20 16 -36 38 -36
c16 0 28 3 39 10zM348 71c98 0 170 45 170 103c0 57 -71 102 -170 102s-187 -45 -187 -102c0 -58 88 -103 187 -103z" />
    <glyph glyph-name="aogonek.ss03" horiz-adv-x="750" 
d="M673 -121l10 -76c-17 -7 -39 -13 -69 -13c-65 0 -100 39 -100 89c0 43 23 83 77 121h-11v81c-52 -56 -131 -91 -223 -91c-169 0 -307 117 -307 260s138 260 307 260c92 0 171 -35 223 -91v81h100v-500c-59 -36 -84 -62 -84 -95c0 -20 16 -36 38 -36c16 0 28 3 39 10z
M374 90c113 0 206 72 206 160c0 89 -92 160 -206 160c-113 0 -206 -72 -206 -160c1 -88 93 -160 206 -160z" />
    <glyph glyph-name="aring" unicode="&#xe5;" horiz-adv-x="668" 
d="M358 553c-66 0 -119 53 -119 120c0 64 53 117 119 117c65 0 119 -53 119 -117c0 -67 -54 -120 -119 -120zM358 720c-28 0 -48 -23 -48 -49s20 -48 48 -48s48 22 48 48s-20 49 -48 49zM319 510c164 0 300 -86 299 -207v-303h-100v47c-43 -35 -107 -57 -188 -57
c-154 0 -279 80 -280 180c1 100 126 173 280 173c81 0 145 -22 188 -56v16c1 60 -94 107 -206 107c-77 0 -133 -15 -177 -39v98c48 26 103 41 184 41zM348 84c98 0 170 39 170 90c0 50 -71 90 -170 90c-100 0 -188 -40 -188 -90c0 -51 88 -90 188 -90z" />
    <glyph glyph-name="aring.ss01" horiz-adv-x="653" 
d="M289 553c-66 0 -119 53 -119 120c0 64 53 117 119 117c65 0 119 -53 119 -117c0 -67 -54 -120 -119 -120zM289 720c-28 0 -48 -23 -48 -49s20 -48 48 -48s48 22 48 48s-20 49 -48 49zM613 13l-95 -27c-11 41 -27 76 -44 106c-57 -61 -140 -103 -223 -103
c-236 0 -296 271 -65 329c83 21 175 4 252 -46c-3 32 -21 64 -57 92c-73 57 -193 57 -271 23l-33 97c124 42 258 39 369 -43c102 -76 119 -172 87 -256c37 -47 65 -105 80 -172zM257 89c55 0 115 34 150 82c-54 45 -119 62 -181 54c-131 -16 -102 -136 31 -136z" />
    <glyph glyph-name="aring.ss02" horiz-adv-x="688" 
d="M373 553c-66 0 -119 53 -119 120c0 64 53 117 119 117c65 0 119 -53 119 -117c0 -67 -54 -120 -119 -120zM373 720c-28 0 -48 -23 -48 -49s20 -48 48 -48s48 22 48 48s-20 49 -48 49zM618 500v-500h-100v47c-43 -35 -107 -57 -188 -57c-154 0 -279 80 -280 180
c1 100 126 173 280 173c81 0 145 -22 188 -56v113h-337v100h437zM348 71c98 0 170 45 170 103c0 57 -71 102 -170 102s-187 -45 -187 -102c0 -58 88 -103 187 -103z" />
    <glyph glyph-name="aring.ss03" horiz-adv-x="750" 
d="M375 553c-66 0 -119 53 -119 120c0 64 53 117 119 117c65 0 119 -53 119 -117c0 -67 -54 -120 -119 -120zM375 720c-28 0 -48 -23 -48 -49s20 -48 48 -48s48 22 48 48s-20 49 -48 49zM580 500h100v-500h-100v81c-52 -56 -131 -91 -223 -91c-169 0 -307 117 -307 260
s138 260 307 260c92 0 171 -35 223 -91v81zM374 90c113 0 206 72 206 160c0 89 -92 160 -206 160c-113 0 -206 -72 -206 -160c1 -88 93 -160 206 -160z" />
    <glyph glyph-name="atilde" unicode="&#xe3;" horiz-adv-x="668" 
d="M204 558c-57 51 -30 160 75 160c103 0 91 -102 145 -102c47 0 51 63 -8 92h94c56 -49 32 -160 -76 -160c-101 0 -88 101 -143 101c-48 0 -51 -58 8 -91h-95zM319 510c164 0 300 -86 299 -207v-303h-100v47c-43 -35 -107 -57 -188 -57c-154 0 -279 80 -280 180
c1 100 126 173 280 173c81 0 145 -22 188 -56v16c1 60 -94 107 -206 107c-77 0 -133 -15 -177 -39v98c48 26 103 41 184 41zM348 84c98 0 170 39 170 90c0 50 -71 90 -170 90c-100 0 -188 -40 -188 -90c0 -51 88 -90 188 -90z" />
    <glyph glyph-name="atilde.ss01" horiz-adv-x="653" 
d="M135 558c-57 51 -30 160 75 160c103 0 91 -102 145 -102c47 0 51 63 -8 92h94c56 -49 32 -160 -76 -160c-101 0 -88 101 -143 101c-48 0 -51 -58 8 -91h-95zM613 13l-95 -27c-11 41 -27 76 -44 106c-57 -61 -140 -103 -223 -103c-236 0 -296 271 -65 329
c83 21 175 4 252 -46c-3 32 -21 64 -57 92c-73 57 -193 57 -271 23l-33 97c124 42 258 39 369 -43c102 -76 119 -172 87 -256c37 -47 65 -105 80 -172zM257 89c55 0 115 34 150 82c-54 45 -119 62 -181 54c-131 -16 -102 -136 31 -136z" />
    <glyph glyph-name="atilde.ss02" horiz-adv-x="688" 
d="M219 558c-57 51 -30 160 75 160c103 0 91 -102 145 -102c47 0 51 63 -8 92h94c56 -49 32 -160 -76 -160c-101 0 -88 101 -143 101c-48 0 -51 -58 8 -91h-95zM618 500v-500h-100v47c-43 -35 -107 -57 -188 -57c-154 0 -279 80 -280 180c1 100 126 173 280 173
c81 0 145 -22 188 -56v113h-337v100h437zM348 71c98 0 170 45 170 103c0 57 -71 102 -170 102s-187 -45 -187 -102c0 -58 88 -103 187 -103z" />
    <glyph glyph-name="atilde.ss03" horiz-adv-x="750" 
d="M221 558c-57 51 -30 160 75 160c103 0 91 -102 145 -102c47 0 51 63 -8 92h94c56 -49 32 -160 -76 -160c-101 0 -88 101 -143 101c-48 0 -51 -58 8 -91h-95zM580 500h100v-500h-100v81c-52 -56 -131 -91 -223 -91c-169 0 -307 117 -307 260s138 260 307 260
c92 0 171 -35 223 -91v81zM374 90c113 0 206 72 206 160c0 89 -92 160 -206 160c-113 0 -206 -72 -206 -160c1 -88 93 -160 206 -160z" />
    <glyph glyph-name="ae" unicode="&#xe6;" horiz-adv-x="1156" 
d="M1106 333c0 -97 -108 -165 -261 -165c-83 0 -156 28 -206 60c13 -79 96 -138 228 -138c92 0 148 26 187 59v-118c-49 -26 -104 -41 -187 -41c-116 0 -219 48 -278 120c-31 -70 -119 -120 -246 -120c-161 0 -292 80 -293 180c1 100 132 173 293 173c72 0 131 -16 175 -42
v2c1 60 -94 107 -206 107c-77 0 -133 -15 -177 -39v98c48 26 103 41 184 41c120 0 225 -46 272 -118c59 71 161 118 276 118c144 0 239 -80 239 -177zM863 410c-96 0 -174 -37 -208 -94c43 -30 109 -54 193 -54c98 0 158 33 158 68c0 49 -57 80 -143 80zM348 84
c98 0 170 39 170 90c0 50 -71 90 -170 90s-187 -40 -187 -90c0 -51 88 -90 187 -90z" />
    <glyph glyph-name="b" unicode="b" horiz-adv-x="750" 
d="M700 250c1 -143 -138 -260 -307 -260c-92 0 -171 36 -223 92v-82h-100v750h100v-331c52 56 130 91 223 91c169 0 307 -117 307 -260zM582 250c1 88 -93 160 -206 160s-206 -71 -206 -160c0 -88 93 -160 206 -160s205 72 206 160z" />
    <glyph glyph-name="c" unicode="c" horiz-adv-x="613" 
d="M384 -10c-183 0 -333 110 -334 260s151 260 334 260c64 0 125 -15 177 -40v-107c-41 28 -98 47 -164 47c-135 0 -241 -64 -243 -160c2 -96 108 -160 243 -160c66 0 124 20 166 48l-1 -107c-52 -26 -113 -41 -178 -41z" />
    <glyph glyph-name="cacute" unicode="&#x107;" horiz-adv-x="613" 
d="M439 700h126l-137 -130h-92zM384 -10c-183 0 -333 110 -334 260s151 260 334 260c64 0 125 -15 177 -40v-107c-41 28 -98 47 -164 47c-135 0 -241 -64 -243 -160c2 -96 108 -160 243 -160c66 0 124 20 166 48l-1 -107c-52 -26 -113 -41 -178 -41z" />
    <glyph glyph-name="ccaron" unicode="&#x10d;" horiz-adv-x="613" 
d="M317 570l-129 130h103l85 -91l85 91h103l-129 -130h-118zM154 250c2 -96 108 -160 243 -160c66 0 124 20 166 48l-1 -107c-52 -26 -113 -41 -178 -41c-183 0 -333 110 -334 260s151 260 334 260c64 0 125 -15 177 -40v-107c-41 28 -98 47 -164 47
c-135 0 -241 -64 -243 -160z" />
    <glyph glyph-name="ccedilla" unicode="&#xe7;" horiz-adv-x="613" 
d="M562 31c-43 -22 -93 -36 -146 -40l-6 -42c43 -8 71 -41 71 -79c0 -46 -35 -83 -95 -83c-18 0 -36 5 -51 13v52c6 -8 18 -14 31 -14c20 0 35 13 35 30s-15 30 -35 30c-13 0 -25 -6 -31 -14v109c-160 17 -284 121 -285 257c-1 150 151 260 334 260c64 0 125 -15 177 -40
v-107c-41 28 -98 47 -164 47c-135 0 -241 -64 -243 -160c2 -96 108 -160 243 -160c66 0 124 20 166 48z" />
    <glyph glyph-name="cdotaccent" unicode="&#x10b;" horiz-adv-x="613" 
d="M376 715l73 -73l-73 -73l-73 73zM384 -10c-183 0 -333 110 -334 260s151 260 334 260c64 0 125 -15 177 -40v-107c-41 28 -98 47 -164 47c-135 0 -241 -64 -243 -160c2 -96 108 -160 243 -160c66 0 124 20 166 48l-1 -107c-52 -26 -113 -41 -178 -41z" />
    <glyph glyph-name="d" unicode="d" horiz-adv-x="750" 
d="M580 750h100v-750h-100v81c-52 -56 -131 -91 -223 -91c-169 0 -307 117 -307 260s138 260 307 260c92 0 171 -35 223 -91v331zM374 90c113 0 206 72 206 160c0 89 -92 160 -206 160c-113 0 -206 -72 -206 -160c1 -88 93 -160 206 -160z" />
    <glyph glyph-name="eth" unicode="&#xf0;" horiz-adv-x="821" 
d="M795 650v-85h-125v-315c0 -143 -139 -260 -310 -260s-310 117 -310 260s139 260 310 260c81 0 155 -26 210 -68v123h-125v85h125v100h100v-100h125zM360 90c114 0 206 72 206 160s-92 160 -206 160s-206 -72 -206 -160s92 -160 206 -160z" />
    <glyph glyph-name="dcaron" unicode="&#x10f;" horiz-adv-x="864" 
d="M585 414v336h100v-750h-100v86c-52 -58 -133 -96 -228 -96c-169 0 -307 117 -307 260s138 260 307 260c95 0 176 -38 228 -96zM721 750h107l-14 -240h-79zM374 90c113 0 206 72 206 160c0 89 -92 160 -206 160c-113 0 -206 -72 -206 -160c1 -88 93 -160 206 -160z" />
    <glyph glyph-name="dcroat" unicode="&#x111;" horiz-adv-x="837" 
d="M811 650v-85h-126v-565h-100v86c-52 -58 -133 -96 -228 -96c-169 0 -307 117 -307 260s138 260 307 260c95 0 176 -38 228 -96v151h-124v85h124v100h100v-100h126zM374 90c113 0 206 72 206 160c0 89 -92 160 -206 160c-113 0 -206 -72 -206 -160c1 -88 93 -160 206 -160
z" />
    <glyph glyph-name="e" unicode="e" horiz-adv-x="669" 
d="M619 333c0 -97 -108 -165 -261 -165c-83 0 -156 28 -206 60c13 -79 96 -138 228 -138c92 0 148 26 187 59v-118c-49 -26 -104 -41 -187 -41c-181 0 -329 116 -330 260c1 144 149 260 330 260c144 0 239 -80 239 -177zM376 410c-96 0 -174 -37 -208 -94
c43 -30 109 -54 193 -54c98 0 158 33 158 68c0 49 -57 80 -143 80z" />
    <glyph glyph-name="e.ss01" horiz-adv-x="697" 
d="M587 221l83 -58c-37 -55 -141 -174 -300 -173c-119 0 -195 74 -223 166c-46 10 -88 28 -121 55l49 79c19 -12 39 -23 59 -31c5 80 42 159 114 208c193 130 382 -54 237 -224c-49 -60 -135 -92 -225 -97c23 -33 59 -56 107 -56c124 0 190 84 220 131zM310 388
c-54 -37 -78 -96 -77 -152c67 -4 130 17 173 68c65 81 -2 150 -96 84z" />
    <glyph glyph-name="e.ss02" horiz-adv-x="689" 
d="M378 168c-84 0 -158 29 -208 61v-129h417v-100h-517v500h326c146 0 243 -68 243 -167s-99 -165 -261 -165zM396 400h-226v-74c40 -36 113 -64 211 -64c101 0 158 34 158 71c0 41 -60 67 -143 67z" />
    <glyph glyph-name="eacute" unicode="&#xe9;" horiz-adv-x="669" 
d="M559 700l-137 -130h-92l103 130h126zM619 333c0 -97 -108 -165 -261 -165c-83 0 -156 28 -206 60c13 -79 96 -138 228 -138c92 0 148 26 187 59v-118c-49 -26 -104 -41 -187 -41c-181 0 -329 116 -330 260c1 144 149 260 330 260c144 0 239 -80 239 -177zM376 410
c-96 0 -174 -37 -208 -94c43 -30 109 -54 193 -54c98 0 158 33 158 68c0 49 -57 80 -143 80z" />
    <glyph glyph-name="eacute.ss01" horiz-adv-x="697" 
d="M559 700l-137 -130h-92l103 130h126zM587 221l83 -58c-37 -55 -141 -174 -300 -173c-119 0 -195 74 -223 166c-46 10 -88 28 -121 55l49 79c19 -12 39 -23 59 -31c5 80 42 159 114 208c193 130 382 -54 237 -224c-49 -60 -135 -92 -225 -97c23 -33 59 -56 107 -56
c124 0 190 84 220 131zM310 388c-54 -37 -78 -96 -77 -152c67 -4 130 17 173 68c65 81 -2 150 -96 84z" />
    <glyph glyph-name="eacute.ss02" horiz-adv-x="689" 
d="M523 700l-137 -130h-92l103 130h126zM378 168c-84 0 -158 29 -208 61v-129h417v-100h-517v500h326c146 0 243 -68 243 -167s-99 -165 -261 -165zM396 400h-226v-74c40 -36 113 -64 211 -64c101 0 158 34 158 71c0 41 -60 67 -143 67z" />
    <glyph glyph-name="ecaron" unicode="&#x11b;" horiz-adv-x="669" 
d="M311 570l-129 130h103l85 -91l85 91h103l-129 -130h-118zM619 333c0 -97 -108 -165 -261 -165c-83 0 -156 28 -206 60c13 -79 96 -138 228 -138c92 0 148 26 187 59v-118c-49 -26 -104 -41 -187 -41c-181 0 -329 116 -330 260c1 144 149 260 330 260
c144 0 239 -80 239 -177zM376 410c-96 0 -174 -37 -208 -94c43 -30 109 -54 193 -54c98 0 158 33 158 68c0 49 -57 80 -143 80z" />
    <glyph glyph-name="ecaron.ss01" horiz-adv-x="697" 
d="M311 570l-129 130h103l85 -91l85 91h103l-129 -130h-118zM587 221l83 -58c-37 -55 -141 -174 -300 -173c-119 0 -195 74 -223 166c-46 10 -88 28 -121 55l49 79c19 -12 39 -23 59 -31c5 80 42 159 114 208c193 130 382 -54 237 -224c-49 -60 -135 -92 -225 -97
c23 -33 59 -56 107 -56c124 0 190 84 220 131zM310 388c-54 -37 -78 -96 -77 -152c67 -4 130 17 173 68c65 81 -2 150 -96 84z" />
    <glyph glyph-name="ecaron.ss02" horiz-adv-x="689" 
d="M275 570l-129 130h103l85 -91l85 91h103l-129 -130h-118zM378 168c-84 0 -158 29 -208 61v-129h417v-100h-517v500h326c146 0 243 -68 243 -167s-99 -165 -261 -165zM396 400h-226v-74c40 -36 113 -64 211 -64c101 0 158 34 158 71c0 41 -60 67 -143 67z" />
    <glyph glyph-name="ecircumflex" unicode="&#xea;" horiz-adv-x="669" 
d="M370 661l-85 -91h-103l129 130h118l129 -130h-103zM619 333c0 -97 -108 -165 -261 -165c-83 0 -156 28 -206 60c13 -79 96 -138 228 -138c92 0 148 26 187 59v-118c-49 -26 -104 -41 -187 -41c-181 0 -329 116 -330 260c1 144 149 260 330 260c144 0 239 -80 239 -177z
M376 410c-96 0 -174 -37 -208 -94c43 -30 109 -54 193 -54c98 0 158 33 158 68c0 49 -57 80 -143 80z" />
    <glyph glyph-name="ecircumflex.ss01" horiz-adv-x="697" 
d="M370 661l-85 -91h-103l129 130h118l129 -130h-103zM587 221l83 -58c-37 -55 -141 -174 -300 -173c-119 0 -195 74 -223 166c-46 10 -88 28 -121 55l49 79c19 -12 39 -23 59 -31c5 80 42 159 114 208c193 130 382 -54 237 -224c-49 -60 -135 -92 -225 -97
c23 -33 59 -56 107 -56c124 0 190 84 220 131zM310 388c-54 -37 -78 -96 -77 -152c67 -4 130 17 173 68c65 81 -2 150 -96 84z" />
    <glyph glyph-name="ecircumflex.ss02" horiz-adv-x="689" 
d="M334 661l-85 -91h-103l129 130h118l129 -130h-103zM378 168c-84 0 -158 29 -208 61v-129h417v-100h-517v500h326c146 0 243 -68 243 -167s-99 -165 -261 -165zM396 400h-226v-74c40 -36 113 -64 211 -64c101 0 158 34 158 71c0 41 -60 67 -143 67z" />
    <glyph glyph-name="uni1EBF" unicode="&#x1ebf;" horiz-adv-x="669" 
d="M560 874l-138 -130h-92l103 130h127zM370 661l-85 -91h-103l129 130h118l129 -130h-103zM619 333c0 -97 -108 -165 -261 -165c-83 0 -156 28 -206 60c13 -79 96 -138 228 -138c92 0 148 26 187 59v-118c-49 -26 -104 -41 -187 -41c-181 0 -329 116 -330 260
c1 144 149 260 330 260c144 0 239 -80 239 -177zM376 410c-96 0 -174 -37 -208 -94c43 -30 109 -54 193 -54c98 0 158 33 158 68c0 49 -57 80 -143 80z" />
    <glyph glyph-name="uni1EBF.ss01" horiz-adv-x="697" 
d="M560 874l-138 -130h-92l103 130h127zM370 661l-85 -91h-103l129 130h118l129 -130h-103zM587 221l83 -58c-37 -55 -141 -174 -300 -173c-119 0 -195 74 -223 166c-46 10 -88 28 -121 55l49 79c19 -12 39 -23 59 -31c5 80 42 159 114 208c193 130 382 -54 237 -224
c-49 -60 -135 -92 -225 -97c23 -33 59 -56 107 -56c124 0 190 84 220 131zM310 388c-54 -37 -78 -96 -77 -152c67 -4 130 17 173 68c65 81 -2 150 -96 84z" />
    <glyph glyph-name="uni1EBF.ss02" horiz-adv-x="689" 
d="M524 874l-138 -130h-92l103 130h127zM334 661l-85 -91h-103l129 130h118l129 -130h-103zM378 168c-84 0 -158 29 -208 61v-129h417v-100h-517v500h326c146 0 243 -68 243 -167s-99 -165 -261 -165zM396 400h-226v-74c40 -36 113 -64 211 -64c101 0 158 34 158 71
c0 41 -60 67 -143 67z" />
    <glyph glyph-name="uni1EC7" unicode="&#x1ec7;" horiz-adv-x="669" 
d="M370 661l-85 -91h-103l129 130h118l129 -130h-103zM619 333c0 -97 -108 -165 -261 -165c-83 0 -156 28 -206 60c13 -79 96 -138 228 -138c92 0 148 26 187 59v-118c-49 -26 -104 -41 -187 -41c-181 0 -329 116 -330 260c1 144 149 260 330 260c144 0 239 -80 239 -177z
M376 410c-96 0 -174 -37 -208 -94c43 -30 109 -54 193 -54c98 0 158 33 158 68c0 49 -57 80 -143 80zM297 -116l73 73l73 -73l-73 -73z" />
    <glyph glyph-name="uni1EC7.ss01" horiz-adv-x="697" 
d="M370 661l-85 -91h-103l129 130h118l129 -130h-103zM587 221l83 -58c-37 -55 -141 -174 -300 -173c-119 0 -195 74 -223 166c-46 10 -88 28 -121 55l49 79c19 -12 39 -23 59 -31c5 80 42 159 114 208c193 130 382 -54 237 -224c-49 -60 -135 -92 -225 -97
c23 -33 59 -56 107 -56c124 0 190 84 220 131zM310 388c-54 -37 -78 -96 -77 -152c67 -4 130 17 173 68c65 81 -2 150 -96 84zM297 -116l73 73l73 -73l-73 -73z" />
    <glyph glyph-name="uni1EC7.ss02" horiz-adv-x="689" 
d="M334 661l-85 -91h-103l129 130h118l129 -130h-103zM378 168c-84 0 -158 29 -208 61v-129h417v-100h-517v500h326c146 0 243 -68 243 -167s-99 -165 -261 -165zM396 400h-226v-74c40 -36 113 -64 211 -64c101 0 158 34 158 71c0 41 -60 67 -143 67zM261 -116l73 73l73 -73
l-73 -73z" />
    <glyph glyph-name="uni1EC1" unicode="&#x1ec1;" horiz-adv-x="669" 
d="M402 744h-91l-138 130h127zM311 700h118l129 -130h-103l-85 91l-85 -91h-103zM619 333c0 -97 -108 -165 -261 -165c-83 0 -156 28 -206 60c13 -79 96 -138 228 -138c92 0 148 26 187 59v-118c-49 -26 -104 -41 -187 -41c-181 0 -329 116 -330 260c1 144 149 260 330 260
c144 0 239 -80 239 -177zM376 410c-96 0 -174 -37 -208 -94c43 -30 109 -54 193 -54c98 0 158 33 158 68c0 49 -57 80 -143 80z" />
    <glyph glyph-name="uni1EC1.ss01" horiz-adv-x="697" 
d="M402 744h-91l-138 130h127zM311 700h118l129 -130h-103l-85 91l-85 -91h-103zM587 221l83 -58c-37 -55 -141 -174 -300 -173c-119 0 -195 74 -223 166c-46 10 -88 28 -121 55l49 79c19 -12 39 -23 59 -31c5 80 42 159 114 208c193 130 382 -54 237 -224
c-49 -60 -135 -92 -225 -97c23 -33 59 -56 107 -56c124 0 190 84 220 131zM310 388c-54 -37 -78 -96 -77 -152c67 -4 130 17 173 68c65 81 -2 150 -96 84z" />
    <glyph glyph-name="uni1EC1.ss02" horiz-adv-x="689" 
d="M366 744h-91l-138 130h127zM275 700h118l129 -130h-103l-85 91l-85 -91h-103zM378 168c-84 0 -158 29 -208 61v-129h417v-100h-517v500h326c146 0 243 -68 243 -167s-99 -165 -261 -165zM396 400h-226v-74c40 -36 113 -64 211 -64c101 0 158 34 158 71
c0 41 -60 67 -143 67z" />
    <glyph glyph-name="uni1EC3" unicode="&#x1ec3;" horiz-adv-x="669" 
d="M499 795c-29 28 -72 10 -84 -31l-52 51c37 88 137 97 194 39c59 -59 47 -160 -39 -195l-51 53c44 12 60 55 32 83zM374 661l-85 -91h-103l129 130h118l129 -130h-103zM619 333c0 -97 -108 -165 -261 -165c-83 0 -156 28 -206 60c13 -79 96 -138 228 -138
c92 0 148 26 187 59v-118c-49 -26 -104 -41 -187 -41c-181 0 -329 116 -330 260c1 144 149 260 330 260c144 0 239 -80 239 -177zM376 410c-96 0 -174 -37 -208 -94c43 -30 109 -54 193 -54c98 0 158 33 158 68c0 49 -57 80 -143 80z" />
    <glyph glyph-name="uni1EC3.ss01" horiz-adv-x="697" 
d="M499 795c-29 28 -72 10 -84 -31l-52 51c37 88 137 97 194 39c59 -59 47 -160 -39 -195l-51 53c44 12 60 55 32 83zM374 661l-85 -91h-103l129 130h118l129 -130h-103zM587 221l83 -58c-37 -55 -141 -174 -300 -173c-119 0 -195 74 -223 166c-46 10 -88 28 -121 55l49 79
c19 -12 39 -23 59 -31c5 80 42 159 114 208c193 130 382 -54 237 -224c-49 -60 -135 -92 -225 -97c23 -33 59 -56 107 -56c124 0 190 84 220 131zM310 388c-54 -37 -78 -96 -77 -152c67 -4 130 17 173 68c65 81 -2 150 -96 84z" />
    <glyph glyph-name="uni1EC3.ss02" horiz-adv-x="689" 
d="M463 795c-29 28 -72 10 -84 -31l-52 51c37 88 137 97 194 39c59 -59 47 -160 -39 -195l-51 53c44 12 60 55 32 83zM338 661l-85 -91h-103l129 130h118l129 -130h-103zM378 168c-84 0 -158 29 -208 61v-129h417v-100h-517v500h326c146 0 243 -68 243 -167
s-99 -165 -261 -165zM396 400h-226v-74c40 -36 113 -64 211 -64c101 0 158 34 158 71c0 41 -60 67 -143 67z" />
    <glyph glyph-name="uni1EC5" unicode="&#x1ec5;" horiz-adv-x="669" 
d="M217 731c-57 52 -30 160 75 160c103 0 91 -102 145 -102c47 0 51 64 -8 92h94c56 -49 32 -160 -76 -160c-101 0 -88 102 -143 102c-48 0 -51 -58 8 -92h-95zM370 661l-85 -91h-103l129 130h118l129 -130h-103zM619 333c0 -97 -108 -165 -261 -165c-83 0 -156 28 -206 60
c13 -79 96 -138 228 -138c92 0 148 26 187 59v-118c-49 -26 -104 -41 -187 -41c-181 0 -329 116 -330 260c1 144 149 260 330 260c144 0 239 -80 239 -177zM376 410c-96 0 -174 -37 -208 -94c43 -30 109 -54 193 -54c98 0 158 33 158 68c0 49 -57 80 -143 80z" />
    <glyph glyph-name="uni1EC5.ss01" horiz-adv-x="697" 
d="M217 731c-57 52 -30 160 75 160c103 0 91 -102 145 -102c47 0 51 64 -8 92h94c56 -49 32 -160 -76 -160c-101 0 -88 102 -143 102c-48 0 -51 -58 8 -92h-95zM370 661l-85 -91h-103l129 130h118l129 -130h-103zM587 221l83 -58c-37 -55 -141 -174 -300 -173
c-119 0 -195 74 -223 166c-46 10 -88 28 -121 55l49 79c19 -12 39 -23 59 -31c5 80 42 159 114 208c193 130 382 -54 237 -224c-49 -60 -135 -92 -225 -97c23 -33 59 -56 107 -56c124 0 190 84 220 131zM310 388c-54 -37 -78 -96 -77 -152c67 -4 130 17 173 68
c65 81 -2 150 -96 84z" />
    <glyph glyph-name="uni1EC5.ss02" horiz-adv-x="689" 
d="M181 731c-57 52 -30 160 75 160c103 0 91 -102 145 -102c47 0 51 64 -8 92h94c56 -49 32 -160 -76 -160c-101 0 -88 102 -143 102c-48 0 -51 -58 8 -92h-95zM334 661l-85 -91h-103l129 130h118l129 -130h-103zM378 168c-84 0 -158 29 -208 61v-129h417v-100h-517v500h326
c146 0 243 -68 243 -167s-99 -165 -261 -165zM396 400h-226v-74c40 -36 113 -64 211 -64c101 0 158 34 158 71c0 41 -60 67 -143 67z" />
    <glyph glyph-name="edieresis" unicode="&#xeb;" horiz-adv-x="669" 
d="M340 624l-64 -64l-64 64l64 64zM525 624l-64 -64l-64 64l64 64zM619 333c0 -97 -108 -165 -261 -165c-83 0 -156 28 -206 60c13 -79 96 -138 228 -138c92 0 148 26 187 59v-118c-49 -26 -104 -41 -187 -41c-181 0 -329 116 -330 260c1 144 149 260 330 260
c144 0 239 -80 239 -177zM376 410c-96 0 -174 -37 -208 -94c43 -30 109 -54 193 -54c98 0 158 33 158 68c0 49 -57 80 -143 80z" />
    <glyph glyph-name="edieresis.ss01" horiz-adv-x="697" 
d="M340 624l-64 -64l-64 64l64 64zM525 624l-64 -64l-64 64l64 64zM587 221l83 -58c-37 -55 -141 -174 -300 -173c-119 0 -195 74 -223 166c-46 10 -88 28 -121 55l49 79c19 -12 39 -23 59 -31c5 80 42 159 114 208c193 130 382 -54 237 -224c-49 -60 -135 -92 -225 -97
c23 -33 59 -56 107 -56c124 0 190 84 220 131zM310 388c-54 -37 -78 -96 -77 -152c67 -4 130 17 173 68c65 81 -2 150 -96 84z" />
    <glyph glyph-name="edieresis.ss02" horiz-adv-x="689" 
d="M304 624l-64 -64l-64 64l64 64zM489 624l-64 -64l-64 64l64 64zM378 168c-84 0 -158 29 -208 61v-129h417v-100h-517v500h326c146 0 243 -68 243 -167s-99 -165 -261 -165zM396 400h-226v-74c40 -36 113 -64 211 -64c101 0 158 34 158 71c0 41 -60 67 -143 67z" />
    <glyph glyph-name="edotaccent" unicode="&#x117;" horiz-adv-x="669" 
d="M443 642l-73 -73l-73 73l73 73zM619 333c0 -97 -108 -165 -261 -165c-83 0 -156 28 -206 60c13 -79 96 -138 228 -138c92 0 148 26 187 59v-118c-49 -26 -104 -41 -187 -41c-181 0 -329 116 -330 260c1 144 149 260 330 260c144 0 239 -80 239 -177zM376 410
c-96 0 -174 -37 -208 -94c43 -30 109 -54 193 -54c98 0 158 33 158 68c0 49 -57 80 -143 80z" />
    <glyph glyph-name="edotaccent.ss01" horiz-adv-x="697" 
d="M443 642l-73 -73l-73 73l73 73zM587 221l83 -58c-37 -55 -141 -174 -300 -173c-119 0 -195 74 -223 166c-46 10 -88 28 -121 55l49 79c19 -12 39 -23 59 -31c5 80 42 159 114 208c193 130 382 -54 237 -224c-49 -60 -135 -92 -225 -97c23 -33 59 -56 107 -56
c124 0 190 84 220 131zM310 388c-54 -37 -78 -96 -77 -152c67 -4 130 17 173 68c65 81 -2 150 -96 84z" />
    <glyph glyph-name="edotaccent.ss02" horiz-adv-x="689" 
d="M407 642l-73 -73l-73 73l73 73zM378 168c-84 0 -158 29 -208 61v-129h417v-100h-517v500h326c146 0 243 -68 243 -167s-99 -165 -261 -165zM396 400h-226v-74c40 -36 113 -64 211 -64c101 0 158 34 158 71c0 41 -60 67 -143 67z" />
    <glyph glyph-name="uni1EB9" unicode="&#x1eb9;" horiz-adv-x="669" 
d="M619 333c0 -97 -108 -165 -261 -165c-83 0 -156 28 -206 60c13 -79 96 -138 228 -138c92 0 148 26 187 59v-118c-49 -26 -104 -41 -187 -41c-181 0 -329 116 -330 260c1 144 149 260 330 260c144 0 239 -80 239 -177zM376 410c-96 0 -174 -37 -208 -94
c43 -30 109 -54 193 -54c98 0 158 33 158 68c0 49 -57 80 -143 80zM297 -116l73 73l73 -73l-73 -73z" />
    <glyph glyph-name="uni1EB9.ss01" horiz-adv-x="697" 
d="M587 221l83 -58c-37 -55 -141 -174 -300 -173c-119 0 -195 74 -223 166c-46 10 -88 28 -121 55l49 79c19 -12 39 -23 59 -31c5 80 42 159 114 208c193 130 382 -54 237 -224c-49 -60 -135 -92 -225 -97c23 -33 59 -56 107 -56c124 0 190 84 220 131zM310 388
c-54 -37 -78 -96 -77 -152c67 -4 130 17 173 68c65 81 -2 150 -96 84zM297 -116l73 73l73 -73l-73 -73z" />
    <glyph glyph-name="uni1EB9.ss02" horiz-adv-x="689" 
d="M378 168c-84 0 -158 29 -208 61v-129h417v-100h-517v500h326c146 0 243 -68 243 -167s-99 -165 -261 -165zM396 400h-226v-74c40 -36 113 -64 211 -64c101 0 158 34 158 71c0 41 -60 67 -143 67zM261 -116l73 73l73 -73l-73 -73z" />
    <glyph glyph-name="egrave" unicode="&#xe8;" horiz-adv-x="669" 
d="M402 570h-91l-138 130h127zM619 333c0 -97 -108 -165 -261 -165c-83 0 -156 28 -206 60c13 -79 96 -138 228 -138c92 0 148 26 187 59v-118c-49 -26 -104 -41 -187 -41c-181 0 -329 116 -330 260c1 144 149 260 330 260c144 0 239 -80 239 -177zM376 410
c-96 0 -174 -37 -208 -94c43 -30 109 -54 193 -54c98 0 158 33 158 68c0 49 -57 80 -143 80z" />
    <glyph glyph-name="egrave.ss01" horiz-adv-x="697" 
d="M402 570h-91l-138 130h127zM587 221l83 -58c-37 -55 -141 -174 -300 -173c-119 0 -195 74 -223 166c-46 10 -88 28 -121 55l49 79c19 -12 39 -23 59 -31c5 80 42 159 114 208c193 130 382 -54 237 -224c-49 -60 -135 -92 -225 -97c23 -33 59 -56 107 -56
c124 0 190 84 220 131zM310 388c-54 -37 -78 -96 -77 -152c67 -4 130 17 173 68c65 81 -2 150 -96 84z" />
    <glyph glyph-name="egrave.ss02" horiz-adv-x="689" 
d="M366 570h-91l-138 130h127zM378 168c-84 0 -158 29 -208 61v-129h417v-100h-517v500h326c146 0 243 -68 243 -167s-99 -165 -261 -165zM396 400h-226v-74c40 -36 113 -64 211 -64c101 0 158 34 158 71c0 41 -60 67 -143 67z" />
    <glyph glyph-name="uni1EBB" unicode="&#x1ebb;" horiz-adv-x="669" 
d="M375 673c-28 29 -71 11 -83 -31l-52 51c37 88 136 97 194 40c59 -60 47 -161 -39 -196l-51 53c44 12 60 55 31 83zM619 333c0 -97 -108 -165 -261 -165c-83 0 -156 28 -206 60c13 -79 96 -138 228 -138c92 0 148 26 187 59v-118c-49 -26 -104 -41 -187 -41
c-181 0 -329 116 -330 260c1 144 149 260 330 260c144 0 239 -80 239 -177zM376 410c-96 0 -174 -37 -208 -94c43 -30 109 -54 193 -54c98 0 158 33 158 68c0 49 -57 80 -143 80z" />
    <glyph glyph-name="uni1EBB.ss01" horiz-adv-x="697" 
d="M375 673c-28 29 -71 11 -83 -31l-52 51c37 88 136 97 194 40c59 -60 47 -161 -39 -196l-51 53c44 12 60 55 31 83zM587 221l83 -58c-37 -55 -141 -174 -300 -173c-119 0 -195 74 -223 166c-46 10 -88 28 -121 55l49 79c19 -12 39 -23 59 -31c5 80 42 159 114 208
c193 130 382 -54 237 -224c-49 -60 -135 -92 -225 -97c23 -33 59 -56 107 -56c124 0 190 84 220 131zM310 388c-54 -37 -78 -96 -77 -152c67 -4 130 17 173 68c65 81 -2 150 -96 84z" />
    <glyph glyph-name="uni1EBB.ss02" horiz-adv-x="689" 
d="M339 673c-28 29 -71 11 -83 -31l-52 51c37 88 136 97 194 40c59 -60 47 -161 -39 -196l-51 53c44 12 60 55 31 83zM378 168c-84 0 -158 29 -208 61v-129h417v-100h-517v500h326c146 0 243 -68 243 -167s-99 -165 -261 -165zM396 400h-226v-74c40 -36 113 -64 211 -64
c101 0 158 34 158 71c0 41 -60 67 -143 67z" />
    <glyph glyph-name="emacron" unicode="&#x113;" horiz-adv-x="669" 
d="M544 674v-85h-348v85h348zM619 333c0 -97 -108 -165 -261 -165c-83 0 -156 28 -206 60c13 -79 96 -138 228 -138c92 0 148 26 187 59v-118c-49 -26 -104 -41 -187 -41c-181 0 -329 116 -330 260c1 144 149 260 330 260c144 0 239 -80 239 -177zM376 410
c-96 0 -174 -37 -208 -94c43 -30 109 -54 193 -54c98 0 158 33 158 68c0 49 -57 80 -143 80z" />
    <glyph glyph-name="emacron.ss01" horiz-adv-x="697" 
d="M544 674v-85h-348v85h348zM587 221l83 -58c-37 -55 -141 -174 -300 -173c-119 0 -195 74 -223 166c-46 10 -88 28 -121 55l49 79c19 -12 39 -23 59 -31c5 80 42 159 114 208c193 130 382 -54 237 -224c-49 -60 -135 -92 -225 -97c23 -33 59 -56 107 -56
c124 0 190 84 220 131zM310 388c-54 -37 -78 -96 -77 -152c67 -4 130 17 173 68c65 81 -2 150 -96 84z" />
    <glyph glyph-name="emacron.ss02" horiz-adv-x="689" 
d="M508 674v-85h-348v85h348zM378 168c-84 0 -158 29 -208 61v-129h417v-100h-517v500h326c146 0 243 -68 243 -167s-99 -165 -261 -165zM396 400h-226v-74c40 -36 113 -64 211 -64c101 0 158 34 158 71c0 41 -60 67 -143 67z" />
    <glyph glyph-name="eogonek" unicode="&#x119;" horiz-adv-x="669" 
d="M619 333c0 -97 -108 -165 -261 -165c-83 0 -156 28 -206 60c13 -79 96 -138 228 -138c92 0 148 26 187 59v-118c-28 -15 -58 -26 -94 -33c-25 -21 -36 -40 -36 -62c0 -20 16 -36 38 -36c16 0 28 3 39 10l10 -76c-17 -7 -39 -13 -69 -13c-65 0 -100 39 -100 89
c0 28 10 54 31 80h-6c-181 0 -329 116 -330 260c1 144 149 260 330 260c144 0 239 -80 239 -177zM376 410c-96 0 -174 -37 -208 -94c43 -30 109 -54 193 -54c98 0 158 33 158 68c0 49 -57 80 -143 80z" />
    <glyph glyph-name="eogonek.ss01" horiz-adv-x="697" 
d="M533 34c-22 -19 -32 -37 -32 -58c0 -20 16 -36 38 -36c16 0 28 3 39 10l10 -76c-17 -7 -39 -13 -69 -13c-65 0 -100 39 -100 89c0 15 3 30 9 45c-18 -3 -38 -5 -58 -5c-119 0 -195 74 -223 166c-46 10 -88 28 -121 55l49 79c19 -12 39 -23 59 -31c5 80 42 159 114 208
c193 130 382 -54 237 -224c-49 -60 -135 -92 -225 -97c23 -33 59 -56 107 -56c124 0 190 84 220 131l83 -58c-22 -33 -69 -89 -137 -129zM310 388c-54 -37 -78 -96 -77 -152c67 -4 130 17 173 68c65 81 -2 150 -96 84z" />
    <glyph glyph-name="eogonek.ss02" horiz-adv-x="689" 
d="M378 168c-84 0 -158 29 -208 61v-129h417v-100c-59 -36 -84 -62 -84 -95c0 -20 16 -36 38 -36c16 0 28 3 39 10l10 -76c-17 -7 -39 -13 -69 -13c-65 0 -100 39 -100 89c0 43 23 83 77 121h-428v500h326c146 0 243 -68 243 -167s-99 -165 -261 -165zM396 400h-226v-74
c40 -36 113 -64 211 -64c101 0 158 34 158 71c0 41 -60 67 -143 67z" />
    <glyph glyph-name="uni1EBD" unicode="&#x1ebd;" horiz-adv-x="669" 
d="M217 558c-57 51 -30 160 75 160c103 0 91 -102 145 -102c47 0 51 63 -8 92h94c56 -49 32 -160 -76 -160c-101 0 -88 101 -143 101c-48 0 -51 -58 8 -91h-95zM619 333c0 -97 -108 -165 -261 -165c-83 0 -156 28 -206 60c13 -79 96 -138 228 -138c92 0 148 26 187 59v-118
c-49 -26 -104 -41 -187 -41c-181 0 -329 116 -330 260c1 144 149 260 330 260c144 0 239 -80 239 -177zM376 410c-96 0 -174 -37 -208 -94c43 -30 109 -54 193 -54c98 0 158 33 158 68c0 49 -57 80 -143 80z" />
    <glyph glyph-name="uni1EBD.ss01" horiz-adv-x="697" 
d="M217 558c-57 51 -30 160 75 160c103 0 91 -102 145 -102c47 0 51 63 -8 92h94c56 -49 32 -160 -76 -160c-101 0 -88 101 -143 101c-48 0 -51 -58 8 -91h-95zM587 221l83 -58c-37 -55 -141 -174 -300 -173c-119 0 -195 74 -223 166c-46 10 -88 28 -121 55l49 79
c19 -12 39 -23 59 -31c5 80 42 159 114 208c193 130 382 -54 237 -224c-49 -60 -135 -92 -225 -97c23 -33 59 -56 107 -56c124 0 190 84 220 131zM310 388c-54 -37 -78 -96 -77 -152c67 -4 130 17 173 68c65 81 -2 150 -96 84z" />
    <glyph glyph-name="uni1EBD.ss02" horiz-adv-x="689" 
d="M181 558c-57 51 -30 160 75 160c103 0 91 -102 145 -102c47 0 51 63 -8 92h94c56 -49 32 -160 -76 -160c-101 0 -88 101 -143 101c-48 0 -51 -58 8 -91h-95zM378 168c-84 0 -158 29 -208 61v-129h417v-100h-517v500h326c146 0 243 -68 243 -167s-99 -165 -261 -165z
M396 400h-226v-74c40 -36 113 -64 211 -64c101 0 158 34 158 71c0 41 -60 67 -143 67z" />
    <glyph glyph-name="f" unicode="f" horiz-adv-x="443" 
d="M416 650h-145v-150h145v-100h-145v-400h-100v400h-145v100h145v250h245v-100z" />
    <glyph glyph-name="f.ss01" horiz-adv-x="565" 
d="M398 760c61 0 104 -15 141 -41v-110c-19 20 -61 55 -137 55c-80 0 -131 -36 -131 -119v-45h145v-100h-145v-400h-100v400h-145v100h145v49c0 126 86 211 227 211z" />
    <glyph glyph-name="f.ss03" horiz-adv-x="565" 
d="M398 760c61 0 104 -15 141 -41v-110c-19 20 -61 55 -137 55c-80 0 -131 -36 -131 -119v-45h145v-100h-145v-400h-100v400h-145v100h145v49c0 126 86 211 227 211z" />
    <glyph glyph-name="g" unicode="g" horiz-adv-x="750" 
d="M680 56c1 -166 -147 -266 -338 -266c-97 0 -166 29 -208 57v100c38 -33 108 -65 201 -65c135 0 246 53 245 174v25c-52 -56 -131 -91 -223 -91c-169 0 -307 117 -307 260s138 260 307 260c92 0 171 -35 223 -91v81h100v-444zM374 90c113 0 206 72 206 160
c0 89 -92 160 -206 160c-113 0 -206 -72 -206 -160c1 -88 93 -160 206 -160z" />
    <glyph glyph-name="g.ss01" horiz-adv-x="752" 
d="M682 499c-3 -136 -22 -244 -61 -324c-9 -358 -359 -493 -568 -285l70 71c131 -121 307 -77 372 82c-30 -16 -64 -27 -103 -34c-193 -32 -338 77 -342 235c-5 164 109 271 296 266c99 -2 178 -49 226 -128c5 36 9 77 11 123zM376 108c62 11 110 37 144 97
c-7 130 -76 203 -181 209c-110 6 -193 -62 -189 -165c3 -93 93 -165 226 -141z" />
    <glyph glyph-name="g.ss02" horiz-adv-x="751" 
d="M581 500h100v-700h-498v100h398v183c-52 -57 -131 -93 -224 -93c-169 0 -308 117 -307 260c0 143 138 260 307 260c93 0 172 -36 224 -92v82zM374 90c113 0 206 72 206 160c0 89 -93 160 -206 160s-207 -72 -206 -160s93 -160 206 -160z" />
    <glyph glyph-name="gbreve" unicode="&#x11f;" horiz-adv-x="750" 
d="M380 558c-84 0 -154 63 -153 142h83c0 -34 31 -63 70 -63c38 0 70 28 70 63h83c0 -79 -69 -142 -153 -142zM680 56c1 -166 -147 -266 -338 -266c-97 0 -166 29 -208 57v100c38 -33 108 -65 201 -65c135 0 246 53 245 174v25c-52 -56 -131 -91 -223 -91
c-169 0 -307 117 -307 260s138 260 307 260c92 0 171 -35 223 -91v81h100v-444zM374 90c113 0 206 72 206 160c0 89 -92 160 -206 160c-113 0 -206 -72 -206 -160c1 -88 93 -160 206 -160z" />
    <glyph glyph-name="gbreve.ss01" horiz-adv-x="752" 
d="M351 558c-84 0 -154 63 -153 142h83c0 -34 31 -63 70 -63c38 0 70 28 70 63h83c0 -79 -69 -142 -153 -142zM682 499c-3 -136 -22 -244 -61 -324c-9 -358 -359 -493 -568 -285l70 71c131 -121 307 -77 372 82c-30 -16 -64 -27 -103 -34c-193 -32 -338 77 -342 235
c-5 164 109 271 296 266c99 -2 178 -49 226 -128c5 36 9 77 11 123zM376 108c62 11 110 37 144 97c-7 130 -76 203 -181 209c-110 6 -193 -62 -189 -165c3 -93 93 -165 226 -141z" />
    <glyph glyph-name="gbreve.ss02" horiz-adv-x="751" 
d="M366 558c-84 0 -154 63 -153 142h83c0 -34 31 -63 70 -63c38 0 70 28 70 63h83c0 -79 -69 -142 -153 -142zM581 500h100v-700h-498v100h398v183c-52 -57 -131 -93 -224 -93c-169 0 -308 117 -307 260c0 143 138 260 307 260c93 0 172 -36 224 -92v82zM374 90
c113 0 206 72 206 160c0 89 -93 160 -206 160s-207 -72 -206 -160s93 -160 206 -160z" />
    <glyph glyph-name="uni0123" unicode="&#x123;" horiz-adv-x="750" 
d="M488 792l-89 -223l-97 45l114 212zM680 56c1 -166 -147 -266 -338 -266c-97 0 -166 29 -208 57v100c38 -33 108 -65 201 -65c135 0 246 53 245 174v25c-52 -56 -131 -91 -223 -91c-169 0 -307 117 -307 260s138 260 307 260c92 0 171 -35 223 -91v81h100v-444zM374 90
c113 0 206 72 206 160c0 89 -92 160 -206 160c-113 0 -206 -72 -206 -160c1 -88 93 -160 206 -160z" />
    <glyph glyph-name="uni0123.ss01" horiz-adv-x="752" 
d="M460 792l-89 -223l-97 45l114 212zM682 499c-3 -136 -22 -244 -61 -324c-9 -358 -359 -493 -568 -285l70 71c131 -121 307 -77 372 82c-30 -16 -64 -27 -103 -34c-193 -32 -338 77 -342 235c-5 164 109 271 296 266c99 -2 178 -49 226 -128c5 36 9 77 11 123zM376 108
c62 11 110 37 144 97c-7 130 -76 203 -181 209c-110 6 -193 -62 -189 -165c3 -93 93 -165 226 -141z" />
    <glyph glyph-name="uni0123.ss02" horiz-adv-x="751" 
d="M475 792l-89 -223l-97 45l114 212zM581 500h100v-700h-498v100h398v183c-52 -57 -131 -93 -224 -93c-169 0 -308 117 -307 260c0 143 138 260 307 260c93 0 172 -36 224 -92v82zM374 90c113 0 206 72 206 160c0 89 -93 160 -206 160s-207 -72 -206 -160s93 -160 206 -160
z" />
    <glyph glyph-name="gdotaccent" unicode="&#x121;" horiz-adv-x="750" 
d="M451 642l-73 -73l-73 73l73 73zM680 56c1 -166 -147 -266 -338 -266c-97 0 -166 29 -208 57v100c38 -33 108 -65 201 -65c135 0 246 53 245 174v25c-52 -56 -131 -91 -223 -91c-169 0 -307 117 -307 260s138 260 307 260c92 0 171 -35 223 -91v81h100v-444zM374 90
c113 0 206 72 206 160c0 89 -92 160 -206 160c-113 0 -206 -72 -206 -160c1 -88 93 -160 206 -160z" />
    <glyph glyph-name="gdotaccent.ss01" horiz-adv-x="752" 
d="M424 642l-73 -73l-73 73l73 73zM682 499c-3 -136 -22 -244 -61 -324c-9 -358 -359 -493 -568 -285l70 71c131 -121 307 -77 372 82c-30 -16 -64 -27 -103 -34c-193 -32 -338 77 -342 235c-5 164 109 271 296 266c99 -2 178 -49 226 -128c5 36 9 77 11 123zM376 108
c62 11 110 37 144 97c-7 130 -76 203 -181 209c-110 6 -193 -62 -189 -165c3 -93 93 -165 226 -141z" />
    <glyph glyph-name="gdotaccent.ss02" horiz-adv-x="751" 
d="M439 642l-73 -73l-73 73l73 73zM581 500h100v-700h-498v100h398v183c-52 -57 -131 -93 -224 -93c-169 0 -308 117 -307 260c0 143 138 260 307 260c93 0 172 -36 224 -92v82zM374 90c113 0 206 72 206 160c0 89 -93 160 -206 160s-207 -72 -206 -160s93 -160 206 -160z
" />
    <glyph glyph-name="h" unicode="h" horiz-adv-x="653" 
d="M363 510c143 0 239 -116 240 -260v-250h-100v235c0 99 -70 179 -167 179c-96 0 -166 -86 -166 -179v-235h-100v750h100v-336c45 59 114 96 193 96z" />
    <glyph glyph-name="h.ss01" horiz-adv-x="732" 
d="M641 162l64 -78c-68 -63 -131 -98 -205 -98c-140 0 -113 138 -62 212c83 147 76 212 -20 212c-121 0 -226 -116 -287 -386c-2 -12 -4 -24 -7 -36l-98 23v1v0c64 306 89 469 89 740h100c0 -133 -6 -243 -20 -355c65 75 141 113 232 113c142 0 229 -122 98 -349
c-17 -30 -57 -90 -14 -86c32 3 76 34 130 87z" />
    <glyph glyph-name="h.ss02" horiz-adv-x="669" 
d="M170 500h429v-500h-100v400h-329v-400h-100v750h100v-250z" />
    <glyph glyph-name="hbar" unicode="&#x127;" horiz-adv-x="734" 
d="M445 510c143 0 239 -116 239 -260v-250h-100v235c0 93 -72 179 -166 179c-96 0 -166 -86 -166 -179v-235h-100v565h-126v85h126v100h100v-100h124v-85h-124v-150c45 58 114 95 193 95z" />
    <glyph glyph-name="hbar.ss01" horiz-adv-x="792" 
d="M683 158l59 -74c-68 -63 -131 -98 -205 -98c-129 0 -115 135 -62 212c81 143 71 215 -20 215c-121 0 -226 -119 -287 -389c-2 -12 -4 -24 -7 -36l-98 23v1v0c48 229 74 379 84 553h-121v85h125c1 33 1 66 1 102h100c0 -36 0 -69 -1 -102h125v-85h-129
c-3 -58 -8 -113 -15 -168c65 75 141 113 232 113c153 0 226 -124 89 -349c-17 -30 -47 -87 -4 -86c31 3 80 30 134 83z" />
    <glyph glyph-name="hbar.ss02" horiz-adv-x="746" 
d="M248 500h428v-500h-100v400h-328v-400h-100v565h-127v85h127v100h100v-100h123v-85h-123v-65z" />
    <glyph glyph-name="i" unicode="i" horiz-adv-x="240" 
d="M120 715l73 -73l-73 -73l-73 73zM70 500h100v-500h-100v500z" />
    <glyph glyph-name="dotlessi" unicode="&#x131;" horiz-adv-x="240" 
d="M70 500h100v-500h-100v500z" />
    <glyph glyph-name="iacute" unicode="&#xed;" horiz-adv-x="240" 
d="M183 700h126l-137 -130h-92zM70 500h100v-500h-100v500z" />
    <glyph glyph-name="uni01D0" unicode="&#x1d0;" horiz-adv-x="240" 
d="M205 700h103l-129 -130h-118l-129 130h103l85 -91zM70 0v500h100v-500h-100z" />
    <glyph glyph-name="icircumflex" unicode="&#xee;" horiz-adv-x="240" 
d="M183 700l129 -130h-103l-85 91l-85 -91h-103l129 130h118zM70 0v500h100v-500h-100z" />
    <glyph glyph-name="idieresis" unicode="&#xef;" horiz-adv-x="240" 
d="M26 688l64 -64l-64 -64l-64 64zM211 688l64 -64l-64 -64l-64 64zM70 500h100v-500h-100v500z" />
    <glyph glyph-name="i.loclTRK" horiz-adv-x="240" 
d="M120 715l73 -73l-73 -73l-73 73zM70 500h100v-500h-100v500z" />
    <glyph glyph-name="uni1ECB" unicode="&#x1ecb;" horiz-adv-x="240" 
d="M120 715l73 -73l-73 -73l-73 73zM70 500h100v-500h-100v500zM120 -43l73 -73l-73 -73l-73 73z" />
    <glyph glyph-name="igrave" unicode="&#xec;" horiz-adv-x="240" 
d="M50 700l102 -130h-91l-138 130h127zM70 500h100v-500h-100v500z" />
    <glyph glyph-name="uni1EC9" unicode="&#x1ec9;" horiz-adv-x="240" 
d="M145 537l-51 53c44 12 60 55 31 83c-28 29 -71 11 -83 -31l-52 51c37 88 136 97 194 40c59 -60 47 -161 -39 -196zM70 500h100v-500h-100v500z" />
    <glyph glyph-name="imacron" unicode="&#x12b;" horiz-adv-x="240" 
d="M-54 589v85h348v-85h-348zM70 500h100v-500h-100v500z" />
    <glyph glyph-name="iogonek" unicode="&#x12f;" horiz-adv-x="240" 
d="M193 642l-73 -73l-73 73l73 73zM124 -131c16 0 28 3 39 10l10 -76c-17 -7 -39 -13 -69 -13c-65 0 -100 39 -100 89c0 43 23 83 77 121h-11v500h100v-500c-59 -36 -84 -62 -84 -95c0 -20 16 -36 38 -36z" />
    <glyph glyph-name="itilde" unicode="&#x129;" horiz-adv-x="240" 
d="M42 718c103 0 91 -102 145 -102c47 0 51 63 -8 92h94c56 -49 32 -160 -76 -160c-101 0 -88 101 -143 101c-48 0 -51 -58 8 -91h-95c-57 51 -30 160 75 160zM70 500h100v-500h-100v500z" />
    <glyph glyph-name="j" unicode="j" horiz-adv-x="382" 
d="M335 642l-73 -73l-74 73l74 73zM213 -104v604h100v-704h-338v100h238z" />
    <glyph glyph-name="j.ss01" horiz-adv-x="382" 
d="M262 715l73 -73l-73 -73l-74 73zM78 -136c80 0 135 35 135 118v518h100v-544c0 -115 -86 -185 -227 -185c-61 0 -104 15 -141 41v103c21 -20 58 -51 133 -51z" />
    <glyph glyph-name="j.ss03" horiz-adv-x="382" 
d="M262 715l73 -73l-73 -73l-74 73zM78 -136c80 0 135 35 135 118v518h100v-544c0 -115 -86 -185 -227 -185c-61 0 -104 15 -141 41v103c21 -20 58 -51 133 -51z" />
    <glyph glyph-name="k" unicode="k" horiz-adv-x="654" 
d="M628 500c-98 -52 -190 -114 -265 -180l265 -320h-128l-209 250c-75 -81 -121 -167 -121 -250h-100v750h100v-506c76 110 203 206 299 256h159z" />
    <glyph glyph-name="k.ss01" horiz-adv-x="614" 
d="M331 292c107 -47 198 -139 257 -272l-98 -24c-70 150 -191 230 -320 234v-230h-100v750h100v-413c111 18 223 95 250 170l104 -19c-30 -81 -102 -150 -193 -196z" />
    <glyph glyph-name="k.ss02" horiz-adv-x="614" 
d="M464 340h100v-340h-100v240h-294v-240h-100v750h100v-410h194v160h100v-160z" />
    <glyph glyph-name="uni0137" unicode="&#x137;" horiz-adv-x="654" 
d="M628 500c-98 -52 -190 -114 -265 -180l265 -320h-128l-209 250c-75 -81 -121 -167 -121 -250h-100v750h100v-506c76 110 203 206 299 256h159zM190 -278l89 224l96 -45l-114 -212z" />
    <glyph glyph-name="uni0137.ss01" horiz-adv-x="614" 
d="M331 292c107 -47 198 -139 257 -272l-98 -24c-70 150 -191 230 -320 234v-230h-100v750h100v-413c111 18 223 95 250 170l104 -19c-30 -81 -102 -150 -193 -196zM190 -278l89 224l96 -45l-114 -212z" />
    <glyph glyph-name="uni0137.ss02" horiz-adv-x="614" 
d="M464 340h100v-340h-100v240h-294v-240h-100v750h100v-410h194v160h100v-160zM190 -278l89 224l96 -45l-114 -212z" />
    <glyph glyph-name="l" unicode="l" horiz-adv-x="240" 
d="M70 750h100v-750h-100v750z" />
    <glyph glyph-name="l.ss01" horiz-adv-x="478" 
d="M302 86c75 0 117 35 136 55v-110c-37 -26 -80 -41 -141 -41c-141 0 -227 85 -227 211v549h100v-545c0 -83 51 -119 132 -119z" />
    <glyph glyph-name="l.ss03" horiz-adv-x="478" 
d="M302 86c75 0 117 35 136 55v-110c-37 -26 -80 -41 -141 -41c-141 0 -227 85 -227 211v549h100v-545c0 -83 51 -119 132 -119z" />
    <glyph glyph-name="lacute" unicode="&#x13a;" horiz-adv-x="240" 
d="M183 950h126l-137 -130h-92zM70 750h100v-750h-100v750z" />
    <glyph glyph-name="lacute.ss01" horiz-adv-x="478" 
d="M183 950h126l-137 -130h-92zM302 86c75 0 117 35 136 55v-110c-37 -26 -80 -41 -141 -41c-141 0 -227 85 -227 211v549h100v-545c0 -83 51 -119 132 -119z" />
    <glyph glyph-name="lacute.ss03" horiz-adv-x="478" 
d="M183 950h126l-137 -130h-92zM302 86c75 0 117 35 136 55v-110c-37 -26 -80 -41 -141 -41c-141 0 -227 85 -227 211v549h100v-545c0 -83 51 -119 132 -119z" />
    <glyph glyph-name="lcaron" unicode="&#x13e;" horiz-adv-x="349" 
d="M70 750h100v-750h-100v750zM220 510l-14 240h107l-14 -240h-79z" />
    <glyph glyph-name="lcaron.ss01" horiz-adv-x="465" 
d="M302 86c75 0 117 35 136 55v-110c-37 -26 -80 -41 -141 -41c-141 0 -227 85 -227 211v549h100v-545c0 -83 51 -119 132 -119zM220 510l-14 240h107l-14 -240h-79z" />
    <glyph glyph-name="lcaron.ss03" horiz-adv-x="465" 
d="M302 86c75 0 117 35 136 55v-110c-37 -26 -80 -41 -141 -41c-141 0 -227 85 -227 211v549h100v-545c0 -83 51 -119 132 -119zM220 510l-14 240h107l-14 -240h-79z" />
    <glyph glyph-name="uni013C" unicode="&#x13c;" horiz-adv-x="240" 
d="M70 750h100v-750h-100v750zM-18 -278l89 224l96 -45l-114 -212z" />
    <glyph glyph-name="uni013C.ss01" horiz-adv-x="478" 
d="M302 86c75 0 117 35 136 55v-110c-37 -26 -80 -41 -141 -41c-141 0 -227 85 -227 211v549h100v-545c0 -83 51 -119 132 -119zM119 -278l89 224l96 -45l-114 -212z" />
    <glyph glyph-name="uni013C.ss03" horiz-adv-x="478" 
d="M302 86c75 0 117 35 136 55v-110c-37 -26 -80 -41 -141 -41c-141 0 -227 85 -227 211v549h100v-545c0 -83 51 -119 132 -119zM119 -278l89 224l96 -45l-114 -212z" />
    <glyph glyph-name="lslash" unicode="&#x142;" horiz-adv-x="341" 
d="M301 541v-115l-81 -65v-361h-100v280l-80 -65v115l80 65v355h100v-274z" />
    <glyph glyph-name="lslash.ss01" horiz-adv-x="539" 
d="M362 86c75 0 118 35 137 55v-110c-37 -26 -80 -41 -141 -41c-142 0 -227 85 -227 211v79l-81 -65v115l81 65v355h100v-274l80 65v-115l-80 -65v-156c0 -83 51 -119 131 -119z" />
    <glyph glyph-name="lslash.ss03" horiz-adv-x="539" 
d="M362 86c75 0 118 35 137 55v-110c-37 -26 -80 -41 -141 -41c-142 0 -227 85 -227 211v79l-81 -65v115l81 65v355h100v-274l80 65v-115l-80 -65v-156c0 -83 51 -119 131 -119z" />
    <glyph glyph-name="m" unicode="m" horiz-adv-x="1085" 
d="M795 510c143 0 240 -116 240 -260v-250h-100v235c0 93 -72 179 -166 179c-96 0 -166 -86 -166 -179v-235h-100v235c0 99 -70 179 -167 179c-96 0 -166 -86 -166 -179v-235h-100v500h100v-86c45 59 114 96 193 96c99 0 175 -56 213 -138c41 82 123 138 219 138z" />
    <glyph glyph-name="m.ss01" horiz-adv-x="1025" 
d="M690 510c314 0 363 -360 173 -510h-110c204 182 119 416 -78 416c-27 0 -52 -3 -75 -9c151 -151 124 -416 -88 -417s-241 266 -89 417c-22 6 -47 9 -74 9c-196 0 -280 -234 -76 -416h-111c-191 150 -141 510 172 510c69 0 128 -15 178 -39c49 24 109 39 178 39zM512 84
c113 0 124 189 0 282c-123 -93 -113 -282 0 -282z" />
    <glyph glyph-name="m.ss02" horiz-adv-x="993" 
d="M70 500h853v-500h-100v400h-277v-400h-100v400h-276v-400h-100v500z" />
    <glyph glyph-name="n" unicode="n" horiz-adv-x="653" 
d="M363 510c143 0 239 -116 240 -260v-250h-100v235c0 99 -70 179 -167 179c-96 0 -166 -86 -166 -179v-235h-100v500h100v-86c45 59 114 96 193 96z" />
    <glyph glyph-name="n.ss01" horiz-adv-x="776" 
d="M690 158l59 -74c-68 -63 -131 -98 -205 -98c-129 0 -115 135 -62 212c81 143 71 215 -20 215c-121 0 -226 -118 -286 -388c-3 -12 -5 -24 -8 -37l-98 23v1v0c42 200 67 339 79 488h100c-3 -35 -6 -69 -10 -104c64 76 141 114 232 114c153 0 226 -124 89 -349
c-17 -30 -47 -87 -4 -86c32 3 80 30 134 83z" />
    <glyph glyph-name="n.ss02" horiz-adv-x="669" 
d="M599 500v-500h-100v400h-329v-400h-100v500h529z" />
    <glyph glyph-name="nacute" unicode="&#x144;" horiz-adv-x="653" 
d="M530 700l-137 -130h-92l103 130h126zM363 510c143 0 239 -116 240 -260v-250h-100v235c0 99 -70 179 -167 179c-96 0 -166 -86 -166 -179v-235h-100v500h100v-86c45 59 114 96 193 96z" />
    <glyph glyph-name="nacute.ss01" horiz-adv-x="776" 
d="M623 700l-137 -130h-92l103 130h126zM690 158l59 -74c-68 -63 -131 -98 -205 -98c-129 0 -115 135 -62 212c81 143 71 215 -20 215c-121 0 -226 -118 -286 -388c-3 -12 -5 -24 -8 -37l-98 23v1v0c42 200 67 339 79 488h100c-3 -35 -6 -69 -10 -104c64 76 141 114 232 114
c153 0 226 -124 89 -349c-17 -30 -47 -87 -4 -86c32 3 80 30 134 83z" />
    <glyph glyph-name="nacute.ss02" horiz-adv-x="669" 
d="M522 700l-137 -130h-92l103 130h126zM599 500v-500h-100v400h-329v-400h-100v500h529z" />
    <glyph glyph-name="ncaron" unicode="&#x148;" horiz-adv-x="653" 
d="M282 570l-129 130h103l85 -91l85 91h103l-129 -130h-118zM363 510c143 0 239 -116 240 -260v-250h-100v235c0 99 -70 179 -167 179c-96 0 -166 -86 -166 -179v-235h-100v500h100v-86c45 59 114 96 193 96z" />
    <glyph glyph-name="ncaron.ss01" horiz-adv-x="776" 
d="M375 570l-129 130h103l85 -91l85 91h103l-129 -130h-118zM690 158l59 -74c-68 -63 -131 -98 -205 -98c-129 0 -115 135 -62 212c81 143 71 215 -20 215c-121 0 -226 -118 -286 -388c-3 -12 -5 -24 -8 -37l-98 23v1v0c42 200 67 339 79 488h100c-3 -35 -6 -69 -10 -104
c64 76 141 114 232 114c153 0 226 -124 89 -349c-17 -30 -47 -87 -4 -86c32 3 80 30 134 83z" />
    <glyph glyph-name="ncaron.ss02" horiz-adv-x="669" 
d="M274 570l-129 130h103l85 -91l85 91h103l-129 -130h-118zM599 500v-500h-100v400h-329v-400h-100v500h529z" />
    <glyph glyph-name="uni0146" unicode="&#x146;" horiz-adv-x="653" 
d="M363 510c143 0 239 -116 240 -260v-250h-100v235c0 99 -70 179 -167 179c-96 0 -166 -86 -166 -179v-235h-100v500h100v-86c45 59 114 96 193 96zM202 -278l89 224l96 -45l-114 -212z" />
    <glyph glyph-name="uni0146.ss01" horiz-adv-x="776" 
d="M690 158l59 -74c-68 -63 -131 -98 -205 -98c-129 0 -115 135 -62 212c81 143 71 215 -20 215c-121 0 -226 -118 -286 -388c-3 -12 -5 -24 -8 -37l-98 23v1v0c42 200 67 339 79 488h100c-3 -35 -6 -69 -10 -104c64 76 141 114 232 114c153 0 226 -124 89 -349
c-17 -30 -47 -87 -4 -86c32 3 80 30 134 83zM197 -278l89 224l96 -45l-114 -212z" />
    <glyph glyph-name="uni0146.ss02" horiz-adv-x="669" 
d="M599 500v-500h-100v400h-329v-400h-100v500h529zM195 -278l89 224l96 -45l-114 -212z" />
    <glyph glyph-name="eng" unicode="&#x14b;" horiz-adv-x="653" 
d="M363 510c143 0 239 -116 240 -260v-266c0 -118 -75 -194 -208 -194c-57 0 -96 15 -130 41v98c13 -19 54 -52 119 -52c76 0 119 39 119 109v249c0 99 -70 179 -167 179c-96 0 -166 -86 -166 -179v-235h-100v500h100v-86c45 59 114 96 193 96z" />
    <glyph glyph-name="eng.ss01" horiz-adv-x="799" 
d="M690 158l59 -74v-52c0 -119 -74 -195 -207 -195c-57 0 -96 15 -130 41v95c16 -19 54 -49 119 -49c67 0 108 31 116 87c-33 -16 -66 -25 -103 -25c-129 0 -115 135 -62 212c81 143 71 215 -20 215c-121 0 -226 -118 -286 -388c-3 -12 -5 -24 -8 -37l-98 23v1v0
c42 200 67 339 79 488h100c-3 -35 -6 -69 -10 -104c64 76 141 114 232 114c153 0 226 -124 89 -349c-17 -30 -47 -87 -4 -86c32 3 80 30 134 83z" />
    <glyph glyph-name="eng.ss02" horiz-adv-x="649" 
d="M599 500v-516c0 -118 -75 -194 -208 -194c-56 0 -96 15 -130 41v98c14 -19 54 -52 119 -52c77 0 119 39 119 109v414h-329v-400h-100v500h529z" />
    <glyph glyph-name="ntilde" unicode="&#xf1;" horiz-adv-x="653" 
d="M188 558c-57 51 -30 160 75 160c103 0 91 -102 145 -102c47 0 51 63 -8 92h94c56 -49 32 -160 -76 -160c-101 0 -88 101 -143 101c-48 0 -51 -58 8 -91h-95zM363 510c143 0 239 -116 240 -260v-250h-100v235c0 99 -70 179 -167 179c-96 0 -166 -86 -166 -179v-235h-100
v500h100v-86c45 59 114 96 193 96z" />
    <glyph glyph-name="ntilde.ss01" horiz-adv-x="776" 
d="M281 558c-57 51 -30 160 75 160c103 0 91 -102 145 -102c47 0 51 63 -8 92h94c56 -49 32 -160 -76 -160c-101 0 -88 101 -143 101c-48 0 -51 -58 8 -91h-95zM690 158l59 -74c-68 -63 -131 -98 -205 -98c-129 0 -115 135 -62 212c81 143 71 215 -20 215
c-121 0 -226 -118 -286 -388c-3 -12 -5 -24 -8 -37l-98 23v1v0c42 200 67 339 79 488h100c-3 -35 -6 -69 -10 -104c64 76 141 114 232 114c153 0 226 -124 89 -349c-17 -30 -47 -87 -4 -86c32 3 80 30 134 83z" />
    <glyph glyph-name="ntilde.ss02" horiz-adv-x="669" 
d="M180 558c-57 51 -30 160 75 160c103 0 91 -102 145 -102c47 0 51 63 -8 92h94c56 -49 32 -160 -76 -160c-101 0 -88 101 -143 101c-48 0 -51 -58 8 -91h-95zM599 500v-500h-100v400h-329v-400h-100v500h529z" />
    <glyph glyph-name="o" unicode="o" horiz-adv-x="720" 
d="M360 -10c-171 0 -310 117 -310 260s139 260 310 260c172 0 310 -116 310 -260c0 -143 -139 -260 -310 -260zM360 90c116 0 210 72 210 160s-94 160 -210 160s-210 -72 -210 -160s94 -160 210 -160z" />
    <glyph glyph-name="oacute" unicode="&#xf3;" horiz-adv-x="720" 
d="M423 700h126l-137 -130h-92zM360 -10c-171 0 -310 117 -310 260s139 260 310 260c172 0 310 -116 310 -260c0 -143 -139 -260 -310 -260zM360 90c116 0 210 72 210 160s-94 160 -210 160s-210 -72 -210 -160s94 -160 210 -160z" />
    <glyph glyph-name="uni01D2" unicode="&#x1d2;" horiz-adv-x="720" 
d="M301 570l-129 130h103l85 -91l85 91h103l-129 -130h-118zM360 510c172 0 310 -116 310 -260c0 -143 -139 -260 -310 -260s-310 117 -310 260s139 260 310 260zM360 90c116 0 210 72 210 160s-94 160 -210 160s-210 -72 -210 -160s94 -160 210 -160z" />
    <glyph glyph-name="ocircumflex" unicode="&#xf4;" horiz-adv-x="720" 
d="M360 661l-85 -91h-103l129 130h118l129 -130h-103zM360 510c172 0 310 -116 310 -260c0 -143 -139 -260 -310 -260s-310 117 -310 260s139 260 310 260zM360 90c116 0 210 72 210 160s-94 160 -210 160s-210 -72 -210 -160s94 -160 210 -160z" />
    <glyph glyph-name="uni1ED1" unicode="&#x1ed1;" horiz-adv-x="720" 
d="M550 874l-138 -130h-92l103 130h127zM360 661l-85 -91h-103l129 130h118l129 -130h-103zM360 510c172 0 310 -116 310 -260c0 -143 -139 -260 -310 -260s-310 117 -310 260s139 260 310 260zM360 90c116 0 210 72 210 160s-94 160 -210 160s-210 -72 -210 -160
s94 -160 210 -160z" />
    <glyph glyph-name="uni1ED9" unicode="&#x1ed9;" horiz-adv-x="720" 
d="M360 661l-85 -91h-103l129 130h118l129 -130h-103zM360 510c172 0 310 -116 310 -260c0 -143 -139 -260 -310 -260s-310 117 -310 260s139 260 310 260zM360 90c116 0 210 72 210 160s-94 160 -210 160s-210 -72 -210 -160s94 -160 210 -160zM287 -126l73 73l73 -73
l-73 -73z" />
    <glyph glyph-name="uni1ED3" unicode="&#x1ed3;" horiz-adv-x="720" 
d="M392 744h-91l-138 130h127zM301 700h118l129 -130h-103l-85 91l-85 -91h-103zM360 510c172 0 310 -116 310 -260c0 -143 -139 -260 -310 -260s-310 117 -310 260s139 260 310 260zM360 90c116 0 210 72 210 160s-94 160 -210 160s-210 -72 -210 -160s94 -160 210 -160z
" />
    <glyph glyph-name="uni1ED5" unicode="&#x1ed5;" horiz-adv-x="720" 
d="M489 795c-29 28 -72 10 -84 -31l-52 51c37 88 137 97 194 39c59 -59 47 -160 -39 -195l-51 53c44 12 60 55 32 83zM364 661l-85 -91h-103l129 130h118l129 -130h-103zM360 510c172 0 310 -116 310 -260c0 -143 -139 -260 -310 -260s-310 117 -310 260s139 260 310 260z
M360 90c116 0 210 72 210 160s-94 160 -210 160s-210 -72 -210 -160s94 -160 210 -160z" />
    <glyph glyph-name="uni1ED7" unicode="&#x1ed7;" horiz-adv-x="720" 
d="M207 731c-57 52 -30 160 75 160c103 0 91 -102 145 -102c47 0 51 64 -8 92h94c56 -49 32 -160 -76 -160c-101 0 -88 102 -143 102c-48 0 -51 -58 8 -92h-95zM360 661l-85 -91h-103l129 130h118l129 -130h-103zM360 510c172 0 310 -116 310 -260
c0 -143 -139 -260 -310 -260s-310 117 -310 260s139 260 310 260zM360 90c116 0 210 72 210 160s-94 160 -210 160s-210 -72 -210 -160s94 -160 210 -160z" />
    <glyph glyph-name="odieresis" unicode="&#xf6;" horiz-adv-x="720" 
d="M266 688l64 -64l-64 -64l-64 64zM451 688l64 -64l-64 -64l-64 64zM360 -10c-171 0 -310 117 -310 260s139 260 310 260c172 0 310 -116 310 -260c0 -143 -139 -260 -310 -260zM360 90c116 0 210 72 210 160s-94 160 -210 160s-210 -72 -210 -160s94 -160 210 -160z" />
    <glyph glyph-name="uni1ECD" unicode="&#x1ecd;" horiz-adv-x="720" 
d="M360 -10c-171 0 -310 117 -310 260s139 260 310 260c172 0 310 -116 310 -260c0 -143 -139 -260 -310 -260zM360 90c116 0 210 72 210 160s-94 160 -210 160s-210 -72 -210 -160s94 -160 210 -160zM360 -53l73 -73l-73 -73l-73 73z" />
    <glyph glyph-name="ograve" unicode="&#xf2;" horiz-adv-x="720" 
d="M290 700l102 -130h-91l-138 130h127zM360 -10c-171 0 -310 117 -310 260s139 260 310 260c172 0 310 -116 310 -260c0 -143 -139 -260 -310 -260zM360 90c116 0 210 72 210 160s-94 160 -210 160s-210 -72 -210 -160s94 -160 210 -160z" />
    <glyph glyph-name="uni1ECF" unicode="&#x1ecf;" horiz-adv-x="720" 
d="M385 537l-51 53c44 12 60 55 31 83c-28 29 -71 11 -83 -31l-52 51c37 88 136 97 194 40c59 -60 47 -161 -39 -196zM360 -10c-171 0 -310 117 -310 260s139 260 310 260c172 0 310 -116 310 -260c0 -143 -139 -260 -310 -260zM360 90c116 0 210 72 210 160
s-94 160 -210 160s-210 -72 -210 -160s94 -160 210 -160z" />
    <glyph glyph-name="ohorn" unicode="&#x1a1;" horiz-adv-x="747" 
d="M595 420c47 -46 75 -105 75 -170c0 -143 -139 -260 -310 -260s-310 117 -310 260s139 260 310 260h153c31 0 47 22 47 46c0 30 -17 47 -27 54h103c16 -18 28 -42 28 -76c0 -56 -25 -96 -69 -114zM360 90c116 0 210 72 210 160s-94 160 -210 160s-210 -72 -210 -160
s94 -160 210 -160z" />
    <glyph glyph-name="uni1EDB" unicode="&#x1edb;" horiz-adv-x="747" 
d="M549 700l-137 -130h-92l103 130h126zM595 420c47 -46 75 -105 75 -170c0 -143 -139 -260 -310 -260s-310 117 -310 260s139 260 310 260h153c31 0 47 22 47 46c0 30 -17 47 -27 54h103c16 -18 28 -42 28 -76c0 -56 -25 -96 -69 -114zM360 90c116 0 210 72 210 160
s-94 160 -210 160s-210 -72 -210 -160s94 -160 210 -160z" />
    <glyph glyph-name="uni1EE3" unicode="&#x1ee3;" horiz-adv-x="747" 
d="M595 420c47 -46 75 -105 75 -170c0 -143 -139 -260 -310 -260s-310 117 -310 260s139 260 310 260h153c31 0 47 22 47 46c0 30 -17 47 -27 54h103c16 -18 28 -42 28 -76c0 -56 -25 -96 -69 -114zM360 90c116 0 210 72 210 160s-94 160 -210 160s-210 -72 -210 -160
s94 -160 210 -160zM287 -126l73 73l73 -73l-73 -73z" />
    <glyph glyph-name="uni1EDD" unicode="&#x1edd;" horiz-adv-x="747" 
d="M392 570h-91l-138 130h127zM595 420c47 -46 75 -105 75 -170c0 -143 -139 -260 -310 -260s-310 117 -310 260s139 260 310 260h153c31 0 47 22 47 46c0 30 -17 47 -27 54h103c16 -18 28 -42 28 -76c0 -56 -25 -96 -69 -114zM360 90c116 0 210 72 210 160
s-94 160 -210 160s-210 -72 -210 -160s94 -160 210 -160z" />
    <glyph glyph-name="uni1EDF" unicode="&#x1edf;" horiz-adv-x="747" 
d="M365 673c-28 29 -71 11 -83 -31l-52 51c37 88 136 97 194 40c59 -60 47 -161 -39 -196l-51 53c44 12 60 55 31 83zM595 420c47 -46 75 -105 75 -170c0 -143 -139 -260 -310 -260s-310 117 -310 260s139 260 310 260h153c31 0 47 22 47 46c0 30 -17 47 -27 54h103
c16 -18 28 -42 28 -76c0 -56 -25 -96 -69 -114zM360 90c116 0 210 72 210 160s-94 160 -210 160s-210 -72 -210 -160s94 -160 210 -160z" />
    <glyph glyph-name="uni1EE1" unicode="&#x1ee1;" horiz-adv-x="720" 
d="M207 568c-57 51 -30 160 75 160c103 0 91 -102 144 -102c48 0 52 63 -7 92h93c57 -49 32 -160 -76 -160c-100 0 -87 101 -142 101c-48 0 -51 -58 8 -91h-95zM597 418c46 -46 73 -104 73 -168c0 -143 -139 -260 -310 -260s-310 117 -310 260s139 260 310 260h183
c26 0 42 23 42 47c0 28 -15 45 -25 53h88c16 -16 26 -42 26 -76c0 -58 -30 -100 -77 -116zM360 90c116 0 210 72 210 160s-94 160 -210 160s-210 -72 -210 -160s94 -160 210 -160z" />
    <glyph glyph-name="ohungarumlaut" unicode="&#x151;" horiz-adv-x="720" 
d="M342 700h126l-137 -130h-92zM514 700h127l-138 -130h-91zM360 -10c-171 0 -310 117 -310 260s139 260 310 260c172 0 310 -116 310 -260c0 -143 -139 -260 -310 -260zM360 90c116 0 210 72 210 160s-94 160 -210 160s-210 -72 -210 -160s94 -160 210 -160z" />
    <glyph glyph-name="omacron" unicode="&#x14d;" horiz-adv-x="720" 
d="M186 589v85h348v-85h-348zM360 -10c-171 0 -310 117 -310 260s139 260 310 260c172 0 310 -116 310 -260c0 -143 -139 -260 -310 -260zM360 90c116 0 210 72 210 160s-94 160 -210 160s-210 -72 -210 -160s94 -160 210 -160z" />
    <glyph glyph-name="oslash" unicode="&#xf8;" horiz-adv-x="720" 
d="M559 450c68 -48 111 -120 111 -200c0 -143 -139 -260 -310 -260c-55 0 -106 12 -150 33l-19 -23h-70l41 50c-68 48 -112 120 -112 200c0 143 139 260 310 260c55 0 107 -12 151 -33l19 23h70zM154 250c0 -48 28 -92 72 -122l219 268c-26 9 -55 14 -85 14
c-114 0 -206 -72 -206 -160zM360 90c114 0 206 72 206 160c0 48 -28 92 -71 121l-219 -267c26 -9 54 -14 84 -14z" />
    <glyph glyph-name="otilde" unicode="&#xf5;" horiz-adv-x="720" 
d="M282 718c103 0 91 -102 145 -102c47 0 51 63 -8 92h94c56 -49 32 -160 -76 -160c-101 0 -88 101 -143 101c-48 0 -51 -58 8 -91h-95c-57 51 -30 160 75 160zM360 -10c-171 0 -310 117 -310 260s139 260 310 260c172 0 310 -116 310 -260c0 -143 -139 -260 -310 -260z
M360 90c116 0 210 72 210 160s-94 160 -210 160s-210 -72 -210 -160s94 -160 210 -160z" />
    <glyph glyph-name="oe" unicode="&#x153;" horiz-adv-x="1204" 
d="M1154 333c0 -97 -108 -165 -261 -165c-83 0 -156 28 -206 60c13 -81 96 -154 228 -154c92 0 148 24 187 57v-100c-49 -26 -104 -41 -187 -41c-122 0 -229 52 -286 131c-54 -78 -154 -131 -269 -131c-171 0 -310 117 -310 260s139 260 310 260c116 0 216 -52 269 -130
c57 78 164 130 286 130c144 0 239 -80 239 -177zM911 427c-102 0 -182 -52 -213 -118c42 -35 110 -67 198 -67c98 0 158 41 158 88c0 49 -57 97 -143 97zM360 90c114 0 206 72 206 160s-92 160 -206 160s-206 -72 -206 -160s92 -160 206 -160z" />
    <glyph glyph-name="p" unicode="p" horiz-adv-x="750" 
d="M700 250c1 -143 -138 -260 -307 -260c-92 0 -171 36 -223 92v-282h-100v700h100v-81c52 56 130 91 223 91c169 0 307 -117 307 -260zM582 250c1 88 -93 160 -206 160s-206 -71 -206 -160c0 -88 93 -160 206 -160s205 72 206 160z" />
    <glyph glyph-name="thorn" unicode="&#xfe;" horiz-adv-x="750" 
d="M700 250c1 -143 -138 -260 -307 -260c-92 0 -171 36 -223 92v-282h-100v950h100v-331c52 56 130 91 223 91c169 0 307 -117 307 -260zM582 250c1 88 -93 160 -206 160s-206 -71 -206 -160c0 -88 93 -160 206 -160s205 72 206 160z" />
    <glyph glyph-name="q" unicode="q" horiz-adv-x="750" 
d="M580 500h100v-700h-100v281c-52 -56 -131 -91 -223 -91c-169 0 -307 117 -307 260s138 260 307 260c92 0 171 -35 223 -91v81zM374 90c113 0 206 72 206 160c0 89 -92 160 -206 160c-113 0 -206 -72 -206 -160c1 -88 93 -160 206 -160z" />
    <glyph glyph-name="r" unicode="r" horiz-adv-x="456" 
d="M418 469l2 -118c-67 92 -250 89 -250 -82v-269h-100v500h100v-68c63 91 183 101 248 37z" />
    <glyph glyph-name="r.ss02" horiz-adv-x="394" 
d="M358 500v-100h-188v-400h-100v500h288z" />
    <glyph glyph-name="racute" unicode="&#x155;" horiz-adv-x="456" 
d="M447 700l-137 -130h-92l103 130h126zM170 432c63 91 183 101 248 37l2 -118c-67 92 -250 89 -250 -82v-269h-100v500h100v-68z" />
    <glyph glyph-name="racute.ss02" horiz-adv-x="394" 
d="M403 700l-137 -130h-92l103 130h126zM70 500h288v-100h-188v-400h-100v500z" />
    <glyph glyph-name="rcaron" unicode="&#x159;" horiz-adv-x="456" 
d="M199 570l-129 130h103l85 -91l85 91h103l-129 -130h-118zM170 432c63 91 183 101 248 37l2 -118c-67 92 -250 89 -250 -82v-269h-100v500h100v-68z" />
    <glyph glyph-name="rcaron.ss02" horiz-adv-x="394" 
d="M155 570l-129 130h103l85 -91l85 91h103l-129 -130h-118zM70 500h288v-100h-188v-400h-100v500z" />
    <glyph glyph-name="uni0157" unicode="&#x157;" horiz-adv-x="456" 
d="M418 469l2 -118c-67 92 -250 89 -250 -82v-269h-100v500h100v-68c63 91 183 101 248 37zM-22 -278l89 224l96 -45l-114 -212z" />
    <glyph glyph-name="uni0157.ss02" horiz-adv-x="394" 
d="M358 500v-100h-188v-400h-100v500h288zM-18 -278l89 224l96 -45l-114 -212z" />
    <glyph glyph-name="s" unicode="s" horiz-adv-x="571" 
d="M281 -10c-121 0 -204 60 -231 82v122c51 -54 153 -104 237 -104c71 0 134 13 134 56c0 33 -86 54 -170 73c-118 27 -206 60 -206 154c0 76 72 137 234 137c112 0 192 -44 224 -70v-112c-31 29 -117 82 -219 82c-79 0 -139 -13 -139 -44c0 -30 112 -46 198 -72
c98 -28 178 -66 178 -153c0 -89 -80 -151 -240 -151z" />
    <glyph glyph-name="s.ss02" horiz-adv-x="615" 
d="M545 400h-375v-100h375v-300h-475v100h375v100h-375v300h475v-100z" />
    <glyph glyph-name="sacute" unicode="&#x15b;" horiz-adv-x="571" 
d="M344 700h126l-137 -130h-92zM281 -10c-121 0 -204 60 -231 82v122c51 -54 153 -104 237 -104c71 0 134 13 134 56c0 33 -86 54 -170 73c-118 27 -206 60 -206 154c0 76 72 137 234 137c112 0 192 -44 224 -70v-112c-31 29 -117 82 -219 82c-79 0 -139 -13 -139 -44
c0 -30 112 -46 198 -72c98 -28 178 -66 178 -153c0 -89 -80 -151 -240 -151z" />
    <glyph glyph-name="sacute.ss02" horiz-adv-x="615" 
d="M504 700l-137 -130h-92l103 130h126zM545 400h-375v-100h375v-300h-475v100h375v100h-375v300h475v-100z" />
    <glyph glyph-name="scaron" unicode="&#x161;" horiz-adv-x="571" 
d="M222 570l-129 130h103l85 -91l85 91h103l-129 -130h-118zM343 294c98 -28 178 -66 178 -153c0 -89 -80 -151 -240 -151c-121 0 -204 60 -231 82v122c51 -54 153 -104 237 -104c71 0 134 13 134 56c0 33 -86 54 -170 73c-118 27 -206 60 -206 154c0 76 72 137 234 137
c112 0 192 -44 224 -70v-112c-31 29 -117 82 -219 82c-79 0 -139 -13 -139 -44c0 -30 112 -46 198 -72z" />
    <glyph glyph-name="scaron.ss02" horiz-adv-x="615" 
d="M256 570l-129 130h103l85 -91l85 91h103l-129 -130h-118zM545 400h-375v-100h375v-300h-475v100h375v100h-375v300h475v-100z" />
    <glyph glyph-name="scedilla" unicode="&#x15f;" horiz-adv-x="571" 
d="M521 141c0 -81 -67 -140 -201 -150l-6 -42c43 -8 71 -41 71 -79c0 -46 -35 -83 -95 -83c-18 0 -36 5 -51 13v52c6 -8 18 -14 31 -14c20 0 35 13 35 30s-15 30 -35 30c-13 0 -25 -6 -31 -14v108c-98 12 -165 61 -189 80v122c51 -54 153 -104 237 -104c71 0 134 13 134 56
c0 33 -86 54 -170 73c-118 27 -206 60 -206 154c0 76 72 137 234 137c112 0 192 -44 224 -70v-112c-31 29 -117 82 -219 82c-79 0 -139 -13 -139 -44c0 -30 112 -46 198 -72c98 -28 178 -66 178 -153z" />
    <glyph glyph-name="scedilla.ss02" horiz-adv-x="615" 
d="M545 400h-375v-100h375v-300h-180l-10 -54c39 -11 64 -41 64 -76c0 -46 -37 -83 -100 -83c-19 0 -39 5 -54 13v55c8 -9 21 -15 37 -15c23 0 42 14 42 32c0 19 -19 33 -42 33c-16 0 -29 -6 -37 -15v110h-195v100h375v100h-375v300h475v-100z" />
    <glyph glyph-name="uni0219" unicode="&#x219;" horiz-adv-x="571" 
d="M281 -10c-121 0 -204 60 -231 82v122c51 -54 153 -104 237 -104c71 0 134 13 134 56c0 33 -86 54 -170 73c-118 27 -206 60 -206 154c0 76 72 137 234 137c112 0 192 -44 224 -70v-112c-31 29 -117 82 -219 82c-79 0 -139 -13 -139 -44c0 -30 112 -46 198 -72
c98 -28 178 -66 178 -153c0 -89 -80 -151 -240 -151zM143 -278l89 224l96 -45l-114 -212z" />
    <glyph glyph-name="uni0219.ss02" horiz-adv-x="615" 
d="M545 400h-375v-100h375v-300h-475v100h375v100h-375v300h475v-100zM177 -278l89 224l96 -45l-114 -212z" />
    <glyph glyph-name="germandbls" unicode="&#xdf;" horiz-adv-x="643" 
d="M423 470c98 -30 170 -121 170 -230c0 -133 -106 -240 -240 -240h-95v100h95c79 0 140 62 140 140s-62 140 -140 140h-101v100h9c50 0 90 40 90 90s-41 90 -90 90c-50 0 -91 -40 -91 -90v-570h-100v570c0 105 86 190 191 190s190 -85 190 -190c0 -37 -10 -71 -28 -100z
" />
    <glyph glyph-name="t" unicode="t" horiz-adv-x="443" 
d="M416 500v-100h-145v-400h-100v400h-145v100h145v250h100v-250h145z" />
    <glyph glyph-name="t.ss01" horiz-adv-x="573" 
d="M407 86c75 0 117 35 136 55v-110c-37 -26 -80 -41 -141 -41c-141 0 -227 85 -227 211v199h-145v100h145v250h100v-250h145v-100h-145v-195c0 -83 51 -119 132 -119z" />
    <glyph glyph-name="t.ss03" horiz-adv-x="573" 
d="M407 86c75 0 117 35 136 55v-110c-37 -26 -80 -41 -141 -41c-141 0 -227 85 -227 211v199h-145v100h145v250h100v-250h145v-100h-145v-195c0 -83 51 -119 132 -119z" />
    <glyph glyph-name="t.ss05" horiz-adv-x="446" 
d="M416 270v-100h-145v-170h-100v170h-145v100h145v480h100v-480h145z" />
    <glyph glyph-name="tbar" unicode="&#x167;" horiz-adv-x="443" 
d="M416 400h-145v-42h80v-85h-80v-273h-100v273h-80v85h80v42h-145v100h145v250h100v-250h145v-100z" />
    <glyph glyph-name="tbar.ss01" horiz-adv-x="565" 
d="M403 86c75 0 118 35 136 55v-110c-37 -26 -79 -41 -141 -41c-141 0 -227 85 -227 211v109h-80v48h80v42h-145v100h145v250h100v-250h145v-100h-145v-42h81v-48h-81v-105c0 -83 52 -119 132 -119z" />
    <glyph glyph-name="tbar.ss03" horiz-adv-x="565" 
d="M403 86c75 0 118 35 136 55v-110c-37 -26 -79 -41 -141 -41c-141 0 -227 85 -227 211v109h-80v48h80v42h-145v100h145v250h100v-250h145v-100h-145v-42h81v-48h-81v-105c0 -83 52 -119 132 -119z" />
    <glyph glyph-name="tbar.ss05" horiz-adv-x="443" 
d="M416 270v-100h-145v-170h-100v170h-145v100h145v40h-80v85h80v355h100v-355h80v-85h-80v-40h145z" />
    <glyph glyph-name="tcaron" unicode="&#x165;" horiz-adv-x="469" 
d="M275 750v-250h145v-100h-145v-400h-100v400h-145v100h145v250h100zM335 750h107l-14 -210h-79z" />
    <glyph glyph-name="tcaron.ss01" horiz-adv-x="573" 
d="M407 86c75 0 117 35 136 55v-110c-37 -26 -80 -41 -141 -41c-141 0 -227 85 -227 211v199h-145v100h145v250h100v-250h145v-100h-145v-195c0 -83 51 -119 132 -119zM428 540h-79l-14 210h107z" />
    <glyph glyph-name="tcaron.ss03" horiz-adv-x="573" 
d="M407 86c75 0 117 35 136 55v-110c-37 -26 -80 -41 -141 -41c-141 0 -227 85 -227 211v199h-145v100h145v250h100v-250h145v-100h-145v-195c0 -83 51 -119 132 -119zM428 540h-79l-14 210h107z" />
    <glyph glyph-name="tcaron.ss05" horiz-adv-x="469" 
d="M275 750v-480h145v-100h-145v-170h-100v170h-145v100h145v480h100zM335 750h107l-14 -210h-79z" />
    <glyph glyph-name="uni0163" unicode="&#x163;" horiz-adv-x="443" 
d="M271 0l-10 -54c39 -11 64 -41 64 -76c0 -46 -37 -83 -100 -83c-19 0 -39 5 -54 13v55c8 -9 21 -15 37 -15c23 0 42 14 42 32c0 19 -19 33 -42 33c-16 0 -29 -6 -37 -15v510h-145v100h145v250h100v-250h145v-100h-145v-400z" />
    <glyph glyph-name="uni0163.ss01" horiz-adv-x="573" 
d="M543 31c-35 -25 -76 -39 -132 -41l-8 -44c39 -11 64 -41 64 -76c0 -46 -37 -83 -100 -83c-19 0 -39 5 -54 13v55c8 -9 21 -15 37 -15c23 0 42 14 42 32c0 19 -19 33 -42 33c-16 0 -29 -6 -37 -15v113c-87 29 -138 101 -138 198v199h-145v100h145v250h100v-250h145v-100
h-145v-195c0 -83 51 -119 132 -119c75 0 117 35 136 55v-110z" />
    <glyph glyph-name="uni0163.ss03" horiz-adv-x="573" 
d="M543 31c-35 -25 -76 -39 -132 -41l-8 -44c39 -11 64 -41 64 -76c0 -46 -37 -83 -100 -83c-19 0 -39 5 -54 13v55c8 -9 21 -15 37 -15c23 0 42 14 42 32c0 19 -19 33 -42 33c-16 0 -29 -6 -37 -15v113c-87 29 -138 101 -138 198v199h-145v100h145v250h100v-250h145v-100
h-145v-195c0 -83 51 -119 132 -119c75 0 117 35 136 55v-110z" />
    <glyph glyph-name="uni0163.ss05" horiz-adv-x="446" 
d="M271 0l-10 -54c39 -11 64 -41 64 -76c0 -46 -37 -83 -100 -83c-19 0 -39 5 -54 13v55c8 -9 21 -15 37 -15c23 0 42 14 42 32c0 19 -19 33 -42 33c-16 0 -29 -6 -37 -15v280h-145v100h145v480h100v-480h145v-100h-145v-170z" />
    <glyph glyph-name="uni021B" unicode="&#x21b;" horiz-adv-x="443" 
d="M416 500v-100h-145v-400h-100v400h-145v100h145v250h100v-250h145zM83 -278l89 224l96 -45l-114 -212z" />
    <glyph glyph-name="uni021B.ss01" horiz-adv-x="573" 
d="M407 86c75 0 117 35 136 55v-110c-37 -26 -80 -41 -141 -41c-141 0 -227 85 -227 211v199h-145v100h145v250h100v-250h145v-100h-145v-195c0 -83 51 -119 132 -119zM224 -278l89 224l96 -45l-114 -212z" />
    <glyph glyph-name="uni021B.ss03" horiz-adv-x="573" 
d="M407 86c75 0 117 35 136 55v-110c-37 -26 -80 -41 -141 -41c-141 0 -227 85 -227 211v199h-145v100h145v250h100v-250h145v-100h-145v-195c0 -83 51 -119 132 -119zM224 -278l89 224l96 -45l-114 -212z" />
    <glyph glyph-name="uni021B.ss05" horiz-adv-x="446" 
d="M416 270v-100h-145v-170h-100v170h-145v100h145v480h100v-480h145zM83 -278l89 224l96 -45l-114 -212z" />
    <glyph glyph-name="u" unicode="u" horiz-adv-x="673" 
d="M503 500h100v-500h-100v87c-45 -60 -114 -97 -193 -97c-143 0 -239 116 -240 260v250h100v-235c0 -98 69 -179 166 -179c96 0 167 86 167 179v235z" />
    <glyph glyph-name="u.ss02" horiz-adv-x="669" 
d="M499 500h100v-500h-529v500h100v-400h329v400z" />
    <glyph glyph-name="uacute" unicode="&#xfa;" horiz-adv-x="673" 
d="M530 700l-137 -130h-92l103 130h126zM503 500h100v-500h-100v87c-45 -60 -114 -97 -193 -97c-143 0 -239 116 -240 260v250h100v-235c0 -98 69 -179 166 -179c96 0 167 86 167 179v235z" />
    <glyph glyph-name="uacute.ss02" horiz-adv-x="669" 
d="M523 700l-137 -130h-92l103 130h126zM499 500h100v-500h-529v500h100v-400h329v400z" />
    <glyph glyph-name="uni01D4" unicode="&#x1d4;" horiz-adv-x="673" 
d="M282 570l-129 130h103l85 -91l85 91h103l-129 -130h-118zM503 500h100v-500h-100v87c-45 -60 -114 -97 -193 -97c-143 0 -239 116 -240 260v250h100v-235c0 -98 69 -179 166 -179c96 0 167 86 167 179v235z" />
    <glyph glyph-name="uni01D4.ss02" horiz-adv-x="669" 
d="M275 570l-129 130h103l85 -91l85 91h103l-129 -130h-118zM499 500h100v-500h-529v500h100v-400h329v400z" />
    <glyph glyph-name="ucircumflex" unicode="&#xfb;" horiz-adv-x="673" 
d="M345 661l-85 -91h-103l129 130h118l129 -130h-103zM503 500h100v-500h-100v87c-45 -60 -114 -97 -193 -97c-143 0 -239 116 -240 260v250h100v-235c0 -98 69 -179 166 -179c96 0 167 86 167 179v235z" />
    <glyph glyph-name="ucircumflex.ss02" horiz-adv-x="669" 
d="M334 661l-85 -91h-103l129 130h118l129 -130h-103zM499 500h100v-500h-529v500h100v-400h329v400z" />
    <glyph glyph-name="udieresis" unicode="&#xfc;" horiz-adv-x="673" 
d="M311 624l-64 -64l-64 64l64 64zM496 624l-64 -64l-64 64l64 64zM503 500h100v-500h-100v87c-45 -60 -114 -97 -193 -97c-143 0 -239 116 -240 260v250h100v-235c0 -98 69 -179 166 -179c96 0 167 86 167 179v235z" />
    <glyph glyph-name="udieresis.ss02" horiz-adv-x="669" 
d="M305 624l-64 -64l-64 64l64 64zM490 624l-64 -64l-64 64l64 64zM499 500h100v-500h-529v500h100v-400h329v400z" />
    <glyph glyph-name="uni01D8" unicode="&#x1d8;" horiz-adv-x="673" 
d="M530 864l-137 -130h-92l103 130h126zM312 624l-64 -64l-64 64l64 64zM433 560l-64 64l64 64l64 -64zM503 500h100v-500h-100v87c-45 -60 -114 -97 -193 -97c-143 0 -239 116 -240 260v250h100v-235c0 -98 69 -179 166 -179c96 0 167 86 167 179v235z" />
    <glyph glyph-name="uni01D8.ss02" horiz-adv-x="669" 
d="M523 864l-137 -130h-92l103 130h126zM305 624l-64 -64l-64 64l64 64zM426 560l-64 64l64 64l64 -64zM499 500h100v-500h-529v500h100v-400h329v400z" />
    <glyph glyph-name="uni01DA" unicode="&#x1da;" horiz-adv-x="673" 
d="M282 734l-129 130h103l85 -91l85 91h103l-129 -130h-118zM184 624l64 64l64 -64l-64 -64zM433 560l-64 64l64 64l64 -64zM503 500h100v-500h-100v87c-45 -60 -114 -97 -193 -97c-143 0 -239 116 -240 260v250h100v-235c0 -98 69 -179 166 -179c96 0 167 86 167 179v235z
" />
    </font>
</defs>
</svg>
